<?xml version="1.0" encoding="UTF-8"?>
<svg version="1.1" xmlns="http://www.w3.org/2000/svg" width="100" height="100">
<path d="M0 0 C33 0 66 0 100 0 C100 33 100 66 100 100 C67 100 34 100 0 100 C0 67 0 34 0 0 Z " fill="#BCA883" transform="translate(0,0)"/>
<path d="M0 0 C28.38 0 56.76 0 86 0 C86 29.7 86 59.4 86 90 C84.62293249 87.24586498 83.43292027 84.66669799 82.34375 81.8125 C81.89322266 80.64074219 81.89322266 80.64074219 81.43359375 79.4453125 C80.81119792 77.81510417 80.18880208 76.18489583 79.56640625 74.5546875 C79.11587891 73.38292969 79.11587891 73.38292969 78.65625 72.1875 C78.38619141 71.47980469 78.11613281 70.77210937 77.83789062 70.04296875 C77.42313477 69.03169922 77.42313477 69.03169922 77 68 C76.71745361 67.29254639 76.43490723 66.58509277 76.14379883 65.85620117 C74.70401671 63.51966681 73.59205467 63.06569015 71.04296875 62.11328125 C70.25986328 61.81486328 69.47675781 61.51644531 68.66992188 61.20898438 C67.85072266 60.91314453 67.03152344 60.61730469 66.1875 60.3125 C65.37990234 60.00505859 64.57230469 59.69761719 63.74023438 59.38085938 C60.50534449 58.17009387 57.43434198 57.08480556 54.0390625 56.421875 C52 56 52 56 50.1875 53.9375 C49.5996875 52.9784375 49.5996875 52.9784375 49 52 C48.72285156 52.56589844 48.44570313 53.13179687 48.16015625 53.71484375 C47.79792969 54.44832031 47.43570313 55.18179688 47.0625 55.9375 C46.70285156 56.66839844 46.34320313 57.39929687 45.97265625 58.15234375 C45 60 45 60 44 61 C43.814375 62.7015625 43.814375 62.7015625 43.625 64.4375 C43.41875 65.613125 43.2125 66.78875 43 68 C42.01 68.66 41.02 69.32 40 70 C38.30882185 68.07365802 36.62305388 66.14407494 34.953125 64.19921875 C33.08753857 62.03395861 33.08753857 62.03395861 31.234375 60.33203125 C26.62673178 55.80267323 26.24174674 51.73411967 26.0078125 45.37890625 C26.00523438 44.59386719 26.00265625 43.80882812 26 43 C24.68 42.67 23.36 42.34 22 42 C20.9287172 35.97403427 20.90054585 30.11090483 21 24 C20.34 24 19.68 24 19 24 C18.67 23.34 18.34 22.68 18 22 C17.34 22.99 16.68 23.98 16 25 C14.35 24.67 12.7 24.34 11 24 C10.34 21.69 9.68 19.38 9 17 C8.01 17 7.02 17 6 17 C6 17.66 6 18.32 6 19 C5.34 19 4.68 19 4 19 C4 16.69 4 14.38 4 12 C3.34 12 2.68 12 2 12 C0.29427716 7.52247755 0 5.01632918 0 0 Z " fill="#B39E88" transform="translate(14,0)"/>
<path d="M0 0 C1.5 1.375 1.5 1.375 3 3 C3 3.66 3 4.32 3 5 C3.98871094 5.11730469 4.97742188 5.23460937 5.99609375 5.35546875 C13.72985151 6.48197082 22.92545882 8.444036 28.1953125 14.5390625 C29.79366202 17.64370999 30.92551864 20.67784032 32 24 C32.477581 25.25600825 32.96084054 26.5098693 33.44921875 27.76171875 C36.29463741 35.38874239 37 40.45478081 37 49 C9.61 49 -17.78 49 -46 49 C-46 25.91666667 -46 25.91666667 -41.875 20.5 C-33.25 13 -33.25 13 -29 13 C-29 12.34 -29 11.68 -29 11 C-28.34 11 -27.68 11 -27 11 C-27.33 12.98 -27.66 14.96 -28 17 C-27.01 17 -26.02 17 -25 17 C-22.66435067 17.31669821 -20.3306218 17.64820803 -18 18 C-17.67 17.34 -17.34 16.68 -17 16 C-16.34 16.33 -15.68 16.66 -15 17 C-15 17.66 -15 18.32 -15 19 C-13.68 19.66 -12.36 20.32 -11 21 C-11.495 23.475 -11.495 23.475 -12 26 C-11.34 26 -10.68 26 -10 26 C-9.814375 24.329375 -9.814375 24.329375 -9.625 22.625 C-9 19 -9 19 -7 17 C-6.855625 15.88625 -6.71125 14.7725 -6.5625 13.625 C-5.9789888 9.86459451 -5.35860298 8.81218047 -3 6 C-1.96958573 4.01549844 -0.96314063 2.01800895 0 0 Z " fill="#CFCDDC" transform="translate(63,51)"/>
<path d="M0 0 C0.66 0 1.32 0 2 0 C1.67 1.98 1.34 3.96 1 6 C1.99 6 2.98 6 4 6 C6.33564933 6.31669821 8.6693782 6.64820803 11 7 C11.33 6.34 11.66 5.68 12 5 C12.66 5.33 13.32 5.66 14 6 C14 6.66 14 7.32 14 8 C15.32 8.66 16.64 9.32 18 10 C17.67 11.65 17.34 13.3 17 15 C17.66 15 18.32 15 19 15 C19 13.35 19 11.7 19 10 C19.33 10 19.66 10 20 10 C19.98839844 10.71027344 19.97679687 11.42054687 19.96484375 12.15234375 C19.95582031 13.07144531 19.94679687 13.99054688 19.9375 14.9375 C19.92589844 15.85402344 19.91429687 16.77054688 19.90234375 17.71484375 C19.74050951 19.96593327 19.74050951 19.96593327 21 21 C21.09956009 23.2898821 21.1296872 25.58295937 21.125 27.875 C21.12886719 29.75832031 21.12886719 29.75832031 21.1328125 31.6796875 C21 35 21 35 20 38 C7.79 38 -4.42 38 -17 38 C-17 14.91666667 -17 14.91666667 -12.875 9.5 C-4.25 2 -4.25 2 0 2 C0 1.34 0 0.68 0 0 Z " fill="#CDC9D3" transform="translate(34,62)"/>
<path d="M0 0 C4.30992993 2.25398961 7.39592037 5.19438958 9.91015625 9.30859375 C10.45466685 13.37677638 10.77805474 17.57279677 8.91015625 21.30859375 C8.25015625 21.30859375 7.59015625 21.30859375 6.91015625 21.30859375 C5.59015625 17.67859375 4.27015625 14.04859375 2.91015625 10.30859375 C1.92015625 10.30859375 0.93015625 10.30859375 -0.08984375 10.30859375 C-0.41984375 11.29859375 -0.74984375 12.28859375 -1.08984375 13.30859375 C0.56015625 13.96859375 2.21015625 14.62859375 3.91015625 15.30859375 C3.91015625 16.62859375 3.91015625 17.94859375 3.91015625 19.30859375 C1.93015625 19.63859375 -0.04984375 19.96859375 -2.08984375 20.30859375 C-2.74984375 19.31859375 -3.40984375 18.32859375 -4.08984375 17.30859375 C-4.41984375 20.27859375 -4.74984375 23.24859375 -5.08984375 26.30859375 C-3.10984375 26.63859375 -1.12984375 26.96859375 0.91015625 27.30859375 C0.91015625 28.29859375 0.91015625 29.28859375 0.91015625 30.30859375 C-0.40984375 29.97859375 -1.72984375 29.64859375 -3.08984375 29.30859375 C-3.08984375 31.28859375 -3.08984375 33.26859375 -3.08984375 35.30859375 C-1.43984375 35.30859375 0.21015625 35.30859375 1.91015625 35.30859375 C1.25015625 36.00984375 0.59015625 36.71109375 -0.08984375 37.43359375 C-2.39217578 40.74319604 -2.45614531 42.37085198 -2.08984375 46.30859375 C-1.30609375 45.83421875 -0.52234375 45.35984375 0.28515625 44.87109375 C1.79964303 43.96961352 3.33374595 43.0967989 4.91015625 42.30859375 C4.03515625 46.18359375 4.03515625 46.18359375 2.91015625 47.30859375 C2.78640625 48.44296875 2.66265625 49.57734375 2.53515625 50.74609375 C2.22578125 52.50953125 2.22578125 52.50953125 1.91015625 54.30859375 C0.92015625 54.96859375 -0.06984375 55.62859375 -1.08984375 56.30859375 C-2.7810219 54.38225177 -4.46678987 52.45266869 -6.13671875 50.5078125 C-8.00230518 48.34255236 -8.00230518 48.34255236 -9.85546875 46.640625 C-14.46311197 42.11126698 -14.84809701 38.04271342 -15.08203125 31.6875 C-15.08460937 30.90246094 -15.0871875 30.11742188 -15.08984375 29.30859375 C-16.40984375 28.97859375 -17.72984375 28.64859375 -19.08984375 28.30859375 C-20.16112655 22.28262802 -20.1892979 16.41949858 -20.08984375 10.30859375 C-20.74984375 10.30859375 -21.40984375 10.30859375 -22.08984375 10.30859375 C-21.54260692 6.9339666 -21.03494375 5.22624375 -19.08984375 2.30859375 C-13.49993413 -1.56134368 -6.43355149 -2.12848339 0 0 Z " fill="#945036" transform="translate(55.08984375,13.69140625)"/>
<path d="M0 0 C0.66 0 1.32 0 2 0 C1.71972762 6.58640099 0.52179732 11.93674054 -2.16015625 17.96875 C-3.12736339 19.94170418 -3.12736339 19.94170418 -3 22 C-1.35 22 0.3 22 2 22 C1.34 23.98 0.68 25.96 0 28 C0.66 28 1.32 28 2 28 C3 31 3 31 3 38 C-3.6 38 -10.2 38 -17 38 C-17.5391648 15.62466085 -17.5391648 15.62466085 -12.875 9.5 C-4.25 2 -4.25 2 0 2 C0 1.34 0 0.68 0 0 Z " fill="#CCBDB3" transform="translate(34,62)"/>
<path d="M0 0 C9.9 0 19.8 0 30 0 C30 0.99 30 1.98 30 3 C29.01 3.66 28.02 4.32 27 5 C27.66 7.31 28.32 9.62 29 12 C27.68 12 26.36 12 25 12 C25 12.66 25 13.32 25 14 C25.66 14.33 26.32 14.66 27 15 C25.824375 15.0928125 25.824375 15.0928125 24.625 15.1875 C23.75875 15.455625 22.8925 15.72375 22 16 C20.76709799 18.45704762 20.76709799 18.45704762 20 21 C19.34 21.33 18.68 21.66 18 22 C17.34 22.99 16.68 23.98 16 25 C14.35 24.67 12.7 24.34 11 24 C10.34 21.69 9.68 19.38 9 17 C8.01 17 7.02 17 6 17 C6 17.66 6 18.32 6 19 C5.34 19 4.68 19 4 19 C4 16.69 4 14.38 4 12 C3.34 12 2.68 12 2 12 C0.29427716 7.52247755 0 5.01632918 0 0 Z " fill="#AF9678" transform="translate(14,0)"/>
<path d="M0 0 C1.77260631 0.45142775 3.5430368 0.91140523 5.3125 1.375 C6.79169922 1.75785156 6.79169922 1.75785156 8.30078125 2.1484375 C11.51129598 3.16130611 13.48406873 4.11625966 15.2109375 7.07421875 C24.9311028 28.89566366 24.9311028 28.89566366 24 41 C19.38 41 14.76 41 10 41 C9.13183724 36.91963502 8.85480865 33.98055721 9.9375 29.9375 C11.54951577 23.70581486 11.16358618 17.38894929 11 11 C10.34 13.31 9.68 15.62 9 18 C7.0625 17.6875 7.0625 17.6875 5 17 C4.67 16.01 4.34 15.02 4 14 C5.32 13.67 6.64 13.34 8 13 C7.01 13 6.02 13 5 13 C4.28385417 11.07942708 3.56770833 9.15885417 2.8515625 7.23828125 C1.9291687 4.81382414 0.96917891 2.40609199 0 0 Z " fill="#D5D3DB" transform="translate(76,59)"/>
<path d="M0 0 C1.890625 0.22265625 1.890625 0.22265625 4 1 C5.046875 2.99609375 5.046875 2.99609375 5.75 5.4375 C5.99234375 6.24058594 6.2346875 7.04367188 6.484375 7.87109375 C7 10 7 10 7 12 C7.66 12 8.32 12 9 12 C8.28332122 14.15003634 7.55250503 16.29538019 6.8125 18.4375 C5.68980292 21.82469769 5.68980292 21.82469769 6.875 24.25 C7.431875 25.11625 7.431875 25.11625 8 26 C8 29.29223784 7.49481868 31.08510357 6 34 C3.48752634 35.67498244 0.93697877 36.37064741 -2 37 C-2.75 34.25 -2.75 34.25 -3 31 C-1.0625 28.625 -1.0625 28.625 1 27 C-0.32 26.67 -1.64 26.34 -3 26 C-3 24.02 -3 22.04 -3 20 C-1.68 20.33 -0.36 20.66 1 21 C1 20.01 1 19.02 1 18 C-0.98 18.33 -2.96 18.66 -5 19 C-5 15.04 -5 11.08 -5 7 C-4.01 7.99 -3.02 8.98 -2 10 C1.12549017 10.25048636 1.12549017 10.25048636 4 10 C3.67 8.68 3.34 7.36 3 6 C1.35 5.67 -0.3 5.34 -2 5 C-1.34 3.35 -0.68 1.7 0 0 Z " fill="#D4A68D" transform="translate(55,23)"/>
<path d="M0 0 C6.11047459 0.23962645 8.85816848 1.75955344 13 6 C13.8359375 7.8828125 13.8359375 7.8828125 14 10 C12.890625 12.25390625 12.890625 12.25390625 11.25 14.5625 C10.71890625 15.32691406 10.1878125 16.09132813 9.640625 16.87890625 C8.18137437 18.76550884 6.82685542 20.46683524 5 22 C2.8125 21.6875 2.8125 21.6875 1 21 C0.67 22.32 0.34 23.64 0 25 C0 24.34 0 23.68 0 23 C-0.66 23 -1.32 23 -2 23 C-1.67 21.35 -1.34 19.7 -1 18 C-2.32 17.67 -3.64 17.34 -5 17 C-5.33 17.99 -5.66 18.98 -6 20 C-5.46137794 14.07515739 -4.29622483 4.29622483 0 0 Z " fill="#C8C4CC" transform="translate(36,67)"/>
<path d="M0 0 C3.12290635 0.48578543 5.99580359 0.9986012 9 2 C11.25727139 5.48851034 12.81511623 8.41272214 14.0625 12.375 C14.371875 13.24125 14.68125 14.1075 15 15 C15.99 15.33 16.98 15.66 18 16 C17.34 16.33 16.68 16.66 16 17 C14.9254644 18.7763932 14.9254644 18.7763932 15 20 C15.99 20.33 16.98 20.66 18 21 C18.33 17.7 18.66 14.4 19 11 C22.71182802 16.56774202 21.54266982 24.48668075 20.546875 30.93359375 C20.19569782 32.58161811 19.82974042 34.22660075 19.4453125 35.8671875 C18.87422381 38.60240174 18.85352188 41.21691577 19 44 C18.34 44 17.68 44 17 44 C14.09811913 39.66411574 14.92764393 34.80907731 15.16601562 29.84375 C15.25630783 26.50605198 15.24095344 24.40054598 13.49609375 21.5 C13.00238281 21.005 12.50867188 20.51 12 20 C11.34 20.99 10.68 21.98 10 23 C9.67 20.36 9.34 17.72 9 15 C7.35 15.33 5.7 15.66 4 16 C4.33 17.32 4.66 18.64 5 20 C4.34 19.67 3.68 19.34 3 19 C3.93943565 14.16861666 3.93943565 14.16861666 4.6875 12.0859375 C5.11532164 9.23022804 4.19536605 8.20260851 2.5625 5.875 C0 2.17438692 0 2.17438692 0 0 Z " fill="#CBC8D3" transform="translate(67,56)"/>
<path d="M0 0 C4.30992993 2.25398961 7.39592037 5.19438958 9.91015625 9.30859375 C10.45466685 13.37677638 10.77805474 17.57279677 8.91015625 21.30859375 C8.25015625 21.30859375 7.59015625 21.30859375 6.91015625 21.30859375 C6.89597656 20.72851562 6.88179687 20.1484375 6.8671875 19.55078125 C6.61866722 15.48042206 6.26158713 12.12397689 3.84765625 8.74609375 C0.48133108 5.9527601 -0.95010662 5.63934901 -5.1640625 5.97265625 C-9.08709862 6.65699926 -11.7969561 8.11333532 -15.08984375 10.30859375 C-15.89320488 13.18618443 -15.89320488 13.18618443 -16.27734375 16.43359375 C-16.43589844 17.52929688 -16.59445313 18.625 -16.7578125 19.75390625 C-16.86738281 20.59695312 -16.97695313 21.44 -17.08984375 22.30859375 C-19.11334699 19.27333889 -19.41108393 18.11433173 -19.71484375 14.62109375 C-19.78960937 13.81285156 -19.864375 13.00460938 -19.94140625 12.171875 C-20.01488281 11.24955078 -20.01488281 11.24955078 -20.08984375 10.30859375 C-20.74984375 10.30859375 -21.40984375 10.30859375 -22.08984375 10.30859375 C-21.54260692 6.9339666 -21.03494375 5.22624375 -19.08984375 2.30859375 C-13.49993413 -1.56134368 -6.43355149 -2.12848339 0 0 Z " fill="#130805" transform="translate(55.08984375,13.69140625)"/>
<path d="M0 0 C0.66 0 1.32 0 2 0 C3.512545 5.16044765 4.33500455 8.65998179 3 14 C3.66 14 4.32 14 5 14 C5.83504532 16.64530427 6.66811375 19.2912024 7.5 21.9375 C7.73847656 22.69224609 7.97695313 23.44699219 8.22265625 24.22460938 C10 29.88671875 10 29.88671875 10 31 C6.37 31 2.74 31 -1 31 C-0.67 25.39 -0.34 19.78 0 14 C-0.66 13.67 -1.32 13.34 -2 13 C-1.85966889 11.02043559 -1.7125877 9.04134859 -1.5625 7.0625 C-1.48128906 5.96035156 -1.40007813 4.85820313 -1.31640625 3.72265625 C-1 1 -1 1 0 0 Z " fill="#D3D1DE" transform="translate(55,69)"/>
<path d="M0 0 C1.01750856 4.07003425 0.6242452 5.5125003 -0.44921875 9.3828125 C-2.00374812 16.76958324 -2.47612201 24.61938994 -1 32 C-4.63 32 -8.26 32 -12 32 C-12 29.03 -12 26.06 -12 23 C-10.02 24.65 -8.04 26.3 -6 28 C-6.144375 27.23816406 -6.28875 26.47632812 -6.4375 25.69140625 C-7.57797374 19.34752104 -8.21474302 13.44229056 -8 7 C-7.01 7 -6.02 7 -5 7 C-4.34 7.66 -3.68 8.32 -3 9 C-2.01 6.03 -1.02 3.06 0 0 Z " fill="#C4BABA" transform="translate(31,68)"/>
<path d="M0 0 C0.66 0 1.32 0 2 0 C1.71972762 6.58640099 0.52179732 11.93674054 -2.16015625 17.96875 C-3.12736339 19.94170418 -3.12736339 19.94170418 -3 22 C-1.35 22 0.3 22 2 22 C1.34 23.98 0.68 25.96 0 28 C0.66 28 1.32 28 2 28 C3.1577506 31.47325181 3.06866652 34.36067448 3 38 C0.69 38 -1.62 38 -4 38 C-7.86508683 28.17376003 -5.1144117 17.05885179 -3 7 C-4.32 6.34 -5.64 5.68 -7 5 C-2.25 2 -2.25 2 0 2 C0 1.34 0 0.68 0 0 Z " fill="#B0A9B3" transform="translate(34,62)"/>
<path d="M0 0 C3.35108708 0.87721488 4.97627211 2.81359347 7.01953125 5.51953125 C8.61117038 8.5731204 8.48507758 11.18762163 8.07421875 14.54296875 C7.74421875 14.54296875 7.41421875 14.54296875 7.07421875 14.54296875 C5.58921875 10.08796875 5.58921875 10.08796875 4.07421875 5.54296875 C3.08421875 5.54296875 2.09421875 5.54296875 1.07421875 5.54296875 C0.74421875 6.53296875 0.41421875 7.52296875 0.07421875 8.54296875 C2.54921875 9.53296875 2.54921875 9.53296875 5.07421875 10.54296875 C5.07421875 11.86296875 5.07421875 13.18296875 5.07421875 14.54296875 C3.09421875 14.87296875 1.11421875 15.20296875 -0.92578125 15.54296875 C-1.58578125 14.55296875 -2.24578125 13.56296875 -2.92578125 12.54296875 C-3.25578125 14.85296875 -3.58578125 17.16296875 -3.92578125 19.54296875 C-4.25578125 19.54296875 -4.58578125 19.54296875 -4.92578125 19.54296875 C-5.25578125 16.24296875 -5.58578125 12.94296875 -5.92578125 9.54296875 C-7.24578125 9.21296875 -8.56578125 8.88296875 -9.92578125 8.54296875 C-9.58025737 5.98609206 -9.17491112 3.967955 -7.86328125 1.73046875 C-5.30966014 0.16534613 -2.97034468 -0.11529989 0 0 Z " fill="#C28A5F" transform="translate(53.92578125,18.45703125)"/>
<path d="M0 0 C0.99 0.33 1.98 0.66 3 1 C3 1.66 3 2.32 3 3 C4.32 3.66 5.64 4.32 7 5 C6.67 6.65 6.34 8.3 6 10 C6.66 10 7.32 10 8 10 C8 8.35 8 6.7 8 5 C8.33 5 8.66 5 9 5 C9 7.97 9 10.94 9 14 C8.34 14 7.68 14 7 14 C6.67 13.34 6.34 12.68 6 12 C2.30250259 16.07999715 0.7410336 19.86395088 -1 25 C-1.66 25 -2.32 25 -3 25 C-2.34 25.99 -1.68 26.98 -1 28 C-1.375 30.6875 -1.375 30.6875 -2 33 C-3.98 33 -5.96 33 -8 33 C-9.28571429 24.42857143 -9.28571429 24.42857143 -8 21 C-6.02 21 -4.04 21 -2 21 C-1.7525 20.113125 -1.505 19.22625 -1.25 18.3125 C0 15 0 15 2.1875 12.375 C4.20854395 10.22466961 4.20854395 10.22466961 4 7.9375 C2.7252865 5.4677426 1.05169107 3.85314032 -1 2 C-0.67 1.34 -0.34 0.68 0 0 Z " fill="#BFB9C1" transform="translate(45,67)"/>
<path d="M0 0 C3.36202939 1.42609159 5.23675579 3.14348515 7.5625 5.9375 C9.9898103 8.85628256 9.9898103 8.85628256 12.734375 11.4609375 C14 13 14 13 14.07421875 15.26171875 C13.94660156 16.06222656 13.81898437 16.86273438 13.6875 17.6875 C13.56761719 18.49574219 13.44773437 19.30398437 13.32421875 20.13671875 C13.21722656 20.75160156 13.11023438 21.36648437 13 22 C12.34 22 11.68 22 11 22 C11.0928125 20.824375 11.0928125 20.824375 11.1875 19.625 C11.125625 18.75875 11.06375 17.8925 11 17 C10.01 16.34 9.02 15.68 8 15 C8 14.34 8 13.68 8 13 C6.7625 13.20625 5.525 13.4125 4.25 13.625 C0.79680122 14.20053313 -0.98029681 13.78189692 -4 12 C-2.66666667 8 -1.33333333 4 0 0 Z " fill="#ACA5B4" transform="translate(40,55)"/>
<path d="M0 0 C0.33 0.66 0.66 1.32 1 2 C2.65 2 4.3 2 6 2 C6 11.57 6 21.14 6 31 C3.86064363 26.72128727 2.11437095 22.38845128 0.375 17.9375 C-0.11226563 16.71450195 -0.11226563 16.71450195 -0.609375 15.46679688 C-0.91617188 14.68240234 -1.22296875 13.89800781 -1.5390625 13.08984375 C-1.95986084 12.02044556 -1.95986084 12.02044556 -2.38916016 10.92944336 C-3 9 -3 9 -3 6 C-3.33 5.01 -3.66 4.02 -4 3 C-3.34 2.67 -2.68 2.34 -2 2 C-1.67 3.98 -1.34 5.96 -1 8 C-0.17361624 5.10765685 0 3.11257569 0 0 Z " fill="#B1A195" transform="translate(94,59)"/>
<path d="M0 0 C0.99 0.66 1.98 1.32 3 2 C5.64632287 1.6878236 5.64632287 1.6878236 8 1 C8 3.31 8 5.62 8 8 C8.78375 7.525625 9.5675 7.05125 10.375 6.5625 C11.88948678 5.66101977 13.4235897 4.78820515 15 4 C14.125 7.875 14.125 7.875 13 9 C12.87625 10.134375 12.7525 11.26875 12.625 12.4375 C12.41875 13.613125 12.2125 14.78875 12 16 C11.01 16.66 10.02 17.32 9 18 C5.23645964 13.73958774 1.50118038 9.48151089 -2 5 C-1.34 3.35 -0.68 1.7 0 0 Z " fill="#B37754" transform="translate(45,52)"/>
<path d="M0 0 C-0.33 2.31 -0.66 4.62 -1 7 C-0.01 7.33 0.98 7.66 2 8 C2.33569297 9.62451419 2.6684796 11.24962917 3 12.875 C3.185625 13.77992187 3.37125 14.68484375 3.5625 15.6171875 C4 18 4 18 4 20 C4.99 20.33 5.98 20.66 7 21 C5.68 21 4.36 21 3 21 C3 21.99 3 22.98 3 24 C1.35 23.67 -0.3 23.34 -2 23 C-1.67 22.34 -1.34 21.68 -1 21 C-0.34 21 0.32 21 1 21 C0.67 19.02 0.34 17.04 0 15 C-1.65 15 -3.3 15 -5 15 C-6.792299 11.19136463 -7.62633584 8.20539781 -7 4 C-3 0 -3 0 0 0 Z " fill="#6E321D" transform="translate(46,20)"/>
<path d="M0 0 C3.71182802 5.56774202 2.54266982 13.48668075 1.546875 19.93359375 C1.19569782 21.58161811 0.82974042 23.22660075 0.4453125 24.8671875 C-0.12577619 27.60240174 -0.14647812 30.21691577 0 33 C-0.66 33 -1.32 33 -2 33 C-4.90188087 28.66411574 -4.07235607 23.80907731 -3.83398438 18.84375 C-3.74369217 15.50605198 -3.75904656 13.40054598 -5.50390625 10.5 C-5.99761719 10.005 -6.49132812 9.51 -7 9 C-7.66 9.99 -8.32 10.98 -9 12 C-9 9.69 -9 7.38 -9 5 C-5.125 6.75 -5.125 6.75 -4 9 C-3.01 9.33 -2.02 9.66 -1 10 C-0.67 6.7 -0.34 3.4 0 0 Z " fill="#BFBCCC" transform="translate(86,67)"/>
<path d="M0 0 C5.50930954 1.34373403 9.08621081 4.03230187 13 8 C14.24377393 10.48754786 14.13306235 12.22655301 14.125 15 C14.12886719 16.3303125 14.12886719 16.3303125 14.1328125 17.6875 C14 20 14 20 13 22 C12.34 22 11.68 22 11 22 C10.98582031 21.41992188 10.97164062 20.83984375 10.95703125 20.2421875 C10.67324389 15.59421067 10.18943369 11.60030336 6.875 8.01953125 C2.70642122 5.75286654 -2.41592114 6.60519895 -7 7 C-4.64046906 4.64046906 -3.22104383 4.50858587 0 4 C0 2.68 0 1.36 0 0 Z " fill="#23150D" transform="translate(51,13)"/>
<path d="M0 0 C0.48066535 1.89545392 0.95946743 3.79138039 1.4375 5.6875 C1.83775391 7.27111328 1.83775391 7.27111328 2.24609375 8.88671875 C2.89897932 11.5828317 3.47941193 14.2757576 4 17 C1.36 17 -1.28 17 -4 17 C-5.20126412 11.35405862 -5.00995423 6.47741912 -3 1 C-1 0 -1 0 0 0 Z " fill="#CAC9D8" transform="translate(90,83)"/>
<path d="M0 0 C0.99 0.99 1.98 1.98 3 3 C6.12549017 3.25048636 6.12549017 3.25048636 9 3 C9 3.99 9 4.98 9 6 C8.01 6.495 8.01 6.495 7 7 C7.0928125 8.8871875 7.0928125 8.8871875 7.1875 10.8125 C7.20826011 14.72231986 7.20826011 14.72231986 5.5 17 C5.005 17.33 4.51 17.66 4 18 C5.32 18 6.64 18 8 18 C7.67 18.66 7.34 19.32 7 20 C5.35 19.67 3.7 19.34 2 19 C2 17.02 2 15.04 2 13 C3.32 13.33 4.64 13.66 6 14 C6 13.01 6 12.02 6 11 C4.02 11.33 2.04 11.66 0 12 C0 8.04 0 4.08 0 0 Z " fill="#C69179" transform="translate(50,30)"/>
<path d="M0 0 C2.17028067 3.61105522 2.58806497 7.10792974 3.125 11.25 C3.29257812 12.51328125 3.46015625 13.7765625 3.6328125 15.078125 C3.81457031 16.52445313 3.81457031 16.52445313 4 18 C2.02 16.35 0.04 14.7 -2 13 C-2.33 15.31 -2.66 17.62 -3 20 C-3.66 20 -4.32 20 -5 20 C-5.18451025 7.33029613 -5.18451025 7.33029613 -4 2 C-2.515 2.99 -2.515 2.99 -1 4 C-0.67 2.68 -0.34 1.36 0 0 Z " fill="#C3B5AA" transform="translate(22,80)"/>
<path d="M0 0 C1.890625 0.22265625 1.890625 0.22265625 4 1 C5.046875 2.99609375 5.046875 2.99609375 5.75 5.4375 C5.99234375 6.24058594 6.2346875 7.04367188 6.484375 7.87109375 C7 10 7 10 7 12 C7.66 12 8.32 12 9 12 C8.1654738 14.50357861 7.20628008 16.66785852 6 19 C5.01 19 4.02 19 3 19 C2.34 17.35 1.68 15.7 1 14 C1.99 13.67 2.98 13.34 4 13 C3.67 10.69 3.34 8.38 3 6 C1.35 5.67 -0.3 5.34 -2 5 C-1.34 3.35 -0.68 1.7 0 0 Z " fill="#E0B198" transform="translate(55,23)"/>
<path d="M0 0 C3.3326532 1.42095543 5.23606522 3.1165874 7.5625 5.875 C8.14128906 6.55304687 8.72007813 7.23109375 9.31640625 7.9296875 C10.93211201 9.91651825 12.4799399 11.93937141 14 14 C11.11562221 12.70700306 9.12780579 11.34058637 7 9 C4.525 10.485 4.525 10.485 2 12 C0.48046875 10.79296875 0.48046875 10.79296875 -1 9 C-1.07421875 6.73828125 -1.07421875 6.73828125 -0.6875 4.3125 C-0.56761719 3.50425781 -0.44773438 2.69601563 -0.32421875 1.86328125 C-0.21722656 1.24839844 -0.11023437 0.63351563 0 0 Z " fill="#AC98A2" transform="translate(40,55)"/>
<path d="M0 0 C1.10224332 4.40897327 0.51921909 7.4427285 -0.4375 11.75 C-0.58509766 12.44738281 -0.73269531 13.14476563 -0.88476562 13.86328125 C-1.24868033 15.5772021 -1.62329068 17.28884581 -2 19 C-3.70840281 17.36587557 -4.93453047 16.13093906 -6 14 C-6.99 14.495 -6.99 14.495 -8 15 C-8 12.36 -8 9.72 -8 7 C-7.01 7 -6.02 7 -5 7 C-4.34 7.66 -3.68 8.32 -3 9 C-2.01 6.03 -1.02 3.06 0 0 Z " fill="#D4CED3" transform="translate(31,68)"/>
<path d="M0 0 C4.68738665 0.90723613 9.34193744 1.9547267 14 3 C11.59563974 6.60654039 10.05320393 6.85452932 6 8 C5.34 7.34 4.68 6.68 4 6 C3.01 6.99 2.02 7.98 1 9 C0 8 0 8 -0.09765625 6.15234375 C-0.06510417 4.1015625 -0.03255208 2.05078125 0 0 Z " fill="#86472C" transform="translate(41,47)"/>
<path d="M0 0 C1.5 1.3125 1.5 1.3125 3 3 C3 3.99 3 4.98 3 6 C3.99 6.33 4.98 6.66 6 7 C8.02532117 10.97563044 9 13.5050702 9 18 C7.35 17.67 5.7 17.34 4 17 C3.32844651 14.73050898 2.6626037 12.4596039 2 10.1875 C1.443125 8.29064453 1.443125 8.29064453 0.875 6.35546875 C0 3 0 3 0 0 Z " fill="#B5B4C2" transform="translate(60,82)"/>
<path d="M0 0 C1.32 0 2.64 0 4 0 C4.33 0.99 4.66 1.98 5 3 C5.66 3.33 6.32 3.66 7 4 C7 4.99 7 5.98 7 7 C5.35 6.67 3.7 6.34 2 6 C2 6.66 2 7.32 2 8 C0.33333333 9.66666667 -1.33333333 11.33333333 -3 13 C-4.29519995 15.16620544 -4.29519995 15.16620544 -5 17 C-4.46246904 10.81839396 -2.45417612 5.673142 0 0 Z " fill="#D7D3DC" transform="translate(35,70)"/>
<path d="M0 0 C2.97526665 2.55022856 4.50122302 5.40293526 6 9 C5.67 9.99 5.34 10.98 5 12 C5 11.34 5 10.68 5 10 C4.05125 10.20625 3.1025 10.4125 2.125 10.625 C1.09375 10.74875 0.0625 10.8725 -1 11 C-1.66 10.34 -2.32 9.68 -3 9 C-2.67582137 5.19090105 -2.14418558 3.21627837 0 0 Z " fill="#DDD4DB" transform="translate(63,51)"/>
<path d="M0 0 C0.99 0.33 1.98 0.66 3 1 C3.33 2.98 3.66 4.96 4 7 C4.66 7 5.32 7 6 7 C6 8.98 6 10.96 6 13 C5.01 13 4.02 13 3 13 C2.01 14.485 2.01 14.485 1 16 C0.63818911 13.70952777 0.28576776 11.41757055 -0.0625 9.125 C-0.25972656 7.84882813 -0.45695313 6.57265625 -0.66015625 5.2578125 C-1 2 -1 2 0 0 Z " fill="#CAB48C" transform="translate(12,5)"/>
<path d="M0 0 C1.1577506 3.47325181 1.06866652 6.36067448 1 10 C-0.65 10 -2.3 10 -4 10 C-4.33 7.03 -4.66 4.06 -5 1 C-2 0 -2 0 0 0 Z " fill="#A79DA5" transform="translate(36,90)"/>
<path d="M0 0 C1.65 1.32 3.3 2.64 5 4 C3.52307692 8.67692308 3.52307692 8.67692308 0.875 10.3125 C-0.053125 10.6528125 -0.053125 10.6528125 -1 11 C-1.66 10.34 -2.32 9.68 -3 9 C-2.53846154 2.53846154 -2.53846154 2.53846154 0 0 Z " fill="#C6BBC9" transform="translate(59,59)"/>
<path d="M0 0 C0.99 0.33 1.98 0.66 3 1 C4.68502558 7.45926472 3.15996901 12.17136457 0 18 C-0.66 18.33 -1.32 18.66 -2 19 C-1.125 14.25 -1.125 14.25 0 12 C-0.66 11.67 -1.32 11.34 -2 11 C-1.01 10.67 -0.02 10.34 1 10 C0.67 9.01 0.34 8.02 0 7 C-0.03954234 4.66700175 -0.04401732 2.33291811 0 0 Z " fill="#BAAD91" transform="translate(36,50)"/>
<path d="M0 0 C0.33 0 0.66 0 1 0 C1 5.94 1 11.88 1 18 C0.34 18 -0.32 18 -1 18 C-3.64597242 13.51202371 -2.96091068 9.9544202 -2 5 C-0.9375 1.9375 -0.9375 1.9375 0 0 Z " fill="#9F9EB6" transform="translate(85,82)"/>
<path d="M0 0 C0.66 0 1.32 0 2 0 C3.18725323 3.71016634 3.34572261 7.12790678 3 11 C1 13.4375 1 13.4375 -1 15 C-2.43440626 12.13118749 -1.54164881 10.12952645 -1 7 C-1 5.906875 -1 4.81375 -1 3.6875 C-1 1 -1 1 0 0 Z " fill="#B3A287" transform="translate(33,24)"/>
<path d="M0 0 C0.99 0.66 1.98 1.32 3 2 C2.34 2 1.68 2 1 2 C1 2.99 1 3.98 1 5 C1.66 5.33 2.32 5.66 3 6 C1.37660195 7.70884005 -0.29319053 9.37446717 -2 11 C-2.66 11 -3.32 11 -4 11 C-4.49230769 4.6 -4.49230769 4.6 -2 1.5625 C-1.34 1.046875 -0.68 0.53125 0 0 Z " fill="#C29B84" transform="translate(66,33)"/>
<path d="M0 0 C3.1875 -0.375 3.1875 -0.375 7 0 C10.89491321 3.39769025 11.89446821 4.69140585 12.3125 9.875 C12.1578125 11.421875 12.1578125 11.421875 12 13 C11.67 13 11.34 13 11 13 C10.01 10.03 9.02 7.06 8 4 C7.01 4 6.02 4 5 4 C4.01 5.485 4.01 5.485 3 7 C2.67 6.34 2.34 5.68 2 5 C2.33 4.01 2.66 3.02 3 2 C2.01 2 1.02 2 0 2 C0 1.34 0 0.68 0 0 Z " fill="#B38A6E" transform="translate(50,20)"/>
<path d="M0 0 C0.82707306 2.36988243 1.12634 3.61730731 0.328125 6.03515625 C-0.02765625 6.70417969 -0.3834375 7.37320313 -0.75 8.0625 C-1.26820312 9.06990234 -1.26820312 9.06990234 -1.796875 10.09765625 C-3.01418522 12.02242923 -4.33078081 13.4602892 -6 15 C-5.83560987 8.27494919 -4.78944649 4.78944649 0 0 Z " fill="#D6D3DD" transform="translate(51,78)"/>
<path d="M0 0 C0.66 0 1.32 0 2 0 C1.85904936 1.6254308 1.71207913 3.25034051 1.5625 4.875 C1.48128906 5.77992187 1.40007813 6.68484375 1.31640625 7.6171875 C1 10 1 10 0 12 C-0.99 12 -1.98 12 -3 12 C-3 10.35 -3 8.7 -3 7 C-4.32 6.34 -5.64 5.68 -7 5 C-2.25 2 -2.25 2 0 2 C0 1.34 0 0.68 0 0 Z " fill="#B9B1B0" transform="translate(34,62)"/>
<path d="M0 0 C1.75 0.0625 1.75 0.0625 4 1 C7.18170608 5.50741695 8.54990817 8.36344126 8 14 C4.70159754 11.80106503 4.00238717 10.49141855 2.3125 7 C1.87550781 6.113125 1.43851562 5.22625 0.98828125 4.3125 C0 2 0 2 0 0 Z " fill="#BEB9C3" transform="translate(72,57)"/>
<path d="M0 0 C0.33 0.99 0.66 1.98 1 3 C0.34 3.66 -0.32 4.32 -1 5 C-1.144375 6.155 -1.28875 7.31 -1.4375 8.5 C-1.623125 9.655 -1.80875 10.81 -2 12 C-2.99 12.66 -3.98 13.32 -5 14 C-5.66 11.69 -6.32 9.38 -7 7 C-4.66666667 4.66666667 -2.33333333 2.33333333 0 0 Z " fill="#8A5A49" transform="translate(59,56)"/>
<path d="M0 0 C3.78990676 4.99578618 5.24249682 7.57383437 5 14 C4.34 14 3.68 14 3 14 C2.67 13.01 2.34 12.02 2 11 C1.01 11.495 1.01 11.495 0 12 C-0.19573608 10.56359829 -0.38127816 9.12580496 -0.5625 7.6875 C-0.66691406 6.88699219 -0.77132813 6.08648437 -0.87890625 5.26171875 C-1 3 -1 3 0 0 Z " fill="#C3BBC4" transform="translate(24,80)"/>
<path d="M0 0 C0.37125 0.495 0.7425 0.99 1.125 1.5 C3.74694393 3.59755514 5.73842472 3.21743835 9 3 C9 3.99 9 4.98 9 6 C5.86501708 7.85776765 3.62528568 8.20140476 0 8 C0 5.36 0 2.72 0 0 Z " fill="#D19C81" transform="translate(50,30)"/>
<path d="M0 0 C1.65 0 3.3 0 5 0 C5.33 1.98 5.66 3.96 6 6 C4.68 6.99 3.36 7.98 2 9 C0 7 0 7 -0.125 3.375 C-0.08375 2.26125 -0.0425 1.1475 0 0 Z " fill="#AA5C3F" transform="translate(41,35)"/>
<path d="M0 0 C0.33 0.66 0.66 1.32 1 2 C3.02463255 2.65213292 3.02463255 2.65213292 5 3 C4.360625 3.78375 3.72125 4.5675 3.0625 5.375 C1.01857687 7.79539281 1.01857687 7.79539281 0 10 C-0.66 10 -1.32 10 -2 10 C-2.66 8.02 -3.32 6.04 -4 4 C-2.68 2.68 -1.36 1.36 0 0 Z " fill="#B3A17C" transform="translate(19,67)"/>
<path d="M0 0 C2.31 0 4.62 0 7 0 C7 0.99 7 1.98 7 3 C5.68 2.67 4.36 2.34 3 2 C3 3.98 3 5.96 3 8 C4.65 8 6.3 8 8 8 C7.34 8.66 6.68 9.32 6 10 C3.375 9.625 3.375 9.625 1 9 C1 8.34 1 7.68 1 7 C0.34 7 -0.32 7 -1 7 C-0.67 4.69 -0.34 2.38 0 0 Z " fill="#A96956" transform="translate(49,41)"/>
<path d="M0 0 C0.66 0 1.32 0 2 0 C2.02699725 2.27076842 2.04639453 4.54162821 2.0625 6.8125 C2.07410156 8.07707031 2.08570313 9.34164062 2.09765625 10.64453125 C2 14 2 14 1 17 C0.01 17 -0.98 17 -2 17 C-1.505 15.515 -1.505 15.515 -1 14 C-0.77439324 11.60745424 -0.59151405 9.21071877 -0.4375 6.8125 C-0.35371094 5.54019531 -0.26992188 4.26789063 -0.18359375 2.95703125 C-0.12300781 1.98121094 -0.06242187 1.00539063 0 0 Z " fill="#B2B0BC" transform="translate(53,83)"/>
<path d="M0 0 C1.98 0 3.96 0 6 0 C6.33 1.65 6.66 3.3 7 5 C5.0085944 5.38133299 3.00720923 5.71325582 1 6 C0 5 0 5 -0.0625 2.4375 C-0.041875 1.633125 -0.02125 0.82875 0 0 Z " fill="#99644D" transform="translate(52,28)"/>
<path d="M0 0 C1.875 0.25 1.875 0.25 4 1 C6.11103658 3.95545121 6.19785783 6.43855901 6 10 C4.97895449 9.02149805 3.9793879 8.02019573 3 7 C3 6.67 3 6.34 3 6 C1.35 5.67 -0.3 5.34 -2 5 C-1.34 3.35 -0.68 1.7 0 0 Z " fill="#D8AC90" transform="translate(55,23)"/>
<path d="M0 0 C0 0.66 0 1.32 0 2 C-2.15234375 3.4375 -2.15234375 3.4375 -4.9375 5 C-8.62387208 6.86077895 -8.62387208 6.86077895 -11 10 C-11.66 10 -12.32 10 -13 10 C-13.33 10.66 -13.66 11.32 -14 12 C-13.45123677 8.23348872 -11.99236151 6.73347739 -9.125 4.3125 C-8.42632812 3.71050781 -7.72765625 3.10851562 -7.0078125 2.48828125 C-4.70114346 0.77847404 -2.89510951 0 0 0 Z " fill="#D6D3DC" transform="translate(49,76)"/>
<path d="M0 0 C0.33 0 0.66 0 1 0 C1.05398987 2.27057377 1.09278742 4.54151288 1.125 6.8125 C1.14820313 8.07707031 1.17140625 9.34164062 1.1953125 10.64453125 C1 14 1 14 -1 17 C-1.66 17 -2.32 17 -3 17 C-2.01 11.39 -1.02 5.78 0 0 Z " fill="#D5D2DD" transform="translate(52,83)"/>
<path d="M0 0 C0.99 0 1.98 0 3 0 C3.33 3.3 3.66 6.6 4 10 C2.68 9.67 1.36 9.34 0 9 C-1.125 2.25 -1.125 2.25 0 0 Z " fill="#7F472D" transform="translate(36,33)"/>
<path d="M0 0 C0 0.33 0 0.66 0 1 C-1.98 1 -3.96 1 -6 1 C-6 1.99 -6 2.98 -6 4 C-6.99 4.66 -7.98 5.32 -9 6 C-9.33 6.99 -9.66 7.98 -10 9 C-10.66 8.67 -11.32 8.34 -12 8 C-11.65447612 5.44312331 -11.24912987 3.42498625 -9.9375 1.1875 C-6.75444301 -0.7634059 -3.67569327 -0.1807718 0 0 Z " fill="#A56D4C" transform="translate(56,19)"/>
<path d="M0 0 C0.99 0.33 1.98 0.66 3 1 C3 1.66 3 2.32 3 3 C4.32 3.66 5.64 4.32 7 5 C6.67 6.65 6.34 8.3 6 10 C3.35247996 7.42215154 1.05567935 5.08351902 -1 2 C-0.67 1.34 -0.34 0.68 0 0 Z " fill="#BEB9C5" transform="translate(45,67)"/>
<path d="M0 0 C0.5775 0.226875 1.155 0.45375 1.75 0.6875 C1.42 1.6775 1.09 2.6675 0.75 3.6875 C-2.6875 4.8125 -2.6875 4.8125 -6.25 5.6875 C-7.24 6.1825 -7.24 6.1825 -8.25 6.6875 C-6.65594781 2.8352072 -4.57967475 -0.63606594 0 0 Z " fill="#C7BAAC" transform="translate(28.25,68.3125)"/>
<path d="M0 0 C0.33 0 0.66 0 1 0 C1.02698189 1.62490954 1.04638757 3.24994633 1.0625 4.875 C1.07410156 5.77992187 1.08570312 6.68484375 1.09765625 7.6171875 C1 10 1 10 0 12 C-0.66 12 -1.32 12 -2 12 C-2.33 8.7 -2.66 5.4 -3 2 C-2.34 2 -1.68 2 -1 2 C-0.67 1.34 -0.34 0.68 0 0 Z " fill="#463122" transform="translate(64,23)"/>
<path d="M0 0 C0.66 0 1.32 0 2 0 C2.19573608 1.43640171 2.38127816 2.87419504 2.5625 4.3125 C2.66691406 5.11300781 2.77132812 5.91351563 2.87890625 6.73828125 C3 9 3 9 2 12 C1.34 12 0.68 12 0 12 C-1.28571429 3.42857143 -1.28571429 3.42857143 0 0 Z " fill="#BEB3B7" transform="translate(37,88)"/>
<path d="M0 0 C0.66 0 1.32 0 2 0 C2.268125 0.969375 2.53625 1.93875 2.8125 2.9375 C3.204375 3.948125 3.59625 4.95875 4 6 C4.99 6.33 5.98 6.66 7 7 C7.33 8.65 7.66 10.3 8 12 C7.34 12 6.68 12 6 12 C5.34 11.01 4.68 10.02 4 9 C1.94996045 7.80767387 1.94996045 7.80767387 0 7 C0 4.69 0 2.38 0 0 Z " fill="#C09D7E" transform="translate(33,36)"/>
<path d="M0 0 C1.32 0.66 2.64 1.32 4 2 C4 2.99 4 3.98 4 5 C3.34 5 2.68 5 2 5 C1.67 6.32 1.34 7.64 1 9 C0.34 8.34 -0.32 7.68 -1 7 C-0.625 3.375 -0.625 3.375 0 0 Z " fill="#A89090" transform="translate(40,55)"/>
<path d="M0 0 C2 1.375 2 1.375 4 3 C4 3.66 4 4.32 4 5 C4.99 5.33 5.98 5.66 7 6 C5.68 6 4.36 6 3 6 C3 6.99 3 7.98 3 9 C1.35 8.67 -0.3 8.34 -2 8 C-1.67 7.34 -1.34 6.68 -1 6 C-0.34 6 0.32 6 1 6 C0.67 4.02 0.34 2.04 0 0 Z " fill="#86412C" transform="translate(46,35)"/>
<path d="M0 0 C-0.33 2.31 -0.66 4.62 -1 7 C-2.32 7.33 -3.64 7.66 -5 8 C-5.33 6.35 -5.66 4.7 -6 3 C-2.25 0 -2.25 0 0 0 Z " fill="#8B4A35" transform="translate(46,20)"/>
<path d="M0 0 C0.99 0.33 1.98 0.66 3 1 C3.33 2.65 3.66 4.3 4 6 C3.67 5.34 3.34 4.68 3 4 C1.02 4.33 -0.96 4.66 -3 5 C-3.33 4.34 -3.66 3.68 -4 3 C-3.34 3 -2.68 3 -2 3 C-2 2.34 -2 1.68 -2 1 C-1.34 0.67 -0.68 0.34 0 0 Z " fill="#D6D5E6" transform="translate(65,57)"/>
<path d="M0 0 C0.99 0.66 1.98 1.32 3 2 C3.99 1.67 4.98 1.34 6 1 C6 2.32 6 3.64 6 5 C5.21625 4.79375 4.4325 4.5875 3.625 4.375 C2.325625 4.189375 2.325625 4.189375 1 4 C0.34 4.66 -0.32 5.32 -1 6 C-1.33 5.01 -1.66 4.02 -2 3 C-1.34 2.01 -0.68 1.02 0 0 Z " fill="#9E5939" transform="translate(45,52)"/>
<path d="M0 0 C0.66 0 1.32 0 2 0 C1.67 1.98 1.34 3.96 1 6 C1.99 6 2.98 6 4 6 C3.67 7.65 3.34 9.3 3 11 C2.01 10.67 1.02 10.34 0 10 C-0.19412181 8.52168779 -0.38012131 7.04230684 -0.5625 5.5625 C-0.66691406 4.73878906 -0.77132812 3.91507813 -0.87890625 3.06640625 C-0.91886719 2.38449219 -0.95882812 1.70257812 -1 1 C-0.67 0.67 -0.34 0.34 0 0 Z " fill="#A99681" transform="translate(65,20)"/>
<path d="M0 0 C3.15140423 0.34069235 4.60781561 0.58076841 6.8125 2.9375 C8 5 8 5 8 7 C7.01 7 6.02 7 5 7 C5 6.34 5 5.68 5 5 C4.360625 4.731875 3.72125 4.46375 3.0625 4.1875 C1 3 1 3 0 0 Z " fill="#C0BFD1" transform="translate(70,93)"/>
<path d="M0 0 C1.09898702 3.29696105 0.87124444 4.40494903 0.0625 7.6875 C-0.22947266 8.89986328 -0.22947266 8.89986328 -0.52734375 10.13671875 C-0.68332031 10.75160156 -0.83929688 11.36648437 -1 12 C-3 10 -3 10 -3.3125 6.5625 C-3 3 -3 3 -1.5 1.0625 C-1.005 0.711875 -0.51 0.36125 0 0 Z " fill="#BBBAD1" transform="translate(88,88)"/>
<path d="M0 0 C1.32 0.66 2.64 1.32 4 2 C3.67 2.99 3.34 3.98 3 5 C3 4.34 3 3.68 3 3 C1.68 2.67 0.36 2.34 -1 2 C-0.67 3.65 -0.34 5.3 0 7 C-0.99 7.33 -1.98 7.66 -3 8 C-3.1875 5.125 -3.1875 5.125 -3 2 C-2.01 1.34 -1.02 0.68 0 0 Z " fill="#C5C4D3" transform="translate(61,75)"/>
<path d="M0 0 C0 1.98 0 3.96 0 6 C-0.99 6.495 -0.99 6.495 -2 7 C-2.45375 6.505 -2.9075 6.01 -3.375 5.5 C-4.87635519 3.77390663 -4.87635519 3.77390663 -7 4 C-7 3.34 -7 2.68 -7 2 C-2.25 0 -2.25 0 0 0 Z " fill="#CBC3BF" transform="translate(29,71)"/>
<path d="M0 0 C1.37562854 1.28965176 2.70766393 2.62689293 4 4 C4 4.66 4 5.32 4 6 C2.68 6.33 1.36 6.66 0 7 C-0.66 5.68 -1.32 4.36 -2 3 C-1.34 2.01 -0.68 1.02 0 0 Z " fill="#BAB1B8" transform="translate(38,62)"/>
<path d="M0 0 C1.32 0.66 2.64 1.32 4 2 C4 2.66 4 3.32 4 4 C4.99 4.33 5.98 4.66 7 5 C7.33 6.65 7.66 8.3 8 10 C6.87105124 9.06725891 5.74699124 8.12859878 4.625 7.1875 C3.99851562 6.66542969 3.37203125 6.14335938 2.7265625 5.60546875 C1 4 1 4 -1 1 C-0.67 0.67 -0.34 0.34 0 0 Z " fill="#A67665" transform="translate(45,57)"/>
<path d="M0 0 C1.5 1.375 1.5 1.375 3 3 C3 3.66 3 4.32 3 5 C3.66 5 4.32 5 5 5 C5.33 6.98 5.66 8.96 6 11 C3.5625 9.4375 3.5625 9.4375 1 7 C0.1875 3.25 0.1875 3.25 0 0 Z " fill="#B9AFAB" transform="translate(20,87)"/>
<path d="M0 0 C1.485 0.99 1.485 0.99 3 2 C3.99 2 4.98 2 6 2 C6 3.32 6 4.64 6 6 C4.35 5.67 2.7 5.34 1 5 C0.67 3.35 0.34 1.7 0 0 Z " fill="#C0BECF" transform="translate(63,94)"/>
<path d="M0 0 C1.50560497 2.85410334 2.63216796 5.68124642 3.625 8.75 C3.88539062 9.54921875 4.14578125 10.3484375 4.4140625 11.171875 C4.60742188 11.77515625 4.80078125 12.3784375 5 13 C4.34 13 3.68 13 3 13 C-0.4887612 8.70614007 -0.26854022 5.28129105 0 0 Z " fill="#D8CED9" transform="translate(25,87)"/>
<path d="M0 0 C2.6855594 2.6855594 3.06049974 5.37621328 4 9 C2.68 9 1.36 9 0 9 C0 6.03 0 3.06 0 0 Z " fill="#D2C7C7" transform="translate(19,91)"/>
<path d="M0 0 C0.66 0.33 1.32 0.66 2 1 C1.40361667 2.27450447 0.79752584 3.54446877 0.1875 4.8125 C-0.14894531 5.52019531 -0.48539063 6.22789063 -0.83203125 6.95703125 C-2.00645471 9.01129035 -3.25628016 10.41616278 -5 12 C-4.35550393 8.98782888 -3.34977818 6.48344164 -1.9375 3.75 C-1.57527344 3.04359375 -1.21304688 2.3371875 -0.83984375 1.609375 C-0.56269531 1.07828125 -0.28554688 0.5471875 0 0 Z " fill="#BEBCC7" transform="translate(52,81)"/>
<path d="M0 0 C2.1640625 0.2421875 2.1640625 0.2421875 4.625 0.875 C5.44226563 1.07867187 6.25953125 1.28234375 7.1015625 1.4921875 C8.04128906 1.74355469 8.04128906 1.74355469 9 2 C9 2.99 9 3.98 9 5 C5.37 4.01 1.74 3.02 -2 2 C-1.34 1.34 -0.68 0.68 0 0 Z " fill="#ADA197" transform="translate(80,58)"/>
<path d="M0 0 C0.66 0 1.32 0 2 0 C4.1385485 2.1385485 4.42655063 3.13275314 5 6 C4.01 6.33 3.02 6.66 2 7 C2 6.01 2 5.02 2 4 C1.01 4 0.02 4 -1 4 C-0.67 2.68 -0.34 1.36 0 0 Z " fill="#C9C8D5" transform="translate(57,86)"/>
<path d="M0 0 C1 3 1 3 0.22265625 4.82421875 C-0.8515625 6.54947917 -1.92578125 8.27473958 -3 10 C-4 7 -4 7 -3.0625 4.8125 C-2.711875 4.214375 -2.36125 3.61625 -2 3 C-2.66 2.67 -3.32 2.34 -4 2 C-2.68 1.34 -1.36 0.68 0 0 Z " fill="#B0A5A1" transform="translate(38,59)"/>
<path d="M0 0 C3.3 0.33 6.6 0.66 10 1 C9.67 1.66 9.34 2.32 9 3 C6.03 2.67 3.06 2.34 0 2 C0 1.34 0 0.68 0 0 Z " fill="#4C2011" transform="translate(45,49)"/>
<path d="M0 0 C0.66 0 1.32 0 2 0 C2.6875 2.8125 2.6875 2.8125 3 6 C1.5625 7.875 1.5625 7.875 0 9 C-1.125 3.375 -1.125 3.375 0 0 Z " fill="#A59378" transform="translate(33,24)"/>
<path d="M0 0 C0.66 0.33 1.32 0.66 2 1 C2.625 3.0625 2.625 3.0625 3 5 C2.67 5 2.34 5 2 5 C1.67 7.31 1.34 9.62 1 12 C0.67 12 0.34 12 0 12 C-0.66 8.37 -1.32 4.74 -2 1 C-1.34 0.67 -0.68 0.34 0 0 Z " fill="#BE8164" transform="translate(49,26)"/>
<path d="M0 0 C0.33 0 0.66 0 1 0 C1.05422947 1.4370809 1.09289723 2.87475462 1.125 4.3125 C1.14820312 5.11300781 1.17140625 5.91351563 1.1953125 6.73828125 C1 9 1 9 -1 12 C-2.11658501 7.31034294 -1.80619523 4.46236469 0 0 Z " fill="#B8B5C8" transform="translate(87,75)"/>
<path d="M0 0 C0.99 0.33 1.98 0.66 3 1 C3.33 3.31 3.66 5.62 4 8 C3.34 7.67 2.68 7.34 2 7 C2 6.34 2 5.68 2 5 C1.34 5 0.68 5 0 5 C0 3.35 0 1.7 0 0 Z " fill="#DDDAD8" transform="translate(87,63)"/>
<path d="M0 0 C0.66 0 1.32 0 2 0 C1.67 3.3 1.34 6.6 1 10 C0.67 8.68 0.34 7.36 0 6 C-0.66 6 -1.32 6 -2 6 C-1.125 1.125 -1.125 1.125 0 0 Z " fill="#31251E" transform="translate(35,18)"/>
<path d="M0 0 C0.33 0.66 0.66 1.32 1 2 C0.67 2.66 0.34 3.32 0 4 C0.99 4 1.98 4 3 4 C2.34 5.32 1.68 6.64 1 8 C-1.35953094 5.64046906 -1.49141413 4.22104383 -2 1 C-1.34 0.67 -0.68 0.34 0 0 Z " fill="#916256" transform="translate(54,62)"/>
<path d="M0 0 C1.32 0 2.64 0 4 0 C4 0.99 4 1.98 4 3 C5.65 3 7.3 3 9 3 C8.34 3.66 7.68 4.32 7 5 C4.375 4.625 4.375 4.625 2 4 C2 3.34 2 2.68 2 2 C1.34 2 0.68 2 0 2 C0 1.34 0 0.68 0 0 Z " fill="#96634A" transform="translate(48,46)"/>
<path d="M0 0 C0.33 0 0.66 0 1 0 C1.22162329 1.62324086 1.42689803 3.248721 1.625 4.875 C1.74101563 5.77992187 1.85703125 6.68484375 1.9765625 7.6171875 C1.98429687 8.40351562 1.99203125 9.18984375 2 10 C1.34 10.66 0.68 11.32 0 12 C-0.92844389 7.66726186 -0.92844389 4.33273814 0 0 Z " fill="#B49078" transform="translate(61,39)"/>
<path d="M0 0 C5.75 1.75 5.75 1.75 8 4 C7.01 4.33 6.02 4.66 5 5 C4.34 4.34 3.68 3.68 3 3 C2.01 3.33 1.02 3.66 0 4 C0 2.68 0 1.36 0 0 Z " fill="#241D16" transform="translate(51,13)"/>
<path d="M0 0 C0.33 0 0.66 0 1 0 C0.67 2.31 0.34 4.62 0 7 C-0.99 7 -1.98 7 -3 7 C-1.125 1.125 -1.125 1.125 0 0 Z " fill="#B6AFB9" transform="translate(49,93)"/>
<path d="M0 0 C2.0625 1.6875 2.0625 1.6875 4 4 C3.75 6.75 3.75 6.75 3 9 C2.67 9 2.34 9 2 9 C2 7.35 2 5.7 2 4 C1.01 4 0.02 4 -1 4 C-0.67 2.68 -0.34 1.36 0 0 Z " fill="#C3C1CE" transform="translate(74,67)"/>
<path d="M0 0 C0.99 0 1.98 0 3 0 C3 2.31 3 4.62 3 7 C2.34 7 1.68 7 1 7 C0.67 4.69 0.34 2.38 0 0 Z " fill="#C2A38A" transform="translate(38,48)"/>
<path d="M0 0 C0.33 0.99 0.66 1.98 1 3 C-0.65 3.33 -2.3 3.66 -4 4 C-4.33 3.01 -4.66 2.02 -5 1 C-2 0 -2 0 0 0 Z " fill="#8A4B38" transform="translate(48,28)"/>
</svg>
