<?xml version="1.0" encoding="UTF-8"?>
<svg version="1.1" xmlns="http://www.w3.org/2000/svg" width="100" height="100">
<path d="M0 0 C33 0 66 0 100 0 C100 33 100 66 100 100 C67 100 34 100 0 100 C0 67 0 34 0 0 Z " fill="#A2A69E" transform="translate(0,0)"/>
<path d="M0 0 C1.18099777 0.00022659 2.36199554 0.00045319 3.57878113 0.00068665 C4.85385025 0.0161705 6.12891937 0.03165436 7.44262695 0.04760742 C8.74794876 0.05185226 10.05327057 0.05609711 11.39814758 0.06047058 C14.86546099 0.07191528 18.33239633 0.10137863 21.79956055 0.13458252 C25.33873378 0.16529184 28.87796821 0.17897772 32.41723633 0.1940918 C39.35944875 0.22624913 46.30141032 0.27744064 53.2434082 0.34057617 C53.26806701 4.30988607 53.28624843 8.27916651 53.29833984 12.24853516 C53.30337877 13.59978003 53.31020998 14.95101943 53.31884766 16.30224609 C53.3309324 18.24078051 53.33610648 20.17935417 53.34106445 22.11791992 C53.34630127 23.28572998 53.35153809 24.45354004 53.35693359 25.65673828 C53.2434082 28.34057617 53.2434082 28.34057617 52.2434082 29.34057617 C50.24375838 29.4281562 48.24104711 29.44754193 46.23950195 29.43823242 C45.02456055 29.43500977 43.80961914 29.43178711 42.55786133 29.4284668 C41.2784668 29.42008789 39.99907227 29.41170898 38.6809082 29.40307617 C37.39764648 29.39856445 36.11438477 29.39405273 34.79223633 29.3894043 C31.60924798 29.37757163 28.42635058 29.36108685 25.2434082 29.34057617 C26.39554105 31.67489751 27.58644603 33.94748924 28.8684082 36.21557617 C30.33485043 39.54839942 30.50025006 41.74479018 30.2434082 45.34057617 C27.74979249 44.13676169 25.56197738 42.88628895 23.2434082 41.34057617 C23.01266602 42.01862305 22.78192383 42.69666992 22.54418945 43.39526367 C18.83886901 53.9693402 14.46493691 62.72468889 7.2434082 71.34057617 C2.73596511 67.32042422 -0.43417974 63.33568209 -0.9362793 57.11401367 C-0.94308283 55.18861468 -0.85778915 53.26332594 -0.7565918 51.34057617 C0.8934082 51.67057617 2.5434082 52.00057617 4.2434082 52.34057617 C3.4184082 51.39182617 2.5934082 50.44307617 1.7434082 49.46557617 C-0.7565918 46.59057617 -0.7565918 46.59057617 -0.7565918 44.34057617 C-2.7365918 44.34057617 -4.7165918 44.34057617 -6.7565918 44.34057617 C-6.7565918 41.37057617 -6.7565918 38.40057617 -6.7565918 35.34057617 C-7.4165918 35.34057617 -8.0765918 35.34057617 -8.7565918 35.34057617 C-9.0865918 36.66057617 -9.4165918 37.98057617 -9.7565918 39.34057617 C-12.17344891 35.11107622 -13.10492323 32.21721627 -12.7565918 27.34057617 C-11.7665918 27.67057617 -10.7765918 28.00057617 -9.7565918 28.34057617 C-9.4265918 30.32057617 -9.0965918 32.30057617 -8.7565918 34.34057617 C-8.0965918 34.34057617 -7.4365918 34.34057617 -6.7565918 34.34057617 C-6.7565918 32.36057617 -6.7565918 30.38057617 -6.7565918 28.34057617 C-7.4165918 28.34057617 -8.0765918 28.34057617 -8.7565918 28.34057617 C-8.4265918 26.36057617 -8.0965918 24.38057617 -7.7565918 22.34057617 C-9.4065918 22.67057617 -11.0565918 23.00057617 -12.7565918 23.34057617 C-12.0965918 21.36057617 -11.4365918 19.38057617 -10.7565918 17.34057617 C-9.9934668 17.23745117 -9.2303418 17.13432617 -8.4440918 17.02807617 C-5.72704507 16.58463633 -5.72704507 16.58463633 -4.2565918 14.77807617 C-2.7565918 13.34057617 -2.7565918 13.34057617 -0.0690918 13.15307617 C0.6940332 13.21495117 1.4571582 13.27682617 2.2434082 13.34057617 C2.2434082 12.68057617 2.2434082 12.02057617 2.2434082 11.34057617 C1.5834082 11.34057617 0.9234082 11.34057617 0.2434082 11.34057617 C0.5734082 9.69057617 0.9034082 8.04057617 1.2434082 6.34057617 C-0.38150133 6.31359428 -2.00653813 6.2941886 -3.6315918 6.27807617 C-4.53651367 6.26647461 -5.44143555 6.25487305 -6.3737793 6.24291992 C-8.7734503 6.1780836 -8.7734503 6.1780836 -10.7565918 7.34057617 C-8.22362537 1.69011259 -6.32006606 -0.04042686 0 0 Z " fill="#754C33" transform="translate(46.756591796875,-0.340576171875)"/>
<path d="M0 0 C1.32 0.66 2.64 1.32 4 2 C3.01 2.495 3.01 2.495 2 3 C2 4.32 2 5.64 2 7 C3.65 7 5.3 7 7 7 C7.03867187 7.72832031 7.07734375 8.45664062 7.1171875 9.20703125 C8.34357122 13.08696205 10.86076319 14.55849221 14.125 16.6875 C14.681875 17.07744141 15.23875 17.46738281 15.8125 17.86914062 C19.75537904 20.52649574 23.37774922 21.9003042 28 23 C28.495 25.97 28.495 25.97 29 29 C30.32 28.67 31.64 28.34 33 28 C33.226875 28.598125 33.45375 29.19625 33.6875 29.8125 C34.85389558 32.18554263 34.85389558 32.18554263 37.375 33.25 C40.28771276 35.19180851 40.56146495 36.00019244 41.8125 39.125 C42.67435146 41.27380191 42.67435146 41.27380191 44 43 C46.75245751 43.92827979 49.05548991 43.90345869 52 44 C52.33 44.66 52.66 45.32 53 46 C28.58 46 4.16 46 -21 46 C-21 31.81 -21 17.62 -21 3 C-16.43213534 2.08642707 -12.30084907 1.88390434 -7.6875 1.9375 C-6.94693359 1.94201172 -6.20636719 1.94652344 -5.44335938 1.95117188 C-3.62887101 1.96287825 -1.81442466 1.98081102 0 2 C0 1.34 0 0.68 0 0 Z " fill="#90928B" transform="translate(21,54)"/>
<path d="M0 0 C9.24 0 18.48 0 28 0 C28 23.76 28 47.52 28 72 C22.72 72 17.44 72 12 72 C12 71.01 12 70.02 12 69 C14.31 69 16.62 69 19 69 C19.33 68.34 19.66 67.68 20 67 C21.32 67 22.64 67 24 67 C23.01 66.34 22.02 65.68 21 65 C21.33 63.02 21.66 61.04 22 59 C19.36 59 16.72 59 14 59 C13.67 60.65 13.34 62.3 13 64 C14.98 64 16.96 64 19 64 C19 64.33 19 64.66 19 65 C18.030625 65.12375 17.06125 65.2475 16.0625 65.375 C14.5465625 65.684375 14.5465625 65.684375 13 66 C12.67 66.66 12.34 67.32 12 68 C10.35636866 68.72159424 8.68949614 69.39351421 7 70 C5 68 5 68 4.86474609 66.02880859 C4.91711426 65.24328613 4.96948242 64.45776367 5.0234375 63.6484375 C5.075 62.79765625 5.1265625 61.946875 5.1796875 61.0703125 C5.24414062 60.18085937 5.30859375 59.29140625 5.375 58.375 C5.43171875 57.4778125 5.4884375 56.580625 5.546875 55.65625 C5.68854753 53.43671376 5.8399704 51.21827598 6 49 C4.02 48.67 2.04 48.34 0 48 C-0.33 47.01 -0.66 46.02 -1 45 C0.28062485 43.2925002 1.62631655 41.63356951 3 40 C5.80656641 35.8388755 7.50749782 32.04814736 8 27 C7.76925781 27.71027344 7.53851563 28.42054687 7.30078125 29.15234375 C6.97464844 30.07144531 6.64851563 30.99054687 6.3125 31.9375 C5.99925781 32.85402344 5.68601562 33.77054688 5.36328125 34.71484375 C4 37 4 37 1.5234375 37.66796875 C0.69070312 37.77753906 -0.14203125 37.88710937 -1 38 C-3.83212798 40.50281077 -5.90305891 42.85458837 -8 46 C-10.625 46.1875 -10.625 46.1875 -13 46 C-13.33 45.34 -13.66 44.68 -14 44 C-15.65 44 -17.3 44 -19 44 C-18.08333333 42.625 -17.16666667 41.25 -16.25 39.875 C-15.69957031 39.04226562 -15.14914063 38.20953125 -14.58203125 37.3515625 C-13.41547048 35.61756353 -12.19143059 33.92190745 -10.9375 32.25 C-8.42440612 28.03448768 -6.83208221 23.62396986 -5.1484375 19.0234375 C-4.22036411 16.58014225 -3.22483541 14.30358953 -2 12 C1.465 14.475 1.465 14.475 5 17 C3.92170691 10.97953024 3.014416 7.70655669 -1 3 C-0.67 2.01 -0.34 1.02 0 0 Z " fill="#9BA29A" transform="translate(72,28)"/>
<path d="M0 0 C13.53 0 27.06 0 41 0 C39.02 2.97 39.02 2.97 37 6 C37.33 5.67 37.66 5.34 38 5 C39.68608966 4.92794489 41.37500659 4.91613932 43.0625 4.9375 C43.98160156 4.94652344 44.90070312 4.95554687 45.84765625 4.96484375 C46.55792969 4.97644531 47.26820312 4.98804688 48 5 C48.495 5.99 48.495 5.99 49 7 C48.0625 9.125 48.0625 9.125 47 11 C47.66 11 48.32 11 49 11 C49 11.66 49 12.32 49 13 C48.113125 13.268125 47.22625 13.53625 46.3125 13.8125 C42.99367449 14.87472632 42.99367449 14.87472632 40.25 16.6875 C39.5075 17.120625 38.765 17.55375 38 18 C37.34 17.67 36.68 17.34 36 17 C35.505 18.485 35.505 18.485 35 20 C33.68 19.67 32.36 19.34 31 19 C30.67 21.31 30.34 23.62 30 26 C26.51505619 24.67683952 23.3238401 23.11061642 20.0625 21.3125 C16.63654263 19.56111372 15.3084095 18.98404778 11.375 19.1875 C10.59125 19.455625 9.8075 19.72375 9 20 C8.67 19.01 8.34 18.02 8 17 C5.36 17 2.72 17 0 17 C0 11.39 0 5.78 0 0 Z " fill="#7A4D33" transform="translate(0,0)"/>
<path d="M0 0 C0 0.99 0 1.98 0 3 C1.32 2.67 2.64 2.34 4 2 C4.226875 2.598125 4.45375 3.19625 4.6875 3.8125 C5.85389558 6.18554263 5.85389558 6.18554263 8.375 7.25 C11.28771276 9.19180851 11.56146495 10.00019244 12.8125 13.125 C13.67435146 15.27380191 13.67435146 15.27380191 15 17 C17.75245751 17.92827979 20.05548991 17.90345869 23 18 C23.495 18.99 23.495 18.99 24 20 C6.18 20 -11.64 20 -30 20 C-29.505 18.515 -29.505 18.515 -29 17 C-28.34 17 -27.68 17 -27 17 C-27 17.66 -27 18.32 -27 19 C-25.68 18.01 -24.36 17.02 -23 16 C-23.66 15.01 -24.32 14.02 -25 13 C-25.99 13 -26.98 13 -28 13 C-28.1875 10.1875 -28.1875 10.1875 -28 7 C-27.0206121 5.97980427 -26.02104551 4.97850195 -25 4 C-24.8749194 1.44001984 -24.8749194 1.44001984 -25 -1 C-21.20913543 -1.22519106 -17.41738942 -1.42729249 -13.625 -1.625 C-12.54476562 -1.68945312 -11.46453125 -1.75390625 -10.3515625 -1.8203125 C-9.3203125 -1.871875 -8.2890625 -1.9234375 -7.2265625 -1.9765625 C-6.27346191 -2.02893066 -5.32036133 -2.08129883 -4.33837891 -2.13525391 C-2 -2 -2 -2 0 0 Z " fill="#655645" transform="translate(50,80)"/>
<path d="M0 0 C0 5.28 0 10.56 0 16 C-0.99 16.33 -1.98 16.66 -3 17 C-2.67 17.99 -2.34 18.98 -2 20 C-4.31 20.66 -6.62 21.32 -9 22 C-9 22.66 -9 23.32 -9 24 C-19.395 24.495 -19.395 24.495 -30 25 C-30 17.08 -30 9.16 -30 1 C-19.96800905 -0.02892215 -10.06968967 -0.1006969 0 0 Z " fill="#BFC3BE" transform="translate(30,32)"/>
<path d="M0 0 C11.55 0 23.1 0 35 0 C35 5.61 35 11.22 35 17 C34.01 17 33.02 17 32 17 C32.495 20.465 32.495 20.465 33 24 C29.67061419 24.38923926 26.33916581 24.70700913 23 25 C22.17757812 25.09152344 21.35515625 25.18304687 20.5078125 25.27734375 C16.15015092 25.57812511 14.57137731 25.46196464 11.0625 22.625 C8.23363083 18.56703594 7.63728444 13.81292429 7 9 C8.98 8.67 10.96 8.34 13 8 C11.14209924 6.14209924 8.57527841 6.82050293 6.10546875 6.76953125 C4 6 4 6 0 0 Z " fill="#9EA19C" transform="translate(65,0)"/>
<path d="M0 0 C0 0.99 0 1.98 0 3 C0.99 3.33 1.98 3.66 3 4 C3 14.56 3 25.12 3 36 C-2.28 36 -7.56 36 -13 36 C-13 35.01 -13 34.02 -13 33 C-10.69 33 -8.38 33 -6 33 C-5.67 32.34 -5.34 31.68 -5 31 C-3.68 31 -2.36 31 -1 31 C-1.99 30.34 -2.98 29.68 -4 29 C-3.67 27.02 -3.34 25.04 -3 23 C-5.64 23 -8.28 23 -11 23 C-11.33 24.65 -11.66 26.3 -12 28 C-10.02 28 -8.04 28 -6 28 C-6 28.33 -6 28.66 -6 29 C-8.31 29.33 -10.62 29.66 -13 30 C-13.28085569 26.65480818 -13.53203174 23.31117782 -13.74609375 19.9609375 C-13.90886045 17.42177691 -14.10629866 14.88446123 -14.34765625 12.3515625 C-14.86708872 4.09730831 -14.86708872 4.09730831 -12.42578125 1.0078125 C-7.98984937 -2.1184633 -4.96557403 -2.60692636 0 0 Z " fill="#959890" transform="translate(97,64)"/>
<path d="M0 0 C1.44715727 3.87186448 0.5441918 6.8232328 -0.4375 10.75 C-0.72496094 11.92046875 -1.01242187 13.0909375 -1.30859375 14.296875 C-1.53675781 15.18890625 -1.76492188 16.0809375 -2 17 C1.465 16.505 1.465 16.505 5 16 C5.33 18.31 5.66 20.62 6 23 C6.99 23.33 7.98 23.66 9 24 C10.6875 26.0625 10.6875 26.0625 12 28 C10.02 28.66 8.04 29.32 6 30 C6 29.34 6 28.68 6 28 C5.60127686 28.48895752 5.20255371 28.97791504 4.79174805 29.48168945 C2.49084482 31.43145334 1.31344356 31.34993841 -1.66796875 31.29296875 C-2.47258545 31.28547607 -3.27720215 31.2779834 -4.10620117 31.27026367 C-5.12302979 31.24295166 -6.1398584 31.21563965 -7.1875 31.1875 C-10.425625 31.125625 -13.66375 31.06375 -17 31 C-17 23.41 -17 15.82 -17 8 C-13.04 8 -9.08 8 -5 8 C-5.33 10.97 -5.66 13.94 -6 17 C-5.67 16.34 -5.34 15.68 -5 15 C-4.34 15 -3.68 15 -3 15 C-2.95101563 14.33613281 -2.90203125 13.67226562 -2.8515625 12.98828125 C-2.10896309 4.21792619 -2.10896309 4.21792619 0 0 Z " fill="#ADADA6" transform="translate(17,69)"/>
<path d="M0 0 C11.22 0 22.44 0 34 0 C34 3.3 34 6.6 34 10 C25.34605535 14.32697233 13.45084008 13.23529062 4 13 C3.87625 12.360625 3.7525 11.72125 3.625 11.0625 C3.41875 10.381875 3.2125 9.70125 3 9 C2.34 8.67 1.68 8.34 1 8 C1 9.32 1 10.64 1 12 C1.66 12 2.32 12 3 12 C3 12.66 3 13.32 3 14 C2.01 14 1.02 14 0 14 C0 9.38 0 4.76 0 0 Z " fill="#9EBDC6" transform="translate(0,0)"/>
<path d="M0 0 C9.24 0 18.48 0 28 0 C28 5.28 28 10.56 28 16 C20.74 16 13.48 16 6 16 C4.68 12.7 3.36 9.4 2 6 C1.01 5.01 0.02 4.02 -1 3 C-0.67 2.01 -0.34 1.02 0 0 Z " fill="#A6ACA6" transform="translate(72,28)"/>
<path d="M0 0 C2.64 0 5.28 0 8 0 C8 1.32 8 2.64 8 4 C8.99 4.33 9.98 4.66 11 5 C11.92039062 5.47566406 11.92039062 5.47566406 12.859375 5.9609375 C15.27622741 7.13408119 17.67072317 7.87836723 20.25 8.625 C21.14203125 8.88539062 22.0340625 9.14578125 22.953125 9.4140625 C23.62859375 9.60742188 24.3040625 9.80078125 25 10 C25 8.68 25 7.36 25 6 C28.66223158 6.49489616 30.66993926 7.05676537 33 10 C33 10.33 33 10.66 33 11 C31.33388095 11.042721 29.66617115 11.04063832 28 11 C27.505 10.505 27.505 10.505 27 10 C26.67 10.66 26.34 11.32 26 12 C23.03 12 20.06 12 17 12 C17 12.66 17 13.32 17 14 C18.98 14.99 20.96 15.98 23 17 C16.55832101 19.14722633 10.33859351 19.12475158 3.625 19.0625 C2.69816406 19.05798828 1.77132813 19.05347656 0.81640625 19.04882812 C-1.45579709 19.03711574 -3.72786388 19.02071372 -6 19 C-5.505 17.515 -5.505 17.515 -5 16 C-4.34 16 -3.68 16 -3 16 C-3 16.66 -3 17.32 -3 18 C-1.68 17.01 -0.36 16.02 1 15 C0.34 14.01 -0.32 13.02 -1 12 C-1.99 12 -2.98 12 -4 12 C-4.37096774 6.43548387 -4.37096774 6.43548387 -2.5625 4.3125 C-1.7890625 3.6628125 -1.7890625 3.6628125 -1 3 C-0.67 2.01 -0.34 1.02 0 0 Z " fill="#492319" transform="translate(26,81)"/>
<path d="M0 0 C6.93 0 13.86 0 21 0 C19 9 19 9 17.5 11.9375 C15.4435584 16.13606827 14.770287 20.41452678 14 25 C13.34 25 12.68 25 12 25 C11.67 25.99 11.34 26.98 11 28 C9.53273202 24.18510326 10.56663581 21.70988378 12 18 C8.04 18 4.08 18 0 18 C0 12.06 0 6.12 0 0 Z " fill="#B6BEB6" transform="translate(0,59)"/>
<path d="M0 0 C2.75164432 -0.13517903 5.49664521 -0.23415251 8.25 -0.3125 C9.02730469 -0.35439453 9.80460937 -0.39628906 10.60546875 -0.43945312 C12.84135077 -0.48722838 14.81186001 -0.4704473 17 0 C19.2890625 2.48046875 19.2890625 2.48046875 21 5 C23.03988129 5.69302204 23.03988129 5.69302204 25.125 5.625 C27.043125 5.810625 27.043125 5.810625 29 6 C29.99 7.485 29.99 7.485 31 9 C28.69 9 26.38 9 24 9 C24.33 10.216875 24.66 11.43375 25 12.6875 C25.80322213 15.87210604 26.20641973 18.6972843 26 22 C25.01 22 24.02 22 23 22 C23 21.34 23 20.68 23 20 C22.2575 20.515625 21.515 21.03125 20.75 21.5625 C18 23 18 23 15.6875 22.6875 C15.130625 22.460625 14.57375 22.23375 14 22 C13.8453125 21.0409375 13.8453125 21.0409375 13.6875 20.0625 C13.460625 19.381875 13.23375 18.70125 13 18 C12.01 17.67 11.02 17.34 10 17 C8.65743047 12.68964518 8 9.52218352 8 5 C5.36 4.01 2.72 3.02 0 2 C0 1.34 0 0.68 0 0 Z " fill="#141413" transform="translate(48,0)"/>
<path d="M0 0 C0.33 1.32 0.66 2.64 1 4 C1.99 3.34 2.98 2.68 4 2 C8.48316075 2.30197456 11.93973313 4.41096285 15.8125 6.5625 C16.7087207 7.0565332 16.7087207 7.0565332 17.62304688 7.56054688 C19.08533998 8.36773267 20.5431399 9.18304917 22 10 C22 7.69 22 5.38 22 3 C23.32 2.67 24.64 2.34 26 2 C26.495 2.99 26.495 2.99 27 4 C26.34 4 25.68 4 25 4 C25 7.63 25 11.26 25 15 C24.505 14.01 24.505 14.01 24 13 C22.9378125 13.15339844 21.875625 13.30679687 20.78125 13.46484375 C15.03902858 14.18262143 9.27901585 14.3516627 3.5 14.5625 C1.83710938 14.62727539 1.83710938 14.62727539 0.140625 14.69335938 C-2.57280012 14.79862156 -5.28638572 14.89973281 -8 15 C-8 10.38 -8 5.76 -8 1 C-5.36 0.67 -2.72 0.34 0 0 Z " fill="#BAC0BA" transform="translate(8,16)"/>
<path d="M0 0 C0.33 0.99 0.66 1.98 1 3 C2.13213695 5.34514082 3.34276082 7.60642299 4.625 9.875 C6.09144223 13.20782325 6.25684186 15.40421401 6 19 C3.50638429 17.79618552 1.31856917 16.54571278 -1 15 C-1.23074219 15.67804687 -1.46148437 16.35609375 -1.69921875 17.0546875 C-5.40453919 27.62876403 -9.77847129 36.38411272 -17 45 C-21.50744309 40.97984805 -24.67758794 36.99510592 -25.1796875 30.7734375 C-25.18649103 28.84803851 -25.10119736 26.92274977 -25 25 C-22.53199953 26.15173355 -20.95216435 27.04783565 -19 29 C-18.875 31.625 -18.875 31.625 -19 34 C-18.071875 33.690625 -17.14375 33.38125 -16.1875 33.0625 C-14.125 32.375 -12.0625 31.6875 -10 31 C-9.95101562 30.32453125 -9.90203125 29.6490625 -9.8515625 28.953125 C-9.77679688 28.06109375 -9.70203125 27.1690625 -9.625 26.25 C-9.52058594 24.92742188 -9.52058594 24.92742188 -9.4140625 23.578125 C-8.99616748 20.97613712 -8.39354867 19.22566767 -7 17 C-6.34 16.67 -5.68 16.34 -5 16 C-4.68313671 13.84207531 -4.68313671 13.84207531 -4.625 11.3125 C-4.24816288 6.35673631 -3.11585667 3.81943721 0 0 Z " fill="#5D3A25" transform="translate(71,26)"/>
<path d="M0 0 C3.96 0 7.92 0 12 0 C12 7.92 12 15.84 12 24 C11.01 23.67 10.02 23.34 9 23 C9 22.01 9 21.02 9 20 C6.28642465 19.12865812 6.28642465 19.12865812 3 19 C-0.23761134 20.85250004 -0.23761134 20.85250004 -3 23 C-3.66 23 -4.32 23 -5 23 C-4.9278125 23.77601562 -4.855625 24.55203125 -4.78125 25.3515625 C-4.07358607 33.58798431 -3.88848857 41.7357642 -4 50 C-4.99 50 -5.98 50 -7 50 C-6.67 49.34 -6.34 48.68 -6 48 C-6.08910158 45.44192238 -6.23294246 42.9237399 -6.4375 40.375 C-6.48970703 39.66859375 -6.54191406 38.9621875 -6.59570312 38.234375 C-6.72541207 36.48920013 -6.86204954 34.74454275 -7 33 C-9.31 32.34 -11.62 31.68 -14 31 C-13.75 29.1875 -13.75 29.1875 -13 27 C-11.67151309 25.99357052 -10.33849671 24.99307821 -9 24 C-9 23.01 -9 22.02 -9 21 C-8.21625 20.814375 -7.4325 20.62875 -6.625 20.4375 C-0.81268839 18.13261781 4.57026647 14.42973353 9 10 C9.64767793 7.42938689 9.64767793 7.42938689 10 5 C9.36191406 4.80664062 8.72382812 4.61328125 8.06640625 4.4140625 C7.24011719 4.15367188 6.41382812 3.89328125 5.5625 3.625 C4.73878906 3.36976562 3.91507813 3.11453125 3.06640625 2.8515625 C1 2 1 2 0 0 Z " fill="#7F837A" transform="translate(88,44)"/>
<path d="M0 0 C3.63 0 7.26 0 11 0 C10.67 0.99 10.34 1.98 10 3 C12.64 2.67 15.28 2.34 18 2 C18 2.66 18 3.32 18 4 C18.61875 4.12375 19.2375 4.2475 19.875 4.375 C22 5 22 5 24 7 C24.125 9.625 24.125 9.625 24 12 C22.80375 12.12375 21.6075 12.2475 20.375 12.375 C17.58716934 12.70993372 15.43980942 13.19391212 12.75 14.125 C9.81319197 15.05943892 8.73611124 15.36805562 6 14 C1.64320036 9.89948269 1.01805343 5.68413167 0 0 Z " fill="#ABB1AC" transform="translate(72,10)"/>
<path d="M0 0 C9.57 0 19.14 0 29 0 C28.01 1.485 28.01 1.485 27 3 C29.475 3.495 29.475 3.495 32 4 C31.67 4.99 31.34 5.98 31 7 C29.10507994 7.33848652 27.20901534 7.67056911 25.3125 8 C24.25675781 8.185625 23.20101562 8.37125 22.11328125 8.5625 C19.32136852 8.95483905 16.80811027 9.23605831 14 9 C13.34 8.34 12.68 7.68 12 7 C10.02556022 6.87261679 8.04879995 6.74942053 6.0703125 6.734375 C4 6 4 6 0 0 Z " fill="#224E89" transform="translate(65,0)"/>
<path d="M0 0 C3.96 0 7.92 0 12 0 C11.30053366 5.87551727 9.26020614 10.10969079 6 15 C5.54860541 17.0492094 5.54860541 17.0492094 5.375 19.1875 C5.25125 20.445625 5.1275 21.70375 5 23 C3.35 23 1.7 23 0 23 C0 15.41 0 7.82 0 0 Z " fill="#2C2F2C" transform="translate(0,77)"/>
<path d="M0 0 C2.31 0 4.62 0 7 0 C5.02 2.97 5.02 2.97 3 6 C3.33 5.67 3.66 5.34 4 5 C5.68608966 4.92794489 7.37500659 4.91613932 9.0625 4.9375 C9.98160156 4.94652344 10.90070312 4.95554687 11.84765625 4.96484375 C12.55792969 4.97644531 13.26820312 4.98804688 14 5 C14.33 5.66 14.66 6.32 15 7 C14.0625 9.125 14.0625 9.125 13 11 C13.66 11 14.32 11 15 11 C15 11.66 15 12.32 15 13 C14.113125 13.268125 13.22625 13.53625 12.3125 13.8125 C8.99367449 14.87472632 8.99367449 14.87472632 6.25 16.6875 C5.5075 17.120625 4.765 17.55375 4 18 C3.34 17.67 2.68 17.34 2 17 C1.67 17.99 1.34 18.98 1 20 C0.01 19.01 -0.98 18.02 -2 17 C-1.34 17 -0.68 17 0 17 C0 15.02 0 13.04 0 11 C-0.66 10.67 -1.32 10.34 -2 10 C-1.34 10 -0.68 10 0 10 C0 6.7 0 3.4 0 0 Z " fill="#8D786B" transform="translate(34,0)"/>
<path d="M0 0 C4.96916636 0.51405169 9.29026351 1.23384882 14 3 C14 3.99 14 4.98 14 6 C13.278125 6.061875 12.55625 6.12375 11.8125 6.1875 C7.06794422 7.55814945 4.66330464 11.00504304 2 15 C-0.625 15.1875 -0.625 15.1875 -3 15 C-3.33 14.34 -3.66 13.68 -4 13 C-5.65 13 -7.3 13 -9 13 C-8.06398754 11.58235006 -7.1261208 10.16592432 -6.1875 8.75 C-5.66542969 7.96109375 -5.14335938 7.1721875 -4.60546875 6.359375 C-3.12865878 4.18907519 -1.59310127 2.08586232 0 0 Z " fill="#88887C" transform="translate(62,59)"/>
<path d="M0 0 C0.66 0.33 1.32 0.66 2 1 C2 1.66 2 2.32 2 3 C4.31 3 6.62 3 9 3 C9.33 2.34 9.66 1.68 10 1 C10.33 1.969375 10.66 2.93875 11 3.9375 C12.59768558 7.11605479 12.59768558 7.11605479 14.9453125 7.55078125 C16.96068862 7.73498229 18.98042231 7.86970467 21 8 C21.495 8.99 21.495 8.99 22 10 C10.78 10 -0.44 10 -12 10 C-10 8 -10 8 -6.875 7.875 C-5.92625 7.91625 -4.9775 7.9575 -4 8 C-5.98 7.34 -7.96 6.68 -10 6 C-9.67 5.01 -9.34 4.02 -9 3 C-6.03 3 -3.06 3 0 3 C0 2.01 0 1.02 0 0 Z " fill="#755640" transform="translate(52,90)"/>
<path d="M0 0 C3.25 -0.3125 3.25 -0.3125 7 0 C7.639375 0.804375 8.27875 1.60875 8.9375 2.4375 C10.67480207 5.13659117 10.67480207 5.13659117 12.94921875 5.44921875 C13.66722656 5.50722656 14.38523437 5.56523438 15.125 5.625 C17.043125 5.810625 17.043125 5.810625 19 6 C19.99 7.485 19.99 7.485 21 9 C18.69 9 16.38 9 14 9 C14.33 10.216875 14.66 11.43375 15 12.6875 C15.80322213 15.87210604 16.20641973 18.6972843 16 22 C15.01 22 14.02 22 13 22 C13 21.34 13 20.68 13 20 C10.525 19.01 10.525 19.01 8 18 C8 17.01 8 16.02 8 15 C7.37400383 13.31763529 6.71247732 11.6476038 6 10 C6.66 9.34 7.32 8.68 8 8 C7.28436734 5.9837767 7.28436734 5.9837767 6 4 C4.02919843 3.25723969 4.02919843 3.25723969 2 3 C1.34 2.67 0.68 2.34 0 2 C0 1.34 0 0.68 0 0 Z " fill="#181817" transform="translate(58,0)"/>
<path d="M0 0 C1.32 0 2.64 0 4 0 C9 5.22727273 9 5.22727273 9 8 C7.35 7.67 5.7 7.34 4 7 C4.9579574 14.64936131 6.80372306 20.51338869 11 27 C10.34 27 9.68 27 9 27 C9 27.66 9 28.32 9 29 C8.01 28.67 7.02 28.34 6 28 C4.8125 24.9375 4.8125 24.9375 4 22 C3.278125 22.20625 2.55625 22.4125 1.8125 22.625 C-1.44641585 23.05952211 -3.08304504 22.41680669 -6 21 C-5.40251953 20.34257813 -5.40251953 20.34257813 -4.79296875 19.671875 C0.0147146 13.91669201 1.61366279 8.29651162 3 1 C2.01 0.67 1.02 0.34 0 0 Z " fill="#948F82" transform="translate(42,44)"/>
<path d="M0 0 C0.66 0 1.32 0 2 0 C2 0.99 2 1.98 2 3 C1.01 3.33 0.02 3.66 -1 4 C-1.6837045 5.32467746 -2.34964186 6.65863633 -3 8 C-3.99 8.66 -4.98 9.32 -6 10 C-6.33 10.99 -6.66 11.98 -7 13 C-6.05125 12.95875 -5.1025 12.9175 -4.125 12.875 C-1 13 -1 13 1 15 C1.30731162 17.52807293 1.51120478 19.96331481 1.625 22.5 C1.66367188 23.18964844 1.70234375 23.87929687 1.7421875 24.58984375 C1.87705127 27.06074062 2 29.5250005 2 32 C2.33 32.66 2.66 33.32 3 34 C1.35 34.66 -0.3 35.32 -2 36 C-4 34 -4 34 -4.13525391 32.02880859 C-4.08288574 31.24328613 -4.03051758 30.45776367 -3.9765625 29.6484375 C-3.925 28.79765625 -3.8734375 27.946875 -3.8203125 27.0703125 C-3.75585938 26.18085937 -3.69140625 25.29140625 -3.625 24.375 C-3.56828125 23.4778125 -3.5115625 22.580625 -3.453125 21.65625 C-3.31145247 19.43671376 -3.1600296 17.21827598 -3 15 C-5.97 14.505 -5.97 14.505 -9 14 C-9.33 13.01 -9.66 12.02 -10 11 C-8.25 8.5625 -8.25 8.5625 -6 6 C-5.484375 5.236875 -4.96875 4.47375 -4.4375 3.6875 C-3.7259375 2.8521875 -3.7259375 2.8521875 -3 2 C-2.01 2 -1.02 2 0 2 C0 1.34 0 0.68 0 0 Z " fill="#8C9287" transform="translate(81,62)"/>
<path d="M0 0 C2.97 0.33 5.94 0.66 9 1 C8.9071875 2.3921875 8.9071875 2.3921875 8.8125 3.8125 C8.69105736 6.98395103 8.69105736 6.98395103 10.5 8.875 C10.995 9.24625 11.49 9.6175 12 10 C11.195625 9.979375 10.39125 9.95875 9.5625 9.9375 C7.06645115 9.70366379 7.06645115 9.70366379 6 11 C3.66702567 11.04092937 1.33294775 11.04241723 -1 11 C-1 11.99 -1 12.98 -1 14 C-6.73842251 14.20413361 -11.60539047 14.27141454 -17 12 C-17 11.34 -17 10.68 -17 10 C-12.41780839 9.1188093 -10.07775798 8.82519574 -6 11 C-3.31006947 10.69621948 -3.31006947 10.69621948 -1 10 C0.04005702 6.61981469 0.08004482 3.5219721 0 0 Z " fill="#B5B8B0" transform="translate(85,86)"/>
<path d="M0 0 C0.99 0 1.98 0 3 0 C3.02687279 1.81242052 3.04633715 3.62495233 3.0625 5.4375 C3.07410156 6.44683594 3.08570312 7.45617187 3.09765625 8.49609375 C3 11 3 11 2 12 C-0.00163877 12.0167793 -2.00394864 11.96262541 -4.00390625 11.87890625 C-5.21884766 11.83056641 -6.43378906 11.78222656 -7.68554688 11.73242188 C-8.96494141 11.67634766 -10.24433594 11.62027344 -11.5625 11.5625 C-12.84576172 11.51029297 -14.12902344 11.45808594 -15.45117188 11.40429688 C-18.63433391 11.2741304 -21.81722004 11.13914999 -25 11 C-24.34 8.03 -23.68 5.06 -23 2 C-22.67 2.66 -22.34 3.32 -22 4 C-21.01 4.33 -20.02 4.66 -19 5 C-18.67 5.66 -18.34 6.32 -18 7 C-11.73 7 -5.46 7 1 7 C0.67 4.69 0.34 2.38 0 0 Z " fill="#6B7270" transform="translate(97,17)"/>
<path d="M0 0 C2.3125 0.125 2.3125 0.125 5 1 C6.8125 4.0625 6.8125 4.0625 8 7 C9.98 6.67 11.96 6.34 14 6 C13.67 7.65 13.34 9.3 13 11 C13.66 11.33 14.32 11.66 15 12 C15 13.98 15 15.96 15 18 C13.54077307 17.88590407 12.08259402 17.75834456 10.625 17.625 C9.81289063 17.55539063 9.00078125 17.48578125 8.1640625 17.4140625 C6 17 6 17 4 15 C4 13.68 4 12.36 4 11 C3.34 11 2.68 11 2 11 C2.33 9.02 2.66 7.04 3 5 C1.35 5.33 -0.3 5.66 -2 6 C-1.34 4.02 -0.68 2.04 0 0 Z " fill="#653B2A" transform="translate(36,17)"/>
<path d="M0 0 C1.32 0.66 2.64 1.32 4 2 C4.29403067 5.00736629 4.42425601 6.46995547 2.49609375 8.87890625 C-1.82323444 12.41141184 -6.04605832 15.41982204 -11 18 C-11 17.01 -11 16.02 -11 15 C-11.66 15 -12.32 15 -13 15 C-12.67 13.02 -12.34 11.04 -12 9 C-10.515 9.99 -10.515 9.99 -9 11 C-8.60167969 10.37351562 -8.20335938 9.74703125 -7.79296875 9.1015625 C-7.26316406 8.28429688 -6.73335938 7.46703125 -6.1875 6.625 C-5.66542969 5.81289063 -5.14335938 5.00078125 -4.60546875 4.1640625 C-3 2 -3 2 0 0 Z " fill="#8E928A" transform="translate(94,47)"/>
<path d="M0 0 C2.64 0 5.28 0 8 0 C8 1.32 8 2.64 8 4 C8.99 4.33 9.98 4.66 11 5 C11.61875 5.33 12.2375 5.66 12.875 6 C15.23350431 7.10988438 17.43728868 7.57288145 20 8 C20 8.33 20 8.66 20 9 C14.72 8.67 9.44 8.34 4 8 C3.67 9.32 3.34 10.64 3 12 C0.69 12 -1.62 12 -4 12 C-4.37096774 6.43548387 -4.37096774 6.43548387 -2.5625 4.3125 C-1.7890625 3.6628125 -1.7890625 3.6628125 -1 3 C-0.67 2.01 -0.34 1.02 0 0 Z " fill="#543C30" transform="translate(26,81)"/>
<path d="M0 0 C0.33 0.66 0.66 1.32 1 2 C2.65 1.34 4.3 0.68 6 0 C6 4.62 6 9.24 6 14 C-3.10714286 11.99107143 -3.10714286 11.99107143 -7 11 C-6.39816251 8.97954558 -5.72693904 6.97888961 -5 5 C-4.34 4.67 -3.68 4.34 -3 4 C-2.67 3.01 -2.34 2.02 -2 1 C-1.34 0.67 -0.68 0.34 0 0 Z " fill="#A5AA9F" transform="translate(70,48)"/>
<path d="M0 0 C2.04898287 4.21896866 2.21207997 7.65372146 2.125 12.3125 C2.10695312 13.56675781 2.08890625 14.82101563 2.0703125 16.11328125 C2.04710937 17.06589844 2.02390625 18.01851562 2 19 C1.01 19 0.02 19 -1 19 C-1 13.39 -1 7.78 -1 2 C-2.32 2.33 -3.64 2.66 -5 3 C-13.99269144 3.87549039 -22.96758934 4.15138118 -32 4 C-32 3.34 -32 2.68 -32 2 C-27.25992342 0.85118307 -22.53863211 0.66778721 -17.6875 0.4375 C-16.87087891 0.39431641 -16.05425781 0.35113281 -15.21289062 0.30664062 C-10.13518808 0.051744 -5.08389208 -0.04095195 0 0 Z " fill="#454B45" transform="translate(32,29)"/>
<path d="M0 0 C5.94 0 11.88 0 18 0 C17.01 0.495 17.01 0.495 16 1 C16 1.66 16 2.32 16 3 C15.34 3 14.68 3 14 3 C14 2.34 14 1.68 14 1 C12.68 1 11.36 1 10 1 C10.20625 1.721875 10.4125 2.44375 10.625 3.1875 C11.05952211 6.44641585 10.41680669 8.08304504 9 11 C4.44615385 11.36923077 4.44615385 11.36923077 2.1875 9.5 C1.795625 9.005 1.40375 8.51 1 8 C1 9.32 1 10.64 1 12 C1.66 12 2.32 12 3 12 C3 12.66 3 13.32 3 14 C2.01 14 1.02 14 0 14 C0 9.38 0 4.76 0 0 Z " fill="#BAD7DF" transform="translate(0,0)"/>
<path d="M0 0 C0.99 0.33 1.98 0.66 3 1 C3 2.32 3 3.64 3 5 C11.415 4.505 11.415 4.505 20 4 C20 4.66 20 5.32 20 6 C20.99 6.33 21.98 6.66 23 7 C24.38671875 8.62890625 24.38671875 8.62890625 25.6875 10.5625 C26.12449219 11.20316406 26.56148437 11.84382813 27.01171875 12.50390625 C27.50091797 13.24447266 27.50091797 13.24447266 28 14 C27.01 14.495 27.01 14.495 26 15 C23.3984375 13.78515625 23.3984375 13.78515625 20.375 12.0625 C19.37210938 11.49660156 18.36921875 10.93070313 17.3359375 10.34765625 C16.56507812 9.90292969 15.79421875 9.45820313 15 9 C15 8.34 15 7.68 15 7 C13.02 7 11.04 7 9 7 C10.32 7.33 11.64 7.66 13 8 C13 8.66 13 9.32 13 10 C11.35 10.66 9.7 11.32 8 12 C7.67 11.01 7.34 10.02 7 9 C4.36 9 1.72 9 -1 9 C-1 8.01 -1 7.02 -1 6 C-0.01 6 0.98 6 2 6 C2 5.34 2 4.68 2 4 C1.34 4 0.68 4 0 4 C0 2.68 0 1.36 0 0 Z " fill="#636563" transform="translate(1,8)"/>
<path d="M0 0 C0.99 0.33 1.98 0.66 3 1 C1.71283353 2.00578589 0.42011342 3.00446798 -0.875 4 C-1.59429687 4.556875 -2.31359375 5.11375 -3.0546875 5.6875 C-5 7 -5 7 -7 7 C-6.9278125 7.77601562 -6.855625 8.55203125 -6.78125 9.3515625 C-6.07358607 17.58798431 -5.88848857 25.7357642 -6 34 C-6.99 34 -7.98 34 -9 34 C-8.67 33.34 -8.34 32.68 -8 32 C-8.08910158 29.44192238 -8.23294246 26.9237399 -8.4375 24.375 C-8.48970703 23.66859375 -8.54191406 22.9621875 -8.59570312 22.234375 C-8.72541207 20.48920013 -8.86204954 18.74454275 -9 17 C-11.31 16.34 -13.62 15.68 -16 15 C-15.75 13.1875 -15.75 13.1875 -15 11 C-13.67151309 9.99357052 -12.33849671 8.99307821 -11 8 C-11 7.01 -11 6.02 -11 5 C-10.113125 4.731875 -9.22625 4.46375 -8.3125 4.1875 C-4.9988194 3.1333932 -4.9988194 3.1333932 -2.3125 1.3125 C-1.1678125 0.6628125 -1.1678125 0.6628125 0 0 Z " fill="#6C6C61" transform="translate(90,60)"/>
<path d="M0 0 C0.99 0.33 1.98 0.66 3 1 C3.33 2.98 3.66 4.96 4 7 C4.66 7 5.32 7 6 7 C6 6.34 6 5.68 6 5 C6.804375 5.2165625 6.804375 5.2165625 7.625 5.4375 C10.42667138 6.10105375 13.13449393 6.68853195 16 7 C16.66 6.34 17.32 5.68 18 5 C18.36144578 9.45783133 18.36144578 9.45783133 16.875 11.6875 C14.42240132 13.40431907 11.83294074 14.07621498 9 15 C8.67 15.66 8.34 16.32 8 17 C7.34 17 6.68 17 6 17 C6 14.03 6 11.06 6 8 C5.34 8 4.68 8 4 8 C3.67 9.32 3.34 10.64 3 12 C0.58314288 7.77050005 -0.34833144 4.87664009 0 0 Z " fill="#936655" transform="translate(34,27)"/>
<path d="M0 0 C0.33 0.99 0.66 1.98 1 3 C2.13213695 5.34514082 3.34276082 7.60642299 4.625 9.875 C6.09144223 13.20782325 6.25684186 15.40421401 6 19 C3.50638429 17.79618552 1.31856917 16.54571278 -1 15 C-1.99 16.98 -2.98 18.96 -4 21 C-6.1817487 16.63650261 -4.75930566 10.67482961 -4 6 C-2.90445549 3.50162411 -1.8235814 2.05888222 0 0 Z " fill="#0D0C0A" transform="translate(71,26)"/>
<path d="M0 0 C1.32 0.33 2.64 0.66 4 1 C4 1.99 4 2.98 4 4 C6.97 4.495 6.97 4.495 10 5 C10.46486279 11.35312484 8.56065045 15.77725542 4.9375 20.9375 C3.9784375 21.9584375 3.9784375 21.9584375 3 23 C2.34 23 1.68 23 1 23 C3.89066059 12.44191344 3.89066059 12.44191344 7 8 C5.68 8 4.36 8 3 8 C2.67 8.66 2.34 9.32 2 10 C0 8 0 8 -0.1953125 6.0546875 C-0.13020833 4.03645833 -0.06510417 2.01822917 0 0 Z " fill="#B5B7AE" transform="translate(35,40)"/>
<path d="M0 0 C0.33 0.66 0.66 1.32 1 2 C-0.98 2.33 -2.96 2.66 -5 3 C-5 3.66 -5 4.32 -5 5 C-4.484375 4.835 -3.96875 4.67 -3.4375 4.5 C-0.26636124 3.84951 2.77218334 3.9379266 6 4 C5.34 6.97 4.68 9.94 4 13 C2.35 12.67 0.7 12.34 -1 12 C-1 11.34 -1 10.68 -1 10 C-2.65 10 -4.3 10 -6 10 C-6.433125 8.2984375 -6.433125 8.2984375 -6.875 6.5625 C-7.24625 5.386875 -7.6175 4.21125 -8 3 C-8.66 2.67 -9.32 2.34 -10 2 C-6.3558226 -0.4294516 -4.28758728 -0.16179575 0 0 Z " fill="#856652" transform="translate(49,15)"/>
<path d="M0 0 C1.65 0.33 3.3 0.66 5 1 C4.67 2.32 4.34 3.64 4 5 C4.66 5 5.32 5 6 5 C6 7.64 6 10.28 6 13 C0.72 13 -4.56 13 -10 13 C-10 12.01 -10 11.02 -10 10 C-7.69 10 -5.38 10 -3 10 C-2.67 9.34 -2.34 8.68 -2 8 C-0.68 8 0.64 8 2 8 C1.01 7.34 0.02 6.68 -1 6 C-0.67 4.02 -0.34 2.04 0 0 Z " fill="#A0A39C" transform="translate(94,87)"/>
<path d="M0 0 C0.66 0.33 1.32 0.66 2 1 C1.46541848 5.54394294 -0.39870347 8.29512312 -3 12 C-3.69429379 13.3191582 -4.37530495 14.64649406 -5 16 C-8.53586014 12.82679218 -10.58578031 10.83256305 -11 6 C-9.70990357 5.49596232 -8.41786211 4.99690074 -7.125 4.5 C-6.04605469 4.08234375 -6.04605469 4.08234375 -4.9453125 3.65625 C-3 3 -3 3 -1 3 C-0.67 2.01 -0.34 1.02 0 0 Z " fill="#B0B3AC" transform="translate(67,76)"/>
<path d="M0 0 C3 1 3 1 5 2 C5 2.66 5 3.32 5 4 C7.64 4 10.28 4 13 4 C12.01 5.98 11.02 7.96 10 10 C6.37 10 2.74 10 -1 10 C-1.125 2.25 -1.125 2.25 0 0 Z " fill="#C4C3BB" transform="translate(6,90)"/>
<path d="M0 0 C2.31 1.65 4.62 3.3 7 5 C7.33 4.01 7.66 3.02 8 2 C8 2.66 8 3.32 8 4 C9.32 4 10.64 4 12 4 C10.47291037 7.43595166 8.40072955 10.11912454 6 13 C6 11.35 6 9.7 6 8 C5.236875 8.350625 4.47375 8.70125 3.6875 9.0625 C1 10 1 10 -2 9 C-2.33 10.32 -2.66 11.64 -3 13 C-3.66 12.67 -4.32 12.34 -5 12 C-3.35 8.04 -1.7 4.08 0 0 Z " fill="#959084" transform="translate(70,40)"/>
<path d="M0 0 C3.66223158 0.49489616 5.66993926 1.05676537 8 4 C8 4.33 8 4.66 8 5 C6.33388095 5.042721 4.66617115 5.04063832 3 5 C2.67 4.67 2.34 4.34 2 4 C1.67 4.66 1.34 5.32 1 6 C-5.6 5.67 -12.2 5.34 -19 5 C-19 5.66 -19 6.32 -19 7 C-19.99 7 -20.98 7 -22 7 C-22 7.66 -22 8.32 -22 9 C-22.99 8.67 -23.98 8.34 -25 8 C-25.33 7.01 -25.66 6.02 -26 5 C-24.68 5 -23.36 5 -22 5 C-21.67 4.01 -21.34 3.02 -21 2 C-18.24968413 2.14111883 -15.49984582 2.28771165 -12.75 2.4375 C-11.58404297 2.49647461 -11.58404297 2.49647461 -10.39453125 2.55664062 C-9.26337891 2.61948242 -9.26337891 2.61948242 -8.109375 2.68359375 C-7.07248535 2.73858032 -7.07248535 2.73858032 -6.01464844 2.79467773 C-3.93371671 3.00675524 -2.01427578 3.44508677 0 4 C0 2.68 0 1.36 0 0 Z " fill="#48291C" transform="translate(51,87)"/>
<path d="M0 0 C0 0.66 0 1.32 0 2 C2.97 2.99 5.94 3.98 9 5 C8.67 6.65 8.34 8.3 8 10 C6.02 9.01 4.04 8.02 2 7 C2 6.34 2 5.68 2 5 C0.0412957 5.14076315 -1.91696093 5.2877676 -3.875 5.4375 C-5.51082031 5.55931641 -5.51082031 5.55931641 -7.1796875 5.68359375 C-9.94728971 5.83001703 -9.94728971 5.83001703 -12 7 C-9.14032181 0.62071789 -7.11769183 -0.40288822 0 0 Z " fill="#433326" transform="translate(48,0)"/>
<path d="M0 0 C4.62 0.66 9.24 1.32 14 2 C9.60546875 9.03125 9.60546875 9.03125 8 11 C7.01 11 6.02 11 5 11 C3.61328125 9.35546875 3.61328125 9.35546875 2.3125 7.1875 C1.87550781 6.47980469 1.43851563 5.77210937 0.98828125 5.04296875 C0 3 0 3 0 0 Z " fill="#603E27" transform="translate(47,59)"/>
<path d="M0 0 C0 2.64 0 5.28 0 8 C-2.31 8 -4.62 8 -7 8 C-7.33 6.35 -7.66 4.7 -8 3 C-8.99 3 -9.98 3 -11 3 C-10.34 4.65 -9.68 6.3 -9 8 C-10.32 8 -11.64 8 -13 8 C-13 5.69 -13 3.38 -13 1 C-8.62426048 0.40667939 -4.42471556 -0.13827236 0 0 Z " fill="#A9CED9" transform="translate(32,0)"/>
<path d="M0 0 C4.55555556 1.55555556 4.55555556 1.55555556 6 3 C6.14115161 5.67058851 6.04247107 8.32432238 6 11 C3.69 11 1.38 11 -1 11 C-1.33 7.7 -1.66 4.4 -2 1 C-1.34 0.67 -0.68 0.34 0 0 Z " fill="#7B7C76" transform="translate(27,66)"/>
<path d="M0 0 C2.375 0.3125 2.375 0.3125 5 1 C5.66 1.99 6.32 2.98 7 4 C6.67 4.66 6.34 5.32 6 6 C6.99 6.99 7.98 7.98 9 9 C7.75 10.5625 7.75 10.5625 6 12 C3.8125 11.6875 3.8125 11.6875 2 11 C1.896875 10.360625 1.79375 9.72125 1.6875 9.0625 C1.460625 8.381875 1.23375 7.70125 1 7 C0.01 6.67 -0.98 6.34 -2 6 C-1.34 4.02 -0.68 2.04 0 0 Z " fill="#130D0A" transform="translate(60,11)"/>
<path d="M0 0 C3.3 0 6.6 0 10 0 C9.01 0.33 8.02 0.66 7 1 C7 1.66 7 2.32 7 3 C7.680625 3.268125 8.36125 3.53625 9.0625 3.8125 C12.39710809 5.16053306 15.69743237 6.57536298 19 8 C19 6.68 19 5.36 19 4 C19.66 4 20.32 4 21 4 C21.33 3.01 21.66 2.02 22 1 C21.67 4.63 21.34 8.26 21 12 C17.50562668 10.60225067 14.13393149 9.18861079 10.75 7.5625 C9.87859375 7.15128906 9.0071875 6.74007813 8.109375 6.31640625 C6 5 6 5 5 2 C3.35 1.67 1.7 1.34 0 1 C0 0.67 0 0.34 0 0 Z " fill="#6E6D55" transform="translate(9,14)"/>
<path d="M0 0 C0.99 0 1.98 0 3 0 C4.23076923 5.41538462 4.23076923 5.41538462 3.0625 8.375 C2.711875 8.91125 2.36125 9.4475 2 10 C1.34 9.34 0.68 8.68 0 8 C-0.99 9.485 -0.99 9.485 -2 11 C-5.125 11.6875 -5.125 11.6875 -8 12 C-7.67 10.35 -7.34 8.7 -7 7 C-6.34 7 -5.68 7 -5 7 C-5 6.01 -5 5.02 -5 4 C-3.68 4 -2.36 4 -1 4 C-0.67 2.68 -0.34 1.36 0 0 Z " fill="#9B9E96" transform="translate(30,50)"/>
<path d="M0 0 C0 4.95 0 9.9 0 15 C-0.66 15 -1.32 15 -2 15 C-2 13.35 -2 11.7 -2 10 C-2.66 9.67 -3.32 9.34 -4 9 C-4 10.32 -4 11.64 -4 13 C-4.66 13 -5.32 13 -6 13 C-6 11.35 -6 9.7 -6 8 C-5.01 8 -4.02 8 -3 8 C-3 6.68 -3 5.36 -3 4 C-5.31 4 -7.62 4 -10 4 C-6.50937168 -0.29615793 -6.14674182 0 0 0 Z " fill="#BE9DAE" transform="translate(100,0)"/>
<path d="M0 0 C1.27875 -0.061875 2.5575 -0.12375 3.875 -0.1875 C4.95394531 -0.23970703 4.95394531 -0.23970703 6.0546875 -0.29296875 C6.69664063 -0.19628906 7.33859375 -0.09960938 8 0 C8.66 0.99 9.32 1.98 10 3 C12.05003955 4.19232613 12.05003955 4.19232613 14 5 C10.40537669 7.25998595 7.43404325 7.20868087 3.25 7.125 C2.07953125 7.10695313 0.9090625 7.08890625 -0.296875 7.0703125 C-1.63492188 7.03550781 -1.63492188 7.03550781 -3 7 C-1 5 -1 5 2.125 4.875 C3.07375 4.91625 4.0225 4.9575 5 5 C3.02 4.34 1.04 3.68 -1 3 C-0.67 2.01 -0.34 1.02 0 0 Z " fill="#7A4A35" transform="translate(43,93)"/>
<path d="M0 0 C2 0 2 0 3.375 1.3125 C3.91125 1.869375 4.4475 2.42625 5 3 C5.721875 3.45375 6.44375 3.9075 7.1875 4.375 C9 6 9 6 9.25 8.6875 C9.1675 9.450625 9.085 10.21375 9 11 C8.34 10.855625 7.68 10.71125 7 10.5625 C3.34400449 9.87700084 -0.30622195 9.43824485 -4 9 C-4 8.67 -4 8.34 -4 8 C-2.35 8 -0.7 8 1 8 C1 7.34 1 6.68 1 6 C0.34 6 -0.32 6 -1 6 C-0.67 4.02 -0.34 2.04 0 0 Z " fill="#7D5E49" transform="translate(48,5)"/>
<path d="M0 0 C0.33 0 0.66 0 1 0 C1.25 5.625 1.25 5.625 -1 9 C-0.34 9 0.32 9 1 9 C1 10.98 1 12.96 1 15 C0.34 15 -0.32 15 -1 15 C-1.28875 14.030625 -1.5775 13.06125 -1.875 12.0625 C-2.64214682 8.89335797 -2.64214682 8.89335797 -5 8 C-4.34 10.97 -3.68 13.94 -3 17 C-3.66 17 -4.32 17 -5 17 C-7.35785972 12.4316468 -7.42484112 8.02893321 -7 3 C-6.67 2.34 -6.34 1.68 -6 1 C-5.34 1.33 -4.68 1.66 -4 2 C-4.33 2.66 -4.66 3.32 -5 4 C-3.01508358 3.73323796 -3.01508358 3.73323796 -1 3 C-0.67 2.01 -0.34 1.02 0 0 Z " fill="#B38B7A" transform="translate(39,19)"/>
<path d="M0 0 C0.66 0 1.32 0 2 0 C2 3.3 2 6.6 2 10 C-5.82283674 13.91141837 -16.46695234 13.27674749 -25 13 C-25 12.67 -25 12.34 -25 12 C-24.00097656 11.86722656 -23.00195312 11.73445312 -21.97265625 11.59765625 C-20.68230469 11.42105469 -19.39195313 11.24445312 -18.0625 11.0625 C-16.77472656 10.88847656 -15.48695312 10.71445313 -14.16015625 10.53515625 C-11.14533687 10.33837577 -11.14533687 10.33837577 -10 9 C-8.31816052 8.76712992 -6.6287584 8.58735834 -4.9375 8.4375 C-4.01839844 8.35371094 -3.09929688 8.26992187 -2.15234375 8.18359375 C-1.44207031 8.12300781 -0.73179688 8.06242188 0 8 C0 5.36 0 2.72 0 0 Z " fill="#AEADAB" transform="translate(32,0)"/>
<path d="M0 0 C0.99 0 1.98 0 3 0 C3 3.3 3 6.6 3 10 C-4.26 10 -11.52 10 -19 10 C-19 9.34 -19 8.68 -19 8 C-12.30386804 7.202163 -5.74233419 6.87089147 1 7 C0.67 4.69 0.34 2.38 0 0 Z " fill="#2B3230" transform="translate(97,17)"/>
<path d="M0 0 C0.99 1.32 1.98 2.64 3 4 C3.5775 3.855625 4.155 3.71125 4.75 3.5625 C6.83333333 3.04166667 8.91666667 2.52083333 11 2 C13 5 13 5 13 8 C14.32 8.33 15.64 8.66 17 9 C16.21625 8.979375 15.4325 8.95875 14.625 8.9375 C12.01885039 8.81315937 12.01885039 8.81315937 10 10 C10 8.35 10 6.7 10 5 C9.34 5 8.68 5 8 5 C8.33 6.32 8.66 7.64 9 9 C7.35 8.67 5.7 8.34 4 8 C3.67 8.66 3.34 9.32 3 10 C2.34 10 1.68 10 1 10 C0.67 6.7 0.34 3.4 0 0 Z " fill="#553425" transform="translate(60,18)"/>
<path d="M0 0 C0.66 0 1.32 0 2 0 C2 1.65 2 3.3 2 5 C2.99 4.67 3.98 4.34 5 4 C4.67 2.68 4.34 1.36 4 0 C4.99 0 5.98 0 7 0 C7.12375 0.928125 7.12375 0.928125 7.25 1.875 C7.81258459 4.18437567 7.81258459 4.18437567 10.0625 5.25 C10.701875 5.4975 11.34125 5.745 12 6 C5.97403427 7.0712828 0.11090483 7.09945415 -6 7 C-5.34 5.35 -4.68 3.7 -4 2 C-2.68 2 -1.36 2 0 2 C0 1.34 0 0.68 0 0 Z " fill="#90B1C2" transform="translate(17,3)"/>
<path d="M0 0 C1.65 0 3.3 0 5 0 C5.33 1.65 5.66 3.3 6 5 C6.99 5.33 7.98 5.66 9 6 C10.6875 8.0625 10.6875 8.0625 12 10 C10.02 10.66 8.04 11.32 6 12 C6 11.34 6 10.68 6 10 C5.5875 10.515625 5.175 11.03125 4.75 11.5625 C4.1725 12.036875 3.595 12.51125 3 13 C0.8125 12.6875 0.8125 12.6875 -1 12 C-0.34 10.68 0.32 9.36 1 8 C1.66 8 2.32 8 3 8 C2.55296014 3.52116304 2.55296014 3.52116304 0 0 Z " fill="#9F8273" transform="translate(17,87)"/>
<path d="M0 0 C4.29 0 8.58 0 13 0 C12.67 1.98 12.34 3.96 12 6 C6.71502591 6.52849741 6.71502591 6.52849741 4 6 C1.5 3 1.5 3 0 0 Z " fill="#909AA0" transform="translate(65,0)"/>
<path d="M0 0 C0.66 0 1.32 0 2 0 C1.2028393 4.22026255 0.4640465 8.09124227 -1.5 11.9375 C-3.5564416 16.13606827 -4.229713 20.41452678 -5 25 C-5.66 25 -6.32 25 -7 25 C-7.33 25.99 -7.66 26.98 -8 28 C-9.49553179 23.4217124 -7.76868275 20.25783379 -6 16 C-5.4591592 14.57506131 -4.92395643 13.14796938 -4.39453125 11.71875 C-2.9296875 7.8125 -1.46484375 3.90625 0 0 Z " fill="#C6C9C2" transform="translate(19,59)"/>
<path d="M0 0 C6.93 0.495 6.93 0.495 14 1 C14 1.33 14 1.66 14 2 C12.02 2 10.04 2 8 2 C8 2.66 8 3.32 8 4 C9.98 4.99 11.96 5.98 14 7 C10.31109101 8.22963633 6.86300794 8.55670401 3 9 C3.33 7.68 3.66 6.36 4 5 C2.68 4.34 1.36 3.68 0 3 C0 2.01 0 1.02 0 0 Z " fill="#5D3422" transform="translate(35,91)"/>
<path d="M0 0 C2.0625 0.4375 2.0625 0.4375 4 1 C3.01 1.495 3.01 1.495 2 2 C2 5.63 2 9.26 2 13 C1.67 12.34 1.34 11.68 1 11 C-1.64 11 -4.28 11 -7 11 C-7 9.68 -7 8.36 -7 7 C-4.03 7.495 -4.03 7.495 -1 8 C-1.020625 6.865625 -1.04125 5.73125 -1.0625 4.5625 C-1 1 -1 1 0 0 Z " fill="#9EA19B" transform="translate(31,18)"/>
<path d="M0 0 C0.33 0.99 0.66 1.98 1 3 C1.65035814 4.34136367 2.3162955 5.67532254 3 7 C3.33 7.66 3.66 8.32 4 9 C2.02 9.99 2.02 9.99 0 11 C-0.33 10.01 -0.66 9.02 -1 8 C-1.66 7.67 -2.32 7.34 -3 7 C-3 8.65 -3 10.3 -3 12 C-2.01 12 -1.02 12 0 12 C-1.11756266 15.86848614 -2.02873292 18.28922757 -5 21 C-4.93950287 18.62246262 -4.85232887 16.25080939 -4.75 13.875 C-4.73582031 13.20984375 -4.72164063 12.5446875 -4.70703125 11.859375 C-4.45113231 6.63903668 -3.11202852 3.99584462 0 0 Z " fill="#281F16" transform="translate(71,26)"/>
<path d="M0 0 C2.46800047 1.15173355 4.04783565 2.04783565 6 4 C6.125 6.625 6.125 6.625 6 9 C11.1693489 8.59443869 11.1693489 8.59443869 16 7 C15.67 7.99 15.34 8.98 15 10 C4.44191344 10.3690205 4.44191344 10.3690205 0 8 C0 5.36 0 2.72 0 0 Z " fill="#3D1F0F" transform="translate(46,51)"/>
<path d="M0 0 C1.32 0.33 2.64 0.66 4 1 C4 1.99 4 2.98 4 4 C5.65 4.33 7.3 4.66 9 5 C9 6.32 9 7.64 9 9 C6.03 8.505 6.03 8.505 3 8 C2.67 8.66 2.34 9.32 2 10 C0 8 0 8 -0.1953125 6.0546875 C-0.13020833 4.03645833 -0.06510417 2.01822917 0 0 Z " fill="#C2C3B8" transform="translate(35,40)"/>
<path d="M0 0 C2.9375 0.375 2.9375 0.375 4.9375 1.375 C3.9375 3.375 2.9375 5.375 1.9375 7.375 C-1.0325 6.88 -1.0325 6.88 -4.0625 6.375 C-4.3925 7.365 -4.7225 8.355 -5.0625 9.375 C-6.21066394 6.55677943 -6.11902601 5.52130262 -5 2.625 C-3.0625 0.375 -3.0625 0.375 0 0 Z " fill="#7B776A" transform="translate(67.0625,59.625)"/>
<path d="M0 0 C3.96 0 7.92 0 12 0 C11.67 1.98 11.34 3.96 11 6 C10.01 5.34 9.02 4.68 8 4 C5.91582473 4.18901701 5.91582473 4.18901701 3.8125 4.875 C2.554375 5.24625 1.29625 5.6175 0 6 C0 4.02 0 2.04 0 0 Z " fill="#5D605D" transform="translate(0,77)"/>
<path d="M0 0 C3.375 0.3125 3.375 0.3125 7 1 C9.1519437 4.22791555 9.20086443 5.28400809 9 9 C7.72554546 8.57316368 6.45554118 8.13302798 5.1875 7.6875 C4.47980469 7.44386719 3.77210937 7.20023437 3.04296875 6.94921875 C0.85527627 5.93275742 -0.40896718 4.79179406 -2 3 C-1.01 2.67 -0.02 2.34 1 2 C0.67 1.34 0.34 0.68 0 0 Z " fill="#A6A69D" transform="translate(12,87)"/>
<path d="M0 0 C4.0185613 1.21491388 7.64212249 2.43221132 11 5 C11 6.32 11 7.64 11 9 C8.69 9 6.38 9 4 9 C5.32 8.34 6.64 7.68 8 7 C8 6.34 8 5.68 8 5 C5.69 4.34 3.38 3.68 1 3 C1 4.32 1 5.64 1 7 C-0.65 6.67 -2.3 6.34 -4 6 C-2.68 4.02 -1.36 2.04 0 0 Z " fill="#614031" transform="translate(50,84)"/>
<path d="M0 0 C3.96 0 7.92 0 12 0 C12 3.96 12 7.92 12 12 C11.67 12 11.34 12 11 12 C11.04125 11.113125 11.0825 10.22625 11.125 9.3125 C10.33958083 5.88750075 10.33958083 5.88750075 7.70703125 4.48828125 C5.16667518 3.23780978 2.61935703 2.07436423 0 1 C0 0.67 0 0.34 0 0 Z " fill="#38433D" transform="translate(88,44)"/>
<path d="M0 0 C1.32 0 2.64 0 4 0 C4 0.66 4 1.32 4 2 C4.66 2 5.32 2 6 2 C5.814375 2.78375 5.62875 3.5675 5.4375 4.375 C4.74037734 6.97089775 4.74037734 6.97089775 6 9 C3.625 9.125 3.625 9.125 1 9 C0.34 8.34 -0.32 7.68 -1 7 C-0.625 3.375 -0.625 3.375 0 0 Z " fill="#8B4F2E" transform="translate(78,0)"/>
<path d="M0 0 C2.3125 0.125 2.3125 0.125 5 1 C6.875 3.875 6.875 3.875 8 7 C7.67 7.99 7.34 8.98 7 10 C5.35 10.33 3.7 10.66 2 11 C2.33 9.02 2.66 7.04 3 5 C1.35 5.33 -0.3 5.66 -2 6 C-1.34 4.02 -0.68 2.04 0 0 Z " fill="#6B4C3D" transform="translate(36,17)"/>
<path d="M0 0 C9.41002278 -0.3690205 9.41002278 -0.3690205 14 2 C14.33 1.34 14.66 0.68 15 0 C15 1.32 15 2.64 15 4 C11.91915045 4.85659135 8.93207999 5.26941369 5.75 5.5625 C4.85796875 5.64628906 3.9659375 5.73007812 3.046875 5.81640625 C2.37140625 5.87699219 1.6959375 5.93757813 1 6 C1 5.34 1 4.68 1 4 C2.65 3.34 4.3 2.68 6 2 C4.02 2 2.04 2 0 2 C0 1.34 0 0.68 0 0 Z " fill="#4A3626" transform="translate(43,14)"/>
<path d="M0 0 C0.99 0.33 1.98 0.66 3 1 C3.31431892 4.08991481 3.39455938 5.50263979 1.42578125 7.984375 C0.72839844 8.56703125 0.03101562 9.1496875 -0.6875 9.75 C-1.37199219 10.34296875 -2.05648437 10.9359375 -2.76171875 11.546875 C-5.20859323 13.13542178 -7.12913029 13.61788774 -10 14 C-7.375 10.125 -7.375 10.125 -4 9 C-1.37140179 6.16920193 -0.52770599 3.79948314 0 0 Z " fill="#9FA29A" transform="translate(95,48)"/>
<path d="M0 0 C-0.66 1.32 -1.32 2.64 -2 4 C-8.20104812 4.27560214 -13.93184478 3.22899346 -20 2 C-20 1.67 -20 1.34 -20 1 C-13.31184516 0.37577221 -6.71884955 -0.12920865 0 0 Z " fill="#9DA4A0" transform="translate(20,32)"/>
<path d="M0 0 C1.1446875 0.12375 1.1446875 0.12375 2.3125 0.25 C1.3225 0.58 0.3325 0.91 -0.6875 1.25 C-1.120625 2.3328125 -1.120625 2.3328125 -1.5625 3.4375 C-3.057539 7.17509749 -4.89929093 9.32901907 -7.6875 12.25 C-9.8515625 12.921875 -9.8515625 12.921875 -11.6875 13.25 C-10.75148754 11.83235006 -9.8136208 10.41592432 -8.875 9 C-8.35292969 8.21109375 -7.83085938 7.4221875 -7.29296875 6.609375 C-6.49826172 5.44148438 -6.49826172 5.44148438 -5.6875 4.25 C-4.92953125 3.12078125 -4.92953125 3.12078125 -4.15625 1.96875 C-2.6875 0.25 -2.6875 0.25 0 0 Z " fill="#8F8979" transform="translate(64.6875,58.75)"/>
<path d="M0 0 C0.66 1.32 1.32 2.64 2 4 C1.505 4.61875 1.01 5.2375 0.5 5.875 C-1.19222773 7.83880904 -1.19222773 7.83880904 -1 10 C-2.98 10 -4.96 10 -7 10 C-5.25 5.125 -5.25 5.125 -3 4 C-2.67 3.01 -2.34 2.02 -2 1 C-1.34 0.67 -0.68 0.34 0 0 Z " fill="#A2A295" transform="translate(70,48)"/>
<path d="M0 0 C-0.33 0.99 -0.66 1.98 -1 3 C-5.76307437 3.95261487 -10.1666528 4.08333357 -15 4 C-14.67 3.01 -14.34 2.02 -14 1 C-9.27616037 0.34843591 -4.78025483 -0.11950637 0 0 Z " fill="#24292D" transform="translate(97,4)"/>
<path d="M0 0 C2.3125 1 2.3125 1 4 2 C4 2.66 4 3.32 4 4 C5.32 4.33 6.64 4.66 8 5 C2.5610835 5.21755666 -1.87080814 5.10428384 -7 3 C-7 2.34 -7 1.68 -7 1 C-4.46130539 -0.26934731 -2.82098771 -0.20149912 0 0 Z " fill="#AAABA6" transform="translate(75,95)"/>
<path d="M0 0 C1.484375 1.53125 1.484375 1.53125 2.75 3.5 C3.39195313 4.47453125 3.39195313 4.47453125 4.046875 5.46875 C4.36140625 5.9740625 4.6759375 6.479375 5 7 C4.01 7.495 4.01 7.495 3 8 C0.6171875 6.78515625 0.6171875 6.78515625 -2.125 5.0625 C-3.03507812 4.49660156 -3.94515625 3.93070313 -4.8828125 3.34765625 C-5.58148437 2.90292969 -6.28015625 2.45820313 -7 2 C-4 0 -4 0 0 0 Z " fill="#AFAD9B" transform="translate(24,15)"/>
<path d="M0 0 C0.66 0.33 1.32 0.66 2 1 C2 1.66 2 2.32 2 3 C4.31 3 6.62 3 9 3 C9.33 2.34 9.66 1.68 10 1 C10.33 2.32 10.66 3.64 11 5 C9.02 5 7.04 5 5 5 C5 5.66 5 6.32 5 7 C3.35 6.67 1.7 6.34 0 6 C-1 3 -1 3 0 0 Z " fill="#8C644D" transform="translate(52,90)"/>
<path d="M0 0 C0 2.64 0 5.28 0 8 C-2.31 7.67 -4.62 7.34 -7 7 C-6.61402985 4.20171644 -6.19863427 3.1794116 -4.0625 1.25 C-2 0 -2 0 0 0 Z " fill="#7D7E72" transform="translate(81,68)"/>
<path d="M0 0 C1.32 0 2.64 0 4 0 C3.67 2.64 3.34 5.28 3 8 C2.34 8 1.68 8 1 8 C1 9.32 1 10.64 1 12 C1.66 12 2.32 12 3 12 C3 12.66 3 13.32 3 14 C2.01 14 1.02 14 0 14 C0 9.38 0 4.76 0 0 Z " fill="#9FA8A8" transform="translate(0,0)"/>
<path d="M0 0 C1.4606285 2.64738916 2 3.89448334 2 7 C2.94978897 9.15028304 2.94978897 9.15028304 4 11 C2.35 10.67 0.7 10.34 -1 10 C-1 9.34 -1 8.68 -1 8 C-1.99 7.67 -2.98 7.34 -4 7 C-4 4 -4 4 -2 1 C-1.67 1.33 -1.34 1.66 -1 2 C-0.67 1.34 -0.34 0.68 0 0 Z " fill="#B3B5AE" transform="translate(12,84)"/>
<path d="M0 0 C0.66 0 1.32 0 2 0 C2 0.99 2 1.98 2 3 C1.01 3.33 0.02 3.66 -1 4 C-1.6837045 5.32467746 -2.34964186 6.65863633 -3 8 C-3.99 8.66 -4.98 9.32 -6 10 C-6.33 10.99 -6.66 11.98 -7 13 C-7.99 12.67 -8.98 12.34 -10 12 C-9.0980639 10.51180543 -8.17785871 9.03467187 -7.25 7.5625 C-6.73953125 6.73878906 -6.2290625 5.91507812 -5.703125 5.06640625 C-3.8207818 2.78255407 -2.8842454 2.34485543 0 2 C0 1.34 0 0.68 0 0 Z " fill="#838579" transform="translate(81,62)"/>
<path d="M0 0 C0.66 0 1.32 0 2 0 C2.80967438 2.91482778 3.21845993 4.46113217 2.0625 7.3125 C1.5365625 8.1478125 1.5365625 8.1478125 1 9 C0.67 8.01 0.34 7.02 0 6 C-0.99 5.67 -1.98 5.34 -3 5 C-3 7.97 -3 10.94 -3 14 C-3.33 14 -3.66 14 -4 14 C-4 9.71 -4 5.42 -4 1 C-3.34 1 -2.68 1 -2 1 C-1.67 1.66 -1.34 2.32 -1 3 C-0.67 2.01 -0.34 1.02 0 0 Z " fill="#ADAAA0" transform="translate(38,35)"/>
<path d="M0 0 C2.9375 0.8125 2.9375 0.8125 6 2 C6.33 2.99 6.66 3.98 7 5 C5.95199219 5.09087891 5.95199219 5.09087891 4.8828125 5.18359375 C3.97273438 5.26738281 3.06265625 5.35117188 2.125 5.4375 C1.22007813 5.51871094 0.31515625 5.59992187 -0.6171875 5.68359375 C-3.01110861 5.86989285 -3.01110861 5.86989285 -5 7 C-3.70700306 4.11562221 -2.34058637 2.12780579 0 0 Z " fill="#4E4037" transform="translate(41,0)"/>
<path d="M0 0 C0.66 0.33 1.32 0.66 2 1 C2 1.66 2 2.32 2 3 C2.99 3 3.98 3 5 3 C4.67 4.65 4.34 6.3 4 8 C2.35 8 0.7 8 -1 8 C-1.04241723 5.66705225 -1.04092937 3.33297433 -1 1 C-0.67 0.67 -0.34 0.34 0 0 Z " fill="#BCA08E" transform="translate(36,8)"/>
<path d="M0 0 C0 2.64 0 5.28 0 8 C-1.32 7.67 -2.64 7.34 -4 7 C-3.67 5.35 -3.34 3.7 -3 2 C-5.31 2 -7.62 2 -10 2 C-10 1.67 -10 1.34 -10 1 C-6.59437148 0.22157062 -3.49234244 -0.09978121 0 0 Z " fill="#C0DEE9" transform="translate(32,0)"/>
<path d="M0 0 C0.97582031 0.00902344 1.95164062 0.01804687 2.95703125 0.02734375 C3.69308594 0.03894531 4.42914063 0.05054687 5.1875 0.0625 C5.1875 1.0525 5.1875 2.0425 5.1875 3.0625 C-0.0925 2.7325 -5.3725 2.4025 -10.8125 2.0625 C-10.8125 1.7325 -10.8125 1.4025 -10.8125 1.0625 C-7.13862505 0.20951624 -3.7677607 -0.04539471 0 0 Z " fill="#79807E" transform="translate(93.8125,25.9375)"/>
<path d="M0 0 C2.64 0 5.28 0 8 0 C7.67 1.98 7.34 3.96 7 6 C4.36 5.01 1.72 4.02 -1 3 C-0.67 2.01 -0.34 1.02 0 0 Z " fill="#72442E" transform="translate(43,93)"/>
<path d="M0 0 C-2.6598561 3.44216672 -5.90288286 3.99504674 -10 5 C-10 6.65 -10 8.3 -10 10 C-10.99 9.34 -11.98 8.68 -13 8 C-12.80859375 5.6484375 -12.80859375 5.6484375 -12 3 C-9.78515625 1.6015625 -9.78515625 1.6015625 -7.0625 0.625 C-6.16660156 0.28726563 -5.27070312 -0.05046875 -4.34765625 -0.3984375 C-2 -1 -2 -1 0 0 Z " fill="#98978E" transform="translate(67,77)"/>
<path d="M0 0 C0.99 0.33 1.98 0.66 3 1 C0.525 4.465 0.525 4.465 -2 8 C-3.65 6.35 -5.3 4.7 -7 3 C-5 2 -5 2 -1 2 C-0.67 1.34 -0.34 0.68 0 0 Z " fill="#6B4C35" transform="translate(56,63)"/>
<path d="M0 0 C0.99 0 1.98 0 3 0 C2.34 2.97 1.68 5.94 1 9 C-0.65 8.67 -2.3 8.34 -4 8 C-2.68 5.36 -1.36 2.72 0 0 Z " fill="#926851" transform="translate(52,19)"/>
<path d="M0 0 C1.32 0 2.64 0 4 0 C9 5.22727273 9 5.22727273 9 8 C7.35 7.67 5.7 7.34 4 7 C3.67 7.99 3.34 8.98 3 10 C3 7.03 3 4.06 3 1 C2.01 0.67 1.02 0.34 0 0 Z " fill="#946C55" transform="translate(42,44)"/>
<path d="M0 0 C0.99 0.33 1.98 0.66 3 1 C4.47666292 4.49029418 4.07164685 8.27436386 4 12 C2 11 2 11 0.875 8.8125 C-0.08328236 5.73230669 -0.14915816 3.20690052 0 0 Z " fill="#714134" transform="translate(34,27)"/>
<path d="M0 0 C0.99 0 1.98 0 3 0 C3.33 2.31 3.66 4.62 4 7 C2.35 7 0.7 7 -1 7 C-1.04254356 5.00045254 -1.04080783 2.99958364 -1 1 C-0.67 0.67 -0.34 0.34 0 0 Z " fill="#D6D3CB" transform="translate(6,93)"/>
<path d="M0 0 C-0.75 2.9375 -0.75 2.9375 -2 6 C-4.125 6.875 -4.125 6.875 -6 7 C-6.33 5.35 -6.66 3.7 -7 2 C-4.35261084 0.5393715 -3.10551666 0 0 0 Z " fill="#A8ADA5" transform="translate(63,80)"/>
<path d="M0 0 C0.8971875 0.680625 0.8971875 0.680625 1.8125 1.375 C3.50590652 2.63295913 5.24477086 3.82984724 7 5 C5.94039062 5.13277344 4.88078125 5.26554687 3.7890625 5.40234375 C2.40101721 5.58053875 1.01299769 5.7589346 -0.375 5.9375 C-1.07367188 6.02451172 -1.77234375 6.11152344 -2.4921875 6.20117188 C-6.36783575 6.66318128 -6.36783575 6.66318128 -10 8 C-9.67 7.01 -9.34 6.02 -9 5 C-6.03 5 -3.06 5 0 5 C0 3.35 0 1.7 0 0 Z " fill="#A7AAA3" transform="translate(33,72)"/>
<path d="M0 0 C0.66 0.33 1.32 0.66 2 1 C1.67 1.66 1.34 2.32 1 3 C1.99 3.33 2.98 3.66 4 4 C3.67 4.99 3.34 5.98 3 7 C2.34 7 1.68 7 1 7 C1.66 9.97 2.32 12.94 3 16 C2.34 16 1.68 16 1 16 C-1.35785972 11.4316468 -1.42484112 7.02893321 -1 2 C-0.67 1.34 -0.34 0.68 0 0 Z " fill="#9E8474" transform="translate(33,20)"/>
<path d="M0 0 C2 3.75 2 3.75 2 6 C-5.92 6.495 -5.92 6.495 -14 7 C-14 6.67 -14 6.34 -14 6 C-9.15758367 4.66416101 -5.06562383 3.74671881 0 4 C0 2.68 0 1.36 0 0 Z " fill="#899289" transform="translate(96,18)"/>
<path d="M0 0 C2.64 0 5.28 0 8 0 C8 0.99 8 1.98 8 3 C7.01 3 6.02 3 5 3 C5 3.66 5 4.32 5 5 C3.68 4.67 2.36 4.34 1 4 C0.67 2.68 0.34 1.36 0 0 Z " fill="#342C1F" transform="translate(26,81)"/>
<path d="M0 0 C1.125 1.625 1.125 1.625 2 4 C1.25465624 6.86670678 0.32208367 9.35583266 -1 12 C-1.66 12 -2.32 12 -3 12 C-3.34833144 7.12335991 -2.41685712 4.22949995 0 0 Z " fill="#51331F" transform="translate(66,42)"/>
<path d="M0 0 C0.99 0 1.98 0 3 0 C5 3 5 3 5 6 C6.32 6.33 7.64 6.66 9 7 C7.824375 6.9690625 7.824375 6.9690625 6.625 6.9375 C4.01885039 6.81315937 4.01885039 6.81315937 2 8 C2 6.35 2 4.7 2 3 C0.68 2.67 -0.64 2.34 -2 2 C-1.34 1.34 -0.68 0.68 0 0 Z " fill="#4F3A2F" transform="translate(68,20)"/>
<path d="M0 0 C2.0625 0.4375 2.0625 0.4375 4 1 C3.01 1.495 3.01 1.495 2 2 C2 5.63 2 9.26 2 13 C1.67 13 1.34 13 1 13 C-0.58593284 8.8369263 -1.31121486 5.46074638 -1 1 C-0.67 0.67 -0.34 0.34 0 0 Z " fill="#BFB9AB" transform="translate(31,18)"/>
<path d="M0 0 C0.66 0 1.32 0 2 0 C2 3.3 2 6.6 2 10 C-0.64 10 -3.28 10 -6 10 C-3 8 -3 8 0 8 C0 5.36 0 2.72 0 0 Z " fill="#ACBCB9" transform="translate(32,0)"/>
<path d="M0 0 C1.36125 0.12375 1.36125 0.12375 2.75 0.25 C2.75 0.91 2.75 1.57 2.75 2.25 C2.09 2.25 1.43 2.25 0.75 2.25 C0.42 3.57 0.09 4.89 -0.25 6.25 C-0.25 5.59 -0.25 4.93 -0.25 4.25 C-2.56 4.25 -4.87 4.25 -7.25 4.25 C-4.83923194 1.28290085 -3.90322061 0.30024774 0 0 Z " fill="#8F97A0" transform="translate(97.25,-0.25)"/>
<path d="M0 0 C2.4294516 3.6441774 2.16179575 5.71241272 2 10 C0.68 10 -0.64 10 -2 10 C-1.85950482 8.52031676 -1.71245174 7.04125484 -1.5625 5.5625 C-1.48128906 4.73878906 -1.40007812 3.91507812 -1.31640625 3.06640625 C-1 1 -1 1 0 0 Z " fill="#40423C" transform="translate(3,90)"/>
<path d="M0 0 C0.33 0 0.66 0 1 0 C1.22126178 2.45779976 1.42750395 4.91527648 1.625 7.375 C1.68945312 8.07367188 1.75390625 8.77234375 1.8203125 9.4921875 C1.96119739 11.32369111 1.98761659 13.16312748 2 15 C1.34 15.66 0.68 16.32 0 17 C-0.66 16.01 -1.32 15.02 -2 14 C-1.67 13.34 -1.34 12.68 -1 12 C-0.77141886 9.9625237 -0.58975722 7.91959697 -0.4375 5.875 C-0.35371094 4.77929688 -0.26992187 3.68359375 -0.18359375 2.5546875 C-0.12300781 1.71164063 -0.06242187 0.86859375 0 0 Z " fill="#7C8072" transform="translate(81,77)"/>
<path d="M0 0 C2.64 0 5.28 0 8 0 C8 1.65 8 3.3 8 5 C5.03 4.67 2.06 4.34 -1 4 C-0.01 3.34 0.98 2.68 2 2 C1.34 1.34 0.68 0.68 0 0 Z " fill="#552C1D" transform="translate(43,30)"/>
<path d="M0 0 C3.3 0 6.6 0 10 0 C10.33 0.66 10.66 1.32 11 2 C10.0625 4.125 10.0625 4.125 9 6 C9.66 6.33 10.32 6.66 11 7 C10.01 7 9.02 7 8 7 C8 5.02 8 3.04 8 1 C3.545 1.495 3.545 1.495 -1 2 C-0.67 1.34 -0.34 0.68 0 0 Z " fill="#9B765C" transform="translate(38,5)"/>
<path d="M0 0 C2 0 2 0 3.6875 1.25 C5 3 5 3 4.875 5.125 C4.441875 6.053125 4.441875 6.053125 4 7 C3.01 7.33 2.02 7.66 1 8 C1 7.34 1 6.68 1 6 C0.34 6 -0.32 6 -1 6 C-0.67 4.02 -0.34 2.04 0 0 Z " fill="#8D6649" transform="translate(48,5)"/>
<path d="M0 0 C1.125 1.75 1.125 1.75 2 4 C1.3125 6.1875 1.3125 6.1875 0 8 C-0.99 8.33 -1.98 8.66 -3 9 C-3.36923077 3.46153846 -3.36923077 3.46153846 -1.5 1.125 C-1.005 0.75375 -0.51 0.3825 0 0 Z " fill="#5E3627" transform="translate(26,82)"/>
<path d="M0 0 C0.33 0 0.66 0 1 0 C1.22822613 3.95829688 0.55050009 6.67851541 -1 10.3125 C-1.37125 11.19550781 -1.7425 12.07851562 -2.125 12.98828125 C-2.41375 13.65214844 -2.7025 14.31601563 -3 15 C-4.15782198 11.61915982 -3.83835147 9.70336781 -2.625 6.375 C-2.34914063 5.59898438 -2.07328125 4.82296875 -1.7890625 4.0234375 C-1 2 -1 2 0 0 Z " fill="#A0A39D" transform="translate(21,62)"/>
<path d="M0 0 C1.98 0 3.96 0 6 0 C5 3 5 3 3 5 C3.33 5.66 3.66 6.32 4 7 C3.34 7.66 2.68 8.32 2 9 C1.34 6.03 0.68 3.06 0 0 Z " fill="#A5A7A0" transform="translate(72,10)"/>
<path d="M0 0 C1.27875 -0.061875 2.5575 -0.12375 3.875 -0.1875 C4.95394531 -0.23970703 4.95394531 -0.23970703 6.0546875 -0.29296875 C6.69664063 -0.19628906 7.33859375 -0.09960938 8 0 C8.66 0.99 9.32 1.98 10 3 C7.69 3 5.38 3 3 3 C2.67 3.66 2.34 4.32 2 5 C2 4.01 2 3.02 2 2 C1.34 2 0.68 2 0 2 C0 1.34 0 0.68 0 0 Z " fill="#353834" transform="translate(69,6)"/>
<path d="M0 0 C0 0.66 0 1.32 0 2 C-2.90548882 4.04169485 -4.40142046 5 -8 5 C-8.66 3.68 -9.32 2.36 -10 1 C-3.375 0 -3.375 0 0 0 Z " fill="#A98B6D" transform="translate(46,6)"/>
<path d="M0 0 C0.66 0 1.32 0 2 0 C2 1.65 2 3.3 2 5 C-0.375 5.625 -0.375 5.625 -3 6 C-3.66 5.34 -4.32 4.68 -5 4 C-4.67 3.34 -4.34 2.68 -4 2 C-2.68 2 -1.36 2 0 2 C0 1.34 0 0.68 0 0 Z " fill="#78A6B7" transform="translate(17,3)"/>
<path d="M0 0 C0.66 0 1.32 0 2 0 C2.33 1.65 2.66 3.3 3 5 C3.66 5 4.32 5 5 5 C5 5.99 5 6.98 5 8 C3.35 7.67 1.7 7.34 0 7 C0 4.69 0 2.38 0 0 Z " fill="#898B83" transform="translate(28,69)"/>
<path d="M0 0 C0.66 0.33 1.32 0.66 2 1 C1.67 2.98 1.34 4.96 1 7 C-0.98 7 -2.96 7 -5 7 C-3.35 4.69 -1.7 2.38 0 0 Z " fill="#7D7C70" transform="translate(41,58)"/>
<path d="M0 0 C0.99 0 1.98 0 3 0 C3 1.65 3 3.3 3 5 C2.01 5.33 1.02 5.66 0 6 C0 6.99 0 7.98 0 9 C-0.66 9 -1.32 9 -2 9 C-1.125 1.125 -1.125 1.125 0 0 Z " fill="#888B85" transform="translate(25,61)"/>
<path d="M0 0 C0.33 0.66 0.66 1.32 1 2 C0.030625 2.12375 -0.93875 2.2475 -1.9375 2.375 C-2.948125 2.58125 -3.95875 2.7875 -5 3 C-5.33 3.66 -5.66 4.32 -6 5 C-6.66 5 -7.32 5 -8 5 C-8 4.34 -8 3.68 -8 3 C-8.66 2.67 -9.32 2.34 -10 2 C-6.3558226 -0.4294516 -4.28758728 -0.16179575 0 0 Z " fill="#725D50" transform="translate(49,15)"/>
<path d="M0 0 C2.97 0.495 2.97 0.495 6 1 C5.01 2.485 5.01 2.485 4 4 C0.375 4.1875 0.375 4.1875 -3 4 C-3.33 3.34 -3.66 2.68 -4 2 C-2.68 2 -1.36 2 0 2 C0 1.34 0 0.68 0 0 Z " fill="#5B4C3D" transform="translate(31,84)"/>
<path d="M0 0 C0.99 0 1.98 0 3 0 C2.34 1.98 1.68 3.96 1 6 C0.34 6 -0.32 6 -1 6 C-1.33 6.99 -1.66 7.98 -2 9 C-2.6875 7.3125 -2.6875 7.3125 -3 5 C-1.75 2.25 -1.75 2.25 0 0 Z " fill="#72705E" transform="translate(64,60)"/>
<path d="M0 0 C0.99 0 1.98 0 3 0 C3 3.3 3 6.6 3 10 C2.01 9.34 1.02 8.68 0 8 C-0.40843923 5.28796348 -0.13336867 2.7562858 0 0 Z " fill="#2C4428" transform="translate(97,17)"/>
<path d="M0 0 C0 1.98 0 3.96 0 6 C-0.66 6 -1.32 6 -2 6 C-2 5.01 -2 4.02 -2 3 C-3.98 3 -5.96 3 -8 3 C-8 2.34 -8 1.68 -8 1 C-2.25 0 -2.25 0 0 0 Z " fill="#362E1E" transform="translate(34,11)"/>
<path d="M0 0 C0.33 1.32 0.66 2.64 1 4 C-2.3 4 -5.6 4 -9 4 C-8.67 3.01 -8.34 2.02 -8 1 C-7.34 1 -6.68 1 -6 1 C-6 1.66 -6 2.32 -6 3 C-4.02 2.01 -2.04 1.02 0 0 Z " fill="#6E4437" transform="translate(29,96)"/>
<path d="M0 0 C1.32 0.33 2.64 0.66 4 1 C4 1.99 4 2.98 4 4 C3.21625 4.103125 2.4325 4.20625 1.625 4.3125 C-1.33045181 4.77595022 -1.33045181 4.77595022 -3 8 C-3.66 7.67 -4.32 7.34 -5 7 C-3.35 4.69 -1.7 2.38 0 0 Z " fill="#8F9285" transform="translate(72,61)"/>
<path d="M0 0 C2.475 0.99 2.475 0.99 5 2 C5 2.66 5 3.32 5 4 C4.34 4 3.68 4 3 4 C2.67 5.98 2.34 7.96 2 10 C-0.4294516 6.3558226 -0.16179575 4.28758728 0 0 Z " fill="#25201C" transform="translate(56,4)"/>
<path d="M0 0 C0.33 0 0.66 0 1 0 C1.33 3.3 1.66 6.6 2 10 C1.34 10 0.68 10 0 10 C0 9.01 0 8.02 0 7 C-1.32 7.33 -2.64 7.66 -4 8 C-3.2884375 7.13375 -3.2884375 7.13375 -2.5625 6.25 C-1.0515133 4.07417916 -0.45963849 2.57397552 0 0 Z " fill="#848A81" transform="translate(98,50)"/>
<path d="M0 0 C2.5 1.75 2.5 1.75 5 4 C5 5.32 5 6.64 5 8 C4.34 8 3.68 8 3 8 C3 7.34 3 6.68 3 6 C2.34 6 1.68 6 1 6 C0.67 4.02 0.34 2.04 0 0 Z " fill="#59351F" transform="translate(47,51)"/>
<path d="M0 0 C0.66 0 1.32 0 2 0 C2.80967438 2.91482778 3.21845993 4.46113217 2.0625 7.3125 C1.5365625 8.1478125 1.5365625 8.1478125 1 9 C-0.61949011 6.42786866 -1.04408751 5.32330841 -0.625 2.25 C-0.41875 1.5075 -0.2125 0.765 0 0 Z " fill="#979991" transform="translate(31,51)"/>
<path d="M0 0 C1.32 0 2.64 0 4 0 C2.47291037 3.43595166 0.40072955 6.11912454 -2 9 C-2.20140476 5.37471432 -1.85776765 3.13498292 0 0 Z " fill="#92978F" transform="translate(78,44)"/>
<path d="M0 0 C1.65 0.99 3.3 1.98 5 3 C5.33 2.01 5.66 1.02 6 0 C6 1.65 6 3.3 6 5 C4.35 5.33 2.7 5.66 1 6 C1 5.01 1 4.02 1 3 C0.34 2.34 -0.32 1.68 -1 1 C-0.67 0.67 -0.34 0.34 0 0 Z " fill="#87887F" transform="translate(72,42)"/>
<path d="M0 0 C3.3 0 6.6 0 10 0 C9.01 0.33 8.02 0.66 7 1 C7 1.66 7 2.32 7 3 C7.66 3.33 8.32 3.66 9 4 C7.68 4 6.36 4 5 4 C5 3.34 5 2.68 5 2 C3.35 1.67 1.7 1.34 0 1 C0 0.67 0 0.34 0 0 Z " fill="#313838" transform="translate(9,14)"/>
<path d="M0 0 C0.99 0.33 1.98 0.66 3 1 C3 2.32 3 3.64 3 5 C4.32 5.33 5.64 5.66 7 6 C4.36 6.33 1.72 6.66 -1 7 C-0.01 6.67 0.98 6.34 2 6 C2 5.34 2 4.68 2 4 C1.34 4 0.68 4 0 4 C0 2.68 0 1.36 0 0 Z " fill="#7A8586" transform="translate(1,8)"/>
<path d="M0 0 C1.98 0 3.96 0 6 0 C5.19152271 1.16945792 4.37810888 2.33550461 3.5625 3.5 C3.11003906 4.1496875 2.65757813 4.799375 2.19140625 5.46875 C1.79824219 5.9740625 1.40507813 6.479375 1 7 C0.67 7 0.34 7 0 7 C0 4.69 0 2.38 0 0 Z " fill="#8D989B" transform="translate(35,0)"/>
<path d="M0 0 C1.98 0 3.96 0 6 0 C6.66 1.32 7.32 2.64 8 4 C7.01 4.33 6.02 4.66 5 5 C3.35 3.35 1.7 1.7 0 0 Z " fill="#B1C1C0" transform="translate(65,0)"/>
<path d="M0 0 C2.56616632 3.84924948 2.55097676 6.4349304 3 11 C2.01 10.67 1.02 10.34 0 10 C0 6.7 0 3.4 0 0 Z " fill="#8C8074" transform="translate(44,51)"/>
<path d="M0 0 C1.98 0 3.96 0 6 0 C5.67 1.65 5.34 3.3 5 5 C3.0625 4.1875 3.0625 4.1875 1 3 C0.67 2.01 0.34 1.02 0 0 Z " fill="#9F962E" transform="translate(24,15)"/>
<path d="M0 0 C0.99 0.33 1.98 0.66 3 1 C2.67 2.65 2.34 4.3 2 6 C2.66 6 3.32 6 4 6 C4 6.66 4 7.32 4 8 C3.01 8 2.02 8 1 8 C1 7.34 1 6.68 1 6 C0.34 6 -0.32 6 -1 6 C-0.67 4.02 -0.34 2.04 0 0 Z " fill="#907B79" transform="translate(96,9)"/>
<path d="M0 0 C2.475 0.495 2.475 0.495 5 1 C4.01 1.33 3.02 1.66 2 2 C2.66 3.65 3.32 5.3 4 7 C2.68 7 1.36 7 0 7 C0 4.69 0 2.38 0 0 Z " fill="#9DC8DC" transform="translate(19,1)"/>
<path d="M0 0 C0.66 0.66 1.32 1.32 2 2 C-1.44069624 4.29379749 -2.72290301 5 -7 5 C-7 4.01 -7 3.02 -7 2 C-4.69 2 -2.38 2 0 2 C0 1.34 0 0.68 0 0 Z " fill="#A5ACA6" transform="translate(91,95)"/>
<path d="M0 0 C2.29013653 3.4352048 2.17842973 4.985331 2 9 C0.68 8.34 -0.64 7.68 -2 7 C-2 6.34 -2 5.68 -2 5 C-1.34 5 -0.68 5 0 5 C0 3.35 0 1.7 0 0 Z " fill="#1E1E1B" transform="translate(75,36)"/>
<path d="M0 0 C2.31 0 4.62 0 7 0 C6.34 1.32 5.68 2.64 5 4 C3.0625 3.6875 3.0625 3.6875 1 3 C0.67 2.01 0.34 1.02 0 0 Z " fill="#8C634B" transform="translate(44,36)"/>
<path d="M0 0 C1.32 0.33 2.64 0.66 4 1 C4 2.98 4 4.96 4 7 C3.34 7 2.68 7 2 7 C0 5 0 5 -0.125 2.375 C-0.08375 1.59125 -0.0425 0.8075 0 0 Z " fill="#5B3E29" transform="translate(63,31)"/>
<path d="M0 0 C3.06393013 -0.25532751 4.63233212 -0.21861333 7.3125 1.375 C7.869375 1.91125 8.42625 2.4475 9 3 C9 3.66 9 4.32 9 5 C5.22454612 3.90931332 2.52956528 3.0916909 0 0 Z " fill="#606B62" transform="translate(15,18)"/>
<path d="M0 0 C1.32 0.66 2.64 1.32 4 2 C4 3.32 4 4.64 4 6 C1.69 6 -0.62 6 -3 6 C-1.68 5.34 -0.36 4.68 1 4 C0.67 2.68 0.34 1.36 0 0 Z " fill="#725142" transform="translate(57,87)"/>
<path d="M0 0 C0.33 1.32 0.66 2.64 1 4 C2.65 3.01 4.3 2.02 6 1 C6.33 2.32 6.66 3.64 7 5 C4.69 5.33 2.38 5.66 0 6 C0 4.02 0 2.04 0 0 Z " fill="#68463D" transform="translate(22,87)"/>
<path d="M0 0 C2.0625 0.4375 2.0625 0.4375 4 1 C4 1.66 4 2.32 4 3 C4.99 3.33 5.98 3.66 7 4 C5.824375 3.9690625 5.824375 3.9690625 4.625 3.9375 C2.01885039 3.81315937 2.01885039 3.81315937 0 5 C-0.5625 3.0625 -0.5625 3.0625 -1 1 C-0.67 0.67 -0.34 0.34 0 0 Z " fill="#999B90" transform="translate(55,71)"/>
<path d="M0 0 C0.66 0.66 1.32 1.32 2 2 C0.75 4.4375 0.75 4.4375 -1 7 C-2.32 7.33 -3.64 7.66 -5 8 C-3.35 5.36 -1.7 2.72 0 0 Z " fill="#908170" transform="translate(58,64)"/>
<path d="M0 0 C0.33 0 0.66 0 1 0 C1.19622241 4.21878192 0.80230168 7.17010894 -1 11 C-2.0625 9.1875 -2.0625 9.1875 -3 7 C-2.67 6.01 -2.34 5.02 -2 4 C-1.34 4 -0.68 4 0 4 C0 2.68 0 1.36 0 0 Z " fill="#BEB5A3" transform="translate(44,45)"/>
<path d="M0 0 C0 0.99 0 1.98 0 3 C-2.31 3 -4.62 3 -7 3 C-7 2.34 -7 1.68 -7 1 C-4.53721199 -0.231394 -2.7204945 -0.07159196 0 0 Z " fill="#BEB4A5" transform="translate(75,95)"/>
<path d="M0 0 C2.64 0.33 5.28 0.66 8 1 C7.67 2.32 7.34 3.64 7 5 C6.67 4.01 6.34 3.02 6 2 C5.67 2.66 5.34 3.32 5 4 C4.34 4 3.68 4 3 4 C1.375 2 1.375 2 0 0 Z " fill="#75553F" transform="translate(52,17)"/>
<path d="M0 0 C0.66 0.33 1.32 0.66 2 1 C2 1.66 2 2.32 2 3 C2.99 2.67 3.98 2.34 5 2 C5 2.66 5 3.32 5 4 C3.35 4.66 1.7 5.32 0 6 C-1.125 2.25 -1.125 2.25 0 0 Z " fill="#86887D" transform="translate(79,92)"/>
<path d="M0 0 C0.66 0 1.32 0 2 0 C3.16552619 4.19589427 3.08954032 4.82091936 1 9 C0.67 6.03 0.34 3.06 0 0 Z " fill="#C59F8C" transform="translate(38,35)"/>
<path d="M0 0 C0 0.33 0 0.66 0 1 C-2.97 1 -5.94 1 -9 1 C-6.80036907 -3.39926185 -3.61934676 -1.66294311 0 0 Z " fill="#755748" transform="translate(48,4)"/>
</svg>
