<?xml version="1.0" encoding="UTF-8"?>
<svg version="1.1" xmlns="http://www.w3.org/2000/svg" width="100" height="100">
<path d="M0 0 C33 0 66 0 100 0 C100 33 100 66 100 100 C67 100 34 100 0 100 C0 67 0 34 0 0 Z " fill="#FBC8A4" transform="translate(0,0)"/>
<path d="M0 0 C6.64431453 2.90890022 11.1324526 7.38988154 14 14 C17.40402963 23.08114483 18.57791403 31.3359932 18 41 C21.3 41 24.6 41 28 41 C28 58.49 28 75.98 28 94 C-5 94 -38 94 -72 94 C-72 76.51 -72 59.02 -72 41 C-51.75 41 -51.75 41 -44 42 C-44 41.34 -44 40.68 -44 40 C-48.95 40 -53.9 40 -59 40 C-59 39.67 -59 39.34 -59 39 C-53.39 39 -47.78 39 -42 39 C-41.67 38.01 -41.34 37.02 -41 36 C-40.731875 36.969375 -40.46375 37.93875 -40.1875 38.9375 C-39.795625 39.948125 -39.40375 40.95875 -39 42 C-38.01 42.33 -37.02 42.66 -36 43 C-34.60655929 51.68075904 -34.99275515 59.52229996 -38.625 67.625 C-40.33890166 71.83184953 -40.94537248 75.51623337 -40 80 C-37.98341617 82.06150487 -37.98341617 82.06150487 -35 83 C-33.845 83.515625 -32.69 84.03125 -31.5 84.5625 C-28.67241349 85.72383017 -25.84404247 86.87961963 -23 88 C-18.25829281 83.41634972 -17.83250147 78.25471501 -17 72 C-18.65 71.34 -20.3 70.68 -22 70 C-22 69.01 -22 68.02 -22 67 C-21.14535156 67.23009766 -21.14535156 67.23009766 -20.2734375 67.46484375 C-16.4192245 68.37210695 -12.89334351 68.96994446 -9 68 C-7.08611321 66.11615179 -5.77565771 64.16562471 -4.34375 61.8984375 C-2.60274289 59.43875885 -0.80286914 58.93428971 2 58 C3.836141 55.05145241 4.5003078 52.14118622 5.125 48.75 C5.29257813 47.85796875 5.46015625 46.9659375 5.6328125 46.046875 C5.81457031 45.03367187 5.81457031 45.03367187 6 44 C4.35 44 2.7 44 1 44 C0.67 43.34 0.34 42.68 0 42 C0.495 41.01 0.495 41.01 1 40 C-0.485 39.505 -0.485 39.505 -2 39 C-2 38.34 -2 37.68 -2 37 C1.33333333 37 4.66666667 37 8 37 C7.67 36.01 7.34 35.02 7 34 C6.97447231 31.58337836 6.95434949 29.16669773 6.9375 26.75 C6.72736001 21.76335411 6.23421581 18.14882607 2.5 14.5625 C-1.21797083 11.98595289 -4.47354093 10.9995578 -8.98828125 11.3828125 C-11.72364916 12.22201275 -12.92512714 13.89085883 -14.484375 16.21875 C-17.17651356 19.38270665 -20.9035659 21.15039312 -24.4765625 23.19140625 C-27.89502557 25.64148118 -29.40194176 28.34383873 -30.8125 32.25 C-32 34 -32 34 -35.125 34.75 C-36.07375 34.8325 -37.0225 34.915 -38 35 C-37.67 32.03 -37.34 29.06 -37 26 C-37.99 26.33 -38.98 26.66 -40 27 C-39.07300598 19.34430799 -36.91246486 13.95650102 -32 8 C-31.43410156 7.30132812 -30.86820313 6.60265625 -30.28515625 5.8828125 C-27.21314221 2.64842986 -25.17608956 1.13925562 -20.66796875 0.60546875 C-18.36315811 0.61817443 -16.05745842 0.69682994 -13.7578125 0.8515625 C-9.03484762 1.10577307 -5.07067117 -0.8122537 0 0 Z " fill="#1D1817" transform="translate(72,6)"/>
<path d="M0 0 C33 0 66 0 100 0 C100 15.51 100 31.02 100 47 C96.7 47 93.4 47 90 47 C89.98582031 46.2471875 89.97164063 45.494375 89.95703125 44.71875 C89.65644788 38.02467721 88.66416722 31.93779073 86.6875 25.5625 C86.48680908 24.90121094 86.28611816 24.23992188 86.0793457 23.55859375 C83.78620369 16.53612398 80.58218185 11.60570901 74.21484375 7.90625 C69.51642001 5.9837909 64.88990562 6.68501573 60 7.5 C57 8 57 8 54.94921875 7.78515625 C51.15210266 7.41134689 48.85817765 7.4608884 45.5625 9.53125 C38.3290295 15.71777082 34.93612122 21.4552602 33.39453125 30.86328125 C33 33 33 33 32 35 C21.31131642 35.17913995 10.50700392 35.10140078 0 33 C0 22.11 0 11.22 0 0 Z " fill="#D2B8AF" transform="translate(0,0)"/>
<path d="M0 0 C2 3 2 3 3 6 C3.99 6.33 4.98 6.66 6 7 C7.39344071 15.68075904 7.00724485 23.52229996 3.375 31.625 C1.66109834 35.83184953 1.05462752 39.51623337 2 44 C4.01658383 46.06150487 4.01658383 46.06150487 7 47 C8.155 47.515625 9.31 48.03125 10.5 48.5625 C13.32758651 49.72383017 16.15595753 50.87961963 19 52 C23.74170719 47.41634972 24.16749853 42.25471501 25 36 C23.35 35.34 21.7 34.68 20 34 C20 33.01 20 32.02 20 31 C20.56589844 31.16113281 21.13179687 31.32226562 21.71484375 31.48828125 C24.06192223 32.01386635 26.1601634 32.16717566 28.5625 32.1875 C29.70912109 32.20876953 29.70912109 32.20876953 30.87890625 32.23046875 C33.30153503 32.1323375 33.30153503 32.1323375 36 30 C34.125 33.875 34.125 33.875 33 35 C31.00041636 35.04080783 28.99954746 35.04254356 27 35 C26.96261719 35.99 26.92523438 36.98 26.88671875 38 C26.8209894 39.33336687 26.75454457 40.66669861 26.6875 42 C26.60048828 43.9490625 26.60048828 43.9490625 26.51171875 45.9375 C26 50 26 50 23 58 C5.51 58 -11.98 58 -30 58 C-30 40.51 -30 23.02 -30 5 C-9.75 5 -9.75 5 -2 6 C-2 5.34 -2 4.68 -2 4 C-6.95 4 -11.9 4 -17 4 C-17 3.67 -17 3.34 -17 3 C-11.39 3 -5.78 3 0 3 C0 2.01 0 1.02 0 0 Z " fill="#1A2559" transform="translate(30,42)"/>
<path d="M0 0 C6.64431453 2.90890022 11.1324526 7.38988154 14 14 C17.40402963 23.08114483 18.57791403 31.3359932 18 41 C21.3 41 24.6 41 28 41 C28 58.49 28 75.98 28 94 C26.02 94 24.04 94 22 94 C20.00214565 89.8794254 19.82164485 86.54805635 20 82 C19.01 82 18.02 82 17 82 C17 80.68 17 79.36 17 78 C16.01 77.505 16.01 77.505 15 77 C15 77.66 15 78.32 15 79 C14.34 79 13.68 79 13 79 C12.11097088 72.95180188 11.87651617 67.10776514 11.9375 61 C11.94201172 60.12988281 11.94652344 59.25976562 11.95117188 58.36328125 C11.9628264 56.24215707 11.98075643 54.1210689 12 52 C11.34 52 10.68 52 10 52 C9.56172854 47.83642113 10.28123135 45.14737741 12 41.4375 C15.53749263 32.98048356 15.05199664 24.86330133 11.8125 16.375 C9.93983954 11.94006443 8.27191813 10.19243077 4 8 C3.01 7.34 2.02 6.68 1 6 C-1.20841938 5.36921661 -1.20841938 5.36921661 -3.5625 4.9375 C-5.94015535 4.46509229 -7.82870329 4.08564836 -10 3 C-10 3.66 -10 4.32 -10 5 C-9.401875 5.2475 -8.80375 5.495 -8.1875 5.75 C-5.71352479 7.16370012 -4.56629745 8.65055383 -3 11 C-4.216875 11.04125 -5.43375 11.0825 -6.6875 11.125 C-10.26769903 11.5740842 -10.79147352 11.76329427 -13.3125 14.625 C-13.68761719 15.16253906 -14.06273438 15.70007813 -14.44921875 16.25390625 C-17.20296141 19.35446789 -20.90563473 21.15157491 -24.4765625 23.19140625 C-27.89502557 25.64148118 -29.40194176 28.34383873 -30.8125 32.25 C-32 34 -32 34 -35.125 34.75 C-36.07375 34.8325 -37.0225 34.915 -38 35 C-37.505 30.545 -37.505 30.545 -37 26 C-37.99 26.33 -38.98 26.66 -40 27 C-39.07300598 19.34430799 -36.91246486 13.95650102 -32 8 C-31.43410156 7.30132812 -30.86820313 6.60265625 -30.28515625 5.8828125 C-27.21314221 2.64842986 -25.17608956 1.13925562 -20.66796875 0.60546875 C-18.36315811 0.61817443 -16.05745842 0.69682994 -13.7578125 0.8515625 C-9.03484762 1.10577307 -5.07067117 -0.8122537 0 0 Z " fill="#3D2C2A" transform="translate(72,6)"/>
<path d="M0 0 C33 0 66 0 100 0 C100 15.51 100 31.02 100 47 C96.7 47 93.4 47 90 47 C89.98582031 46.2471875 89.97164063 45.494375 89.95703125 44.71875 C89.65644788 38.02467721 88.66416722 31.93779073 86.6875 25.5625 C86.48680908 24.90121094 86.28611816 24.23992188 86.0793457 23.55859375 C83.78620369 16.53612398 80.58218185 11.60570901 74.21484375 7.90625 C69.64082709 6.03469468 65.09757967 6.55464207 60.35644531 7.5612793 C56.46574523 8.0698324 52.88971373 7.75974275 49.0234375 7.29296875 C48.26368118 7.20805679 47.50392487 7.12314484 46.72114563 7.03565979 C44.27152145 6.76037779 41.82333974 6.47395913 39.375 6.1875 C37.69907728 5.99746475 36.02305121 5.80833877 34.34692383 5.62011719 C31.86006227 5.34067412 29.37328722 5.0606236 26.88685608 4.77737427 C20.49210175 4.04891701 14.09314608 3.37596484 7.6875 2.75 C6.47296143 2.63047974 6.47296143 2.63047974 5.23388672 2.50854492 C3.48940056 2.33756714 1.74472847 2.16848712 0 2 C0 1.34 0 0.68 0 0 Z " fill="#C5B5B1" transform="translate(0,0)"/>
<path d="M0 0 C2.9453125 1.421875 2.9453125 1.421875 6 4 C6.89698728 7.07325991 6.88495586 10.06412432 6.875 13.25 C6.895625 14.09046875 6.91625 14.9309375 6.9375 15.796875 C6.98448362 17.86415445 6.99574525 19.93219109 7 22 C6.360625 22.12375 5.72125 22.2475 5.0625 22.375 C4.381875 22.58125 3.70125 22.7875 3 23 C2.67 23.66 2.34 24.32 2 25 C2 24.01 2 23.02 2 22 C0.35 22 -1.3 22 -3 22 C-2.505 22.433125 -2.01 22.86625 -1.5 23.3125 C0 25 0 25 0 28 C1.65 28.33 3.3 28.66 5 29 C5.32222776 33.67230248 5.43057686 36.13884627 3.3125 40.375 C0.87538657 43.14145308 -0.63086276 43.75873891 -4 45 C-5.12516085 46.83284443 -5.12516085 46.83284443 -6 49 C-7.5625 51.75 -7.5625 51.75 -10 54 C-14.83031961 54.88066601 -18.72493104 54.41930039 -23 52 C-23 52.99 -23 53.98 -23 55 C-21.35 55.66 -19.7 56.32 -18 57 C-18.21056529 67.75797202 -18.21056529 67.75797202 -21.5625 71.6875 C-22.366875 72.450625 -23.17125 73.21375 -24 74 C-27.86607711 72.51800377 -31.54917406 70.79247064 -35.25 68.9375 C-36.30703125 68.41027344 -37.3640625 67.88304688 -38.453125 67.33984375 C-41 66 -41 66 -42 65 C-42.51410177 58.52231764 -41.5706888 54.34291569 -38.95703125 48.44140625 C-37.58819073 44.94946615 -37.27603492 41.72647146 -37 38 C-34 38 -34 38 -31.80859375 40.1171875 C-31.02613281 41.02726562 -30.24367188 41.93734375 -29.4375 42.875 C-28.25994141 44.23238281 -28.25994141 44.23238281 -27.05859375 45.6171875 C-26.37925781 46.40351562 -25.69992188 47.18984375 -25 48 C-22.14206684 50.85793316 -19.85334416 50.40799941 -15.875 50.625 C-14.59367187 50.69976562 -13.31234375 50.77453125 -11.9921875 50.8515625 C-11.00476563 50.90054688 -10.01734375 50.94953125 -9 51 C-9.33 50.01 -9.66 49.02 -10 48 C-11.65 47.67 -13.3 47.34 -15 47 C-15.2165625 46.1028125 -15.2165625 46.1028125 -15.4375 45.1875 C-15.8872439 43.43849596 -16.42892341 41.71322977 -17 40 C-19.00016466 38.79117904 -19.00016466 38.79117904 -21 38 C-17.92478317 36.46239158 -15.65324882 37.63400764 -12.375 38.4375 C-11.18648437 38.72496094 -9.99796875 39.01242188 -8.7734375 39.30859375 C-7.40058594 39.65083984 -7.40058594 39.65083984 -6 40 C-6 39.34 -6 38.68 -6 38 C-3.36 38 -0.72 38 2 38 C2.33 35.36 2.66 32.72 3 30 C1.35 30 -0.3 30 -2 30 C-2.66 31.98 -3.32 33.96 -4 36 C-6.475 36.495 -6.475 36.495 -9 37 C-9.33 36.01 -9.66 35.02 -10 34 C-11.32 34 -12.64 34 -14 34 C-14 33.34 -14 32.68 -14 32 C-11.03 32.33 -8.06 32.66 -5 33 C-5.33 28.38 -5.66 23.76 -6 19 C-6.99 19.99 -7.98 20.98 -9 22 C-11.91944192 24.08531566 -13.05328386 23.99467161 -16.75 23.625 C-18.35875 23.315625 -18.35875 23.315625 -20 23 C-20.12375 22.360625 -20.2475 21.72125 -20.375 21.0625 C-20.58125 20.381875 -20.7875 19.70125 -21 19 C-21.66 18.67 -22.32 18.34 -23 18 C-23 17.01 -23 16.02 -23 15 C-19.7 15 -16.4 15 -13 15 C-13 14.34 -13 13.68 -13 13 C-15.31 12.34 -17.62 11.68 -20 11 C-20 10.67 -20 10.34 -20 10 C-14.54520815 10.56820748 -10.08940744 11.94637945 -5 14 C-5 14.99 -5 15.98 -5 17 C-4.34 16.67 -3.68 16.34 -3 16 C-1.00039988 15.960008 1.00047242 15.95653201 3 16 C2.88648483 14.18674449 2.75887039 12.37436643 2.625 10.5625 C2.52058594 9.04849609 2.52058594 9.04849609 2.4140625 7.50390625 C2.20910156 6.26447266 2.20910156 6.26447266 2 5 C1.34 4.67 0.68 4.34 0 4 C0 2.68 0 1.36 0 0 Z " fill="#9F6546" transform="translate(73,21)"/>
<path d="M0 0 C5.28 0 10.56 0 16 0 C16 4.91228103 15.52273593 6.0302149 13.08984375 9.9609375 C10.88542187 14.08533972 9 19.28470704 9 24 C8.071875 24.12375 8.071875 24.12375 7.125 24.25 C4.81562433 24.81258459 4.81562433 24.81258459 3.75 27.0625 C3.5025 27.701875 3.255 28.34125 3 29 C1.35 29 -0.3 29 -2 29 C-2.33 29.99 -2.66 30.98 -3 32 C-4.65 32 -6.3 32 -8 32 C-8.69883384 30.01101138 -9.35377514 28.00669825 -10 26 C-10.26425781 25.21109375 -10.52851563 24.4221875 -10.80078125 23.609375 C-13.05294961 16.30850695 -13.32654377 9.60726037 -13 2 C5.82004556 1.81548975 5.82004556 1.81548975 15 3 C15 2.34 15 1.68 15 1 C10.05 1 5.1 1 0 1 C0 0.67 0 0.34 0 0 Z " fill="#7B6D5E" transform="translate(13,45)"/>
<path d="M0 0 C1.10859375 0.07927734 2.2171875 0.15855469 3.359375 0.24023438 C6.07735455 0.43939667 8.78778628 0.67246595 11.5 0.9375 C11.5 1.9275 11.5 2.9175 11.5 3.9375 C7.55272412 4.11692163 4.9019487 4.03100689 1.5 1.9375 C1.5 2.5975 1.5 3.2575 1.5 3.9375 C2.098125 4.185 2.69625 4.4325 3.3125 4.6875 C5.78647521 6.10120012 6.93370255 7.58805383 8.5 9.9375 C7.283125 9.97875 6.06625 10.02 4.8125 10.0625 C1.23230097 10.5115842 0.70852648 10.70079427 -1.8125 13.5625 C-2.18761719 14.10003906 -2.56273438 14.63757813 -2.94921875 15.19140625 C-5.70296141 18.29196789 -9.40563473 20.08907491 -12.9765625 22.12890625 C-16.39502557 24.57898118 -17.90194176 27.28133873 -19.3125 31.1875 C-20.5 32.9375 -20.5 32.9375 -23.625 33.6875 C-24.57375 33.77 -25.5225 33.8525 -26.5 33.9375 C-26.005 29.4825 -26.005 29.4825 -25.5 24.9375 C-26.49 25.2675 -27.48 25.5975 -28.5 25.9375 C-27.58914353 18.41508193 -25.54482406 12.67379608 -20.5 6.9375 C-19.98663086 6.33397705 -19.47326172 5.7304541 -18.94433594 5.10864258 C-13.07070772 -0.98612667 -8.10706721 -0.80003953 0 0 Z " fill="#272C50" transform="translate(60.5,7.0625)"/>
<path d="M0 0 C0.66 0 1.32 0 2 0 C2 2.64 2 5.28 2 8 C3.65 8 5.3 8 7 8 C7.125 10.875 7.125 10.875 7 14 C6.34 14.66 5.68 15.32 5 16 C4.54188325 17.97235333 4.54188325 17.97235333 4.375 20.125 C4.189375 22.043125 4.189375 22.043125 4 24 C3.67 24 3.34 24 3 24 C3 21.69 3 19.38 3 17 C2.38125 16.896875 1.7625 16.79375 1.125 16.6875 C-1 16 -1 16 -3 13 C-3.99 13.495 -3.99 13.495 -5 14 C-5 14.66 -5 15.32 -5 16 C-18.86 15.505 -18.86 15.505 -33 15 C-33 10.38 -33 5.76 -33 1 C-31.69546875 1.0721875 -30.3909375 1.144375 -29.046875 1.21875 C-19.68822983 1.72106534 -10.37479232 2.1714901 -1 2 C-0.67 1.34 -0.34 0.68 0 0 Z " fill="#BEA295" transform="translate(33,32)"/>
<path d="M0 0 C7.06426776 0.87004768 13.75312086 1.83640465 19 7 C24.38610631 15.40823579 25.85701512 23.09922007 25 33 C24.17692201 35.74608746 23.15720883 38.23235332 21.95703125 40.83203125 C20.77609591 43.50721132 20.30514476 46.10112482 20 49 C20.66 49 21.32 49 22 49 C22.33 55.27 22.66 61.54 23 68 C22.34 68 21.68 68 21 68 C19.55160435 63.65481305 20.0334412 59.48012957 20.16015625 54.93359375 C20.32054464 51.8755386 20.32054464 51.8755386 18 50 C16.515 50.495 16.515 50.495 15 51 C15.33 47.7 15.66 44.4 16 41 C14.35 41 12.7 41 11 41 C10.67 40.34 10.34 39.68 10 39 C10.33 38.34 10.66 37.68 11 37 C10.01 36.67 9.02 36.34 8 36 C8 35.34 8 34.68 8 34 C11.33333333 34 14.66666667 34 18 34 C17.67 33.01 17.34 32.02 17 31 C16.97447231 28.58337836 16.95434949 26.16669773 16.9375 23.75 C16.79368134 19.92788248 16.59898204 16.85007756 14.33203125 13.6328125 C12.30113234 11.91816989 10.22067949 10.456665 8 9 C6.33333333 7.33333333 4.66666667 5.66666667 3 4 C2.01 3.34 1.02 2.68 0 2 C0 1.34 0 0.68 0 0 Z " fill="#211816" transform="translate(62,9)"/>
<path d="M0 0 C0.7734375 -0.00773437 1.546875 -0.01546875 2.34375 -0.0234375 C4.99824309 0.46706666 5.89704522 1.23263821 7.5 3.375 C7.6875 6.0625 7.6875 6.0625 7.5 8.375 C8.985 8.87 8.985 8.87 10.5 9.375 C10.5 13.005 10.5 16.635 10.5 20.375 C6.54 20.87 6.54 20.87 2.5 21.375 C2.5 20.385 2.5 19.395 2.5 18.375 C1.92765625 18.23191406 1.3553125 18.08882812 0.765625 17.94140625 C-2.65625 17.0859375 -6.078125 16.23046875 -9.5 15.375 C-8.860625 15.643125 -8.22125 15.91125 -7.5625 16.1875 C-5.5 17.375 -5.5 17.375 -4.5 20.375 C-8.13 20.045 -11.76 19.715 -15.5 19.375 C-15.5 20.365 -15.5 21.355 -15.5 22.375 C-14.51 22.705 -13.52 23.035 -12.5 23.375 C-12.5 24.695 -12.5 26.015 -12.5 27.375 C-13.16 27.375 -13.82 27.375 -14.5 27.375 C-14.5 26.715 -14.5 26.055 -14.5 25.375 C-15.16 25.375 -15.82 25.375 -16.5 25.375 C-18.35776765 22.24001708 -18.70140476 20.00028568 -18.5 16.375 C-20.15 16.705 -21.8 17.035 -23.5 17.375 C-20.30994228 12.7228325 -16.47406173 9.90509634 -11.5 7.375 C-10.84 7.375 -10.18 7.375 -9.5 7.375 C-9.231875 6.776875 -8.96375 6.17875 -8.6875 5.5625 C-6.46683686 1.47180474 -4.7360277 -0.04736028 0 0 Z " fill="#F8CDAC" transform="translate(65.5,16.625)"/>
<path d="M0 0 C6.65365668 -0.08284709 13.11333559 0.17222078 19.7265625 0.875 C21.03710098 1.00817627 21.03710098 1.00817627 22.37411499 1.14404297 C25.12491723 1.42465593 27.87494166 1.71219758 30.625 2 C32.50646307 2.19317002 34.38797319 2.3858824 36.26953125 2.578125 C40.84691422 3.04680289 45.42361395 3.52168974 50 4 C48.88625 4.86625 48.88625 4.86625 47.75 5.75 C45.00157478 7.85604697 45.00157478 7.85604697 43.11376953 10.25073242 C40.06806181 12.77123321 38.06416548 12.30300903 34.1796875 11.98828125 C33.1916362 11.91676094 33.1916362 11.91676094 32.18362427 11.84379578 C30.07865172 11.68657488 27.97747574 11.49992814 25.875 11.3125 C24.48452316 11.20445619 23.09389689 11.09831768 21.703125 10.99414062 C14.45833045 10.43851074 7.22666866 9.75365843 0 9 C0 6.03 0 3.06 0 0 Z " fill="#C9D0E5" transform="translate(0,2)"/>
<path d="M0 0 C2 3 2 3 3 6 C3.99 6.33 4.98 6.66 6 7 C7.39900747 15.71543842 6.94961089 23.36967413 3.5 31.5625 C0.24899419 34.73223067 -2.43760399 35.03478585 -6.85546875 35.578125 C-7.56316406 35.71734375 -8.27085938 35.8565625 -9 36 C-9.33 36.66 -9.66 37.32 -10 38 C-10.99 37.67 -11.98 37.34 -13 37 C-13.75 34.25 -13.75 34.25 -14 31 C-12.1875 28.625 -12.1875 28.625 -10 27 C-9.34 27 -8.68 27 -8 27 C-8.21269531 26.46503906 -8.42539062 25.93007812 -8.64453125 25.37890625 C-9.1458823 22.02371077 -8.04278554 20.01838853 -6.6875 16.9375 C-6.23761719 15.89464844 -5.78773437 14.85179687 -5.32421875 13.77734375 C-4 11 -4 11 -2 8 C-1.33841957 5.95415921 -1.33841957 5.95415921 -0.875 3.8125 C-0.441875 1.9253125 -0.441875 1.9253125 0 0 Z " fill="#161514" transform="translate(30,42)"/>
<path d="M0 0 C2.9453125 1.421875 2.9453125 1.421875 6 4 C6.89698728 7.07325991 6.88495586 10.06412432 6.875 13.25 C6.895625 14.09046875 6.91625 14.9309375 6.9375 15.796875 C6.98448362 17.86415445 6.99574525 19.93219109 7 22 C6.360625 22.12375 5.72125 22.2475 5.0625 22.375 C4.381875 22.58125 3.70125 22.7875 3 23 C2.67 23.66 2.34 24.32 2 25 C2 24.01 2 23.02 2 22 C0.35 22 -1.3 22 -3 22 C-2.505 22.433125 -2.01 22.86625 -1.5 23.3125 C0 25 0 25 0 28 C1.65 28.33 3.3 28.66 5 29 C5.125 36.75 5.125 36.75 4 39 C2.02 39 0.04 39 -2 39 C-2 39.66 -2 40.32 -2 41 C-3.32 41 -4.64 41 -6 41 C-6 40.01 -6 39.02 -6 38 C-3.36 38 -0.72 38 2 38 C2.33 35.36 2.66 32.72 3 30 C1.35 30 -0.3 30 -2 30 C-2.66 31.98 -3.32 33.96 -4 36 C-6.475 36.495 -6.475 36.495 -9 37 C-9.495 35.515 -9.495 35.515 -10 34 C-11.32 34 -12.64 34 -14 34 C-14 33.34 -14 32.68 -14 32 C-11.03 32.33 -8.06 32.66 -5 33 C-5.33 28.38 -5.66 23.76 -6 19 C-6.99 19.99 -7.98 20.98 -9 22 C-11.91944192 24.08531566 -13.05328386 23.99467161 -16.75 23.625 C-18.35875 23.315625 -18.35875 23.315625 -20 23 C-20.12375 22.360625 -20.2475 21.72125 -20.375 21.0625 C-20.58125 20.381875 -20.7875 19.70125 -21 19 C-21.66 18.67 -22.32 18.34 -23 18 C-23 17.01 -23 16.02 -23 15 C-19.7 15 -16.4 15 -13 15 C-13 14.34 -13 13.68 -13 13 C-15.31 12.34 -17.62 11.68 -20 11 C-20 10.67 -20 10.34 -20 10 C-14.54520815 10.56820748 -10.08940744 11.94637945 -5 14 C-5 14.99 -5 15.98 -5 17 C-4.34 16.67 -3.68 16.34 -3 16 C-1.00039988 15.960008 1.00047242 15.95653201 3 16 C2.88648483 14.18674449 2.75887039 12.37436643 2.625 10.5625 C2.55539063 9.55316406 2.48578125 8.54382813 2.4140625 7.50390625 C2.27742188 6.67761719 2.14078125 5.85132813 2 5 C1.34 4.67 0.68 4.34 0 4 C0 2.68 0 1.36 0 0 Z " fill="#DF9F7D" transform="translate(73,21)"/>
<path d="M0 0 C1.7687398 -0.13513292 3.54043055 -0.23205586 5.3125 -0.3125 C6.29863281 -0.37050781 7.28476563 -0.42851562 8.30078125 -0.48828125 C11 0 11 0 12.5546875 2.15991211 C15.08816 7.13827117 16.26375428 12.49508403 17.6875 17.875 C18.00783203 19.03386719 18.32816406 20.19273438 18.65820312 21.38671875 C20.17654456 27.05217186 21.45383444 32.12584101 21 38 C17.7 38 14.4 38 11 38 C10.98582031 37.2471875 10.97164062 36.494375 10.95703125 35.71875 C10.65644788 29.02467721 9.66416722 22.93779073 7.6875 16.5625 C7.38646362 15.57056641 7.38646362 15.57056641 7.0793457 14.55859375 C5.65110375 10.18477571 3.62056951 6.75524909 1 3 C0.67 2.01 0.34 1.02 0 0 Z " fill="#BAAAA2" transform="translate(79,9)"/>
<path d="M0 0 C0.33 0 0.66 0 1 0 C1 4.29 1 8.58 1 13 C4.3 13 7.6 13 11 13 C11 17.62 11 22.24 11 27 C9.68 27 8.36 27 7 27 C6.45627049 30.05847848 6 32.88772805 6 36 C5.67 36.99 5.34 37.98 5 39 C5.10970232 40.69215822 5.28205469 42.38085382 5.5 44.0625 C6.10968495 48.78063011 6.10968495 48.78063011 5 51 C3 49 3 49 2.5625 47.0625 C2.17671128 44.91554869 2.17671128 44.91554869 0.5078125 43.65625 C-3.47711289 39.27902626 -2.11386504 30.06821702 -2.1328125 24.421875 C-2 22 -2 22 -1.52734375 19.2265625 C-0.89540588 15.36003894 -0.65304861 11.53314366 -0.4375 7.625 C-0.39431641 6.88894531 -0.35113281 6.15289062 -0.30664062 5.39453125 C-0.20156201 3.59651932 -0.10037907 1.79828042 0 0 Z " fill="#7A6856" transform="translate(89,34)"/>
<path d="M0 0 C7.26 0 14.52 0 22 0 C21.67 3.3 21.34 6.6 21 10 C19.68 10.33 18.36 10.66 17 11 C15.71563266 12.9837767 15.71563266 12.9837767 15 15 C13.35 15 11.7 15 10 15 C9.67 15.99 9.34 16.98 9 18 C7.35 18 5.7 18 4 18 C0 6.28571429 0 6.28571429 0 0 Z " fill="#81523B" transform="translate(1,59)"/>
<path d="M0 0 C3.81248345 -0.02936502 7.62493726 -0.04692035 11.4375 -0.0625 C12.50677734 -0.07087891 13.57605469 -0.07925781 14.67773438 -0.08789062 C20.87624228 -0.10684631 26.8549481 0.17936741 33 1 C33.09765625 7.15234375 33.09765625 7.15234375 33 9 C32 10 32 10 29.8046875 10.1328125 C9.20200463 10.07787201 9.20200463 10.07787201 0 8 C0 5.36 0 2.72 0 0 Z " fill="#D2D7EC" transform="translate(0,25)"/>
<path d="M0 0 C2 0 2 0 4.5 2.3125 C7.98638565 6.58049423 8.3654249 11.67714614 9 17 C9.99 17 10.98 17 12 17 C12 17.66 12 18.32 12 19 C12.66 19 13.32 19 14 19 C14.25 26.625 14.25 26.625 12 30 C8.45756548 28.63408831 5.07372071 27.09068516 1.6875 25.375 C0.80449219 24.92898437 -0.07851563 24.48296875 -0.98828125 24.0234375 C-1.65214844 23.68570313 -2.31601562 23.34796875 -3 23 C-2.41993763 15.24548194 -1.37559416 7.65257723 0 0 Z " fill="#F2BA87" transform="translate(37,65)"/>
<path d="M0 0 C1.6097168 0.07734375 1.6097168 0.07734375 3.25195312 0.15625 C4.37150391 0.22070312 5.49105469 0.28515625 6.64453125 0.3515625 C7.77568359 0.40828125 8.90683594 0.465 10.07226562 0.5234375 C12.86782172 0.66498464 15.66248966 0.81640415 18.45703125 0.9765625 C18.45703125 1.9665625 18.45703125 2.9565625 18.45703125 3.9765625 C14.50975537 4.15598413 11.85897995 4.07006939 8.45703125 1.9765625 C8.45703125 2.6365625 8.45703125 3.2965625 8.45703125 3.9765625 C9.05515625 4.2240625 9.65328125 4.4715625 10.26953125 4.7265625 C12.74350646 6.14026262 13.8907338 7.62711633 15.45703125 9.9765625 C8.02845982 10.11941964 8.02845982 10.11941964 4.45703125 8.9765625 C4.12703125 9.9665625 3.79703125 10.9565625 3.45703125 11.9765625 C2.79703125 11.9765625 2.13703125 11.9765625 1.45703125 11.9765625 C1.45703125 10.6565625 1.45703125 9.3365625 1.45703125 7.9765625 C1.12703125 7.3165625 0.79703125 6.6565625 0.45703125 5.9765625 C-0.20296875 6.6365625 -0.86296875 7.2965625 -1.54296875 7.9765625 C-2.63609375 8.4096875 -3.72921875 8.8428125 -4.85546875 9.2890625 C-8.5763468 10.80526229 -10.81281065 13.01889123 -13.54296875 15.9765625 C-16.54296875 17.9765625 -16.54296875 17.9765625 -19.54296875 17.9765625 C-18.25085146 13.19922072 -16.47321987 10.33210229 -13.10546875 6.7265625 C-12.32300781 5.87578125 -11.54054688 5.025 -10.734375 4.1484375 C-7.03959273 0.48658556 -5.08454841 -0.26902373 0 0 Z " fill="#36394E" transform="translate(53.54296875,7.0234375)"/>
<path d="M0 0 C2.97 0.33 5.94 0.66 9 1 C10 5.75 10 5.75 10 8 C11.62553283 9.70680947 13.29115995 11.37660195 15 13 C14.67 13.99 14.34 14.98 14 16 C15.65 16 17.3 16 19 16 C19.33 17.32 19.66 18.64 20 20 C8.17399103 21.53363229 8.17399103 21.53363229 2.84375 17.7734375 C0.39846077 15.27896142 -1.86095885 12.7600531 -4 10 C-3.34 9.67 -2.68 9.34 -2 9 C-1.31270746 6.88153715 -1.31270746 6.88153715 -0.875 4.4375 C-0.58625 2.973125 -0.2975 1.50875 0 0 Z " fill="#F9C69B" transform="translate(44,52)"/>
<path d="M0 0 C3.63 0 7.26 0 11 0 C11 13.2 11 26.4 11 40 C8.15884225 34.31768449 6.67295043 28.34736071 4.9375 22.25 C4.57333984 20.99960937 4.20917969 19.74921875 3.83398438 18.4609375 C2.07198003 12.29880772 0.52220444 6.39499593 0 0 Z " fill="#161617" transform="translate(89,0)"/>
<path d="M0 0 C1.82957533 3.65915067 2.86512249 6.8101521 3.91015625 10.7421875 C4.08252304 11.38817902 4.25488983 12.03417053 4.43247986 12.69973755 C4.79504802 14.06245442 5.15548475 15.42573996 5.51391602 16.78955078 C6.05920645 18.86247954 6.61205992 20.93327838 7.16601562 23.00390625 C8.66303465 28.64663091 10.12262496 34.22022997 11 40 C7.37 40 3.74 40 0 40 C0 26.8 0 13.6 0 0 Z " fill="#141418" transform="translate(0,60)"/>
<path d="M0 0 C9.13338455 -0.28994872 17.96301675 0.8258212 27 2 C27 3.32 27 4.64 27 6 C23.37 6.33 19.74 6.66 16 7 C16 7.33 16 7.66 16 8 C13.36 8.33 10.72 8.66 8 9 C8 9.99 8 10.98 8 12 C8.56847656 11.98839844 9.13695312 11.97679687 9.72265625 11.96484375 C14.60670484 11.90776806 19.18503965 12.18043228 24 13 C24 13.33 24 13.66 24 14 C16.08 14 8.16 14 0 14 C0 9.38 0 4.76 0 0 Z " fill="#C7B1A8" transform="translate(0,11)"/>
<path d="M0 0 C7.06426776 0.87004768 13.75312086 1.83640465 19 7 C23.08151917 13.37164838 25.13738166 19.12445223 25.0625 26.6875 C25.05347656 27.86699219 25.04445313 29.04648437 25.03515625 30.26171875 C25.02355469 31.16535156 25.01195313 32.06898437 25 33 C24.67 33 24.34 33 24 33 C23.67 29.04 23.34 25.08 23 21 C22.01 21.33 21.02 21.66 20 22 C19.87625 23.299375 19.7525 24.59875 19.625 25.9375 C19.4140625 28.15234375 19.4140625 28.15234375 19 30 C18.34 30.33 17.68 30.66 17 31 C17.020625 29.99839844 17.04125 28.99679688 17.0625 27.96484375 C17.17541613 20.40316915 17.17541613 20.40316915 14.328125 13.62109375 C12.29727788 11.91472408 10.21631368 10.45380122 8 9 C6.33333333 7.33333333 4.66666667 5.66666667 3 4 C2.01 3.34 1.02 2.68 0 2 C0 1.34 0 0.68 0 0 Z " fill="#2F201B" transform="translate(62,9)"/>
<path d="M0 0 C0.66 2.97 1.32 5.94 2 9 C2.66 9 3.32 9 4 9 C4 9.66 4 10.32 4 11 C5.7015625 11.433125 5.7015625 11.433125 7.4375 11.875 C8.613125 12.24625 9.78875 12.6175 11 13 C11.33 13.66 11.66 14.32 12 15 C10.02 15.99 10.02 15.99 8 17 C8 17.33 8 17.66 8 18 C7.15695313 18.02578125 6.31390625 18.0515625 5.4453125 18.078125 C4.34960938 18.13484375 3.25390625 18.1915625 2.125 18.25 C1.03445312 18.29640625 -0.05609375 18.3428125 -1.1796875 18.390625 C-4.1332065 18.68846128 -4.1332065 18.68846128 -5.3828125 21.046875 C-5.58648437 21.69140625 -5.79015625 22.3359375 -6 23 C-6.66 22.67 -7.32 22.34 -8 22 C-8.73075648 19.6859378 -9.40138258 17.35171131 -10 15 C-9.34 14.34 -8.68 13.68 -8 13 C-7.41713687 10.48289476 -7.04756993 7.96407747 -6.66015625 5.41015625 C-5.55413019 1.37217943 -4.20975248 0 0 0 Z " fill="#FDD6B6" transform="translate(47,33)"/>
<path d="M0 0 C5.83779697 0.15041023 9.68773523 2.64710043 13.9375 6.5 C22.71590372 16.32657133 22.49152499 30.12342626 22.06787109 42.52880859 C21.8896799 45.22303282 21.41283011 47.84418733 20.9375 50.5 C20.5221624 57.85391867 21.23358199 65.18428071 21.9375 72.5 C23.4225 72.995 23.4225 72.995 24.9375 73.5 C25.2675 75.15 25.5975 76.8 25.9375 78.5 C25.2775 78.5 24.6175 78.5 23.9375 78.5 C23.834375 77.860625 23.73125 77.22125 23.625 76.5625 C23.398125 75.881875 23.17125 75.20125 22.9375 74.5 C21.4525 74.005 21.4525 74.005 19.9375 73.5 C19.70963542 71.44921875 19.48177083 69.3984375 19.25390625 67.34765625 C19.11863386 65.48859771 19.11863386 65.48859771 17.9375 64.5 C17.8379557 62.76661436 17.80669654 61.02920917 17.8046875 59.29296875 C17.80339844 58.23142578 17.80210938 57.16988281 17.80078125 56.07617188 C17.80464844 54.95791016 17.80851562 53.83964844 17.8125 52.6875 C17.80863281 51.58083984 17.80476563 50.47417969 17.80078125 49.33398438 C17.80207031 48.26857422 17.80335937 47.20316406 17.8046875 46.10546875 C17.80581543 45.12731201 17.80694336 44.14915527 17.80810547 43.14135742 C17.92499884 40.7551888 18.29973325 38.78818712 18.9375 36.5 C19.81557778 27.46834287 18.93589564 19.2752821 13.9375 11.5 C11.4707832 9.77388824 11.4707832 9.77388824 8.9375 8.5 C6.625 6.375 6.625 6.375 4.9375 4.5 C4.9375 4.17 4.9375 3.84 4.9375 3.5 C1.3075 3.17 -2.3225 2.84 -6.0625 2.5 C-3.74876509 0.18626509 -3.15855071 0.13369527 0 0 Z " fill="#625962" transform="translate(67.0625,5.5)"/>
<path d="M0 0 C0 6.27 0 12.54 0 19 C0.66 19.33 1.32 19.66 2 20 C1.34 21.32 0.68 22.64 0 24 C-1.65 24 -3.3 24 -5 24 C-5.81694231 21.29293656 -6.62866494 18.58448604 -7.4375 15.875 C-7.66759766 15.11445312 -7.89769531 14.35390625 -8.13476562 13.5703125 C-9.37636362 9.39566417 -10.39875379 5.32620837 -11 1 C-7.09145257 0.08034178 -4.17664661 0 0 0 Z " fill="#1C265B" transform="translate(16,76)"/>
<path d="M0 0 C3.11229797 4.66844696 3.36982993 9.01985371 2.3125 14.4375 C-0.4888975 25.11555409 -0.4888975 25.11555409 -5.19140625 28.64453125 C-7.43852678 29.95384867 -9.54703251 31.1334111 -12 32 C-12.66 31.67 -13.32 31.34 -14 31 C-12.71034824 29.62437146 -11.37310707 28.29233607 -10 27 C-9.34 27 -8.68 27 -8 27 C-8.21269531 26.46503906 -8.42539062 25.93007812 -8.64453125 25.37890625 C-9.1458823 22.02371077 -8.04278554 20.01838853 -6.6875 16.9375 C-6.23761719 15.89464844 -5.78773437 14.85179687 -5.32421875 13.77734375 C-4 11 -4 11 -2 8 C-1.33841957 5.95415921 -1.33841957 5.95415921 -0.875 3.8125 C-0.441875 1.9253125 -0.441875 1.9253125 0 0 Z " fill="#3C2F30" transform="translate(30,42)"/>
<path d="M0 0 C8.91 0 17.82 0 27 0 C27 0.66 27 1.32 27 2 C27.804375 1.979375 28.60875 1.95875 29.4375 1.9375 C32 2 32 2 33 3 C35.44830426 3.08843793 37.86820599 3.11528752 40.31640625 3.09765625 C41.04746078 3.0962413 41.77851532 3.09482635 42.53172302 3.09336853 C44.87535632 3.08775408 47.21889539 3.07519922 49.5625 3.0625 C51.14778508 3.05748686 52.73307166 3.05292363 54.31835938 3.04882812 C58.2122761 3.03777997 62.10612205 3.02050572 66 3 C66 3.66 66 4.32 66 5 C62.99305119 7.52061784 61.27402565 8.00029121 57.32421875 7.99609375 C55.77668687 7.82694771 54.23114376 7.63906696 52.6875 7.4375 C50.8438733 7.22937365 49.00010948 7.0224602 47.15625 6.81640625 C46.0734375 6.69023926 44.990625 6.56407227 43.875 6.43408203 C36.41108281 5.5979653 28.93411398 4.88616743 21.45986938 4.14920044 C16.9766745 3.70579127 12.49419813 3.25526305 8.01171875 2.8046875 C6.45402051 2.64827148 4.89632198 2.49185839 3.33862305 2.33544922 C2.23687744 2.22475098 1.13513184 2.11405273 0 2 C0 1.34 0 0.68 0 0 Z " fill="#B7B1BC" transform="translate(0,0)"/>
<path d="M0 0 C0.7734375 -0.00773437 1.546875 -0.01546875 2.34375 -0.0234375 C4.99824309 0.46706666 5.89704522 1.23263821 7.5 3.375 C7.6875 6.0625 7.6875 6.0625 7.5 8.375 C8.985 8.87 8.985 8.87 10.5 9.375 C10.5 11.685 10.5 13.995 10.5 16.375 C7.5 15.375 7.5 15.375 6.3125 13.5625 C5.5 11.375 5.5 11.375 5.5 7.375 C2.53 7.045 -0.44 6.715 -3.5 6.375 C-3.83 7.695 -4.16 9.015 -4.5 10.375 C-5.58667969 10.63023438 -5.58667969 10.63023438 -6.6953125 10.890625 C-12.40460951 12.32175545 -16.85336236 13.73304077 -21.5 17.375 C-22.16 17.045 -22.82 16.715 -23.5 16.375 C-13 7.375 -13 7.375 -9.5 7.375 C-9.231875 6.776875 -8.96375 6.17875 -8.6875 5.5625 C-6.46683686 1.47180474 -4.7360277 -0.04736028 0 0 Z " fill="#EEC19F" transform="translate(65.5,16.625)"/>
<path d="M0 0 C2.90596726 2.52692805 2.90596726 2.52692805 3.37890625 4.90625 C4.17110232 7.57679776 5.38935315 8.46806045 7.5 10.25 C10.30756105 12.89680091 11.49361001 14.57907166 11.9375 18.4375 C11.958125 19.613125 11.97875 20.78875 12 22 C12.99 22 13.98 22 15 22 C15 25.63 15 29.26 15 33 C14.34 32.67 13.68 32.34 13 32 C13.33 30.02 13.66 28.04 14 26 C13.34 26 12.68 26 12 26 C12 25.34 12 24.68 12 24 C11.01 24 10.02 24 9 24 C8.74476562 22.62714844 8.74476562 22.62714844 8.484375 21.2265625 C8.24203125 20.03804687 7.9996875 18.84953125 7.75 17.625 C7.51796875 16.44164063 7.2859375 15.25828125 7.046875 14.0390625 C6.30713529 10.89813187 6.30713529 10.89813187 3.890625 9.5859375 C2.95476563 9.29589844 2.95476563 9.29589844 2 9 C2 8.34 2 7.68 2 7 C1.34 7 0.68 7 0 7 C0.061875 8.03125 0.12375 9.0625 0.1875 10.125 C0.22233544 16.55794379 -1.53123679 22.77524163 -3 29 C-3.99 28.67 -4.98 28.34 -6 28 C-6.41812955 21.51899196 -5.57594966 17.34809077 -2.953125 11.4375 C-1.59410737 7.96197951 -1.33653459 4.70188047 -1 1 C-0.67 0.67 -0.34 0.34 0 0 Z " fill="#D7986A" transform="translate(37,58)"/>
<path d="M0 0 C14.52 0 29.04 0 44 0 C44.495 1.485 44.495 1.485 45 3 C37.84515384 4.15549841 30.71270003 4.1861479 23.48144531 4.18530273 C21.3728453 4.18750225 19.26475878 4.20574841 17.15625 4.22460938 C15.79948093 4.22754195 14.44270941 4.22952765 13.0859375 4.23046875 C11.8695459 4.23457764 10.6531543 4.23868652 9.39990234 4.24291992 C5.95074225 3.99648058 3.2148167 3.2390887 0 2 C0 1.34 0 0.68 0 0 Z " fill="#D2BEB6" transform="translate(27,0)"/>
<path d="M0 0 C0 0.99 0 1.98 0 3 C-2 5 -2 5 -5.125 5.125 C-6.07375 5.08375 -7.0225 5.0425 -8 5 C-8.03738281 5.99 -8.07476562 6.98 -8.11328125 8 C-8.44627257 15.1317897 -8.92217034 21.44288463 -12 28 C-15.63028129 28.33770059 -17.52706859 28.28595853 -20.6875 26.375 C-23.22009132 23.77396026 -24.56722316 21.31800953 -26 18 C-22.66666667 19.33333333 -19.33333333 20.66666667 -16 22 C-11.25829281 17.41634972 -10.83250147 12.25471501 -10 6 C-12.475 5.01 -12.475 5.01 -15 4 C-15 3.01 -15 2.02 -15 1 C-14.15308594 1.24169922 -14.15308594 1.24169922 -13.2890625 1.48828125 C-10.92146798 2.01755579 -8.79828425 2.16723843 -6.375 2.1875 C-5.59898438 2.20167969 -4.82296875 2.21585937 -4.0234375 2.23046875 C-1.77163007 2.18665836 -1.77163007 2.18665836 0 0 Z " fill="#3F3D50" transform="translate(65,72)"/>
<path d="M0 0 C1.32 0 2.64 0 4 0 C4 9.24 4 18.48 4 28 C2.02 27.67 0.04 27.34 -2 27 C-1.98839844 26.38253906 -1.97679688 25.76507813 -1.96484375 25.12890625 C-1.90301756 19.32607707 -2.17882266 13.74824138 -3 8 C-3.33 7.67 -3.66 7.34 -4 7 C-4 6.01 -4 5.02 -4 4 C-3.01 3.67 -2.02 3.34 -1 3 C-0.67 2.01 -0.34 1.02 0 0 Z " fill="#67523F" transform="translate(96,61)"/>
<path d="M0 0 C1.65 0 3.3 0 5 0 C5.28875 0.804375 5.5775 1.60875 5.875 2.4375 C6.73262568 5.1326468 6.73262568 5.1326468 9 6 C9.33 5.01 9.66 4.02 10 3 C13.3 2.34 16.6 1.68 20 1 C21.22811839 3.45623677 20.85726669 4.61425109 20.5625 7.3125 C20.41729561 9.73921585 20.41729561 9.73921585 21 12 C22.90330053 13.70295311 24.81296258 14.71854286 27.0859375 15.87109375 C29 17 29 17 30.5 19.8125 C30.7475 20.8953125 30.7475 20.8953125 31 22 C30.4225 21.814375 29.845 21.62875 29.25 21.4375 C27.03680625 20.82930802 27.03680625 20.82930802 25.0625 21.5625 C22.22437012 22.16452755 20.56799293 21.21266333 18 20 C18.01160156 19.43152344 18.02320312 18.86304687 18.03515625 18.27734375 C18.09223194 13.39329516 17.81956772 8.81496035 17 4 C15.35 4.33 13.7 4.66 12 5 C11.67 5.99 11.34 6.98 11 8 C9.02 8 7.04 8 5 8 C5 6.02 5 4.04 5 2 C3.35 2 1.7 2 0 2 C0 1.34 0 0.68 0 0 Z " fill="#171C3B" transform="translate(11,74)"/>
<path d="M0 0 C2.97 0 5.94 0 9 0 C9 0.66 9 1.32 9 2 C9.66 2 10.32 2 11 2 C11.25 9.625 11.25 9.625 9 13 C4.50202887 11.31326082 0.27113698 9.18326108 -4 7 C-4 5.68 -4 4.36 -4 3 C-2.68 3 -1.36 3 0 3 C0 2.01 0 1.02 0 0 Z " fill="#E9BB91" transform="translate(40,82)"/>
<path d="M0 0 C2 2 2 2 2 6 C4.31 6 6.62 6 9 6 C8.835 6.763125 8.67 7.52625 8.5 8.3125 C7.90854604 11.03596236 7.90854604 11.03596236 8 14 C7.67 14.99 7.34 15.98 7 17 C7.10970232 18.69215822 7.28205469 20.38085382 7.5 22.0625 C8.10968495 26.78063011 8.10968495 26.78063011 7 29 C5 27 5 27 4.5625 25.0625 C4.17671128 22.91554869 4.17671128 22.91554869 2.5078125 21.65625 C0.58028452 19.53896538 0.51692857 18.2677 0.3125 15.4375 C0.24804688 14.56222656 0.18359375 13.68695313 0.1171875 12.78515625 C-0.06224707 8.52059457 -0.08171049 4.26710327 0 0 Z " fill="#77604C" transform="translate(87,56)"/>
<path d="M0 0 C6.40593286 1.10690752 12.71363856 2.33945169 19 4 C19 3.34 19 2.68 19 2 C20.65 2 22.3 2 24 2 C23.3125 3.875 23.3125 3.875 22 6 C20.34183216 6.68753301 18.67540664 7.35561283 17 8 C16.67 8.99 16.34 9.98 16 11 C12.7 10.67 9.4 10.34 6 10 C5.67 8.68 5.34 7.36 5 6 C4.33131686 2.88667752 4.33131686 2.88667752 1.9375 1.8125 C1.298125 1.544375 0.65875 1.27625 0 1 C0 0.67 0 0.34 0 0 Z " fill="#A2463A" transform="translate(52,58)"/>
<path d="M0 0 C1.76462683 3.08809695 2 4.23312136 2 8 C-5.65606218 8.19355213 -12.66258031 8.3479743 -20 6 C-19.34 4.68 -18.68 3.36 -18 2 C-17.113125 2.020625 -16.22625 2.04125 -15.3125 2.0625 C-12.33905166 2.0063972 -9.8884115 1.63404155 -7 1 C-4.66822025 0.65596692 -2.33512959 0.32050798 0 0 Z " fill="#D0AFA0" transform="translate(27,36)"/>
<path d="M0 0 C2.97 0.33 5.94 0.66 9 1 C9.33 2.65 9.66 4.3 10 6 C7.69 6 5.38 6 3 6 C2.67 6.99 2.34 7.98 2 9 C3.65 9.33 5.3 9.66 7 10 C6.95117188 13.02734375 6.95117188 13.02734375 6.90234375 16.0546875 C6.87350758 18.08185404 6.87350758 18.08185404 8 20 C4.54798361 18.52278578 2.35038064 16.56205999 -0.25 13.875 C-0.95640625 13.15054688 -1.6628125 12.42609375 -2.390625 11.6796875 C-2.92171875 11.12539063 -3.4528125 10.57109375 -4 10 C-3.34 9.67 -2.68 9.34 -2 9 C-1.31270746 6.88153715 -1.31270746 6.88153715 -0.875 4.4375 C-0.58625 2.973125 -0.2975 1.50875 0 0 Z " fill="#F3B68B" transform="translate(44,52)"/>
<path d="M0 0 C0.33 0 0.66 0 1 0 C1.02714434 2.7084017 1.04690846 5.41652721 1.0625 8.125 C1.07087891 8.88554688 1.07925781 9.64609375 1.08789062 10.4296875 C1.10651803 14.75124488 0.78583137 18.73579879 0 23 C-0.4153376 30.35391867 0.29608199 37.68428071 1 45 C1.99 45.33 2.98 45.66 4 46 C4.33 47.65 4.66 49.3 5 51 C4.34 51 3.68 51 3 51 C2.896875 50.360625 2.79375 49.72125 2.6875 49.0625 C2.3471875 48.0415625 2.3471875 48.0415625 2 47 C1.01 46.67 0.02 46.34 -1 46 C-1.22786458 43.94921875 -1.45572917 41.8984375 -1.68359375 39.84765625 C-1.81886614 37.98859771 -1.81886614 37.98859771 -3 37 C-3.0995443 35.26661436 -3.13080346 33.52920917 -3.1328125 31.79296875 C-3.13410156 30.73142578 -3.13539062 29.66988281 -3.13671875 28.57617188 C-3.13285156 27.45791016 -3.12898438 26.33964844 -3.125 25.1875 C-3.12886719 24.08083984 -3.13273437 22.97417969 -3.13671875 21.83398438 C-3.13542969 20.76857422 -3.13414063 19.70316406 -3.1328125 18.60546875 C-3.13168457 17.62731201 -3.13055664 16.64915527 -3.12939453 15.64135742 C-3.01318955 13.26924108 -2.67586603 11.26754059 -2 9 C-1.34 9 -0.68 9 0 9 C0 6.03 0 3.06 0 0 Z " fill="#5F4035" transform="translate(88,33)"/>
<path d="M0 0 C0.721875 0.474375 1.44375 0.94875 2.1875 1.4375 C4.89475226 2.94152903 6.96194275 3.56599182 10 4 C10.125 11.75 10.125 11.75 9 14 C7.02 14 5.04 14 3 14 C3 14.66 3 15.32 3 16 C1.68 16 0.36 16 -1 16 C-1 15.01 -1 14.02 -1 13 C1.64 13 4.28 13 7 13 C7.33 10.36 7.66 7.72 8 5 C6.35 5 4.7 5 3 5 C2.34 6.98 1.68 8.96 1 11 C-0.65 11.33 -2.3 11.66 -4 12 C-4.33 11.01 -4.66 10.02 -5 9 C-6.32 9 -7.64 9 -9 9 C-9 8.34 -9 7.68 -9 7 C-6.03 7.33 -3.06 7.66 0 8 C0 5.36 0 2.72 0 0 Z " fill="#E19A7B" transform="translate(68,46)"/>
<path d="M0 0 C0.33 0 0.66 0 1 0 C2.1807744 4.61239998 2.0795917 9.03021223 2 13.75 C1.95444678 16.5059697 1.95266535 19.24275676 2 22 C2.33 22.33 2.66 22.66 3 23 C3.14115161 25.67058851 3.04247107 28.32432238 3 31 C4.32 31.33 5.64 31.66 7 32 C5.02 32.495 5.02 32.495 3 33 C3 34.32 3 35.64 3 37 C2.34 37 1.68 37 1 37 C0.11097088 30.95180188 -0.12348383 25.10776514 -0.0625 19 C-0.05798828 18.12988281 -0.05347656 17.25976562 -0.04882812 16.36328125 C-0.0371736 14.24215707 -0.01924357 12.1210689 0 10 C-0.66 10 -1.32 10 -2 10 C-2.17942163 6.05272412 -2.09350689 3.4019487 0 0 Z " fill="#492B23" transform="translate(84,48)"/>
<path d="M0 0 C3.7080061 -0.28329418 7.30093402 -0.44192381 11 0 C14.05032323 3.13747533 14 4.59852959 14 9 C9.6274154 9.42868476 7.68919119 9.55135295 4.1875 6.75 C2.38589715 4.48512785 1.21816587 2.57964538 0 0 Z " fill="#C7CDE1" transform="translate(79,9)"/>
<path d="M0 0 C0.66 0 1.32 0 2 0 C2 1.65 2 3.3 2 5 C3.65 5 5.3 5 7 5 C7.125 7.875 7.125 7.875 7 11 C6.34 11.66 5.68 12.32 5 13 C4.54188325 14.97235333 4.54188325 14.97235333 4.375 17.125 C4.25125 18.40375 4.1275 19.6825 4 21 C3.67 21 3.34 21 3 21 C3 18.69 3 16.38 3 14 C1.68 13.67 0.36 13.34 -1 13 C-1.66 9.37 -2.32 5.74 -3 2 C-2.01 2.33 -1.02 2.66 0 3 C0 2.01 0 1.02 0 0 Z " fill="#D2A792" transform="translate(33,35)"/>
<path d="M0 0 C2.32590854 3.63423209 2.16265833 6.77088331 2 11 C-1.3 11 -4.6 11 -8 11 C-8 8.03 -8 5.06 -8 2 C-5.36 2 -2.72 2 0 2 C0 1.34 0 0.68 0 0 Z " fill="#B39E92" transform="translate(98,36)"/>
<path d="M0 0 C0 0.66 0 1.32 0 2 C4.29 2.33 8.58 2.66 13 3 C13 2.34 13 1.68 13 1 C14.65 1.66 16.3 2.32 18 3 C17.67 3.66 17.34 4.32 17 5 C6.39903647 5.17766978 -4.61220769 5.34563052 -15 3 C-15 2.01 -15 1.02 -15 0 C-9.96266834 -1.5111995 -5.11828973 -0.64599773 0 0 Z " fill="#D3CCD7" transform="translate(15,30)"/>
<path d="M0 0 C0.66 0 1.32 0 2 0 C1.87431641 1.37285156 1.87431641 1.37285156 1.74609375 2.7734375 C1.64425781 3.96195313 1.54242188 5.15046875 1.4375 6.375 C1.33308594 7.55835938 1.22867188 8.74171875 1.12109375 9.9609375 C0.75846404 12.91898631 0.75846404 12.91898631 2 15 C4.32156597 15.40729228 6.6568787 15.74438677 9 16 C9 16.33 9 16.66 9 17 C7.72125 17.0825 6.4425 17.165 5.125 17.25 C2.94666582 17.45869931 2.94666582 17.45869931 1 18 C-0.5899433 19.92064793 -0.5899433 19.92064793 -1 22 C-1.66 21.67 -2.32 21.34 -3 21 C-3.73075648 18.6859378 -4.40138258 16.35171131 -5 14 C-4.34 13.34 -3.68 12.68 -3 12 C-2.35644659 9.63964943 -2.35644659 9.63964943 -1.9375 7 C-1.0896861 2.1793722 -1.0896861 2.1793722 0 0 Z " fill="#F9CCAA" transform="translate(42,34)"/>
<path d="M0 0 C0.66 0.33 1.32 0.66 2 1 C2.33 6.94 2.66 12.88 3 19 C1.68 19.33 0.36 19.66 -1 20 C-1.33 20.66 -1.66 21.32 -2 22 C-2 21.01 -2 20.02 -2 19 C-3.65 19 -5.3 19 -7 19 C-6.01 19.99 -5.02 20.98 -4 22 C-4.33 22.99 -4.66 23.98 -5 25 C-6.32 24.01 -7.64 23.02 -9 22 C-8.6875 19.125 -8.6875 19.125 -8 16 C-5 14 -5 14 0 13 C0 8.71 0 4.42 0 0 Z " fill="#A46E5A" transform="translate(77,24)"/>
<path d="M0 0 C2.475 0.495 2.475 0.495 5 1 C5.125 6.75 5.125 6.75 4 9 C1.36 9 -1.28 9 -4 9 C-4 9.66 -4 10.32 -4 11 C-8.34464536 10.39174965 -12.67551867 9.73832608 -17 9 C-17 8.67 -17 8.34 -17 8 C-14.69 8 -12.38 8 -10 8 C-10.33 7.01 -10.66 6.02 -11 5 C-10.01 5 -9.02 5 -8 5 C-7.67 5.66 -7.34 6.32 -7 7 C-5.35 6.67 -3.7 6.34 -2 6 C-1.34 4.02 -0.68 2.04 0 0 Z " fill="#F0A98B" transform="translate(71,50)"/>
<path d="M0 0 C6.97048136 0.85849678 13.75362275 1.93401395 19 7 C19 7.99 19 8.98 19 10 C18.443125 9.54625 17.88625 9.0925 17.3125 8.625 C14.94686561 6.96266232 12.70984342 5.97855457 10 5 C11.14876686 8.44630058 12.19140915 8.91620679 15 11 C15 11.66 15 12.32 15 13 C15.66 13.33 16.32 13.66 17 14 C12.30180622 14 11.79436746 13.34129002 8.5 10.25 C7.7471875 9.55390625 6.994375 8.8578125 6.21875 8.140625 C5.4865625 7.43421875 4.754375 6.7278125 4 6 C3.2471875 5.29359375 2.494375 4.5871875 1.71875 3.859375 C0 2 0 2 0 0 Z " fill="#262B44" transform="translate(62,9)"/>
<path d="M0 0 C2.31 0.33 4.62 0.66 7 1 C7 2.32 7 3.64 7 5 C7.33 5.66 7.66 6.32 8 7 C7.67 7.66 7.34 8.32 7 9 C9.64 9.33 12.28 9.66 15 10 C15 10.33 15 10.66 15 11 C10.05 11 5.1 11 0 11 C0 7.37 0 3.74 0 0 Z " fill="#C3A799" transform="translate(0,33)"/>
<path d="M0 0 C1.32 0 2.64 0 4 0 C4 2.31 4 4.62 4 7 C4.66 7 5.32 7 6 7 C6 6.34 6 5.68 6 5 C7.65 4.67 9.3 4.34 11 4 C11.33 5.65 11.66 7.3 12 9 C9.35541621 10.32229189 7.32238699 10.09677194 4.375 10.0625 C3.37210938 10.05347656 2.36921875 10.04445313 1.3359375 10.03515625 C0.56507812 10.02355469 -0.20578125 10.01195313 -1 10 C-1.125 3.375 -1.125 3.375 0 0 Z " fill="#1D296A" transform="translate(17,83)"/>
<path d="M0 0 C9.9 0 19.8 0 30 0 C29.34 1.32 28.68 2.64 28 4 C14.14 3.505 14.14 3.505 0 3 C0 2.01 0 1.02 0 0 Z " fill="#9F9CA0" transform="translate(0,44)"/>
<path d="M0 0 C7.26 0 14.52 0 22 0 C21.67 1.65 21.34 3.3 21 5 C15.18963963 6.30436661 12.32501499 5.47232839 7 3 C4.67810464 2.5945897 2.34484656 2.23927006 0 2 C0 1.34 0 0.68 0 0 Z " fill="#AC785A" transform="translate(1,59)"/>
<path d="M0 0 C0.33 0.66 0.66 1.32 1 2 C1.66 2 2.32 2 3 2 C3.33 3.32 3.66 4.64 4 6 C1.195261 7.23738485 -1.20370679 8.03133951 -4.25 8.5 C-5.1575 8.665 -6.065 8.83 -7 9 C-7.33 9.66 -7.66 10.32 -8 11 C-8.99 10.67 -9.98 10.34 -11 10 C-11.33 8.35 -11.66 6.7 -12 5 C-9.36 3.68 -6.72 2.36 -4 1 C-4.33 2.32 -4.66 3.64 -5 5 C-4.01 5 -3.02 5 -2 5 C-2 4.01 -2 3.02 -2 2 C-1.34 2 -0.68 2 0 2 C0 1.34 0 0.68 0 0 Z " fill="#1B181B" transform="translate(28,69)"/>
<path d="M0 0 C0.7528125 0.01546875 1.505625 0.0309375 2.28125 0.046875 C4.44678285 0.24512801 6.41000485 0.66100137 8.5 1.25 C8.17 2.24 7.84 3.23 7.5 4.25 C6.30375 4.146875 5.1075 4.04375 3.875 3.9375 C-1.11654078 3.89324875 -2.97993402 5.89755621 -6.5 9.25 C-7.16 9.25 -7.82 9.25 -8.5 9.25 C-7.84 7.93 -7.18 6.61 -6.5 5.25 C-9.40802461 7.46928194 -11.45312762 9.17969143 -13.5 12.25 C-14.16 11.92 -14.82 11.59 -15.5 11.25 C-14.42173635 9.97486237 -13.33714481 8.70507431 -12.25 7.4375 C-11.64671875 6.72980469 -11.0434375 6.02210937 -10.421875 5.29296875 C-7.1084906 1.7708142 -4.96107599 -0.16989986 0 0 Z " fill="#48587C" transform="translate(52.5,6.75)"/>
<path d="M0 0 C0.33 0 0.66 0 1 0 C1 4.29 1 8.58 1 13 C4.3 13 7.6 13 11 13 C11 14.65 11 16.3 11 18 C9.3603125 18.2165625 9.3603125 18.2165625 7.6875 18.4375 C4.06877013 18.88288104 4.06877013 18.88288104 1 20 C0 19 0 19 -0.11352539 17.14233398 C-0.10828857 16.35157471 -0.10305176 15.56081543 -0.09765625 14.74609375 C-0.09443359 13.89208984 -0.09121094 13.03808594 -0.08789062 12.15820312 C-0.07951172 11.26037109 -0.07113281 10.36253906 -0.0625 9.4375 C-0.05798828 8.53580078 -0.05347656 7.63410156 -0.04882812 6.70507812 C-0.03700225 4.46998686 -0.0205222 2.23502563 0 0 Z " fill="#806C60" transform="translate(89,34)"/>
<path d="M0 0 C0.33 0 0.66 0 1 0 C1.40846396 9.95441792 0.46481617 18.34613668 -2 28 C-2.99 27.67 -3.98 27.34 -5 27 C-5.41802376 20.52063176 -4.57462676 16.35180742 -1.95703125 10.44140625 C-0.58819073 6.94946615 -0.27603492 3.72647146 0 0 Z " fill="#A77B58" transform="translate(36,59)"/>
<path d="M0 0 C-0.55260426 3.31562557 -1.16825705 6.15062207 -3 9 C-3.99 9.33 -4.98 9.66 -6 10 C-6 9.34 -6 8.68 -6 8 C-6.66 8 -7.32 8 -8 8 C-8 7.34 -8 6.68 -8 6 C-8.66 6 -9.32 6 -10 6 C-10.33 4.35 -10.66 2.7 -11 1 C-7.26562152 0.12132271 -3.83225427 -0.08912219 0 0 Z " fill="#1A398B" transform="translate(16,76)"/>
<path d="M0 0 C0 0.66 0 1.32 0 2 C-2.33808422 4.14783325 -4.19666977 4.98237516 -7.38134766 5.05224609 C-10.20697095 4.84636539 -13.00151651 4.54052479 -15.8125 4.1875 C-16.79154297 4.07857422 -17.77058594 3.96964844 -18.77929688 3.85742188 C-21.18842713 3.58712921 -23.59453116 3.30088218 -26 3 C-23.49125715 0.49125715 -22.53727908 0.70745506 -19.0625 0.5859375 C-18.08539063 0.54726563 -17.10828125 0.50859375 -16.1015625 0.46875 C-14.56628906 0.42234375 -14.56628906 0.42234375 -13 0.375 C-11.97648437 0.33632813 -10.95296875 0.29765625 -9.8984375 0.2578125 C-2.91908482 0 -2.91908482 0 0 0 Z " fill="#BDB9C4" transform="translate(66,3)"/>
<path d="M0 0 C0 0.99 0 1.98 0 3 C-2 5 -2 5 -5.125 5.125 C-6.07375 5.08375 -7.0225 5.0425 -8 5 C-8.03738281 5.84304687 -8.07476562 6.68609375 -8.11328125 7.5546875 C-8.17902344 8.65039062 -8.24476562 9.74609375 -8.3125 10.875 C-8.37050781 11.96554688 -8.42851563 13.05609375 -8.48828125 14.1796875 C-8.65714844 15.11039063 -8.82601562 16.04109375 -9 17 C-9.99 17.66 -10.98 18.32 -12 19 C-11.34 14.71 -10.68 10.42 -10 6 C-12.475 5.01 -12.475 5.01 -15 4 C-15 3.01 -15 2.02 -15 1 C-14.43539062 1.16113281 -13.87078125 1.32226562 -13.2890625 1.48828125 C-10.92146798 2.01755579 -8.79828425 2.16723843 -6.375 2.1875 C-5.59898438 2.20167969 -4.82296875 2.21585937 -4.0234375 2.23046875 C-1.77163007 2.18665836 -1.77163007 2.18665836 0 0 Z " fill="#38251D" transform="translate(65,72)"/>
<path d="M0 0 C0.66 0 1.32 0 2 0 C2 0.66 2 1.32 2 2 C3.8871875 2.0309375 3.8871875 2.0309375 5.8125 2.0625 C6.52019531 2.07410156 7.22789063 2.08570313 7.95703125 2.09765625 C10.20305461 2.08263217 10.20305461 2.08263217 13 1 C15.06145107 0.931009 17.12501401 0.91532273 19.1875 0.9375 C20.81751953 0.95103516 20.81751953 0.95103516 22.48046875 0.96484375 C23.31191406 0.97644531 24.14335937 0.98804688 25 1 C24.34 2.32 23.68 3.64 23 5 C15.41 5 7.82 5 0 5 C0 3.35 0 1.7 0 0 Z " fill="#866953" transform="translate(0,55)"/>
<path d="M0 0 C0.33 0 0.66 0 1 0 C1 1.65 1 3.3 1 5 C1.99 5.33 2.98 5.66 4 6 C4.66 4.68 5.32 3.36 6 2 C7.45823212 1.9729957 8.91660675 1.95360213 10.375 1.9375 C11.18710937 1.92589844 11.99921875 1.91429687 12.8359375 1.90234375 C15 2 15 2 17 3 C17.72693904 4.97888961 18.39816251 6.97954558 19 9 C18.01 8.67 17.02 8.34 16 8 C16 6.68 16 5.36 16 4 C13.03 3.67 10.06 3.34 7 3 C7.04125 3.928125 7.0825 4.85625 7.125 5.8125 C7 9 7 9 5 12 C1.125 10.125 1.125 10.125 0 9 C-0.07179964 7.48071962 -0.08392007 5.95832518 -0.0625 4.4375 C-0.05347656 3.61121094 -0.04445312 2.78492188 -0.03515625 1.93359375 C-0.02355469 1.29550781 -0.01195312 0.65742187 0 0 Z " fill="#F9C099" transform="translate(37,49)"/>
<path d="M0 0 C3.375 -0.1875 3.375 -0.1875 7 0 C9.1519437 3.22791555 9.20086443 4.28400809 9 8 C6.36 8 3.72 8 1 8 C0.67 5.36 0.34 2.72 0 0 Z " fill="#D0CBCD" transform="translate(89,30)"/>
<path d="M0 0 C1.31722179 0.42307123 2.62872664 0.86397486 3.9375 1.3125 C4.66839844 1.55613281 5.39929688 1.79976562 6.15234375 2.05078125 C8 3 8 3 9 6 C5.37 5.67 1.74 5.34 -2 5 C-2 5.99 -2 6.98 -2 8 C-1.01 8.33 -0.02 8.66 1 9 C1 10.32 1 11.64 1 13 C0.34 13 -0.32 13 -1 13 C-1 12.34 -1 11.68 -1 11 C-1.66 11 -2.32 11 -3 11 C-3.75 7.75 -3.75 7.75 -4 4 C-2.0625 1.5625 -2.0625 1.5625 0 0 Z " fill="#E9B494" transform="translate(52,31)"/>
<path d="M0 0 C5.38304985 1.16104997 8.57021175 2.39122204 12 7 C11.8125 9.8125 11.8125 9.8125 11 12 C10.01 12 9.02 12 8 12 C8 11.34 8 10.68 8 10 C7.34 9.67 6.68 9.34 6 9 C0.44277108 3.98493976 0.44277108 3.98493976 0 0 Z " fill="#1C1D2C" transform="translate(72,14)"/>
<path d="M0 0 C1.98 0 3.96 0 6 0 C6.66 3.3 7.32 6.6 8 10 C5.03 9.505 5.03 9.505 2 9 C2 8.01 2 7.02 2 6 C1.360625 5.87625 0.72125 5.7525 0.0625 5.625 C-0.618125 5.41875 -1.29875 5.2125 -2 5 C-2.33 4.34 -2.66 3.68 -3 3 C-2.01 2.67 -1.02 2.34 0 2 C0 1.34 0 0.68 0 0 Z " fill="#C6B5AA" transform="translate(83,0)"/>
<path d="M0 0 C2.375 0.375 2.375 0.375 5 2 C6.71200654 6.67509479 7.54070648 11.19924794 6 16 C4 14 4 14 3.5625 12.0625 C3.18333795 9.90105571 3.18333795 9.90105571 1.4375 8.6875 C-0.83738543 6.01698232 -0.19045839 3.36476492 0 0 Z " fill="#BCA38A" transform="translate(88,69)"/>
<path d="M0 0 C3.96 0 7.92 0 12 0 C10 3 10 3 7 5 C7 5.99 7 6.98 7 8 C5.35 8 3.7 8 2 8 C0 2.25 0 2.25 0 0 Z " fill="#C5B6AD" transform="translate(3,69)"/>
<path d="M0 0 C3.3 0 6.6 0 10 0 C10.625 2.375 10.625 2.375 11 5 C10.34 5.66 9.68 6.32 9 7 C5.375 6.625 5.375 6.625 2 6 C1.34 4.02 0.68 2.04 0 0 Z " fill="#AE725E" transform="translate(51,38)"/>
<path d="M0 0 C0.7734375 -0.01933594 1.546875 -0.03867187 2.34375 -0.05859375 C4.5 0.4375 4.5 0.4375 7.5 4.4375 C4.2 4.1075 0.9 3.7775 -2.5 3.4375 C-2.83 4.22125 -3.16 5.005 -3.5 5.8125 C-6.3827217 9.59607223 -8.89434793 9.60697258 -13.5 10.4375 C-12.84 9.4475 -12.18 8.4575 -11.5 7.4375 C-10.84 7.4375 -10.18 7.4375 -9.5 7.4375 C-9.231875 6.839375 -8.96375 6.24125 -8.6875 5.625 C-6.47554076 1.55033824 -4.71813947 0.00786357 0 0 Z " fill="#AF836F" transform="translate(65.5,16.5625)"/>
<path d="M0 0 C0.99 0.33 1.98 0.66 3 1 C2.34 1 1.68 1 1 1 C1 1.66 1 2.32 1 3 C1.66 3.33 2.32 3.66 3 4 C1.96875 4.391875 0.9375 4.78375 -0.125 5.1875 C-4.06489676 6.85653977 -6.83517421 9.1439377 -10 12 C-10.66 10.35 -11.32 8.7 -12 7 C-8.42118837 4.50315468 -5.08872335 2.51866867 -1 1 C-0.67 0.67 -0.34 0.34 0 0 Z " fill="#272E51" transform="translate(54,12)"/>
<path d="M0 0 C8.23427332 0.79175705 8.23427332 0.79175705 11 4 C11.25 7.1875 11.25 7.1875 11 10 C10.01 10.495 10.01 10.495 9 11 C8.34 10.01 7.68 9.02 7 8 C4.56306689 7.63583953 4.56306689 7.63583953 1.875 7.8125 C0.96492188 7.83957031 0.05484375 7.86664063 -0.8828125 7.89453125 C-1.58148438 7.92933594 -2.28015625 7.96414062 -3 8 C-3 7.01 -3 6.02 -3 5 C0.3 5 3.6 5 7 5 C7 4.34 7 3.68 7 3 C4.69 2.34 2.38 1.68 0 1 C0 0.67 0 0.34 0 0 Z " fill="#B68368" transform="translate(53,31)"/>
<path d="M0 0 C0.66 0.33 1.32 0.66 2 1 C1.3503125 1.5259375 1.3503125 1.5259375 0.6875 2.0625 C-1.24622784 4.06770913 -1.24622784 4.06770913 -2.375 7.4375 C-4.11099496 11.24333511 -5.48782084 12.80488802 -9 15 C-9.99 15 -10.98 15 -12 15 C-11.34 13.02 -10.68 11.04 -10 9 C-9.01 9 -8.02 9 -7 9 C-6.773125 8.443125 -6.54625 7.88625 -6.3125 7.3125 C-4.64103234 4.36753316 -2.44723648 2.31843456 0 0 Z " fill="#3B456B" transform="translate(46,10)"/>
<path d="M0 0 C2.64 0 5.28 0 8 0 C7.67 2.64 7.34 5.28 7 8 C4.03 7.01 1.06 6.02 -2 5 C-1.34 3.35 -0.68 1.7 0 0 Z " fill="#F2CDA2" transform="translate(41,85)"/>
<path d="M0 0 C0 0.66 0 1.32 0 2 C-0.66 2 -1.32 2 -2 2 C-2.66 3.32 -3.32 4.64 -4 6 C-5.65 6 -7.3 6 -9 6 C-9.33 6.66 -9.66 7.32 -10 8 C-10.33 6.68 -10.66 5.36 -11 4 C-9.35 3.34 -7.7 2.68 -6 2 C-9.63 1.67 -13.26 1.34 -17 1 C-17 0.67 -17 0.34 -17 0 C-14.9174133 -0.19561869 -12.83388144 -0.38119313 -10.75 -0.5625 C-9.58984375 -0.66691406 -8.4296875 -0.77132812 -7.234375 -0.87890625 C-4.48128523 -0.98198087 -2.580018 -0.86213473 0 0 Z " fill="#9A796B" transform="translate(20,68)"/>
<path d="M0 0 C2 3 2 3 2 6 C-1.63 6 -5.26 6 -9 6 C-8.67 5.01 -8.34 4.02 -8 3 C-8.66 2.67 -9.32 2.34 -10 2 C-8.7090864 1.66376204 -7.41723903 1.33110751 -6.125 1 C-5.40570312 0.814375 -4.68640625 0.62875 -3.9453125 0.4375 C-2 0 -2 0 0 0 Z " fill="#D6B9AA" transform="translate(27,38)"/>
<path d="M0 0 C0.66 0.33 1.32 0.66 2 1 C2 1.66 2 2.32 2 3 C2.99 3.33 3.98 3.66 5 4 C5 5.32 5 6.64 5 8 C2.36 8.33 -0.28 8.66 -3 9 C-3 8.01 -3 7.02 -3 6 C-3.99 5.67 -4.98 5.34 -6 5 C-4.68 5 -3.36 5 -2 5 C-2 3.68 -2 2.36 -2 1 C-1.34 0.67 -0.68 0.34 0 0 Z " fill="#F8C7A1" transform="translate(71,29)"/>
<path d="M0 0 C0.66 0.99 1.32 1.98 2 3 C1.5625 5.0625 1.5625 5.0625 1 7 C1.33 7.66 1.66 8.32 2 9 C0.35 10.98 -1.3 12.96 -3 15 C-3.66 14.67 -4.32 14.34 -5 14 C-4.54636829 12.41531323 -4.08688548 10.83230076 -3.625 9.25 C-3.36976562 8.36828125 -3.11453125 7.4865625 -2.8515625 6.578125 C-2.0790066 4.23919428 -1.16374324 2.16557438 0 0 Z " fill="#553834" transform="translate(26,53)"/>
<path d="M0 0 C1.65 0 3.3 0 5 0 C5.28875 0.804375 5.5775 1.60875 5.875 2.4375 C6.73262568 5.1326468 6.73262568 5.1326468 9 6 C9.33 5.01 9.66 4.02 10 3 C11.84765625 2.26953125 11.84765625 2.26953125 14.0625 1.8125 C14.79597656 1.65394531 15.52945312 1.49539062 16.28515625 1.33203125 C16.85105469 1.22246094 17.41695312 1.11289063 18 1 C17.67 1.99 17.34 2.98 17 4 C15.35 4.33 13.7 4.66 12 5 C11.67 5.99 11.34 6.98 11 8 C9.02 8 7.04 8 5 8 C5 6.02 5 4.04 5 2 C3.35 2 1.7 2 0 2 C0 1.34 0 0.68 0 0 Z " fill="#1B2142" transform="translate(11,74)"/>
<path d="M0 0 C0.99 0.33 1.98 0.66 3 1 C1.02897557 6.65027004 -1.90613905 8.51117811 -6.94140625 11.21484375 C-7.62074219 11.47394531 -8.30007812 11.73304687 -9 12 C-9.66 11.67 -10.32 11.34 -11 11 C-8.71552977 8.62766553 -6.36609958 6.44864593 -3.8125 4.375 C-0.98963873 2.30830705 -0.98963873 2.30830705 0 0 Z " fill="#2C2426" transform="translate(27,62)"/>
<path d="M0 0 C7.75 0.875 7.75 0.875 10 2 C10 3.32 10 4.64 10 6 C10.99 6.33 11.98 6.66 13 7 C13 9.31 13 11.62 13 14 C10 13 10 13 8.875 11.375 C7.73829667 8.28966239 7.37579744 5.25691115 7 2 C4.69 1.67 2.38 1.34 0 1 C0 0.67 0 0.34 0 0 Z " fill="#EBB491" transform="translate(63,19)"/>
<path d="M0 0 C0.33 0 0.66 0 1 0 C1.80947706 3.56817487 2.16206411 6.90481856 2.1875 10.5625 C2.20167969 11.49191406 2.21585937 12.42132813 2.23046875 13.37890625 C2 16 2 16 0 20 C0 16.7 0 13.4 0 10 C-0.66 10 -1.32 10 -2 10 C-2.17942163 6.05272412 -2.09350689 3.4019487 0 0 Z " fill="#402620" transform="translate(84,48)"/>
<path d="M0 0 C4.85042388 0.41575062 6.84319505 2.41659978 10 6 C10.99 7.485 10.99 7.485 12 9 C11.01 9.33 10.02 9.66 9 10 C8.34 8.68 7.68 7.36 7 6 C5.02 6 3.04 6 1 6 C1 5.34 1 4.68 1 4 C0.34 4 -0.32 4 -1 4 C-0.67 2.68 -0.34 1.36 0 0 Z " fill="#F9B392" transform="translate(47,57)"/>
<path d="M0 0 C1.32 0.33 2.64 0.66 4 1 C1.125 5.875 1.125 5.875 0 7 C-1.47648876 7.09823996 -2.95775417 7.12973519 -4.4375 7.125 C-5.24058594 7.12757812 -6.04367188 7.13015625 -6.87109375 7.1328125 C-9 7 -9 7 -11 6 C-11 5.34 -11 4.68 -11 4 C-7.04 4 -3.08 4 1 4 C0.67 2.68 0.34 1.36 0 0 Z " fill="#CA9076" transform="translate(63,68)"/>
<path d="M0 0 C0.66 0 1.32 0 2 0 C3.38190483 8.60889361 3.30511248 17.18903644 -1 25 C-1.66 25 -2.32 25 -3 25 C-2.55709015 22.41635919 -2.09070675 20.19240827 -0.96875 17.8125 C0.26248126 14.23795765 0.21774356 10.91507784 0.125 7.1875 C0.11146484 6.14819336 0.11146484 6.14819336 0.09765625 5.08789062 C0.07426157 3.39177605 0.03839641 1.69584129 0 0 Z " fill="#27190B" transform="translate(34,49)"/>
<path d="M0 0 C2.62277342 5.24554685 4.35861008 10.08293364 4 16 C3.34 16.33 2.68 16.66 2 17 C1.34 16.67 0.68 16.34 0 16 C0 10.72 0 5.44 0 0 Z " fill="#211915" transform="translate(0,60)"/>
<path d="M0 0 C0.66 0 1.32 0 2 0 C3.27947184 6.65941972 2.81115003 10.81546992 0 17 C-0.99 16.67 -1.98 16.34 -3 16 C-2.68817931 14.58318366 -2.37551263 13.16655349 -2.0625 11.75 C-1.88847656 10.96109375 -1.71445312 10.1721875 -1.53515625 9.359375 C-1.19579368 7.86320716 -0.8314538 6.37231071 -0.43359375 4.890625 C0.1117678 2.83593675 0.1117678 2.83593675 0 0 Z " fill="#1E1C1C" transform="translate(32,49)"/>
<path d="M0 0 C3.71599191 -0.20086443 4.77208445 -0.1519437 8 2 C9.43554259 5.52360453 9.07207703 9.25199465 9 13 C8.67 13 8.34 13 8 13 C8 11.02 8 9.04 8 7 C6.35 7 4.7 7 3 7 C2.67 6.34 2.34 5.68 2 5 C2.33 4.34 2.66 3.68 3 3 C2.01 2.67 1.02 2.34 0 2 C0 1.34 0 0.68 0 0 Z " fill="#5E372B" transform="translate(70,43)"/>
<path d="M0 0 C2.109375 0.41796875 2.109375 0.41796875 4 1 C0.40150545 5.54278036 -2.93578319 9.12260408 -8 12 C-8.66 12 -9.32 12 -10 12 C-10 11.01 -10 10.02 -10 9 C-9.01 8.67 -8.02 8.34 -7 8 C-6.34 7.01 -5.68 6.02 -5 5 C-4.34 5 -3.68 5 -3 5 C-3 4.34 -3 3.68 -3 3 C-1.75 1.3125 -1.75 1.3125 0 0 Z " fill="#423233" transform="translate(58,16)"/>
<path d="M0 0 C1.65 0 3.3 0 5 0 C5 0.66 5 1.32 5 2 C5.87011719 1.96519531 5.87011719 1.96519531 6.7578125 1.9296875 C11.61411166 1.81749577 15.42932395 2.12485085 20 4 C20 4.33 20 4.66 20 5 C18.89140625 4.91621094 17.7828125 4.83242187 16.640625 4.74609375 C15.17710672 4.64289695 13.71356369 4.54005074 12.25 4.4375 C11.15558594 4.35338867 11.15558594 4.35338867 10.0390625 4.26757812 C6.45046349 4.02290092 3.44972775 4.00333741 0 5 C0 3.35 0 1.7 0 0 Z " fill="#BCA29B" transform="translate(0,11)"/>
<path d="M0 0 C1.65 0.99 3.3 1.98 5 3 C5 2.01 5 1.02 5 0 C5.66 0 6.32 0 7 0 C6.125 5.75 6.125 5.75 5 8 C1.9375 8.625 1.9375 8.625 -1 9 C-0.67 6.03 -0.34 3.06 0 0 Z " fill="#493A41" transform="translate(35,32)"/>
<path d="M0 0 C2.7294586 0.14143832 5.45848123 0.28799529 8.1875 0.4375 C8.95642578 0.47681641 9.72535156 0.51613281 10.51757812 0.55664062 C14.43251075 0.77507034 18.17120688 1.08692108 22 2 C21.67 2.66 21.34 3.32 21 4 C16.07052311 4.10150789 11.43466881 3.74242572 6.5625 3 C4.70818359 2.7215625 4.70818359 2.7215625 2.81640625 2.4375 C1.88699219 2.293125 0.95757812 2.14875 0 2 C0 1.34 0 0.68 0 0 Z " fill="#BFADAD" transform="translate(5,11)"/>
<path d="M0 0 C4.38332057 0.82187261 8.67940177 1.90154282 13 3 C13 3.66 13 4.32 13 5 C10.69 5.33 8.38 5.66 6 6 C6 6.66 6 7.32 6 8 C5.34 8 4.68 8 4 8 C3.855625 7.401875 3.71125 6.80375 3.5625 6.1875 C3.1127561 4.43849596 2.57107659 2.71322977 2 1 C1.34 0.67 0.68 0.34 0 0 Z " fill="#D85C5C" transform="translate(54,60)"/>
<path d="M0 0 C3.98542514 1.36643148 6.92539863 3.10109014 10 6 C10 6.99 10 7.98 10 9 C7 9 7 9 4.4375 6.75 C2.42724922 4.48202476 1.12774794 2.76810859 0 0 Z " fill="#494853" transform="translate(39,90)"/>
<path d="M0 0 C2.28804937 1.65883579 3.56463437 2.62283307 5 5 C5.44207004 8.70298665 5.29251428 12.28831877 5 16 C3.35 16.33 1.7 16.66 0 17 C0.99 16.67 1.98 16.34 3 16 C2.88648483 14.18674449 2.75887039 12.37436643 2.625 10.5625 C2.55539063 9.55316406 2.48578125 8.54382813 2.4140625 7.50390625 C2.27742188 6.67761719 2.14078125 5.85132813 2 5 C1.34 4.67 0.68 4.34 0 4 C0 2.68 0 1.36 0 0 Z " fill="#CA9477" transform="translate(73,21)"/>
<path d="M0 0 C2.64 0.33 5.28 0.66 8 1 C8 1.33 8 1.66 8 2 C6.35 2.33 4.7 2.66 3 3 C3 3.66 3 4.32 3 5 C4.98 5.66 6.96 6.32 9 7 C9 7.33 9 7.66 9 8 C6.03 8 3.06 8 0 8 C0 5.36 0 2.72 0 0 Z " fill="#BFC6DB" transform="translate(0,3)"/>
<path d="M0 0 C0.66 0 1.32 0 2 0 C1.40380045 4.86896303 0.43023178 9.32790951 -1 14 C-2.32 14.33 -3.64 14.66 -5 15 C-4.34 14.01 -3.68 13.02 -3 12 C-2.58499615 10.32642237 -2.23515411 8.63587932 -1.9375 6.9375 C-1.09339408 2.18678815 -1.09339408 2.18678815 0 0 Z " fill="#EFCCBB" transform="translate(42,34)"/>
<path d="M0 0 C0.66 0 1.32 0 2 0 C1.67 1.98 1.34 3.96 1 6 C1.66 6 2.32 6 3 6 C3 6.66 3 7.32 3 8 C2.01 8.495 2.01 8.495 1 9 C0.34 10.32 -0.32 11.64 -1 13 C-1.66 9.37 -2.32 5.74 -3 2 C-2.01 2.33 -1.02 2.66 0 3 C0 2.01 0 1.02 0 0 Z " fill="#E9B698" transform="translate(33,35)"/>
<path d="M0 0 C1.98 0 3.96 0 6 0 C6.33 0.99 6.66 1.98 7 3 C8.32848691 4.00642948 9.66150329 5.00692179 11 6 C11 6.66 11 7.32 11 8 C11.66 8.33 12.32 8.66 13 9 C8.24112532 9 7.61936167 8.19512547 4.25 5.0625 C3.45078125 4.33160156 2.6515625 3.60070312 1.828125 2.84765625 C0 1 0 1 0 0 Z " fill="#3C2B29" transform="translate(66,14)"/>
<path d="M0 0 C2.97 0.33 5.94 0.66 9 1 C9 2.32 9 3.64 9 5 C8.01 4.67 7.02 4.34 6 4 C6 4.66 6 5.32 6 6 C4.68 6 3.36 6 2 6 C1.34 4.02 0.68 2.04 0 0 Z " fill="#BAA39B" transform="translate(84,17)"/>
<path d="M0 0 C1.54046762 4.10791365 0.75996191 7.78566579 0 12 C-0.99 12.495 -0.99 12.495 -2 13 C-2 11.68 -2 10.36 -2 9 C-2.66 9 -3.32 9 -4 9 C-4.33 7.02 -4.66 5.04 -5 3 C-4.01 3.495 -4.01 3.495 -3 4 C-2.34 3.67 -1.68 3.34 -1 3 C-0.67 2.01 -0.34 1.02 0 0 Z " fill="#1D3375" transform="translate(14,81)"/>
<path d="M0 0 C2.5 1.75 2.5 1.75 5 4 C5 5.32 5 6.64 5 8 C4.38125 8.12375 3.7625 8.2475 3.125 8.375 C0.80879168 8.87197356 0.80879168 8.87197356 -1 11 C-0.67 7.37 -0.34 3.74 0 0 Z " fill="#E4AE81" transform="translate(35,77)"/>
<path d="M0 0 C-5.22372666 3.48248444 -10.09478583 5.89814411 -16 8 C-16 6 -16 6 -14.53125 4.4921875 C-9.4388325 0.43783972 -6.49595391 -0.69599506 0 0 Z " fill="#2D3B61" transform="translate(60,10)"/>
<path d="M0 0 C2.97 0 5.94 0 9 0 C8.21625 0.61875 7.4325 1.2375 6.625 1.875 C4.03162353 3.89858661 4.03162353 3.89858661 2 6 C1.01 5.67 0.02 5.34 -1 5 C-0.67 3.35 -0.34 1.7 0 0 Z " fill="#CCD5EF" transform="translate(41,6)"/>
<path d="M0 0 C0 1.32 0 2.64 0 4 C-2.64 4.33 -5.28 4.66 -8 5 C-7.625 2.5625 -7.625 2.5625 -7 0 C-4.3333581 -1.33332095 -2.83319697 -0.67102033 0 0 Z " fill="#D2B5A3" transform="translate(98,41)"/>
<path d="M0 0 C1.21022067 2.42044135 0.97527792 3.75826341 0.8125 6.4375 C0.71969757 8.82200252 0.71969757 8.82200252 1 11 C2.82271927 13.12355567 2.82271927 13.12355567 5 14 C3.35 14 1.7 14 0 14 C-1.78409802 10.93753253 -2.22880021 8.77920727 -2.125 5.25 C-2.10695313 4.45078125 -2.08890625 3.6515625 -2.0703125 2.828125 C-2.04710938 2.22484375 -2.02390625 1.6215625 -2 1 C-1.34 0.67 -0.68 0.34 0 0 Z " fill="#3D2D3C" transform="translate(31,75)"/>
<path d="M0 0 C2.31 0 4.62 0 7 0 C7.33 1.32 7.66 2.64 8 4 C5.125 4.625 5.125 4.625 2 5 C1.34 4.34 0.68 3.68 0 3 C0 2.01 0 1.02 0 0 Z " fill="#D6D6E2" transform="translate(89,30)"/>
<path d="M0 0 C0.33 0 0.66 0 1 0 C1.125 7.75 1.125 7.75 0 10 C-1.98 10 -3.96 10 -6 10 C-6 10.66 -6 11.32 -6 12 C-7.32 12 -8.64 12 -10 12 C-10 11.01 -10 10.02 -10 9 C-7.36 9 -4.72 9 -2 9 C-1.34 6.03 -0.68 3.06 0 0 Z " fill="#BE7B68" transform="translate(77,50)"/>
<path d="M0 0 C0.33 0 0.66 0 1 0 C1 5.61 1 11.22 1 17 C0.01 17 -0.98 17 -2 17 C-2 14.36 -2 11.72 -2 9 C-1.34 9 -0.68 9 0 9 C0 6.03 0 3.06 0 0 Z " fill="#67483A" transform="translate(88,33)"/>
<path d="M0 0 C0.99 0.33 1.98 0.66 3 1 C1.66666667 4.33333333 0.33333333 7.66666667 -1 11 C-1.33 11 -1.66 11 -2 11 C-2.33 8.03 -2.66 5.06 -3 2 C-2.01 2 -1.02 2 0 2 C0 1.34 0 0.68 0 0 Z " fill="#C8AEA6" transform="translate(90,21)"/>
<path d="M0 0 C2.31 0 4.62 0 7 0 C7 0.99 7 1.98 7 3 C4 5.1875 4 5.1875 1 7 C0.67 4.69 0.34 2.38 0 0 Z " fill="#312B3F" transform="translate(41,26)"/>
<path d="M0 0 C2.31 0 4.62 0 7 0 C7 0.66 7 1.32 7 2 C5.02 2.99 5.02 2.99 3 4 C3 4.66 3 5.32 3 6 C4.65 5.67 6.3 5.34 8 5 C8.33 5.66 8.66 6.32 9 7 C6.69 7 4.38 7 2 7 C0.5393715 4.35261084 0 3.10551666 0 0 Z " fill="#7E5842" transform="translate(1,61)"/>
<path d="M0 0 C2.8125 0.125 2.8125 0.125 6 1 C7.6875 3.8125 7.6875 3.8125 9 7 C9.96534522 8.35863401 10.95277149 9.70343137 12 11 C8.57472113 9.52651292 6.35044942 7.59092154 3.75 4.9375 C3.04359375 4.22464844 2.3371875 3.51179688 1.609375 2.77734375 C0 1 0 1 0 0 Z " fill="#D99C72" transform="translate(40,61)"/>
<path d="M0 0 C3.3 0 6.6 0 10 0 C10.33 1.32 10.66 2.64 11 4 C10.4225 3.814375 9.845 3.62875 9.25 3.4375 C6.79307475 2.95976454 5.35602466 3.24270636 3 4 C3 3.01 3 2.02 3 1 C2.01 0.67 1.02 0.34 0 0 Z " fill="#5F372C" transform="translate(51,38)"/>
<path d="M0 0 C0.66 0 1.32 0 2 0 C2 0.99 2 1.98 2 3 C1.34 3 0.68 3 0 3 C0 3.99 0 4.98 0 6 C-0.99 6.495 -0.99 6.495 -2 7 C-2.65555119 9.52733235 -2.65555119 9.52733235 -3 12 C-4.76462683 8.91190305 -5 7.76687864 -5 4 C-4.360625 3.71125 -3.72125 3.4225 -3.0625 3.125 C-0.84793921 2.17176549 -0.84793921 2.17176549 0 0 Z " fill="#CEA490" transform="translate(33,32)"/>
<path d="M0 0 C0 3.3 0 6.6 0 10 C-0.99 10 -1.98 10 -3 10 C-3 7.03 -3 4.06 -3 1 C-1 0 -1 0 0 0 Z " fill="#383033" transform="translate(100,90)"/>
<path d="M0 0 C7.48291572 6.15034169 7.48291572 6.15034169 10 10 C7 10 7 10 5.17578125 8.57421875 C4.56089844 7.95160156 3.94601563 7.32898438 3.3125 6.6875 C2.37857422 5.76517578 2.37857422 5.76517578 1.42578125 4.82421875 C0 3 0 3 0 0 Z " fill="#AF7148" transform="translate(39,61)"/>
<path d="M0 0 C0.66 0 1.32 0 2 0 C2 0.66 2 1.32 2 2 C3.5778125 1.9690625 3.5778125 1.9690625 5.1875 1.9375 C8.32704904 1.98896802 10.96883396 2.26517187 14 3 C14 3.33 14 3.66 14 4 C9.38 4.33 4.76 4.66 0 5 C0 3.35 0 1.7 0 0 Z " fill="#81654A" transform="translate(0,55)"/>
<path d="M0 0 C1.32 0.66 2.64 1.32 4 2 C3.67 3.65 3.34 5.3 3 7 C1.68 7.33 0.36 7.66 -1 8 C-1.04241723 5.66705225 -1.04092937 3.33297433 -1 1 C-0.67 0.67 -0.34 0.34 0 0 Z " fill="#FBBD97" transform="translate(71,50)"/>
<path d="M0 0 C0.66 0.33 1.32 0.66 2 1 C2 2.98 2 4.96 2 7 C-0.64 6.67 -3.28 6.34 -6 6 C-5 4 -5 4 -2 3 C-1.34 2.01 -0.68 1.02 0 0 Z " fill="#F4C299" transform="translate(66,39)"/>
<path d="M0 0 C1.79133978 -0.05391993 3.58313899 -0.09275571 5.375 -0.125 C6.37273438 -0.14820313 7.37046875 -0.17140625 8.3984375 -0.1953125 C11 0 11 0 13 2 C12.01 2.99 11.02 3.98 10 5 C9.34 4.67 8.68 4.34 8 4 C8 3.01 8 2.02 8 1 C3.545 1.495 3.545 1.495 -1 2 C-0.67 1.34 -0.34 0.68 0 0 Z " fill="#C3B7B8" transform="translate(27,13)"/>
<path d="M0 0 C2.29013653 3.4352048 2.17842973 4.985331 2 9 C1.01 9 0.02 9 -1 9 C-1.66 6.69 -2.32 4.38 -3 2 C-2.01 1.34 -1.02 0.68 0 0 Z " fill="#342622" transform="translate(95,91)"/>
<path d="M0 0 C5.94 0.99 5.94 0.99 12 2 C12 2.33 12 2.66 12 3 C10.02 3 8.04 3 6 3 C5.67 4.32 5.34 5.64 5 7 C5 6.34 5 5.68 5 5 C2.525 4.01 2.525 4.01 0 3 C0 2.01 0 1.02 0 0 Z " fill="#6E3A23" transform="translate(50,73)"/>
<path d="M0 0 C2 2 2 2 2 6 C4.31 6 6.62 6 9 6 C6.06279492 7.52299523 3.0831351 8.80100302 0 10 C0 6.7 0 3.4 0 0 Z " fill="#705747" transform="translate(87,56)"/>
<path d="M0 0 C0.33 0 0.66 0 1 0 C1 1.65 1 3.3 1 5 C2.32 5.66 3.64 6.32 5 7 C5 8.65 5 10.3 5 12 C1.125 10.125 1.125 10.125 0 9 C-0.07179964 7.48071962 -0.08392007 5.95832518 -0.0625 4.4375 C-0.05347656 3.61121094 -0.04445312 2.78492188 -0.03515625 1.93359375 C-0.02355469 1.29550781 -0.01195312 0.65742187 0 0 Z " fill="#EABB98" transform="translate(37,49)"/>
<path d="M0 0 C3.63 0 7.26 0 11 0 C11.33 0.99 11.66 1.98 12 3 C10.02 3.66 8.04 4.32 6 5 C6 3.68 6 2.36 6 1 C5.38125 1.20625 4.7625 1.4125 4.125 1.625 C3.42375 1.74875 2.7225 1.8725 2 2 C1.34 1.34 0.68 0.68 0 0 Z " fill="#D1D8E3" transform="translate(79,9)"/>
<path d="M0 0 C0.99 0 1.98 0 3 0 C2.67 0.66 2.34 1.32 2 2 C-0.04243528 2.63385922 -2.09132519 3.01826504 -4.1875 3.4375 C-5.0846875 3.7159375 -5.0846875 3.7159375 -6 4 C-6.33 4.66 -6.66 5.32 -7 6 C-7.99 5.67 -8.98 5.34 -10 5 C-10 4.01 -10 3.02 -10 2 C-9.04287109 1.90912109 -9.04287109 1.90912109 -8.06640625 1.81640625 C-6.82697266 1.69072266 -6.82697266 1.69072266 -5.5625 1.5625 C-4.73878906 1.48128906 -3.91507813 1.40007812 -3.06640625 1.31640625 C-1.01337975 1.21069185 -1.01337975 1.21069185 0 0 Z " fill="#171A30" transform="translate(27,74)"/>
<path d="M0 0 C2.58092331 2.24428114 3.20940258 3.73878565 4 7 C5.48800372 9.2072358 5.48800372 9.2072358 7 11 C5.0625 10.6875 5.0625 10.6875 3 10 C2.67 9.01 2.34 8.02 2 7 C1.34 7 0.68 7 0 7 C0 4.69 0 2.38 0 0 Z " fill="#D19B72" transform="translate(37,58)"/>
<path d="M0 0 C0.66 0.33 1.32 0.66 2 1 C2 5.95 2 10.9 2 16 C0.35 16 -1.3 16 -3 16 C-3 15.34 -3 14.68 -3 14 C-2.01 13.67 -1.02 13.34 0 13 C0 8.71 0 4.42 0 0 Z " fill="#805540" transform="translate(77,24)"/>
<path d="M0 0 C3.63 0 7.26 0 11 0 C11 0.99 11 1.98 11 3 C6.78121808 3.19622241 3.82989106 2.80230168 0 1 C0 0.67 0 0.34 0 0 Z " fill="#2E3B60" transform="translate(61,8)"/>
<path d="M0 0 C1.98 0 3.96 0 6 0 C6.66 3.3 7.32 6.6 8 10 C7.34 9.67 6.68 9.34 6 9 C5.896875 8.195625 5.79375 7.39125 5.6875 6.5625 C5.3471875 5.2940625 5.3471875 5.2940625 5 4 C2.52363988 2.62533375 2.52363988 2.62533375 0 2 C0 1.34 0 0.68 0 0 Z " fill="#B8ABA1" transform="translate(83,0)"/>
<path d="M0 0 C-0.33 1.65 -0.66 3.3 -1 5 C-2.32 5 -3.64 5 -5 5 C-5.33 3.35 -5.66 1.7 -6 0 C-3.50907189 -1.24546405 -2.58919267 -0.7767578 0 0 Z " fill="#254DA7" transform="translate(15,78)"/>
<path d="M0 0 C0 0.66 0 1.32 0 2 C-0.66 2.66 -1.32 3.32 -2 4 C-2.33 4.99 -2.66 5.98 -3 7 C-4.65 7.33 -6.3 7.66 -8 8 C-6.48291727 4.46014029 -4.24676932 0 0 0 Z " fill="#402A23" transform="translate(74,64)"/>
<path d="M0 0 C0.33 0.66 0.66 1.32 1 2 C3.02463255 2.65213292 3.02463255 2.65213292 5 3 C5 4.32 5 5.64 5 7 C1.9168649 5.80100302 -1.06279492 4.52299523 -4 3 C-3.34 2.67 -2.68 2.34 -2 2 C-1.34 2.33 -0.68 2.66 0 3 C0 2.01 0 1.02 0 0 Z " fill="#915842" transform="translate(17,62)"/>
<path d="M0 0 C0.721875 0.144375 1.44375 0.28875 2.1875 0.4375 C3.5796875 0.7159375 3.5796875 0.7159375 5 1 C6.66666667 1.33333333 8.33333333 1.66666667 10 2 C9.67 2.99 9.34 3.98 9 5 C7.35 4.67 5.7 4.34 4 4 C4 3.34 4 2.68 4 2 C2.68 2 1.36 2 0 2 C0 1.34 0 0.68 0 0 Z " fill="#A95E40" transform="translate(59,53)"/>
<path d="M0 0 C0.66 0.33 1.32 0.66 2 1 C1.34 2.65 0.68 4.3 0 6 C-1.32 5.67 -2.64 5.34 -4 5 C-4 4.01 -4 3.02 -4 2 C-2.125 0.9375 -2.125 0.9375 0 0 Z " fill="#1A1D37" transform="translate(52,94)"/>
<path d="M0 0 C4.455 0.99 4.455 0.99 9 2 C9 2.99 9 3.98 9 5 C4.545 4.01 4.545 4.01 0 3 C0 2.01 0 1.02 0 0 Z " fill="#25263E" transform="translate(30,88)"/>
<path d="M0 0 C0.33 0 0.66 0 1 0 C2.25 6.625 2.25 6.625 0 10 C-4.875 8.25 -4.875 8.25 -6 6 C-4.68 6.33 -3.36 6.66 -2 7 C-1.34 4.69 -0.68 2.38 0 0 Z " fill="#DDBD9F" transform="translate(49,85)"/>
<path d="M0 0 C2 4 2 4 1.125 7.75 C0.75375 8.8225 0.3825 9.895 0 11 C-0.99 11 -1.98 11 -3 11 C-2.01 7.37 -1.02 3.74 0 0 Z " fill="#523C38" transform="translate(30,42)"/>
<path d="M0 0 C0.99 0.33 1.98 0.66 3 1 C2.67 2.65 2.34 4.3 2 6 C0.35 5.67 -1.3 5.34 -3 5 C-3 4.01 -3 3.02 -3 2 C-2.01 2 -1.02 2 0 2 C0 1.34 0 0.68 0 0 Z " fill="#2F1E1C" transform="translate(87,83)"/>
<path d="M0 0 C3.3 0 6.6 0 10 0 C10 0.66 10 1.32 10 2 C5.545 2.495 5.545 2.495 1 3 C0.67 2.01 0.34 1.02 0 0 Z " fill="#928D8D" transform="translate(90,48)"/>
<path d="M0 0 C-0.33 1.32 -0.66 2.64 -1 4 C-1.5775 3.67 -2.155 3.34 -2.75 3 C-5.19883862 1.72924102 -5.19883862 1.72924102 -9 2 C-9.33 2.99 -9.66 3.98 -10 5 C-10.33 3.68 -10.66 2.36 -11 1 C-7.26562152 0.12132271 -3.83225427 -0.08912219 0 0 Z " fill="#304A89" transform="translate(16,76)"/>
<path d="M0 0 C0 0.66 0 1.32 0 2 C-1.6796875 3.32421875 -1.6796875 3.32421875 -3.875 4.6875 C-4.59429687 5.14511719 -5.31359375 5.60273437 -6.0546875 6.07421875 C-7.01761719 6.53248047 -7.01761719 6.53248047 -8 7 C-8.66 6.67 -9.32 6.34 -10 6 C-2.92307692 0 -2.92307692 0 0 0 Z " fill="#B9907B" transform="translate(52,27)"/>
<path d="M0 0 C1.65 0 3.3 0 5 0 C5 1.32 5 2.64 5 4 C3.02 4 1.04 4 -1 4 C-0.67 2.68 -0.34 1.36 0 0 Z " fill="#1C2E6E" transform="translate(19,96)"/>
<path d="M0 0 C2.2477975 2.05233685 3.0022242 3.00667261 4 6 C3.5625 8.1875 3.5625 8.1875 3 10 C0.80808632 7.80808632 0.72130648 6.88522592 0 4 C-0.66 3.34 -1.32 2.68 -2 2 C-1.34 2 -0.68 2 0 2 C0 1.34 0 0.68 0 0 Z " fill="#988273" transform="translate(91,75)"/>
<path d="M0 0 C4.29 0 8.58 0 13 0 C13 0.66 13 1.32 13 2 C9.72814447 3.07310858 7.57052408 2.89263102 4.25 2.0625 C3.05117187 1.77052734 3.05117187 1.77052734 1.828125 1.47265625 C1.22484375 1.31667969 0.6215625 1.16070312 0 1 C0 0.67 0 0.34 0 0 Z " fill="#9E674B" transform="translate(1,60)"/>
<path d="M0 0 C0.33 0.66 0.66 1.32 1 2 C3.02463255 2.65213292 3.02463255 2.65213292 5 3 C3.68 3.33 2.36 3.66 1 4 C1 5.32 1 6.64 1 8 C0.34 8 -0.32 8 -1 8 C-0.67 5.36 -0.34 2.72 0 0 Z " fill="#4D342F" transform="translate(86,77)"/>
<path d="M0 0 C1.65 0.33 3.3 0.66 5 1 C5 1.99 5 2.98 5 4 C2.69 4 0.38 4 -2 4 C-1.34 2.68 -0.68 1.36 0 0 Z " fill="#F5B794" transform="translate(59,68)"/>
<path d="M0 0 C2.31 0.33 4.62 0.66 7 1 C7 2.32 7 3.64 7 5 C6.34 5 5.68 5 5 5 C5 4.34 5 3.68 5 3 C3.35 2.67 1.7 2.34 0 2 C0 1.34 0 0.68 0 0 Z " fill="#E39F78" transform="translate(45,53)"/>
<path d="M0 0 C1.98 0 3.96 0 6 0 C6.33 0.99 6.66 1.98 7 3 C4.69 3.33 2.38 3.66 0 4 C0 2.68 0 1.36 0 0 Z " fill="#C0A99A" transform="translate(90,38)"/>
<path d="M0 0 C1.65 0 3.3 0 5 0 C4.50168276 3.68754757 3.89932357 5.60490662 1 8 C1.020625 7.05125 1.04125 6.1025 1.0625 5.125 C1.22551826 2.09333717 1.22551826 2.09333717 0 0 Z " fill="#D0BDBD" transform="translate(32,16)"/>
<path d="M0 0 C0.66 0.33 1.32 0.66 2 1 C2 1.66 2 2.32 2 3 C3.45833358 4.62514468 3.45833358 4.62514468 5 6 C4.01 6.33 3.02 6.66 2 7 C1.01 6.34 0.02 5.68 -1 5 C-0.67 3.35 -0.34 1.7 0 0 Z " fill="#584038" transform="translate(95,82)"/>
<path d="M0 0 C0.66 0 1.32 0 2 0 C1.34 1.32 0.68 2.64 0 4 C-1.65 4 -3.3 4 -5 4 C-5.33 4.66 -5.66 5.32 -6 6 C-6.33 4.68 -6.66 3.36 -7 2 C-6.21625 2.04125 -5.4325 2.0825 -4.625 2.125 C-1.83883881 2.28728734 -1.83883881 2.28728734 0 0 Z " fill="#78635F" transform="translate(16,70)"/>
<path d="M0 0 C0.66 0.66 1.32 1.32 2 2 C0.02 3.32 -1.96 4.64 -4 6 C-4.66 5.67 -5.32 5.34 -6 5 C-2.25 1.125 -2.25 1.125 0 0 Z " fill="#3B2C2B" transform="translate(22,68)"/>
<path d="M0 0 C2.31 0.66 4.62 1.32 7 2 C7 2.66 7 3.32 7 4 C4.69 3.67 2.38 3.34 0 3 C0 2.01 0 1.02 0 0 Z " fill="#424658" transform="translate(74,10)"/>
<path d="M0 0 C0 0.99 0 1.98 0 3 C-0.99 3.33 -1.98 3.66 -3 4 C-3.33 4.99 -3.66 5.98 -4 7 C-4.99 6.67 -5.98 6.34 -7 6 C-4.74259377 3.66475218 -2.7194239 1.81294927 0 0 Z " fill="#9D5F4D" transform="translate(72,62)"/>
<path d="M0 0 C0.33 0 0.66 0 1 0 C1 1.98 1 3.96 1 6 C2.32 6 3.64 6 5 6 C5 6.66 5 7.32 5 8 C3.02 8.33 1.04 8.66 -1 9 C-0.67 6.03 -0.34 3.06 0 0 Z " fill="#876054" transform="translate(35,32)"/>
<path d="M0 0 C2 2 2 2 2 6 C-0.31 6 -2.62 6 -5 6 C-4.360625 5.38125 -3.72125 4.7625 -3.0625 4.125 C-0.96116416 2.17402388 -0.96116416 2.17402388 0 0 Z " fill="#C1BDCA" transform="translate(91,12)"/>
<path d="M0 0 C1.98 0 3.96 0 6 0 C6.33 1.98 6.66 3.96 7 6 C5.83054208 5.19152271 4.66449539 4.37810888 3.5 3.5625 C2.8503125 3.11003906 2.200625 2.65757813 1.53125 2.19140625 C1.0259375 1.79824219 0.520625 1.40507812 0 1 C0 0.67 0 0.34 0 0 Z " fill="#352931" transform="translate(66,14)"/>
<path d="M0 0 C3.39914975 1.13304992 4.05254451 2.12518475 6 5 C4.02 5 2.04 5 0 5 C0 3.35 0 1.7 0 0 Z " fill="#605155" transform="translate(63,12)"/>
<path d="M0 0 C0.99 0 1.98 0 3 0 C3 2.31 3 4.62 3 7 C2.01 7.495 2.01 7.495 1 8 C0.67 5.36 0.34 2.72 0 0 Z " fill="#221B17" transform="translate(89,0)"/>
<path d="M0 0 C2.31 0 4.62 0 7 0 C6.01 1.485 6.01 1.485 5 3 C3.35 2.67 1.7 2.34 0 2 C0 1.34 0 0.68 0 0 Z " fill="#E1CDC8" transform="translate(8,69)"/>
<path d="M0 0 C2.64 0.33 5.28 0.66 8 1 C7.67 1.66 7.34 2.32 7 3 C5.02 3 3.04 3 1 3 C0.67 2.01 0.34 1.02 0 0 Z " fill="#864B31" transform="translate(9,65)"/>
<path d="M0 0 C3.68754757 0.49831724 5.60490662 1.10067643 8 4 C6.68 4.33 5.36 4.66 4 5 C3.71125 4.360625 3.4225 3.72125 3.125 3.0625 C2.17176549 0.84793921 2.17176549 0.84793921 0 0 Z " fill="#E86E6C" transform="translate(54,60)"/>
<path d="M0 0 C1.32 0 2.64 0 4 0 C3.67 1.98 3.34 3.96 3 6 C1.5 4.6875 1.5 4.6875 0 3 C0 2.01 0 1.02 0 0 Z " fill="#CC9780" transform="translate(35,40)"/>
<path d="M0 0 C0 1.65 0 3.3 0 5 C-0.99 5.495 -0.99 5.495 -2 6 C-4 3 -4 3 -5 1 C-3 0 -3 0 0 0 Z " fill="#B46F56" transform="translate(64,36)"/>
<path d="M0 0 C0.66 0.33 1.32 0.66 2 1 C2 1.66 2 2.32 2 3 C2.99 3.33 3.98 3.66 5 4 C5 5.32 5 6.64 5 8 C4.34 7.67 3.68 7.34 3 7 C3 6.01 3 5.02 3 4 C1.68 3.67 0.36 3.34 -1 3 C-0.67 2.01 -0.34 1.02 0 0 Z " fill="#F7BF96" transform="translate(71,29)"/>
<path d="M0 0 C0 2 0 2 -1.8125 4.125 C-4 6 -4 6 -7 6 C-5.81636731 2.44910192 -3.99368042 0 0 0 Z " fill="#262D42" transform="translate(55,19)"/>
<path d="M0 0 C1.65 0 3.3 0 5 0 C5 0.66 5 1.32 5 2 C6.65 2 8.3 2 10 2 C10 2.33 10 2.66 10 3 C8.72125 3.061875 7.4425 3.12375 6.125 3.1875 C5.40570312 3.22230469 4.68640625 3.25710938 3.9453125 3.29296875 C3.30335937 3.19628906 2.66140625 3.09960938 2 3 C1.34 2.01 0.68 1.02 0 0 Z " fill="#C4B3B4" transform="translate(22,0)"/>
</svg>
