<?xml version="1.0" encoding="UTF-8"?>
<svg version="1.1" xmlns="http://www.w3.org/2000/svg" width="100" height="100">
<path d="M0 0 C33 0 66 0 100 0 C100 33 100 66 100 100 C67 100 34 100 0 100 C0 67 0 34 0 0 Z " fill="#105131" transform="translate(0,0)"/>
<path d="M0 0 C18.15 0 36.3 0 55 0 C55 1.65 55 3.3 55 5 C57.31 5 59.62 5 62 5 C62 5.99 62 6.98 62 8 C63.093125 8.061875 64.18625 8.12375 65.3125 8.1875 C69 9 69 9 70.625 11.1875 C71.305625 12.5796875 71.305625 12.5796875 72 14 C72.86625 14.94875 73.7325 15.8975 74.625 16.875 C77.29950033 20.39407938 77.73875856 22.64597599 78 27 C76.515 26.505 76.515 26.505 75 26 C74.505 25.01 74.505 25.01 74 24 C73.360625 23.855625 72.72125 23.71125 72.0625 23.5625 C70 23 70 23 68 20 C68 19.01 68 18.02 68 17 C67.34 16.67 66.68 16.34 66 16 C66.33 15.01 66.66 14.02 67 13 C66.34 13 65.68 13 65 13 C64.67 13.99 64.34 14.98 64 16 C63.05125 15.938125 62.1025 15.87625 61.125 15.8125 C59.578125 15.9053125 59.578125 15.9053125 58 16 C57.34 16.99 56.68 17.98 56 19 C53.1796875 19.73046875 53.1796875 19.73046875 49.875 20.1875 C48.77929688 20.34605469 47.68359375 20.50460938 46.5546875 20.66796875 C45.71164063 20.77753906 44.86859375 20.88710938 44 21 C43.67 22.98 43.34 24.96 43 27 C43.72703125 26.98839844 44.4540625 26.97679688 45.203125 26.96484375 C66.17590361 26.77662651 66.17590361 26.77662651 71 30 C74.86813358 41.60440073 72.25133262 52.90757419 68 64 C66.453125 67.03125 66.453125 67.03125 65 69 C64.34 69 63.68 69 63 69 C62.505 70.485 62.505 70.485 62 72 C56.84966321 74.5751684 50.64607698 74.82430951 45 74 C43.35546875 72.54296875 43.35546875 72.54296875 42 71 C41.01 70.67 40.02 70.34 39 70 C39 71.32 39 72.64 39 74 C36.03 73.01 36.03 73.01 33 72 C33 71.34 33 70.68 33 70 C30.02934491 70.34227572 30.02934491 70.34227572 27 71 C26.67 71.66 26.34 72.32 26 73 C23.9375 73.625 23.9375 73.625 22 74 C22 73.34 22 72.68 22 72 C19.90948181 73.05413634 19.90948181 73.05413634 18 75 C17.29875226 78.18596662 17.29875226 78.18596662 17.25 81.6875 C17.19328125 82.86699219 17.1365625 84.04648438 17.078125 85.26171875 C17.05234375 86.16535156 17.0265625 87.06898437 17 88 C15.02 88.495 15.02 88.495 13 89 C13 87.35 13 85.7 13 84 C11.12119128 84.04768403 11.12119128 84.04768403 9 85 C6.73674754 87.97763043 6.73674754 87.97763043 5 91 C3.35 90.67 1.7 90.34 0 90 C0 60.3 0 30.6 0 0 Z " fill="#137143" transform="translate(0,0)"/>
<path d="M0 0 C0 0.99 0 1.98 0 3 C1.6396875 3.0928125 1.6396875 3.0928125 3.3125 3.1875 C7 4 7 4 8.625 6.1875 C9.305625 7.5796875 9.305625 7.5796875 10 9 C10.86625 9.94875 11.7325 10.8975 12.625 11.875 C15.29950033 15.39407938 15.73875856 17.64597599 16 22 C14.515 21.505 14.515 21.505 13 21 C12.505 20.01 12.505 20.01 12 19 C11.360625 18.855625 10.72125 18.71125 10.0625 18.5625 C8 18 8 18 6 15 C6 14.01 6 13.02 6 12 C5.01 11.505 5.01 11.505 4 11 C4.33 10.01 4.66 9.02 5 8 C4.34 8 3.68 8 3 8 C2.67 8.99 2.34 9.98 2 11 C1.05125 10.938125 0.1025 10.87625 -0.875 10.8125 C-2.421875 10.9053125 -2.421875 10.9053125 -4 11 C-4.66 11.99 -5.32 12.98 -6 14 C-8.8203125 14.73046875 -8.8203125 14.73046875 -12.125 15.1875 C-13.22070312 15.34605469 -14.31640625 15.50460938 -15.4453125 15.66796875 C-16.28835937 15.77753906 -17.13140625 15.88710938 -18 16 C-18.33 17.98 -18.66 19.96 -19 22 C-18.27296875 21.98839844 -17.5459375 21.97679688 -16.796875 21.96484375 C4.17590361 21.77662651 4.17590361 21.77662651 9 25 C12.86813358 36.60440073 10.25133262 47.90757419 6 59 C4.453125 62.03125 4.453125 62.03125 3 64 C2.34 64 1.68 64 1 64 C0.505 65.485 0.505 65.485 0 67 C-5.15033679 69.5751684 -11.35392302 69.82430951 -17 69 C-18.64453125 67.54296875 -18.64453125 67.54296875 -20 66 C-20.99 65.67 -21.98 65.34 -23 65 C-23 66.32 -23 67.64 -23 69 C-25.97 68.01 -25.97 68.01 -29 67 C-29 66.34 -29 65.68 -29 65 C-31.97065509 65.34227572 -31.97065509 65.34227572 -35 66 C-35.33 66.66 -35.66 67.32 -36 68 C-38.0625 68.625 -38.0625 68.625 -40 69 C-40 68.34 -40 67.68 -40 67 C-42.09051819 68.05413634 -42.09051819 68.05413634 -44 70 C-44.70124774 73.18596662 -44.70124774 73.18596662 -44.75 76.6875 C-44.80671875 77.86699219 -44.8634375 79.04648438 -44.921875 80.26171875 C-44.94765625 81.16535156 -44.9734375 82.06898437 -45 83 C-46.98 83.495 -46.98 83.495 -49 84 C-49 82.35 -49 80.7 -49 79 C-50.87880872 79.04768403 -50.87880872 79.04768403 -53 80 C-55.26325246 82.97763043 -55.26325246 82.97763043 -57 86 C-58.65 85.67 -60.3 85.34 -62 85 C-62 81.37 -62 77.74 -62 74 C-60.62714844 73.49339844 -60.62714844 73.49339844 -59.2265625 72.9765625 C-58.03804687 72.53054687 -56.84953125 72.08453125 -55.625 71.625 C-54.44164062 71.18414062 -53.25828125 70.74328125 -52.0390625 70.2890625 C-48.95506554 69.2049658 -48.95506554 69.2049658 -47 67 C-45.55154051 66.69800459 -44.09040976 66.45447578 -42.625 66.25 C-38.67776608 65.47702642 -38.19705187 65.2526306 -35.5625 61.875 C-35.046875 60.92625 -34.53125 59.9775 -34 59 C-33.34 59 -32.68 59 -32 59 C-31.67 55.04 -31.34 51.08 -31 47 C-32.485 46.505 -32.485 46.505 -34 46 C-34.91297308 41.02936879 -34.91297308 36.97063121 -34 32 C-32.68 32 -31.36 32 -30 32 C-29.34 33.65 -28.68 35.3 -28 37 C-27.54625 36.030625 -27.0925 35.06125 -26.625 34.0625 C-25 31 -25 31 -23 30 C-22.52402634 27.29400158 -22.15906371 24.66404596 -21.875 21.9375 C-21.78863281 21.17888672 -21.70226563 20.42027344 -21.61328125 19.63867188 C-21.40060483 17.76003014 -21.19924541 15.88011364 -21 14 C-21.99 14 -22.98 14 -24 14 C-24 15.65 -24 17.3 -24 19 C-24.99 19 -25.98 19 -27 19 C-27 16.69 -27 14.38 -27 12 C-26.01 12 -25.02 12 -24 12 C-24 10.68 -24 9.36 -24 8 C-23.34 8 -22.68 8 -22 8 C-22 7.34 -22 6.68 -22 6 C-21.34 6 -20.68 6 -20 6 C-20 5.01 -20 4.02 -20 3 C-13.36857149 0.51321431 -7.05292315 -0.17632308 0 0 Z " fill="#B1836B" transform="translate(62,5)"/>
<path d="M0 0 C0 0.66 0 1.32 0 2 C1.98 2.66 3.96 3.32 6 4 C6 2.68 6 1.36 6 0 C8.475 0.495 8.475 0.495 11 1 C11.495 2.485 11.495 2.485 12 4 C14.97 4 17.94 4 21 4 C20.01 4.33 19.02 4.66 18 5 C18 7.64 18 10.28 18 13 C15.36 13 12.72 13 10 13 C9.05598958 11.20963542 8.11197917 9.41927083 7.16796875 7.62890625 C6.00980201 5.67732013 6.00980201 5.67732013 3 5 C3.495 6.0828125 3.495 6.0828125 4 7.1875 C5 10 5 10 4.875 12.5 C5.0523289 16.04657801 6.53871046 17.53871046 9 20 C9.99 20 10.98 20 12 20 C13.32 20 14.64 20 16 20 C15.505 22.475 15.505 22.475 15 25 C17.31 25.66 19.62 26.32 22 27 C22 27.99 22 28.98 22 30 C3.85 30 -14.3 30 -33 30 C-33 26.7 -33 23.4 -33 20 C-31.35 20 -29.7 20 -28 20 C-26.63823419 18.01924973 -25.30406884 16.01920337 -24 14 C-22.68 14 -21.36 14 -20 14 C-19.67 15.32 -19.34 16.64 -19 18 C-18.01 18 -17.02 18 -16 18 C-16.05220703 16.64455078 -16.05220703 16.64455078 -16.10546875 15.26171875 C-16.13253906 14.08222656 -16.15960937 12.90273437 -16.1875 11.6875 C-16.22230469 10.51574219 -16.25710937 9.34398438 -16.29296875 8.13671875 C-16 5 -16 5 -14.6875 3.0625 C-13 2 -13 2 -9.8125 2.3125 C-8.884375 2.539375 -7.95625 2.76625 -7 3 C-6.67 2.01 -6.34 1.02 -6 0 C-3.50907189 -1.24546405 -2.58919267 -0.7767578 0 0 Z " fill="#353532" transform="translate(33,70)"/>
<path d="M0 0 C3.58237455 4.67266246 4.11073636 7.02023637 4 13 C4.99 13.33 5.98 13.66 7 14 C7.495 16.97 7.495 16.97 8 20 C8.99 20.33 9.98 20.66 11 21 C11 21.66 11 22.32 11 23 C11.99 23.33 12.98 23.66 14 24 C14 24.99 14 25.98 14 27 C15.65 27.33 17.3 27.66 19 28 C19 28.66 19 29.32 19 30 C19.66 30 20.32 30 21 30 C21 31.65 21 33.3 21 35 C9.78 35 -1.44 35 -13 35 C-13.33 34.01 -13.66 33.02 -14 32 C-15.32 32 -16.64 32 -18 32 C-18 31.34 -18 30.68 -18 30 C-18.66 30 -19.32 30 -20 30 C-19.67 28.35 -19.34 26.7 -19 25 C-20.32 25 -21.64 25 -23 25 C-23.33 25.66 -23.66 26.32 -24 27 C-27.41381454 24.76336289 -29.29903415 22.72592518 -31 19 C-31.52286666 16.00859939 -31.80860057 13.02939104 -32 10 C-30.078125 10.3125 -30.078125 10.3125 -28 11 C-27.5875 11.99 -27.175 12.98 -26.75 14 C-25.37929437 17.12302227 -25.37929437 17.12302227 -23.03515625 17.6171875 C-21.03281965 17.84944447 -19.0146791 17.93394495 -17 18 C-17 15.36 -17 12.72 -17 10 C-11.53389831 7.07627119 -11.53389831 7.07627119 -8.375 6.625 C-5.02058416 5.74225899 -3.98841071 3.74263546 -2 1 C-1.34 0.67 -0.68 0.34 0 0 Z " fill="#2A2B2A" transform="translate(68,65)"/>
<path d="M0 0 C1.31000977 -0.00193359 1.31000977 -0.00193359 2.64648438 -0.00390625 C3.56107422 -0.00003906 4.47566406 0.00382812 5.41796875 0.0078125 C6.32095703 0.00394531 7.22394531 0.00007813 8.15429688 -0.00390625 C12.4255874 0.00237044 16.44488757 0.03379106 20.60546875 1.1328125 C20.27546875 2.4528125 19.94546875 3.7728125 19.60546875 5.1328125 C18.34734375 5.1534375 17.08921875 5.1740625 15.79296875 5.1953125 C15.08527344 5.20691406 14.37757812 5.21851563 13.6484375 5.23046875 C11.60546875 5.1328125 11.60546875 5.1328125 8.60546875 4.1328125 C7.21107211 4.06615874 5.81377 4.04743051 4.41796875 4.0703125 C3.15984375 4.0909375 1.90171875 4.1115625 0.60546875 4.1328125 C-0.05453125 6.1128125 -0.71453125 8.0928125 -1.39453125 10.1328125 C-0.52828125 9.854375 -0.52828125 9.854375 0.35546875 9.5703125 C2.812394 9.09257704 4.24944409 9.37551886 6.60546875 10.1328125 C6.60546875 10.7928125 6.60546875 11.4528125 6.60546875 12.1328125 C5.96609375 12.2565625 5.32671875 12.3803125 4.66796875 12.5078125 C3.98734375 12.7140625 3.30671875 12.9203125 2.60546875 13.1328125 C2.27546875 13.7928125 1.94546875 14.4528125 1.60546875 15.1328125 C4.90546875 14.4728125 8.20546875 13.8128125 11.60546875 13.1328125 C11.60546875 12.4728125 11.60546875 11.8128125 11.60546875 11.1328125 C12.26546875 11.1328125 12.92546875 11.1328125 13.60546875 11.1328125 C13.60546875 14.4328125 13.60546875 17.7328125 13.60546875 21.1328125 C11.29546875 21.1328125 8.98546875 21.1328125 6.60546875 21.1328125 C6.93546875 19.8128125 7.26546875 18.4928125 7.60546875 17.1328125 C6.02214345 18.3816552 6.02214345 18.3816552 4.60546875 20.1328125 C4.60546875 21.4528125 4.60546875 22.7728125 4.60546875 24.1328125 C2.29546875 24.1328125 -0.01453125 24.1328125 -2.39453125 24.1328125 C-2.72453125 25.1228125 -3.05453125 26.1128125 -3.39453125 27.1328125 C-3.72453125 26.4728125 -4.05453125 25.8128125 -4.39453125 25.1328125 C-5.01328125 25.3390625 -5.63203125 25.5453125 -6.26953125 25.7578125 C-6.97078125 25.8815625 -7.67203125 26.0053125 -8.39453125 26.1328125 C-11.15676403 23.37057972 -10.97309416 20.92574633 -11.39453125 17.1328125 C-12.71453125 16.8028125 -14.03453125 16.4728125 -15.39453125 16.1328125 C-16.30750433 11.16218129 -16.30750433 7.10344371 -15.39453125 2.1328125 C-14.07453125 2.1328125 -12.75453125 2.1328125 -11.39453125 2.1328125 C-10.73453125 3.7828125 -10.07453125 5.4328125 -9.39453125 7.1328125 C-8.71390625 5.67875 -8.71390625 5.67875 -8.01953125 4.1953125 C-5.79451483 0.00201232 -4.45842176 0.0063208 0 0 Z " fill="#E1AD95" transform="translate(43.39453125,34.8671875)"/>
<path d="M0 0 C0 0.99 0 1.98 0 3 C1.6396875 3.0928125 1.6396875 3.0928125 3.3125 3.1875 C7 4 7 4 8.625 6.1875 C9.305625 7.5796875 9.305625 7.5796875 10 9 C10.86625 9.94875 11.7325 10.8975 12.625 11.875 C15.29950033 15.39407938 15.73875856 17.64597599 16 22 C15.01 21.67 14.02 21.34 13 21 C12.505 20.01 12.505 20.01 12 19 C11.360625 18.855625 10.72125 18.71125 10.0625 18.5625 C8 18 8 18 6 15 C6 14.01 6 13.02 6 12 C5.34 11.67 4.68 11.34 4 11 C4.33 10.01 4.66 9.02 5 8 C4.34 8 3.68 8 3 8 C2.67 8.99 2.34 9.98 2 11 C0.576875 10.9071875 0.576875 10.9071875 -0.875 10.8125 C-2.421875 10.9053125 -2.421875 10.9053125 -4 11 C-4.99 12.485 -4.99 12.485 -6 14 C-8.8203125 14.73046875 -8.8203125 14.73046875 -12.125 15.1875 C-13.22070312 15.34605469 -14.31640625 15.50460938 -15.4453125 15.66796875 C-16.70988281 15.83232422 -16.70988281 15.83232422 -18 16 C-18.33 17.98 -18.66 19.96 -19 22 C-17.90945312 21.98259766 -17.90945312 21.98259766 -16.796875 21.96484375 C-9.47368041 21.89912277 -2.28633314 22.2765343 5 23 C1.92978775 24.77066322 -0.38521901 25.27440517 -3.9140625 25.37890625 C-4.83960937 25.41306641 -5.76515625 25.44722656 -6.71875 25.48242188 C-7.6778125 25.50884766 -8.636875 25.53527344 -9.625 25.5625 C-11.53398327 25.62231481 -13.44285248 25.68592845 -15.3515625 25.75390625 C-16.61734131 25.78979858 -16.61734131 25.78979858 -17.90869141 25.82641602 C-20.05857489 25.87441425 -20.05857489 25.87441425 -22 27 C-21.67 22.71 -21.34 18.42 -21 14 C-21.99 14 -22.98 14 -24 14 C-24 15.65 -24 17.3 -24 19 C-24.99 19 -25.98 19 -27 19 C-27 16.69 -27 14.38 -27 12 C-26.01 12 -25.02 12 -24 12 C-24 10.68 -24 9.36 -24 8 C-23.34 8 -22.68 8 -22 8 C-22 7.34 -22 6.68 -22 6 C-21.34 6 -20.68 6 -20 6 C-20 5.01 -20 4.02 -20 3 C-13.36857149 0.51321431 -7.05292315 -0.17632308 0 0 Z " fill="#575C59" transform="translate(62,5)"/>
<path d="M0 0 C2.125 0.9375 2.125 0.9375 4 2 C3.2575 2.28875 2.515 2.5775 1.75 2.875 C-0.56900199 3.82368263 -2.76932676 4.86559779 -5 6 C-4.65775391 6.76570313 -4.65775391 6.76570313 -4.30859375 7.546875 C-1.9763233 13.4455321 -1.93887207 18.04154055 -2.7734375 24.30078125 C-3.16697073 27.24680375 -3.16697073 27.24680375 -2 31 C-10.91 31 -19.82 31 -29 31 C-29 27.7 -29 24.4 -29 21 C-27.35 21 -25.7 21 -24 21 C-22.63823419 19.01924973 -21.30406884 17.01920337 -20 15 C-18.68 15 -17.36 15 -16 15 C-15.67 16.32 -15.34 17.64 -15 19 C-14.01 19 -13.02 19 -12 19 C-12.05220703 17.64455078 -12.05220703 17.64455078 -12.10546875 16.26171875 C-12.13253906 15.08222656 -12.15960937 13.90273437 -12.1875 12.6875 C-12.22230469 11.51574219 -12.25710937 10.34398438 -12.29296875 9.13671875 C-12 6 -12 6 -10.6875 4.0625 C-9 3 -9 3 -5.8125 3.3125 C-4.884375 3.539375 -3.95625 3.76625 -3 4 C-2.67 3.01 -2.34 2.02 -2 1 C-1.34 0.67 -0.68 0.34 0 0 Z " fill="#535355" transform="translate(29,69)"/>
<path d="M0 0 C2 3 2 3 2.8125 5.625 C3.204375 6.40875 3.59625 7.1925 4 8 C6.54775306 8.89386164 6.54775306 8.89386164 9 9 C9.33 8.34 9.66 7.68 10 7 C12.31 7 14.62 7 17 7 C16.79375 6.401875 16.5875 5.80375 16.375 5.1875 C16 3 16 3 18 0 C18.66 0 19.32 0 20 0 C19.67 2.64 19.34 5.28 19 8 C17.02 8.33 15.04 8.66 13 9 C12.34 11.31 11.68 13.62 11 16 C8.525 15.505 8.525 15.505 6 15 C6 14.34 6 13.68 6 13 C4.68 12.67 3.36 12.34 2 12 C2.66 14.31 3.32 16.62 4 19 C3.071875 18.773125 2.14375 18.54625 1.1875 18.3125 C0.135625 18.209375 -0.91625 18.10625 -2 18 C-3.66666667 19.33333333 -3.66666667 19.33333333 -5 21 C-7.1875 21.6875 -7.1875 21.6875 -9 22 C-9 21.34 -9 20.68 -9 20 C-11.09051819 21.05413634 -11.09051819 21.05413634 -13 23 C-13.70124774 26.18596662 -13.70124774 26.18596662 -13.75 29.6875 C-13.80671875 30.86699219 -13.8634375 32.04648438 -13.921875 33.26171875 C-13.94765625 34.16535156 -13.9734375 35.06898437 -14 36 C-15.98 36.495 -15.98 36.495 -18 37 C-18 35.35 -18 33.7 -18 32 C-19.87880872 32.04768403 -19.87880872 32.04768403 -22 33 C-24.26325246 35.97763043 -24.26325246 35.97763043 -26 39 C-27.65 38.67 -29.3 38.34 -31 38 C-31 34.37 -31 30.74 -31 27 C-30.08476562 26.66226563 -29.16953125 26.32453125 -28.2265625 25.9765625 C-27.03804687 25.53054687 -25.84953125 25.08453125 -24.625 24.625 C-23.44164062 24.18414062 -22.25828125 23.74328125 -21.0390625 23.2890625 C-17.95506554 22.2049658 -17.95506554 22.2049658 -16 20 C-14.55154051 19.69800459 -13.09040976 19.45447578 -11.625 19.25 C-7.67776608 18.47702642 -7.19705187 18.2526306 -4.5625 14.875 C-4.046875 13.92625 -3.53125 12.9775 -3 12 C-2.34 12 -1.68 12 -1 12 C-0.67 8.04 -0.34 4.08 0 0 Z " fill="#606667" transform="translate(31,52)"/>
<path d="M0 0 C0.66 0 1.32 0 2 0 C2.12375 0.53625 2.2475 1.0725 2.375 1.625 C3.12206016 4.4638286 4.05303364 7.22223202 5 10 C5.99 10 6.98 10 8 10 C8 11.32 8 12.64 8 14 C8.99 14 9.98 14 11 14 C10.91291331 15.45945288 10.80473093 16.91765868 10.6875 18.375 C10.60048828 19.59316406 10.60048828 19.59316406 10.51171875 20.8359375 C10 23 10 23 7 25 C6.67 22.36 6.34 19.72 6 17 C-3.72911448 15.60120562 -13.14183749 14.69615253 -23 15 C-22.125 8.125 -22.125 8.125 -21 7 C-17.92931774 6.79649381 -14.86067394 6.68052389 -11.78515625 6.57421875 C-8.86281891 6.30989667 -8.86281891 6.30989667 -7.62109375 3.95703125 C-7.41613281 3.31121094 -7.21117187 2.66539063 -7 2 C-5.02 2 -3.04 2 -1 2 C-0.67 1.34 -0.34 0.68 0 0 Z " fill="#1D1F1D" transform="translate(65,13)"/>
<path d="M0 0 C0.99 0 1.98 0 3 0 C3 0.99 3 1.98 3 3 C4.65 2.67 6.3 2.34 8 2 C8 2.99 8 3.98 8 5 C8.61875 5.0825 9.2375 5.165 9.875 5.25 C12 6 12 6 13.125 7.9375 C13.41375 8.618125 13.7025 9.29875 14 10 C14.66 10.66 15.32 11.32 16 12 C15.01 12.33 14.02 12.66 13 13 C12.67 13.99 12.34 14.98 12 16 C6.84966321 18.5751684 0.64607698 18.82430951 -5 18 C-6.64453125 16.54296875 -6.64453125 16.54296875 -8 15 C-8.99 14.67 -9.98 14.34 -11 14 C-11 15.32 -11 16.64 -11 18 C-12.98 17.34 -14.96 16.68 -17 16 C-16.34 15.67 -15.68 15.34 -15 15 C-15.99 12.36 -16.98 9.72 -18 7 C-13.125 8.75 -13.125 8.75 -12 11 C-9.97536745 11.65213292 -9.97536745 11.65213292 -8 12 C-7.855625 10.865625 -7.71125 9.73125 -7.5625 8.5625 C-7 5 -7 5 -6 4 C-4.00041636 3.95919217 -1.99954746 3.95745644 0 4 C0 2.68 0 1.36 0 0 Z " fill="#6D5046" transform="translate(50,56)"/>
<path d="M0 0 C7.26 0 14.52 0 22 0 C23.125 11.25 23.125 11.25 22 17 C18.21479387 16.45925627 16.40822445 14.92427254 14 12 C14 11.01 14 10.02 14 9 C11.69 8.67 9.38 8.34 7 8 C7 7.01 7 6.02 7 5 C4.69 5 2.38 5 0 5 C0 3.35 0 1.7 0 0 Z " fill="#133F2B" transform="translate(55,0)"/>
<path d="M0 0 C2.475 0.495 2.475 0.495 5 1 C5 3.64 5 6.28 5 9 C4.01 9 3.02 9 2 9 C2.185625 10.0725 2.37125 11.145 2.5625 12.25 C2.9304568 15.40391546 3.04465343 17.09818492 2 20 C2.66 20 3.32 20 4 20 C4 16.7 4 13.4 4 10 C5.32 10.33 6.64 10.66 8 11 C8 11.66 8 12.32 8 13 C8.02320313 13.71671875 8.04640625 14.4334375 8.0703125 15.171875 C8.17734085 20.21749743 7.99396385 24.26433586 6 29 C7.32 29.66 8.64 30.32 10 31 C9.67 31.66 9.34 32.32 9 33 C6.03 33.66 3.06 34.32 0 35 C0 23.45 0 11.9 0 0 Z " fill="#185938" transform="translate(0,44)"/>
<path d="M0 0 C0.66 0 1.32 0 2 0 C2 0.99 2 1.98 2 3 C1.01 3 0.02 3 -1 3 C-1 5.31 -1 7.62 -1 10 C-0.01 10 0.98 10 2 10 C2 8.35 2 6.7 2 5 C2.99 5 3.98 5 5 5 C5.3690205 16.52164009 5.3690205 16.52164009 3 22 C2.34 22 1.68 22 1 22 C0.566875 23.423125 0.566875 23.423125 0.125 24.875 C-1 28 -1 28 -3 30 C-6.87098252 21.53632635 -6.49574161 12.88570075 -4 4 C-3.34 4 -2.68 4 -2 4 C-1.34 2.68 -0.68 1.36 0 0 Z " fill="#272B2A" transform="translate(36,14)"/>
<path d="M0 0 C0.8353125 0.37125 0.8353125 0.37125 1.6875 0.75 C2.28482819 3.51264289 2.6875 5.91032769 2.6875 8.75 C0.875 9.8125 0.875 9.8125 -1.3125 10.75 C-2.3025 10.42 -3.2925 10.09 -4.3125 9.75 C-3.735 10.87019531 -3.1575 11.99039063 -2.5625 13.14453125 C-1.81218395 14.6170265 -1.06220125 16.08969164 -0.3125 17.5625 C0.25984375 18.66948242 0.25984375 18.66948242 0.84375 19.79882812 C1.2046875 20.51103516 1.565625 21.22324219 1.9375 21.95703125 C2.27265625 22.6116333 2.6078125 23.26623535 2.953125 23.94067383 C3.6875 25.75 3.6875 25.75 3.6875 28.75 C1.0475 28.75 -1.5925 28.75 -4.3125 28.75 C-7.08333712 24.37333682 -6.05380926 20.64784254 -5.40625 15.72265625 C-5.30372178 12.47165713 -6.03157916 10.69514753 -7.3125 7.75 C-7.3125 3.75 -7.3125 3.75 -5.0625 1.4375 C-2.3125 -0.25 -2.3125 -0.25 0 0 Z " fill="#444647" transform="translate(31.3125,71.25)"/>
<path d="M0 0 C0.99 0 1.98 0 3 0 C2.979375 0.969375 2.95875 1.93875 2.9375 2.9375 C2.64381501 5.87465895 2.64381501 5.87465895 4 7 C5.66617115 7.04063832 7.33388095 7.042721 9 7 C8.67 6.01 8.34 5.02 8 4 C9.32 4 10.64 4 12 4 C12 4.99 12 5.98 12 7 C13.65 6.34 15.3 5.68 17 5 C16.67 5.99 16.34 6.98 16 8 C12.04 8.66 8.08 9.32 4 10 C3.67 11.98 3.34 13.96 3 16 C4.09054688 15.98259766 4.09054688 15.98259766 5.203125 15.96484375 C12.52631959 15.89912277 19.71366686 16.2765343 27 17 C23.92978775 18.77066322 21.61478099 19.27440517 18.0859375 19.37890625 C17.16039063 19.41306641 16.23484375 19.44722656 15.28125 19.48242188 C14.3221875 19.50884766 13.363125 19.53527344 12.375 19.5625 C10.46601673 19.62231481 8.55714752 19.68592845 6.6484375 19.75390625 C5.38265869 19.78979858 5.38265869 19.78979858 4.09130859 19.82641602 C1.94142511 19.87441425 1.94142511 19.87441425 0 21 C0.33 16.71 0.66 12.42 1 8 C0.01 8 -0.98 8 -2 8 C-2 9.65 -2 11.3 -2 13 C-2.99 13 -3.98 13 -5 13 C-5 10.69 -5 8.38 -5 6 C-4.01 6 -3.02 6 -2 6 C-2 4.68 -2 3.36 -2 2 C-1.34 2 -0.68 2 0 2 C0 1.34 0 0.68 0 0 Z " fill="#484946" transform="translate(40,11)"/>
<path d="M0 0 C1.31000977 -0.00193359 1.31000977 -0.00193359 2.64648438 -0.00390625 C3.56107422 -0.00003906 4.47566406 0.00382812 5.41796875 0.0078125 C6.32095703 0.00394531 7.22394531 0.00007813 8.15429688 -0.00390625 C12.4255874 0.00237044 16.44488757 0.03379106 20.60546875 1.1328125 C20.27546875 2.4528125 19.94546875 3.7728125 19.60546875 5.1328125 C18.34734375 5.1534375 17.08921875 5.1740625 15.79296875 5.1953125 C15.08527344 5.20691406 14.37757812 5.21851563 13.6484375 5.23046875 C11.60546875 5.1328125 11.60546875 5.1328125 8.60546875 4.1328125 C7.21107211 4.06615874 5.81377 4.04743051 4.41796875 4.0703125 C3.15984375 4.0909375 1.90171875 4.1115625 0.60546875 4.1328125 C-0.05453125 6.1128125 -0.71453125 8.0928125 -1.39453125 10.1328125 C-0.81703125 9.9471875 -0.23953125 9.7615625 0.35546875 9.5703125 C2.812394 9.09257704 4.24944409 9.37551886 6.60546875 10.1328125 C6.60546875 10.7928125 6.60546875 11.4528125 6.60546875 12.1328125 C5.96609375 12.2565625 5.32671875 12.3803125 4.66796875 12.5078125 C3.98734375 12.7140625 3.30671875 12.9203125 2.60546875 13.1328125 C2.27546875 13.7928125 1.94546875 14.4528125 1.60546875 15.1328125 C4.57546875 14.4728125 7.54546875 13.8128125 10.60546875 13.1328125 C9.61546875 14.6178125 9.61546875 14.6178125 8.60546875 16.1328125 C6.44140625 16.42578125 6.44140625 16.42578125 3.98046875 16.3203125 C2.75457031 16.27970703 2.75457031 16.27970703 1.50390625 16.23828125 C0.87742187 16.20347656 0.2509375 16.16867188 -0.39453125 16.1328125 C-2.67656261 11.87993588 -4.14142155 7.78721996 -5.39453125 3.1328125 C-5.72453125 2.4728125 -6.05453125 1.8128125 -6.39453125 1.1328125 C-4.04300829 -0.04294898 -2.61936366 0.00371353 0 0 Z " fill="#C69074" transform="translate(43.39453125,34.8671875)"/>
<path d="M0 0 C-0.375 2.9375 -0.375 2.9375 -1 6 C-1.99 6.495 -1.99 6.495 -3 7 C-2.01 7.99 -1.02 8.98 0 10 C-1.65 10.66 -3.3 11.32 -5 12 C-5 11.01 -5 10.02 -5 9 C-5.99 9.33 -6.98 9.66 -8 10 C-7.67 10.99 -7.34 11.98 -7 13 C-9.875 13.125 -9.875 13.125 -13 13 C-15 11 -15 11 -15.1953125 8.8359375 C-15.17210937 8.02382812 -15.14890625 7.21171875 -15.125 6.375 C-15.10695312 5.55773437 -15.08890625 4.74046875 -15.0703125 3.8984375 C-15.04710937 3.27195312 -15.02390625 2.64546875 -15 2 C-9.87080814 -0.10428384 -5.4389165 -0.21755666 0 0 Z " fill="#6F716A" transform="translate(57,6)"/>
<path d="M0 0 C1.9375 0.3125 1.9375 0.3125 4 1 C5.08678806 4.26036419 5.39309386 7.14050652 5.6875 10.5625 C5.79449219 11.71878906 5.90148437 12.87507813 6.01171875 14.06640625 C6 17 6 17 4 19 C4 16.69 4 14.38 4 12 C3.67 13.65 3.34 15.3 3 17 C2.34 17 1.68 17 1 17 C0.67 17.66 0.34 18.32 0 19 C-0.66 19 -1.32 19 -2 19 C-2.33 19.66 -2.66 20.32 -3 21 C-2.34 21 -1.68 21 -1 21 C-1.33 21.99 -1.66 22.98 -2 24 C-6.75 23.125 -6.75 23.125 -9 22 C-9.29296875 15.9453125 -9.29296875 15.9453125 -9 14 C-5.96474514 11.97649676 -4.80573798 11.67875982 -1.3125 11.375 C-0.50425781 11.30023438 0.30398437 11.22546875 1.13671875 11.1484375 C2.05904297 11.07496094 2.05904297 11.07496094 3 11 C2.53199289 6.94393835 2.12046792 3.53411321 0 0 Z " fill="#594438" transform="translate(67,29)"/>
<path d="M0 0 C0 0.66 0 1.32 0 2 C-0.99 2.495 -0.99 2.495 -2 3 C-2.12375 4.093125 -2.2475 5.18625 -2.375 6.3125 C-3.05950132 10.35105776 -3.88399769 11.48709491 -7 14 C-6.67 14.66 -6.34 15.32 -6 16 C-7.65 16 -9.3 16 -11 16 C-11.33 16.66 -11.66 17.32 -12 18 C-15.41381454 15.76336289 -17.29903415 13.72592518 -19 10 C-19.52286666 7.00859939 -19.80860057 4.02939104 -20 1 C-18.078125 1.3125 -18.078125 1.3125 -16 2 C-15.5875 2.99 -15.175 3.98 -14.75 5 C-13.37929437 8.12302227 -13.37929437 8.12302227 -11.03515625 8.6171875 C-9.03281965 8.84944447 -7.0146791 8.93394495 -5 9 C-5 6.36 -5 3.72 -5 1 C-2 0 -2 0 0 0 Z " fill="#2C2825" transform="translate(56,74)"/>
<path d="M0 0 C2 3 2 3 2.8125 5.625 C3.204375 6.40875 3.59625 7.1925 4 8 C6.54775306 8.89386164 6.54775306 8.89386164 9 9 C9.33 8.34 9.66 7.68 10 7 C12.31 7 14.62 7 17 7 C16.79375 6.401875 16.5875 5.80375 16.375 5.1875 C16 3 16 3 18 0 C18.66 0 19.32 0 20 0 C19.67 2.64 19.34 5.28 19 8 C17.02 8.33 15.04 8.66 13 9 C12.34 11.31 11.68 13.62 11 16 C9.35 15.67 7.7 15.34 6 15 C6 14.34 6 13.68 6 13 C4.68 12.67 3.36 12.34 2 12 C2.66 14.31 3.32 16.62 4 19 C1.5625 18.1875 1.5625 18.1875 -1 17 C-2.26237731 13.21286807 -1.67558873 10.74348067 -1.0625 6.8125 C-0.86785156 5.54019531 -0.67320313 4.26789062 -0.47265625 2.95703125 C-0.31667969 1.98121094 -0.16070313 1.00539062 0 0 Z " fill="#A39182" transform="translate(31,52)"/>
<path d="M0 0 C1.00023193 0.00523682 2.00046387 0.01047363 3.03100586 0.01586914 C4.1105957 0.0190918 5.19018555 0.02231445 6.30249023 0.02563477 C8.00695312 0.03820312 8.00695312 0.03820312 9.74584961 0.05102539 C11.45611328 0.05779297 11.45611328 0.05779297 13.20092773 0.06469727 C16.02845312 0.07652792 18.85587601 0.09301129 21.68334961 0.11352539 C21.35334961 2.09352539 21.02334961 4.07352539 20.68334961 6.11352539 C12.43334961 5.78352539 4.18334961 5.45352539 -4.31665039 5.11352539 C-3.07595262 0.15073432 -3.07595262 0.15073432 0 0 Z " fill="#B58268" transform="translate(44.316650390625,29.886474609375)"/>
<path d="M0 0 C1.32 0 2.64 0 4 0 C4.13277344 1.14339844 4.26554687 2.28679688 4.40234375 3.46484375 C4.5805031 4.9557562 4.75890082 6.44664018 4.9375 7.9375 C5.02451172 8.69224609 5.11152344 9.44699219 5.20117188 10.22460938 C5.34324099 13.92187458 5.34324099 13.92187458 7 17 C7.66 13.7 8.32 10.4 9 7 C13 10 13 10 13.390625 12.04296875 C13.1953125 15.02148438 13.1953125 15.02148438 13 18 C11.35 18.66 9.7 19.32 8 20 C8 21.65 8 23.3 8 25 C7.01 25.33 6.02 25.66 5 26 C3.27676465 22.21864957 2.68119739 19.01267065 2.4375 14.875 C2.23891481 11.62468726 2.03286337 9.09859011 1 6 C0.34 6 -0.32 6 -1 6 C-1.042721 4.33388095 -1.04063832 2.66617115 -1 1 C-0.67 0.67 -0.34 0.34 0 0 Z " fill="#14AD6F" transform="translate(18,42)"/>
<path d="M0 0 C0.66 0 1.32 0 2 0 C4.23818653 3.35727979 4.3307927 4.92118605 4.5625 8.875 C4.79597385 12.6772884 5.1693885 16.27940967 6 20 C8.35953094 17.64046906 8.49141413 16.22104383 9 13 C10.32 12.67 11.64 12.34 13 12 C13 13.32 13 14.64 13 16 C12.34 16 11.68 16 11 16 C10.71125 16.78375 10.4225 17.5675 10.125 18.375 C9 21 9 21 7 23 C4.67724823 23.40047444 2.34260643 23.7397104 0 24 C-1.17571451 20.32589215 -1.07366746 16.83070817 -1 13 C0.32 12.34 1.64 11.68 3 11 C3 10.01 3 9.02 3 8 C2.34 8 1.68 8 1 8 C0.67 5.36 0.34 2.72 0 0 Z " fill="#1C816B" transform="translate(17,48)"/>
<path d="M0 0 C5.94 0 11.88 0 18 0 C18.33 1.98 18.66 3.96 19 6 C16.94921875 6.22786458 14.8984375 6.45572917 12.84765625 6.68359375 C10.98859771 6.81886614 10.98859771 6.81886614 10 8 C8.48071962 8.07179964 6.95832518 8.08392007 5.4375 8.0625 C4.61121094 8.05347656 3.78492188 8.04445313 2.93359375 8.03515625 C2.29550781 8.02355469 1.65742187 8.01195312 1 8 C0.67 5.36 0.34 2.72 0 0 Z " fill="#0F9C5E" transform="translate(37,0)"/>
<path d="M0 0 C7.70744613 1.82544777 15.79366926 7.23329402 20 14 C20.75 16.3125 20.75 16.3125 21 18 C18.36 18 15.72 18 13 18 C13 16.35 13 14.7 13 13 C12.34 13 11.68 13 11 13 C10.67 12.34 10.34 11.68 10 11 C9.34 10.855625 8.68 10.71125 8 10.5625 C7.34 10.376875 6.68 10.19125 6 10 C5.67 9.01 5.34 8.02 5 7 C4.154375 6.34 3.30875 5.68 2.4375 5 C1.633125 4.34 0.82875 3.68 0 3 C0 2.01 0 1.02 0 0 Z " fill="#4C5450" transform="translate(76,82)"/>
<path d="M0 0 C1.98 0 3.96 0 6 0 C6.33 2.64 6.66 5.28 7 8 C8.32 8 9.64 8 11 8 C11 8.99 11 9.98 11 11 C10.36191406 11.18175781 9.72382812 11.36351562 9.06640625 11.55078125 C8.24011719 11.80214844 7.41382813 12.05351562 6.5625 12.3125 C5.73878906 12.55613281 4.91507813 12.79976562 4.06640625 13.05078125 C3.38449219 13.36402344 2.70257813 13.67726563 2 14 C1.67 14.99 1.34 15.98 1 17 C-1.475 16.01 -1.475 16.01 -4 15 C-4 14.01 -4 13.02 -4 12 C-3.01 11.67 -2.02 11.34 -1 11 C-0.67 7.37 -0.34 3.74 0 0 Z " fill="#137B4A" transform="translate(31,0)"/>
<path d="M0 0 C0.99 0.33 1.98 0.66 3 1 C4.80886571 5.76017293 5.20666253 9.93676791 5 15 C6.32 15.33 7.64 15.66 9 16 C8.67 17.98 8.34 19.96 8 22 C6.68 22.33 5.36 22.66 4 23 C3.67 20.69 3.34 18.38 3 16 C1.68 15.67 0.36 15.34 -1 15 C-1.91147322 10.03753471 -1.99130954 5.95654768 -1 1 C-0.67 0.67 -0.34 0.34 0 0 Z " fill="#CEB09B" transform="translate(29,36)"/>
<path d="M0 0 C0.66 0 1.32 0 2 0 C2.33 1.98 2.66 3.96 3 6 C1.02 6.99 1.02 6.99 -1 8 C-1 7.34 -1 6.68 -1 6 C-2.65 6 -4.3 6 -6 6 C-6 6.66 -6 7.32 -6 8 C-10.95 8.33 -15.9 8.66 -21 9 C-21 9.99 -21 10.98 -21 12 C-20.34515625 11.97679687 -19.6903125 11.95359375 -19.015625 11.9296875 C-11.80337411 11.78707237 -5.07180962 12.61772657 2 14 C2 14.33 2 14.66 2 15 C-6.25 15 -14.5 15 -23 15 C-22 8 -22 8 -21 7 C-17.92931774 6.79649381 -14.86067394 6.68052389 -11.78515625 6.57421875 C-8.86281891 6.30989667 -8.86281891 6.30989667 -7.62109375 3.95703125 C-7.41613281 3.31121094 -7.21117187 2.66539063 -7 2 C-5.02 2 -3.04 2 -1 2 C-0.67 1.34 -0.34 0.68 0 0 Z " fill="#3F3630" transform="translate(65,13)"/>
<path d="M0 0 C1.65 0.33 3.3 0.66 5 1 C5.33 1.99 5.66 2.98 6 4 C8.97 4 11.94 4 15 4 C14.01 4.33 13.02 4.66 12 5 C12 7.64 12 10.28 12 13 C9.36 13 6.72 13 4 13 C3.13083113 11.59248779 2.28014851 10.1735479 1.4375 8.75 C0.72400391 7.56664063 0.72400391 7.56664063 -0.00390625 6.359375 C-1.13022151 3.69155375 -1.0169313 2.65498232 0 0 Z " fill="#543B33" transform="translate(39,70)"/>
<path d="M0 0 C1.79487005 0.0643113 3.58738778 0.20139986 5.375 0.375 C6.35210937 0.46523437 7.32921875 0.55546875 8.3359375 0.6484375 C11 1 11 1 14 2 C13.25 6.75 13.25 6.75 11 9 C8.3984375 9.1953125 8.3984375 9.1953125 5.375 9.125 C3.87066406 9.09792969 3.87066406 9.09792969 2.3359375 9.0703125 C1.56507812 9.04710938 0.79421875 9.02390625 0 9 C-1.36623674 6.26752652 -1.128426 4.01801098 -1 1 C-0.67 0.67 -0.34 0.34 0 0 Z " fill="#91705E" transform="translate(45,65)"/>
<path d="M0 0 C0.33 0 0.66 0 1 0 C1.20625 1.11375 1.4125 2.2275 1.625 3.375 C2.305625 5.169375 2.305625 5.169375 3 7 C6.01795781 8.27018294 6.01795781 8.27018294 9 9 C9.18451025 22.6332574 9.18451025 22.6332574 8 29 C5 27 5 27 4.3125 24.5 C3.90981172 19.98989131 3.91952564 15.52444708 4 11 C2.35 11 0.7 11 -1 11 C-1.0270043 9.54176788 -1.04639787 8.08339325 -1.0625 6.625 C-1.07410156 5.81289063 -1.08570312 5.00078125 -1.09765625 4.1640625 C-1 2 -1 2 0 0 Z " fill="#0E713D" transform="translate(18,31)"/>
<path d="M0 0 C0.99 0.33 1.98 0.66 3 1 C2.278125 1.680625 1.55625 2.36125 0.8125 3.0625 C-2.23455693 6.09214518 -4.57207954 9.46217304 -7 13 C-8.65 12.67 -10.3 12.34 -12 12 C-12 8.37 -12 4.74 -12 1 C-10.14375 1.309375 -10.14375 1.309375 -8.25 1.625 C-4.76852243 2.07937273 -3.05817256 1.81225041 0 0 Z " fill="#727375" transform="translate(12,78)"/>
<path d="M0 0 C0.66 0 1.32 0 2 0 C2 3.3 2 6.6 2 10 C-0.31 10 -2.62 10 -5 10 C-4.67 8.68 -4.34 7.36 -4 6 C-5.5833253 7.2488427 -5.5833253 7.2488427 -7 9 C-7 10.32 -7 11.64 -7 13 C-9.31 13 -11.62 13 -14 13 C-14.33 13.99 -14.66 14.98 -15 16 C-15.33 15.34 -15.66 14.68 -16 14 C-17.32 14.33 -18.64 14.66 -20 15 C-20.33 14.34 -20.66 13.68 -21 13 C-14.6 9.92307692 -14.6 9.92307692 -11.5625 10.3125 C-11.046875 10.539375 -10.53125 10.76625 -10 11 C-9.855625 10.38125 -9.71125 9.7625 -9.5625 9.125 C-9 7 -9 7 -8 5 C-6.5459375 4.5359375 -6.5459375 4.5359375 -5.0625 4.0625 C-1.7319557 3.25255878 -1.7319557 3.25255878 0 0 Z " fill="#CE9A84" transform="translate(55,46)"/>
<path d="M0 0 C2.0078125 0.1328125 2.0078125 0.1328125 5.0078125 1.1328125 C5.30078125 7.1875 5.30078125 7.1875 5.0078125 9.1328125 C1.5726077 11.42294903 0.0224815 11.31124223 -3.9921875 11.1328125 C-3.6621875 10.1428125 -3.3321875 9.1528125 -2.9921875 8.1328125 C-1.6721875 8.1328125 -0.3521875 8.1328125 1.0078125 8.1328125 C1.0078125 7.4728125 1.0078125 6.8128125 1.0078125 6.1328125 C-1.6321875 6.1328125 -4.2721875 6.1328125 -6.9921875 6.1328125 C-7.0349085 4.46669345 -7.03282582 2.79898365 -6.9921875 1.1328125 C-5.11159717 -0.74777783 -2.49328712 0.00920032 0 0 Z " fill="#634F41" transform="translate(48.9921875,38.8671875)"/>
<path d="M0 0 C0.66 0 1.32 0 2 0 C2.47271101 8.89397012 2.07320612 18.39019082 -3 26 C-4.32 26 -5.64 26 -7 26 C-7.33 24.02 -7.66 22.04 -8 20 C-6.35 20 -4.7 20 -3 20 C-1.515 14.555 -1.515 14.555 0 9 C-0.99 9.33 -1.98 9.66 -3 10 C-3.66 9.67 -4.32 9.34 -5 9 C-4.67 8.01 -4.34 7.02 -4 6 C-2.35 5.67 -0.7 5.34 1 5 C0.67 3.35 0.34 1.7 0 0 Z " fill="#8E8168" transform="translate(69,41)"/>
<path d="M0 0 C3.58237455 4.67266246 4.11073636 7.02023637 4 13 C4.99 13.33 5.98 13.66 7 14 C6.67 14.66 6.34 15.32 6 16 C5.01 15.34 4.02 14.68 3 14 C3 13.34 3 12.68 3 12 C2.236875 11.855625 1.47375 11.71125 0.6875 11.5625 C-2 11 -2 11 -5 10 C-4.67 8.35 -4.34 6.7 -4 5 C-3.34 5 -2.68 5 -2 5 C-2 3.68 -2 2.36 -2 1 C-1.34 0.67 -0.68 0.34 0 0 Z " fill="#132A1F" transform="translate(68,65)"/>
<path d="M0 0 C0.66 0 1.32 0 2 0 C3.25981943 8.6612586 3.09020653 17.27001243 3 26 C2.01 26 1.02 26 0 26 C0 17.42 0 8.84 0 0 Z " fill="#1D4F40" transform="translate(0,14)"/>
<path d="M0 0 C0 0.66 0 1.32 0 2 C-0.99 2.495 -0.99 2.495 -2 3 C-2.12375 4.093125 -2.2475 5.18625 -2.375 6.3125 C-3.05950132 10.35105776 -3.88399769 11.48709491 -7 14 C-6.67 14.66 -6.34 15.32 -6 16 C-7.32 16 -8.64 16 -10 16 C-10 14.35 -10 12.7 -10 11 C-12.97 10.505 -12.97 10.505 -16 10 C-16 8.02 -16 6.04 -16 4 C-15.505 4.9590625 -15.505 4.9590625 -15 5.9375 C-11.97670168 9.0552764 -9.26343276 8.72043064 -5 9 C-5 6.36 -5 3.72 -5 1 C-2 0 -2 0 0 0 Z " fill="#352821" transform="translate(56,74)"/>
<path d="M0 0 C0.99 0 1.98 0 3 0 C3.3690205 11.52164009 3.3690205 11.52164009 1 17 C0.34 17 -0.32 17 -1 17 C-1.433125 18.423125 -1.433125 18.423125 -1.875 19.875 C-3 23 -3 23 -5 25 C-5.66 21.7 -6.32 18.4 -7 15 C-6.67 15.66 -6.34 16.32 -6 17 C-2.45706334 15.13529649 -0.22771183 13.90635582 1 10 C1.22147948 6.45632834 1.04493919 3.39605237 0 0 Z " fill="#4C393A" transform="translate(38,19)"/>
<path d="M0 0 C0.99 0 1.98 0 3 0 C4.53515625 2.01171875 4.53515625 2.01171875 6.0625 4.6875 C6.56910156 5.55761719 7.07570313 6.42773438 7.59765625 7.32421875 C9.78445893 11.49680883 11 14.22804279 11 19 C10.01 19 9.02 19 8 19 C7.67386719 18.19175781 7.34773438 17.38351563 7.01171875 16.55078125 C6.57472656 15.48214844 6.13773438 14.41351563 5.6875 13.3125 C5.25824219 12.25675781 4.82898438 11.20101562 4.38671875 10.11328125 C3.07381037 6.99437593 3.07381037 6.99437593 1.33203125 4.23046875 C0 2 0 2 0 0 Z " fill="#262729" transform="translate(27,81)"/>
<path d="M0 0 C0.66 0 1.32 0 2 0 C2 0.99 2 1.98 2 3 C1.01 3 0.02 3 -1 3 C-1 5.31 -1 7.62 -1 10 C-0.34 10.33 0.32 10.66 1 11 C0.566875 11.391875 0.13375 11.78375 -0.3125 12.1875 C-2.25874318 14.27790934 -3.54437028 16.55189548 -5 19 C-5.33 19 -5.66 19 -6 19 C-5.85816304 17.24967156 -5.71136571 15.49974466 -5.5625 13.75 C-5.48128906 12.77546875 -5.40007813 11.8009375 -5.31640625 10.796875 C-5.04925416 8.43538247 -4.64628032 6.28098935 -4 4 C-3.34 4 -2.68 4 -2 4 C-1.34 2.68 -0.68 1.36 0 0 Z " fill="#2F3A35" transform="translate(36,14)"/>
<path d="M0 0 C4 1 4 1 6 4 C6.07905064 6.33199388 6.08798769 8.66832622 6 11 C4.02 11 2.04 11 0 11 C0 7.37 0 3.74 0 0 Z " fill="#66676A" transform="translate(19,77)"/>
<path d="M0 0 C7.28044855 0.01888573 14.45465561 0.41349417 21.69921875 1.1328125 C18.6290065 2.90347572 16.31399974 3.40721767 12.78515625 3.51171875 C11.85960938 3.54587891 10.9340625 3.58003906 9.98046875 3.61523438 C9.02140625 3.64166016 8.06234375 3.66808594 7.07421875 3.6953125 C5.16523548 3.75512731 3.25636627 3.81874095 1.34765625 3.88671875 C0.50380371 3.91064697 -0.34004883 3.9345752 -1.20947266 3.95922852 C-3.35935614 4.00722675 -3.35935614 4.00722675 -5.30078125 5.1328125 C-2.89811068 0.16729332 -2.89811068 0.16729332 0 0 Z " fill="#785443" transform="translate(45.30078125,26.8671875)"/>
<path d="M0 0 C0 3 0 3 -1 6 C-0.34 6 0.32 6 1 6 C1.12375 5.360625 1.2475 4.72125 1.375 4.0625 C1.58125 3.381875 1.7875 2.70125 2 2 C2.66 1.67 3.32 1.34 4 1 C5.29676812 5.61073111 4.71109139 9.33840089 4 14 C3.34 13.34 2.68 12.68 2 12 C-0.10820797 12.3185177 -0.10820797 12.3185177 -2 13 C-2.05391993 11.20866022 -2.09275571 9.41686101 -2.125 7.625 C-2.14820312 6.62726562 -2.17140625 5.62953125 -2.1953125 4.6015625 C-2 2 -2 2 0 0 Z " fill="#154029" transform="translate(74,36)"/>
<path d="M0 0 C4.40431982 2.20215991 5.5721404 3.83795497 8 8 C8 8.66 8 9.32 8 10 C5.36 10 2.72 10 0 10 C0 6.7 0 3.4 0 0 Z " fill="#B7C1C0" transform="translate(89,90)"/>
<path d="M0 0 C0.99 0.33 1.98 0.66 3 1 C3.80078125 2.99609375 3.80078125 2.99609375 4.3125 5.4375 C4.49425781 6.24058594 4.67601562 7.04367188 4.86328125 7.87109375 C4.90839844 8.57363281 4.95351563 9.27617188 5 10 C4.34 10.66 3.68 11.32 3 12 C3 11.34 3 10.68 3 10 C2.34 10 1.68 10 1 10 C1 10.66 1 11.32 1 12 C0.01 12.33 -0.98 12.66 -2 13 C-1.85966889 11.02043559 -1.7125877 9.04134859 -1.5625 7.0625 C-1.48128906 5.96035156 -1.40007813 4.85820313 -1.31640625 3.72265625 C-1 1 -1 1 0 0 Z " fill="#B99B86" transform="translate(29,36)"/>
<path d="M0 0 C1.98 0 3.96 0 6 0 C6 0.99 6 1.98 6 3 C6.928125 3.2165625 6.928125 3.2165625 7.875 3.4375 C10 4 10 4 12 5 C12 5.66 12 6.32 12 7 C7.545 6.01 7.545 6.01 3 5 C3 6.32 3 7.64 3 9 C2.01 8.67 1.02 8.34 0 8 C0 5.36 0 2.72 0 0 Z " fill="#5A7266" transform="translate(56,5)"/>
<path d="M0 0 C0.66 0 1.32 0 2 0 C1.34 3.96 0.68 7.92 0 12 C-2.97 11.67 -5.94 11.34 -9 11 C-9 10.01 -9 9.02 -9 8 C-10.65 8.33 -12.3 8.66 -14 9 C-14 8.34 -14 7.68 -14 7 C-12.02 7 -10.04 7 -8 7 C-8 7.99 -8 8.98 -8 10 C-6.02 9.67 -4.04 9.34 -2 9 C-1.67 7.35 -1.34 5.7 -1 4 C-3.64 4.33 -6.28 4.66 -9 5 C-9 3.68 -9 2.36 -9 1 C-7.88625 1.20625 -6.7725 1.4125 -5.625 1.625 C-4.42875 1.74875 -3.2325 1.8725 -2 2 C-1.34 1.34 -0.68 0.68 0 0 Z " fill="#AC7C64" transform="translate(67,50)"/>
<path d="M0 0 C2.97 0 5.94 0 9 0 C9 0.99 9 1.98 9 3 C8.34 3.66 7.68 4.32 7 5 C7 5.99 7 6.98 7 8 C5.02 8 3.04 8 1 8 C0.67 5.36 0.34 2.72 0 0 Z " fill="#0A9453" transform="translate(37,0)"/>
<path d="M0 0 C1.77706209 2.66559313 2.87548273 5.0280615 4 8 C2.68 9.32 1.36 10.64 0 12 C-0.33 11.34 -0.66 10.68 -1 10 C-1.66 10 -2.32 10 -3 10 C-3 7.03 -3 4.06 -3 1 C-2.01 0.67 -1.02 0.34 0 0 Z " fill="#E8B8A0" transform="translate(37,41)"/>
<path d="M0 0 C0.99 0 1.98 0 3 0 C3 1.32 3 2.64 3 4 C3.99 4 4.98 4 6 4 C5.91291331 5.45945288 5.80473093 6.91765868 5.6875 8.375 C5.62949219 9.18710937 5.57148437 9.99921875 5.51171875 10.8359375 C5 13 5 13 2 15 C1.87625 13.081875 1.87625 13.081875 1.75 11.125 C1.54130069 8.94666582 1.54130069 8.94666582 1 7 C-0.92064793 5.4100567 -0.92064793 5.4100567 -3 5 C-1.68 5 -0.36 5 1 5 C0.67 3.35 0.34 1.7 0 0 Z " fill="#313228" transform="translate(70,23)"/>
<path d="M0 0 C2.4375 0.375 2.4375 0.375 5 1 C5.33 1.66 5.66 2.32 6 3 C5.34 3 4.68 3 4 3 C4 6.63 4 10.26 4 14 C3.01 14.495 3.01 14.495 2 15 C0.68 13.68 -0.64 12.36 -2 11 C-0.68 9.35 0.64 7.7 2 6 C1.34 5.34 0.68 4.68 0 4 C0 2.68 0 1.36 0 0 Z " fill="#404140" transform="translate(32,72)"/>
<path d="M0 0 C1.32 0.33 2.64 0.66 4 1 C4 1.66 4 2.32 4 3 C4.03480469 3.71671875 4.06960937 4.4334375 4.10546875 5.171875 C4.27862732 10.6140016 3.99967618 14.25051272 1 19 C0.67 19 0.34 19 0 19 C0 16.69 0 14.38 0 12 C-0.66 12 -1.32 12 -2 12 C-2 11.34 -2 10.68 -2 10 C-1.34 10 -0.68 10 0 10 C0 6.7 0 3.4 0 0 Z " fill="#10603C" transform="translate(4,54)"/>
<path d="M0 0 C0.66 0.99 1.32 1.98 2 3 C5.58357241 3.25015873 5.58357241 3.25015873 9 3 C9.042721 4.66611905 9.04063832 6.33382885 9 8 C8 9 8 9 4.9375 9.0625 C3.968125 9.041875 2.99875 9.02125 2 9 C2 8.01 2 7.02 2 6 C0.02 6 -1.96 6 -4 6 C-2.68 5.67 -1.36 5.34 0 5 C0 3.35 0 1.7 0 0 Z " fill="#C88D75" transform="translate(57,51)"/>
<path d="M0 0 C6.93 0 13.86 0 21 0 C20.01 1.485 20.01 1.485 19 3 C17.06054688 3.32470703 17.06054688 3.32470703 14.71875 3.2578125 C13.45611328 3.23654297 13.45611328 3.23654297 12.16796875 3.21484375 C11.28753906 3.18519531 10.40710937 3.15554687 9.5 3.125 C7.76051689 3.08170393 6.02092714 3.0424462 4.28125 3.0078125 C3.50845703 2.98348145 2.73566406 2.95915039 1.93945312 2.93408203 C-0.08317938 2.86801747 -0.08317938 2.86801747 -2 4 C-1.34 2.68 -0.68 1.36 0 0 Z " fill="#9C6F5C" transform="translate(42,30)"/>
<path d="M0 0 C2.97 0.33 5.94 0.66 9 1 C9 3.97 9 6.94 9 10 C8.01 10 7.02 10 6 10 C4.6484375 8.3203125 4.6484375 8.3203125 3.375 6.125 C2.94960937 5.40570313 2.52421875 4.68640625 2.0859375 3.9453125 C1.36083834 2.64639386 0.66527565 1.3305513 0 0 Z " fill="#175A3D" transform="translate(91,90)"/>
<path d="M0 0 C0.99 0 1.98 0 3 0 C3 0.99 3 1.98 3 3 C4.65 2.67 6.3 2.34 8 2 C7.67 2.99 7.34 3.98 7 5 C5.35 4.67 3.7 4.34 2 4 C2.95865509 6.33075929 2.95865509 6.33075929 6 8 C3.5332355 8.88336837 2.36140628 9.1312406 -0.140625 8.22265625 C-0.83671875 7.83980469 -1.5328125 7.45695312 -2.25 7.0625 C-2.95640625 6.68222656 -3.6628125 6.30195312 -4.390625 5.91015625 C-4.92171875 5.60980469 -5.4528125 5.30945312 -6 5 C-6 4.67 -6 4.34 -6 4 C-4.02 4 -2.04 4 0 4 C0 2.68 0 1.36 0 0 Z " fill="#806152" transform="translate(50,56)"/>
<path d="M0 0 C0.66 0 1.32 0 2 0 C1.67 2.64 1.34 5.28 1 8 C-0.98 8.33 -2.96 8.66 -5 9 C-5.33 9.99 -5.66 10.98 -6 12 C-11.75 11.25 -11.75 11.25 -14 9 C-12.0625 8.4375 -12.0625 8.4375 -10 8 C-9.67 8.33 -9.34 8.66 -9 9 C-8.67 8.34 -8.34 7.68 -8 7 C-5.69 7 -3.38 7 -1 7 C-1.20625 6.401875 -1.4125 5.80375 -1.625 5.1875 C-2 3 -2 3 0 0 Z " fill="#B98B76" transform="translate(49,52)"/>
<path d="M0 0 C0.33 0 0.66 0 1 0 C1 1.65 1 3.3 1 5 C1.5775 4.814375 2.155 4.62875 2.75 4.4375 C5.20692525 3.95976454 6.64397534 4.24270636 9 5 C9 5.66 9 6.32 9 7 C8.360625 7.12375 7.72125 7.2475 7.0625 7.375 C6.0415625 7.684375 6.0415625 7.684375 5 8 C4.67 8.66 4.34 9.32 4 10 C6.97 9.34 9.94 8.68 13 8 C12.01 9.485 12.01 9.485 11 11 C8.8359375 11.29296875 8.8359375 11.29296875 6.375 11.1875 C5.55773438 11.16042969 4.74046875 11.13335937 3.8984375 11.10546875 C3.27195312 11.07066406 2.64546875 11.03585938 2 11 C-1.07692308 5.70769231 -1.07692308 5.70769231 -0.6875 2.125 C-0.460625 1.42375 -0.23375 0.7225 0 0 Z " fill="#AA8173" transform="translate(41,40)"/>
<path d="M0 0 C1.98 0 3.96 0 6 0 C5.45773019 3.79588866 3.79872437 5.47211993 1 8 C0.67 7.34 0.34 6.68 0 6 C-0.99 6.33 -1.98 6.66 -3 7 C-2.67 5.35 -2.34 3.7 -2 2 C-1.34 2 -0.68 2 0 2 C0 1.34 0 0.68 0 0 Z " fill="#1E201D" transform="translate(56,74)"/>
<path d="M0 0 C4.75 0.75 4.75 0.75 7 3 C7.125 6.125 7.125 6.125 7 9 C6.34 9 5.68 9 5 9 C4.67 9.66 4.34 10.32 4 11 C3.67 9.02 3.34 7.04 3 5 C2.01 5 1.02 5 0 5 C0 3.35 0 1.7 0 0 Z " fill="#16BC6E" transform="translate(20,31)"/>
<path d="M0 0 C0.33 0.66 0.66 1.32 1 2 C0.34 2 -0.32 2 -1 2 C-1.33 3.65 -1.66 5.3 -2 7 C-1.236875 7.144375 -0.47375 7.28875 0.3125 7.4375 C3 8 3 8 6 9 C6.33 9.99 6.66 10.98 7 12 C2.545 11.01 2.545 11.01 -2 10 C-2.33 8.68 -2.66 7.36 -3 6 C-4.98 6 -6.96 6 -9 6 C-8.67 5.34 -8.34 4.68 -8 4 C-7.21625 3.855625 -6.4325 3.71125 -5.625 3.5625 C-2.74874279 2.94615917 -1.83615293 2.22271144 0 0 Z " fill="#2D372F" transform="translate(65,68)"/>
<path d="M0 0 C0.66 0 1.32 0 2 0 C2 3.3 2 6.6 2 10 C-0.31 10 -2.62 10 -5 10 C-5 9.34 -5 8.68 -5 8 C-4.34 8 -3.68 8 -3 8 C-2.87625 7.236875 -2.7525 6.47375 -2.625 5.6875 C-2 3 -2 3 0 0 Z " fill="#E9B39F" transform="translate(55,46)"/>
<path d="M0 0 C1.9375 0.3125 1.9375 0.3125 4 1 C5.08678806 4.26036419 5.39309386 7.14050652 5.6875 10.5625 C5.79449219 11.71878906 5.90148437 12.87507813 6.01171875 14.06640625 C6 17 6 17 4 19 C4 16.69 4 14.38 4 12 C3.01 12.495 3.01 12.495 2 13 C-0.6723621 13.13415472 -3.32250488 13.04318541 -6 13 C-6 12.67 -6 12.34 -6 12 C-1.545 11.505 -1.545 11.505 3 11 C2.53199289 6.94393835 2.12046792 3.53411321 0 0 Z " fill="#75684F" transform="translate(67,29)"/>
<path d="M0 0 C2 1 2 1 4 3 C4.36933645 5.75372909 4.18336678 8.20365661 4 11 C2.35 11 0.7 11 -1 11 C-1.14285714 3.57142857 -1.14285714 3.57142857 0 0 Z " fill="#3DE7AF" transform="translate(27,49)"/>
<path d="M0 0 C3.3 0 6.6 0 10 0 C10 0.66 10 1.32 10 2 C9.01 2.33 8.02 2.66 7 3 C7.33 3.99 7.66 4.98 8 6 C5.125 6.125 5.125 6.125 2 6 C1.34 5.34 0.68 4.68 0 4 C0 2.68 0 1.36 0 0 Z " fill="#757672" transform="translate(42,13)"/>
<path d="M0 0 C0 0.66 0 1.32 0 2 C-3.3 3.32 -6.6 4.64 -10 6 C-10 5.34 -10 4.68 -10 4 C-11.65 4 -13.3 4 -15 4 C-15 3.34 -15 2.68 -15 2 C-9.87080814 -0.10428384 -5.4389165 -0.21755666 0 0 Z " fill="#739781" transform="translate(57,6)"/>
<path d="M0 0 C2.375 0.3125 2.375 0.3125 5 1 C7.4294516 4.6441774 7.16179575 6.71241272 7 11 C5.68 11.33 4.36 11.66 3 12 C2.67 11.01 2.34 10.02 2 9 C1.67 8.34 1.34 7.68 1 7 C1.60578253 4.98072489 2.26919734 2.97746603 3 1 C2.01 0.67 1.02 0.34 0 0 Z " fill="#A87960" transform="translate(63,29)"/>
<path d="M0 0 C1.98 0 3.96 0 6 0 C6 0.66 6 1.32 6 2 C5.34 2 4.68 2 4 2 C4 2.66 4 3.32 4 4 C4.99 4.33 5.98 4.66 7 5 C6 6 6 6 3.49609375 6.09765625 C1.98208984 6.08025391 1.98208984 6.08025391 0.4375 6.0625 C-0.57441406 6.05347656 -1.58632813 6.04445313 -2.62890625 6.03515625 C-3.41136719 6.02355469 -4.19382813 6.01195313 -5 6 C-5.33 5.01 -5.66 4.02 -6 3 C-3.03 3.495 -3.03 3.495 0 4 C0 2.68 0 1.36 0 0 Z " fill="#6F554A" transform="translate(50,68)"/>
<path d="M0 0 C3.35435922 1.38801071 5.11290303 2.88629 7 6 C7 6.99 7 7.98 7 9 C4.125 8.3125 4.125 8.3125 1 7 C-0.4375 4.5 -0.4375 4.5 -1 2 C-0.67 1.34 -0.34 0.68 0 0 Z " fill="#758B7E" transform="translate(69,13)"/>
<path d="M0 0 C0.66 0 1.32 0 2 0 C1.67 1.32 1.34 2.64 1 4 C3.31 4.66 5.62 5.32 8 6 C8 6.99 8 7.98 8 9 C7.01 9 6.02 9 5 9 C5 8.34 5 7.68 5 7 C3.7934375 7.2784375 3.7934375 7.2784375 2.5625 7.5625 C1.716875 7.706875 0.87125 7.85125 0 8 C-1 7 -1 7 -1.125 4 C-1 1 -1 1 0 0 Z " fill="#343435" transform="translate(47,91)"/>
<path d="M0 0 C0.66 0.33 1.32 0.66 2 1 C3.48245614 7.84210526 3.48245614 7.84210526 1.75 12 C1.1725 12.66 0.595 13.32 0 14 C-0.99 14 -1.98 14 -3 14 C-3.33 12.35 -3.66 10.7 -4 9 C-2.35 9 -0.7 9 1 9 C0.67 6.03 0.34 3.06 0 0 Z " fill="#5B5B5D" transform="translate(24,79)"/>
<path d="M0 0 C0.33 0 0.66 0 1 0 C1.36923077 5.53846154 1.36923077 5.53846154 -0.5 7.875 C-0.995 8.24625 -1.49 8.6175 -2 9 C-2.99 8.67 -3.98 8.34 -5 8 C-3.68 6.68 -2.36 5.36 -1 4 C-2.8871875 4.5878125 -2.8871875 4.5878125 -4.8125 5.1875 C-6.95703125 5.85546875 -6.95703125 5.85546875 -9 6 C-10.76171875 4.55078125 -10.76171875 4.55078125 -12 3 C-10.82630859 2.80083984 -10.82630859 2.80083984 -9.62890625 2.59765625 C-8.61699219 2.42105469 -7.60507813 2.24445313 -6.5625 2.0625 C-5.55316406 1.88847656 -4.54382813 1.71445313 -3.50390625 1.53515625 C-1.0712562 1.25248903 -1.0712562 1.25248903 0 0 Z " fill="#6A6C6A" transform="translate(15,75)"/>
<path d="M0 0 C3.13107836 3.38583802 3.33550778 5.71109462 3.1875 10.25 C3.16042969 11.32765625 3.13335938 12.4053125 3.10546875 13.515625 C3.07066406 14.33546875 3.03585938 15.1553125 3 16 C2.01 15.34 1.02 14.68 0 14 C-0.29296875 10.7421875 -0.29296875 10.7421875 -0.1875 6.875 C-0.16042969 5.59367187 -0.13335938 4.31234375 -0.10546875 2.9921875 C-0.07066406 2.00476562 -0.03585938 1.01734375 0 0 Z " fill="#07532D" transform="translate(23,44)"/>
<path d="M0 0 C1.32 0 2.64 0 4 0 C4 3.3 4 6.6 4 10 C3.01 9.34 2.02 8.68 1 8 C1 7.34 1 6.68 1 6 C0.34 6 -0.32 6 -1 6 C-1.042721 4.33388095 -1.04063832 2.66617115 -1 1 C-0.67 0.67 -0.34 0.34 0 0 Z " fill="#13C373" transform="translate(18,42)"/>
<path d="M0 0 C1.65 0.33 3.3 0.66 5 1 C4.01 1.33 3.02 1.66 2 2 C2 2.99 2 3.98 2 5 C2.94875 5.268125 3.8975 5.53625 4.875 5.8125 C8 7 8 7 10 10 C5.70091749 10 3.62932713 8.2851319 0 6 C-1.24546405 3.50907189 -0.7767578 2.58919267 0 0 Z " fill="#5C443A" transform="translate(39,70)"/>
<path d="M0 0 C0.66 0.33 1.32 0.66 2 1 C1.34 3.31 0.68 5.62 0 8 C0.66 8 1.32 8 2 8 C2 7.01 2 6.02 2 5 C2.99 5.33 3.98 5.66 5 6 C5 6.66 5 7.32 5 8 C5.66 8 6.32 8 7 8 C6.67 8.99 6.34 9.98 6 11 C1.25 10.125 1.25 10.125 -1 9 C-1.09765625 2.84765625 -1.09765625 2.84765625 -1 1 C-0.67 0.67 -0.34 0.34 0 0 Z " fill="#82594E" transform="translate(59,42)"/>
<path d="M0 0 C5.445 1.485 5.445 1.485 11 3 C10.67 4.32 10.34 5.64 10 7 C8.35 6.67 6.7 6.34 5 6 C5 5.34 5 4.68 5 4 C2.525 3.01 2.525 3.01 0 2 C0 1.34 0 0.68 0 0 Z " fill="#987467" transform="translate(32,61)"/>
<path d="M0 0 C0.99 0 1.98 0 3 0 C3.28571429 7.42857143 3.28571429 7.42857143 1 11 C-1.43769218 7.34346173 -1.23944439 5.30999899 -1 1 C-0.67 0.67 -0.34 0.34 0 0 Z " fill="#048872" transform="translate(17,60)"/>
<path d="M0 0 C0.33 0.66 0.66 1.32 1 2 C0.06553465 4.03144641 -0.93224776 6.03533587 -2 8 C-3.32 8 -4.64 8 -6 8 C-6.33 6.02 -6.66 4.04 -7 2 C-6.21625 2.04125 -5.4325 2.0825 -4.625 2.125 C-1.83883881 2.28728734 -1.83883881 2.28728734 0 0 Z " fill="#917157" transform="translate(68,59)"/>
<path d="M0 0 C1.15906703 3.47720109 0.99457073 5.91431987 0.75 9.5625 C0.64945313 11.29693359 0.64945313 11.29693359 0.546875 13.06640625 C0.36640625 14.03449219 0.1859375 15.00257812 0 16 C-0.99 16.66 -1.98 17.32 -3 18 C-4.3811915 13.44206806 -3.48493554 10.45480663 -2 6 C-1.62875 4.865625 -1.2575 3.73125 -0.875 2.5625 C-0.58625 1.716875 -0.2975 0.87125 0 0 Z " fill="#2C684A" transform="translate(31,19)"/>
<path d="M0 0 C-0.33 0.66 -0.66 1.32 -1 2 C-1.66 2 -2.32 2 -3 2 C-3.33 2.99 -3.66 3.98 -4 5 C-5.32 4.67 -6.64 4.34 -8 4 C-7.67 2.68 -7.34 1.36 -7 0 C-7.99 -0.33 -8.98 -0.66 -10 -1 C-5.94568308 -2.15837626 -3.78187881 -1.83691257 0 0 Z " fill="#6F5546" transform="translate(66,67)"/>
<path d="M0 0 C2.97 0.33 5.94 0.66 9 1 C9.33 2.32 9.66 3.64 10 5 C9 6 9 6 6.4375 6.0625 C5.2309375 6.0315625 5.2309375 6.0315625 4 6 C4.33 5.01 4.66 4.02 5 3 C3.35 2.67 1.7 2.34 0 2 C0 1.34 0 0.68 0 0 Z " fill="#584037" transform="translate(52,60)"/>
<path d="M0 0 C0.99 0 1.98 0 3 0 C3.1875 2.375 3.1875 2.375 3 5 C-0.4352048 7.29013653 -1.985331 7.17842973 -6 7 C-5.67 6.01 -5.34 5.02 -5 4 C-3.35 4 -1.7 4 0 4 C0 2.68 0 1.36 0 0 Z " fill="#8A5D4D" transform="translate(51,43)"/>
<path d="M0 0 C1.9375 0.375 1.9375 0.375 4 1 C4.33 1.66 4.66 2.32 5 3 C6.65 3 8.3 3 10 3 C10 3.66 10 4.32 10 5 C6.37 5 2.74 5 -1 5 C-0.67 3.35 -0.34 1.7 0 0 Z " fill="#262828" transform="translate(42,95)"/>
<path d="M0 0 C1.36511719 0.29197266 1.36511719 0.29197266 2.7578125 0.58984375 C3.45648438 0.74582031 4.15515625 0.90179688 4.875 1.0625 C4.875 1.3925 4.875 1.7225 4.875 2.0625 C4.30910156 2.17207031 3.74320313 2.28164063 3.16015625 2.39453125 C2.05994141 2.63236328 2.05994141 2.63236328 0.9375 2.875 C0.20660156 3.02582031 -0.52429687 3.17664062 -1.27734375 3.33203125 C-1.88707031 3.57308594 -2.49679688 3.81414063 -3.125 4.0625 C-3.455 5.0525 -3.785 6.0425 -4.125 7.0625 C-4.434375 6.27875 -4.74375 5.495 -5.0625 4.6875 C-6.05375038 2.13919872 -6.05375038 2.13919872 -7.125 0.0625 C-4.4030754 -1.2984623 -2.9418043 -0.64116248 0 0 Z " fill="#C19887" transform="translate(44.125,35.9375)"/>
<path d="M0 0 C2.97 0.33 5.94 0.66 9 1 C8.67 2.65 8.34 4.3 8 6 C6.68 6 5.36 6 4 6 C4 5.34 4 4.68 4 4 C4.66 4 5.32 4 6 4 C6 3.34 6 2.68 6 2 C4.02 2 2.04 2 0 2 C0 1.34 0 0.68 0 0 Z " fill="#89645A" transform="translate(50,66)"/>
<path d="M0 0 C0.99 0.33 1.98 0.66 3 1 C3 2.32 3 3.64 3 5 C3.66 5 4.32 5 5 5 C5 5.99 5 6.98 5 8 C3.0625 8.5625 3.0625 8.5625 1 9 C0 8 0 8 -0.09765625 6.15234375 C-0.06510417 4.1015625 -0.03255208 2.05078125 0 0 Z " fill="#0D4735" transform="translate(15,51)"/>
<path d="M0 0 C2.46800047 1.15173355 4.04783565 2.04783565 6 4 C6 4.99 6 5.98 6 7 C4.02 7.99 4.02 7.99 2 9 C0.9986012 5.99580359 0.48578543 3.12290635 0 0 Z " fill="#D6E5E5" transform="translate(89,90)"/>
<path d="M0 0 C0.99 0.33 1.98 0.66 3 1 C3 3.64 3 6.28 3 9 C2.01 9.33 1.02 9.66 0 10 C0 6.7 0 3.4 0 0 Z " fill="#716F73" transform="translate(20,77)"/>
<path d="M0 0 C0.33 0 0.66 0 1 0 C1.28875 1.134375 1.5775 2.26875 1.875 3.4375 C2.24625 4.613125 2.6175 5.78875 3 7 C3.66 7.33 4.32 7.66 5 8 C5 8.66 5 9.32 5 10 C3.02 10.33 1.04 10.66 -1 11 C-1.0270043 9.54176788 -1.04639787 8.08339325 -1.0625 6.625 C-1.07410156 5.81289063 -1.08570312 5.00078125 -1.09765625 4.1640625 C-1 2 -1 2 0 0 Z " fill="#10492C" transform="translate(18,31)"/>
<path d="M0 0 C3.96 1.98 3.96 1.98 8 4 C8.33 3.34 8.66 2.68 9 2 C9.33 4.31 9.66 6.62 10 9 C9.01 8.67 8.02 8.34 7 8 C6.67 7.34 6.34 6.68 6 6 C5.360625 5.896875 4.72125 5.79375 4.0625 5.6875 C3.381875 5.460625 2.70125 5.23375 2 5 C0.75 2.4375 0.75 2.4375 0 0 Z " fill="#47594D" transform="translate(68,18)"/>
<path d="M0 0 C-0.33 0.66 -0.66 1.32 -1 2 C-0.34 2.66 0.32 3.32 1 4 C-1.97 4 -4.94 4 -8 4 C-8 3.01 -8 2.02 -8 1 C-5.29120665 -0.35439668 -2.99066732 -0.06501451 0 0 Z " fill="#272726" transform="translate(52,21)"/>
<path d="M0 0 C2.475 0.495 2.475 0.495 5 1 C4.67 3.97 4.34 6.94 4 10 C3.67 10 3.34 10 3 10 C3 8.35 3 6.7 3 5 C2.34 5 1.68 5 1 5 C0.67 5.66 0.34 6.32 0 7 C0 4.69 0 2.38 0 0 Z " fill="#AB7C63" transform="translate(54,41)"/>
<path d="M0 0 C0.66 0 1.32 0 2 0 C4.67927341 4.01891012 4.15601248 6.24161923 4 11 C3.67 10.01 3.34 9.02 3 8 C2.34 8 1.68 8 1 8 C0.67 5.36 0.34 2.72 0 0 Z " fill="#1F8C66" transform="translate(17,48)"/>
<path d="M0 0 C1.64284201 2.95711562 2.6442194 5.62008426 3 9 C2.34 9.66 1.68 10.32 1 11 C1 10.34 1 9.68 1 9 C0.34 9 -0.32 9 -1 9 C-0.67 7.02 -0.34 5.04 0 3 C-0.66 3 -1.32 3 -2 3 C-2 2.34 -2 1.68 -2 1 C-1.34 0.67 -0.68 0.34 0 0 Z " fill="#9E705A" transform="translate(31,37)"/>
<path d="M0 0 C1.32 0 2.64 0 4 0 C4 0.99 4 1.98 4 3 C5.65 2.34 7.3 1.68 9 1 C8.67 1.99 8.34 2.98 8 4 C4.7 4.33 1.4 4.66 -2 5 C-1.01 4.34 -0.02 3.68 1 3 C0.67 2.01 0.34 1.02 0 0 Z " fill="#575B52" transform="translate(48,15)"/>
<path d="M0 0 C0.66 0 1.32 0 2 0 C2.33 1.65 2.66 3.3 3 5 C-0.3 5 -3.6 5 -7 5 C-7 4.01 -7 3.02 -7 2 C-5.02 2 -3.04 2 -1 2 C-0.67 1.34 -0.34 0.68 0 0 Z " fill="#434B43" transform="translate(65,13)"/>
<path d="M0 0 C3.875 1.75 3.875 1.75 5 4 C4.34 4 3.68 4 3 4 C3.680625 5.11375 4.36125 6.2275 5.0625 7.375 C6.22265625 9.2734375 6.22265625 9.2734375 7 11 C6.67 11.66 6.34 12.32 6 13 C2.85487785 8.70166639 1.24303439 5.17930997 0 0 Z " fill="#3A3B3B" transform="translate(24,77)"/>
<path d="M0 0 C2.4375 0.375 2.4375 0.375 5 1 C5.33 1.66 5.66 2.32 6 3 C5.34 3 4.68 3 4 3 C3.67 4.32 3.34 5.64 3 7 C1.5 5.75 1.5 5.75 0 4 C0 2.68 0 1.36 0 0 Z " fill="#3B3635" transform="translate(32,72)"/>
<path d="M0 0 C2.4375 0.8125 2.4375 0.8125 5 2 C6.04449911 5.13349732 5.93423645 5.98968256 5 9 C3.68 8.67 2.36 8.34 1 8 C1.66 8 2.32 8 3 8 C2.01 5.36 1.02 2.72 0 0 Z " fill="#765C4B" transform="translate(32,63)"/>
<path d="M0 0 C0.66 0 1.32 0 2 0 C2 1.32 2 2.64 2 4 C3.65 3.67 5.3 3.34 7 3 C7 3.99 7 4.98 7 6 C4.03 6 1.06 6 -2 6 C-1.34 5.67 -0.68 5.34 0 5 C0 3.35 0 1.7 0 0 Z " fill="#DCA88D" transform="translate(38,51)"/>
<path d="M0 0 C1.32 0 2.64 0 4 0 C4 0.66 4 1.32 4 2 C4.99 2 5.98 2 7 2 C7 2.99 7 3.98 7 5 C2.25 4.125 2.25 4.125 0 3 C0 2.01 0 1.02 0 0 Z " fill="#44392F" transform="translate(41,72)"/>
<path d="M0 0 C0.99 0 1.98 0 3 0 C3.02696365 1.79158489 3.04637917 3.58328473 3.0625 5.375 C3.07410156 6.37273438 3.08570313 7.37046875 3.09765625 8.3984375 C3 11 3 11 2 13 C1.34 13 0.68 13 0 13 C0.08378906 12.39671875 0.16757812 11.7934375 0.25390625 11.171875 C0.35574219 10.37265625 0.45757812 9.5734375 0.5625 8.75 C0.66691406 7.96109375 0.77132812 7.1721875 0.87890625 6.359375 C1.00027349 3.99467126 0.69633257 2.2488963 0 0 Z " fill="#373534" transform="translate(38,19)"/>
<path d="M0 0 C5.625 -0.25 5.625 -0.25 9 2 C9 2.66 9 3.32 9 4 C4.545 3.01 4.545 3.01 0 2 C0 1.34 0 0.68 0 0 Z " fill="#6C8479" transform="translate(59,8)"/>
<path d="M0 0 C0.66 0 1.32 0 2 0 C3.125 6.625 3.125 6.625 2 10 C1.34 10 0.68 10 0 10 C0 6.7 0 3.4 0 0 Z " fill="#198053" transform="translate(2,54)"/>
<path d="M0 0 C0.66 0 1.32 0 2 0 C2 0.66 2 1.32 2 2 C2.99 2.33 3.98 2.66 5 3 C1.25 6 1.25 6 -1 6 C-1.042721 4.33388095 -1.04063832 2.66617115 -1 1 C-0.67 0.67 -0.34 0.34 0 0 Z " fill="#836A5B" transform="translate(43,39)"/>
<path d="M0 0 C1.258125 -0.04125 2.51625 -0.0825 3.8125 -0.125 C4.52019531 -0.14820312 5.22789063 -0.17140625 5.95703125 -0.1953125 C8 0 8 0 11 2 C9.02 2.99 9.02 2.99 7 4 C7 3.34 7 2.68 7 2 C5.35 2 3.7 2 2 2 C2 2.66 2 3.32 2 4 C1.34 4 0.68 4 0 4 C0 2.68 0 1.36 0 0 Z " fill="#2D312C" transform="translate(57,17)"/>
<path d="M0 0 C2.02045442 0.60183749 4.02111039 1.27306096 6 2 C6.33 2.66 6.66 3.32 7 4 C6.34 4 5.68 4 5 4 C5 4.66 5 5.32 5 6 C3 6 3 6 1.375 4.6875 C0 3 0 3 0 0 Z " fill="#394E43" transform="translate(76,82)"/>
<path d="M0 0 C0.350625 0.639375 0.70125 1.27875 1.0625 1.9375 C3.77184206 4.82163832 6.15858911 4.7100822 10 5 C7.24075815 6.80411967 6.11027897 7.0127245 2.75 6.625 C1.8425 6.41875 0.935 6.2125 0 6 C0 4.02 0 2.04 0 0 Z " fill="#413028" transform="translate(40,78)"/>
<path d="M0 0 C0.33 1.32 0.66 2.64 1 4 C0.34 4 -0.32 4 -1 4 C-1 4.66 -1 5.32 -1 6 C-1.99 6 -2.98 6 -4 6 C-3.67 4.35 -3.34 2.7 -3 1 C-2.01 0.67 -1.02 0.34 0 0 Z " fill="#118B61" transform="translate(29,60)"/>
<path d="M0 0 C0 1.98 0 3.96 0 6 C-0.66 6 -1.32 6 -2 6 C-2.33 6.66 -2.66 7.32 -3 8 C-3.33 5.69 -3.66 3.38 -4 1 C-1 0 -1 0 0 0 Z " fill="#0DAA62" transform="translate(27,34)"/>
<path d="M0 0 C0.99 0 1.98 0 3 0 C3.1875 2.875 3.1875 2.875 3 6 C2.01 6.66 1.02 7.32 0 8 C0 5.36 0 2.72 0 0 Z " fill="#1E2518" transform="translate(72,30)"/>
<path d="M0 0 C0.33 0.66 0.66 1.32 1 2 C-1 5 -1 5 -3.3828125 5.51171875 C-4.28773437 5.56972656 -5.19265625 5.62773438 -6.125 5.6875 C-7.03507813 5.75324219 -7.94515625 5.81898437 -8.8828125 5.88671875 C-9.93082031 5.94279297 -9.93082031 5.94279297 -11 6 C-11 5.67 -11 5.34 -11 5 C-10.37351562 4.80664062 -9.74703125 4.61328125 -9.1015625 4.4140625 C-8.28429687 4.15367188 -7.46703125 3.89328125 -6.625 3.625 C-5.81289062 3.36976562 -5.00078125 3.11453125 -4.1640625 2.8515625 C-1.83540815 2.10145717 -1.83540815 2.10145717 0 0 Z " fill="#506D5F" transform="translate(15,72)"/>
<path d="M0 0 C2.97 0.495 2.97 0.495 6 1 C5.67 1.66 5.34 2.32 5 3 C4.01 2.67 3.02 2.34 2 2 C2 3.32 2 4.64 2 6 C0.68 5.34 -0.64 4.68 -2 4 C-1.34 2.68 -0.68 1.36 0 0 Z " fill="#654F3E" transform="translate(37,68)"/>
<path d="M0 0 C0.99 0.33 1.98 0.66 3 1 C2.01 3.97 1.02 6.94 0 10 C-0.33 10 -0.66 10 -1 10 C-1.02689216 8.52093108 -1.04634621 7.04172517 -1.0625 5.5625 C-1.07410156 4.73878906 -1.08570312 3.91507812 -1.09765625 3.06640625 C-1 1 -1 1 0 0 Z " fill="#424447" transform="translate(18,74)"/>
<path d="M0 0 C1.32 0.33 2.64 0.66 4 1 C4 2.32 4 3.64 4 5 C2.68 5.33 1.36 5.66 0 6 C0 4.02 0 2.04 0 0 Z " fill="#D9AB99" transform="translate(34,51)"/>
<path d="M0 0 C2.97 0.495 2.97 0.495 6 1 C5.67 1.99 5.34 2.98 5 4 C3.35 4 1.7 4 0 4 C0 2.68 0 1.36 0 0 Z " fill="#0C7C3C" transform="translate(0,40)"/>
<path d="M0 0 C4 4.75 4 4.75 4 7 C2.68 7 1.36 7 0 7 C0 4.69 0 2.38 0 0 Z " fill="#3F4447" transform="translate(0,93)"/>
<path d="M0 0 C0.66 0 1.32 0 2 0 C2 2.31 2 4.62 2 7 C1.01 7 0.02 7 -1 7 C-1.04254356 5.00045254 -1.04080783 2.99958364 -1 1 C-0.67 0.67 -0.34 0.34 0 0 Z " fill="#695955" transform="translate(47,91)"/>
<path d="M0 0 C0 1.65 0 3.3 0 5 C0.99 5.33 1.98 5.66 3 6 C2.67 6.66 2.34 7.32 2 8 C1.01 7.34 0.02 6.68 -1 6 C-1 5.34 -1 4.68 -1 4 C-1.99 3.67 -2.98 3.34 -4 3 C-1.125 0 -1.125 0 0 0 Z " fill="#153128" transform="translate(72,73)"/>
<path d="M0 0 C0 0.99 0 1.98 0 3 C-1.65 3.66 -3.3 4.32 -5 5 C-5 3.68 -5 2.36 -5 1 C-3.35 0.67 -1.7 0.34 0 0 Z " fill="#181715" transform="translate(58,76)"/>
<path d="M0 0 C0.33 1.32 0.66 2.64 1 4 C0.34 4 -0.32 4 -1 4 C-1.33 4.66 -1.66 5.32 -2 6 C-2.99 5.34 -3.98 4.68 -5 4 C-5 3.34 -5 2.68 -5 2 C-3.68 2 -2.36 2 -1 2 C-0.67 1.34 -0.34 0.68 0 0 Z " fill="#755F51" transform="translate(69,42)"/>
<path d="M0 0 C0.99 0.33 1.98 0.66 3 1 C3 3.97 3 6.94 3 10 C2.67 10 2.34 10 2 10 C0.68373308 6.38026598 0 3.90432869 0 0 Z " fill="#0F6C48" transform="translate(24,43)"/>
<path d="M0 0 C0.99 0 1.98 0 3 0 C4.10844919 3.32534757 3.84454356 5.62182575 3 9 C2.01 8.34 1.02 7.68 0 7 C0.66 5.02 1.32 3.04 2 1 C1.34 0.67 0.68 0.34 0 0 Z " fill="#577060" transform="translate(66,9)"/>
<path d="M0 0 C0 1.32 0 2.64 0 4 C-2.31 3.67 -4.62 3.34 -7 3 C-4.74624683 0.74624683 -3.20799182 0 0 0 Z " fill="#777E70" transform="translate(56,8)"/>
</svg>
