<?xml version="1.0" encoding="UTF-8"?>
<svg version="1.1" xmlns="http://www.w3.org/2000/svg" width="100" height="100">
<path d="M0 0 C33 0 66 0 100 0 C100 33 100 66 100 100 C67 100 34 100 0 100 C0 67 0 34 0 0 Z " fill="#8BA244" transform="translate(0,0)"/>
<path d="M0 0 C1.5 1.375 1.5 1.375 3 3 C3 3.66 3 4.32 3 5 C3.86625 5.185625 3.86625 5.185625 4.75 5.375 C7 6 7 6 11 8 C14.465 5.03 14.465 5.03 18 2 C22.66479948 4.25561292 27.25874003 6.58282017 31.74609375 9.17578125 C32.86649048 9.82027222 32.86649048 9.82027222 34.00952148 10.4777832 C38.05238984 13.56956343 39.05397738 17.18789828 40 22 C40.41032831 23.40395304 40.83618347 24.80341705 41.2734375 26.19921875 C44.11291097 35.30336015 46.17770217 43.6582056 46.125 53.25 C46.12886719 53.96929687 46.13273437 54.68859375 46.13671875 55.4296875 C46.12676222 60.74647556 46.12676222 60.74647556 45 63 C20.58 63 -3.84 63 -29 63 C-27.91000733 47.74010264 -27.91000733 47.74010264 -26.53125 42.265625 C-25.89862709 39.56767436 -25.48384216 36.86372406 -25.0625 34.125 C-22.12546189 16.43499351 -22.12546189 16.43499351 -13.59375 10.2578125 C-11.87428399 9.03901453 -10.14433551 7.8348171 -8.40234375 6.6484375 C-6.83989379 5.57631737 -5.307983 4.45777558 -3.81640625 3.2890625 C-2 2 -2 2 0 2 C0 1.34 0 0.68 0 0 Z " fill="#CDDCEB" transform="translate(42,37)"/>
<path d="M0 0 C15.51 0 31.02 0 47 0 C47 33 47 66 47 100 C42.71 100 38.42 100 34 100 C34.04640625 98.88625 34.0928125 97.7725 34.140625 96.625 C34.58471468 81.21117473 30.99752362 68.34833567 25.953125 53.9140625 C25 51 25 51 25 49 C24.31421875 48.74089844 23.6284375 48.48179688 22.921875 48.21484375 C19.59395917 46.83117821 16.43972581 45.24035351 13.25 43.5625 C12.10015625 42.96566406 10.9503125 42.36882813 9.765625 41.75390625 C7 40 7 40 6 37 C5.649375 37.66 5.29875 38.32 4.9375 39 C3 41 3 41 -0.375 41.4375 C-4.19075343 40.97697803 -6.05711722 40.43838859 -9 38 C-10.3125 35.3125 -10.3125 35.3125 -11 33 C-10.01 33 -9.02 33 -8 33 C-8 33.66 -8 34.32 -8 35 C-7.34 35 -6.68 35 -6 35 C-6 35.66 -6 36.32 -6 37 C-1.91948993 36.87205026 -1.91948993 36.87205026 2 36 C4.40521237 33.06057006 4.40521237 33.06057006 6 30 C6.66 30 7.32 30 8 30 C8.309375 29.05125 8.61875 28.1025 8.9375 27.125 C10 24 10 24 11 22 C7.04 22.495 7.04 22.495 3 23 C3.99 22.67 4.98 22.34 6 22 C6 19.03 6 16.06 6 13 C0.72 12.67 -4.56 12.34 -10 12 C-10 13.32 -10 14.64 -10 16 C-10.66 16 -11.32 16 -12 16 C-12.33 16.66 -12.66 17.32 -13 18 C-13.433125 16.824375 -13.433125 16.824375 -13.875 15.625 C-14.84912254 12.90328368 -14.84912254 12.90328368 -17 11 C-17.25 7.5 -17.25 7.5 -17 4 C-16.34 3.34 -15.68 2.68 -15 2 C-14 3 -14 3 -13.9375 6.0625 C-13.958125 7.031875 -13.97875 8.00125 -14 9 C-13.34 9 -12.68 9 -12 9 C-12 8.01 -12 7.02 -12 6 C-5.6 4.76923077 -5.6 4.76923077 -2.5625 5.9375 C-2.046875 6.288125 -1.53125 6.63875 -1 7 C-1 6.34 -1 5.68 -1 5 C0.32 5 1.64 5 3 5 C3.33 5.66 3.66 6.32 4 7 C4.99 7.33 5.98 7.66 7 8 C7 7.34 7 6.68 7 6 C6.34 6 5.68 6 5 6 C5 5.34 5 4.68 5 4 C4.01 3.67 3.02 3.34 2 3 C2 2.34 2 1.68 2 1 C1.34 0.67 0.68 0.34 0 0 Z " fill="#46602F" transform="translate(53,0)"/>
<path d="M0 0 C0.33 0 0.66 0 1 0 C1.16853086 4.55033319 0.97890889 8.54665392 0 13 C-1.61451837 20.54210725 -0.9521835 26.58170269 1 34 C0.67 34.33 0.34 34.66 0 35 C-0.23075082 36.34747084 -0.41153063 37.70377565 -0.5625 39.0625 C-0.706875 40.361875 -0.85125 41.66125 -1 43 C-0.34 43 0.32 43 1 43 C1 43.66 1 44.32 1 45 C1.99 44.505 1.99 44.505 3 44 C3.65555119 41.47266765 3.65555119 41.47266765 4 39 C4.66 39 5.32 39 6 39 C6.0928125 37.63875 6.0928125 37.63875 6.1875 36.25 C7 33 7 33 9.52734375 31.203125 C12.29837263 29.19633606 12.29837263 29.19633606 12.5234375 25.90625 C12.47445312 24.7821875 12.42546875 23.658125 12.375 22.5 C12.34148437 21.3759375 12.30796875 20.251875 12.2734375 19.09375 C12.05224961 16.59116704 11.71667263 14.39674125 11 12 C12.65 11.67 14.3 11.34 16 11 C16 12.98 16 14.96 16 17 C16.66 17 17.32 17 18 17 C17.95875 16.05125 17.9175 15.1025 17.875 14.125 C18 11 18 11 20 9 C21.38967642 13.31686718 22.71111121 17.6521629 24 22 C24.19207031 22.63631348 24.38414063 23.27262695 24.58203125 23.92822266 C31.45510689 47.08978622 31.45510689 47.08978622 27 56 C21.76725612 56.02467917 16.53454597 56.04285003 11.30175781 56.05493164 C9.52082733 56.05996711 7.739901 56.06679581 5.95898438 56.07543945 C3.40233335 56.08753942 0.84573688 56.09323609 -1.7109375 56.09765625 C-2.50994476 56.10281754 -3.30895203 56.10797882 -4.13217163 56.11329651 C-9.77225659 56.11387171 -9.77225659 56.11387171 -12 55 C-11.125 49.125 -11.125 49.125 -10 48 C-8.33382885 47.95936168 -6.66611905 47.957279 -5 48 C-5 47.34 -5 46.68 -5 46 C-6.65 46 -8.3 46 -10 46 C-10.06316406 44.72769531 -10.12632813 43.45539063 -10.19140625 42.14453125 C-11.02608573 29.22309844 -13.75088211 18.01163205 -18.38916016 5.93505859 C-19 4 -19 4 -19 1 C-18.34 1 -17.68 1 -17 1 C-15.35 5.29 -13.7 9.58 -12 14 C-10.97296252 8.44506076 -10.97296252 8.44506076 -12 3 C-9.36 3 -6.72 3 -4 3 C-4.350625 3.515625 -4.70125 4.03125 -5.0625 4.5625 C-6.37103523 7.96469159 -5.729475 10.48525684 -5 14 C-4.67 14.33 -4.34 14.66 -4 15 C-3.79503906 14.00097656 -3.59007812 13.00195312 -3.37890625 11.97265625 C-3.10949219 10.68230469 -2.84007813 9.39195313 -2.5625 8.0625 C-2.29566406 6.77472656 -2.02882813 5.48695312 -1.75390625 4.16015625 C-1 1 -1 1 0 0 Z " fill="#BED2E9" transform="translate(60,44)"/>
<path d="M0 0 C5.94 0 11.88 0 18 0 C18 0.66 18 1.32 18 2 C18.66 2 19.32 2 20 2 C20 2.99 20 3.98 20 5 C20.66 5.33 21.32 5.66 22 6 C20.68 6.33 19.36 6.66 18 7 C18 7.99 18 8.98 18 10 C19.65 9.01 21.3 8.02 23 7 C23.495 7.99 23.495 7.99 24 9 C24.33 8.34 24.66 7.68 25 7 C25.66 7 26.32 7 27 7 C27.66 9.31 28.32 11.62 29 14 C29.66 13.01 30.32 12.02 31 11 C37.9645507 21.48828171 37.9645507 21.48828171 37 27 C36.67 27.66 36.34 28.32 36 29 C36.66 29 37.32 29 38 29 C37.39301257 33.12751449 35.96189209 36.3321148 34 40 C33.67 40 33.34 40 33 40 C33 37.36 33 34.72 33 32 C32.34 32 31.68 32 31 32 C31.11859375 33.03640625 31.2371875 34.0728125 31.359375 35.140625 C31.49071453 36.51030867 31.62086038 37.88010717 31.75 39.25 C31.83121094 39.93191406 31.91242188 40.61382812 31.99609375 41.31640625 C32.31423444 44.95734966 32.33866546 46.57600151 30.015625 49.484375 C29.35046875 49.98453125 28.6853125 50.4846875 28 51 C25.43623236 49.73167312 22.87397788 48.46043635 20.3125 47.1875 C19.59126953 46.83107422 18.87003906 46.47464844 18.12695312 46.10742188 C9.84418887 41.98495017 9.84418887 41.98495017 7 40 C6.67 39.01 6.34 38.02 6 37 C5.649375 37.66 5.29875 38.32 4.9375 39 C3 41 3 41 -0.375 41.4375 C-4.19075343 40.97697803 -6.05711722 40.43838859 -9 38 C-10.3125 35.3125 -10.3125 35.3125 -11 33 C-10.01 33 -9.02 33 -8 33 C-8 33.66 -8 34.32 -8 35 C-7.34 35 -6.68 35 -6 35 C-6 35.66 -6 36.32 -6 37 C-1.91948993 36.87205026 -1.91948993 36.87205026 2 36 C4.40521237 33.06057006 4.40521237 33.06057006 6 30 C6.66 30 7.32 30 8 30 C8.309375 29.05125 8.61875 28.1025 8.9375 27.125 C10 24 10 24 11 22 C7.04 22.495 7.04 22.495 3 23 C3.99 22.67 4.98 22.34 6 22 C6 19.03 6 16.06 6 13 C0.72 12.67 -4.56 12.34 -10 12 C-10 13.32 -10 14.64 -10 16 C-10.66 16 -11.32 16 -12 16 C-12.33 16.66 -12.66 17.32 -13 18 C-13.433125 16.824375 -13.433125 16.824375 -13.875 15.625 C-14.84912254 12.90328368 -14.84912254 12.90328368 -17 11 C-17.25 7.5 -17.25 7.5 -17 4 C-16.34 3.34 -15.68 2.68 -15 2 C-14 3 -14 3 -13.9375 6.0625 C-13.958125 7.031875 -13.97875 8.00125 -14 9 C-13.34 9 -12.68 9 -12 9 C-12 8.01 -12 7.02 -12 6 C-5.6 4.76923077 -5.6 4.76923077 -2.5625 5.9375 C-2.046875 6.288125 -1.53125 6.63875 -1 7 C-1 6.34 -1 5.68 -1 5 C0.32 5 1.64 5 3 5 C3.33 5.66 3.66 6.32 4 7 C4.99 7.33 5.98 7.66 7 8 C7 7.34 7 6.68 7 6 C6.34 6 5.68 6 5 6 C5 5.34 5 4.68 5 4 C4.01 3.67 3.02 3.34 2 3 C2 2.34 2 1.68 2 1 C1.34 0.67 0.68 0.34 0 0 Z " fill="#55752D" transform="translate(53,0)"/>
<path d="M0 0 C0.66 0 1.32 0 2 0 C3.5078125 2.1875 3.5078125 2.1875 5.125 5 C5.66382813 5.928125 6.20265625 6.85625 6.7578125 7.8125 C7.37269531 8.8953125 7.37269531 8.8953125 8 10 C8.33 9.01 8.66 8.02 9 7 C8.01 6.67 7.02 6.34 6 6 C5.67 4.35 5.34 2.7 5 1 C6.9375 1.8125 6.9375 1.8125 9 3 C9.33 3.99 9.66 4.98 10 6 C12.31 6.33 14.62 6.66 17 7 C17.66 10.3 18.32 13.6 19 17 C20.32 16.67 21.64 16.34 23 16 C23 16.99 23 17.98 23 19 C24.32 19 25.64 19 27 19 C25.87332272 22.15469639 25.01467963 22.99125469 22.0625 24.75 C18.05020806 27.69780633 17.28168685 30.32915465 16 35 C15.4740625 36.8253125 15.4740625 36.8253125 14.9375 38.6875 C13.89221376 43.12568257 13.23878803 47.61656202 12.57421875 52.125 C11.87266284 56.85930926 11.12500457 61.58566554 10.375 66.3125 C10.11194841 67.97525555 9.84892508 69.63801557 9.5859375 71.30078125 C9.39257812 72.52152344 9.19921875 73.74226563 9 75 C4.71 75 0.42 75 -4 75 C-4.04513415 66.29883056 -4.0818487 57.59773852 -4.10362434 48.89647865 C-4.11407407 44.85639736 -4.1282548 40.81640011 -4.15087891 36.77636719 C-4.17256512 32.87955267 -4.18455967 28.98281913 -4.18975449 25.08594894 C-4.19345786 23.59714864 -4.20068938 22.1083529 -4.21146011 20.61958694 C-4.22591919 18.53877333 -4.22798033 16.45829694 -4.22705078 14.37744141 C-4.231492 13.19163483 -4.23593323 12.00582825 -4.24050903 10.78408813 C-4 8 -4 8 -2 6 C-1.28591666 4.01643517 -0.61382258 2.01684563 0 0 Z " fill="#4C7126" transform="translate(4,25)"/>
<path d="M0 0 C1.02323436 1.31558703 2.01755155 2.65368175 3 4 C3.52376221 4.63252686 4.04752441 5.26505371 4.5871582 5.91674805 C6.78919965 10.72227447 6.36714554 15.42395692 6.29296875 20.64453125 C6.28872391 21.7694548 6.28447906 22.89437836 6.28010559 24.0533905 C6.2633369 27.64000562 6.22568688 31.22605521 6.1875 34.8125 C6.17245087 37.24673667 6.15876287 39.68098216 6.14648438 42.11523438 C6.11343911 48.07704022 6.0616682 54.03842428 6 60 C1.71 60 -2.58 60 -7 60 C-6.98839844 58.80503906 -6.97679688 57.61007813 -6.96484375 56.37890625 C-6.81094049 46.4152646 -6.81094049 46.4152646 -7.625 36.5 C-7.810625 34.7675 -7.810625 34.7675 -8 33 C-7.34 32.34 -6.68 31.68 -6 31 C-5.67 31 -5.34 31 -5 31 C-5.3609375 30.31292969 -5.721875 29.62585938 -6.09375 28.91796875 C-6.78984375 27.56638672 -6.78984375 27.56638672 -7.5 26.1875 C-7.9640625 25.29417969 -8.428125 24.40085937 -8.90625 23.48046875 C-10 21 -10 21 -10 18 C-8.02 18.66 -6.04 19.32 -4 20 C-6.31 18.02 -8.62 16.04 -11 14 C-10.67 13.01 -10.34 12.02 -10 11 C-9.34 11 -8.68 11 -8 11 C-7.67 8.36 -7.34 5.72 -7 3 C-6.34 3 -5.68 3 -5 3 C-5 4.65 -5 6.3 -5 8 C-4.67 7.01 -4.34 6.02 -4 5 C-2.68 5.33 -1.36 5.66 0 6 C0 4.02 0 2.04 0 0 Z " fill="#2A4117" transform="translate(94,40)"/>
<path d="M0 0 C8.91 0 17.82 0 27 0 C27 4.34015506 26.79652605 7.81823821 26 12 C26.99 12.33 27.98 12.66 29 13 C29.69289369 16.72430357 30.11144596 20.21083746 30 24 C30.33 24 30.66 24 31 24 C31.33 28.95 31.66 33.9 32 39 C27.18787989 34.18787989 25.01637474 29.70807325 24 23 C20.87802522 24.3089572 20.87802522 24.3089572 19 27 C19.66 27.33 20.32 27.66 21 28 C19.35 28.66 17.7 29.32 16 30 C11.57142857 24.85714286 11.57142857 24.85714286 11 21 C11.66 21 12.32 21 13 21 C12.34 19.68 11.68 18.36 11 17 C9.68 17 8.36 17 7 17 C7 17.99 7 18.98 7 20 C5.68 20 4.36 20 3 20 C2.67 21.98 2.34 23.96 2 26 C1.34 26 0.68 26 0 26 C0 17.42 0 8.84 0 0 Z " fill="#4A6F3F" transform="translate(0,0)"/>
<path d="M0 0 C4.16323855 1.12519961 7.96297497 2.83526229 11.8125 4.75 C12.76769531 5.21921875 13.72289063 5.6884375 14.70703125 6.171875 C17 8 17 8 17.8515625 10.9921875 C18.00792354 14.16055597 17.66336661 16.90428914 17 20 C16.34 20 15.68 20 15 20 C14.505 17.525 14.505 17.525 14 15 C13.01 15.66 12.02 16.32 11 17 C11.16371094 17.54140625 11.32742187 18.0828125 11.49609375 18.640625 C12.08590587 21.40222593 12.09609308 23.92818139 12.0625 26.75 C12.05347656 27.73484375 12.04445313 28.7196875 12.03515625 29.734375 C12.02355469 30.48203125 12.01195313 31.2296875 12 32 C10.515 32.495 10.515 32.495 9 33 C8.67 33.99 8.34 34.98 8 36 C7.34 36 6.68 36 6 36 C5.67 37.98 5.34 39.96 5 42 C4.34 42 3.68 42 3 42 C3 43.65 3 45.3 3 47 C1.515 47.495 1.515 47.495 0 48 C0 47.34 0 46.68 0 46 C-0.66 46 -1.32 46 -2 46 C-2.125 38.375 -2.125 38.375 -1 35 C-1.309375 34.113125 -1.61875 33.22625 -1.9375 32.3125 C-4.01896128 25.82323836 -2.93279907 20.15631067 -1.51171875 13.67578125 C-0.64714647 9.1549262 -0.33132465 4.58623063 0 0 Z " fill="#CFDDED" transform="translate(61,41)"/>
<path d="M0 0 C0.66 0 1.32 0 2 0 C4.29564043 14.09637059 3.7717829 26.82573683 2 41 C-3.94 41 -9.88 41 -16 41 C-15.67 36.38 -15.34 31.76 -15 27 C-14.34 27 -13.68 27 -13 27 C-12.01 24.69 -11.02 22.38 -10 20 C-9.01 20.33 -8.02 20.66 -7 21 C-7.185625 20.21625 -7.37125 19.4325 -7.5625 18.625 C-8 16 -8 16 -7 14 C-7.66 14 -8.32 14 -9 14 C-9 13.34 -9 12.68 -9 12 C-8.34 12 -7.68 12 -7 12 C-7.061875 11.21625 -7.12375 10.4325 -7.1875 9.625 C-7.125625 8.75875 -7.06375 7.8925 -7 7 C-6.01 6.34 -5.02 5.68 -4 5 C-2.80767387 2.94996045 -2.80767387 2.94996045 -2 1 C-1.67 1.66 -1.34 2.32 -1 3 C-0.67 2.01 -0.34 1.02 0 0 Z M-11 14 C-9 15 -9 15 -9 15 Z " fill="#C9D6DF" transform="translate(29,59)"/>
<path d="M0 0 C0.66 0 1.32 0 2 0 C2.33 1.65 2.66 3.3 3 5 C3.66 4.01 4.32 3.02 5 2 C11.9645507 12.48828171 11.9645507 12.48828171 11 18 C10.67 18.66 10.34 19.32 10 20 C10.66 20 11.32 20 12 20 C11.39301257 24.12751449 9.96189209 27.3321148 8 31 C7.67 31 7.34 31 7 31 C7 28.36 7 25.72 7 23 C6.34 23 5.68 23 5 23 C5.11859375 24.03640625 5.2371875 25.0728125 5.359375 26.140625 C5.49071453 27.51030867 5.62086038 28.88010717 5.75 30.25 C5.83121094 30.93191406 5.91242188 31.61382812 5.99609375 32.31640625 C6.31423444 35.95734966 6.33866546 37.57600151 4.015625 40.484375 C3.35046875 40.98453125 2.6853125 41.4846875 2 42 C0.68 41.34 -0.64 40.68 -2 40 C-1.34 38.35 -0.68 36.7 0 35 C-1.98 35.495 -1.98 35.495 -4 36 C-4 34.68 -4 33.36 -4 32 C-3.01 31.34 -2.02 30.68 -1 30 C-0.32882152 27.05636102 -0.32882152 27.05636102 0 24 C0.33 23.01 0.66 22.02 1 21 C0.34 21 -0.32 21 -1 21 C-1.433125 22.423125 -1.433125 22.423125 -1.875 23.875 C-3 27 -3 27 -5 29 C-6.32 29.33 -7.64 29.66 -9 30 C-8.01 27.03 -7.02 24.06 -6 21 C-6.66 21 -7.32 21 -8 21 C-8 19 -8 19 -6.6875 17.5625 C-5 16 -5 16 -3.46875 14.8203125 C-1.32300537 12.16095878 -1.2443213 9.66741937 -0.8125 6.3125 C-0.57466797 4.54326172 -0.57466797 4.54326172 -0.33203125 2.73828125 C-0.22246094 1.83464844 -0.11289063 0.93101563 0 0 Z " fill="#334E26" transform="translate(79,9)"/>
<path d="M0 0 C0.33 0 0.66 0 1 0 C1.1418557 5.37278453 0.71948297 9.92001108 -0.5 15.1875 C-2.60371607 25.06017095 -2.28562431 34.95774228 -2 45 C-4.64 45 -7.28 45 -10 45 C-10.06316406 43.79988281 -10.12632813 42.59976563 -10.19140625 41.36328125 C-11.05290267 28.7437647 -13.89422041 17.75627637 -18.38916016 5.95092773 C-19 4 -19 4 -19 1 C-18.34 1 -17.68 1 -17 1 C-15.35 5.29 -13.7 9.58 -12 14 C-10.97296252 8.44506076 -10.97296252 8.44506076 -12 3 C-9.36 3 -6.72 3 -4 3 C-4.350625 3.515625 -4.70125 4.03125 -5.0625 4.5625 C-6.37103523 7.96469159 -5.729475 10.48525684 -5 14 C-4.67 14.33 -4.34 14.66 -4 15 C-3.79503906 14.00097656 -3.59007812 13.00195312 -3.37890625 11.97265625 C-3.10949219 10.68230469 -2.84007813 9.39195313 -2.5625 8.0625 C-2.29566406 6.77472656 -2.02882813 5.48695312 -1.75390625 4.16015625 C-1 1 -1 1 0 0 Z " fill="#5668B2" transform="translate(60,44)"/>
<path d="M0 0 C3.0831351 1.19899698 6.06279492 2.47700477 9 4 C9.33 3.01 9.66 2.02 10 1 C9.33556363 7.39278104 8.46606595 13.71885644 7.4375 20.0625 C7.29892578 20.92810547 7.16035156 21.79371094 7.01757812 22.68554688 C6.68029303 24.79067111 6.34042164 26.8953807 6 29 C1.71 29 -2.58 29 -7 29 C-7.13541522 25.62364714 -7.23431111 22.25276024 -7.3125 18.875 C-7.3753418 17.44800781 -7.3753418 17.44800781 -7.43945312 15.9921875 C-7.57759974 8.03494261 -7.57759974 8.03494261 -4.60546875 4.3828125 C-2 2 -2 2 0 1 C0 0.67 0 0.34 0 0 Z " fill="#648D32" transform="translate(7,71)"/>
<path d="M0 0 C9.57 0 19.14 0 29 0 C29.04125 3.073125 29.0825 6.14625 29.125 9.3125 C29.14320801 10.27712158 29.16141602 11.24174316 29.18017578 12.2355957 C29.1851709 12.99960693 29.19016602 13.76361816 29.1953125 14.55078125 C29.20578613 15.33106689 29.21625977 16.11135254 29.22705078 16.9152832 C29 19 29 19 27 22 C26.29835358 23.98799818 25.62627128 25.98698517 25 28 C24.67 28 24.34 28 24 28 C24 23.71 24 19.42 24 15 C23.34 14.67 22.68 14.34 22 14 C21.67 13.01 21.34 12.02 21 11 C20.34 10.67 19.68 10.34 19 10 C18.67 12.31 18.34 14.62 18 17 C14.125 15.25 14.125 15.25 13 13 C12.34 14.32 11.68 15.64 11 17 C10.34 13.7 9.68 10.4 9 7 C8.34 7 7.68 7 7 7 C6.67 7.99 6.34 8.98 6 10 C5.34 9.34 4.68 8.68 4 8 C2.02 8.99 2.02 8.99 0 10 C0 9.01 0 8.02 0 7 C0.99 6.67 1.98 6.34 3 6 C2.67 4.68 2.34 3.36 2 2 C1.34 2 0.68 2 0 2 C0 1.34 0 0.68 0 0 Z " fill="#679229" transform="translate(71,0)"/>
<path d="M0 0 C0.66 0 1.32 0 2 0 C3.2890625 1.609375 3.2890625 1.609375 4.625 3.75 C5.07101562 4.44609375 5.51703125 5.1421875 5.9765625 5.859375 C7 8 7 8 7 12 C8.32 12.33 9.64 12.66 11 13 C10.67 13.99 10.34 14.98 10 16 C9.01 16.33 8.02 16.66 7 17 C4.79126718 21.63833893 5.00590408 25.02952038 6 30 C6.66 30 7.32 30 8 30 C8.33 29.34 8.66 28.68 9 28 C9.33 28.66 9.66 29.32 10 30 C10.66 28.68 11.32 27.36 12 26 C14.80396138 30.94816714 13.77350507 35.61682285 13 41 C11.68 40.67 10.36 40.34 9 40 C9 39.34 9 38.68 9 38 C6.03 38.495 6.03 38.495 3 39 C3 38.01 3 37.02 3 36 C2.01 35.67 1.02 35.34 0 35 C-0.9140625 33.1875 -0.9140625 33.1875 -1.625 31 C-2.41115133 28.25730729 -2.41115133 28.25730729 -4 26 C-4.12667764 23.00981839 -4.18520838 20.05305892 -4.1875 17.0625 C-4.19974609 16.22525391 -4.21199219 15.38800781 -4.22460938 14.52539062 C-4.22654297 13.72423828 -4.22847656 12.92308594 -4.23046875 12.09765625 C-4.23457764 11.36039307 -4.23868652 10.62312988 -4.24291992 9.86352539 C-4 8 -4 8 -2 6 C-1.28591666 4.01643517 -0.61382258 2.01684563 0 0 Z " fill="#3F6224" transform="translate(4,25)"/>
<path d="M0 0 C2.64 0 5.28 0 8 0 C8.0984702 4.13574827 7.77403558 7.93631321 7 12 C7.99 12.33 8.98 12.66 10 13 C10.69289369 16.72430357 11.11144596 20.21083746 11 24 C11.33 24 11.66 24 12 24 C12.33 28.95 12.66 33.9 13 39 C8.18787989 34.18787989 6.01637474 29.70807325 5 23 C1.87802522 24.3089572 1.87802522 24.3089572 0 27 C0.66 27.33 1.32 27.66 2 28 C0.35 28.66 -1.3 29.32 -3 30 C-7.42857143 24.85714286 -7.42857143 24.85714286 -8 21 C-6.35 21.99 -4.7 22.98 -3 24 C-2.66602213 21.12586875 -2.66602213 21.12586875 -3 18 C-3.66 17.525625 -4.32 17.05125 -5 16.5625 C-5.66 16.046875 -6.32 15.53125 -7 15 C-7.25 11.3125 -7.25 11.3125 -7 8 C-6.01 7.67 -5.02 7.34 -4 7 C-2.64560332 9.70879335 -2.93498549 12.00933268 -3 15 C-2.34 15 -1.68 15 -1 15 C0.03590199 9.94997778 0.10251672 5.12583611 0 0 Z " fill="#476727" transform="translate(19,0)"/>
<path d="M0 0 C5.94 0 11.88 0 18 0 C18 0.66 18 1.32 18 2 C18.66 2 19.32 2 20 2 C20 2.99 20 3.98 20 5 C20.66 5.33 21.32 5.66 22 6 C19.3260876 6.89130413 16.76276177 7.47731534 14 8 C13.89042969 8.61488281 13.78085938 9.22976563 13.66796875 9.86328125 C13.43013672 11.07564453 13.43013672 11.07564453 13.1875 12.3125 C13.03667969 13.11300781 12.88585937 13.91351563 12.73046875 14.73828125 C11.92427764 17.23445587 10.97947998 18.32422106 9 20 C8.7525 19.030625 8.505 18.06125 8.25 17.0625 C7.8375 16.051875 7.425 15.04125 7 14 C3.61089674 12.65714777 -0.14558483 12.68980906 -3.75 12.4375 C-4.92046875 12.35371094 -6.0909375 12.26992187 -7.296875 12.18359375 C-8.63492188 12.09271484 -8.63492188 12.09271484 -10 12 C-10 13.32 -10 14.64 -10 16 C-10.66 16 -11.32 16 -12 16 C-12.33 16.66 -12.66 17.32 -13 18 C-13.433125 16.824375 -13.433125 16.824375 -13.875 15.625 C-14.84912254 12.90328368 -14.84912254 12.90328368 -17 11 C-17.25 7.5 -17.25 7.5 -17 4 C-16.34 3.34 -15.68 2.68 -15 2 C-14 3 -14 3 -13.9375 6.0625 C-13.958125 7.031875 -13.97875 8.00125 -14 9 C-13.34 9 -12.68 9 -12 9 C-12 8.01 -12 7.02 -12 6 C-5.6 4.76923077 -5.6 4.76923077 -2.5625 5.9375 C-2.046875 6.288125 -1.53125 6.63875 -1 7 C-1 6.34 -1 5.68 -1 5 C0.32 5 1.64 5 3 5 C3.33 5.66 3.66 6.32 4 7 C4.99 7.33 5.98 7.66 7 8 C7 7.34 7 6.68 7 6 C6.34 6 5.68 6 5 6 C5 5.34 5 4.68 5 4 C4.01 3.67 3.02 3.34 2 3 C2 2.34 2 1.68 2 1 C1.34 0.67 0.68 0.34 0 0 Z " fill="#2E3A3E" transform="translate(53,0)"/>
<path d="M0 0 C2.10409639 -0.02701408 4.20829178 -0.04640223 6.3125 -0.0625 C7.48425781 -0.07410156 8.65601563 -0.08570313 9.86328125 -0.09765625 C13 0 13 0 16 1 C17 7.75 17 7.75 17 10 C18.32 10 19.64 10 21 10 C19.79157144 14.43090471 18.48331435 16.98112756 15 20 C13.35 18.68 11.7 17.36 10 16 C9.505 16.350625 9.01 16.70125 8.5 17.0625 C4.77302397 18.46011601 1.90197152 17.65032859 -2 17 C-2.21824777 10.9981863 -1.5056904 5.80766296 0 0 Z " fill="#D8A889" transform="translate(43,12)"/>
<path d="M0 0 C4.17582495 5.3689178 6.38520558 8.85277785 6.29296875 15.83203125 C6.28330078 17.12431641 6.27363281 18.41660156 6.26367188 19.74804688 C6.23860985 21.1028707 6.21321506 22.45768841 6.1875 23.8125 C6.17244013 25.18683445 6.15875401 26.56118468 6.14648438 27.93554688 C6.11116628 31.29076632 6.06183851 34.64518166 6 38 C2.39299424 35.967066 0.65320209 34.81508174 -1 31 C-1.66 30.67 -2.32 30.34 -3 30 C-2.34 27.36 -1.68 24.72 -1 22 C-1.99 21.67 -2.98 21.34 -4 21 C-5.37482707 19.36739286 -6.70647667 17.69774938 -8 16 C-8.98230498 14.9826127 -9.97469597 13.97403883 -11 13 C-10.67 12.34 -10.34 11.68 -10 11 C-9.34 11 -8.68 11 -8 11 C-7.67 8.36 -7.34 5.72 -7 3 C-6.34 3 -5.68 3 -5 3 C-5 4.65 -5 6.3 -5 8 C-4.67 7.01 -4.34 6.02 -4 5 C-2.68 5.33 -1.36 5.66 0 6 C0 4.02 0 2.04 0 0 Z " fill="#304F2B" transform="translate(94,40)"/>
<path d="M0 0 C0.66 0 1.32 0 2 0 C6.63714617 9.27429233 8.5335384 19.68492426 8 30 C4.04 30 0.08 30 -4 30 C-5.75156505 21.24217477 -4.992901 12.98580201 -1 5 C-0.30859478 2.22111387 -0.30859478 2.22111387 0 0 Z " fill="#B8C8DB" transform="translate(80,61)"/>
<path d="M0 0 C3.89558088 -0.11643304 7.79071258 -0.18732909 11.6875 -0.25 C12.79029297 -0.28351562 13.89308594 -0.31703125 15.02929688 -0.3515625 C23.22083955 -0.45055395 23.22083955 -0.45055395 27.26953125 1.890625 C29 4 29 4 29 6 C29.66 6 30.32 6 31 6 C31 6.66 31 7.32 31 8 C28.07120629 7.37240135 25.63904371 6.41377341 23 5 C23 5.66 23 6.32 23 7 C22.37351562 6.9278125 21.74703125 6.855625 21.1015625 6.78125 C20.28429687 6.6884375 19.46703125 6.595625 18.625 6.5 C17.81289063 6.4071875 17.00078125 6.314375 16.1640625 6.21875 C14.03087175 5.96647649 14.03087175 5.96647649 12 6 C12 6.99 12 7.98 12 9 C11.34 9 10.68 9 10 9 C9.67 7.02 9.34 5.04 9 3 C7.93453047 6.1964086 7.92572162 8.65747276 8 12 C8.66 11.67 9.32 11.34 10 11 C10.33 12.65 10.66 14.3 11 16 C11.99 16 12.98 16 14 16 C13.67 17.32 13.34 18.64 13 20 C12.01 20 11.02 20 10 20 C10 20.66 10 21.32 10 22 C9.34 22 8.68 22 8 22 C7.67 20.02 7.34 18.04 7 16 C5.35 16.33 3.7 16.66 2 17 C1.855625 16.401875 1.71125 15.80375 1.5625 15.1875 C1.1127561 13.43849596 0.57107659 11.71322977 0 10 C0.33 9.67 0.66 9.34 1 9 C0.91062197 7.47480724 0.75462854 5.95318071 0.5625 4.4375 C0.46066406 3.61121094 0.35882812 2.78492188 0.25390625 1.93359375 C0.17011719 1.29550781 0.08632813 0.65742188 0 0 Z " fill="#73941E" transform="translate(29,0)"/>
<path d="M0 0 C1.65 0.33 3.3 0.66 5 1 C5.33 2.65 5.66 4.3 6 6 C5.34 6 4.68 6 4 6 C4.99 7.98 5.98 9.96 7 12 C7.66 12 8.32 12 9 12 C9 12.99 9 13.98 9 15 C11.34058637 12.87219421 12.70700306 10.88437779 14 8 C14.66 8 15.32 8 16 8 C16 6.35 16 4.7 16 3 C16.33 3 16.66 3 17 3 C17.20496094 3.89203125 17.40992187 4.7840625 17.62109375 5.703125 C17.89050781 6.87359375 18.15992187 8.0440625 18.4375 9.25 C18.70433594 10.41015625 18.97117187 11.5703125 19.24609375 12.765625 C19.67929348 14.62411917 20.14992946 16.47653255 20.72265625 18.296875 C20.81417969 18.85890625 20.90570312 19.4209375 21 20 C20.34 20.66 19.68 21.32 19 22 C19.33 22.66 19.66 23.32 20 24 C18.02 24.99 18.02 24.99 16 26 C14.14223235 22.86501708 13.79859524 20.62528568 14 17 C13.443125 17.268125 12.88625 17.53625 12.3125 17.8125 C11.549375 17.874375 10.78625 17.93625 10 18 C7.375 15.625 7.375 15.625 5 13 C4.34 12.67 3.68 12.34 3 12 C3.34786708 13.97536745 3.34786708 13.97536745 4 16 C4.66 16.33 5.32 16.66 6 17 C5.67 18.65 5.34 20.3 5 22 C4.7525 21.46375 4.505 20.9275 4.25 20.375 C2.95818042 17.81253405 2.95818042 17.81253405 0.875 14.875 C-1 12 -1 12 -1 10 C-1.66 10 -2.32 10 -3 10 C-3.66 13.3 -4.32 16.6 -5 20 C-7 18 -7 18 -7.125 14.375 C-7.08375 13.26125 -7.0425 12.1475 -7 11 C-6.34 11 -5.68 11 -5 11 C-4.67 9.02 -4.34 7.04 -4 5 C-3.01 4.67 -2.02 4.34 -1 4 C-0.26676204 1.98491642 -0.26676204 1.98491642 0 0 Z " fill="#8AA561" transform="translate(7,15)"/>
<path d="M0 0 C3.31012244 3.31012244 3.50351065 4.53159589 4 9 C4.639375 9.12375 5.27875 9.2475 5.9375 9.375 C6.618125 9.58125 7.29875 9.7875 8 10 C8.33 10.66 8.66 11.32 9 12 C10.32 12 11.64 12 13 12 C13 12.66 13 13.32 13 14 C14.32 14.33 15.64 14.66 17 15 C17 13.02 17 11.04 17 9 C17.66 8.67 18.32 8.34 19 8 C18.52013969 13.56890517 17.70084819 18.67067568 16 24 C15.236875 23.67 14.47375 23.34 13.6875 23 C11.00930865 21.82563314 11.00930865 21.82563314 8 22 C7.34 22.66 6.68 23.32 6 24 C5.34 24 4.68 24 4 24 C2.68 25.32 1.36 26.64 0 28 C0 18.76 0 9.52 0 0 Z " fill="#40642F" transform="translate(0,51)"/>
<path d="M0 0 C0 1.65 0 3.3 0 5 C-1.32 5 -2.64 5 -4 5 C-4.33 5.66 -4.66 6.32 -5 7 C-5.99 7 -6.98 7 -8 7 C-8.2475 7.78375 -8.495 8.5675 -8.75 9.375 C-10.15389099 12.32317108 -11.00675737 12.9024777 -14 14 C-14 15.32 -14 16.64 -14 18 C-14.55233783 21.03785804 -15.21478137 22.32217206 -17 25 C-17.38499891 26.65549531 -17.72793135 28.3222433 -18 30 C-18.66 30 -19.32 30 -20 30 C-20 30.66 -20 31.32 -20 32 C-19.34 32 -18.68 32 -18 32 C-18 34.31 -18 36.62 -18 39 C-18.99 39 -19.98 39 -21 39 C-21.99 41.31 -22.98 43.62 -24 46 C-24.33 46 -24.66 46 -25 46 C-22.63289037 17.84385382 -22.63289037 17.84385382 -16.9375 10.25 C-3.55555556 0 -3.55555556 0 0 0 Z " fill="#DAE9EC" transform="translate(40,41)"/>
<path d="M0 0 C0.66 0 1.32 0 2 0 C3.65 4.29 5.3 8.58 7 13 C8.02703748 7.44506076 8.02703748 7.44506076 7 2 C9.64 2 12.28 2 15 2 C14.649375 2.515625 14.29875 3.03125 13.9375 3.5625 C12.30972346 7.79471901 13.77263199 11.92516939 14.6875 16.25 C15.11486203 21.37834434 14.09385041 26.00083242 13 31 C7.40102525 26.54827577 5.85669896 21.02666133 3.6875 14.375 C3.32849609 13.32570313 2.96949219 12.27640625 2.59960938 11.1953125 C0 3.47075893 0 3.47075893 0 0 Z " fill="#334370" transform="translate(41,45)"/>
<path d="M0 0 C1.41377341 2.63904371 2.37240135 5.07120629 3 8 C2.34 8 1.68 8 1 8 C0.95101562 8.69867188 0.90203125 9.39734375 0.8515625 10.1171875 C0.77679688 11.02726562 0.70203125 11.93734375 0.625 12.875 C0.55539063 13.77992187 0.48578125 14.68484375 0.4140625 15.6171875 C0 18 0 18 -2 20 C-2.46706031 22.95201726 -2.46706031 22.95201726 -2.625 26.3125 C-2.69976562 27.44300781 -2.77453125 28.57351562 -2.8515625 29.73828125 C-2.97721699 32.49937325 -3.03110425 35.23690568 -3 38 C-1.02 37.505 -1.02 37.505 1 37 C0.67 37.66 0.34 38.32 0 39 C-0.66 39 -1.32 39 -2 39 C-2 39.66 -2 40.32 -2 41 C-1.01 41.33 -0.02 41.66 1 42 C1 42.33 1 42.66 1 43 C-0.98 43 -2.96 43 -5 43 C-7.28096687 19.33193552 -7.28096687 19.33193552 -6.97265625 9.42578125 C-6.9988475 7.10224343 -7.33053813 5.21597068 -8 3 C-6.35 2.67 -4.7 2.34 -3 2 C-3 3.98 -3 5.96 -3 8 C-2.34 8 -1.68 8 -1 8 C-1.020625 7.05125 -1.04125 6.1025 -1.0625 5.125 C-1 2 -1 2 0 0 Z " fill="#B6C4D7" transform="translate(79,53)"/>
<path d="M0 0 C1.00283635 3.00850905 1.47961302 5.87767811 2 9 C2.33 9.99 2.66 10.98 3 12 C3.66 12 4.32 12 5 12 C5.33 11.34 5.66 10.68 6 10 C6.33 10.66 6.66 11.32 7 12 C7.66 10.68 8.32 9.36 9 8 C11.80396138 12.94816714 10.77350507 17.61682285 10 23 C8.68 22.67 7.36 22.34 6 22 C6 21.34 6 20.68 6 20 C4.02 20.33 2.04 20.66 0 21 C0 20.01 0 19.02 0 18 C-0.99 17.67 -1.98 17.34 -3 17 C-3.9140625 15.29296875 -3.9140625 15.29296875 -4.625 13.1875 C-4.86476563 12.50042969 -5.10453125 11.81335937 -5.3515625 11.10546875 C-5.97438681 9.08316571 -6.50975812 7.05809091 -7 5 C-5.02 5.99 -5.02 5.99 -3 7 C-2.690625 6.030625 -2.38125 5.06125 -2.0625 4.0625 C-1 1 -1 1 0 0 Z " fill="#264623" transform="translate(7,43)"/>
<path d="M0 0 C0.66 0.99 1.32 1.98 2 3 C4.43750025 5.68767578 4.43750025 5.68767578 7 8 C7.66 8 8.32 8 9 8 C9 9.32 9 10.64 9 12 C9.99 12 10.98 12 12 12 C12 14.64 12 17.28 12 20 C7.71 20 3.42 20 -1 20 C-1.02683697 16.85411056 -1.04675902 13.70844729 -1.0625 10.5625 C-1.07087891 9.66466797 -1.07925781 8.76683594 -1.08789062 7.84179688 C-1.09111328 6.98779297 -1.09433594 6.13378906 -1.09765625 5.25390625 C-1.10551147 4.06776733 -1.10551147 4.06776733 -1.11352539 2.85766602 C-1 1 -1 1 0 0 Z " fill="#314D06" transform="translate(1,80)"/>
<path d="M0 0 C2.31 1.98 4.62 3.96 7 6 C7.66 5.67 8.32 5.34 9 5 C9 9.29 9 13.58 9 18 C4.71 18 0.42 18 -4 18 C-3.67 13.05 -3.34 8.1 -3 3 C-2.67 3.66 -2.34 4.32 -2 5 C-1.01 5 -0.02 5 1 5 C0.67 3.35 0.34 1.7 0 0 Z " fill="#507042" transform="translate(91,82)"/>
<path d="M0 0 C0.66 3.3 1.32 6.6 2 10 C3.32 9.67 4.64 9.34 6 9 C6 9.99 6 10.98 6 12 C7.32 12 8.64 12 10 12 C8.49392117 16.10088936 6.03811122 17.53509554 2.375 19.75 C0.87066406 20.67039062 0.87066406 20.67039062 -0.6640625 21.609375 C-1.43492188 22.06828125 -2.20578125 22.5271875 -3 23 C-4 15.375 -4 15.375 -4 12 C-4.33 11.67 -4.66 11.34 -5 11 C-5.07205511 9.31391034 -5.08386068 7.62499341 -5.0625 5.9375 C-5.05347656 5.01839844 -5.04445313 4.09929688 -5.03515625 3.15234375 C-5.02355469 2.44207031 -5.01195312 1.73179688 -5 1 C-2 0 -2 0 0 0 Z " fill="#4D663D" transform="translate(21,32)"/>
<path d="M0 0 C1.60332791 -0.08121924 3.20784026 -0.13929134 4.8125 -0.1875 C6.15248047 -0.23970703 6.15248047 -0.23970703 7.51953125 -0.29296875 C10.46433437 0.05484264 11.13954408 0.78197898 13 3 C13.66 3.33 14.32 3.66 15 4 C15.72159424 5.64363134 16.39351421 7.31050386 17 9 C17.99 8.67 18.98 8.34 20 8 C19.34 10.97 18.68 13.94 18 17 C14 15 14 15 13 13 C12.34 14.32 11.68 15.64 11 17 C10.34 13.7 9.68 10.4 9 7 C8.34 7 7.68 7 7 7 C6.67 7.99 6.34 8.98 6 10 C5.34 9.34 4.68 8.68 4 8 C2.02 8.99 2.02 8.99 0 10 C0 9.01 0 8.02 0 7 C0.99 6.67 1.98 6.34 3 6 C2.67 4.68 2.34 3.36 2 2 C1.34 2 0.68 2 0 2 C0 1.34 0 0.68 0 0 Z " fill="#668052" transform="translate(71,0)"/>
<path d="M0 0 C0.66 0 1.32 0 2 0 C2.33 1.98 2.66 3.96 3 6 C3.66 5.67 4.32 5.34 5 5 C4.67 6.65 4.34 8.3 4 10 C4.66 10 5.32 10 6 10 C6.125 12.875 6.125 12.875 6 16 C5.34 16.66 4.68 17.32 4 18 C4.33 15.69 4.66 13.38 5 11 C4.34 11 3.68 11 3 11 C2.67 13.64 2.34 16.28 2 19 C1.34 19 0.68 19 0 19 C-0.34509128 22.00795167 -0.34509128 22.00795167 1.53125 23.60546875 C2.1809375 24.12753906 2.830625 24.64960937 3.5 25.1875 C4.1496875 25.71730469 4.799375 26.24710938 5.46875 26.79296875 C5.9740625 27.19128906 6.479375 27.58960937 7 28 C6.34 28.33 5.68 28.66 5 29 C2.375 27.5625 2.375 27.5625 0 26 C0.433125 26.90363281 0.86625 27.80726562 1.3125 28.73828125 C1.869375 29.91777344 2.42625 31.09726562 3 32.3125 C3.556875 33.48425781 4.11375 34.65601563 4.6875 35.86328125 C6 39 6 39 6 42 C5.34 41.34 4.68 40.68 4 40 C2.515 40.495 2.515 40.495 1 41 C0.74605469 40.09378906 0.49210937 39.18757813 0.23046875 38.25390625 C-1.69332276 31.44498124 -3.69279558 24.69089282 -6 18 C-5.195625 17.87625 -4.39125 17.7525 -3.5625 17.625 C-2.716875 17.41875 -1.87125 17.2125 -1 17 C0.53266582 13.93466836 0.10276471 10.73245728 0.0625 7.375 C0.05798828 6.66859375 0.05347656 5.9621875 0.04882812 5.234375 C0.03703875 3.48954725 0.01910324 1.744763 0 0 Z " fill="#5B764C" transform="translate(84,32)"/>
<path d="M0 0 C0.66 0 1.32 0 2 0 C2.33337054 4.77831106 1.5220872 7.00669526 -1 11 C-1 12.32 -1 13.64 -1 15 C-3.475 14.505 -3.475 14.505 -6 14 C-6.33 13.01 -6.66 12.02 -7 11 C-7.5259375 11.99 -7.5259375 11.99 -8.0625 13 C-10 15 -10 15 -13.375 15.4375 C-17.19075343 14.97697803 -19.05711722 14.43838859 -22 12 C-23.3125 9.3125 -23.3125 9.3125 -24 7 C-23.01 7 -22.02 7 -21 7 C-21 7.66 -21 8.32 -21 9 C-20.34 9 -19.68 9 -19 9 C-19 9.66 -19 10.32 -19 11 C-14.91948993 10.87205026 -14.91948993 10.87205026 -11 10 C-8.59478763 7.06057006 -8.59478763 7.06057006 -7 4 C-6.34 4 -5.68 4 -5 4 C-4.67 3.01 -4.34 2.02 -4 1 C-3.01 1.33 -2.02 1.66 -1 2 C-0.67 1.34 -0.34 0.68 0 0 Z " fill="#313428" transform="translate(66,26)"/>
<path d="M0 0 C0.33 0.66 0.66 1.32 1 2 C0.67 2.99 0.34 3.98 0 5 C0.66 5 1.32 5 2 5 C2.08226668 8.04386724 1.97608217 10.07175348 1 13 C3.43753339 10.56246661 5.45480576 8.09038848 7 5 C7.66 5 8.32 5 9 5 C8.93993922 6.45947705 8.8511311 7.91779272 8.75 9.375 C8.68039063 10.59316406 8.68039063 10.59316406 8.609375 11.8359375 C8 14 8 14 5.953125 15.2890625 C4.98632812 15.64097656 4.98632812 15.64097656 4 16 C4 17.32 4 18.64 4 20 C5.32 19.67 6.64 19.34 8 19 C7.01 21.475 7.01 21.475 6 24 C2.37 22.02 -1.26 20.04 -5 18 C-4.25130208 15.03776042 -3.50260417 12.07552083 -2.75390625 9.11328125 C-2.27664765 7.1424258 -1.84136799 5.16052401 -1.46484375 3.16796875 C-1 1 -1 1 0 0 Z " fill="#5C7D20" transform="translate(71,25)"/>
<path d="M0 0 C0.99 0.33 1.98 0.66 3 1 C2.67 3.64 2.34 6.28 2 9 C6.92127034 9.16682272 10.50343896 9.24828052 15 7 C16.32 8.65 17.64 10.3 19 12 C17.125 15.875 17.125 15.875 16 17 C13.32941149 17.14115161 10.67567762 17.04247107 8 17 C8 16.34 8 15.68 8 15 C7.34 15 6.68 15 6 15 C6 13.68 6 12.36 6 11 C3.69 11.33 1.38 11.66 -1 12 C-1.08159574 7.83861737 -0.98248524 4.0527516 0 0 Z " fill="#AA976F" transform="translate(39,20)"/>
<path d="M0 0 C2 2 2 2 2.125 5.125 C2.08375 6.07375 2.0425 7.0225 2 8 C2.66 8 3.32 8 4 8 C4.33 7.34 4.66 6.68 5 6 C7.0625 5.375 7.0625 5.375 9 5 C9.33 5.66 9.66 6.32 10 7 C9.34 7 8.68 7 8 7 C8.03480469 7.60328125 8.06960937 8.2065625 8.10546875 8.828125 C8.32933105 15.4373928 8.32933105 15.4373928 6.5 18.5625 C6.005 19.036875 5.51 19.51125 5 20 C5.66 20.33 6.32 20.66 7 21 C5.35 21.66 3.7 22.32 2 23 C-2.42857143 17.85714286 -2.42857143 17.85714286 -3 14 C-0.525 15.485 -0.525 15.485 2 17 C2.33397787 14.12586875 2.33397787 14.12586875 2 11 C1.34 10.525625 0.68 10.05125 0 9.5625 C-0.66 9.046875 -1.32 8.53125 -2 8 C-2.25 4.3125 -2.25 4.3125 -2 1 C-1.34 0.67 -0.68 0.34 0 0 Z " fill="#2E4723" transform="translate(14,7)"/>
<path d="M0 0 C3.3 0 6.6 0 10 0 C10.22197585 2.10277123 10.42713637 4.20732302 10.625 6.3125 C10.74101562 7.48425781 10.85703125 8.65601563 10.9765625 9.86328125 C11 13 11 13 9 16 C8.34 15.67 7.68 15.34 7 15 C6.26924352 12.6859378 5.59861742 10.35171131 5 8 C4.34 8 3.68 8 3 8 C3 9.98 3 11.96 3 14 C0.41415308 12.70707654 0.01964249 11.67539223 -1 9 C-0.96948089 5.92774324 -0.44878675 3.05174989 0 0 Z " fill="#729D49" transform="translate(9,0)"/>
<path d="M0 0 C5.94 0 11.88 0 18 0 C18 0.66 18 1.32 18 2 C18.66 2 19.32 2 20 2 C20 2.99 20 3.98 20 5 C20.66 5.33 21.32 5.66 22 6 C19.3260876 6.89130413 16.76276177 7.47731534 14 8 C13.67 9.98 13.34 11.96 13 14 C12.67 13.34 12.34 12.68 12 12 C11.34 12 10.68 12 10 12 C10 10.68 10 9.36 10 8 C7.8898219 5.11238786 5.31234384 4.16379648 2 3 C2 2.34 2 1.68 2 1 C1.34 0.67 0.68 0.34 0 0 Z " fill="#456136" transform="translate(53,0)"/>
<path d="M0 0 C1.02323436 1.31558703 2.01755155 2.65368175 3 4 C3.55429688 4.73734375 4.10859375 5.4746875 4.6796875 6.234375 C6.42463497 9.88947207 5.83948078 11.69226239 4.8125 15.5625 C4.53019531 16.67753906 4.24789062 17.79257812 3.95703125 18.94140625 C3.16074778 21.48626323 2.28907617 23.6773914 1 26 C0.67 26 0.34 26 0 26 C-0.36220266 24.20994059 -0.71452469 22.41787943 -1.0625 20.625 C-1.25972656 19.62726562 -1.45695312 18.62953125 -1.66015625 17.6015625 C-2 15 -2 15 -1 13 C-1.99 12.67 -2.98 12.34 -4 12 C-3.34 11.67 -2.68 11.34 -2 11 C-2.66 9.02 -3.32 7.04 -4 5 C-2.68 5.33 -1.36 5.66 0 6 C0 4.02 0 2.04 0 0 Z " fill="#294B19" transform="translate(94,40)"/>
<path d="M0 0 C0.99 0 1.98 0 3 0 C3.33 0.66 3.66 1.32 4 2 C6.02463255 2.65213292 6.02463255 2.65213292 8 3 C8.125 8.75 8.125 8.75 7 11 C7.66 11 8.32 11 9 11 C8.39301257 15.12751449 6.96189209 18.3321148 5 22 C4.67 22 4.34 22 4 22 C3.67 18.04 3.34 14.08 3 10 C1.68 9.67 0.36 9.34 -1 9 C-1.80967438 6.08517222 -2.21845993 4.53886783 -1.0625 1.6875 C-0.711875 1.130625 -0.36125 0.57375 0 0 Z " fill="#20391B" transform="translate(82,18)"/>
<path d="M0 0 C2.39706123 -0.10854617 4.78915838 -0.18753157 7.1875 -0.25 C7.86103516 -0.28351562 8.53457031 -0.31703125 9.22851562 -0.3515625 C12.90735421 -0.42334472 14.85095978 -0.09429473 17.98828125 1.890625 C20 4 20 4 20 6 C20.66 6 21.32 6 22 6 C22 6.66 22 7.32 22 8 C19.07120629 7.37240135 16.63904371 6.41377341 14 5 C14 5.66 14 6.32 14 7 C13.37351562 6.9278125 12.74703125 6.855625 12.1015625 6.78125 C11.28429688 6.6884375 10.46703125 6.595625 9.625 6.5 C8.81289063 6.4071875 8.00078125 6.314375 7.1640625 6.21875 C5.03087175 5.96647649 5.03087175 5.96647649 3 6 C3 6.99 3 7.98 3 9 C2.34 9 1.68 9 1 9 C0.67 6.03 0.34 3.06 0 0 Z " fill="#516869" transform="translate(38,0)"/>
<path d="M0 0 C0.33 0 0.66 0 1 0 C1.268125 0.928125 1.53625 1.85625 1.8125 2.8125 C2.91148371 5.76240366 3.62418561 7.05615186 6 9 C6.66 8.67 7.32 8.34 8 8 C8 11.3 8 14.6 8 18 C2.42857143 12.85714286 2.42857143 12.85714286 2 9 C0.68 9 -0.64 9 -2 9 C-2 9.99 -2 10.98 -2 12 C-3.32 12 -4.64 12 -6 12 C-6.33 13.98 -6.66 15.96 -7 18 C-7.66 18 -8.32 18 -9 18 C-9.63019694 9.80743982 -9.63019694 9.80743982 -7 6.4375 C-6.34 5.963125 -5.68 5.48875 -5 5 C-4.34 5.33 -3.68 5.66 -3 6 C-2.01 4.02 -1.02 2.04 0 0 Z " fill="#537637" transform="translate(9,8)"/>
<path d="M0 0 C2.31 0 4.62 0 7 0 C6.34 2.31 5.68 4.62 5 7 C4.01 7 3.02 7 2 7 C2 7.66 2 8.32 2 9 C3.65 9 5.3 9 7 9 C6.67 11.31 6.34 13.62 6 16 C5.34 16 4.68 16 4 16 C4 17.65 4 19.3 4 21 C3.01 21.33 2.02 21.66 1 22 C1 21.34 1 20.68 1 20 C0.34 20 -0.32 20 -1 20 C-1.09765625 13.84765625 -1.09765625 13.84765625 -1 12 C-0.67 11.67 -0.34 11.34 0 11 C1.05786087 5.44764367 1.05786087 5.44764367 0 0 Z " fill="#D7E6FC" transform="translate(60,67)"/>
<path d="M0 0 C0.66 0.66 1.32 1.32 2 2 C2.33 1.34 2.66 0.68 3 0 C3.66 0 4.32 0 5 0 C4.34 5.94 3.68 11.88 3 18 C2.34 17.34 1.68 16.68 1 16 C-0.485 18.475 -0.485 18.475 -2 21 C-4 20 -4 20 -4.65234375 18.234375 C-5.03733203 15.7600683 -4.89055507 13.72863829 -4.5625 11.25 C-4.46066406 10.45078125 -4.35882813 9.6515625 -4.25390625 8.828125 C-4.17011719 8.22484375 -4.08632812 7.6215625 -4 7 C-2.515 7.99 -2.515 7.99 -1 9 C-0.78918149 5.10540926 -0.78918149 5.10540926 -2 2 C-1.34 1.34 -0.68 0.68 0 0 Z " fill="#5E754E" transform="translate(75,7)"/>
<path d="M0 0 C2.55379635 3.90395918 2.533557 8.17021249 2.75 12.6875 C2.79310303 13.51805908 2.83620605 14.34861816 2.88061523 15.2043457 C3.20599426 23.60135204 2.28356612 31.71516417 1 40 C-2.34430737 39.27633685 -4.34262343 38.18284504 -7 36 C-5.68 36 -4.36 36 -3 36 C-2.87625 35.38125 -2.7525 34.7625 -2.625 34.125 C-2 32 -2 32 0 30 C0.27714896 27.86747907 0.27714896 27.86747907 0.1953125 25.4296875 C0.18886719 24.53378906 0.18242187 23.63789062 0.17578125 22.71484375 C0.15902344 21.77769531 0.14226563 20.84054688 0.125 19.875 C0.11597656 18.93011719 0.10695313 17.98523438 0.09765625 17.01171875 C0.07404522 14.67422708 0.04111516 12.33723877 0 10 C-0.66 10 -1.32 10 -2 10 C-2.22036864 6.14354879 -1.60355101 3.50776784 0 0 Z " fill="#BCC4CB" transform="translate(30,60)"/>
<path d="M0 0 C0.99 0 1.98 0 3 0 C3.33 1.98 3.66 3.96 4 6 C4.66 6 5.32 6 6 6 C6.33 7.32 6.66 8.64 7 10 C1.83076923 14.06153846 1.83076923 14.06153846 -2.375 13.75 C-3.674375 13.37875 -3.674375 13.37875 -5 13 C-5 12.01 -5 11.02 -5 10 C-6.32 10.33 -7.64 10.66 -9 11 C-8.34 10.01 -7.68 9.02 -7 8 C-7.30840599 5.84725052 -7.30840599 5.84725052 -8 4 C-6.35 4 -4.7 4 -3 4 C-2.34 5.65 -1.68 7.3 -1 9 C-0.34 9 0.32 9 1 9 C0.67 6.03 0.34 3.06 0 0 Z " fill="#A1B444" transform="translate(32,31)"/>
<path d="M0 0 C0.99 0.66 1.98 1.32 3 2 C2.3503125 3.5778125 2.3503125 3.5778125 1.6875 5.1875 C-0.49746002 10.9620372 -1.70524505 16.97617553 -3 23 C-4.96714221 19.33176351 -5.69595934 16.18055914 -6 12 C-5.34 11.01 -4.68 10.02 -4 9 C-5.423125 8.9071875 -5.423125 8.9071875 -6.875 8.8125 C-7.90625 8.544375 -8.9375 8.27625 -10 8 C-11.375 5.4375 -11.375 5.4375 -12 3 C-10.02 3.99 -8.04 4.98 -6 6 C-4.02 4.02 -2.04 2.04 0 0 Z " fill="#BDC5D2" transform="translate(59,39)"/>
<path d="M0 0 C0 3.3 0 6.6 0 10 C-1.60875 10.020625 -3.2175 10.04125 -4.875 10.0625 C-6.23238281 10.07990234 -6.23238281 10.07990234 -7.6171875 10.09765625 C-10 10 -10 10 -12 9 C-11.9375 6.1875 -11.9375 6.1875 -11 3 C-7.0393461 0.75812043 -4.56567773 0 0 0 Z " fill="#B4CDE8" transform="translate(60,90)"/>
<path d="M0 0 C0.99 0.33 1.98 0.66 3 1 C4.1875 3.5625 4.1875 3.5625 5 6 C5.99 6 6.98 6 8 6 C7.67 10.29 7.34 14.58 7 19 C6.67 17.68 6.34 16.36 6 15 C5.01 15 4.02 15 3 15 C3 13.68 3 12.36 3 11 C2.34 11 1.68 11 1 11 C0.67 11.66 0.34 12.32 0 13 C-0.66 12.67 -1.32 12.34 -2 12 C-3.00376838 7.9849265 -3.40779739 5.83332509 -1.5625 2.0625 C-1.046875 1.381875 -0.53125 0.70125 0 0 Z " fill="#738928" transform="translate(7,77)"/>
<path d="M0 0 C0.33 0 0.66 0 1 0 C1 8.91 1 17.82 1 27 C-0.65 26.01 -2.3 25.02 -4 24 C-5.16056666 16.4563167 -2.79024068 8.35575574 -1 1 C-0.67 0.67 -0.34 0.34 0 0 Z " fill="#617A16" transform="translate(99,51)"/>
<path d="M0 0 C3.31012244 3.31012244 3.50351065 4.53159589 4 9 C5.32 9.33 6.64 9.66 8 10 C7.51602818 14.35574636 6.20957142 16.0913259 3 19 C2.67 19.66 2.34 20.32 2 21 C1.34 21 0.68 21 0 21 C0 14.07 0 7.14 0 0 Z " fill="#2C4726" transform="translate(0,51)"/>
<path d="M0 0 C2.0625 0.4375 2.0625 0.4375 4 1 C3.67 1.99 3.34 2.98 3 4 C3.66 4.33 4.32 4.66 5 5 C3.35 5 1.7 5 0 5 C-0.12117188 6.21558594 -0.24234375 7.43117188 -0.3671875 8.68359375 C-0.53597078 10.26828117 -0.70526816 11.8529139 -0.875 13.4375 C-0.99294922 14.64116211 -0.99294922 14.64116211 -1.11328125 15.86914062 C-1.33845763 17.92170994 -1.66222587 19.96293009 -2 22 C-2.66 22.33 -3.32 22.66 -4 23 C-5.125 18.25 -5.125 18.25 -4 16 C-7.96 16.495 -7.96 16.495 -12 17 C-11.01 16.67 -10.02 16.34 -9 16 C-9 13.03 -9 10.06 -9 7 C-8.34 7.33 -7.68 7.66 -7 8 C-6.375 10.5625 -6.375 10.5625 -6 13 C-3.42474186 9.13711279 -2.20244587 5.4662275 -1 1 C-0.67 0.67 -0.34 0.34 0 0 Z " fill="#5F7E52" transform="translate(68,6)"/>
<path d="M0 0 C1.9375 0.3125 1.9375 0.3125 4 1 C4.33 1.99 4.66 2.98 5 4 C5.66 3.34 6.32 2.68 7 2 C8.58894072 3.58894072 8.16998411 5.24801424 8.1875 7.4375 C8.20167969 8.24058594 8.21585938 9.04367188 8.23046875 9.87109375 C8 12 8 12 6 14 C3.95880212 12.38405168 1.95927063 10.7143618 0 9 C0 8.34 0 7.68 0 7 C-0.66 7 -1.32 7 -2 7 C-2.33 5.68 -2.66 4.36 -3 3 C-2.01 2.67 -1.02 2.34 0 2 C0 1.34 0 0.68 0 0 Z " fill="#36522F" transform="translate(92,75)"/>
<path d="M0 0 C0.99 0.33 1.98 0.66 3 1 C3.19573608 2.43640171 3.38127816 3.87419504 3.5625 5.3125 C3.66691406 6.11300781 3.77132813 6.91351563 3.87890625 7.73828125 C4 10 4 10 3 13 C3.66 13.33 4.32 13.66 5 14 C4.67 14.99 4.34 15.98 4 17 C4.99 17 5.98 17 7 17 C7 17.66 7 18.32 7 19 C7.66 19 8.32 19 9 19 C8.67 20.98 8.34 22.96 8 25 C7.34 24.67 6.68 24.34 6 24 C5.375 21.9375 5.375 21.9375 5 20 C5 20.66 5 21.32 5 22 C4.01 22 3.02 22 2 22 C1.96261719 21.38511719 1.92523437 20.77023438 1.88671875 20.13671875 C1.82097656 19.32847656 1.75523438 18.52023438 1.6875 17.6875 C1.62949219 16.88699219 1.57148438 16.08648438 1.51171875 15.26171875 C1.20448905 12.90959609 1.20448905 12.90959609 -0.59375 11.53125 C-1.28984375 10.77328125 -1.28984375 10.77328125 -2 10 C-1.85546875 7.51953125 -1.85546875 7.51953125 -1.1875 4.8125 C-0.97480469 3.91144531 -0.76210938 3.01039062 -0.54296875 2.08203125 C-0.36378906 1.39496094 -0.18460938 0.70789062 0 0 Z " fill="#7A9643" transform="translate(27,0)"/>
<path d="M0 0 C0.33 0 0.66 0 1 0 C1.91657981 5.38490641 2.11138159 10.54230189 2 16 C-0.64 16 -3.28 16 -6 16 C-6 11.38 -6 6.76 -6 2 C-4.11656068 5.76687864 -3.77942165 7.02958963 -4 11 C-3.34 11 -2.68 11 -2 11 C-2.309375 9.824375 -2.309375 9.824375 -2.625 8.625 C-2.74875 7.75875 -2.8725 6.8925 -3 6 C-2.34 5.34 -1.68 4.68 -1 4 C-0.3574765 1.93125966 -0.3574765 1.93125966 0 0 Z " fill="#2E4471" transform="translate(56,73)"/>
<path d="M0 0 C1.65 0.33 3.3 0.66 5 1 C5.33 2.65 5.66 4.3 6 6 C5.34 6 4.68 6 4 6 C3.67 7.32 3.34 8.64 3 10 C2.34 9.67 1.68 9.34 1 9 C0.01 9.33 -0.98 9.66 -2 10 C-3.02700444 12.32891096 -3.02700444 12.32891096 -3.6875 15.0625 C-3.93886719 15.98160156 -4.19023438 16.90070312 -4.44921875 17.84765625 C-4.63097656 18.55792969 -4.81273437 19.26820312 -5 20 C-7 18 -7 18 -7.125 14.375 C-7.08375 13.26125 -7.0425 12.1475 -7 11 C-6.34 11 -5.68 11 -5 11 C-4.67 9.02 -4.34 7.04 -4 5 C-3.01 4.67 -2.02 4.34 -1 4 C-0.26676204 1.98491642 -0.26676204 1.98491642 0 0 Z " fill="#81AC59" transform="translate(7,15)"/>
<path d="M0 0 C0.66 0.33 1.32 0.66 2 1 C2 2.98 2 4.96 2 7 C2.66 7 3.32 7 4 7 C4 6.01 4 5.02 4 4 C7.465 3.505 7.465 3.505 11 3 C10.01 3.33 9.02 3.66 8 4 C8 4.66 8 5.32 8 6 C8.99 6.33 9.98 6.66 11 7 C9.35 7 7.7 7 6 7 C6 7.33 6 7.66 6 8 C10.29 8.33 14.58 8.66 19 9 C19 9.33 19 9.66 19 10 C14.71 10 10.42 10 6 10 C6 11.32 6 12.64 6 14 C5.34 14 4.68 14 4 14 C3.67 14.66 3.34 15.32 3 16 C2.71125 15.21625 2.4225 14.4325 2.125 13.625 C1.15087746 10.90328368 1.15087746 10.90328368 -1 9 C-1.33870968 2.67741935 -1.33870968 2.67741935 0 0 Z " fill="#4B5242" transform="translate(37,2)"/>
<path d="M0 0 C2.625 0.375 2.625 0.375 5 1 C5.5625 2.9375 5.5625 2.9375 6 5 C5.67 5.33 5.34 5.66 5 6 C5.28604898 7.67542976 5.61781233 9.34385343 6 11 C6.99 11 7.98 11 9 11 C8.34 12.98 7.68 14.96 7 17 C5 16 5 16 3.875 12.9375 C3.58625 11.968125 3.2975 10.99875 3 10 C2.01 10.99 1.02 11.98 0 13 C-3 8.25 -3 8.25 -3 6 C-1.5 4.375 -1.5 4.375 0 3 C-0.66 2.67 -1.32 2.34 -2 2 C-1.34 1.34 -0.68 0.68 0 0 Z " fill="#679237" transform="translate(13,43)"/>
<path d="M0 0 C0 5.61 0 11.22 0 17 C-0.33 17 -0.66 17 -1 17 C-1.33 15.02 -1.66 13.04 -2 11 C-2.66 11 -3.32 11 -4 11 C-7.01704885 7.8000997 -8.49890042 5.38462134 -9 1 C-6 0 -6 0 0 0 Z " fill="#88B346" transform="translate(100,0)"/>
<path d="M0 0 C4.29 0 8.58 0 13 0 C13.33 1.98 13.66 3.96 14 6 C9.38 6 4.76 6 0 6 C0 4.02 0 2.04 0 0 Z " fill="#E0B898" transform="translate(44,13)"/>
<path d="M0 0 C0.99 0.495 0.99 0.495 2 1 C1.67 1.99 1.34 2.98 1 4 C1.66 4 2.32 4 3 4 C3 3.34 3 2.68 3 2 C3.66 2 4.32 2 5 2 C7.35108558 5.70821628 7.43155058 9.48605238 7.625 13.75 C7.66367187 14.44738281 7.70234375 15.14476562 7.7421875 15.86328125 C7.83598624 17.57510818 7.91906174 19.28751682 8 21 C1.49090437 14.79958313 0.50609802 8.67347291 0 0 Z " fill="#46602A" transform="translate(24,18)"/>
<path d="M0 0 C0.33 0 0.66 0 1 0 C1.53580497 1.87077668 2.05298887 3.7468917 2.5625 5.625 C2.85253906 6.66914063 3.14257812 7.71328125 3.44140625 8.7890625 C4.03574959 12.20549763 3.63849919 14.62304872 3 18 C3.33 18.99 3.66 19.98 4 21 C4 21.66 4 22.32 4 23 C3.34 23.33 2.68 23.66 2 24 C0.86649466 26.01669827 0.86649466 26.01669827 0 28 C-1.0326802 25.21176345 -1.04509293 24.1322726 -0.0625 21.25 C0.288125 20.5075 0.63875 19.765 1 19 C0.01 19.33 -0.98 19.66 -2 20 C-1.90460938 19.39671875 -1.80921875 18.7934375 -1.7109375 18.171875 C-1.60007812 17.37265625 -1.48921875 16.5734375 -1.375 15.75 C-1.25898437 14.96109375 -1.14296875 14.1721875 -1.0234375 13.359375 C-0.99680605 10.67847541 -1.63407916 9.27305911 -3 7 C-2.34 7 -1.68 7 -1 7 C-0.67 4.69 -0.34 2.38 0 0 Z " fill="#677554" transform="translate(90,10)"/>
<path d="M0 0 C0.61875 0.474375 1.2375 0.94875 1.875 1.4375 C3.90705546 3.02417441 3.90705546 3.02417441 6 4 C6.72159424 5.64363134 7.39351421 7.31050386 8 9 C8.99 8.67 9.98 8.34 11 8 C10.34 10.97 9.68 13.94 9 17 C4.34168754 14.67084377 4.00520805 13.6206968 2 9 C1.70738281 8.37996094 1.41476563 7.75992187 1.11328125 7.12109375 C0.339643 5.4442941 -0.33708574 3.72357706 -1 2 C-0.67 1.34 -0.34 0.68 0 0 Z " fill="#A6B166" transform="translate(80,0)"/>
<path d="M0 0 C2.375 0.1875 2.375 0.1875 5 1 C7.98983539 5.78373663 8.34558317 12.58091779 7.5625 18.0625 C7.376875 18.701875 7.19125 19.34125 7 20 C4.82484141 16.73726211 3.68988059 13.69089287 2.375 10 C1.70597656 8.14375 1.70597656 8.14375 1.0234375 6.25 C0 3 0 3 0 0 Z " fill="#D9E1F0" transform="translate(42,41)"/>
<path d="M0 0 C0.99 0 1.98 0 3 0 C3.66 3.3 4.32 6.6 5 10 C-0.75 15 -0.75 15 -3 15 C-3.33 12.36 -3.66 9.72 -4 7 C-3.67 7.66 -3.34 8.32 -3 9 C-2.34 8.67 -1.68 8.34 -1 8 C-0.53476937 6.10466658 -0.53476937 6.10466658 -0.375 3.9375 C-0.25125 2.638125 -0.1275 1.33875 0 0 Z " fill="#29461F" transform="translate(5,29)"/>
<path d="M0 0 C2.02225194 3.0333779 2.99347524 5.61344489 4.125 9.0625 C4.47820313 10.12597656 4.83140625 11.18945312 5.1953125 12.28515625 C6 15 6 15 6 17 C5.01 17.33 4.02 17.66 3 18 C2.34 16.35 1.68 14.7 1 13 C0.34 13 -0.32 13 -1 13 C-1.309375 12.21625 -1.61875 11.4325 -1.9375 10.625 C-2.92875038 8.07669872 -2.92875038 8.07669872 -4 6 C-3.34 5.01 -2.68 4.02 -2 3 C-1.67 3.33 -1.34 3.66 -1 4 C-0.67 2.68 -0.34 1.36 0 0 Z " fill="#C9DAF7" transform="translate(41,48)"/>
<path d="M0 0 C1.09182762 3.27548287 0.84477309 3.84434268 0 7 C-0.07911543 8.65989282 -0.10778885 10.3226287 -0.09765625 11.984375 C-0.09443359 12.91894531 -0.09121094 13.85351562 -0.08789062 14.81640625 C-0.07951172 15.78449219 -0.07113281 16.75257812 -0.0625 17.75 C-0.05798828 18.73355469 -0.05347656 19.71710938 -0.04882812 20.73046875 C-0.03706483 23.15370791 -0.02062684 25.57682273 0 28 C1.32 27.67 2.64 27.34 4 27 C3.67 27.66 3.34 28.32 3 29 C2.34 29 1.68 29 1 29 C1 29.66 1 30.32 1 31 C1.99 31.33 2.98 31.66 4 32 C4 32.33 4 32.66 4 33 C2.02 33 0.04 33 -2 33 C-3.29106905 21.95674863 -3.23561754 11.96594883 -1 1 C-0.67 0.67 -0.34 0.34 0 0 Z " fill="#A0B1C9" transform="translate(76,63)"/>
<path d="M0 0 C2.25 -0.3125 2.25 -0.3125 5 0 C7.3125 2.5 7.3125 2.5 9 5 C4.25 3.125 4.25 3.125 2 2 C2.433125 2.90363281 2.86625 3.80726562 3.3125 4.73828125 C4.1478125 6.50751953 4.1478125 6.50751953 5 8.3125 C5.556875 9.48425781 6.11375 10.65601562 6.6875 11.86328125 C8 15 8 15 8 18 C7.34 17.34 6.68 16.68 6 16 C5.01 16.33 4.02 16.66 3 17 C0.70657253 11.10261508 -0.34548714 6.33393082 0 0 Z " fill="#5D7B41" transform="translate(82,56)"/>
<path d="M0 0 C1.54571278 2.31856917 2.79618552 4.50638429 4 7 C3.01 7.66 2.02 8.32 1 9 C0.29289322 10.64991582 -0.36562656 12.3207762 -1 14 C-2.2743221 16.37151834 -3.63454382 18.6787245 -5 21 C-6.57735254 16.99131423 -5.38073497 13.94727547 -4.1875 9.9375 C-3.83042969 8.70902344 -3.47335938 7.48054688 -3.10546875 6.21484375 C-2 3 -2 3 0 0 Z " fill="#D8E7EB" transform="translate(23,51)"/>
<path d="M0 0 C0.66 0 1.32 0 2 0 C3 6.75 3 6.75 3 9 C4.32 9 5.64 9 7 9 C5.125 14.75 5.125 14.75 4 17 C3.34 17 2.68 17 2 17 C2.33 15.35 2.66 13.7 3 12 C1.824375 11.7834375 1.824375 11.7834375 0.625 11.5625 C-2 11 -2 11 -4 10 C-3.6875 8.0625 -3.6875 8.0625 -3 6 C-2.01 5.67 -1.02 5.34 0 5 C0 3.35 0 1.7 0 0 Z " fill="#B08F6B" transform="translate(57,13)"/>
<path d="M0 0 C0.66 0 1.32 0 2 0 C3.65 4.29 5.3 8.58 7 13 C7.66 12.34 8.32 11.68 9 11 C9 15.29 9 19.58 9 24 C8.34 24 7.68 24 7 24 C5.82599412 20.56496228 4.66206791 17.12659286 3.5 13.6875 C3.16613281 12.71103516 2.83226562 11.73457031 2.48828125 10.72851562 C2.17246094 9.79072266 1.85664062 8.85292969 1.53125 7.88671875 C1.23798828 7.02264404 0.94472656 6.15856934 0.64257812 5.26831055 C0 3 0 3 0 0 Z " fill="#6B78B7" transform="translate(41,45)"/>
<path d="M0 0 C2.68056948 2.28636808 3.87410807 3.6223242 5 7 C6.32 6.34 7.64 5.68 9 5 C9.33 6.32 9.66 7.64 10 9 C8.3125 9.8125 8.3125 9.8125 6 10 C3.375 7.625 3.375 7.625 1 5 C0.34 4.67 -0.32 4.34 -1 4 C-0.65213292 5.97536745 -0.65213292 5.97536745 0 8 C0.66 8.33 1.32 8.66 2 9 C1.67 10.65 1.34 12.3 1 14 C0.58621094 13.14148438 0.58621094 13.14148438 0.1640625 12.265625 C-0.99467848 10.01035733 -2.26875706 7.89143622 -3.625 5.75 C-4.07101563 5.04359375 -4.51703125 4.3371875 -4.9765625 3.609375 C-5.31429688 3.07828125 -5.65203125 2.5471875 -6 2 C-3 0 -3 0 0 0 Z " fill="#719A46" transform="translate(11,23)"/>
<path d="M0 0 C0.66 0 1.32 0 2 0 C2 1.32 2 2.64 2 4 C2.99 4 3.98 4 5 4 C5 6.64 5 9.28 5 12 C1.7 12 -1.6 12 -5 12 C-5 11.01 -5 10.02 -5 9 C-3.35 8.67 -1.7 8.34 0 8 C-0.185625 7.05125 -0.37125 6.1025 -0.5625 5.125 C-1 2 -1 2 0 0 Z " fill="#505823" transform="translate(8,88)"/>
<path d="M0 0 C0.61875 0.33 1.2375 0.66 1.875 1 C3.91018344 2.14193235 3.91018344 2.14193235 6 2 C5.625 3.9375 5.625 3.9375 5 6 C4.01 6.495 4.01 6.495 3 7 C3.22816406 7.61488281 3.45632812 8.22976562 3.69140625 8.86328125 C4.12259766 10.07564453 4.12259766 10.07564453 4.5625 11.3125 C4.85253906 12.11300781 5.14257812 12.91351563 5.44140625 13.73828125 C6 16 6 16 5 19 C0.06732525 14.39617023 -0.51387811 8.45302985 -1 2 C-0.67 1.34 -0.34 0.68 0 0 Z " fill="#2E4529" transform="translate(87,71)"/>
<path d="M0 0 C0.763125 0.804375 1.52625 1.60875 2.3125 2.4375 C5.5092013 5.48551751 7.08220668 5.91656424 11.4375 6.3125 C15.06271484 6.33215156 15.06271484 6.33215156 17.4375 4 C17.953125 3.34 18.46875 2.68 19 2 C18.44449305 5.59905908 17.25112752 6.99909799 14.4375 9.25 C13.79683594 9.77078125 13.15617187 10.2915625 12.49609375 10.828125 C12.00238281 11.21484375 11.50867187 11.6015625 11 12 C3.71003717 8.01115242 3.71003717 8.01115242 1 5 C0.67 5 0.34 5 0 5 C0 3.35 0 1.7 0 0 Z " fill="#988A70" transform="translate(41,34)"/>
<path d="M0 0 C0.33 0.66 0.66 1.32 1 2 C1.66 2.33 2.32 2.66 3 3 C2.34 4.32 1.68 5.64 1 7 C0.34 6.34 -0.32 5.68 -1 5 C-1.33 7.64 -1.66 10.28 -2 13 C-2.99 13 -3.98 13 -5 13 C-5.19477739 11.37585622 -5.38059458 9.75063577 -5.5625 8.125 C-5.66691406 7.22007813 -5.77132812 6.31515625 -5.87890625 5.3828125 C-6 3 -6 3 -5 1 C-2.4375 0.375 -2.4375 0.375 0 0 Z " fill="#3F5B39" transform="translate(73,10)"/>
<path d="M0 0 C2.17094477 2.17094477 2.4863 3.15752856 3.1875 6.0625 C3.45626953 7.13177734 3.45626953 7.13177734 3.73046875 8.22265625 C3.81941406 8.80917969 3.90835938 9.39570312 4 10 C3.67 10.33 3.34 10.66 3 11 C2.76924918 12.34747084 2.58846937 13.70377565 2.4375 15.0625 C2.293125 16.361875 2.14875 17.66125 2 19 C2.66 19 3.32 19 4 19 C4.33 19.99 4.66 20.98 5 22 C2.37684968 23.31157516 0.76966564 22.89649988 -2.125 22.5625 C-3.03507812 22.46066406 -3.94515625 22.35882813 -4.8828125 22.25390625 C-5.58148438 22.17011719 -6.28015625 22.08632812 -7 22 C-7 21.67 -7 21.34 -7 21 C-4.36 21 -1.72 21 1 21 C0.835 19.7625 0.67 18.525 0.5 17.25 C-0.15112429 11.49993057 -0.08800414 5.7789386 0 0 Z " fill="#B3C7EA" transform="translate(57,68)"/>
<path d="M0 0 C2.82345231 2.82345231 2.67277783 5.07333391 3 9 C2.5625 12.4375 2.5625 12.4375 2 15 C0.68 14.67 -0.64 14.34 -2 14 C-2 13.34 -2 12.68 -2 12 C-2.99 12 -3.98 12 -5 12 C-3.99518429 9.99036858 -2.99167985 7.98433854 -1.9375 6 C-1.00499339 4.01065256 -0.45925984 2.14321257 0 0 Z " fill="#24431C" transform="translate(15,51)"/>
<path d="M0 0 C0.66 0 1.32 0 2 0 C2.25 5.625 2.25 5.625 0 9 C-1.32 8.67 -2.64 8.34 -4 8 C-4.33 8.99 -4.66 9.98 -5 11 C-5 9.68 -5 8.36 -5 7 C-5.99 7 -6.98 7 -8 7 C-7.67 6.01 -7.34 5.02 -7 4 C-6.34 4 -5.68 4 -5 4 C-4.67 3.01 -4.34 2.02 -4 1 C-3.01 1.33 -2.02 1.66 -1 2 C-0.67 1.34 -0.34 0.68 0 0 Z " fill="#37551F" transform="translate(66,26)"/>
<path d="M0 0 C1.41377341 2.63904371 2.37240135 5.07120629 3 8 C2.34 8 1.68 8 1 8 C0.95101562 8.69867188 0.90203125 9.39734375 0.8515625 10.1171875 C0.77679688 11.02726562 0.70203125 11.93734375 0.625 12.875 C0.55539063 13.77992187 0.48578125 14.68484375 0.4140625 15.6171875 C0 18 0 18 -2 20 C-2.39764263 21.98821313 -2.73775349 23.98944339 -3 26 C-3.33 26 -3.66 26 -4 26 C-4.22144475 20.46388128 -3.86461526 16.26479603 -2 11 C-1.67272202 8.65317738 -1.44285366 6.31424397 -1.24609375 3.953125 C-1 2 -1 2 0 0 Z " fill="#B6C5D0" transform="translate(79,53)"/>
<path d="M0 0 C0.66 3.3 1.32 6.6 2 10 C3.32 9.67 4.64 9.34 6 9 C6 10.65 6 12.3 6 14 C5.01 14.33 4.02 14.66 3 15 C2.67 15.66 2.34 16.32 2 17 C1.33333333 15.33333333 0.66666667 13.66666667 0 12 C-0.37125 11.13375 -0.7425 10.2675 -1.125 9.375 C-2 7 -2 7 -2 4 C-2.99 4 -3.98 4 -5 4 C-5 3.01 -5 2.02 -5 1 C-2 0 -2 0 0 0 Z " fill="#2F4C1E" transform="translate(21,32)"/>
<path d="M0 0 C2.97 0 5.94 0 9 0 C10.25541557 3.76624671 9.37061958 5.37188934 8 9 C7.67 8.01 7.34 7.02 7 6 C6.01 6.33 5.02 6.66 4 7 C1.8125 5.8125 1.8125 5.8125 0 4 C0 2.68 0 1.36 0 0 Z " fill="#678448" transform="translate(0,0)"/>
<path d="M0 0 C0.33 1.32 0.66 2.64 1 4 C3.31 4.33 5.62 4.66 8 5 C8 4.34 8 3.68 8 3 C8.66 3 9.32 3 10 3 C10 4.65 10 6.3 10 8 C6.37 8.33 2.74 8.66 -1 9 C-1.125 2.25 -1.125 2.25 0 0 Z " fill="#E6BB9B" transform="translate(42,19)"/>
<path d="M0 0 C0.99 0.33 1.98 0.66 3 1 C1.74915983 4.75252052 -0.04209109 7.41182971 -3 10 C-3.66 10 -4.32 10 -5 10 C-6.37310707 11.29233607 -7.71034824 12.62437146 -9 14 C-9 11.69 -9 9.38 -9 7 C-7.02 6.34 -5.04 5.68 -3 5 C-3 4.34 -3 3.68 -3 3 C-2.01 3 -1.02 3 0 3 C0 2.01 0 1.02 0 0 Z " fill="#4D7438" transform="translate(9,65)"/>
<path d="M0 0 C4.29 0 8.58 0 13 0 C13 0.33 13 0.66 13 1 C9.04 1 5.08 1 1 1 C1 2.98 1 4.96 1 7 C2.65 7 4.3 7 6 7 C6.33 8.65 6.66 10.3 7 12 C4.69 11.67 2.38 11.34 0 11 C-1.15299221 6.64425167 -0.80558057 4.83348343 0 0 Z " fill="#B8A287" transform="translate(43,12)"/>
<path d="M0 0 C2.97 0 5.94 0 9 0 C8.67 1.65 8.34 3.3 8 5 C6.35 5.33 4.7 5.66 3 6 C3 6.99 3 7.98 3 9 C2.34 9 1.68 9 1 9 C0.67 6.03 0.34 3.06 0 0 Z " fill="#768571" transform="translate(38,0)"/>
<path d="M0 0 C0.66 0 1.32 0 2 0 C2.66 1.32 3.32 2.64 4 4 C3.01 4 2.02 4 1 4 C1.20625 4.556875 1.4125 5.11375 1.625 5.6875 C2.10695211 8.659538 1.26565028 10.31979941 0 13 C-0.66 13 -1.32 13 -2 13 C-2 14.98 -2 16.96 -2 19 C-4 17 -4 17 -4.265625 14.90625 C-4.25789062 13.71515625 -4.25789062 13.71515625 -4.25 12.5 C-4.25515625 11.7059375 -4.2603125 10.911875 -4.265625 10.09375 C-4 8 -4 8 -2 6 C-1.28591666 4.01643517 -0.61382258 2.01684563 0 0 Z " fill="#567834" transform="translate(4,25)"/>
<path d="M0 0 C0.33 0 0.66 0 1 0 C1.10655578 6.44070471 0.96205088 12.62641289 0 19 C-3.35595828 18.40072174 -5.37801226 17.15377564 -8 15 C-6.68 15 -5.36 15 -4 15 C-3.814375 14.071875 -3.814375 14.071875 -3.625 13.125 C-3 11 -3 11 -1 9 C-0.53993654 6.79749008 -0.53993654 6.79749008 -0.375 4.375 C-0.26285156 3.14910156 -0.26285156 3.14910156 -0.1484375 1.8984375 C-0.09945313 1.27195312 -0.05046875 0.64546875 0 0 Z " fill="#929C9A" transform="translate(31,81)"/>
<path d="M0 0 C0.33 1.32 0.66 2.64 1 4 C2.65 4 4.3 4 6 4 C5.34 7.96 4.68 11.92 4 16 C0.38860104 13.44559585 0.38860104 13.44559585 -1 11 C-1.14751428 7.24892268 -0.65257202 3.68929329 0 0 Z " fill="#2A3E81" transform="translate(50,60)"/>
<path d="M0 0 C1.9375 0.375 1.9375 0.375 4 1 C4.33 1.66 4.66 2.32 5 3 C5.66 3 6.32 3 7 3 C7.33 2.34 7.66 1.68 8 1 C8.22991927 5.71334503 7.57210668 9.54569773 6 14 C5.01 14.495 5.01 14.495 4 15 C3.63779734 13.20994059 3.28547531 11.41787943 2.9375 9.625 C2.74027344 8.62726562 2.54304688 7.62953125 2.33984375 6.6015625 C2 4 2 4 3 2 C2.01 1.67 1.02 1.34 0 1 C0 0.67 0 0.34 0 0 Z " fill="#1B410F" transform="translate(90,51)"/>
<path d="M0 0 C0.66 0.33 1.32 0.66 2 1 C2.125 6.75 2.125 6.75 1 9 C1.66 9 2.32 9 3 9 C2.44271087 12.34373475 1.64826111 15.03312999 0 18 C-0.33 18 -0.66 18 -1 18 C-1.36463732 16.25215171 -1.7163078 14.50159498 -2.0625 12.75 C-2.25972656 11.77546875 -2.45695312 10.8009375 -2.66015625 9.796875 C-2.98397535 7.131881 -2.85503199 5.51128277 -2 3 C-1.67 3.66 -1.34 4.32 -1 5 C-0.67 3.35 -0.34 1.7 0 0 Z " fill="#42533A" transform="translate(88,20)"/>
<path d="M0 0 C0.66 1.32 1.32 2.64 2 4 C2.99 4 3.98 4 5 4 C4.34 2.68 3.68 1.36 3 0 C4.32 0.33 5.64 0.66 7 1 C6.67 2.32 6.34 3.64 6 5 C5.34 5 4.68 5 4 5 C4 6.65 4 8.3 4 10 C3.01 10.33 2.02 10.66 1 11 C1 10.34 1 9.68 1 9 C0.34 9 -0.32 9 -1 9 C-1.09765625 2.84765625 -1.09765625 2.84765625 -1 1 C-0.67 0.67 -0.34 0.34 0 0 Z " fill="#CBDDF5" transform="translate(60,78)"/>
<path d="M0 0 C0.66 0 1.32 0 2 0 C3.10631094 6.62453662 3.39857935 11.08395447 0 17 C-0.66 17.33 -1.32 17.66 -2 18 C-1.85805236 15.93722893 -1.71127784 13.87478969 -1.5625 11.8125 C-1.48128906 10.66394531 -1.40007812 9.51539062 -1.31640625 8.33203125 C-1.04596188 5.48401829 -0.62478253 2.78789518 0 0 Z " fill="#C7D8E7" transform="translate(80,61)"/>
<path d="M0 0 C1.32 1.32 2.64 2.64 4 4 C3.34 5.98 2.68 7.96 2 10 C3.32 9.01 4.64 8.02 6 7 C6.66 8.32 7.32 9.64 8 11 C4.37 11 0.74 11 -3 11 C-1 6 -1 6 1 3 C0.34 3 -0.32 3 -1 3 C-0.67 2.01 -0.34 1.02 0 0 Z " fill="#2C4D1C" transform="translate(90,89)"/>
<path d="M0 0 C1.81406963 3.2880012 2.24202189 5.35425116 1.6875 9.125 C1.460625 9.74375 1.23375 10.3625 1 11 C0.01 11.33 -0.98 11.66 -2 12 C-2.33 12.66 -2.66 13.32 -3 14 C-3.99 14 -4.98 14 -6 14 C-4.50829734 9.0276578 -2.39542583 4.58154261 0 0 Z " fill="#C7D5E6" transform="translate(84,75)"/>
<path d="M0 0 C3.0831351 1.19899698 6.06279492 2.47700477 9 4 C9.33 3.01 9.66 2.02 10 1 C9.67 3.97 9.34 6.94 9 10 C7.67823515 9.09674384 6.36784934 8.17682097 5.0625 7.25 C4.33160156 6.73953125 3.60070312 6.2290625 2.84765625 5.703125 C0.79194601 3.80822085 0.37330824 2.72574271 0 0 Z " fill="#66924A" transform="translate(7,71)"/>
<path d="M0 0 C0.33 0 0.66 0 1 0 C1.23268915 6.28260706 0.40454548 11.88019467 -1 18 C-1.99 17.67 -2.98 17.34 -4 17 C-3.52555245 14.35323911 -3.04568672 11.70766636 -2.5625 9.0625 C-2.42779297 8.30775391 -2.29308594 7.55300781 -2.15429688 6.77539062 C-1.11328125 1.11328125 -1.11328125 1.11328125 0 0 Z " fill="#6176BA" transform="translate(60,44)"/>
<path d="M0 0 C1.9375 0.8125 1.9375 0.8125 4 2 C4.33 2.99 4.66 3.98 5 5 C5.99 5.33 6.98 5.66 8 6 C7.67 8.64 7.34 11.28 7 14 C5.68 13.01 4.36 12.02 3 11 C3.33 9.35 3.66 7.7 4 6 C3.01 5.67 2.02 5.34 1 5 C0.67 3.35 0.34 1.7 0 0 Z " fill="#547723" transform="translate(9,26)"/>
<path d="M0 0 C0.66 0 1.32 0 2 0 C2 1.32 2 2.64 2 4 C1.34 4 0.68 4 0 4 C0 4.99 0 5.98 0 7 C0.66 7.66 1.32 8.32 2 9 C0.68 9 -0.64 9 -2 9 C-2.33 9.99 -2.66 10.98 -3 12 C-3.99 9.03 -4.98 6.06 -6 3 C-5.195625 2.87625 -4.39125 2.7525 -3.5625 2.625 C-2.716875 2.41875 -1.87125 2.2125 -1 2 C-0.67 1.34 -0.34 0.68 0 0 Z " fill="#61775B" transform="translate(84,47)"/>
<path d="M0 0 C1.65 1.65 3.3 3.3 5 5 C4.34 6.32 3.68 7.64 3 9 C2.67 7.68 2.34 6.36 2 5 C-2.455 5.495 -2.455 5.495 -7 6 C-7 5.01 -7 4.02 -7 3 C-4.69 2.01 -2.38 1.02 0 0 Z " fill="#8E6B56" transform="translate(53,27)"/>
<path d="M0 0 C0.33 0 0.66 0 1 0 C1 5.94 1 11.88 1 18 C-1.12481568 14.81277648 -2.23482942 12.75629196 -3 9 C-2.29025549 5.87508173 -1.22272905 2.95821545 0 0 Z " fill="#598133" transform="translate(99,51)"/>
<path d="M0 0 C0.66 0.33 1.32 0.66 2 1 C2.31241455 3.71446979 2.51336592 6.33909361 2.625 9.0625 C2.66367187 9.82111328 2.70234375 10.57972656 2.7421875 11.36132812 C2.83673562 13.24047195 2.91946756 15.12020336 3 17 C2.34 17 1.68 17 1 17 C-1.37706418 13.33460332 -1.05094317 10.50943165 -0.625 6.25 C-0.51414063 5.07953125 -0.40328125 3.9090625 -0.2890625 2.703125 C-0.19367187 1.81109375 -0.09828125 0.9190625 0 0 Z " fill="#C7D9F7" transform="translate(61,43)"/>
<path d="M0 0 C0 3.61029169 -0.96092582 6.55806676 -2 10 C-4.5 8.875 -4.5 8.875 -7 7 C-7.3125 3.8125 -7.3125 3.8125 -7 1 C-6.67 1.66 -6.34 2.32 -6 3 C-4.02 2.01 -2.04 1.02 0 0 Z " fill="#436934" transform="translate(7,41)"/>
<path d="M0 0 C1.65 1.32 3.3 2.64 5 4 C5.66 3.67 6.32 3.34 7 3 C7 6.3 7 9.6 7 13 C2.07692308 8.69230769 2.07692308 8.69230769 1.6875 5.1875 C1.790625 4.465625 1.89375 3.74375 2 3 C1.01 2.67 0.02 2.34 -1 2 C-0.67 1.34 -0.34 0.68 0 0 Z " fill="#60834B" transform="translate(10,13)"/>
<path d="M0 0 C3.94714588 3.94714588 3.94714588 3.94714588 4.09765625 6.9453125 C4.06510417 8.96354167 4.03255208 10.98177083 4 13 C2.68 12.34 1.36 11.68 0 11 C0 7.37 0 3.74 0 0 Z " fill="#537941" transform="translate(0,51)"/>
<path d="M0 0 C0.33 0.66 0.66 1.32 1 2 C0.67 2.99 0.34 3.98 0 5 C0.66 5 1.32 5 2 5 C2.25532751 8.06393013 2.21861333 9.63233212 0.625 12.3125 C-0.179375 13.1478125 -0.179375 13.1478125 -1 14 C-1.66 14 -2.32 14 -3 14 C-2.88570603 12.22844346 -2.75816963 10.45773771 -2.625 8.6875 C-2.55539063 7.70136719 -2.48578125 6.71523438 -2.4140625 5.69921875 C-2 3 -2 3 0 0 Z " fill="#82A237" transform="translate(71,25)"/>
<path d="M0 0 C2.64 0 5.28 0 8 0 C7.67 3.63 7.34 7.26 7 11 C5 8 5 8 4.0625 5.9375 C3.01748702 3.67738896 3.01748702 3.67738896 0 2 C0 1.34 0 0.68 0 0 Z " fill="#7B9043" transform="translate(81,0)"/>
<path d="M0 0 C1.984375 1.484375 1.984375 1.484375 4 4 C4.2906124 6.89449949 4.38186045 9.37949935 4.25 12.25 C4.23195313 12.99507812 4.21390625 13.74015625 4.1953125 14.5078125 C4.14835649 16.33909701 4.07661652 18.16971649 4 20 C2 18 2 18 1.76953125 15.72265625 C1.78371094 14.84480469 1.79789062 13.96695313 1.8125 13.0625 C1.81894531 12.18722656 1.82539062 11.31195313 1.83203125 10.41015625 C2 8 2 8 3 5 C2.01 5 1.02 5 0 5 C0 3.35 0 1.7 0 0 Z " fill="#7C966B" transform="translate(96,29)"/>
<path d="M0 0 C0 1.98 0 3.96 0 6 C-0.66 4.68 -1.32 3.36 -2 2 C-2.66 2 -3.32 2 -4 2 C-4 2.66 -4 3.32 -4 4 C-4.99 4 -5.98 4 -7 4 C-7.33 4.99 -7.66 5.98 -8 7 C-8.99 7 -9.98 7 -11 7 C-10.67 5.35 -10.34 3.7 -10 2 C-6.38026598 0.68373308 -3.90432869 0 0 0 Z " fill="#8AA7C4" transform="translate(60,90)"/>
<path d="M0 0 C3.66829266 5.50243899 3.12789125 11.60543766 3 18 C1.35 18 -0.3 18 -2 18 C-1.484375 17.608125 -0.96875 17.21625 -0.4375 16.8125 C1.30408494 15.047528 1.30408494 15.047528 0.75 12.4375 C0.080487 10.02397485 0.080487 10.02397485 -1 8 C-0.67 7.01 -0.34 6.02 0 5 C0.03874921 3.33378384 0.0450286 1.66605828 0 0 Z " fill="#ACC0C7" transform="translate(85,73)"/>
<path d="M0 0 C1.66666667 0 3.33333333 0 5 0 C5.08159574 4.16138263 4.98248524 7.9472484 4 12 C0.67617413 7.66457495 -0.12018668 5.52858726 0 0 Z " fill="#5A7748" transform="translate(94,34)"/>
<path d="M0 0 C0.99 0 1.98 0 3 0 C3.66 4.29 4.32 8.58 5 13 C3.68 13 2.36 13 1 13 C0.67 12.01 0.34 11.02 0 10 C0.33 9.67 0.66 9.34 1 9 C0.91062197 7.47480724 0.75462854 5.95318071 0.5625 4.4375 C0.46066406 3.61121094 0.35882812 2.78492188 0.25390625 1.93359375 C0.17011719 1.29550781 0.08632813 0.65742188 0 0 Z " fill="#5E8011" transform="translate(29,0)"/>
<path d="M0 0 C2 2 2 2 2.125 5.125 C2.08375 6.07375 2.0425 7.0225 2 8 C2.66 8.33 3.32 8.66 4 9 C3.34 9 2.68 9 2 9 C1.67 9.66 1.34 10.32 1 11 C-0.5 9.9375 -0.5 9.9375 -2 8 C-2.1875 4.3125 -2.1875 4.3125 -2 1 C-1.34 0.67 -0.68 0.34 0 0 Z " fill="#486624" transform="translate(14,7)"/>
<path d="M0 0 C1.51953125 1.17578125 1.51953125 1.17578125 3 3 C3.07421875 5.48046875 3.07421875 5.48046875 2.6875 8.1875 C2.50767578 9.53908203 2.50767578 9.53908203 2.32421875 10.91796875 C2.21722656 11.60503906 2.11023437 12.29210938 2 13 C0.26732028 10.40098042 -0.48482049 8.86157884 -1.25 5.9375 C-1.44078125 5.24527344 -1.6315625 4.55304687 -1.828125 3.83984375 C-1.88484375 3.23269531 -1.9415625 2.62554687 -2 2 C-1.34 1.34 -0.68 0.68 0 0 Z " fill="#BAC8ED" transform="translate(47,48)"/>
<path d="M0 0 C2.31 0.33 4.62 0.66 7 1 C7 2.32 7 3.64 7 5 C4.03 5 1.06 5 -2 5 C-2 4.01 -2 3.02 -2 2 C-1.34 2 -0.68 2 0 2 C0 1.34 0 0.68 0 0 Z " fill="#273233" transform="translate(45,6)"/>
<path d="M0 0 C0.66 0.33 1.32 0.66 2 1 C0.02 1.99 0.02 1.99 -2 3 C-2 4.32 -2 5.64 -2 7 C-0.68 6.67 0.64 6.34 2 6 C1.34 7.65 0.68 9.3 0 11 C-1.98 10.01 -3.96 9.02 -6 8 C-5.34 7.01 -4.68 6.02 -4 5 C-3.67 4.29875 -3.34 3.5975 -3 2.875 C-2 1 -2 1 0 0 Z " fill="#6A884C" transform="translate(77,38)"/>
<path d="M0 0 C0.33 0 0.66 0 1 0 C1 2.31 1 4.62 1 7 C1.66 6.67 2.32 6.34 3 6 C3 7.98 3 9.96 3 12 C1.68 11.67 0.36 11.34 -1 11 C-1 10.01 -1 9.02 -1 8 C-1.66 8 -2.32 8 -3 8 C-2.45276317 4.62537285 -1.9451 2.91765 0 0 Z " fill="#4D6834" transform="translate(91,34)"/>
<path d="M0 0 C0.66 0.33 1.32 0.66 2 1 C1.67 4.96 1.34 8.92 1 13 C-1.56864728 11.71567636 -1.946539 10.63365249 -3 8 C-3 6.68 -3 5.36 -3 4 C-2.01 4 -1.02 4 0 4 C0 2.68 0 1.36 0 0 Z " fill="#94AE5F" transform="translate(11,1)"/>
<path d="M0 0 C0.928125 0.2784375 0.928125 0.2784375 1.875 0.5625 C4.04160178 1.23686176 4.04160178 1.23686176 6 0 C6 2.97 6 5.94 6 9 C5.34 9 4.68 9 4 9 C2 6 2 6 2 3 C1.34 3 0.68 3 0 3 C0 2.01 0 1.02 0 0 Z " fill="#577B40" transform="translate(94,87)"/>
<path d="M0 0 C1.95216435 3.90432869 2.50639991 6.72213252 3 11 C3.66 11 4.32 11 5 11 C5 11.99 5 12.98 5 14 C3.35 14 1.7 14 0 14 C0 9.38 0 4.76 0 0 Z " fill="#3C4F79" transform="translate(50,75)"/>
<path d="M0 0 C0.66 0 1.32 0 2 0 C2.33 2.64 2.66 5.28 3 8 C2.34 7.34 1.68 6.68 1 6 C0.71125 6.94875 0.4225 7.8975 0.125 8.875 C-1 12 -1 12 -3 14 C-2.67 10.7 -2.34 7.4 -2 4 C-1.34 4 -0.68 4 0 4 C-0.33 3.01 -0.66 2.02 -1 1 C-0.67 0.67 -0.34 0.34 0 0 Z " fill="#344C28" transform="translate(94,29)"/>
<path d="M0 0 C3.36720387 1.39332574 4.9859524 2.9789286 7 6 C6.34 6 5.68 6 5 6 C5.33 6.99 5.66 7.98 6 9 C5.01 8.67 4.02 8.34 3 8 C3 7.34 3 6.68 3 6 C0.69 5.67 -1.62 5.34 -4 5 C-3.01 4.34 -2.02 3.68 -1 3 C-0.01 3.33 0.98 3.66 2 4 C2 3.34 2 2.68 2 2 C1.34 2 0.68 2 0 2 C0 1.34 0 0.68 0 0 Z " fill="#324A49" transform="translate(58,4)"/>
<path d="M0 0 C0.99 0 1.98 0 3 0 C3 0.66 3 1.32 3 2 C7.54805635 2.17835515 10.8794254 1.99785435 15 0 C14.67 1.32 14.34 2.64 14 4 C8.87416389 4.10251672 4.05002222 4.03590199 -1 3 C-0.67 2.01 -0.34 1.02 0 0 Z " fill="#B1C4D9" transform="translate(73,96)"/>
<path d="M0 0 C0 0.99 0 1.98 0 3 C-0.66 3 -1.32 3 -2 3 C-2.33 3.99 -2.66 4.98 -3 6 C-5.31 5.67 -7.62 5.34 -10 5 C-10 4.34 -10 3.68 -10 3 C-9.05125 2.690625 -8.1025 2.38125 -7.125 2.0625 C-1.05882353 0 -1.05882353 0 0 0 Z " fill="#CCE0FB" transform="translate(72,71)"/>
<path d="M0 0 C1.231394 3.69418201 0.64432764 6.2056261 0 10 C-2.97 9.505 -2.97 9.505 -6 9 C-6.33 7.68 -6.66 6.36 -7 5 C-5.02 5.99 -5.02 5.99 -3 7 C-2.690625 6.030625 -2.38125 5.06125 -2.0625 4.0625 C-1 1 -1 1 0 0 Z " fill="#193D13" transform="translate(7,43)"/>
<path d="M0 0 C1.65 0 3.3 0 5 0 C5.08912219 3.83225427 4.87867729 7.26562152 4 11 C3.01 11 2.02 11 1 11 C1 9.35 1 7.7 1 6 C1.66 6 2.32 6 3 6 C3 5.01 3 4.02 3 3 C2.01 2.67 1.02 2.34 0 2 C0 1.34 0 0.68 0 0 Z " fill="#819D66" transform="translate(20,0)"/>
<path d="M0 0 C0.66 0 1.32 0 2 0 C2 0.66 2 1.32 2 2 C3.32 2 4.64 2 6 2 C6 2.66 6 3.32 6 4 C2.1496895 6.56687367 0.41430237 5.83288724 -4 5 C-4 4.34 -4 3.68 -4 3 C-2.68 3 -1.36 3 0 3 C0 2.01 0 1.02 0 0 Z " fill="#CBDCF5" transform="translate(80,93)"/>
<path d="M0 0 C-0.66 3.63 -1.32 7.26 -2 11 C-3.80330533 7.39338934 -4.46599103 4.91606575 -5 1 C-3 0 -3 0 0 0 Z " fill="#C0CFF6" transform="translate(58,51)"/>
<path d="M0 0 C0.33 0.99 0.66 1.98 1 3 C2.32 3 3.64 3 5 3 C5.33 2.34 5.66 1.68 6 1 C6.99 1.33 7.98 1.66 9 2 C8 4 8 4 6 5 C4.86649466 7.01669827 4.86649466 7.01669827 4 9 C0 4.5 0 4.5 0 0 Z " fill="#758435" transform="translate(36,29)"/>
<path d="M0 0 C0.99 0 1.98 0 3 0 C3.33 3.3 3.66 6.6 4 10 C3.01 10 2.02 10 1 10 C0.63720544 8.71073008 0.28503302 7.41846728 -0.0625 6.125 C-0.35833984 5.04605469 -0.35833984 5.04605469 -0.66015625 3.9453125 C-1 2 -1 2 0 0 Z " fill="#81B33A" transform="translate(95,1)"/>
<path d="M0 0 C0.33 0.99 0.66 1.98 1 3 C1.99 2.67 2.98 2.34 4 2 C4 2.99 4 3.98 4 5 C3.34 5 2.68 5 2 5 C2 5.99 2 6.98 2 8 C3.32 8.33 4.64 8.66 6 9 C5.01 9 4.02 9 3 9 C3 10.65 3 12.3 3 14 C-0.26566506 9.10150241 -0.09311493 5.68001091 0 0 Z " fill="#C6D8F6" transform="translate(58,62)"/>
<path d="M0 0 C0 1.98 0 3.96 0 6 C0.66 6 1.32 6 2 6 C1.67 6.99 1.34 7.98 1 9 C1 8.34 1 7.68 1 7 C0.34 7 -0.32 7 -1 7 C-1.99 7.99 -2.98 8.98 -4 10 C-4.33 7.03 -4.66 4.06 -5 1 C-1 0 -1 0 0 0 Z " fill="#C4CEDC" transform="translate(76,55)"/>
<path d="M0 0 C0.66 0 1.32 0 2 0 C2.05399736 1.45792884 2.09279177 2.91642712 2.125 4.375 C2.14820312 5.18710937 2.17140625 5.99921875 2.1953125 6.8359375 C2 9 2 9 0 11 C-0.66 10.67 -1.32 10.34 -2 10 C-2.33 10.66 -2.66 11.32 -3 12 C-3.33 11.34 -3.66 10.68 -4 10 C-3.67 9.34 -3.34 8.68 -3 8 C-2.34 8 -1.68 8 -1 8 C-0.67 5.36 -0.34 2.72 0 0 Z " fill="#3E542E" transform="translate(87,43)"/>
<path d="M0 0 C2.5 1.375 2.5 1.375 5 3 C5 3.66 5 4.32 5 5 C6.65 5.33 8.3 5.66 10 6 C8.625 7.5 8.625 7.5 7 9 C6.34 9 5.68 9 5 9 C2.38953552 6.15222057 0.57323431 3.86933162 0 0 Z " fill="#466A29" transform="translate(11,21)"/>
<path d="M0 0 C4.42857143 5.14285714 4.42857143 5.14285714 5 9 C4.01 9.33 3.02 9.66 2 10 C2 9.01 2 8.02 2 7 C0.68 7.33 -0.64 7.66 -2 8 C-2.20086443 4.28400809 -2.1519437 3.22791555 0 0 Z " fill="#4D5D2D" transform="translate(83,11)"/>
<path d="M0 0 C3.875 1.75 3.875 1.75 5 4 C4.67 4.66 4.34 5.32 4 6 C3.34 6 2.68 6 2 6 C2.33 8.31 2.66 10.62 3 13 C2.34 13 1.68 13 1 13 C0.1276588 10.00519083 -0.10829766 7.36424089 -0.0625 4.25 C-0.05347656 3.45078125 -0.04445313 2.6515625 -0.03515625 1.828125 C-0.02355469 1.22484375 -0.01195313 0.6215625 0 0 Z " fill="#5C762F" transform="translate(19,0)"/>
<path d="M0 0 C1.65 0 3.3 0 5 0 C5.25 7.625 5.25 7.625 3 11 C3 9.02 3 7.04 3 5 C2.34 5 1.68 5 1 5 C0.67 3.35 0.34 1.7 0 0 Z " fill="#97BC34" transform="translate(14,0)"/>
<path d="M0 0 C2.97 0 5.94 0 9 0 C8.67 1.65 8.34 3.3 8 5 C6.02 4.34 4.04 3.68 2 3 C2 2.34 2 1.68 2 1 C1.34 0.67 0.68 0.34 0 0 Z " fill="#426A21" transform="translate(53,0)"/>
<path d="M0 0 C2.48192093 2.5853343 2.99225664 3.92643811 3.375 7.5625 C3 11 3 11 1.5 12.9375 C1.005 13.288125 0.51 13.63875 0 14 C-1.06016415 9.99493545 -0.7908176 7.04195662 0 3 C0 2.01 0 1.02 0 0 Z " fill="#BED0D0" transform="translate(82,64)"/>
<path d="M0 0 C0.99 0.33 1.98 0.66 3 1 C3.70074844 4.153368 4 6.72724974 4 10 C3.34 9.67 2.68 9.34 2 9 C2 8.01 2 7.02 2 6 C1.01 5.67 0.02 5.34 -1 5 C-0.67 3.35 -0.34 1.7 0 0 Z " fill="#3B5D35" transform="translate(17,35)"/>
<path d="M0 0 C0.66 0.33 1.32 0.66 2 1 C2 2.98 2 4.96 2 7 C2.66 7 3.32 7 4 7 C3.67 8.32 3.34 9.64 3 11 C1.68 10.67 0.36 10.34 -1 10 C-0.34 8.02 0.32 6.04 1 4 C0.34 4 -0.32 4 -1 4 C-0.67 2.68 -0.34 1.36 0 0 Z " fill="#9AB145" transform="translate(35,15)"/>
<path d="M0 0 C0.33 0 0.66 0 1 0 C1.66 3.63 2.32 7.26 3 11 C1.35 10.67 -0.3 10.34 -2 10 C-2.33 9.01 -2.66 8.02 -3 7 C-2.34 7 -1.68 7 -1 7 C-0.67 4.69 -0.34 2.38 0 0 Z " fill="#73883D" transform="translate(90,10)"/>
<path d="M0 0 C0.66 0 1.32 0 2 0 C3.36993985 2.88408389 4.2431252 5.00975285 3.46484375 8.1796875 C2.71202914 10.14750987 1.86184251 12.07742824 1 14 C0.67 14 0.34 14 0 14 C0 9.38 0 4.76 0 0 Z " fill="#76994C" transform="translate(95,14)"/>
<path d="M0 0 C0.66 0.99 1.32 1.98 2 3 C2.66 3.66 3.32 4.32 4 5 C3.625 7.625 3.625 7.625 3 10 C2.34 10 1.68 10 1 10 C-1 8 -1 8 -1.1875 4.4375 C-1 1 -1 1 0 0 Z " fill="#4A6A16" transform="translate(1,80)"/>
<path d="M0 0 C0.33 0 0.66 0 1 0 C0.85831863 1.43791516 0.71148957 2.8753237 0.5625 4.3125 C0.48128906 5.11300781 0.40007813 5.91351563 0.31640625 6.73828125 C0 9 0 9 -1 12 C-1.66 12 -2.32 12 -3 12 C-3.33 10.02 -3.66 8.04 -4 6 C-3.01 6.33 -2.02 6.66 -1 7 C-1.020625 6.030625 -1.04125 5.06125 -1.0625 4.0625 C-1 1 -1 1 0 0 Z " fill="#3E5930" transform="translate(18,59)"/>
<path d="M0 0 C2.475 0.99 2.475 0.99 5 2 C5 4.31 5 6.62 5 9 C4.34 9 3.68 9 3 9 C0 3.375 0 3.375 0 0 Z " fill="#1E3B0E" transform="translate(84,58)"/>
<path d="M0 0 C0.33 0 0.66 0 1 0 C1.33 1.65 1.66 3.3 2 5 C2.99 5 3.98 5 5 5 C4.67 6.32 4.34 7.64 4 9 C3.01 9 2.02 9 1 9 C1 9.66 1 10.32 1 11 C0.34 11 -0.32 11 -1 11 C-1.0270043 9.54176788 -1.04639787 8.08339325 -1.0625 6.625 C-1.07410156 5.81289063 -1.08570313 5.00078125 -1.09765625 4.1640625 C-1 2 -1 2 0 0 Z " fill="#748238" transform="translate(38,11)"/>
<path d="M0 0 C0.66 0 1.32 0 2 0 C5.42857143 7.28571429 5.42857143 7.28571429 5 12 C2.43470546 10.71735273 2.33500137 9.77227651 1.375 7.125 C1.11460938 6.42632812 0.85421875 5.72765625 0.5859375 5.0078125 C0 3 0 3 0 0 Z " fill="#5F71BE" transform="translate(41,45)"/>
<path d="M0 0 C0.33 0 0.66 0 1 0 C1.33 3.3 1.66 6.6 2 10 C1.34 9.67 0.68 9.34 0 9 C-0.33 9.66 -0.66 10.32 -1 11 C-1.99 10.34 -2.98 9.68 -4 9 C-3.34 7.68 -2.68 6.36 -2 5 C-1.34 5 -0.68 5 0 5 C0 3.35 0 1.7 0 0 Z " fill="#66824F" transform="translate(23,18)"/>
<path d="M0 0 C0.66 0.33 1.32 0.66 2 1 C2.625 3.5625 2.625 3.5625 3 6 C3.99 5.67 4.98 5.34 6 5 C5.67 6.32 5.34 7.64 5 9 C2.36 9.33 -0.28 9.66 -3 10 C-2.01 9.67 -1.02 9.34 0 9 C0 6.03 0 3.06 0 0 Z " fill="#7B7155" transform="translate(59,13)"/>
<path d="M0 0 C0.66 0.33 1.32 0.66 2 1 C2.40729228 3.32156597 2.74438677 5.6568787 3 8 C2.38125 7.2265625 2.38125 7.2265625 1.75 6.4375 C1.1725 5.963125 0.595 5.48875 0 5 C-2.16299211 5.22757731 -2.16299211 5.22757731 -4 6 C-3.6875 4.125 -3.6875 4.125 -3 2 C-2.01 1.34 -1.02 0.68 0 0 Z " fill="#7F9C20" transform="translate(35,11)"/>
<path d="M0 0 C1.0625 1.8125 1.0625 1.8125 2 4 C0.88820837 7.33537489 -0.47411298 8.63707344 -3 11 C-3.66 10.67 -4.32 10.34 -5 10 C-4.67 8.68 -4.34 7.36 -4 6 C-3.01 6 -2.02 6 -1 6 C-0.67 4.02 -0.34 2.04 0 0 Z " fill="#1C3B15" transform="translate(12,53)"/>
<path d="M0 0 C0.33 0 0.66 0 1 0 C1.309375 1.11375 1.61875 2.2275 1.9375 3.375 C2.82326483 6.7945155 2.82326483 6.7945155 4 9 C3.67 9.99 3.34 10.98 3 12 C2.01 12 1.02 12 0 12 C0 8.04 0 4.08 0 0 Z " fill="#385E0D" transform="translate(0,88)"/>
<path d="M0 0 C2.18647619 2.18647619 2.91236229 2.93268023 3 6 C0.5625 8.75 0.5625 8.75 -2 11 C-2.19622241 6.78121808 -1.80230168 3.82989106 0 0 Z " fill="#3C5D21" transform="translate(15,51)"/>
<path d="M0 0 C0.99 0.66 1.98 1.32 3 2 C2.67 3.65 2.34 5.3 2 7 C1.67 6.34 1.34 5.68 1 5 C-0.32 5.33 -1.64 5.66 -3 6 C-3 4.68 -3 3.36 -3 2 C-2.01 1.34 -1.02 0.68 0 0 Z " fill="#4D702A" transform="translate(78,39)"/>
<path d="M0 0 C2 1 2 1 3.125 4.0625 C3.41375 5.031875 3.7025 6.00125 4 7 C2.02 7.99 2.02 7.99 0 9 C-1.3950848 6.70221327 -2.07438619 5.5207033 -1.6875 2.8125 C-1 1 -1 1 0 0 Z " fill="#6F8846" transform="translate(23,32)"/>
<path d="M0 0 C0.99 0 1.98 0 3 0 C3.04254356 1.99954746 3.04080783 4.00041636 3 6 C2.67 6.33 2.34 6.66 2 7 C1.95919217 8.99958364 1.95745644 11.00045254 2 13 C1.34 12.67 0.68 12.34 0 12 C0 8.04 0 4.08 0 0 Z " fill="#738B1F" transform="translate(31,27)"/>
<path d="M0 0 C0.66 0.33 1.32 0.66 2 1 C2.4140625 3.72265625 2.4140625 3.72265625 2.625 7.0625 C2.69976563 8.16722656 2.77453125 9.27195312 2.8515625 10.41015625 C2.90054687 11.26480469 2.94953125 12.11945312 3 13 C2.01 12.34 1.02 11.68 0 11 C-0.125 7.5 -0.125 7.5 0 4 C-0.33 3.34 -0.66 2.68 -1 2 C-0.67 1.34 -0.34 0.68 0 0 Z " fill="#45610F" transform="translate(29,26)"/>
<path d="M0 0 C0.66 0 1.32 0 2 0 C2.33 2.31 2.66 4.62 3 7 C2.01 7.495 2.01 7.495 1 8 C0.67 7.34 0.34 6.68 0 6 C-1.98 6.99 -1.98 6.99 -4 8 C-4 7.01 -4 6.02 -4 5 C-3.01 4.67 -2.02 4.34 -1 4 C-0.26676204 1.98491642 -0.26676204 1.98491642 0 0 Z " fill="#ACC1A3" transform="translate(75,2)"/>
<path d="M0 0 C0.99 0 1.98 0 3 0 C3 0.99 3 1.98 3 3 C3.66 3 4.32 3 5 3 C5 3.66 5 4.32 5 5 C2.69 5.33 0.38 5.66 -2 6 C-2 5.01 -2 4.02 -2 3 C-1.34 3 -0.68 3 0 3 C0 2.01 0 1.02 0 0 Z " fill="#344E24" transform="translate(65,0)"/>
<path d="M0 0 C0 1.65 0 3.3 0 5 C-2.31 5 -4.62 5 -7 5 C-7 4.01 -7 3.02 -7 2 C-1.125 0 -1.125 0 0 0 Z " fill="#474F23" transform="translate(10,95)"/>
<path d="M0 0 C2.31966166 2.84685749 3.91581154 5.4763875 5 9 C4.67 9.99 4.34 10.98 4 12 C1.02449969 8.9315153 0.03525487 7.53763669 -0.25 3.1875 C-0.1675 2.135625 -0.085 1.08375 0 0 Z " fill="#1F3B1E" transform="translate(88,78)"/>
<path d="M0 0 C1.32 0.33 2.64 0.66 4 1 C4.33 2.32 4.66 3.64 5 5 C4.34 5 3.68 5 3 5 C2.67 5.99 2.34 6.98 2 8 C0.23537317 4.91190305 0 3.76687864 0 0 Z " fill="#466E1B" transform="translate(10,78)"/>
<path d="M0 0 C0.66 1.32 1.32 2.64 2 4 C1.01 4.33 0.02 4.66 -1 5 C-1 5.66 -1 6.32 -1 7 C-1.66 7 -2.32 7 -3 7 C-3.33 7.66 -3.66 8.32 -4 9 C-4.33 7.35 -4.66 5.7 -5 4 C-4.360625 3.71125 -3.72125 3.4225 -3.0625 3.125 C-0.84793921 2.17176549 -0.84793921 2.17176549 0 0 Z " fill="#395F22" transform="translate(98,47)"/>
<path d="M0 0 C0.99 0 1.98 0 3 0 C3.33 0.66 3.66 1.32 4 2 C4.66 2 5.32 2 6 2 C6 4.31 6 6.62 6 9 C5.01 8.34 4.02 7.68 3 7 C2.01 7.495 2.01 7.495 1 8 C1.33 5.69 1.66 3.38 2 1 C1.34 0.67 0.68 0.34 0 0 Z " fill="#2C4523" transform="translate(82,18)"/>
<path d="M0 0 C2.1875 0.3125 2.1875 0.3125 4 1 C4 1.66 4 2.32 4 3 C4.66 3.33 5.32 3.66 6 4 C2.625 4.625 2.625 4.625 -1 5 C-1.66 4.34 -2.32 3.68 -3 3 C-1.75 1.4375 -1.75 1.4375 0 0 Z " fill="#EFC09F" transform="translate(49,14)"/>
<path d="M0 0 C0.66 0.66 1.32 1.32 2 2 C2.33 1.34 2.66 0.68 3 0 C3.66 0 4.32 0 5 0 C4.67 2.31 4.34 4.62 4 7 C1.5625 6.1875 1.5625 6.1875 -1 5 C-1.33 4.01 -1.66 3.02 -2 2 C-1.34 1.34 -0.68 0.68 0 0 Z " fill="#64725D" transform="translate(75,7)"/>
<path d="M0 0 C0.99 0.33 1.98 0.66 3 1 C3.33 3.97 3.66 6.94 4 10 C2.68 10 1.36 10 0 10 C0 6.7 0 3.4 0 0 Z " fill="#80A936" transform="translate(27,0)"/>
<path d="M0 0 C1.65 0 3.3 0 5 0 C4.01 0.33 3.02 0.66 2 1 C2 3.31 2 5.62 2 8 C1.01 8.33 0.02 8.66 -1 9 C-0.67 6.03 -0.34 3.06 0 0 Z " fill="#577220" transform="translate(89,0)"/>
<path d="M0 0 C1.15941038 3.47823115 0.70820884 5.45895578 0 9 C-1.98 8.01 -3.96 7.02 -6 6 C-4.68 5.67 -3.36 5.34 -2 5 C-1.855625 4.360625 -1.71125 3.72125 -1.5625 3.0625 C-1 1 -1 1 0 0 Z " fill="#A4B4BD" transform="translate(29,91)"/>
<path d="M0 0 C1.9375 0.3125 1.9375 0.3125 4 1 C4.33 1.99 4.66 2.98 5 4 C5.66 3.34 6.32 2.68 7 2 C7.33 3.32 7.66 4.64 8 6 C7.34 6 6.68 6 6 6 C5.67 6.66 5.34 7.32 5 8 C4.54625 7.195625 4.0925 6.39125 3.625 5.5625 C2.25274335 2.91143428 2.25274335 2.91143428 0 2 C0 1.34 0 0.68 0 0 Z " fill="#50602A" transform="translate(92,75)"/>
<path d="M0 0 C0.66 1.32 1.32 2.64 2 4 C2.66 4.33 3.32 4.66 4 5 C3.34 7.31 2.68 9.62 2 12 C1.01 11.67 0.02 11.34 -1 11 C-0.67 7.37 -0.34 3.74 0 0 Z " fill="#304991" transform="translate(50,60)"/>
<path d="M0 0 C0.99 0.33 1.98 0.66 3 1 C5.26415094 6.20754717 5.26415094 6.20754717 4 10 C3.01 9.67 2.02 9.34 1 9 C1.33 8.01 1.66 7.02 2 6 C1.34 5.01 0.68 4.02 0 3 C0 2.01 0 1.02 0 0 Z " fill="#52793A" transform="translate(16,40)"/>
<path d="M0 0 C0.36923077 4.55384615 0.36923077 4.55384615 -1.5 6.8125 C-1.995 7.204375 -2.49 7.59625 -3 8 C-4 7 -4 7 -4.0625 3.9375 C-4.041875 2.968125 -4.02125 1.99875 -4 1 C-1 0 -1 0 0 0 Z " fill="#1E3629" transform="translate(65,12)"/>
<path d="M0 0 C0.66 0.99 1.32 1.98 2 3 C1.34 3 0.68 3 0 3 C0 4.65 0 6.3 0 8 C-0.66 8 -1.32 8 -2 8 C-2 9.65 -2 11.3 -2 13 C-2.33 13 -2.66 13 -3 13 C-3 10.03 -3 7.06 -3 4 C-2.34 4 -1.68 4 -1 4 C-0.67 2.68 -0.34 1.36 0 0 Z " fill="#506E38" transform="translate(25,10)"/>
<path d="M0 0 C2.499964 2.499964 3.67507024 4.71922154 5 8 C4.6875 11.375 4.6875 11.375 4 14 C1.01520806 9.52281208 0 5.36175907 0 0 Z " fill="#778552" transform="translate(79,3)"/>
<path d="M0 0 C2.875 -0.125 2.875 -0.125 6 0 C6.66 0.66 7.32 1.32 8 2 C3.545 3.485 3.545 3.485 -1 5 C-0.67 3.35 -0.34 1.7 0 0 Z " fill="#66814D" transform="translate(47,0)"/>
<path d="M0 0 C0 0.99 0 1.98 0 3 C-2.97 3 -5.94 3 -9 3 C-9 2.34 -9 1.68 -9 1 C-5.846632 0.29925156 -3.27275026 0 0 0 Z " fill="#324972" transform="translate(60,97)"/>
<path d="M0 0 C0.66 0 1.32 0 2 0 C2.33 1.65 2.66 3.3 3 5 C1.35 5.33 -0.3 5.66 -2 6 C-2 4.68 -2 3.36 -2 2 C-1.34 2 -0.68 2 0 2 C0 1.34 0 0.68 0 0 Z " fill="#364216" transform="translate(6,91)"/>
<path d="M0 0 C0.33 0.66 0.66 1.32 1 2 C1.66 2 2.32 2 3 2 C3.33 2.99 3.66 3.98 4 5 C1.37684968 6.31157516 -0.23033436 5.89649988 -3.125 5.5625 C-4.03507812 5.46066406 -4.94515625 5.35882813 -5.8828125 5.25390625 C-6.58148438 5.17011719 -7.28015625 5.08632812 -8 5 C-8 4.67 -8 4.34 -8 4 C-5.36 4 -2.72 4 0 4 C0 2.68 0 1.36 0 0 Z " fill="#AFC2DE" transform="translate(58,85)"/>
<path d="M0 0 C0.66 0 1.32 0 2 0 C2.125 2.875 2.125 2.875 2 6 C1.34 6.66 0.68 7.32 0 8 C-2 5 -2 5 -1.6875 2.875 C-1 1 -1 1 0 0 Z " fill="#264211" transform="translate(98,81)"/>
<path d="M0 0 C0.99 0 1.98 0 3 0 C4.75 2.375 4.75 2.375 6 5 C5.67 5.66 5.34 6.32 5 7 C4.34 6.34 3.68 5.68 3 5 C2.01 5.33 1.02 5.66 0 6 C0 4.02 0 2.04 0 0 Z " fill="#63692E" transform="translate(85,67)"/>
<path d="M0 0 C0.99 0.495 0.99 0.495 2 1 C3.28571429 7.42857143 3.28571429 7.42857143 2 10 C1.34 10 0.68 10 0 10 C0 6.7 0 3.4 0 0 Z " fill="#234719" transform="translate(0,62)"/>
<path d="M0 0 C0.99 1.32 1.98 2.64 3 4 C2.01 4 1.02 4 0 4 C0.33 5.32 0.66 6.64 1 8 C0.01 8.33 -0.98 8.66 -2 9 C-2.33 7.02 -2.66 5.04 -3 3 C-2.01 2.67 -1.02 2.34 0 2 C0 1.34 0 0.68 0 0 Z " fill="#C9C5CC" transform="translate(42,37)"/>
<path d="M0 0 C0.33 0 0.66 0 1 0 C1.33 3.63 1.66 7.26 2 11 C1.01 10.67 0.02 10.34 -1 10 C-2.15837626 5.94568308 -1.83691257 3.78187881 0 0 Z " fill="#2F5317" transform="translate(80,30)"/>
<path d="M0 0 C0.66 0.33 1.32 0.66 2 1 C2 1.66 2 2.32 2 3 C2.66 3 3.32 3 4 3 C4.33 4.32 4.66 5.64 5 7 C4.01 7 3.02 7 2 7 C0.25 5.1875 0.25 5.1875 -1 3 C-0.67 2.01 -0.34 1.02 0 0 Z " fill="#4A4634" transform="translate(43,32)"/>
<path d="M0 0 C2.125 0.375 2.125 0.375 4 1 C4 2.32 4 3.64 4 5 C2.35 5 0.7 5 -1 5 C-1.33 4.01 -1.66 3.02 -2 2 C-1.34 1.34 -0.68 0.68 0 0 Z " fill="#AE8960" transform="translate(46,19)"/>
<path d="M0 0 C1.65 0.33 3.3 0.66 5 1 C5.33 2.65 5.66 4.3 6 6 C5.01 6.33 4.02 6.66 3 7 C1.68 5.35 0.36 3.7 -1 2 C-0.67 1.34 -0.34 0.68 0 0 Z " fill="#6D9653" transform="translate(7,15)"/>
<path d="M0 0 C1.485 0.99 1.485 0.99 3 2 C3.29296875 4.3828125 3.29296875 4.3828125 3.1875 7.125 C3.16042969 8.03507812 3.13335937 8.94515625 3.10546875 9.8828125 C3.07066406 10.58148438 3.03585938 11.28015625 3 12 C0.50494038 9.50494038 0.64051624 8.32671112 0.375 4.875 C0.30023438 3.96492187 0.22546875 3.05484375 0.1484375 2.1171875 C0.09945312 1.41851562 0.05046875 0.71984375 0 0 Z " fill="#405725" transform="translate(91,10)"/>
<path d="M0 0 C0.66 0.33 1.32 0.66 2 1 C2.1953125 7.0546875 2.1953125 7.0546875 2 9 C1.34 9.66 0.68 10.32 0 11 C-1.49297212 8.01405576 -1.11755228 5.29146376 -1 2 C-0.67 1.34 -0.34 0.68 0 0 Z " fill="#425C15" transform="translate(37,2)"/>
<path d="M0 0 C0.33 0.99 0.66 1.98 1 3 C1.66 3 2.32 3 3 3 C1.87548273 5.9719385 0.77706209 8.33440687 -1 11 C-1.125 3.375 -1.125 3.375 0 0 Z " fill="#CAD4D6" transform="translate(33,80)"/>
<path d="M0 0 C0.33 0 0.66 0 1 0 C1 2.97 1 5.94 1 9 C0.01 9.33 -0.98 9.66 -2 10 C-2.625 8.125 -2.625 8.125 -3 6 C-2.34 5.34 -1.68 4.68 -1 4 C-0.3574765 1.93125966 -0.3574765 1.93125966 0 0 Z " fill="#283476" transform="translate(56,73)"/>
<path d="M0 0 C0.33 0 0.66 0 1 0 C2.01911045 3.89114901 2.16782969 5.60596507 0.5625 9.375 C0.046875 10.24125 -0.46875 11.1075 -1 12 C-2.45606519 7.47907032 -1.27032841 4.48351204 0 0 Z " fill="#C6DAD1" transform="translate(19,60)"/>
<path d="M0 0 C0.33 0.99 0.66 1.98 1 3 C1.66 3 2.32 3 3 3 C2.67 4.65 2.34 6.3 2 8 C-1 6 -1 6 -1.6875 3.375 C-1.790625 2.59125 -1.89375 1.8075 -2 1 C-1.34 0.67 -0.68 0.34 0 0 Z " fill="#688B32" transform="translate(12,48)"/>
<path d="M0 0 C0.66 0 1.32 0 2 0 C2.33 1.32 2.66 2.64 3 4 C0.69 5.32 -1.62 6.64 -4 8 C-4 7.34 -4 6.68 -4 6 C-3.34 6 -2.68 6 -2 6 C-1.34 4.02 -0.68 2.04 0 0 Z " fill="#A7B977" transform="translate(36,37)"/>
<path d="M0 0 C0.99 0.33 1.98 0.66 3 1 C3 2.98 3 4.96 3 7 C1.35 6.67 -0.3 6.34 -2 6 C-1.34 4.02 -0.68 2.04 0 0 Z " fill="#2B481C" transform="translate(62,34)"/>
<path d="M0 0 C0.99 0 1.98 0 3 0 C3.33 2.31 3.66 4.62 4 7 C2.68 6.67 1.36 6.34 0 6 C0 4.02 0 2.04 0 0 Z " fill="#204419" transform="translate(5,29)"/>
<path d="M0 0 C0.33 0 0.66 0 1 0 C1 2.31 1 4.62 1 7 C0.34 6.34 -0.32 5.68 -1 5 C-1.66 5.66 -2.32 6.32 -3 7 C-3.33 5.02 -3.66 3.04 -4 1 C-2.68 1.33 -1.36 1.66 0 2 C0 1.34 0 0.68 0 0 Z " fill="#687B57" transform="translate(77,18)"/>
<path d="M0 0 C2 3 2 3 2 7 C1.34 7 0.68 7 0 7 C-0.33 7.66 -0.66 8.32 -1 9 C-1.33 6.69 -1.66 4.38 -2 2 C-1.34 2 -0.68 2 0 2 C0 1.34 0 0.68 0 0 Z " fill="#4E5E48" transform="translate(77,11)"/>
<path d="M0 0 C0.99 0 1.98 0 3 0 C3 0.99 3 1.98 3 3 C2.34 3 1.68 3 1 3 C1 3.99 1 4.98 1 6 C1.99 5.67 2.98 5.34 4 5 C3.67 5.99 3.34 6.98 3 8 C1.68 7.34 0.36 6.68 -1 6 C-0.67 4.02 -0.34 2.04 0 0 Z " fill="#4D6443" transform="translate(62,0)"/>
<path d="M0 0 C0.99 0.33 1.98 0.66 3 1 C4.1875 4.5625 4.1875 4.5625 5 8 C2.5 6.8125 2.5 6.8125 0 5 C-0.3125 2.3125 -0.3125 2.3125 0 0 Z " fill="#838C37" transform="translate(95,70)"/>
<path d="M0 0 C0.433125 0.9590625 0.433125 0.9590625 0.875 1.9375 C1.82823451 4.15206079 1.82823451 4.15206079 4 5 C3.67 5.99 3.34 6.98 3 8 C0.525 7.01 0.525 7.01 -2 6 C-1.34 5.01 -0.68 4.02 0 3 C0 2.01 0 1.02 0 0 Z " fill="#486D34" transform="translate(13,67)"/>
<path d="M0 0 C2.62386487 3.06117568 3 3.73173127 3 8 C2.34 8 1.68 8 1 8 C-1 6 -1 6 -1.1875 3.4375 C-1 1 -1 1 0 0 Z " fill="#7175B2" transform="translate(50,70)"/>
<path d="M0 0 C0.66 1.32 1.32 2.64 2 4 C2.99 4 3.98 4 5 4 C4.34 5.98 3.68 7.96 3 10 C2.34 9.67 1.68 9.34 1 9 C0.5859375 6.93359375 0.5859375 6.93359375 0.375 4.4375 C0.30023437 3.61121094 0.22546875 2.78492188 0.1484375 1.93359375 C0.09945313 1.29550781 0.05046875 0.65742187 0 0 Z " fill="#678B47" transform="translate(17,50)"/>
<path d="M0 0 C0.33 0.99 0.66 1.98 1 3 C2.32 2.34 3.64 1.68 5 1 C5.33 2.32 5.66 3.64 6 5 C4.1875 5.625 4.1875 5.625 2 6 C1.01 5.34 0.02 4.68 -1 4 C-0.67 2.68 -0.34 1.36 0 0 Z " fill="#718F54" transform="translate(15,27)"/>
<path d="M0 0 C-1.5 1.5625 -1.5 1.5625 -4 3 C-6.77437543 2.96823234 -9.25286467 2.50364148 -12 2 C-12 1.67 -12 1.34 -12 1 C-7.93631321 0.22596442 -4.13574827 -0.0984702 0 0 Z " fill="#C3997C" transform="translate(53,27)"/>
<path d="M0 0 C0.33 0 0.66 0 1 0 C1.125 5.75 1.125 5.75 0 8 C0.99 8.33 1.98 8.66 3 9 C2.34 9.66 1.68 10.32 1 11 C-0.625 10 -0.625 10 -2 8 C-1.65009645 5.1841095 -0.84980278 2.7283142 0 0 Z " fill="#6D9439" transform="translate(27,2)"/>
<path d="M0 0 C0 0.33 0 0.66 0 1 C-3.3 1 -6.6 1 -10 1 C-6.37535939 -2.62464061 -4.33962722 -1.99388278 0 0 Z " fill="#C7D7EE" transform="translate(28,99)"/>
<path d="M0 0 C3.42267755 1.20256238 5.55684199 2.33473672 8 5 C8.99 5.66 9.98 6.32 11 7 C5.95904225 6.55520961 3.58884285 4.33845847 0 1 C0 0.67 0 0.34 0 0 Z " fill="#B6C5D1" transform="translate(16,89)"/>
<path d="M0 0 C0.33 0 0.66 0 1 0 C0.67 2.97 0.34 5.94 0 9 C-0.99 8.34 -1.98 7.68 -3 7 C-2.67 5.68 -2.34 4.36 -2 3 C-1.34 3 -0.68 3 0 3 C0 2.01 0 1.02 0 0 Z " fill="#6B8A5C" transform="translate(16,72)"/>
<path d="M0 0 C1.485 0.99 1.485 0.99 3 2 C2.67 4.31 2.34 6.62 2 9 C1.01 8.67 0.02 8.34 -1 8 C-0.67 5.36 -0.34 2.72 0 0 Z " fill="#8F8FC0" transform="translate(57,53)"/>
<path d="M0 0 C0.33 0 0.66 0 1 0 C1 1.98 1 3.96 1 6 C-0.65 6 -2.3 6 -4 6 C-3.67 5.01 -3.34 4.02 -3 3 C-2.34 3 -1.68 3 -1 3 C-0.67 2.01 -0.34 1.02 0 0 Z " fill="#595B3E" transform="translate(62,27)"/>
<path d="M0 0 C1.25541557 3.76624671 0.37061958 5.37188934 -1 9 C-1.33 8.34 -1.66 7.68 -2 7 C-2.99 7.33 -3.98 7.66 -5 8 C-5 6 -5 6 -3.625 4.5625 C-3.08875 4.046875 -2.5525 3.53125 -2 3 C-1.34 2.01 -0.68 1.02 0 0 Z " fill="#2C4116" transform="translate(76,22)"/>
<path d="M0 0 C0.66 0.33 1.32 0.66 2 1 C2 2.65 2 4.3 2 6 C1.01 6.33 0.02 6.66 -1 7 C-1.66 6.34 -2.32 5.68 -3 5 C-3 4.01 -3 3.02 -3 2 C-2.01 2 -1.02 2 0 2 C0 1.34 0 0.68 0 0 Z " fill="#86A15C" transform="translate(32,20)"/>
<path d="M0 0 C0.66 0 1.32 0 2 0 C2.6875 2.75 2.6875 2.75 3 6 C2.01 7.32 1.02 8.64 0 10 C0 6.7 0 3.4 0 0 Z " fill="#486334" transform="translate(5,6)"/>
<path d="M0 0 C-0.99 0.33 -1.98 0.66 -3 1 C-3 1.66 -3 2.32 -3 3 C-2.01 3.33 -1.02 3.66 0 4 C-2.31 4 -4.62 4 -7 4 C-7 3.01 -7 2.02 -7 1 C-4.53721199 -0.231394 -2.7204945 -0.07159196 0 0 Z " fill="#425155" transform="translate(48,5)"/>
<path d="M0 0 C0.33 0 0.66 0 1 0 C1.125 6.75 1.125 6.75 0 9 C-0.66 9 -1.32 9 -2 9 C-1.125 1.125 -1.125 1.125 0 0 Z " fill="#D5E8F8" transform="translate(37,47)"/>
<path d="M0 0 C0.66 0.33 1.32 0.66 2 1 C2 2.32 2 3.64 2 5 C0.02 5.99 0.02 5.99 -2 7 C-2 5.35 -2 3.7 -2 2 C-1.34 2 -0.68 2 0 2 C0 1.34 0 0.68 0 0 Z " fill="#3D612A" transform="translate(20,48)"/>
<path d="M0 0 C2 2 2 2 2.125 5.125 C2.08375 6.07375 2.0425 7.0225 2 8 C1.01 8.495 1.01 8.495 0 9 C-0.84454356 5.62182575 -1.10844919 3.32534757 0 0 Z " fill="#617A49" transform="translate(64,20)"/>
<path d="M0 0 C0.66 0 1.32 0 2 0 C2.77842938 3.40562852 3.09978121 6.50765756 3 10 C2.34 10 1.68 10 1 10 C0.67 6.7 0.34 3.4 0 0 Z " fill="#33571E" transform="translate(67,13)"/>
<path d="M0 0 C0.66 0.66 1.32 1.32 2 2 C0.02 4.97 0.02 4.97 -2 8 C-2.6875 6.25 -2.6875 6.25 -3 4 C-1.5625 1.75 -1.5625 1.75 0 0 Z " fill="#6E9A5E" transform="translate(3,13)"/>
<path d="M0 0 C2.97 0.495 2.97 0.495 6 1 C6 1.66 6 2.32 6 3 C4.35 3.33 2.7 3.66 1 4 C0.67 2.68 0.34 1.36 0 0 Z " fill="#9EB56F" transform="translate(38,0)"/>
<path d="M0 0 C0.33 0.66 0.66 1.32 1 2 C0.0625 4.125 0.0625 4.125 -1 6 C-1.99 5.67 -2.98 5.34 -4 5 C-3.6875 3.0625 -3.6875 3.0625 -3 1 C-2.01 0.67 -1.02 0.34 0 0 Z " fill="#2F5227" transform="translate(95,65)"/>
<path d="M0 0 C2.34058637 2.12780579 3.70700306 4.11562221 5 7 C4.01 7.33 3.02 7.66 2 8 C0.23537317 4.91190305 0 3.76687864 0 0 Z " fill="#788654" transform="translate(82,60)"/>
<path d="M0 0 C2.62962963 3.94444444 2.62962963 3.94444444 3 7 C2.0625 9.25 2.0625 9.25 1 11 C-0.17571451 7.32589215 -0.07366746 3.83070817 0 0 Z " fill="#BBCFF7" transform="translate(41,48)"/>
<path d="M0 0 C1.5 1.1875 1.5 1.1875 3 3 C3.1875 5.6875 3.1875 5.6875 3 8 C1 6.1875 1 6.1875 -1 4 C-1 1 -1 1 0 0 Z " fill="#A7B3D1" transform="translate(47,48)"/>
<path d="M0 0 C2.64 0 5.28 0 8 0 C6.8125 1.5625 6.8125 1.5625 5 3 C2.3125 2.6875 2.3125 2.6875 0 2 C0 1.34 0 0.68 0 0 Z " fill="#323D53" transform="translate(48,47)"/>
<path d="M0 0 C0 1.32 0 2.64 0 4 C-1.65 4 -3.3 4 -5 4 C-5 3.01 -5 2.02 -5 1 C-3 0 -3 0 0 0 Z " fill="#456D2C" transform="translate(16,40)"/>
<path d="M0 0 C0.99 0.33 1.98 0.66 3 1 C2.67 3.64 2.34 6.28 2 9 C0 7 0 7 -0.125 3.375 C-0.08375 2.26125 -0.0425 1.1475 0 0 Z " fill="#637933" transform="translate(14,31)"/>
<path d="M0 0 C0.66 0 1.32 0 2 0 C2.80967438 2.91482778 3.21845993 4.46113217 2.0625 7.3125 C1.5365625 8.1478125 1.5365625 8.1478125 1 9 C-0.4783226 6.04335481 -0.06032783 3.25770263 0 0 Z " fill="#6F9B45" transform="translate(0,26)"/>
<path d="M0 0 C0.66 0.33 1.32 0.66 2 1 C1.67 3.31 1.34 5.62 1 8 C0.01 7.67 -0.98 7.34 -2 7 C-1.34 4.69 -0.68 2.38 0 0 Z " fill="#7D9545" transform="translate(18,8)"/>
<path d="M0 0 C0.33 0.66 0.66 1.32 1 2 C1.66 2 2.32 2 3 2 C3.33 4.64 3.66 7.28 4 10 C3.34 10 2.68 10 2 10 C0.68373308 6.38026598 0 3.90432869 0 0 Z " fill="#739A28" transform="translate(14,3)"/>
<path d="M0 0 C1.65 0 3.3 0 5 0 C5 1.32 5 2.64 5 4 C3.02 4 1.04 4 -1 4 C-0.01 3.67 0.98 3.34 2 3 C2 2.34 2 1.68 2 1 C1.34 0.67 0.68 0.34 0 0 Z " fill="#7B8D58" transform="translate(42,0)"/>
<path d="M0 0 C1.98 0 3.96 0 6 0 C5.67 1.32 5.34 2.64 5 4 C1.125 2.25 1.125 2.25 0 0 Z " fill="#405A2C" transform="translate(0,1)"/>
</svg>
