<?xml version="1.0" encoding="UTF-8"?>
<svg version="1.1" xmlns="http://www.w3.org/2000/svg" width="100" height="100">
<path d="M0 0 C33 0 66 0 100 0 C100 33 100 66 100 100 C67 100 34 100 0 100 C0 67 0 34 0 0 Z " fill="#A1A7AB" transform="translate(0,0)"/>
<path d="M0 0 C0.02578125 0.65226562 0.0515625 1.30453125 0.078125 1.9765625 C0.64716705 10.74498317 3.76722645 14.91924531 10 21 C10.90709713 22.07391959 11.80300562 23.15738929 12.6875 24.25 C14.7042322 27.01742194 14.7042322 27.01742194 17 28 C17.2475 27.443125 17.495 26.88625 17.75 26.3125 C19.22924818 23.57589087 20.93467439 21.32349131 23 19 C23.66 19 24.32 19 25 19 C25.66 17.68 26.32 16.36 27 15 C27.66 15 28.32 15 29 15 C29.14308594 14.28457031 29.28617188 13.56914063 29.43359375 12.83203125 C30.2890625 8.5546875 31.14453125 4.27734375 32 0 C34.43028225 1.89021953 36.72463547 3.69330297 38.78515625 5.98828125 C41.44674363 8.40577243 43.7976559 9.26705204 47.1875 10.4375 C54.25110523 13.01980787 60.63709738 15.63709738 66 21 C66 26.61 66 32.22 66 38 C33 38 0 38 -34 38 C-34 23 -34 23 -31.0625 19.0625 C-25.18616038 14.98200377 -14.22807305 8 -7 8 C-6.896875 7.236875 -6.79375 6.47375 -6.6875 5.6875 C-5.61838415 1.50822895 -4.37506113 0 0 0 Z " fill="#232E3F" transform="translate(34,62)"/>
<path d="M0 0 C2.4375 2.4375 2.4375 2.4375 4 5 C4 5.66 4 6.32 4 7 C4.804375 7.309375 5.60875 7.61875 6.4375 7.9375 C9 9 9 9 10 10 C10.51890723 15.97346699 9.81860785 21.49084001 8.49609375 27.30078125 C7.93033126 30.37906378 7.77521923 33.37470727 7.625 36.5 C7.24093948 42.60873612 5.66023599 47.51867654 3 53 C2.34 53 1.68 53 1 53 C0.7215625 53.86625 0.7215625 53.86625 0.4375 54.75 C-1.66323565 58.03810798 -4.43858186 59.63129813 -8 61 C-14.16047837 62.20793694 -17.8718119 60.28204038 -23 57 C-23.66 57 -24.32 57 -25 57 C-25 58.98 -25 60.96 -25 63 C-25.99 63 -26.98 63 -28 63 C-28.04898438 61.85144531 -28.09796875 60.70289063 -28.1484375 59.51953125 C-28.80254212 44.56630508 -28.80254212 44.56630508 -31.5625 29.88671875 C-32.16631627 27.28276109 -32.01218686 24.73590872 -31.953125 22.078125 C-31.94231222 19.73240006 -31.94231222 19.73240006 -32.75 16.4375 C-33.07423334 11.9792916 -31.81226418 9.32151202 -29 6 C-20.57052752 -1.53235995 -11.00499223 -2.91969182 0 0 Z " fill="#C5A092" transform="translate(62,9)"/>
<path d="M0 0 C1.10601562 -0.00580078 1.10601562 -0.00580078 2.234375 -0.01171875 C7.7466804 -0.0016598 7.7466804 -0.0016598 10 1.125 C10 1.785 10 2.445 10 3.125 C11.32 3.455 12.64 3.785 14 4.125 C13.67 7.095 13.34 10.065 13 13.125 C9.7 13.125 6.4 13.125 3 13.125 C3 15.435 3 17.745 3 20.125 C9.93 19.135 9.93 19.135 17 18.125 C17.49230769 26.37115385 17.49230769 26.37115385 15 30.1875 C14.34 30.826875 13.68 31.46625 13 32.125 C9.87709365 31.63921457 7.00419641 31.1263988 4 30.125 C4 28.805 4 27.485 4 26.125 C1.03 26.455 -1.94 26.785 -5 27.125 C-5 27.785 -5 28.445 -5 29.125 C-8 31.125 -8 31.125 -10.5 30.875 C-13 30.125 -13 30.125 -16 28.125 C-17.00370475 23.10647623 -17.13353892 19.16295077 -16 14.125 C-15.34 14.125 -14.68 14.125 -14 14.125 C-13.87625 14.764375 -13.7525 15.40375 -13.625 16.0625 C-13.315625 17.0834375 -13.315625 17.0834375 -13 18.125 C-10.59454362 19.32772819 -9.05003047 19.22571472 -6.375 19.1875 C-5.55773438 19.17847656 -4.74046875 19.16945313 -3.8984375 19.16015625 C-3.27195312 19.14855469 -2.64546875 19.13695313 -2 19.125 C-2 17.475 -2 15.825 -2 14.125 C-2.85464844 14.07601562 -3.70929687 14.02703125 -4.58984375 13.9765625 C-6.24693359 13.86441406 -6.24693359 13.86441406 -7.9375 13.75 C-9.03964844 13.68039063 -10.14179687 13.61078125 -11.27734375 13.5390625 C-12.17582031 13.40242188 -13.07429688 13.26578125 -14 13.125 C-14.33 12.465 -14.66 11.805 -15 11.125 C-14.67 10.135 -14.34 9.145 -14 8.125 C-13.34 7.795 -12.68 7.465 -12 7.125 C-11.67 6.135 -11.34 5.145 -11 4.125 C-10.67 3.135 -10.34 2.145 -10 1.125 C-6.84150315 -0.45424842 -3.4634872 -0.01816514 0 0 Z " fill="#EAC1B3" transform="translate(50,19.875)"/>
<path d="M0 0 C1.299375 0.061875 2.59875 0.12375 3.9375 0.1875 C7.79162941 1.21002413 8.95233121 2.64182318 11 6 C11 6.66 11 7.32 11 8 C11.804375 8.309375 12.60875 8.61875 13.4375 8.9375 C16 10 16 10 17 11 C17.60532676 20.53389649 15.7088794 29.66219469 14 39 C13.67 39 13.34 39 13 39 C12.95101562 38.03578125 12.90203125 37.0715625 12.8515625 36.078125 C12.77679688 34.81484375 12.70203125 33.5515625 12.625 32.25 C12.52058594 30.37054688 12.52058594 30.37054688 12.4140625 28.453125 C12.21589461 25.15709417 12.21589461 25.15709417 11.0234375 23.046875 C9.41635413 19.83270827 9.35604786 16.56047859 9 13 C5.45861382 12.88318188 1.9177276 12.812545 -1.625 12.75 C-2.62402344 12.71648438 -3.62304688 12.68296875 -4.65234375 12.6484375 C-9.20335274 12.58815924 -12.37613018 12.72875225 -16.59375 14.5625 C-19.67716034 17.68595463 -20.15856617 19.95139703 -20.875 24.25 C-21.09929688 25.51328125 -21.32359375 26.7765625 -21.5546875 28.078125 C-21.70164062 29.04234375 -21.84859375 30.0065625 -22 31 C-22.33 31 -22.66 31 -23 31 C-26.884627 17.83177288 -26.884627 17.83177288 -25 11 C-19.10546755 1.60558891 -10.64463758 -0.91791882 0 0 Z " fill="#45423E" transform="translate(55,8)"/>
<path d="M0 0 C0.33 0 0.66 0 1 0 C1.34514786 6.3532772 1.3228125 11.35121875 -2 17 C-3.42667021 18.23644751 -4.85849714 19.47185376 -6.37109375 20.6015625 C-9.46004171 23.25346506 -11.67749661 26.68096147 -14 30 C-17.73872495 28.30343574 -19.6288741 26.38732271 -22 23 C-22 22.34 -22 21.68 -22 21 C-22.598125 20.731875 -23.19625 20.46375 -23.8125 20.1875 C-26.09167008 18.95023624 -27.40074253 18.0354186 -29 16 C-29.29296875 13.51953125 -29.29296875 13.51953125 -29.1875 10.8125 C-29.16042969 9.91144531 -29.13335937 9.01039062 -29.10546875 8.08203125 C-29.07066406 7.39496094 -29.03585938 6.70789063 -29 6 C-28.01 5.67 -27.02 5.34 -26 5 C-24.4221875 5.9590625 -24.4221875 5.9590625 -22.8125 6.9375 C-18.9520084 9.25703907 -15.43309873 9.99912642 -11 9 C-7.43815355 7.32420072 -3.80432331 5.60864662 -2 2 C-1.34 2 -0.68 2 0 2 C0 1.34 0 0.68 0 0 Z " fill="#D1A790" transform="translate(65,60)"/>
<path d="M0 0 C0.33 0 0.66 0 1 0 C1 1.65 1 3.3 1 5 C0.01 5.33 -0.98 5.66 -2 6 C-2 7.32 -2 8.64 -2 10 C-0.71802734 10.09087891 -0.71802734 10.09087891 0.58984375 10.18359375 C1.69457031 10.26738281 2.79929687 10.35117187 3.9375 10.4375 C5.03964844 10.51871094 6.14179687 10.59992187 7.27734375 10.68359375 C10 11 10 11 11 12 C11.125 14.5 11.125 14.5 11 17 C9.42039731 18.57960269 7.80463184 18.16986544 5.625 18.1875 C4.83351563 18.20167969 4.04203125 18.21585938 3.2265625 18.23046875 C1 18 1 18 -2 16 C-2 14.68 -2 13.36 -2 12 C-2.66 12 -3.32 12 -4 12 C-4.54544246 19.83315972 -3.97252471 27.04808176 0 34 C2.03078364 35.33530077 2.03078364 35.33530077 4 36 C4 36.66 4 37.32 4 38 C4.66 38 5.32 38 6 38 C6.33 38.66 6.66 39.32 7 40 C13.05321028 41.15021476 13.05321028 41.15021476 19 40 C19 40.66 19 41.32 19 42 C21.97 40.02 24.94 38.04 28 36 C27.67 37.32 27.34 38.64 27 40 C26.34 40 25.68 40 25 40 C24.7215625 40.86625 24.7215625 40.86625 24.4375 41.75 C22.33676435 45.03810798 19.56141814 46.63129813 16 48 C9.83952163 49.20793694 6.1281881 47.28204038 1 44 C0.34 44 -0.32 44 -1 44 C-1 45.98 -1 47.96 -1 50 C-1.99 50 -2.98 50 -4 50 C-4.04898438 48.85144531 -4.09796875 47.70289063 -4.1484375 46.51953125 C-4.64881847 31.49972615 -4.64881847 31.49972615 -7.67578125 16.859375 C-8.18222463 13.95495272 -6.54366627 12.19413166 -5.05078125 9.80859375 C-3.61655322 7.3400154 -2.88097413 4.70584912 -2 2 C-1.34 1.34 -0.68 0.68 0 0 Z " fill="#A18274" transform="translate(38,22)"/>
<path d="M0 0 C0.66 0 1.32 0 2 0 C2.185625 0.9590625 2.185625 0.9590625 2.375 1.9375 C2.684375 2.9584375 2.684375 2.9584375 3 4 C5.35346396 5.17673198 6.8806033 5.16623866 9.5 5.1875 C10.2940625 5.20167969 11.088125 5.21585938 11.90625 5.23046875 C14.22033317 5.19666303 14.22033317 5.19666303 16 3 C16.99 3 17.98 3 19 3 C19 3.99 19 4.98 19 6 C25.93 5.01 25.93 5.01 33 4 C33.49230769 12.24615385 33.49230769 12.24615385 31 16.0625 C30.34 16.701875 29.68 17.34125 29 18 C25.87709365 17.51421457 23.00419641 17.0013988 20 16 C20 14.68 20 13.36 20 12 C15.545 12.495 15.545 12.495 11 13 C11 13.66 11 14.32 11 15 C8 17 8 17 5.5 16.75 C3 16 3 16 0 14 C-1.00370475 8.98147623 -1.13353892 5.03795077 0 0 Z " fill="#D1A593" transform="translate(34,34)"/>
<path d="M0 0 C2.97 0.495 2.97 0.495 6 1 C6.20496094 1.69867187 6.40992187 2.39734375 6.62109375 3.1171875 C6.89050781 4.02726562 7.15992187 4.93734375 7.4375 5.875 C7.70433594 6.77992187 7.97117187 7.68484375 8.24609375 8.6171875 C8.92613826 10.98275381 8.92613826 10.98275381 10 13 C10.38796178 16.07013213 10.51435946 19.16117271 10.6875 22.25 C10.74744141 23.09691406 10.80738281 23.94382812 10.86914062 24.81640625 C11.14295035 29.63995839 11.16256665 33.54804952 9 38 C7.16015625 39.93359375 7.16015625 39.93359375 5.0625 41.4375 C4.02802734 42.20900391 4.02802734 42.20900391 2.97265625 42.99609375 C2.32167969 43.32738281 1.67070313 43.65867188 1 44 C0.01 43.67 -0.98 43.34 -2 43 C-3.11375 43.185625 -4.2275 43.37125 -5.375 43.5625 C-9.10296475 44.01242678 -10.72470772 43.68727178 -14 42 C-11.24161087 41.08053696 -9.06050693 40.74714038 -6.1875 40.5 C-2.42114917 40.15259136 1.27730044 39.68576045 5 39 C5 38.01 5 37.02 5 36 C5.99 35.505 5.99 35.505 7 35 C8.34751434 29.74469407 8.09576651 24.38420602 8 19 C7.01 19.33 6.02 19.66 5 20 C3.27204648 20.06802967 1.54164635 20.08495645 -0.1875 20.0625 C-1.08855469 20.05347656 -1.98960938 20.04445313 -2.91796875 20.03515625 C-3.60503906 20.02355469 -4.29210938 20.01195313 -5 20 C-5 17.69 -5 15.38 -5 13 C-1.7 13 1.6 13 5 13 C5 10.03 5 7.06 5 4 C4.01 3.67 3.02 3.34 2 3 C2 2.34 2 1.68 2 1 C1.34 0.67 0.68 0.34 0 0 Z " fill="#B48F80" transform="translate(58,20)"/>
<path d="M0 0 C3.52269485 -0.4025937 4.79940808 -0.13372795 7.8125 1.875 C8.534375 2.57625 9.25625 3.2775 10 4 C10 4.66 10 5.32 10 6 C10.804375 6.309375 11.60875 6.61875 12.4375 6.9375 C15 8 15 8 16 9 C16.60532676 18.53389649 14.7088794 27.66219469 13 37 C12.67 37 12.34 37 12 37 C11.95101562 36.03578125 11.90203125 35.0715625 11.8515625 34.078125 C11.73941406 32.18320312 11.73941406 32.18320312 11.625 30.25 C11.55539063 28.99703125 11.48578125 27.7440625 11.4140625 26.453125 C11.03610325 23.30108744 10.49018674 21.70096347 9 19 C8.48479018 16.33646245 8.27050087 13.70500869 8 11 C5.69 10.67 3.38 10.34 1 10 C0.67 9.01 0.34 8.02 0 7 C0.66 7 1.32 7 2 7 C1.67 6.401875 1.34 5.80375 1 5.1875 C0 3 0 3 0 0 Z " fill="#353732" transform="translate(56,10)"/>
<path d="M0 0 C0.02578125 0.65226562 0.0515625 1.30453125 0.078125 1.9765625 C0.45516815 7.78645463 1.24550913 11.33532952 5 16 C5.66 16.99 6.32 17.98 7 19 C6.01 19.33 5.02 19.66 4 20 C3.34 19.01 2.68 18.02 2 17 C-2.95 17.495 -2.95 17.495 -8 18 C-8 15.69 -8 13.38 -8 11 C-8.39832031 11.49113281 -8.79664063 11.98226562 -9.20703125 12.48828125 C-11.5121755 14.43183425 -12.7196719 14.316536 -15.6875 14.1875 C-16.89986328 14.14689453 -16.89986328 14.14689453 -18.13671875 14.10546875 C-18.75160156 14.07066406 -19.36648437 14.03585938 -20 14 C-17.65890118 12.43926745 -15.43666597 11.13626133 -12.9375 9.875 C-12.24527344 9.52179688 -11.55304687 9.16859375 -10.83984375 8.8046875 C-9 8 -9 8 -7 8 C-6.896875 7.236875 -6.79375 6.47375 -6.6875 5.6875 C-5.61838415 1.50822895 -4.37506113 0 0 0 Z " fill="#2F3848" transform="translate(34,62)"/>
<path d="M0 0 C0.639375 0.268125 1.27875 0.53625 1.9375 0.8125 C3.4534375 1.4003125 3.4534375 1.4003125 5 2 C6.01707031 2.41378906 6.01707031 2.41378906 7.0546875 2.8359375 C12.54856366 4.90802228 16.23908467 5.15218307 22 4 C22 4.66 22 5.32 22 6 C24.97 4.02 27.94 2.04 31 0 C30.67 1.32 30.34 2.64 30 4 C29.34 4 28.68 4 28 4 C27.814375 4.5775 27.62875 5.155 27.4375 5.75 C25.33153908 9.04628667 22.55740507 10.60918741 19 12 C14.63112621 12.76281923 12.55147013 12.99538765 8.8203125 10.6015625 C5.12349001 7.50056488 2.1285715 4.39017871 0 0 Z " fill="#49382D" transform="translate(35,58)"/>
<path d="M0 0 C1.10601562 -0.00580078 1.10601562 -0.00580078 2.234375 -0.01171875 C7.7466804 -0.0016598 7.7466804 -0.0016598 10 1.125 C10 1.785 10 2.445 10 3.125 C11.32 3.455 12.64 3.785 14 4.125 C13.67 7.095 13.34 10.065 13 13.125 C11.02 13.125 9.04 13.125 7 13.125 C7 12.135 7 11.145 7 10.125 C6.82527526 5.78777219 6.82527526 5.78777219 5 2.125 C2.98405418 1.89072222 0.961526 1.71163876 -1.0625 1.5625 C-3.021875 1.418125 -4.98125 1.27375 -7 1.125 C-7.33 5.085 -7.66 9.045 -8 13.125 C-9.98 13.125 -11.96 13.125 -14 13.125 C-14.33 12.465 -14.66 11.805 -15 11.125 C-14.67 10.135 -14.34 9.145 -14 8.125 C-13.34 7.795 -12.68 7.465 -12 7.125 C-11.67 6.135 -11.34 5.145 -11 4.125 C-10.67 3.135 -10.34 2.145 -10 1.125 C-6.84150315 -0.45424842 -3.4634872 -0.01816514 0 0 Z " fill="#D1AD9D" transform="translate(50,19.875)"/>
<path d="M0 0 C4.875 3.75 4.875 3.75 6 6 C6.23553948 10.23971058 6.32845886 13.36178302 4 17 C2.02 17 0.04 17 -2 17 C-2 17.99 -2 18.98 -2 20 C-3.670625 20.12375 -3.670625 20.12375 -5.375 20.25 C-9.05753944 20.57873787 -9.05753944 20.57873787 -10.4375 23.0625 C-10.623125 23.701875 -10.80875 24.34125 -11 25 C-11.66 24.67 -12.32 24.34 -13 24 C-11.71937515 22.2925002 -10.38232443 20.62626404 -9 19 C-8.34 19 -7.68 19 -7 19 C-6.34 17.68 -5.68 16.36 -5 15 C-4.34 15 -3.68 15 -3 15 C-2.78537109 13.92685547 -2.78537109 13.92685547 -2.56640625 12.83203125 C-1.7109375 8.5546875 -0.85546875 4.27734375 0 0 Z " fill="#343F52" transform="translate(66,62)"/>
<path d="M0 0 C0.63019694 8.03501094 0.63019694 8.03501094 -2 12.0625 C-2.66 12.701875 -3.32 13.34125 -4 14 C-9.75 13.25 -9.75 13.25 -12 11 C-12.62931533 8.32404177 -12.78130812 5.75551768 -13 3 C-11.2731914 1.2731914 -8.84589305 1.34561284 -6.5 0.9375 C-5.4996875 0.76089844 -4.499375 0.58429687 -3.46875 0.40234375 C-1 0 -1 0 0 0 Z " fill="#D1AD9A" transform="translate(67,38)"/>
<path d="M0 0 C3.40312738 1.05875074 6.01353231 2.00902154 9 4 C10.9896995 4.39013716 12.99019869 4.73202649 15 5 C15 5.33 15 5.66 15 6 C13.84371094 6.05607422 13.84371094 6.05607422 12.6640625 6.11328125 C11.15972656 6.21189453 11.15972656 6.21189453 9.625 6.3125 C8.62726562 6.37050781 7.62953125 6.42851563 6.6015625 6.48828125 C5.74304687 6.65714844 4.88453125 6.82601562 4 7 C3.01 8.485 3.01 8.485 2 10 C2.66 10 3.32 10 4 10 C4.0825 10.61875 4.165 11.2375 4.25 11.875 C4.4975 12.57625 4.745 13.2775 5 14 C5.66 14.309375 6.32 14.61875 7 14.9375 C7.66 15.288125 8.32 15.63875 9 16 C9.75 18.625 9.75 18.625 10 21 C11.98 21 13.96 21 16 21 C15.34 22.32 14.68 23.64 14 25 C10.20620942 23.50958227 8.31656242 21.30937488 6 18 C6 17.34 6 16.68 6 16 C5.401875 15.731875 4.80375 15.46375 4.1875 15.1875 C1.9107782 13.95156531 0.60230024 13.0289751 -1 11 C-1.328125 8.5546875 -1.328125 8.5546875 -1.25 5.875 C-1.23453125 4.98554687 -1.2190625 4.09609375 -1.203125 3.1796875 C-1 1 -1 1 0 0 Z " fill="#C29B86" transform="translate(37,65)"/>
<path d="M0 0 C1.98 0 3.96 0 6 0 C6 1.32 6 2.64 6 4 C7.32 4.33 8.64 4.66 10 5 C10 5.99 10 6.98 10 8 C6.7 8.33 3.4 8.66 0 9 C1.65 9.33 3.3 9.66 5 10 C5 10.66 5 11.32 5 12 C2.125 12.125 2.125 12.125 -1 12 C-1.66 11.34 -2.32 10.68 -3 10 C-5.06874034 9.3574765 -5.06874034 9.3574765 -7 9 C-7 8.01 -7 7.02 -7 6 C-5.5459375 5.62875 -5.5459375 5.62875 -4.0625 5.25 C-2.5465625 4.63125 -2.5465625 4.63125 -1 4 C-0.03122943 1.96756452 -0.03122943 1.96756452 0 0 Z " fill="#A7756B" transform="translate(48,46)"/>
<path d="M0 0 C1.32 0.33 2.64 0.66 4 1 C3.38003922 2.29409289 2.75383647 3.58519673 2.125 4.875 C1.77695312 5.59429688 1.42890625 6.31359375 1.0703125 7.0546875 C0 9 0 9 -2 11 C-2.6160465 13.35680175 -3.14726384 15.73631921 -3.625 18.125 C-3.88539062 19.40632813 -4.14578125 20.68765625 -4.4140625 22.0078125 C-4.70410156 23.48894531 -4.70410156 23.48894531 -5 25 C-5.33 25 -5.66 25 -6 25 C-7.44384359 19.06950195 -8.48455007 14.06191277 -7 8 C-5 5 -5 5 -2.375 4.3125 C-1.59125 4.209375 -0.8075 4.10625 0 4 C0 2.68 0 1.36 0 0 Z " fill="#1C1D14" transform="translate(38,14)"/>
<path d="M0 0 C0.66 0.99 1.32 1.98 2 3 C-0.64 2.34 -3.28 1.68 -6 1 C-5.34 3.31 -4.68 5.62 -4 8 C-4.66 8 -5.32 8 -6 8 C-5.67 8.99 -5.34 9.98 -5 11 C-9.62 11 -14.24 11 -19 11 C-19 10.67 -19 10.34 -19 10 C-18.04287109 9.92652344 -18.04287109 9.92652344 -17.06640625 9.8515625 C-15.82697266 9.73941406 -15.82697266 9.73941406 -14.5625 9.625 C-13.73878906 9.55539063 -12.91507813 9.48578125 -12.06640625 9.4140625 C-11.04353516 9.20910156 -11.04353516 9.20910156 -10 9 C-9.67 8.34 -9.34 7.68 -9 7 C-8.34 7 -7.68 7 -7 7 C-7.66 5.02 -8.32 3.04 -9 1 C-10.98 1 -12.96 1 -15 1 C-15.33 1.99 -15.66 2.98 -16 4 C-17.98 3.34 -19.96 2.68 -22 2 C-19.11275342 -3.77449316 -5.46101791 -1.27811057 0 0 Z M-24 2 C-22 3 -22 3 -22 3 Z " fill="#575553" transform="translate(62,9)"/>
<path d="M0 0 C2.12969485 3.19454228 2.2390304 3.49146925 1.6875 7 C1.58824219 7.680625 1.48898438 8.36125 1.38671875 9.0625 C0.56138873 13.19748674 -0.56733047 14.75410285 -3.875 17.25 C-4.57367188 17.79140625 -5.27234375 18.3328125 -5.9921875 18.890625 C-6.65476562 19.25671875 -7.31734375 19.6228125 -8 20 C-8.99 19.67 -9.98 19.34 -11 19 C-12.11375 19.185625 -13.2275 19.37125 -14.375 19.5625 C-18.10296475 20.01242678 -19.72470772 19.68727178 -23 18 C-20.24161087 17.08053696 -18.06050693 16.74714038 -15.1875 16.5 C-11.42114917 16.15259136 -7.72269956 15.68576045 -4 15 C-4 14.01 -4 13.02 -4 12 C-3.34 11.67 -2.68 11.34 -2 11 C-1.30906104 8.42048126 -1.30906104 8.42048126 -0.875 5.4375 C-0.70742187 4.42558594 -0.53984375 3.41367187 -0.3671875 2.37109375 C-0.24601562 1.58863281 -0.12484375 0.80617187 0 0 Z " fill="#8A746B" transform="translate(67,44)"/>
<path d="M0 0 C0.33 0.66 0.66 1.32 1 2 C0.67 2.66 0.34 3.32 0 4 C-0.66 4 -1.32 4 -2 4 C-2.185625 4.5775 -2.37125 5.155 -2.5625 5.75 C-4.66178828 9.03584253 -7.43715492 10.63875704 -11 12 C-13.98510918 12.55588625 -15.89411007 12.40732983 -19 12 C-21.5 10 -21.5 10 -23 8 C-22.01 8.33 -21.02 8.66 -20 9 C-18.43881572 9.06740865 -16.8749748 9.08514456 -15.3125 9.0625 C-14.50425781 9.05347656 -13.69601563 9.04445313 -12.86328125 9.03515625 C-12.24839844 9.02355469 -11.63351563 9.01195313 -11 9 C-11.33 7.68 -11.66 6.36 -12 5 C-10.68 4.67 -9.36 4.34 -8 4 C-8 4.66 -8 5.32 -8 6 C-5.36 4.02 -2.72 2.04 0 0 Z " fill="#6C5446" transform="translate(65,58)"/>
<path d="M0 0 C2.64 0 5.28 0 8 0 C8.3327958 3.66075376 8.46170299 5.39500988 6.1875 8.375 C4 10 4 10 1 10 C-0.60725635 6.78548731 -0.05748185 3.56387464 0 0 Z " fill="#E3B8AC" transform="translate(38,41)"/>
<path d="M0 0 C0.99 0 1.98 0 3 0 C3.02578125 0.65226562 3.0515625 1.30453125 3.078125 1.9765625 C3.45516815 7.78645463 4.24550913 11.33532952 8 16 C8.66 16.99 9.32 17.98 10 19 C9.01 19.33 8.02 19.66 7 20 C3.06153846 16.67692308 3.06153846 16.67692308 2.75 13.25 C2.8325 12.5075 2.915 11.765 3 11 C0.525 10.01 0.525 10.01 -2 9 C-2.20140476 5.37471432 -1.85776765 3.13498292 0 0 Z " fill="#2F2C31" transform="translate(31,62)"/>
<path d="M0 0 C2.31 0 4.62 0 7 0 C7.33 0.99 7.66 1.98 8 3 C6.35 3.33 4.7 3.66 3 4 C3 4.66 3 5.32 3 6 C-0.3 6.66 -3.6 7.32 -7 8 C-7 6.35 -7 4.7 -7 3 C-3.535 2.505 -3.535 2.505 0 2 C0 1.34 0 0.68 0 0 Z " fill="#1C2230" transform="translate(64,80)"/>
<path d="M0 0 C1.1875 1.5 1.1875 1.5 2 4 C1.27101296 6.78824238 0.1843275 9.37665092 -1 12 C-2.670625 12.12375 -2.670625 12.12375 -4.375 12.25 C-8.05753944 12.57873787 -8.05753944 12.57873787 -9.4375 15.0625 C-9.623125 15.701875 -9.80875 16.34125 -10 17 C-10.66 16.67 -11.32 16.34 -12 16 C-10.71937515 14.2925002 -9.38232443 12.62626404 -8 11 C-7.34 11 -6.68 11 -6 11 C-5.34 9.68 -4.68 8.36 -4 7 C-3.34 7 -2.68 7 -2 7 C-1.855625 6.21625 -1.71125 5.4325 -1.5625 4.625 C-1 2 -1 2 0 0 Z " fill="#4F424A" transform="translate(65,70)"/>
<path d="M0 0 C1.670625 0.061875 1.670625 0.061875 3.375 0.125 C3.705 1.445 4.035 2.765 4.375 4.125 C3.385 4.125 2.395 4.125 1.375 4.125 C1.271875 4.764375 1.16875 5.40375 1.0625 6.0625 C0.835625 6.743125 0.60875 7.42375 0.375 8.125 C-0.615 8.455 -1.605 8.785 -2.625 9.125 C-3.615 6.815 -4.605 4.505 -5.625 2.125 C-3.625 0.125 -3.625 0.125 0 0 Z " fill="#E8BEB3" transform="translate(60.625,40.875)"/>
<path d="M0 0 C0.66 0.66 1.32 1.32 2 2 C2.99 2 3.98 2 5 2 C5.33 3.32 5.66 4.64 6 6 C3.50935112 6.68707555 1.62113708 7 -1 7 C-1.45375 6.34 -1.9075 5.68 -2.375 5 C-2.91125 4.34 -3.4475 3.68 -4 3 C-6.62625139 2.66574265 -6.62625139 2.66574265 -9 3 C-8.67 2.01 -8.34 1.02 -8 0 C-5.06692502 -1.2136862 -2.95460646 -1.0833557 0 0 Z " fill="#1E232E" transform="translate(37,79)"/>
<path d="M0 0 C0.33 0.99 0.66 1.98 1 3 C2.65 3.33 4.3 3.66 6 4 C5.42085333 10.01326751 4.77662055 16.00892722 4 22 C3.67 22 3.34 22 3 22 C2.92652344 20.55367187 2.92652344 20.55367187 2.8515625 19.078125 C2.77679688 17.81484375 2.70203125 16.5515625 2.625 15.25 C2.55539063 13.99703125 2.48578125 12.7440625 2.4140625 11.453125 C2.03635176 8.30315994 1.45140125 6.71400234 0 4 C0 2.68 0 1.36 0 0 Z " fill="#5C4B41" transform="translate(65,25)"/>
<path d="M0 0 C2.475 0.495 2.475 0.495 5 1 C5 3.97 5 6.94 5 10 C3.35 9.67 1.7 9.34 0 9 C0 6.03 0 3.06 0 0 Z " fill="#2B291F" transform="translate(66,19)"/>
<path d="M0 0 C1.60031344 3.20062687 0.03173691 5.72271806 -1 9 C-1.66 9 -2.32 9 -3 9 C-3 9.99 -3 10.98 -3 12 C-4.98 12.33 -6.96 12.66 -9 13 C-7.68230348 10.06052314 -6.25627997 8.25627997 -4 6 C-2.63988391 4.01811655 -1.30208796 2.02048131 0 0 Z " fill="#B99A86" transform="translate(66,47)"/>
<path d="M0 0 C0.33 0.66 0.66 1.32 1 2 C0.01 2.495 0.01 2.495 -1 3 C-0.67 3.66 -0.34 4.32 0 5 C-5.625 6.125 -5.625 6.125 -9 5 C-9 3.68 -9 2.36 -9 1 C-6.04335481 -0.4783226 -3.25770263 -0.06032783 0 0 Z " fill="#856558" transform="translate(63,33)"/>
<path d="M0 0 C0.33 0 0.66 0 1 0 C1.3540919 6.51791392 1.03901852 11.17521449 -2 17 C-2.33 17 -2.66 17 -3 17 C-3 14.69 -3 12.38 -3 10 C-2.34 10 -1.68 10 -1 10 C-1 8.68 -1 7.36 -1 6 C-2.32 6.33 -3.64 6.66 -5 7 C-3.625 4.5 -3.625 4.5 -2 2 C-1.34 2 -0.68 2 0 2 C0 1.34 0 0.68 0 0 Z " fill="#AA8879" transform="translate(65,60)"/>
<path d="M0 0 C0.66666667 1.33333333 1.33333333 2.66666667 2 4 C2.61875 4.928125 2.61875 4.928125 3.25 5.875 C4.35791473 9.01409174 3.22278569 11.01096831 2 14 C1.01 14 0.02 14 -1 14 C-1.18451025 4.58997722 -1.18451025 4.58997722 0 0 Z " fill="#B3958D" transform="translate(70,34)"/>
<path d="M0 0 C1.32 0.33 2.64 0.66 4 1 C3.67 3.97 3.34 6.94 3 10 C1.02 10 -0.96 10 -3 10 C-2.01 9.67 -1.02 9.34 0 9 C0 6.03 0 3.06 0 0 Z " fill="#CCA390" transform="translate(60,23)"/>
<path d="M0 0 C0.639375 0.268125 1.27875 0.53625 1.9375 0.8125 C5.91202261 2.35364142 9.94884495 3.67609312 14 5 C11.36095629 6.41377341 8.92879371 7.37240135 6 8 C4.9970458 6.85675161 3.99770973 5.71032809 3 4.5625 C2.443125 3.92441406 1.88625 3.28632812 1.3125 2.62890625 C0 1 0 1 0 0 Z " fill="#665346" transform="translate(35,58)"/>
<path d="M0 0 C2.97 0.33 5.94 0.66 9 1 C9.33 2.32 9.66 3.64 10 5 C6.66666667 5 3.33333333 5 0 5 C0 3.33333333 0 1.66666667 0 0 Z " fill="#7F5D53" transform="translate(38,33)"/>
<path d="M0 0 C1.375 2.5625 1.375 2.5625 2 5 C1.34 5 0.68 5 0 5 C0 4.34 0 3.68 0 3 C-0.433125 3.495 -0.86625 3.99 -1.3125 4.5 C-3 6 -3 6 -6 6 C-6 4.35 -6 2.7 -6 1 C-6.66 0.67 -7.32 0.34 -8 0 C-5.01122021 -1.4943899 -3.14997454 -0.91874257 0 0 Z " fill="#4B4540" transform="translate(53,10)"/>
<path d="M0 0 C0.66 0.33 1.32 0.66 2 1 C1.835 2.0725 1.67 3.145 1.5 4.25 C0.91189085 8.03028752 0.91189085 8.03028752 1 12 C-0.65 12 -2.3 12 -4 12 C-4.33 11.34 -4.66 10.68 -5 10 C-4.67 9.01 -4.34 8.02 -4 7 C-3.34 6.67 -2.68 6.34 -2 6 C-1.27306096 4.02111039 -0.60183749 2.02045442 0 0 Z " fill="#C7A18E" transform="translate(40,21)"/>
<path d="M0 0 C4.75 1.875 4.75 1.875 7 3 C7.625 5.5625 7.625 5.5625 8 8 C9.98 8 11.96 8 14 8 C13.34 9.32 12.68 10.64 12 12 C8.20620942 10.50958227 6.31656242 8.30937488 4 5 C4 4.34 4 3.68 4 3 C2.68 2.34 1.36 1.68 0 1 C0 0.67 0 0.34 0 0 Z " fill="#A2877B" transform="translate(39,78)"/>
<path d="M0 0 C2.1555042 3.2332563 3.46635724 6.44618938 4.90234375 10.0390625 C5.90211173 12.34145752 5.90211173 12.34145752 9 13 C9 13.66 9 14.32 9 15 C9.66 15.33 10.32 15.66 11 16 C9.68 16.33 8.36 16.66 7 17 C2.10740404 11.72114647 0 7.41270735 0 0 Z " fill="#A18372" transform="translate(33,45)"/>
<path d="M0 0 C-0.66666667 4.66666667 -1.33333333 9.33333333 -2 14 C-2.33 14 -2.66 14 -3 14 C-3.66 10.04 -4.32 6.08 -5 2 C-1 0 -1 0 0 0 Z " fill="#40372D" transform="translate(35,25)"/>
<path d="M0 0 C4 3 4 3 4.5 5.5 C4 8 4 8 0 11 C0 7.37 0 3.74 0 0 Z " fill="#313237" transform="translate(66,62)"/>
<path d="M0 0 C2.12969485 3.19454228 2.2390304 3.49146925 1.6875 7 C1.58824219 7.680625 1.48898438 8.36125 1.38671875 9.0625 C1 11 1 11 0 14 C-1.32 14 -2.64 14 -4 14 C-4 13.34 -4 12.68 -4 12 C-3.34 11.67 -2.68 11.34 -2 11 C-1.30906104 8.42048126 -1.30906104 8.42048126 -0.875 5.4375 C-0.70742187 4.42558594 -0.53984375 3.41367187 -0.3671875 2.37109375 C-0.24601562 1.58863281 -0.12484375 0.80617187 0 0 Z " fill="#9C8075" transform="translate(67,44)"/>
<path d="M0 0 C0.66 1.32 1.32 2.64 2 4 C1.34 4 0.68 4 0 4 C0.33 4.99 0.66 5.98 1 7 C-3.62 7 -8.24 7 -13 7 C-13 6.67 -13 6.34 -13 6 C-12.04287109 5.92652344 -12.04287109 5.92652344 -11.06640625 5.8515625 C-10.24011719 5.77679687 -9.41382813 5.70203125 -8.5625 5.625 C-7.73878906 5.55539063 -6.91507813 5.48578125 -6.06640625 5.4140625 C-5.38449219 5.27742188 -4.70257813 5.14078125 -4 5 C-3.67 4.34 -3.34 3.68 -3 3 C-2.34 3 -1.68 3 -1 3 C-0.67 2.01 -0.34 1.02 0 0 Z " fill="#6B5B52" transform="translate(56,13)"/>
<path d="M0 0 C0.66 0 1.32 0 2 0 C2.12375 0.61875 2.2475 1.2375 2.375 1.875 C2.87197356 4.19120832 2.87197356 4.19120832 5 6 C4.01 6.33 3.02 6.66 2 7 C1.67 9.31 1.34 11.62 1 14 C-1.36574234 10.4513865 -1.10865265 9.4235475 -0.625 5.3125 C-0.51414063 4.31863281 -0.40328125 3.32476562 -0.2890625 2.30078125 C-0.19367187 1.54152344 -0.09828125 0.78226563 0 0 Z " fill="#C6A18E" transform="translate(34,34)"/>
<path d="M0 0 C1.32 0.33 2.64 0.66 4 1 C4 4.63 4 8.26 4 12 C3.67 12 3.34 12 3 12 C2.67 10.35 2.34 8.7 2 7 C1.34 7 0.68 7 0 7 C0 4.69 0 2.38 0 0 Z " fill="#BC9B88" transform="translate(64,32)"/>
<path d="M0 0 C0.99 1.485 0.99 1.485 2 3 C2.66 3.66 3.32 4.32 4 5 C4.66 5 5.32 5 6 5 C6.33 3.68 6.66 2.36 7 1 C7.99 1 8.98 1 10 1 C9.6875 2.875 9.6875 2.875 9 5 C6 7 6 7 3.375 6.6875 C1 6 1 6 0 5 C-0.04063832 3.33382885 -0.042721 1.66611905 0 0 Z " fill="#DCB4A5" transform="translate(55,44)"/>
<path d="M0 0 C0.33 0.99 0.66 1.98 1 3 C1.969375 2.979375 2.93875 2.95875 3.9375 2.9375 C7 3 7 3 8 4 C8.04080783 5.99958364 8.04254356 8.00045254 8 10 C7.814375 9.360625 7.62875 8.72125 7.4375 8.0625 C6.05753944 5.57873787 6.05753944 5.57873787 2.375 5.25 C1.26125 5.1675 0.1475 5.085 -1 5 C-1.33 4.01 -1.66 3.02 -2 2 C-1.34 2 -0.68 2 0 2 C0 1.34 0 0.68 0 0 Z " fill="#4C3F33" transform="translate(58,15)"/>
<path d="M0 0 C1.32 0.33 2.64 0.66 4 1 C3.40606618 2.29640378 2.79942011 3.58698839 2.1875 4.875 C1.85105469 5.59429688 1.51460937 6.31359375 1.16796875 7.0546875 C0 9 0 9 -3 11 C-3 9.68 -3 8.36 -3 7 C-2.01 7 -1.02 7 0 7 C0 6.34 0 5.68 0 5 C-0.66 4.67 -1.32 4.34 -2 4 C-1.34 4 -0.68 4 0 4 C0 2.68 0 1.36 0 0 Z " fill="#2F2A20" transform="translate(38,14)"/>
<path d="M0 0 C0.66 0.66 1.32 1.32 2 2 C0.02 2.33 -1.96 2.66 -4 3 C-3.67 4.32 -3.34 5.64 -3 7 C-3.99 7.495 -3.99 7.495 -5 8 C-7.125 7.0625 -7.125 7.0625 -9 6 C-3.375 1.125 -3.375 1.125 0 0 Z " fill="#323D4A" transform="translate(11,77)"/>
<path d="M0 0 C0 1.32 0 2.64 0 4 C-1.32 3.67 -2.64 3.34 -4 3 C-4 3.66 -4 4.32 -4 5 C-6.97 4.505 -6.97 4.505 -10 4 C-6.74659338 1.32755885 -4.23938937 0 0 0 Z " fill="#BD9686" transform="translate(64,66)"/>
<path d="M0 0 C-0.33 1.65 -0.66 3.3 -1 5 C-3.31 5.66 -5.62 6.32 -8 7 C-8 6.34 -8 5.68 -8 5 C-2.52380952 0 -2.52380952 0 0 0 Z " fill="#2D384B" transform="translate(54,92)"/>
<path d="M0 0 C0 1.98 0 3.96 0 6 C-0.763125 5.67 -1.52625 5.34 -2.3125 5 C-4.99069135 3.82563314 -4.99069135 3.82563314 -8 4 C-7.67 3.01 -7.34 2.02 -7 1 C-4.52260646 0.09162237 -2.66420516 0 0 0 Z " fill="#090E1A" transform="translate(36,78)"/>
<path d="M0 0 C0.99 0.33 1.98 0.66 3 1 C3 3.64 3 6.28 3 9 C2.01 8.67 1.02 8.34 0 8 C-0.38063221 5.6739143 -0.71269945 3.33944736 -1 1 C-0.67 0.67 -0.34 0.34 0 0 Z " fill="#E0B6A6" transform="translate(57,22)"/>
<path d="M0 0 C0.66 0 1.32 0 2 0 C2 0.66 2 1.32 2 2 C2.66 2.33 3.32 2.66 4 3 C2.8125 4.5625 2.8125 4.5625 1 6 C-1.6875 5.6875 -1.6875 5.6875 -4 5 C-4 4.34 -4 3.68 -4 3 C-3.01 3 -2.02 3 -1 3 C-0.67 2.01 -0.34 1.02 0 0 Z " fill="#3F352E" transform="translate(51,13)"/>
<path d="M0 0 C0.33 1.32 0.66 2.64 1 4 C-2.67062491 5.57312496 -4.44302674 6.14440048 -8.375 5.125 C-9.24125 4.75375 -10.1075 4.3825 -11 4 C-11 3.67 -11 3.34 -11 3 C-7.37 3 -3.74 3 0 3 C0 2.01 0 1.02 0 0 Z " fill="#CA928B" transform="translate(58,51)"/>
<path d="M0 0 C2.31 0 4.62 0 7 0 C7.33 0.99 7.66 1.98 8 3 C6.02 3.66 4.04 4.32 2 5 C2 4.34 2 3.68 2 3 C1.34 2.67 0.68 2.34 0 2 C0 1.34 0 0.68 0 0 Z " fill="#0D1421" transform="translate(64,80)"/>
<path d="M0 0 C0.33 0.66 0.66 1.32 1 2 C2.051875 1.938125 2.051875 1.938125 3.125 1.875 C6.38371628 2.01668332 8.9559947 2.86734686 12 4 C12 4.66 12 5.32 12 6 C9.125 6.125 9.125 6.125 6 6 C5.34 5.34 4.68 4.68 4 4 C1.93125966 3.3574765 1.93125966 3.3574765 0 3 C0 2.01 0 1.02 0 0 Z " fill="#AB7870" transform="translate(41,52)"/>
<path d="M0 0 C1.5 1 1.5 1 3 3 C3.27345479 5.71846235 3.13491285 8.25677199 3 11 C2.34 11 1.68 11 1 11 C-0.28317892 7.15046324 -0.06643637 4.05261865 0 0 Z " fill="#B69E94" transform="translate(29,37)"/>
<path d="M0 0 C2.97 0.495 2.97 0.495 6 1 C6.33 1.99 6.66 2.98 7 4 C4.36 3.67 1.72 3.34 -1 3 C-0.67 2.01 -0.34 1.02 0 0 Z " fill="#3C3832" transform="translate(40,11)"/>
<path d="M0 0 C0 1.65 0 3.3 0 5 C-0.66 4.34 -1.32 3.68 -2 3 C-5.45828022 2.83330682 -5.45828022 2.83330682 -9 3 C-9.99 3 -10.98 3 -12 3 C-11.67 2.34 -11.34 1.68 -11 1 C-7.25879194 0.39657934 -3.78319079 0 0 0 Z " fill="#DAAFA3" transform="translate(66,39)"/>
<path d="M0 0 C4.55384615 -0.36923077 4.55384615 -0.36923077 6.8125 1.5 C7.204375 1.995 7.59625 2.49 8 3 C4.25 4.125 4.25 4.125 2 3 C1.67 3.66 1.34 4.32 1 5 C0.67 3.35 0.34 1.7 0 0 Z " fill="#3F3E3A" transform="translate(56,10)"/>
<path d="M0 0 C2.4375 0.375 2.4375 0.375 5 1 C5.33 1.66 5.66 2.32 6 3 C5.67 3.66 5.34 4.32 5 5 C3.68 5 2.36 5 1 5 C0.67 3.35 0.34 1.7 0 0 Z " fill="#5E6473" transform="translate(41,87)"/>
<path d="M0 0 C1.32 0.33 2.64 0.66 4 1 C1.78065836 4.32901247 0.65316671 4.75023244 -3 6 C-3 5.01 -3 4.02 -3 3 C-2.01 3 -1.02 3 0 3 C0 2.01 0 1.02 0 0 Z " fill="#CCA490" transform="translate(59,52)"/>
<path d="M0 0 C0.99 0 1.98 0 3 0 C3 0.66 3 1.32 3 2 C1.04072937 3.7143618 -0.95880212 5.38405168 -3 7 C-2.25 2.25 -2.25 2.25 0 0 Z " fill="#B99887" transform="translate(56,79)"/>
<path d="M0 0 C2.12038635 2.61514317 4.13091744 5.19637616 6 8 C5.01 8.33 4.02 8.66 3 9 C0.90250005 6.64031256 0.03094296 5.45383006 -0.1875 2.25 C-0.125625 1.5075 -0.06375 0.765 0 0 Z " fill="#5C514E" transform="translate(35,73)"/>
<path d="M0 0 C-5.75 5 -5.75 5 -8 5 C-8 3.68 -8 2.36 -8 1 C-2.25 -1.125 -2.25 -1.125 0 0 Z " fill="#846A5C" transform="translate(65,59)"/>
<path d="M0 0 C2.97 0.495 2.97 0.495 6 1 C6.33 2.32 6.66 3.64 7 5 C5.68 4.67 4.36 4.34 3 4 C3.33 3.34 3.66 2.68 4 2 C2.68 2 1.36 2 0 2 C0 1.34 0 0.68 0 0 Z " fill="#8F655A" transform="translate(51,49)"/>
<path d="M0 0 C0.33 0.66 0.66 1.32 1 2 C1.66 2 2.32 2 3 2 C3 2.66 3 3.32 3 4 C1.02 4.33 -0.96 4.66 -3 5 C-1.125 1.125 -1.125 1.125 0 0 Z " fill="#B3907D" transform="translate(60,55)"/>
<path d="M0 0 C0 2.83967231 -0.40267181 5.23735711 -1 8 C-2.32 7.67 -3.64 7.34 -5 7 C-4.34 7 -3.68 7 -3 7 C-2.87625 6.21625 -2.7525 5.4325 -2.625 4.625 C-2 2 -2 2 0 0 Z " fill="#3F4551" transform="translate(30,63)"/>
<path d="M0 0 C0.66 0.66 1.32 1.32 2 2 C1.625 4.125 1.625 4.125 1 6 C-0.32 5.34 -1.64 4.68 -3 4 C-2.01 2.68 -1.02 1.36 0 0 Z " fill="#E7B4A4" transform="translate(51,40)"/>
</svg>
