<?xml version="1.0" encoding="UTF-8"?>
<svg version="1.1" xmlns="http://www.w3.org/2000/svg" width="3000" height="2063">
<path d="M0 0 C44.22 0 88.44 0 134 0 C134.33 73.59 134.66 147.18 135 223 C138.63 219.04 142.26 215.08 146 211 C182.10143217 178.56222515 233.56513319 173.29391758 280 175 C300.11367472 176.22026104 320.01125672 182.00791642 338 191 C338.65274902 191.32307129 339.30549805 191.64614258 339.97802734 191.97900391 C376.99164291 210.6347326 400.92902406 245.17866575 414.125 283.625 C418.74394062 297.67979821 421.78913026 312.09722479 423.75 326.75 C423.86561279 327.61069092 423.98122559 328.47138184 424.1003418 329.3581543 C426.21092567 346.59699312 426.1412929 363.9312862 426.11352539 381.26806641 C426.11324273 383.76330057 426.11340279 386.25853481 426.1139679 388.75376892 C426.11419407 394.0884222 426.11139657 399.42306021 426.10573006 404.7577095 C426.09754301 412.47036196 426.09499252 420.18300853 426.09374207 427.89566486 C426.09156276 440.41417058 426.08493334 452.93266972 426.07543945 465.45117188 C426.06623615 477.59928353 426.05918114 489.74739338 426.05493164 501.89550781 C426.05466364 502.65411212 426.05439565 503.41271644 426.05411953 504.19430876 C426.05203965 510.12861281 426.05008289 516.06291689 426.04816496 521.99722099 C426.03876067 550.99815337 426.01863547 579.99906924 426 609 C381.45 609 336.9 609 291 609 C290.96261719 591.2109375 290.92523437 573.421875 290.88671875 555.09375 C290.85644022 543.81900265 290.82541442 532.54426554 290.79101562 521.26953125 C290.77296768 515.34456447 290.75510405 509.41959717 290.73754883 503.49462891 C290.7342373 502.38085666 290.7342373 502.38085666 290.73085886 501.24458396 C290.69556733 489.28469955 290.67066478 477.3248152 290.64965298 465.36489815 C290.62782778 453.07476461 290.59471414 440.78469815 290.55129844 428.49462175 C290.52489694 420.92170081 290.5071171 413.34886333 290.50065396 405.77589869 C290.49473595 399.95175903 290.47305038 394.12775698 290.44572449 388.30368233 C290.43698271 385.92705666 290.4332136 383.55040626 290.43499184 381.17376518 C290.44666369 358.36138217 288.8205903 335.45528378 272.8203125 317.5625 C256.60075172 301.82154921 235.92169156 299.56837183 214.39453125 299.78515625 C192.75563568 300.29907603 172.33334232 307.24726363 156.47265625 322.33203125 C142.0834736 337.85780021 136.86403973 359.40374453 136.84178162 380.03540039 C136.83684364 381.0182048 136.83190566 382.00100922 136.82681805 383.01359558 C136.81151636 386.29161418 136.80310237 389.56961331 136.79467773 392.84765625 C136.78509345 395.20348785 136.77508304 397.55931775 136.76467896 399.91514587 C136.73768353 406.30082122 136.71664496 412.68650392 136.69667697 419.07220459 C136.67700329 425.07254797 136.6528669 431.07287271 136.62875474 437.07319951 C136.58115734 448.95389783 136.53787202 460.83460775 136.49731445 472.71533203 C136.45791948 484.25277611 136.41647265 495.79020985 136.37231445 507.32763672 C136.36956495 508.04667596 136.36681544 508.76571521 136.36398262 509.50654352 C136.34004616 515.76166219 136.31595478 522.01678026 136.29184818 528.27189827 C136.18834293 555.18124553 136.09500758 582.09061829 136 609 C91.12 609 46.24 609 0 609 C0 408.03 0 207.06 0 0 Z " fill="#45B990" transform="translate(380,717)"/>
<path d="M0 0 C0.83798126 -0.00067474 1.67596252 -0.00134949 2.53933716 -0.00204468 C57.66221 0.06809204 111.36492216 16.15306378 152.9375 53.25 C153.46891602 53.71970215 154.00033203 54.1894043 154.54785156 54.67333984 C204.52135451 98.95499668 224.62788098 165.60571468 228.9375 230.25 C228.9375 241.14 228.9375 252.03 228.9375 263.25 C122.3475 263.25 15.7575 263.25 -94.0625 263.25 C-82.35472326 289.59249766 -68.14015857 310.16070758 -40.87548828 321.12988281 C1.71606165 337.18155584 50.31561283 332.53817483 91.45996094 314.39013672 C100.15360579 310.38941525 109.12360743 306.24390095 116.73046875 300.38671875 C119.9375 298.25 119.9375 298.25 121.97583008 298.46118164 C125.21045226 299.76187415 127.18697475 302.43438649 129.4375 305 C130.5128181 306.19549488 131.58834458 307.39080237 132.6640625 308.5859375 C133.2096582 309.19791992 133.75525391 309.80990234 134.31738281 310.44042969 C136.78527553 313.19691263 139.29845211 315.9106698 141.8125 318.625 C142.30097412 319.15440186 142.78944824 319.68380371 143.29272461 320.22924805 C147.1783257 324.43943553 151.08732093 328.62748655 155 332.8125 C160.1111202 338.28014521 165.18715192 343.77772159 170.23828125 349.30078125 C172.57592816 351.8549396 174.91703798 354.40570807 177.2644043 356.95092773 C178.25048848 358.02063056 179.23504191 359.09174662 180.21801758 360.16430664 C183.04874397 363.24370592 185.92194033 366.27234249 188.84375 369.265625 C189.4936792 369.93940186 190.1436084 370.61317871 190.81323242 371.30737305 C192.08444548 372.62345434 193.3656147 373.93000575 194.6574707 375.22583008 C195.23070068 375.82290771 195.80393066 376.41998535 196.39453125 377.03515625 C197.1676062 377.82224976 197.1676062 377.82224976 197.95629883 378.62524414 C198.9375 380.25 198.9375 380.25 198.76147461 382.29321289 C197.36434044 385.61114781 194.4642619 387.4767233 191.6875 389.625 C191.02492188 390.14320313 190.36234375 390.66140625 189.6796875 391.1953125 C148.25094847 423.06357329 101.66217672 439.31901247 49.9375 444.25 C49.19048828 444.32202637 48.44347656 444.39405273 47.67382812 444.46826172 C-1.49176972 448.91961388 -53.24898583 442.89889804 -99.0625 424.25 C-99.89652344 423.91274902 -100.73054688 423.57549805 -101.58984375 423.22802734 C-126.53091645 412.9802036 -149.21402407 398.41584645 -168.60009766 379.66113281 C-170.13054707 378.18433855 -171.68051517 376.7297255 -173.23046875 375.2734375 C-212.26365708 338.0368292 -232.01710004 283.3546915 -233.34765625 230.140625 C-234.45885881 172.29787881 -217.26288905 115.79387502 -176.953125 73.23828125 C-176.48583984 72.75568848 -176.01855469 72.2730957 -175.53710938 71.77587891 C-174.51615211 70.71942478 -173.50226855 69.65610583 -172.49414062 68.58740234 C-159.67368623 55.00491975 -145.10147662 43.79461566 -129.0625 34.25 C-128.38638672 33.8468457 -127.71027344 33.44369141 -127.01367188 33.02832031 C-97.00177715 15.32864894 -63.58967429 5.19908613 -29.0625 1.25 C-28.26175049 1.15428711 -27.46100098 1.05857422 -26.63598633 0.95996094 C-17.77608764 0.01765207 -8.90033134 0.00646564 0 0 Z M-65.0625 129.25 C-65.71347656 129.74628906 -66.36445312 130.24257813 -67.03515625 130.75390625 C-81.30610683 142.07420304 -89.88921879 160.93477113 -94.0625 178.25 C-94.0625 179.24 -94.0625 180.23 -94.0625 181.25 C-32.0225 181.25 30.0175 181.25 93.9375 181.25 C90.41899621 158.37972539 82.08102247 137.98811394 63.08300781 123.75073242 C27.88334611 98.60739318 -31.98902953 100.81842012 -65.0625 129.25 Z " fill="#9CD06A" transform="translate(2017.0625,891.75)"/>
<path d="M0 0 C15.09036719 14.21495915 27.83426233 29.069358 38.828125 46.6640625 C39.20678711 47.26879395 39.58544922 47.87352539 39.97558594 48.49658203 C52.81413544 69.33556329 61.13024741 92.89534579 66.078125 116.7890625 C66.30508057 117.87815918 66.30508057 117.87815918 66.53662109 118.98925781 C69.32925777 133.49834643 70.21279459 148.10503879 70.140625 162.8515625 C70.13846985 163.65388306 70.1363147 164.45620361 70.13409424 165.28283691 C69.92799157 213.38219529 55.19555459 260.9379725 24.828125 298.6640625 C23.60222656 300.19546875 23.60222656 300.19546875 22.3515625 301.7578125 C11.78317779 314.71650028 0.00523559 326.4592341 -13.45556641 336.39648438 C-15.15755089 337.65348344 -16.84232498 338.9313257 -18.52734375 340.2109375 C-70.05367631 378.7513826 -139.32125191 390.97055517 -202.10253906 382.25732422 C-242.81695386 376.17642502 -282.85419674 361.68050955 -315.171875 335.6640625 C-316.05488281 334.97183594 -316.93789063 334.27960938 -317.84765625 333.56640625 C-328.33606205 325.20300307 -338.75887079 316.15689626 -347.171875 305.6640625 C-347.98785156 304.6740625 -348.80382812 303.6840625 -349.64453125 302.6640625 C-379.79758979 265.61317497 -396.92991729 219.50643331 -398.171875 171.6640625 C-398.21183594 170.39820313 -398.25179687 169.13234375 -398.29296875 167.828125 C-399.35498076 117.85321881 -384.80015395 67.45976334 -354.171875 27.6640625 C-353.05232422 26.19839844 -353.05232422 26.19839844 -351.91015625 24.703125 C-347.55872893 19.21759186 -342.85874811 14.05427863 -338.109375 8.9140625 C-337.5436377 8.29966309 -336.97790039 7.68526367 -336.39501953 7.05224609 C-312.76441949 -18.1705107 -280.6248499 -36.28679702 -248.171875 -47.3359375 C-246.96096191 -47.75117676 -246.96096191 -47.75117676 -245.72558594 -48.17480469 C-231.50372231 -52.96161953 -216.96038306 -55.89596773 -202.171875 -58.3359375 C-201.38119629 -58.47016113 -200.59051758 -58.60438477 -199.77587891 -58.74267578 C-129.42197581 -70.11898351 -52.4672736 -48.01250508 0 0 Z M-233.54296875 85.59765625 C-246.21256202 99.95966272 -253.39272043 117.07214126 -257.171875 135.6640625 C-257.39746094 136.70949219 -257.62304688 137.75492188 -257.85546875 138.83203125 C-263.20548562 168.53384904 -259.09115566 203.86235439 -242.01416016 229.39501953 C-239.249719 233.31268406 -236.27122935 237.00702177 -233.171875 240.6640625 C-232.54796875 241.40269531 -231.9240625 242.14132812 -231.28125 242.90234375 C-216.93562744 258.46422561 -194.56614996 267.61001667 -173.68798828 268.80639648 C-145.90911753 269.77680504 -119.4629858 264.61528116 -98.48828125 245.06640625 C-78.41239689 224.24571674 -69.37034683 197.27757748 -68.171875 168.6640625 C-68.130625 167.82359375 -68.089375 166.983125 -68.046875 166.1171875 C-67.29458452 135.83749562 -75.83873845 105.51412422 -96.69360352 83.03344727 C-113.47710124 65.7899721 -136.05269164 57.74315692 -159.82910156 57.37133789 C-188.5981325 57.21569459 -213.11616335 64.21938393 -233.54296875 85.59765625 Z " fill="#64C182" transform="translate(1246.171875,952.3359375)"/>
<path d="M0 0 C15.44826009 -0.07048535 30.89650795 -0.1231798 46.34489155 -0.15543652 C53.51994049 -0.17082059 60.69488878 -0.19174535 67.86987305 -0.22631836 C74.13302649 -0.25648295 80.39610694 -0.27563622 86.65933102 -0.28226548 C89.96713129 -0.28613265 93.27467763 -0.29668195 96.58242226 -0.31719017 C134.93544335 -0.54529725 169.38932684 7.33067924 199 33 C200.22589844 34.04414062 200.22589844 34.04414062 201.4765625 35.109375 C224.87758951 55.53999301 237.56942455 81.04880831 249.49914551 109.14952087 C252.35572344 115.86524766 255.32084218 122.53091137 258.3125 129.1875 C258.83932373 130.36062744 259.36614746 131.53375488 259.90893555 132.74243164 C264.60940533 143.18066298 269.38275172 153.58535735 274.15261841 163.99200439 C278.57990489 173.65551431 282.96572051 183.33450881 287.25 193.0625 C287.67941895 194.03606445 288.10883789 195.00962891 288.55126953 196.01269531 C291.15695228 201.96165657 293.62614507 207.95485563 296 214 C296.13792969 213.24203125 296.27585937 212.4840625 296.41796875 211.703125 C299.17324756 199.33933584 304.74668168 188.31823837 310.18078613 176.94467163 C313.52892064 169.92418621 316.75288865 162.84808757 319.96615601 155.76507568 C320.9079143 153.69018353 321.85274359 151.61671375 322.7980957 149.54345703 C325.64588032 143.28362192 328.42899784 137.00979456 331.08984375 130.66796875 C333.59584128 124.78341997 336.46211466 119.24037106 339.625 113.6875 C344.14788209 105.59938868 348.25917836 97.39180777 352.1875 89 C356.52607373 79.80286583 361.06101224 71.26571106 367 63 C367.73089844 61.95585938 368.46179687 60.91171875 369.21484375 59.8359375 C391.0068828 30.0305197 422.16461548 10.45814635 458.375 3.54296875 C466.99013188 2.25255568 475.44447369 1.85765508 484.15087891 1.88647461 C485.90871201 1.88625557 485.90871201 1.88625557 487.70205688 1.8860321 C491.54357813 1.88672416 495.38504981 1.89448324 499.2265625 1.90234375 C501.90270062 1.90421044 504.57883606 1.90568241 507.25497437 1.90663147 C513.55869193 1.90972685 519.86239194 1.91791583 526.16610181 1.92798096 C533.34878227 1.93919809 540.53146362 1.9446666 547.71415067 1.94967639 C562.47610938 1.96010013 577.23805438 1.9776645 592 2 C592 2.66 592 3.32 592 4 C591.46375 4.17273438 590.9275 4.34546875 590.375 4.5234375 C576.1122266 9.63739244 564.12840864 18.9543932 553 29 C551.92469237 29.95336553 550.84917079 30.9064898 549.7734375 31.859375 C544.11160858 36.91656792 538.79200218 42.09910475 534 48 C533.57783203 48.50982422 533.15566406 49.01964844 532.72070312 49.54492188 C512.61927336 73.83759625 496.94809477 101.21310065 481.78320312 128.76464844 C479.92155959 132.14231822 478.04766852 135.51298243 476.171875 138.8828125 C468.31160806 153.02333576 460.63341793 167.25280884 453.07275391 181.55566406 C449.13088729 189.00983347 445.13775342 196.43010376 441.0625 203.8125 C434.56776881 215.60742425 428.47491892 227.6094758 422.33802795 239.59288025 C421.96093185 240.32922195 421.58383575 241.06556366 421.1953125 241.82421875 C420.82405746 242.54924088 420.45280243 243.274263 420.07029724 244.02125549 C417.33117984 249.36577615 414.55980573 254.69225662 411.75 260 C406.03019362 270.80804567 400.41869801 281.67200213 394.796875 292.53125 C393.07498552 295.85524534 391.35055385 299.17790567 389.625 302.5 C366.77145595 346.50487475 344.08338763 390.60318945 322 435 C305.5 435 289 435 272 435 C270.02257813 431.03355469 268.04515625 427.06710937 266.0078125 422.98046875 C264.73199863 420.42371389 263.4560605 417.86702248 262.1796875 415.31054688 C260.16678359 411.27882874 258.15427088 407.24691966 256.14453125 403.21362305 C249.24995428 389.37828433 242.32104783 375.57229255 235.06982422 361.91918945 C231.80624168 355.76666607 228.73475533 349.5199396 225.65625 343.2734375 C222.20755105 336.31856128 218.61495737 329.44729495 214.98815918 322.58435059 C209.618997 312.40918328 204.40470498 302.15518204 199.17724609 291.90673828 C193.60771634 280.99194132 187.97699726 270.11344239 182.25488281 259.27783203 C179.84804832 254.71845918 177.47580252 250.14161925 175.10961914 245.56103516 C170.05968398 235.78669922 164.89464731 226.08832307 159.59033203 216.44995117 C155.61199608 209.19147267 151.79104229 201.85777175 148 194.5 C142.79640757 184.40639593 137.46184075 174.39867606 131.98828125 164.44921875 C129.92172377 160.69264622 127.87998806 156.92392457 125.85546875 153.14453125 C119.22166814 140.77224636 112.33348574 128.58564015 105.2109375 116.48828125 C102.52808096 111.92523248 99.93360474 107.32091988 97.375 102.6875 C85.55889513 81.46859346 71.68318081 61.45510941 55.2890625 43.51171875 C53.74739771 41.8200968 52.22154556 40.11394349 50.7109375 38.39453125 C46.10342792 33.1616037 41.42082774 28.38517907 36 24 C35.05511719 23.22914063 34.11023437 22.45828125 33.13671875 21.6640625 C27.3915267 17.06522628 21.48199758 12.87892994 15.1875 9.0625 C14.58993896 8.69721191 13.99237793 8.33192383 13.37670898 7.95556641 C9.07108421 5.41432791 4.71719009 3.65542755 0 2 C0 1.34 0 0.68 0 0 Z " fill="#80C976" transform="translate(1251,900)"/>
<path d="M0 0 C0.68557983 -0.00067474 1.37115967 -0.00134949 2.07751465 -0.00204468 C27.05954937 0.03685116 49.72698584 6.09347715 73.1875 14.25 C71.13990045 21.3062062 68.85455943 28.24927997 66.40625 35.17578125 C66.03999512 36.21743439 65.67374023 37.25908752 65.29638672 38.33230591 C64.0960187 41.74329093 62.89198661 45.15296735 61.6875 48.5625 C60.84699987 50.94604304 60.00650516 53.32958799 59.16601562 55.71313477 C53.0463893 73.05214827 46.88128839 90.37484589 40.6875 107.6875 C40.27927002 108.83046539 39.87104004 109.97343079 39.45043945 111.15103149 C38.29227489 114.39191746 37.13103937 117.63168513 35.96875 120.87109375 C35.6289209 121.82291534 35.2890918 122.77473694 34.93896484 123.75540161 C33.17300162 128.66450999 31.30150671 133.48000688 29.1875 138.25 C25.59503245 137.6842034 22.43672431 136.61097984 19.07836914 135.23095703 C-8.11056031 124.18683496 -40.93487538 123.13215006 -68.22265625 134.5859375 C-87.10870487 143.34051499 -99.19607741 157.90906064 -106.55566406 177.19775391 C-114.6247399 199.9292047 -116.10572401 223.5151672 -116.13134766 247.43066406 C-116.1406756 249.46314886 -116.15084838 251.49562993 -116.16178894 253.52810669 C-116.18878041 258.97715393 -116.20414532 264.42617579 -116.21721697 269.8752718 C-116.23298455 275.59540487 -116.25973031 281.3154871 -116.2852478 287.0355835 C-116.33179673 297.83676812 -116.36865545 308.63796258 -116.40192068 319.43919539 C-116.44750887 334.05655078 -116.50829346 348.67384278 -116.56816864 363.29114532 C-116.66192887 386.27739823 -116.73558202 409.26367026 -116.8125 432.25 C-161.6925 432.25 -206.5725 432.25 -252.8125 432.25 C-252.8125 292.33 -252.8125 152.41 -252.8125 8.25 C-207.9325 8.25 -163.0525 8.25 -116.8125 8.25 C-116.4825 24.09 -116.1525 39.93 -115.8125 56.25 C-112.3475 51.3 -112.3475 51.3 -108.8125 46.25 C-105.95162416 42.78072361 -102.89590303 39.52195646 -99.8125 36.25 C-99.26078125 35.63382813 -98.7090625 35.01765625 -98.140625 34.3828125 C-74.01762141 8.46849676 -33.88313029 0.03007982 0 0 Z " fill="#B4D65F" transform="translate(2547.8125,891.75)"/>
</svg>
