<?xml version="1.0" encoding="UTF-8"?>
<svg version="1.1" xmlns="http://www.w3.org/2000/svg" width="500" height="500">
<path d="M0 0 C0.33 0.33 0.66 0.66 1 1 C3.35231315 1.07902702 5.67472532 1.09380194 8.02661133 1.06591797 C8.76160355 1.06124512 9.49659576 1.05657227 10.25386047 1.05175781 C11.85537479 1.04122922 13.45687608 1.02855816 15.05835915 1.01403427 C17.5925125 0.99209677 20.12659197 0.97796244 22.66081238 0.96633911 C29.86813521 0.93266496 37.07533597 0.89114248 44.2824707 0.82861328 C48.68617633 0.7909673 53.08975448 0.76794146 57.49359703 0.75430679 C59.1733524 0.74624742 60.85309057 0.73263131 62.5327549 0.71337509 C64.88373131 0.68690154 67.23409813 0.67900333 69.58520508 0.67529297 C70.62726105 0.65675766 70.62726105 0.65675766 71.69036865 0.6378479 C75.75235391 0.65475681 78.04277985 1.15222821 81 4 C78.87295931 20.55503225 76.63397953 37.09323573 74.33980942 53.6258812 C74.0575857 55.6604271 73.77577027 57.69502922 73.49404907 59.72964478 C70.98361928 77.85608376 68.44383466 95.97829745 65.8828125 114.09765625 C65.75037832 115.03478203 65.61794415 115.97190781 65.48149681 116.93743134 C64.16930721 126.22156396 62.85565519 135.50548663 61.53775692 144.78881073 C61.04422329 148.2664839 60.55152375 151.74427488 60.05905724 155.2220993 C59.82061696 156.90493084 59.58185271 158.58771651 59.34275246 160.27045441 C58.12348304 168.85501894 56.92888247 177.44104945 55.82666016 186.04150391 C55.73538377 186.74864564 55.64410738 187.45578737 55.55006504 188.18435764 C55.12671763 191.46691924 54.71069465 194.74985272 54.30827332 198.03507996 C54.16376236 199.16666031 54.0192514 200.29824066 53.87036133 201.46411133 C53.74945633 202.44342117 53.62855133 203.42273102 53.50398254 204.43171692 C53 207 53 207 51 211 C-1.8 211 -54.6 211 -109 211 C-110.67723114 206.80692215 -111.44137731 203.90383641 -112.01083374 199.52638245 C-112.09547493 198.88990892 -112.18011611 198.25343539 -112.26732218 197.59767479 C-112.54826289 195.47287111 -112.81976671 193.3469709 -113.09130859 191.22094727 C-113.29143876 189.69247609 -113.49215271 188.16408126 -113.69340515 186.63575745 C-114.23870026 182.48203298 -114.77583763 178.32728932 -115.31157255 174.17232251 C-115.87744758 169.79483252 -116.45092265 165.41833841 -117.02359009 161.04173279 C-118.11129288 152.72014999 -119.19232325 144.39771475 -120.27090514 136.07494539 C-121.60212506 125.80509738 -122.94158359 115.53632713 -124.28125 105.26757812 C-126.86797631 85.43716593 -126.86797631 85.43716593 -128.07452118 76.14386481 C-128.2879805 74.49973272 -128.50153793 72.85561336 -128.71519649 71.21150714 C-129.22873558 67.25976852 -129.74121987 63.30789991 -130.25136375 59.35572147 C-131.19564313 52.0571387 -132.16517881 44.76361769 -133.19464111 37.47653198 C-133.38450944 36.11614999 -133.57417843 34.75574017 -133.76363564 33.39530087 C-134.11032004 30.92037098 -134.46437236 28.44645428 -134.82808495 25.97396946 C-135.94045769 17.98878923 -136.47202913 10.06382282 -136 2 C-135 1 -135 1 -132.8993988 0.89561462 C-131.509515 0.90849266 -131.509515 0.90849266 -130.09155273 0.92163086 C-128.51741859 0.93044533 -128.51741859 0.93044533 -126.91148376 0.93943787 C-125.76378006 0.94782181 -124.61607635 0.95620575 -123.43359375 0.96484375 C-121.00325099 0.96112505 -118.57291081 0.95519016 -116.14257812 0.94726562 C-112.31126113 0.93678489 -108.48179081 0.9370517 -104.65063477 0.97583008 C-89.02636222 1.11750754 -77.26116572 0.57981187 -64 -8 C-43.24512006 -18.21086515 -18.34225589 -12.14113735 0 0 Z " fill="#281D06" transform="translate(136,150)"/>
<path d="M0 0 C24.75 0 49.5 0 75 0 C73.85180823 17.22287649 73.85180823 17.22287649 72.66015625 24.94140625 C72.53044937 25.81511368 72.40074249 26.68882111 72.2671051 27.58900452 C71.99130423 29.44247439 71.71288554 31.29555648 71.4319458 33.14825439 C70.99248736 36.04959915 70.56131009 38.95206989 70.13232422 41.85498047 C69.24050772 47.88345764 68.3396777 53.91056594 67.4375 59.9375 C64.75037621 77.89865123 62.10094889 95.85014311 59.875 113.875 C59.69152346 115.35287914 59.50793028 116.8307438 59.32421875 118.30859375 C58.8814742 121.87223077 58.44028556 125.43605823 58 129 C57.67 128.34 57.34 127.68 57 127 C56.10075806 126.98598145 56.10075806 126.98598145 55.18334961 126.97167969 C52.43393733 126.91757724 49.68615448 126.83401203 46.9375 126.75 C45.99455078 126.73582031 45.05160156 126.72164063 44.08007812 126.70703125 C37.78363491 126.48764298 34.27263382 125.39560225 29 122 C26.20577985 121.1701604 26.20577985 121.1701604 23.5 120.6875 C18.8367423 119.44610864 15.44720534 118.0689527 12.18359375 114.4375 C9.61796156 109.15382183 10.08076319 102.67528816 11 97 C12.515625 95.34375 12.515625 95.34375 14 94 C14.39607732 91.76968008 14.39607732 91.76968008 14.375 89.25 C14.66595884 84.34895998 15.8600459 80.19205899 17.5625 75.625 C20.02716238 68.82937522 21.24825785 62.20868908 20 55 C19.49919922 54.3802832 18.99839844 53.76056641 18.48242188 53.12207031 C16.71085954 50.58609868 16.6794168 49.39059129 16.8125 46.33984375 C16.83570313 45.46392578 16.85890625 44.58800781 16.8828125 43.68554688 C16.92148438 42.77869141 16.96015625 41.87183594 17 40.9375 C17.07655386 39.13465649 17.13964591 37.33117722 17.1875 35.52734375 C17.22230469 34.73062256 17.25710937 33.93390137 17.29296875 33.11303711 C16.9252758 30.4610517 15.9707814 29.72906091 14 28 C13.48046875 26.125 13.48046875 26.125 13.1875 24 C11.34915271 14.65633404 5.61331784 7.48442379 0 0 Z " fill="#C21230" transform="translate(137,156)"/>
<path d="M0 0 C16.5 0 33 0 50 0 C47.53721199 2.46278801 45.29323018 2.99771255 42 4 C42.00902344 4.61746094 42.01804688 5.23492187 42.02734375 5.87109375 C41.76319095 13.41667602 39.24143581 17.66287875 34 23 C32.84996442 23.91708594 31.68501548 24.81608346 30.5 25.6875 C27.66440278 27.76567282 27.66440278 27.76567282 27.875 30.9375 C28.86873463 34.09891961 28.86873463 34.09891961 31.05078125 36.72265625 C33.38952716 40.65493644 33.44616871 42.96448227 33.3125 47.5 C33.27576172 49.40265625 33.27576172 49.40265625 33.23828125 51.34375 C33 55 33 55 32.33203125 58.33203125 C32.22246094 59.21246094 32.11289062 60.09289062 32 61 C32.78375 61.721875 33.5675 62.44375 34.375 63.1875 C37.34689138 66.37166933 37.30147122 66.93432236 37.4375 71.0625 C37.81331532 79.00830955 41.33853721 86.35729306 46.75 92.1875 C49.37342907 95.46678634 49.86728371 97.86777158 50.4453125 101.94921875 C51.32194752 105.19029892 53.26104157 106.51025892 55.9921875 108.3203125 C58.61606499 110.51538511 59.65880981 112.79676824 61.125 115.875 C61.62257812 116.90367187 62.12015625 117.93234375 62.6328125 118.9921875 C63.08398438 119.98476563 63.53515625 120.97734375 64 122 C64.41507812 122.80953125 64.83015625 123.6190625 65.2578125 124.453125 C66.89351608 130.06617097 64.41933735 135.90943303 62 141 C58.96167301 143.99867509 55.68491796 145.90224203 52 148 C51.48953125 148.51949219 50.9790625 149.03898438 50.453125 149.57421875 C48.67452538 151.31935009 47.16605008 151.82292958 44.8125 152.625 C37.10348259 155.53449543 30.10555723 159.87419258 23 164 C23 165.65 23 167.3 23 169 C22.34 169 21.68 169 21 169 C20.86948242 168.00073486 20.73896484 167.00146973 20.60449219 165.97192383 C19.98760765 161.25194802 19.36897104 156.53220259 18.75 151.8125 C18.58109756 150.52356339 18.58109756 150.52356339 18.40878296 149.20858765 C16.92604514 137.90256365 15.39867727 126.60446237 13.8125 115.3125 C12.64638946 106.98726325 11.60199713 98.67321943 10.78613281 90.30688477 C9.80808329 80.59250234 8.37000819 70.93642527 7.01171875 61.26953125 C5.95064713 53.7060207 4.97229151 46.13306282 4.00854492 38.55664062 C3.41154986 33.92630889 2.73605453 29.34018038 1.875 24.75 C0.63029702 16.57052328 0.43485288 8.26220479 0 0 Z " fill="#C21330" transform="translate(4,155)"/>
<path d="M0 0 C1.44173584 0.00290039 1.44173584 0.00290039 2.91259766 0.00585938 C10.4360614 0.0512194 17.88286207 0.40902777 25.375 1.125 C25.045 3.105 24.715 5.085 24.375 7.125 C23.75625 7.186875 23.1375 7.24875 22.5 7.3125 C20.18705753 7.92026932 20.18705753 7.92026932 19.37109375 10.171875 C18.14802065 13.79792701 17.20850562 17.47060975 16.3125 21.1875 C16.05243164 22.24807617 16.05243164 22.24807617 15.78710938 23.33007812 C15.3138731 25.26109971 14.84428366 27.19301403 14.375 29.125 C14.04314017 30.45870084 13.71077626 31.79227978 13.375 33.125 C21.67721148 28.1606164 29.25154233 22.53774127 36.74853516 16.44433594 C37.8547747 15.54699002 38.9694296 14.65994128 40.09130859 13.78222656 C43.53130203 11.0553232 43.53130203 11.0553232 45.375 7.125 C43.395 7.125 41.415 7.125 39.375 7.125 C40.035 5.145 40.695 3.165 41.375 1.125 C55.565 1.125 69.755 1.125 84.375 1.125 C84.045 3.105 83.715 5.085 83.375 7.125 C81.14453125 8.6015625 81.14453125 8.6015625 78.1875 9.75 C72.88898774 12.15215904 68.91273614 14.9121548 64.625 18.75 C57.22665575 25.3698469 49.379925 31.26165234 41.375 37.125 C45.19005526 43.90872409 49.19727492 50.516829 53.5 57 C53.90718262 57.6175415 54.31436523 58.23508301 54.73388672 58.87133789 C59.82917009 67.06026296 59.82917009 67.06026296 67.6875 72 C69.5128125 72.556875 69.5128125 72.556875 71.375 73.125 C71.045 75.435 70.715 77.745 70.375 80.125 C66.42822029 80.22507438 62.48194795 80.29702516 58.53417969 80.34472656 C56.54335522 80.37435477 54.55288292 80.42522326 52.5625 80.4765625 C42.94298833 80.57372928 34.15631207 79.51738931 26.79296875 72.7109375 C20.26037899 65.4045148 15.42087422 56.48673443 10.375 48.125 C8.06118856 59.05946462 8.06118856 59.05946462 8.375 70.125 C9.80198578 71.89741024 9.80198578 71.89741024 11.375 73.125 C10.715 75.435 10.055 77.745 9.375 80.125 C-5.475 80.455 -20.325 80.785 -35.625 81.125 C-35.295 78.485 -34.965 75.845 -34.625 73.125 C-32.63932292 72.60416667 -30.65364583 72.08333333 -28.66796875 71.5625 C-23.79714916 68.13523115 -23.13103306 60.36550595 -22.14135742 54.81665039 C-21.99158447 53.92840576 -21.84181152 53.04016113 -21.6875 52.125 C-21.52419189 51.18454834 -21.36088379 50.24409668 -21.19262695 49.27514648 C-20.84610902 47.27108205 -20.50301445 45.26642312 -20.16308594 43.26123047 C-19.60978728 40.03633278 -19.02944527 36.81710066 -18.4453125 33.59765625 C-18.0669717 31.46106781 -17.68934921 29.32435203 -17.3125 27.1875 C-17.12888916 26.18783203 -16.94527832 25.18816406 -16.75610352 24.15820312 C-15.84483398 18.86248961 -15.21009331 14.35945777 -16.625 9.125 C-17.615 8.465 -18.605 7.805 -19.625 7.125 C-19.295 5.145 -18.965 3.165 -18.625 1.125 C-12.37901412 0.2034611 -6.30910855 -0.03072796 0 0 Z " fill="#C52133" transform="translate(239.625,216.875)"/>
<path d="M0 0 C0.33 0.33 0.66 0.66 1 1 C3.35231315 1.07902702 5.67472532 1.09380194 8.02661133 1.06591797 C8.76160355 1.06124512 9.49659576 1.05657227 10.25386047 1.05175781 C11.85537479 1.04122922 13.45687608 1.02855816 15.05835915 1.01403427 C17.5925125 0.99209677 20.12659197 0.97796244 22.66081238 0.96633911 C29.86813521 0.93266496 37.07533597 0.89114248 44.2824707 0.82861328 C48.68617633 0.7909673 53.08975448 0.76794146 57.49359703 0.75430679 C59.1733524 0.74624742 60.85309057 0.73263131 62.5327549 0.71337509 C64.88373131 0.68690154 67.23409813 0.67900333 69.58520508 0.67529297 C70.62726105 0.65675766 70.62726105 0.65675766 71.69036865 0.6378479 C75.75235391 0.65475681 78.04277985 1.15222821 81 4 C78.87295931 20.55503225 76.63397953 37.09323573 74.33980942 53.6258812 C74.0575857 55.6604271 73.77577027 57.69502922 73.49404907 59.72964478 C70.98361928 77.85608376 68.44383466 95.97829745 65.8828125 114.09765625 C65.75037832 115.03478203 65.61794415 115.97190781 65.48149681 116.93743134 C64.16930721 126.22156396 62.85565519 135.50548663 61.53775692 144.78881073 C61.04422329 148.2664839 60.55152375 151.74427488 60.05905724 155.2220993 C59.82061696 156.90493084 59.58185271 158.58771651 59.34275246 160.27045441 C58.12348304 168.85501894 56.92888247 177.44104945 55.82666016 186.04150391 C55.73538377 186.74864564 55.64410738 187.45578737 55.55006504 188.18435764 C55.12671763 191.46691924 54.71069465 194.74985272 54.30827332 198.03507996 C54.16376236 199.16666031 54.0192514 200.29824066 53.87036133 201.46411133 C53.74945633 202.44342117 53.62855133 203.42273102 53.50398254 204.43171692 C53 207 53 207 51 211 C-1.8 211 -54.6 211 -109 211 C-110.67723114 206.80692215 -111.44137731 203.90383641 -112.01083374 199.52638245 C-112.09547493 198.88990892 -112.18011611 198.25343539 -112.26732218 197.59767479 C-112.54826289 195.47287111 -112.81976671 193.3469709 -113.09130859 191.22094727 C-113.29143876 189.69247609 -113.49215271 188.16408126 -113.69340515 186.63575745 C-114.23870026 182.48203298 -114.77583763 178.32728932 -115.31157255 174.17232251 C-115.87744758 169.79483252 -116.45092265 165.41833841 -117.02359009 161.04173279 C-118.11129288 152.72014999 -119.19232325 144.39771475 -120.27090514 136.07494539 C-121.60212506 125.80509738 -122.94158359 115.53632713 -124.28125 105.26757812 C-126.86797631 85.43716593 -126.86797631 85.43716593 -128.07452118 76.14386481 C-128.2879805 74.49973272 -128.50153793 72.85561336 -128.71519649 71.21150714 C-129.22873558 67.25976852 -129.74121987 63.30789991 -130.25136375 59.35572147 C-131.19564313 52.0571387 -132.16517881 44.76361769 -133.19464111 37.47653198 C-133.38450944 36.11614999 -133.57417843 34.75574017 -133.76363564 33.39530087 C-134.11032004 30.92037098 -134.46437236 28.44645428 -134.82808495 25.97396946 C-135.94045769 17.98878923 -136.47202913 10.06382282 -136 2 C-135 1 -135 1 -132.8993988 0.89561462 C-131.509515 0.90849266 -131.509515 0.90849266 -130.09155273 0.92163086 C-128.51741859 0.93044533 -128.51741859 0.93044533 -126.91148376 0.93943787 C-125.76378006 0.94782181 -124.61607635 0.95620575 -123.43359375 0.96484375 C-121.00325099 0.96112505 -118.57291081 0.95519016 -116.14257812 0.94726562 C-112.31126113 0.93678489 -108.48179081 0.9370517 -104.65063477 0.97583008 C-89.02636222 1.11750754 -77.26116572 0.57981187 -64 -8 C-43.24512006 -18.21086515 -18.34225589 -12.14113735 0 0 Z M-74.97436523 2.07763672 C-80.08287258 5.0041111 -85.53583607 4.60309442 -91.27734375 4.609375 C-92.4438295 4.62591125 -93.61031525 4.64244751 -94.81214905 4.65948486 C-98.52065336 4.70788712 -102.22874777 4.72931967 -105.9375 4.75 C-108.45900491 4.778166 -110.98049079 4.80809431 -113.50195312 4.83984375 C-119.66789454 4.91364428 -125.83372104 4.96533243 -132 5 C-131.8695968 7.98867482 -131.73177897 10.97671204 -131.58984375 13.96484375 C-131.55419312 14.7993103 -131.51854248 15.63377686 -131.48181152 16.49353027 C-131.14549896 23.38542811 -130.06617417 29.96316734 -128.7578125 36.734375 C-127.9152029 41.23805014 -127.40672204 45.75679796 -126.9375 50.3125 C-126.42673433 55.26195028 -125.86414759 60.15896485 -125 65.0625 C-123.81180842 71.82321796 -123.06647275 78.62468987 -122.29296875 85.44189453 C-120.50030993 101.09479381 -118.54925193 116.7268066 -116.48291016 132.34570312 C-115.88629824 136.86040849 -115.29269387 141.37550638 -114.69921875 145.890625 C-113.4674426 155.26058758 -112.23410233 164.63034354 -111 174 C-107.94135703 172.80187215 -105.14399529 171.5333595 -102.3125 169.875 C-97.56734383 167.42530178 -93.211342 167.6876502 -88 168 C-89.39676334 176.57208859 -91.51340728 184.77808053 -93.96484375 193.1015625 C-94.22652344 194.02195312 -94.48820312 194.94234375 -94.7578125 195.890625 C-94.9964502 196.70563477 -95.23508789 197.52064453 -95.48095703 198.36035156 C-96.22509525 201.69638008 -96.22509525 201.69638008 -96 208 C-61.68 208 -27.36 208 8 208 C7.14611155 195.98269975 7.14611155 195.98269975 6 184 C7.98 184 9.96 184 12 184 C12.04898438 184.64324219 12.09796875 185.28648437 12.1484375 185.94921875 C12.76167388 193.36092052 13.79842569 200.66223066 15 208 C17.97 208 20.94 208 24 208 C22.88740222 199.15157531 21.36328211 190.60234688 19 182 C20.98 182 22.96 182 25 182 C25.11069824 182.57443848 25.22139648 183.14887695 25.33544922 183.74072266 C25.84449329 186.36963602 26.35969444 188.99730712 26.875 191.625 C27.04902344 192.52863281 27.22304687 193.43226563 27.40234375 194.36328125 C28.32376667 199.03864938 29.3461286 203.51517755 31 208 C33.31 208 35.62 208 38 208 C37.2350912 202.13033144 36.11897555 196.36133228 34.9375 190.5625 C34.75123047 189.64017578 34.56496094 188.71785156 34.37304688 187.76757812 C33.9171263 185.51135577 33.4594036 183.25551526 33 181 C34.98 180.67 36.96 180.34 39 180 C39.11601562 181.11503906 39.23203125 182.23007812 39.3515625 183.37890625 C39.97444849 188.33686018 41.121389 193.10587427 42.375 197.9375 C42.58382812 198.79923828 42.79265625 199.66097656 43.0078125 200.54882812 C43.21921875 201.36673828 43.430625 202.18464844 43.6484375 203.02734375 C43.83583496 203.76718506 44.02323242 204.50702637 44.21630859 205.26928711 C44.47492676 205.84042236 44.73354492 206.41155762 45 207 C45.99 207.33 46.98 207.66 48 208 C53.83284647 184.40004909 53.83284647 184.40004909 49.9375 161.4375 C49.62675537 160.76074219 49.31601074 160.08398438 48.99584961 159.38671875 C48.01127508 157.2509608 47.00615641 155.12566219 46 153 C45.32413241 151.54361227 44.64963955 150.08658574 43.9765625 148.62890625 C42.33350073 145.07835825 40.67195686 141.53702728 39 138 C42.30994713 136.34502644 45.99123 136.89915665 49.625 136.9375 C50.42679688 136.94201172 51.22859375 136.94652344 52.0546875 136.95117188 C54.03649006 136.96296832 56.01825433 136.98090395 58 137 C59.53582112 129.90518469 60.59991299 122.83303451 61.4375 115.625 C62.60991827 105.59353952 64.08536011 95.62087518 65.60183716 85.63708496 C66.24681353 81.36532144 66.87408263 77.09099776 67.5 72.81640625 C67.62277313 71.97864655 67.74554626 71.14088684 67.87203979 70.27774048 C68.90312468 63.23563214 69.92904847 56.1927699 70.95451355 49.14984131 C71.63223546 44.50059409 72.31926226 39.85294878 73.01953125 35.20703125 C73.22739258 33.80892212 73.22739258 33.80892212 73.43945312 32.38256836 C73.67169488 30.82147212 73.90795425 29.26096156 74.15039062 27.70141602 C74.85883049 22.8861683 75.22438514 18.06672669 75.53393555 13.21142578 C75.57918114 12.51682755 75.62442673 11.82222931 75.6710434 11.10658264 C75.78176521 9.40445767 75.89102952 7.70223799 76 6 C75.04644119 5.99635437 74.09288239 5.99270874 73.11042786 5.98895264 C64.12021784 5.95199747 55.13035019 5.89421925 46.14040089 5.81609726 C41.51863505 5.77660253 36.89706032 5.7444239 32.27514648 5.72900391 C27.8139782 5.71385037 23.35333519 5.67942831 18.89240074 5.63169098 C17.19122574 5.61686367 15.48997575 5.60895821 13.78873634 5.60811615 C11.40391792 5.60574871 9.02055383 5.57868955 6.63598633 5.54589844 C5.93395584 5.5509288 5.23192535 5.55595917 4.50862122 5.56114197 C-0.29244612 5.45912593 -2.53755239 4.24523496 -6 1 C-7.97098596 -0.09557464 -9.9728212 -1.13726747 -12 -2.125 C-13.010625 -2.62257812 -14.02125 -3.12015625 -15.0625 -3.6328125 C-34.67958054 -12.76310264 -57.29292861 -10.27310002 -74.97436523 2.07763672 Z " fill="#FCF8F9" transform="translate(136,150)"/>
<path d="M0 0 C10.37470379 9.03502732 17.8786059 19.43345257 18.92260742 33.50195312 C19.08934835 36.65360145 19.18250893 39.7972877 19.2265625 42.953125 C15.02596626 41.55292625 14.03604725 38.58486623 12.0390625 34.890625 C11.67103516 34.22740234 11.30300781 33.56417969 10.92382812 32.88085938 C10.01644188 31.24285043 9.12040677 29.59856279 8.2265625 27.953125 C8.45096781 34.90968958 10.02030278 38.95056668 13.94921875 44.69140625 C15.2265625 46.953125 15.2265625 46.953125 15.2265625 50.953125 C14.06253906 51.02043823 14.06253906 51.02043823 12.875 51.08911133 C9.32461569 51.30174249 5.77572491 51.53352221 2.2265625 51.765625 C1.00582031 51.83587891 -0.21492188 51.90613281 -1.47265625 51.97851562 C-12.22529878 52.40645965 -12.22529878 52.40645965 -21.31347656 57.51538086 C-24.09909864 60.25861304 -28.07778075 59.79997267 -31.80078125 60.03515625 C-34.94351318 59.94843172 -36.92575723 59.13836882 -39.6796875 57.66015625 C-47.76833262 54.92872945 -58.40879767 56.85096069 -66.7734375 57.953125 C-67.0252287 52.41371865 -67.0252287 52.41371865 -65.8125 50.1953125 C-64.38106752 47.10643189 -64.31527799 44.21208502 -64.0234375 40.828125 C-63.09746008 32.50140446 -60.57259831 26.22493961 -54.15625 20.69921875 C-49.72307275 18.41096213 -46.29624945 18.50002594 -41.3984375 18.703125 C-40.15126953 18.73019531 -40.15126953 18.73019531 -38.87890625 18.7578125 C-36.84324676 18.80460927 -34.8081866 18.87634202 -32.7734375 18.953125 C-32.7734375 17.633125 -32.7734375 16.313125 -32.7734375 14.953125 C-41.93832897 9.90905697 -52.67542702 9.34827767 -62.796875 11.63671875 C-64.8208526 12.32120308 -66.80428331 13.12400745 -68.7734375 13.953125 C-69.4334375 13.953125 -70.0934375 13.953125 -70.7734375 13.953125 C-69.30415982 10.33582723 -67.37542135 8.5870772 -64.2734375 6.265625 C-63.479375 5.66363281 -62.6853125 5.06164062 -61.8671875 4.44140625 C-59.7734375 2.953125 -59.7734375 2.953125 -57.7734375 1.953125 C-58.7634375 1.623125 -59.7534375 1.293125 -60.7734375 0.953125 C-59.7734375 -2.046875 -59.7734375 -2.046875 -56.859375 -3.6171875 C-55.62721642 -4.14677618 -54.38993622 -4.66456854 -53.1484375 -5.171875 C-51.93929687 -5.69007813 -50.73015625 -6.20828125 -49.484375 -6.7421875 C-33.94096275 -12.20692402 -13.37793593 -9.87329356 0 0 Z " fill="#FDEDDD" transform="translate(128.7734375,155.046875)"/>
<path d="M0 0 C1.65153076 -0.00833862 1.65153076 -0.00833862 3.33642578 -0.0168457 C10.02920225 0.04212815 16.24709733 0.71781008 22.75 2.3125 C23.58237037 5.70680784 23.82648717 8.13008122 22.97265625 11.51953125 C22.78896484 12.27041016 22.60527344 13.02128906 22.41601562 13.79492188 C22.11727539 14.94831055 22.11727539 14.94831055 21.8125 16.125 C21.61720703 16.91326172 21.42191406 17.70152344 21.22070312 18.51367188 C20.73981322 20.44896052 20.24616632 22.38107145 19.75 24.3125 C16.05611334 23.73919837 13.38798876 22.72722719 10.1875 20.8125 C2.95413644 16.50006141 -4.696907 16.3614623 -12.94140625 17.7734375 C-20.94266718 19.90209847 -28.76988987 24.14432379 -33.25 31.3125 C-36.1657244 37.87287989 -36.01185789 43.77202499 -33.75 50.4375 C-31.03037363 56.62797821 -27.02985489 59.61318062 -20.96484375 62.33984375 C-9.39933211 66.42068282 2.1751318 64.22790908 13.75 61.3125 C13.34060025 68.07465448 12.18046191 73.98412748 9.75 80.3125 C-12.48347335 83.28758843 -35.86721771 85.60993348 -55.2109375 72.0078125 C-60.66178608 67.47588092 -64.90047761 61.32778581 -66.25 54.3125 C-67.46859126 40.87790743 -64.70684777 30.8005537 -56.25 20.3125 C-41.61961345 4.93976826 -20.43293701 0.08741823 0 0 Z " fill="#C52133" transform="translate(455.25,216.6875)"/>
<path d="M0 0 C24.09 0 48.18 0 73 0 C72.29620948 5.63032416 71.52516303 10.17364661 69.9375 15.5 C69.57527344 16.7271875 69.21304688 17.954375 68.83984375 19.21875 C68.42412109 20.59546875 68.42412109 20.59546875 68 22 C65.625 21.6875 65.625 21.6875 63 21 C62.01 19.515 62.01 19.515 61 18 C57.99585431 17.48815355 57.99585431 17.48815355 54.4609375 17.48828125 C52.50800781 17.43510742 52.50800781 17.43510742 50.515625 17.38085938 C49.13542191 17.35775769 47.75521343 17.33497536 46.375 17.3125 C44.98694648 17.27933555 43.59892393 17.2448467 42.2109375 17.20898438 C38.80737293 17.12625885 35.4040741 17.05718743 32 17 C31.90912109 18.26457031 31.90912109 18.26457031 31.81640625 19.5546875 C31.73261719 20.65039062 31.64882813 21.74609375 31.5625 22.875 C31.48128906 23.96554688 31.40007812 25.05609375 31.31640625 26.1796875 C31 29 31 29 30 31 C38.91 31 47.82 31 57 31 C55.875 42.25 55.875 42.25 54.4375 46.625 C54.16808594 47.46289062 53.89867187 48.30078125 53.62109375 49.1640625 C53.41613281 49.76992188 53.21117187 50.37578125 53 51 C52.28432861 50.67854004 51.56865723 50.35708008 50.83129883 50.02587891 C47.95106702 48.98226986 45.74612078 48.69284634 42.69921875 48.5859375 C41.72275391 48.54726563 40.74628906 48.50859375 39.74023438 48.46875 C38.73283203 48.4378125 37.72542969 48.406875 36.6875 48.375 C35.14739258 48.31699219 35.14739258 48.31699219 33.57617188 48.2578125 C31.05095735 48.16385103 28.52574408 48.0781846 26 48 C25.7775103 50.89537277 25.57156846 53.79034899 25.375 56.6875 C25.31054688 57.50412109 25.24609375 58.32074219 25.1796875 59.16210938 C24.76181289 65.32702599 24.76181289 65.32702599 27 71 C27.99 71.33 28.98 71.66 30 72 C29.67 74.31 29.34 76.62 29 79 C16.46 79 3.92 79 -9 79 C-7.87538148 66.62919627 -7.87538148 66.62919627 -7.07617188 62.45947266 C-6.89928833 61.52124664 -6.72240479 60.58302063 -6.54016113 59.61636353 C-6.35159546 58.64210419 -6.16302979 57.66784485 -5.96875 56.6640625 C-5.56633182 54.52605567 -5.16399044 52.38803439 -4.76171875 50.25 C-4.13190754 46.93675191 -3.49980047 43.62395763 -2.86572266 40.31152344 C0.47695926 23.27239071 0.47695926 23.27239071 2 6 C1.01 6 0.02 6 -1 6 C-0.67 4.02 -0.34 2.04 0 0 Z " fill="#C52133" transform="translate(328,218)"/>
<path d="M0 0 C1.28317892 3.84953676 1.06643637 6.94738135 1 11 C1.66 11 2.32 11 3 11 C3 8.03 3 5.06 3 2 C5.475 2.495 5.475 2.495 8 3 C8.62062478 10.93020553 7.89827539 17.65352787 5.6875 25.25 C5.36809448 26.37619751 5.36809448 26.37619751 5.04223633 27.52514648 C4.38671875 29.640625 4.38671875 29.640625 3 33 C2.01 33.33 1.02 33.66 0 34 C-0.00410889 34.57331055 -0.00821777 35.14662109 -0.01245117 35.73730469 C-0.18417868 49.43703852 -0.47084583 62.14530559 -10.53515625 72.59375 C-11.26025391 73.28984375 -11.26025391 73.28984375 -12 74 C-12.804375 74.825 -13.60875 75.65 -14.4375 76.5 C-17.94079795 78.55071099 -20.14401231 77.90729122 -24 77 C-23.773125 78.051875 -23.54625 79.10375 -23.3125 80.1875 C-22.95734199 84.52042774 -23.62432524 85.52785997 -26 89 C-26.70670728 91.69254991 -26.70670728 91.69254991 -27 94 C-31.66188061 93.52207339 -33.87180734 91.72323415 -37.25 88.5625 C-38.12140625 87.75941406 -38.9928125 86.95632813 -39.890625 86.12890625 C-42.02035063 83.97946094 -42.94063314 83.03081298 -43.11352539 80.02880859 C-43.10828857 79.24328613 -43.10305176 78.45776367 -43.09765625 77.6484375 C-43.09443359 76.79765625 -43.09121094 75.946875 -43.08789062 75.0703125 C-43.07951172 74.18085938 -43.07113281 73.29140625 -43.0625 72.375 C-43.05798828 71.4778125 -43.05347656 70.580625 -43.04882812 69.65625 C-43.03702591 67.43743352 -43.02056155 65.21874982 -43 63 C-42.01 63.66 -41.02 64.32 -40 65 C-40 63.68 -40 62.36 -40 61 C-41.32 60.67 -42.64 60.34 -44 60 C-43.5 58.125 -43.5 58.125 -42 56 C-39.34822355 55.01505446 -36.79452693 54.54087618 -34 54 C-36.97 53.67 -39.94 53.34 -43 53 C-43.33 51.68 -43.66 50.36 -44 49 C-43.34 49 -42.68 49 -42 49 C-42 48.01 -42 47.02 -42 46 C-42.66386719 46.144375 -43.32773438 46.28875 -44.01171875 46.4375 C-44.89472656 46.623125 -45.77773437 46.80875 -46.6875 47 C-47.55761719 47.185625 -48.42773438 47.37125 -49.32421875 47.5625 C-51.93712964 47.98972047 -54.35813038 48.07616201 -57 48 C-57 45 -57 45 -54.5625 42.375 C-53.716875 41.59125 -52.87125 40.8075 -52 40 C-51.505 39.505 -51.505 39.505 -51 39 C-47.87273894 39.04149562 -44.75728715 39.12744535 -41.63476562 39.30273438 C-38.15394369 39.39460358 -36.39936792 39.32187862 -33.64453125 37.1015625 C-33.10183594 36.40804687 -32.55914062 35.71453125 -32 35 C-28.68965517 32 -28.68965517 32 -26.0625 32 C-24 33 -24 33 -21.6875 35.375 C-19.20475907 37.80000276 -18.32321564 38.38795601 -15.25 39.4375 C-14.1775 39.953125 -13.105 40.46875 -12 41 C-11.0625 44.1875 -11.0625 44.1875 -11 47 C-10.50901939 43.54949739 -10.33061748 40.43444724 -11 37 C-13.27866879 34.35288974 -16.03533547 32.79806368 -19 31 C-20.10100887 30.08332294 -21.18646855 29.14740531 -22.25 28.1875 C-24.69059269 26.24611945 -25.96408751 25.3502976 -29 25 C-28.896875 25.7425 -28.79375 26.485 -28.6875 27.25 C-29 30 -29 30 -31.375 32.25 C-35.25422407 34.83614938 -37.31315086 35.28694995 -42 35 C-42.99 34.34 -43.98 33.68 -45 33 C-45.99 33 -46.98 33 -48 33 C-48.33 33.66 -48.66 34.32 -49 35 C-50.9375 34.25 -50.9375 34.25 -53 33 C-53.75 30.875 -53.75 30.875 -54 29 C-53.01 28.67 -52.02 28.34 -51 28 C-51 29.32 -51 30.64 -51 32 C-50.34 32 -49.68 32 -49 32 C-48.98541748 31.34402832 -48.97083496 30.68805664 -48.95581055 30.01220703 C-48.88148586 27.04919969 -48.78477631 24.08733883 -48.6875 21.125 C-48.66494141 20.09246094 -48.64238281 19.05992187 -48.61914062 17.99609375 C-48.58369141 17.00996094 -48.54824219 16.02382812 -48.51171875 15.0078125 C-48.48553467 14.09660645 -48.45935059 13.18540039 -48.43237305 12.24658203 C-48.28968994 11.50520996 -48.14700684 10.76383789 -48 10 C-45 8 -45 8 -42.4375 8.125 C-40 9 -40 9 -38.6875 11.0625 C-38.460625 11.701875 -38.23375 12.34125 -38 13 C-37.01 13 -36.02 13 -35 13 C-35 12.01 -35 11.02 -35 10 C-33.80503906 10.01740234 -33.80503906 10.01740234 -32.5859375 10.03515625 C-26.07371035 10.12659519 -26.07371035 10.12659519 -19.625 9.375 C-16.28699404 8.89814201 -14.08805735 9.75007202 -11 11 C-11.4794463 15.21912747 -12.16625119 17.79663178 -15 21 C-13.01979579 20.55966008 -13.01979579 20.55966008 -11 19 C-8.74168073 14.04906929 -7.52047942 9.23703319 -6.625 3.8828125 C-5.47457255 0.41714979 -3.39071444 0 0 0 Z " fill="#F9EBDB" transform="translate(145,210)"/>
<path d="M0 0 C0 0.66 0 1.32 0 2 C-1.423125 2.928125 -1.423125 2.928125 -2.875 3.875 C-5.82241872 5.87924473 -6.83853833 6.74790731 -8 10 C-6.02 8.68 -4.04 7.36 -2 6 C-1.67 6.99 -1.34 7.98 -1 9 C-1.598125 9.9075 -2.19625 10.815 -2.8125 11.75 C-5.83588105 16.5811759 -5.96242297 22.03684544 -6.5078125 27.57421875 C-6.9477241 30.63614315 -7.51581804 32.3673439 -9 35 C-9.38290462 36.99110401 -9.72604615 38.99100513 -10 41 C-9.45214844 40.855625 -8.90429688 40.71125 -8.33984375 40.5625 C-0.24891003 38.66803747 11.04437304 36.47867236 18.6875 40.5625 C23.79113966 42.77728702 28.62806289 42.15112938 34 41 C36.86965747 39.18911155 36.86965747 39.18911155 39 37 C43.47252574 35.17568029 47.57149802 34.64689634 52.375 34.375 C53.62023437 34.30023438 54.86546875 34.22546875 56.1484375 34.1484375 C57.08945313 34.09945312 58.03046875 34.05046875 59 34 C59 34.99 59 35.98 59 37 C59.66 37 60.32 37 61 37 C61 38.65 61 40.3 61 42 C58.69 41.34 56.38 40.68 54 40 C53.67 40.33 53.34 40.66 53 41 C53.825 41.45375 54.65 41.9075 55.5 42.375 C56.325 42.91125 57.15 43.4475 58 44 C58 44.66 58 45.32 58 46 C51.47059106 48.95671348 46.12600133 49.35368021 39 49 C38.67 49.99 38.34 50.98 38 52 C36.125 51.75 36.125 51.75 34 51 C32.75 48.9375 32.75 48.9375 32 47 C29.03 47.495 29.03 47.495 26 48 C25.91363281 48.59167969 25.82726562 49.18335938 25.73828125 49.79296875 C24.72917159 55.46805337 23.42777624 58.09933998 19 62 C17.01072221 64.80839217 15.22161832 67.57691048 13.625 70.625 C11.48870441 73.74727817 9.34561952 75.26027785 6 77 C3.4375 77.125 3.4375 77.125 1 76 C-0.98706172 74.11665854 -2.38823265 72.25647429 -4 70 C-4 69.34 -4 68.68 -4 68 C-2.35 68 -0.7 68 1 68 C0.236875 67.236875 -0.52625 66.47375 -1.3125 65.6875 C-3.20833333 63.79166667 -5.10416667 61.89583333 -7 60 C-6.67 59.01 -6.34 58.02 -6 57 C-2.535 57.495 -2.535 57.495 1 58 C2.01111093 54.95086772 2.01111093 54.95086772 1 52 C0.01 52 -0.98 52 -2 52 C-2 50.68 -2 49.36 -2 48 C-2.61875 48.495 -3.2375 48.99 -3.875 49.5 C-6 51 -6 51 -8 51 C-8 49.68 -8 48.36 -8 47 C-8.66 47 -9.32 47 -10 47 C-10 47.66 -10 48.32 -10 49 C-11.65 49.66 -13.3 50.32 -15 51 C-15 54.3 -15 57.6 -15 61 C-18 60 -18 60 -19.1875 58.25 C-20.10819096 55.70039426 -20.14948718 53.69076919 -20 51 C-18.515 50.505 -18.515 50.505 -17 50 C-17 48.68 -17 47.36 -17 46 C-19.97 46.495 -19.97 46.495 -23 47 C-24.64828333 40.05480615 -25.3109667 33.33247537 -25.55859375 26.19921875 C-26.0360833 22.73847588 -27.12931423 20.89831581 -29 18 C-29 17.01 -29 16.02 -29 15 C-28.48953125 14.81566406 -27.9790625 14.63132813 -27.453125 14.44140625 C-21.1050649 11.90893547 -16.12851442 8.26900222 -10.796875 4.0234375 C-7.17973081 1.40656503 -4.48346897 0 0 0 Z " fill="#30260F" transform="translate(72,172)"/>
<path d="M0 0 C0.66 0 1.32 0 2 0 C1.93941406 0.61705811 1.87882812 1.23411621 1.81640625 1.86987305 C0.43017361 16.29335704 -0.27165083 30.51195577 0 45 C6.21244654 44.46932404 11.34642269 42.9768533 17.125 40.6875 C29.38020985 35.87145435 41.88196986 32.61648563 54.80639648 30.18969727 C56.83014153 29.80918295 58.85161572 29.41799369 60.87304688 29.02539062 C67.56570089 27.73969737 74.21046502 26.61994654 81 26 C81.33851178 28.68693722 81.670936 31.37440289 82 34.0625 C82.09539062 34.81466797 82.19078125 35.56683594 82.2890625 36.34179688 C82.37929687 37.08623047 82.46953125 37.83066406 82.5625 38.59765625 C82.64628906 39.27320557 82.73007813 39.94875488 82.81640625 40.64477539 C83.05880292 43.75435073 83 46.88099136 83 50 C52.31 50 21.62 50 -10 50 C-8.88443861 36.6132633 -8.88443861 36.6132633 -7.625 31.8125 C-6.16767292 25.94074527 -5.09383422 20.0636425 -4.17822266 14.0871582 C-3.36096193 9.0923231 -1.89339029 4.69665981 0 0 Z " fill="#C11330" transform="translate(61,308)"/>
<path d="M0 0 C10.37470379 9.03502732 17.8786059 19.43345257 18.92260742 33.50195312 C19.08934835 36.65360145 19.18250893 39.7972877 19.2265625 42.953125 C14.88021077 41.50434109 13.88026813 38.17307047 11.8515625 34.328125 C6.90088446 25.05840715 2.52800001 17.16011897 -7.71484375 13.203125 C-12.89621928 11.69581576 -18.42732215 11.16243903 -23.7734375 11.953125 C-25.79661828 13.25101456 -27.80209764 14.57777161 -29.7734375 15.953125 C-32.1484375 15.390625 -32.1484375 15.390625 -34.7734375 13.953125 C-43.20386248 9.73791251 -53.65316925 9.58079681 -62.8046875 11.6328125 C-64.82513702 12.32160211 -66.80608651 13.12476669 -68.7734375 13.953125 C-69.4334375 13.953125 -70.0934375 13.953125 -70.7734375 13.953125 C-69.30415982 10.33582723 -67.37542135 8.5870772 -64.2734375 6.265625 C-63.479375 5.66363281 -62.6853125 5.06164062 -61.8671875 4.44140625 C-59.7734375 2.953125 -59.7734375 2.953125 -57.7734375 1.953125 C-58.7634375 1.623125 -59.7534375 1.293125 -60.7734375 0.953125 C-59.7734375 -2.046875 -59.7734375 -2.046875 -56.859375 -3.6171875 C-55.62721642 -4.14677618 -54.38993622 -4.66456854 -53.1484375 -5.171875 C-51.93929687 -5.69007813 -50.73015625 -6.20828125 -49.484375 -6.7421875 C-33.94096275 -12.20692402 -13.37793593 -9.87329356 0 0 Z " fill="#FAFAF9" transform="translate(128.7734375,155.046875)"/>
<path d="M0 0 C3.6104627 3.37752962 4.87930694 5.30634007 5.23828125 10.34375 C5.53692753 21.68263013 3.70099822 32.0151367 1 43 C5.96448081 31.71959638 8.00082917 20.09427457 10 8 C13 9 13 9 14.125 11.234375 C14.9732564 13.91547113 15.54590949 16.47680438 16 19.25 C16.55691755 22.61139523 17.20959123 25.91592191 17.9921875 29.23046875 C19.10028093 34.14493507 19.65081285 39.0524407 20.125 44.0625 C20.21136719 44.92810547 20.29773438 45.79371094 20.38671875 46.68554688 C20.59599029 48.78988844 20.79869668 50.89488124 21 53 C16.94553527 54.86847466 13.30414812 55.44202262 8.87109375 55.8515625 C8.19957779 55.91532074 7.52806183 55.97907898 6.8361969 56.04476929 C4.70388574 56.24523756 2.57076945 56.43503319 0.4375 56.625 C-0.99941013 56.759766 -2.43625998 56.89517639 -3.87304688 57.03125 C-14.27852331 58 -14.27852331 58 -19 58 C-21 52 -23 46 -25 40 C-20.57676318 40.58265272 -17.4844136 42.26766211 -13.6875 44.5625 C-12.08455078 45.52349609 -12.08455078 45.52349609 -10.44921875 46.50390625 C-9.64097656 46.99761719 -8.83273438 47.49132812 -8 48 C-8.5775 47.44570313 -9.155 46.89140625 -9.75 46.3203125 C-10.4925 45.59585938 -11.235 44.87140625 -12 44.125 C-12.7425 43.40570313 -13.485 42.68640625 -14.25 41.9453125 C-16 40 -16 40 -16 38 C-12.535 37.505 -12.535 37.505 -9 37 C-9 33.37 -9 29.74 -9 26 C-12.96 26 -16.92 26 -21 26 C-20.360625 25.360625 -19.72125 24.72125 -19.0625 24.0625 C-18.60746094 23.60101563 -18.15242188 23.13953125 -17.68359375 22.6640625 C-16.45077091 21.44554155 -15.18842861 20.25669163 -13.91015625 19.0859375 C-7.85911555 13.39692488 -3.85853323 7.33245383 0 0 Z " fill="#F8F7F6" transform="translate(146,274)"/>
<path d="M0 0 C3.22346134 1.48946145 5.95092264 3.34201422 8.8125 5.4375 C12.77123096 8.25259757 16.45349026 10.31976814 21 12 C18.66785852 13.20628008 16.50357861 14.1654738 14 15 C13.91840426 19.16138263 14.01751476 22.9472484 15 27 C18.3 27 21.6 27 25 27 C24.01 30.3 23.02 33.6 22 37 C22.53625 36.13375 23.0725 35.2675 23.625 34.375 C26.02957819 30.76813271 28.79927211 27.92240372 32 25 C32.66 25 33.32 25 34 25 C33.40400338 29.33393193 32.37617841 33.12720011 30.75 37.1875 C30.35296875 38.21230469 29.9559375 39.23710937 29.546875 40.29296875 C27.30338713 44.21907252 24.49225069 45.56527542 20.20092773 46.81542969 C19.20520752 47.01555664 18.2094873 47.21568359 17.18359375 47.421875 C16.08982422 47.64230469 14.99605469 47.86273438 13.86914062 48.08984375 C12.73669922 48.30769531 11.60425781 48.52554688 10.4375 48.75 C8.73303711 49.09998047 8.73303711 49.09998047 6.99414062 49.45703125 C-2.54462619 51.33664666 -2.54462619 51.33664666 -6 50 C-10.97442222 42.77906452 -9.60454697 29.29971268 -9 21 C-7.98828125 18.0859375 -7.98828125 18.0859375 -7 16 C-2.97290947 17.34236351 -2.2724168 19.81373309 -0.4375 23.375 C3.3396944 30.36650218 8.67882883 39.33941442 16 43 C15.35933594 42.175 14.71867187 41.35 14.05859375 40.5 C5.62474202 29.36051896 -2.12323031 17.63900292 -1.34375 3.16015625 C-1 1 -1 1 0 0 Z " fill="#F8F7F5" transform="translate(77,290)"/>
<path d="M0 0 C0.60199219 0.433125 1.20398438 0.86625 1.82421875 1.3125 C2.47777344 1.76625 3.13132813 2.22 3.8046875 2.6875 C12.86312642 9.69596338 17.83328087 20.27184451 19.82421875 31.3125 C20.32953125 31.79275635 20.83484375 32.2730127 21.35546875 32.76782227 C22.82421875 34.3125 22.82421875 34.3125 23.1171875 36.42553711 C23.08238281 37.2222583 23.04757813 38.01897949 23.01171875 38.83984375 C22.98851562 39.71447266 22.9653125 40.58910156 22.94140625 41.49023438 C22.86344682 43.32617891 22.78532253 45.16211646 22.70703125 46.99804688 C22.68382812 47.87396484 22.660625 48.74988281 22.63671875 49.65234375 C22.60191406 50.45019287 22.56710938 51.24804199 22.53125 52.07006836 C22.89799354 54.87718455 24.08295789 56.12811653 25.82421875 58.3125 C26.63424648 64.97563135 26.53669969 72.11254356 23.82421875 78.3125 C21.61825625 80.84935688 19.83445431 82.80738222 16.82421875 84.3125 C17.04078125 83.66925781 17.25734375 83.02601563 17.48046875 82.36328125 C19.78573908 74.88182522 20.15886977 68.10862941 19.82421875 60.3125 C17.84421875 59.8175 17.84421875 59.8175 15.82421875 59.3125 C16.00984375 60.42625 16.19546875 61.54 16.38671875 62.6875 C16.82421875 66.3125 16.82421875 66.3125 15.82421875 68.3125 C15.16421875 68.3125 14.50421875 68.3125 13.82421875 68.3125 C13.49421875 64.6825 13.16421875 61.0525 12.82421875 57.3125 C9.85421875 58.3025 9.85421875 58.3025 6.82421875 59.3125 C6.72625 60.18132812 6.62828125 61.05015625 6.52734375 61.9453125 C4.97483584 73.91033036 4.97483584 73.91033036 0.82421875 78.3125 C-0.16578125 78.3125 -1.15578125 78.3125 -2.17578125 78.3125 C-1.88703125 77.77625 -1.59828125 77.24 -1.30078125 76.6875 C-0.00866317 73.95969516 0.90980467 71.18637282 1.82421875 68.3125 C0.17421875 68.3125 -1.47578125 68.3125 -3.17578125 68.3125 C-3.50578125 67.3225 -3.83578125 66.3325 -4.17578125 65.3125 C-3.51578125 65.3125 -2.85578125 65.3125 -2.17578125 65.3125 C-2.17578125 64.6525 -2.17578125 63.9925 -2.17578125 63.3125 C-5.79775319 61.82109979 -9.45144743 60.5250738 -13.17578125 59.3125 C-13.17578125 58.9825 -13.17578125 58.6525 -13.17578125 58.3125 C-10.86578125 57.9825 -8.55578125 57.6525 -6.17578125 57.3125 C-6.17578125 57.9725 -6.17578125 58.6325 -6.17578125 59.3125 C-5.00015625 59.5290625 -5.00015625 59.5290625 -3.80078125 59.75 C-1.17578125 60.3125 -1.17578125 60.3125 0.82421875 61.3125 C0.82421875 59.6625 0.82421875 58.0125 0.82421875 56.3125 C0.16421875 56.3125 -0.49578125 56.3125 -1.17578125 56.3125 C-1.17578125 55.3225 -1.17578125 54.3325 -1.17578125 53.3125 C3.11421875 53.3125 7.40421875 53.3125 11.82421875 53.3125 C9.84873385 47.57367987 9.84873385 47.57367987 6.69921875 42.4375 C4.13849522 38.16962745 4.01783488 34.2109882 3.82421875 29.3125 C7.04933372 32.25140347 8.97197532 35.12315359 10.94921875 39 C12.67520546 42.85609693 12.67520546 42.85609693 15.82421875 45.3125 C14.67413586 31.78615198 12.27688456 19.69956726 2.82421875 9.3125 C2.21191406 8.63445312 1.59960938 7.95640625 0.96875 7.2578125 C-7.18566109 -0.85070134 -18.88539058 -5.51770442 -30.37988281 -5.7277832 C-33.56897425 -5.71019874 -36.7553669 -5.64424119 -39.94335938 -5.56054688 C-42.02105616 -5.53113735 -44.09963817 -5.60195039 -46.17578125 -5.6875 C-46.83578125 -6.3475 -47.49578125 -7.0075 -48.17578125 -7.6875 C-48.17578125 -8.0175 -48.17578125 -8.3475 -48.17578125 -8.6875 C-49.49578125 -9.0175 -50.81578125 -9.3475 -52.17578125 -9.6875 C-33.60943948 -14.63852447 -15.85064427 -10.6335559 0 0 Z " fill="#2B200A" transform="translate(132.17578125,152.6875)"/>
<path d="M0 0 C2.0625 1 2.0625 1 4.375 3.375 C7.525038 6.4517813 9.98052451 7.47926403 14.0625 9 C14.25662181 10.47831221 14.44262131 11.95769316 14.625 13.4375 C14.78162109 14.67306641 14.78162109 14.67306641 14.94140625 15.93359375 C15.00134766 16.95646484 15.00134766 16.95646484 15.0625 18 C14.5675 18.495 14.5675 18.495 14.0625 19 C13.67101239 20.51165654 13.32277543 22.03469632 13 23.5625 C12.82339844 24.38878906 12.64679688 25.21507812 12.46484375 26.06640625 C12.33207031 26.70449219 12.19929688 27.34257812 12.0625 28 C11.4025 28 10.7425 28 10.0625 28 C9.4025 25.69 8.7425 23.38 8.0625 21 C6.21524948 20.30840599 6.21524948 20.30840599 4.0625 20 C3.0725 20.66 2.0825 21.32 1.0625 22 C-1.19921875 22.4140625 -1.19921875 22.4140625 -3.625 22.625 C-4.43324219 22.69976562 -5.24148437 22.77453125 -6.07421875 22.8515625 C-6.99654297 22.92503906 -6.99654297 22.92503906 -7.9375 23 C-7.9375 22.67 -7.9375 22.34 -7.9375 22 C-10.9075 21.67 -13.8775 21.34 -16.9375 21 C-17.2675 19.68 -17.5975 18.36 -17.9375 17 C-17.2775 17 -16.6175 17 -15.9375 17 C-15.9375 16.01 -15.9375 15.02 -15.9375 14 C-16.60136719 14.144375 -17.26523438 14.28875 -17.94921875 14.4375 C-18.83222656 14.623125 -19.71523437 14.80875 -20.625 15 C-21.93017578 15.2784375 -21.93017578 15.2784375 -23.26171875 15.5625 C-25.87462964 15.98972047 -28.29563038 16.07616201 -30.9375 16 C-30.9375 13 -30.9375 13 -28.5 10.375 C-27.654375 9.59125 -26.80875 8.8075 -25.9375 8 C-25.6075 7.67 -25.2775 7.34 -24.9375 7 C-21.81023894 7.04149562 -18.69478715 7.12744535 -15.57226562 7.30273438 C-12.09144369 7.39460358 -10.33686792 7.32187862 -7.58203125 5.1015625 C-7.03933594 4.40804687 -6.49664062 3.71453125 -5.9375 3 C-2.62715517 0 -2.62715517 0 0 0 Z " fill="#2B210D" transform="translate(118.9375,242)"/>
<path d="M0 0 C2.25 0 2.25 0 5 1 C8.22496317 6.24056515 10.20258961 11.98934162 12.3671875 17.734375 C14.58567847 23.58178828 16.92650782 29.38123697 19.25 35.1875 C19.69875488 36.31148193 20.14750977 37.43546387 20.60986328 38.59350586 C21.03251465 39.64932861 21.45516602 40.70515137 21.890625 41.79296875 C22.46345215 43.22419067 22.46345215 43.22419067 23.04785156 44.68432617 C23.95510242 46.97143662 23.95510242 46.97143662 25 49 C24.89086161 50.71245072 24.70338397 52.42022612 24.4765625 54.12109375 C24.3425 55.13880859 24.2084375 56.15652344 24.0703125 57.20507812 C23.92335937 58.27177734 23.77640625 59.33847656 23.625 60.4375 C23.48578125 61.50033203 23.3465625 62.56316406 23.203125 63.65820312 C22.14145999 71.57562004 22.14145999 71.57562004 21 75 C19.515 74.505 19.515 74.505 18 74 C17.21630859 72.26928711 17.21630859 72.26928711 16.6484375 70.02734375 C16.43703125 69.20943359 16.225625 68.39152344 16.0078125 67.54882812 C15.79898438 66.68708984 15.59015625 65.82535156 15.375 64.9375 C15.1584375 64.10283203 14.941875 63.26816406 14.71875 62.40820312 C13.42418334 57.28187898 12.54708837 52.25812715 12 47 C13.98 47 15.96 47 18 47 C18 46.34 18 45.68 18 45 C15.69 44.67 13.38 44.34 11 44 C9.1419973 38.94164904 8.15706874 33.90297596 7.1875 28.625 C5.648157 20.53224042 3.56588416 12.79866462 0.953125 4.9921875 C0 2 0 2 0 0 Z " fill="#C11531" transform="translate(163,283)"/>
<path d="M0 0 C2.3125 0 2.3125 0 5 1 C8.09584765 7.70766991 9.31810166 14.7765272 10.6875 22 C10.91244141 23.15628906 11.13738281 24.31257813 11.36914062 25.50390625 C11.91894319 28.33480455 12.46238747 31.166766 13 34 C15.31 34.66 17.62 35.32 20 36 C20 36.66 20 37.32 20 38 C14.06 38.495 14.06 38.495 8 39 C8.54140625 41.42085938 8.54140625 41.42085938 9.09375 43.890625 C9.56271971 46.01036807 10.03145765 48.13016243 10.5 50.25 C10.73847656 51.31347656 10.97695312 52.37695312 11.22265625 53.47265625 C11.56103516 55.00986328 11.56103516 55.00986328 11.90625 56.578125 C12.11572266 57.52075195 12.32519531 58.46337891 12.54101562 59.43457031 C13 62 13 62 13 66 C10.69 66 8.38 66 6 66 C4.40141852 61.52258781 3.3368545 57.10378433 2.4375 52.4375 C2.18871094 51.15746094 1.93992188 49.87742187 1.68359375 48.55859375 C1.45800781 47.38425781 1.23242188 46.20992188 1 45 C0.66835631 43.33299629 0.33579299 41.66617285 0 40 C-6.37477818 38.7792978 -12.47847442 39.08868856 -18.9375 39.4375 C-20.53561523 39.51581055 -20.53561523 39.51581055 -22.16601562 39.59570312 C-24.77770229 39.72453072 -27.3889221 39.85945498 -30 40 C-30 39.67 -30 39.34 -30 39 C-29.08186523 38.91435791 -28.16373047 38.82871582 -27.21777344 38.74047852 C-23.80330799 38.42050741 -20.38912624 38.09777984 -16.97509766 37.77319336 C-15.49896465 37.63341908 -14.02272786 37.49473622 -12.54638672 37.35717773 C-10.42126527 37.15897617 -8.29655105 36.95681999 -6.171875 36.75390625 C-4.8940918 36.63345947 -3.61630859 36.5130127 -2.29980469 36.38891602 C0.24138986 36.08941003 2.55279724 35.71421667 5 35 C4.55098602 31.14468857 4.08911821 27.29101993 3.625 23.4375 C3.49867188 22.35146484 3.37234375 21.26542969 3.2421875 20.14648438 C2.45280984 13.48409185 2.45280984 13.48409185 0.8984375 6.97265625 C0 4 0 4 0 0 Z " fill="#332510" transform="translate(161,292)"/>
<path d="M0 0 C0 0.99 0 1.98 0 3 C1.32 2.01 2.64 1.02 4 0 C4.268125 1.19625 4.53625 2.3925 4.8125 3.625 C6.24327708 9.27807028 7.86485256 13.81266711 13 17 C11.35 16.67 9.7 16.34 8 16 C8.226875 17.051875 8.45375 18.10375 8.6875 19.1875 C9.04265801 23.52042774 8.37567476 24.52785997 6 28 C5.29329272 30.69254991 5.29329272 30.69254991 5 33 C0.33811939 32.52207339 -1.87180734 30.72323415 -5.25 27.5625 C-6.12140625 26.75941406 -6.9928125 25.95632813 -7.890625 25.12890625 C-10.02035063 22.97946094 -10.94063314 22.03081298 -11.11352539 19.02880859 C-11.10828857 18.24328613 -11.10305176 17.45776367 -11.09765625 16.6484375 C-11.09443359 15.79765625 -11.09121094 14.946875 -11.08789062 14.0703125 C-11.07951172 13.18085938 -11.07113281 12.29140625 -11.0625 11.375 C-11.05798828 10.4778125 -11.05347656 9.580625 -11.04882812 8.65625 C-11.03702591 6.43743352 -11.02056155 4.21874982 -11 2 C-8.525 3.485 -8.525 3.485 -6 5 C-6 3.68 -6 2.36 -6 1 C-3.92446352 0.4465236 -2.15634036 0 0 0 Z " fill="#FBFAFA" transform="translate(113,271)"/>
<path d="M0 0 C0 0.66 0 1.32 0 2 C0.99 2.33 1.98 2.66 3 3 C2.60161223 7.3822655 0.8375723 9.90741929 -1.74609375 13.30078125 C-3.13560887 15.09837216 -3.13560887 15.09837216 -4.4375 17.6875 C-6.53473616 20.79140951 -8.68996767 22.27878319 -12 24 C-14.5625 24.125 -14.5625 24.125 -17 23 C-18.98706172 21.11665854 -20.38823265 19.25647429 -22 17 C-22 16.34 -22 15.68 -22 15 C-20.35 15 -18.7 15 -17 15 C-17.763125 14.236875 -18.52625 13.47375 -19.3125 12.6875 C-21.20833333 10.79166667 -23.10416667 8.89583333 -25 7 C-24.67 6.01 -24.34 5.02 -24 4 C-21.69 4.33 -19.38 4.66 -17 5 C-16.690625 4.360625 -16.38125 3.72125 -16.0625 3.0625 C-15 1 -15 1 -14 0 C-12.02715358 -0.26149658 -10.04574333 -0.45992624 -8.0625 -0.625 C-6.98097656 -0.72039062 -5.89945313 -0.81578125 -4.78515625 -0.9140625 C-2 -1 -2 -1 0 0 Z " fill="#FAEDDD" transform="translate(90,225)"/>
<path d="M0 0 C0 0.66 0 1.32 0 2 C-0.886875 2.53625 -1.77375 3.0725 -2.6875 3.625 C-8.49165937 7.29366677 -11.07926476 14.02576884 -14 20 C-14.53625 20.86625 -15.0725 21.7325 -15.625 22.625 C-17.64038524 26.10611995 -18.12786923 29.12126217 -18.09765625 33.109375 C-18.09443359 33.86347656 -18.09121094 34.61757812 -18.08789062 35.39453125 C-18.07951172 36.17183594 -18.07113281 36.94914062 -18.0625 37.75 C-18.05798828 38.54277344 -18.05347656 39.33554688 -18.04882812 40.15234375 C-18.03708565 42.10159508 -18.01915146 44.05080738 -18 46 C-20.475 46.495 -20.475 46.495 -23 47 C-24.64828333 40.05480615 -25.3109667 33.33247537 -25.55859375 26.19921875 C-26.0360833 22.73847588 -27.12931423 20.89831581 -29 18 C-29 17.01 -29 16.02 -29 15 C-28.48953125 14.81566406 -27.9790625 14.63132813 -27.453125 14.44140625 C-21.1050649 11.90893547 -16.12851442 8.26900222 -10.796875 4.0234375 C-7.17973081 1.40656503 -4.48346897 0 0 0 Z " fill="#F4F4F3" transform="translate(72,172)"/>
<path d="M0 0 C2.93906252 1.42500001 4.79398414 3.67477125 7.0625 6 C9.22870544 7.29519995 9.22870544 7.29519995 11.0625 8 C10.7325 8.99 10.4025 9.98 10.0625 11 C9.1195105 11.06731323 9.1195105 11.06731323 8.1574707 11.13598633 C-7.79002257 12.23357782 -7.79002257 12.23357782 -23.4140625 15.4140625 C-26.007912 16.01634954 -28.28456489 16.10535121 -30.9375 16 C-30.9375 13 -30.9375 13 -28.5 10.375 C-27.654375 9.59125 -26.80875 8.8075 -25.9375 8 C-25.6075 7.67 -25.2775 7.34 -24.9375 7 C-21.81023894 7.04149562 -18.69478715 7.12744535 -15.57226562 7.30273438 C-12.09144369 7.39460358 -10.33686792 7.32187862 -7.58203125 5.1015625 C-7.03933594 4.40804687 -6.49664062 3.71453125 -5.9375 3 C-2.62715517 0 -2.62715517 0 0 0 Z " fill="#F8F7F7" transform="translate(118.9375,242)"/>
<path d="M0 0 C4.34326067 2.36905127 4.34326067 2.36905127 6 5 C6.78977085 8.49191542 6.77890306 11.5067378 6 15 C3.41960031 18.20595113 1.46937188 18.85492142 -2.4375 20.0625 C-7.3672532 19.9760131 -8.6055738 18.47524587 -12 15 C-13.55024464 11.89951072 -13.28992015 9.42105782 -13 6 C-9.33404658 0.37887142 -6.67491925 -0.66749193 0 0 Z M-5 3 C-1 4 -1 4 -1 4 Z M1 5 C0.32326553 8.40320934 0.32326553 8.40320934 0 12 C0.66 12.66 1.32 13.32 2 14 C3.41577477 12.81575674 3.41577477 12.81575674 3.0625 9.4375 C3.041875 8.303125 3.02125 7.16875 3 6 C2.34 5.67 1.68 5.34 1 5 Z M-9 6 C-9.67801034 8.90073181 -9.67801034 8.90073181 -10 12 C-9.34 12.66 -8.68 13.32 -8 14 C-8 11.36 -8 8.72 -8 6 C-8.33 6 -8.66 6 -9 6 Z M-5 12 C-5.33 13.32 -5.66 14.64 -6 16 C-4.02 16 -2.04 16 0 16 C-1.36323743 13.9600281 -1.36323743 13.9600281 -3 12 C-3.66 12 -4.32 12 -5 12 Z " fill="#C52133" transform="translate(494,218)"/>
<path d="M0 0 C-1.77175844 5.56838366 -1.77175844 5.56838366 -3.00390625 7.8984375 C-6.83126427 15.97341245 -6.514986 26.25698454 -7 35 C-6.34 35.33 -5.68 35.66 -5 36 C-9.95 36.495 -9.95 36.495 -15 37 C-15.2517912 31.46059365 -15.2517912 31.46059365 -14.0390625 29.2421875 C-12.60763002 26.15330689 -12.54184049 23.25896002 -12.25 19.875 C-11.49562345 12.90062333 -9.50487242 7.44482036 -5 2 C-2 0 -2 0 0 0 Z " fill="#EED1B4" transform="translate(77,176)"/>
<path d="M0 0 C4.29 0 8.58 0 13 0 C15.46412013 8.28840407 16.93566372 16.42270175 18 25 C15.03 25 12.06 25 9 25 C8.49521191 21.93821983 7.99601107 18.87570351 7.5 15.8125 C7.35691406 14.94818359 7.21382812 14.08386719 7.06640625 13.19335938 C6.40685738 9.09473423 5.79290734 5.16773976 6 1 C4.02 1 2.04 1 0 1 C0 0.67 0 0.34 0 0 Z " fill="#C31835" transform="translate(142,333)"/>
<path d="M0 0 C1.32 0 2.64 0 4 0 C4.29258879 5.36412775 3.76493978 9.22583128 1.9296875 14.2421875 C0.72128133 17.8267873 -0.2079084 21.45663361 -1.125 25.125 C-1.29547852 25.79402344 -1.46595703 26.46304687 -1.64160156 27.15234375 C-2.70183951 31.4270208 -3.44496002 35.63897155 -4 40 C-5.65 40 -7.3 40 -9 40 C-8.32450777 32.23600908 -6.77214023 24.78453441 -5.0625 17.1875 C-4.79759766 15.97384766 -4.53269531 14.76019531 -4.25976562 13.50976562 C-4.00001953 12.34509766 -3.74027344 11.18042969 -3.47265625 9.98046875 C-3.23812744 8.92754639 -3.00359863 7.87462402 -2.76196289 6.78979492 C-2.08044033 4.29451831 -1.25614677 2.24985041 0 0 Z " fill="#F1D5B8" transform="translate(44,318)"/>
<path d="M0 0 C-0.99 0 -1.98 0 -3 0 C-2.84853516 0.67579102 -2.69707031 1.35158203 -2.54101562 2.04785156 C-1.85631025 5.11427823 -1.17808935 8.18210384 -0.5 11.25 C-0.26152344 12.31347656 -0.02304688 13.37695312 0.22265625 14.47265625 C0.44824219 15.49746094 0.67382812 16.52226562 0.90625 17.578125 C1.11572266 18.52075195 1.32519531 19.46337891 1.54101562 20.43457031 C2 23 2 23 2 27 C-0.31 27 -2.62 27 -5 27 C-6.59858148 22.52258781 -7.6631455 18.10378433 -8.5625 13.4375 C-8.81128906 12.15746094 -9.06007812 10.87742187 -9.31640625 9.55859375 C-9.54199219 8.38425781 -9.76757812 7.20992188 -10 6 C-10.33164369 4.33299629 -10.66420701 2.66617285 -11 1 C-11.99 0.67 -12.98 0.34 -14 0 C-12.41773035 -0.19627391 -10.83410729 -0.38165538 -9.25 -0.5625 C-8.36828125 -0.66691406 -7.4865625 -0.77132813 -6.578125 -0.87890625 C-4.11567549 -0.99456676 -2.33461936 -0.73638695 0 0 Z " fill="#C01F38" transform="translate(172,331)"/>
<path d="M0 0 C1.32 0 2.64 0 4 0 C4.31453125 1.03640625 4.6290625 2.0728125 4.953125 3.140625 C5.38476767 4.51062131 5.8170956 5.88040186 6.25 7.25 C6.45496094 7.93191406 6.65992187 8.61382812 6.87109375 9.31640625 C8.21078381 13.49786309 9.60606157 16.18622198 13 19 C13.33 18.01 13.66 17.02 14 16 C14.66 16 15.32 16 16 16 C19 22.625 19 22.625 19 26 C14.8375283 26.62437075 12.38869119 25.94495012 9 23.625 C3.55896535 19.20742292 -0.7133135 13.04314403 -2 6.0625 C-2 3 -2 3 0 0 Z " fill="#E9CDB1" transform="translate(76,256)"/>
<path d="M0 0 C3 1 3 1 4.125 3.234375 C4.9732564 5.91547113 5.54590949 8.47680438 6 11.25 C6.55691755 14.61139523 7.20959123 17.91592191 7.9921875 21.23046875 C9.10028093 26.14493507 9.65081285 31.0524407 10.125 36.0625 C10.21136719 36.92810547 10.29773438 37.79371094 10.38671875 38.68554688 C10.59599029 40.78988844 10.79869668 42.89488124 11 45 C7.44357039 46.51820693 4.88653827 47.2220879 1 47 C2.98 46.505 2.98 46.505 5 46 C4.61825147 32.29522783 2.60766703 18.96854889 0.35131836 5.45751953 C0 3 0 3 0 0 Z " fill="#EED3B7" transform="translate(156,282)"/>
<path d="M0 0 C0 0.66 0 1.32 0 2 C-4.74102159 3.30378094 -7.45638438 2.75230094 -11.77734375 0.7890625 C-18.5331217 -1.60929804 -25.71943371 -1.05808169 -32.76757812 -0.87304688 C-34.84527491 -0.84363735 -36.92385692 -0.91445039 -39 -1 C-39.66 -1.66 -40.32 -2.32 -41 -3 C-41 -3.33 -41 -3.66 -41 -4 C-42.32 -4.33 -43.64 -4.66 -45 -5 C-29.24153392 -9.20225762 -14.63375548 -6.79795024 0 0 Z " fill="#2E2513" transform="translate(125,148)"/>
<path d="M0 0 C10.27298542 5.79404002 16.5497999 14.01336996 21.3125 24.625 C20.05708443 27.13583114 18.81186512 27.49625446 16.3125 28.625 C15.91160156 27.71878906 15.51070312 26.81257813 15.09765625 25.87890625 C9.85820385 14.48000187 3.38647418 6.86669454 -7.6875 0.625 C-4.27693793 -1.46801602 -4.05857256 -1.51336604 0 0 Z " fill="#291D09" transform="translate(128.6875,150.375)"/>
<path d="M0 0 C4.01220991 1.3374033 4.68216813 3.76193023 6.5 7.3125 C10.60016215 14.9528118 15.9106128 20.88822534 22 27 C21.67 27.66 21.34 28.32 21 29 C14.35751044 28.38740151 10.46051974 23.36402953 6.28759766 18.60986328 C3.04746469 14.55877553 0.50680584 9.96108715 -1 5 C-0.640625 2.1484375 -0.640625 2.1484375 0 0 Z " fill="#EFD2B5" transform="translate(70,306)"/>
<path d="M0 0 C4.29 0 8.58 0 13 0 C9.23312136 1.88343932 7.97041037 2.22057835 4 2 C4.33 2.99 4.66 3.98 5 5 C5.66 5.33 6.32 5.66 7 6 C7.40303244 12.44851898 6.69090653 17.10070492 4 23 C3.34 23.66 2.68 24.32 2 25 C1.01 25 0.02 25 -1 25 C-0.71125 24.46375 -0.4225 23.9275 -0.125 23.375 C1.16711808 20.64719516 2.08558592 17.87387282 3 15 C1.35 15 -0.3 15 -2 15 C-2.33 14.01 -2.66 13.02 -3 12 C-2.34 12 -1.68 12 -1 12 C-1 11.34 -1 10.68 -1 10 C-4.62197194 8.50859979 -8.27566618 7.2125738 -12 6 C-12 5.67 -12 5.34 -12 5 C-8.535 4.505 -8.535 4.505 -5 4 C-5 4.66 -5 5.32 -5 6 C-3.824375 6.2165625 -3.824375 6.2165625 -2.625 6.4375 C0 7 0 7 2 8 C2 6.35 2 4.7 2 3 C1.34 3 0.68 3 0 3 C0 2.01 0 1.02 0 0 Z " fill="#291F0C" transform="translate(131,206)"/>
<path d="M0 0 C3.22346134 1.48946145 5.95092264 3.34201422 8.8125 5.4375 C12.77123096 8.25259757 16.45349026 10.31976814 21 12 C18.47100554 13.71971623 16.90275081 14.00190685 13.8125 14.0625 C8.53851606 12.5927012 5.0853223 9.54802368 1 6 C0.67 8.31 0.34 10.62 0 13 C-0.33 13 -0.66 13 -1 13 C-1.02686553 11.02090602 -1.04633375 9.04171029 -1.0625 7.0625 C-1.07410156 5.96035156 -1.08570312 4.85820312 -1.09765625 3.72265625 C-1 1 -1 1 0 0 Z " fill="#E5CCB0" transform="translate(77,290)"/>
<path d="M0 0 C0.94230469 0.76957031 1.88460937 1.53914062 2.85546875 2.33203125 C3.81066406 3.08871094 4.76585937 3.84539062 5.75 4.625 C8.43928664 7.58000832 8.84404127 9.20262622 9.04296875 13.14453125 C8.77853335 15.48667332 8.46052237 17.82478891 8.04296875 20.14453125 C7.71296875 20.14453125 7.38296875 20.14453125 7.04296875 20.14453125 C7.06359375 19.56445312 7.08421875 18.984375 7.10546875 18.38671875 C6.98023561 13.44142895 6.98023561 13.44142895 4.40625 9.38671875 C2.33505924 7.8796809 0.20673235 6.51425316 -1.95703125 5.14453125 C-3.05579165 4.2251603 -4.14092343 3.28907434 -5.20703125 2.33203125 C-7.64762394 0.3906507 -8.92111876 -0.50517115 -11.95703125 -0.85546875 C-12.28703125 -0.19546875 -12.61703125 0.46453125 -12.95703125 1.14453125 C-12.95703125 0.15453125 -12.95703125 -0.83546875 -12.95703125 -1.85546875 C-8.12992371 -3.52639059 -4.27713232 -2.68380166 0 0 Z " fill="#ECD0B4" transform="translate(127.95703125,235.85546875)"/>
<path d="M0 0 C0.33 0 0.66 0 1 0 C1.28875 1.093125 1.5775 2.18625 1.875 3.3125 C2.81893204 7.04013845 2.81893204 7.04013845 5 10 C5.61892614 16.7353727 5.73872786 23.74005061 3 30 C0.7940375 32.53685688 -0.98976444 34.49488222 -4 36 C-3.55005243 34.20620902 -3.08975857 32.41501072 -2.625 30.625 C-2.36976563 29.62726563 -2.11453125 28.62953125 -1.8515625 27.6015625 C-1 25 -1 25 1 23 C1.33 23 1.66 23 2 23 C2.08126087 20.91731407 2.13930839 18.83371342 2.1875 16.75 C2.22230469 15.58984375 2.25710937 14.4296875 2.29296875 13.234375 C1.97229572 9.69414478 1.19443792 8.6613396 -1 6 C-0.6875 2.75 -0.6875 2.75 0 0 Z " fill="#331A06" transform="translate(153,201)"/>
<path d="M0 0 C0.66 0 1.32 0 2 0 C3.7265625 1.96875 3.7265625 1.96875 5.625 4.5 C6.25664063 5.3353125 6.88828125 6.170625 7.5390625 7.03125 C8.02117187 7.6809375 8.50328125 8.330625 9 9 C7.6484375 10.49609375 7.6484375 10.49609375 6 12 C3.17161529 12.07443118 1.64308188 11.60277974 -0.43359375 9.65625 C-4 5.53417139 -4 5.53417139 -4 3 C-2.35 3 -0.7 3 1 3 C0.67 2.01 0.34 1.02 0 0 Z " fill="#E4C9AD" transform="translate(72,237)"/>
<path d="M0 0 C0 0.33 0 0.66 0 1 C-7.01342434 2.44766074 -13.905518 3.32355084 -21.0546875 3.75390625 C-23.97856981 3.93422711 -23.97856981 3.93422711 -26.70703125 4.5859375 C-29.67418531 5.12174385 -31.33354035 4.29513754 -34 3 C-34 2.67 -34 2.34 -34 2 C-10.21122564 -0.38776806 -10.21122564 -0.38776806 0 0 Z M-39 3 C-37.35 3 -35.7 3 -34 3 C-34 3.33 -34 3.66 -34 4 C-35.65 4 -37.3 4 -39 4 C-39 3.67 -39 3.34 -39 3 Z " fill="#1E1302" transform="translate(166,330)"/>
<path d="M0 0 C0.66 0 1.32 0 2 0 C1.41164143 4.41599467 0.29784101 8.15109365 -1.4375 12.25 C-1.86933594 13.28640625 -2.30117187 14.3228125 -2.74609375 15.390625 C-4 18 -4 18 -6 20 C-6.99 20 -7.98 20 -9 20 C-6.93145788 13.04217652 -4.0317708 6.0476562 0 0 Z " fill="#EBD0B3" transform="translate(109,315)"/>
<path d="M0 0 C1.33203125 1.9765625 1.33203125 1.9765625 2.8125 4.625 C4.64819307 7.80927349 6.45641414 10.72999568 8.875 13.5 C11 16 11 16 11 18 C7.24303998 16.46462136 5.06466965 14.18751615 2.375 11.1875 C1.59898438 10.33542969 0.82296875 9.48335938 0.0234375 8.60546875 C-1.91834648 6.10514074 -3.00328746 3.98477894 -4 1 C-2 0 -2 0 0 0 Z " fill="#2C2110" transform="translate(82,315)"/>
<path d="M0 0 C4.6182583 0.54792895 7.98149647 2.58964488 11.8125 5.0625 C12.40998047 5.43955078 13.00746094 5.81660156 13.62304688 6.20507812 C15.08636577 7.12989566 16.54379523 8.06402065 18 9 C17.34 9.66 16.68 10.32 16 11 C12.1341337 10.66975011 9.50173573 9.32629137 6.3125 7.1875 C5.54550781 6.68605469 4.77851562 6.18460937 3.98828125 5.66796875 C1.89520929 3.91209109 1.01746202 2.50828873 0 0 Z " fill="#EACFB4" transform="translate(121,314)"/>
<path d="M0 0 C0.33 0 0.66 0 1 0 C1.04898438 1.01320312 1.09796875 2.02640625 1.1484375 3.0703125 C1.22352564 4.42189911 1.29907081 5.77346038 1.375 7.125 C1.4059375 7.79015625 1.436875 8.4553125 1.46875 9.140625 C1.71919633 13.39821262 2.47528197 17.02085783 4 21 C3.360625 21.28875 2.72125 21.5775 2.0625 21.875 C-0.15206079 22.82823451 -0.15206079 22.82823451 -1 25 C-2.9375 24.25 -2.9375 24.25 -5 23 C-5.75 20.875 -5.75 20.875 -6 19 C-5.01 18.67 -4.02 18.34 -3 18 C-3 19.32 -3 20.64 -3 22 C-2.34 22 -1.68 22 -1 22 C-0.67 14.74 -0.34 7.48 0 0 Z " fill="#907E64" transform="translate(97,220)"/>
<path d="M0 0 C0.33 0 0.66 0 1 0 C1.66 3.63 2.32 7.26 3 11 C5.97 11 8.94 11 12 11 C11 13 11 13 9 15 C6.15772455 15.49986848 3.93084925 15.2791285 1 15 C0.34 14.34 -0.32 13.68 -1 13 C-0.71979545 10.9918674 -0.37593066 8.9924325 0 7 C0.03762951 4.66697011 0.04665734 2.33286681 0 0 Z " fill="#D6BCA0" transform="translate(89,306)"/>
<path d="M0 0 C1.32 1.32 2.64 2.64 4 4 C-0.27171492 9.79732739 -0.27171492 9.79732739 -4 11 C-4.99 10.67 -5.98 10.34 -7 10 C-6.01 9.34 -5.02 8.68 -4 8 C-3.835 7.01 -3.67 6.02 -3.5 5 C-3.335 4.01 -3.17 3.02 -3 2 C-2.01 1.34 -1.02 0.68 0 0 Z " fill="#FDFBF9" transform="translate(88,226)"/>
<path d="M0 0 C-3.57469625 3.57469625 -8.02894421 3.96917283 -12.9375 4.125 C-13.948125 4.08375 -14.95875 4.0425 -16 4 C-16.33 3.01 -16.66 2.02 -17 1 C-11.33357449 -0.22517308 -5.76291482 -0.09228867 0 0 Z " fill="#E8E8E5" transform="translate(118,259)"/>
<path d="M0 0 C0.33 0 0.66 0 1 0 C1.12036664 5.77759884 0.8320582 11.27959989 0 17 C-0.33 17 -0.66 17 -1 17 C-1 15.35 -1 13.7 -1 12 C-1.99 12 -2.98 12 -4 12 C-3.53439347 7.25081338 -2.83067342 3.89217595 0 0 Z " fill="#191100" transform="translate(96,225)"/>
<path d="M0 0 C0.99 0.33 1.98 0.66 3 1 C2.00944361 8.09029841 0.53531978 13.75426838 -3 20 C-4.26338576 17.47322847 -3.85376414 16.58286386 -3.22265625 13.8671875 C-3.03896484 13.06152344 -2.85527344 12.25585938 -2.66601562 11.42578125 C-2.46685547 10.58402344 -2.26769531 9.74226563 -2.0625 8.875 C-1.76956055 7.60076172 -1.76956055 7.60076172 -1.47070312 6.30078125 C-0.98660741 4.19909742 -0.49409097 2.09935649 0 0 Z " fill="#362D1E" transform="translate(150,298)"/>
<path d="M0 0 C6.75 0.875 6.75 0.875 9 2 C10.53668865 2.22467831 12.07968054 2.40796805 13.625 2.5625 C14.44226563 2.64628906 15.25953125 2.73007812 16.1015625 2.81640625 C16.72804688 2.87699219 17.35453125 2.93757813 18 3 C17.67 3.66 17.34 4.32 17 5 C11.39 5 5.78 5 0 5 C0.66 4.67 1.32 4.34 2 4 C2 3.01 2 2.02 2 1 C1.34 0.67 0.68 0.34 0 0 Z " fill="#372E1B" transform="translate(101,255)"/>
<path d="M0 0 C0 0.33 0 0.66 0 1 C-0.62648438 1.02578125 -1.25296875 1.0515625 -1.8984375 1.078125 C-2.71570313 1.13484375 -3.53296875 1.1915625 -4.375 1.25 C-5.18710938 1.29640625 -5.99921875 1.3428125 -6.8359375 1.390625 C-9.18838927 1.7922092 -9.18838927 1.7922092 -10.2890625 4.046875 C-10.52367188 4.69140625 -10.75828125 5.3359375 -11 6 C-13.97 5.505 -13.97 5.505 -17 5 C-17 4.34 -17 3.68 -17 3 C-18.32 2.67 -19.64 2.34 -21 2 C-13.87049629 0.09879901 -7.36259293 -0.22424141 0 0 Z " fill="#615A47" transform="translate(101,141)"/>
<path d="M0 0 C4.29 0 8.58 0 13 0 C9.23312136 1.88343932 7.97041037 2.22057835 4 2 C4.33 2.99 4.66 3.98 5 5 C5.66 5.33 6.32 5.66 7 6 C6.67 6.66 6.34 7.32 6 8 C5.01 8 4.02 8 3 8 C2.67 6.35 2.34 4.7 2 3 C1.34 3 0.68 3 0 3 C0 2.01 0 1.02 0 0 Z " fill="#1E1402" transform="translate(131,206)"/>
<path d="M0 0 C1.32 0.66 2.64 1.32 4 2 C3.34 2 2.68 2 2 2 C1.34 3.32 0.68 4.64 0 6 C-9.41002278 6.3690205 -9.41002278 6.3690205 -14 4 C-14 3.67 -14 3.34 -14 3 C-7.07 3.495 -7.07 3.495 0 4 C0 2.68 0 1.36 0 0 Z " fill="#2F2618" transform="translate(109,244)"/>
<path d="M0 0 C0 0.66 0 1.32 0 2 C-1.2065625 2.433125 -1.2065625 2.433125 -2.4375 2.875 C-5.1326468 3.73262568 -5.1326468 3.73262568 -6 6 C-6 5.34 -6 4.68 -6 4 C-6.99 3.67 -7.98 3.34 -9 3 C-9 2.01 -9 1.02 -9 0 C-5.62182575 -0.84454356 -3.32534757 -1.10844919 0 0 Z " fill="#6D665A" transform="translate(144,208)"/>
<path d="M0 0 C1.29550781 0.02900391 1.29550781 0.02900391 2.6171875 0.05859375 C3.92042969 0.06052734 3.92042969 0.06052734 5.25 0.0625 C6.35988281 0.27712891 6.35988281 0.27712891 7.4921875 0.49609375 C8.1521875 1.48609375 8.8121875 2.47609375 9.4921875 3.49609375 C1.5721875 3.99109375 1.5721875 3.99109375 -6.5078125 4.49609375 C-2.5078125 0.49609375 -2.5078125 0.49609375 0 0 Z " fill="#1B1100" transform="translate(93.5078125,141.50390625)"/>
<path d="M0 0 C0.66 0 1.32 0 2 0 C1.49704947 4.40081711 0.22790113 6.9419884 -3 10 C-6.75 10.8125 -6.75 10.8125 -10 11 C-10 10.34 -10 9.68 -10 9 C-9.44570312 8.76925781 -8.89140625 8.53851563 -8.3203125 8.30078125 C-3.56768485 6.25432116 -3.56768485 6.25432116 -0.5 2.25 C-0.335 1.5075 -0.17 0.765 0 0 Z " fill="#EAD1B6" transform="translate(91,228)"/>
<path d="M0 0 C2.37002436 3.62474314 1.84379204 5.86541902 1 10 C0.96377667 11.66627298 0.95100158 13.33405374 1 15 C-0.5 13.9375 -0.5 13.9375 -2 12 C-2.42196743 7.44275172 -1.99584278 4.11642574 0 0 Z " fill="#E3C7AA" transform="translate(162,299)"/>
<path d="M0 0 C0.33 0 0.66 0 1 0 C1.04898438 1.01320312 1.09796875 2.02640625 1.1484375 3.0703125 C1.22352564 4.42189911 1.29907081 5.77346038 1.375 7.125 C1.4059375 7.79015625 1.436875 8.4553125 1.46875 9.140625 C1.71919633 13.39821262 2.47528197 17.02085783 4 21 C3.01 21 2.02 21 1 21 C0 20 0 20 -0.11352539 18.05053711 C-0.10567017 16.8015564 -0.10567017 16.8015564 -0.09765625 15.52734375 C-0.09443359 14.62822266 -0.09121094 13.72910156 -0.08789062 12.80273438 C-0.07951172 11.85720703 -0.07113281 10.91167969 -0.0625 9.9375 C-0.05798828 8.98810547 -0.05347656 8.03871094 -0.04882812 7.06054688 C-0.0370011 4.70696935 -0.02052025 2.35351523 0 0 Z " fill="#C5AD91" transform="translate(97,220)"/>
<path d="M0 0 C1.65 0.33 3.3 0.66 5 1 C3.22054913 5.04420651 0.60470327 8.46078487 -2 12 C-3 10 -3 10 -2.44140625 7.87109375 C-2.15136719 7.06800781 -1.86132812 6.26492188 -1.5625 5.4375 C-0.46855833 2.78343046 -0.46855833 2.78343046 0 0 Z " fill="#3E3626" transform="translate(101,316)"/>
<path d="M0 0 C0.66 0 1.32 0 2 0 C1.34 4.95 0.68 9.9 0 15 C-2.13853451 10.72293099 -2.3344578 8.68240915 -2 4 C-1 1.5625 -1 1.5625 0 0 Z " fill="#C51130" transform="translate(61,308)"/>
<path d="M0 0 C0.99 0 1.98 0 3 0 C3.66 3.3 4.32 6.6 5 10 C2 9 2 9 0.8125 7.25 C-0.10819096 4.70039426 -0.14948718 2.69076919 0 0 Z " fill="#EDECEA" transform="translate(52,223)"/>
<path d="M0 0 C1.65 0 3.3 0 5 0 C3.52307692 5.66153846 3.52307692 5.66153846 0.875 7.375 C-0.053125 7.684375 -0.053125 7.684375 -1 8 C-0.67 5.36 -0.34 2.72 0 0 Z " fill="#FBFAF8" transform="translate(129,222)"/>
<path d="M0 0 C1.98 0 3.96 0 6 0 C6 0.99 6 1.98 6 3 C5.38125 3.2475 4.7625 3.495 4.125 3.75 C1.64931313 5.20628639 1.04874998 6.37812506 0 9 C0 7.68 0 6.36 0 5 C-0.66 4.67 -1.32 4.34 -2 4 C-1.34 4 -0.68 4 0 4 C0 2.68 0 1.36 0 0 Z " fill="#827C6F" transform="translate(55,218)"/>
<path d="M0 0 C2.31 0 4.62 0 7 0 C7.33 1.32 7.66 2.64 8 4 C5.6875 4.6875 5.6875 4.6875 3 5 C1.1875 3.6875 1.1875 3.6875 0 2 C0 1.34 0 0.68 0 0 Z " fill="#AEAAA0" transform="translate(130,312)"/>
<path d="M0 0 C3 1 3 1 4.1875 3.3125 C5 6 5 6 5 10 C4.34 10 3.68 10 3 10 C3 9.34 3 8.68 3 8 C2.34 8 1.68 8 1 8 C0.67 5.36 0.34 2.72 0 0 Z " fill="#E6CAAD" transform="translate(156,282)"/>
<path d="M0 0 C0 0.66 0 1.32 0 2 C-1.41478135 2.64995297 -2.83191487 3.29478722 -4.25 3.9375 C-5.43335937 4.47697266 -5.43335937 4.47697266 -6.640625 5.02734375 C-8.75823698 5.90033279 -10.76669362 6.51338508 -13 7 C-5.875 -0.31756757 -5.875 -0.31756757 0 0 Z " fill="#DAC5A8" transform="translate(83,217)"/>
<path d="M0 0 C3.08089673 2.77280706 4.68775452 5.06326356 6 9 C5.34 9 4.68 9 4 9 C4 8.34 4 7.68 4 7 C3.34 7 2.68 7 2 7 C1.67 7.99 1.34 8.98 1 10 C0.67 6.7 0.34 3.4 0 0 Z " fill="#393021" transform="translate(136,182)"/>
<path d="M0 0 C-0.99 0.33 -1.98 0.66 -3 1 C-2.67 1.66 -2.34 2.32 -2 3 C-4.31 3.33 -6.62 3.66 -9 4 C-9.33 2.68 -9.66 1.36 -10 0 C-6.33694766 -0.74926071 -3.57644848 -1.2380014 0 0 Z " fill="#1F1505" transform="translate(88,144)"/>
<path d="M0 0 C0.66 0 1.32 0 2 0 C2.28571429 8.57142857 2.28571429 8.57142857 0 12 C-1.0625 10.1875 -1.0625 10.1875 -2 8 C-1.67 7.01 -1.34 6.02 -1 5 C-0.65179959 3.33637583 -0.31595508 1.67004829 0 0 Z " fill="#2F2815" transform="translate(187,319)"/>
<path d="M0 0 C2.5999298 2.51027705 4.99091227 4.9863684 7 8 C7 8.66 7 9.32 7 10 C3.21282653 8.51218185 1.22592999 6.38011591 -1 3 C-0.67 2.01 -0.34 1.02 0 0 Z " fill="#392E1F" transform="translate(86,323)"/>
<path d="M0 0 C0.33 0.66 0.66 1.32 1 2 C1.99 2 2.98 2 4 2 C2.70647196 5.88058411 0.6723379 7.9165332 -2 11 C-3 9 -3 9 -2.44140625 6.8359375 C-2.15136719 6.02382812 -1.86132812 5.21171875 -1.5625 4.375 C-1.27503906 3.55773437 -0.98757812 2.74046875 -0.69140625 1.8984375 C-0.46324219 1.27195313 -0.23507813 0.64546875 0 0 Z " fill="#3A2E1A" transform="translate(152,226)"/>
<path d="M0 0 C0.66 0 1.32 0 2 0 C2.33 3.3 2.66 6.6 3 10 C2.01 10 1.02 10 0 10 C-0.19412181 8.52168779 -0.38012131 7.04230684 -0.5625 5.5625 C-0.66691406 4.73878906 -0.77132812 3.91507812 -0.87890625 3.06640625 C-0.91886719 2.38449219 -0.95882812 1.70257813 -1 1 C-0.67 0.67 -0.34 0.34 0 0 Z " fill="#F7DBBF" transform="translate(87,307)"/>
<path d="M0 0 C2.475 0.495 2.475 0.495 5 1 C4.67 2.98 4.34 4.96 4 7 C3.01 7 2.02 7 1 7 C0.67 4.69 0.34 2.38 0 0 Z " fill="#382D15" transform="translate(161,292)"/>
<path d="M0 0 C0.33 0 0.66 0 1 0 C0.67 3.3 0.34 6.6 0 10 C-1.32 10.33 -2.64 10.66 -4 11 C-2.7874262 7.27566618 -1.49140021 3.62197194 0 0 Z " fill="#F5DBC1" transform="translate(104,324)"/>
<path d="M0 0 C7.48291572 6.15034169 7.48291572 6.15034169 10 10 C8.68 10.33 7.36 10.66 6 11 C5.938125 10.443125 5.87625 9.88625 5.8125 9.3125 C4.67380969 6.0716122 2.43109548 4.3687597 0 2 C0 1.34 0 0.68 0 0 Z " fill="#F7DBBE" transform="translate(82,324)"/>
<path d="M0 0 C4.2742558 1.5830577 6.26531794 4.50568404 9 8 C4.56541027 6.6062718 2.12621626 4.39417765 -1 1 C-0.67 0.67 -0.34 0.34 0 0 Z " fill="#1E1405" transform="translate(130,315)"/>
<path d="M0 0 C0.66 0.66 1.32 1.32 2 2 C-2.455 2.495 -2.455 2.495 -7 3 C-7.66 2.01 -8.32 1.02 -9 0 C-5.67778618 -1.10740461 -3.35896892 -0.97233311 0 0 Z " fill="#342A16" transform="translate(118,262)"/>
<path d="M0 0 C0.33 0 0.66 0 1 0 C1 2.97 1 5.94 1 9 C0.01 9.495 0.01 9.495 -1 10 C-1.66 10.99 -2.32 11.98 -3 13 C-2.88557539 11.39504433 -2.75805306 9.79101881 -2.625 8.1875 C-2.55539063 7.29417969 -2.48578125 6.40085937 -2.4140625 5.48046875 C-2 3 -2 3 0 0 Z " fill="#191400" transform="translate(147,252)"/>
<path d="M0 0 C2.64 0 5.28 0 8 0 C8 0.33 8 0.66 8 1 C5.69 1 3.38 1 1 1 C1.33 1.99 1.66 2.98 2 4 C1.01 4.66 0.02 5.32 -1 6 C-2.32 5.01 -3.64 4.02 -5 3 C-3.35 3 -1.7 3 0 3 C0 2.01 0 1.02 0 0 Z " fill="#403622" transform="translate(129,311)"/>
<path d="M0 0 C3.6875 0.3125 3.6875 0.3125 7 1 C7 1.66 7 2.32 7 3 C3.7 3 0.4 3 -3 3 C-2.01 2.01 -1.02 1.02 0 0 Z " fill="#4A1E11" transform="translate(174,327)"/>
<path d="M0 0 C3.63 0 7.26 0 11 0 C9.515 1.485 9.515 1.485 8 3 C7.01 4.485 7.01 4.485 6 6 C6 4.35 6 2.7 6 1 C4.02 1 2.04 1 0 1 C0 0.67 0 0.34 0 0 Z " fill="#A43541" transform="translate(142,333)"/>
<path d="M0 0 C0.66 0 1.32 0 2 0 C2 2.31 2 4.62 2 7 C0.68 7 -0.64 7 -2 7 C-1.34 4.69 -0.68 2.38 0 0 Z " fill="#E2E1DD" transform="translate(115,327)"/>
<path d="M0 0 C2.89932357 2.39509338 3.50168276 4.31245243 4 8 C3.34 8 2.68 8 2 8 C2 7.34 2 6.68 2 6 C1.01 5.67 0.02 5.34 -1 5 C-0.67 3.35 -0.34 1.7 0 0 Z " fill="#332A18" transform="translate(76,304)"/>
<path d="M0 0 C-1.625 1.625 -1.625 1.625 -4 3 C-7.25 2.1875 -7.25 2.1875 -10 1 C-10 0.67 -10 0.34 -10 0 C-2.25 -1.125 -2.25 -1.125 0 0 Z " fill="#FCF5E7" transform="translate(90,225)"/>
<path d="M0 0 C1.2065625 0.0309375 1.2065625 0.0309375 2.4375 0.0625 C0.81410195 1.77134005 -0.85569053 3.43696717 -2.5625 5.0625 C-3.2225 5.0625 -3.8825 5.0625 -4.5625 5.0625 C-3.43829114 0.08386076 -3.43829114 0.08386076 0 0 Z " fill="#E8CFB3" transform="translate(68.5625,217.9375)"/>
<path d="M0 0 C3.37462715 0.54723683 5.08235 1.0549 8 3 C5.69 3.66 3.38 4.32 1 5 C1.33 4.01 1.66 3.02 2 2 C1.34 2 0.68 2 0 2 C0 1.34 0 0.68 0 0 Z " fill="#3D3424" transform="translate(110,143)"/>
<path d="M0 0 C1.32 0 2.64 0 4 0 C3.67 1.65 3.34 3.3 3 5 C2.01 4.67 1.02 4.34 0 4 C0 2.68 0 1.36 0 0 Z " fill="#FCF3E7" transform="translate(148,212)"/>
<path d="M0 0 C1.875 0.1875 1.875 0.1875 4 1 C5.25 3.5625 5.25 3.5625 6 6 C5.01 6 4.02 6 3 6 C2.01 4.02 1.02 2.04 0 0 Z " fill="#2D2411" transform="translate(130,154)"/>
<path d="M0 0 C1.65 0 3.3 0 5 0 C5.33 1.32 5.66 2.64 6 4 C4.02 3.34 2.04 2.68 0 2 C0 1.34 0 0.68 0 0 Z " fill="#DDC6A9" transform="translate(127,210)"/>
</svg>
