<?xml version="1.0" encoding="UTF-8"?>
<svg version="1.1" xmlns="http://www.w3.org/2000/svg" width="2000" height="1413">
<path d="M0 0 C2.73969597 2.43788631 5.39322106 4.95509732 7.984375 7.55078125 C9.84431284 9.17786933 9.84431284 9.17786933 11.90625 9.03515625 C14.93208307 7.53917535 17.2650219 5.36701094 19.75 3.125 C45.47895672 -19.28611072 77.5806351 -34.43289891 110.75 -41.8125 C111.62301758 -42.0074707 112.49603516 -42.20244141 113.39550781 -42.40332031 C127.53326339 -45.35584606 141.65466952 -46.38564128 156.0625 -46.3125 C156.81768921 -46.31067719 157.57287842 -46.30885437 158.35095215 -46.30697632 C171.74000213 -46.25299672 184.79874589 -45.35286364 198 -43 C198.86189941 -42.84966309 199.72379883 -42.69932617 200.61181641 -42.54443359 C215.99666381 -39.75692502 230.99130722 -35.30139391 245.98266602 -30.921875 C275.95786638 -22.21049985 302.2691164 -21.72822612 333 -27 C334.34270757 -27.22711501 335.68548299 -27.4538292 337.02832031 -27.68017578 C345.35824089 -29.08614249 353.68162502 -30.52707755 362 -32 C359.60621004 -23.79802201 355.93982766 -16.26335909 352.24822998 -8.58840942 C350.33298126 -4.60112656 348.44097074 -0.60283202 346.546875 3.39453125 C345.97403275 4.60249107 345.97403275 4.60249107 345.38961792 5.83485413 C341.96603603 13.05920913 338.55595664 20.28905713 335.23529053 27.56140137 C334.66526616 28.8044953 334.09032627 30.04534783 333.51031494 31.28381348 C332.71013847 32.99443911 331.92880261 34.71384007 331.1484375 36.43359375 C330.48593994 37.87303345 330.48593994 37.87303345 329.81005859 39.34155273 C328.87653254 42.40519506 329.03803943 43.97231283 330 47 C331.34003461 49.41770455 332.71023018 51.73310905 334.1875 54.0625 C338.19701296 60.54397115 341.72832216 67.11023138 345 74 C347.46688488 71.00890208 349.16686125 67.85428569 350.90429688 64.41650391 C374.53696215 17.68827938 417.89625828 -18.37552271 467.20263672 -35.35839844 C518.47793962 -52.12008483 569.36709564 -47.51060113 620.34912109 -32.54196167 C663.06659203 -20.02331858 698.93596717 -24.18293362 742 -32 C741.36248923 -27.8305441 739.96316369 -24.46977829 738.1484375 -20.671875 C737.85733597 -20.05763672 737.56623444 -19.44339844 737.26631165 -18.81054688 C736.63627186 -17.48209219 736.00382646 -16.15477628 735.36923218 -14.82849121 C733.66527342 -11.26628172 731.97957785 -7.69544871 730.29296875 -4.125 C729.94238907 -3.38376892 729.59180939 -2.64253784 729.23060608 -1.87884521 C724.6269841 7.87588622 720.19319242 17.70783004 715.74951172 27.53613281 C715.44514694 28.20878174 715.14078217 28.88143066 714.82719421 29.57446289 C714.00574685 31.39064406 713.18580121 33.20750423 712.3659668 35.02441406 C711.55633177 36.78810159 710.71418291 38.53837249 709.80419922 40.25244141 C708.61591612 42.83463036 709.14735053 44.3319007 710 47 C711.34191428 49.4324679 711.34191428 49.4324679 713.0625 51.875 C720.95355058 63.94556407 726.75400799 76.60632665 732 90 C732.17015625 88.97003906 732.3403125 87.94007813 732.515625 86.87890625 C739.5661858 44.99787949 756.57106473 7.85188241 792.125 -17.5 C809.01904073 -28.97717381 826.92700494 -37.04469396 846.8125 -41.875 C847.59842529 -42.06610352 848.38435059 -42.25720703 849.1940918 -42.45410156 C862.39184854 -45.42801587 875.63135779 -46.38503685 889.125 -46.3125 C890.19383926 -46.30976578 890.19383926 -46.30976578 891.28427124 -46.30697632 C932.87771194 -46.12912507 973.92661584 -33.92063204 1005.23046875 -5.7890625 C1006.10638672 -4.90347656 1006.10638672 -4.90347656 1007 -4 C1007.61488281 -3.38898438 1008.22976563 -2.77796875 1008.86328125 -2.1484375 C1010 0 1010 0 1009.28759766 2.65454102 C1007.84602769 6.40005358 1006.23215355 10.04136833 1004.53515625 13.67578125 C1004.18968246 14.42237503 1003.84420868 15.16896881 1003.48826599 15.93818665 C1002.34930914 18.39767774 1001.2058847 20.85506466 1000.0625 23.3125 C999.26531703 25.0322466 998.46844723 26.7521384 997.671875 28.47216797 C995.55736379 33.03599718 993.43908716 37.59806769 991.31964111 42.15960693 C987.79766629 49.74029897 984.27953189 57.32277289 980.76217651 64.90560913 C979.51603908 67.59044339 978.26803076 70.27440185 977.01977539 72.95825195 C976.25271951 74.61016679 975.4857087 76.26210254 974.71875 77.9140625 C974.37057724 78.66134109 974.02240448 79.40861969 973.66368103 80.17854309 C972.00680281 83.75110679 970.41517692 87.32252054 969 91 C965.39728847 89.51888526 963.5804637 87.54822921 961.125 84.5625 C942.60572821 63.63029377 917.38010438 53.75486613 889.9609375 51.78125 C875.2687367 51.30603057 859.03632057 54.55919827 847.625 64.1875 C838.6374506 72.94422952 834.23865907 82.95084342 833.90625 95.5546875 C834.5853799 111.07280572 840.76090445 122.30444709 851.9375 132.9375 C866.21238316 145.29486154 882.45757938 154.55923505 898.74134827 163.95962524 C931.66340684 182.96539408 965.38882156 203.57564569 989 234 C989.41040527 234.52867676 989.82081055 235.05735352 990.24365234 235.60205078 C997.08578036 244.51499613 1002.38041275 253.76818692 1007 264 C1007.54527344 265.19109375 1008.09054687 266.3821875 1008.65234375 267.609375 C1020.68358143 295.65164907 1024.48572707 330.32985102 1017 360 C1016.83902832 360.64372559 1016.67805664 361.28745117 1016.51220703 361.95068359 C1011.35898771 381.89527596 1001.46926788 399.17663198 988.375 414.9375 C987.94396973 415.45747559 987.51293945 415.97745117 987.06884766 416.51318359 C985.75279024 418.05147762 984.38436547 419.52294957 983 421 C982.54445708 421.52102106 982.08891417 422.04204212 981.61956692 422.5788517 C977.18816824 427.07077681 973.58665649 427.69716856 967.38677979 427.746521 C966.27115662 427.72494934 965.15553345 427.70337769 964.00610352 427.68115234 C962.81514572 427.6820285 961.62418793 427.68290466 960.3971405 427.68380737 C957.14909618 427.68035604 953.90262553 427.65037824 950.65489316 427.60836363 C947.25436897 427.57072242 943.85381012 427.56732082 940.45310974 427.56021118 C934.02150778 427.54160124 927.59052157 427.49241772 921.15919012 427.43211424 C913.83398234 427.36492799 906.50874435 427.33202988 899.18330491 427.30194163 C884.12186086 427.23931422 869.06099216 427.13385558 854 427 C857.15079274 424.46892633 860.32782389 421.98590885 863.5534668 419.55078125 C869.99810814 414.66698909 876.11676909 409.55691794 882 404 C882.82113281 403.24332031 883.64226562 402.48664063 884.48828125 401.70703125 C900.48132259 386.46016603 913.61819904 365.03812279 914.41772461 342.50854492 C914.5790115 324.59773579 907.84094812 310.33589748 896 297 C895.47019531 296.39929688 894.94039062 295.79859375 894.39453125 295.1796875 C880.86847976 280.81869456 862.24118128 270.54413772 845.5625 260.375 C824.24165228 247.36257188 802.6775628 234.06462245 784.265625 217.078125 C782.1982212 215.18181669 780.08249907 213.36970394 777.9375 211.5625 C763.62386238 198.99862569 750.61780968 180.9577023 744 163 C743.96036133 163.55647217 743.92072266 164.11294434 743.87988281 164.6862793 C741.68718015 194.30896539 735.6521269 222.83758504 721 249 C720.08154297 250.73830078 720.08154297 250.73830078 719.14453125 252.51171875 C709.76970512 269.77299656 696.97824757 284.31916195 683 298 C685.82264166 301.20519749 689.38624469 303.32401768 692.9375 305.625 C715.57458135 320.5338744 737.8261723 338.92425665 754.74609375 360.19921875 C756.1991604 362.00484923 757.6893982 363.78147951 759.22265625 365.51953125 C772.7046147 380.89211493 783.69456079 398.83430136 793 417 C793.40379883 417.77778809 793.80759766 418.55557617 794.22363281 419.35693359 C828.19100545 485.39871928 835.11947214 566.63459143 812.51953125 637.41015625 C812.01677737 638.94134271 811.51043553 640.47135714 811 642 C810.658479 643.02649658 810.658479 643.02649658 810.31005859 644.07373047 C802.33394068 667.58563715 790.36579936 689.52782323 775 709 C774.3747803 710.095539 774.3747803 710.095539 773.73692989 711.21321011 C771.34323364 715.02549067 769.52467572 717.5725875 765.07859993 718.81895638 C761.38388948 719.1094555 757.78361957 719.11311084 754.07836914 719.02172852 C752.66848921 719.01918706 751.25859739 719.02062032 749.84872437 719.02571106 C746.03622311 719.02828552 742.2262886 718.97551285 738.41438222 718.91254544 C734.42534992 718.85614566 730.43625365 718.85098625 726.44688416 718.84031677 C718.8994092 718.81238315 711.35311253 718.73858445 703.80615562 718.64817137 C695.21140235 718.54744875 686.61659172 718.49805942 678.02139485 718.45291245 C660.34692941 718.35892932 642.67355956 718.20070638 625 718 C628.60187057 714.35894558 632.31460487 710.96115534 636.25 707.6875 C637.40422542 706.7168346 638.5578688 705.74547669 639.7109375 704.7734375 C640.27135742 704.30131836 640.83177734 703.82919922 641.40917969 703.34277344 C647.81844687 697.93286406 653.66902759 692.48078999 659 686 C659.63180176 685.25266602 659.63180176 685.25266602 660.27636719 684.49023438 C694.64803323 643.78002171 711.70156702 591.60822934 707.25 538.4375 C704.99396298 514.12864929 698.73276695 490.93238961 688 469 C687.47599609 467.92322998 687.47599609 467.92322998 686.94140625 466.82470703 C678.97786226 450.6606088 668.92352151 436.46489799 657 423 C656.20464844 422.0821875 655.40929688 421.164375 654.58984375 420.21875 C650.03475824 415.03079669 645.33394162 410.37522662 640 406 C639.49791016 405.57493164 638.99582031 405.14986328 638.47851562 404.71191406 C597.44162702 369.99022609 545.11446517 354.57945245 491.80224609 358.21826172 C485.47531769 358.82117953 479.23927625 359.799412 473 361 C472.13117187 361.16628906 471.26234375 361.33257813 470.3671875 361.50390625 C446.38594788 366.27893184 424.75647451 376.1063769 403.79296875 388.43359375 C401 390 401 390 398 391 C398.80050781 392.40185547 398.80050781 392.40185547 399.6171875 393.83203125 C402.10474392 398.20660195 404.55715428 402.60033402 407 407 C407.41137207 407.73782715 407.82274414 408.4756543 408.24658203 409.23583984 C445.56411766 476.60357739 455.06237894 557.75374263 434.17089844 631.94433594 C425.40287936 661.32489109 411.12907994 689.44283691 391.55859375 713.08203125 C389.84950626 715.12363588 389.84950626 715.12363588 388 718 C385.50500298 718.36914349 385.50500298 718.36914349 382.29269409 718.36076355 C381.07830658 718.36488754 379.86391907 718.36901154 378.61273193 718.3732605 C377.2598855 718.36264239 375.90704128 718.35173795 374.55419922 718.34057617 C373.13520323 718.33973031 371.71620592 718.34020424 370.29721069 718.34190369 C366.43783379 718.34276668 362.57873493 718.32509198 358.71942282 718.30418181 C354.68886812 718.28546553 350.65830751 718.28366857 346.62771606 718.28010559 C338.99203845 718.27077023 331.35648923 718.24613638 323.72086823 718.21605712 C315.02934873 718.18255939 306.3378232 718.16603877 297.64625525 718.15097082 C279.76409729 718.11958805 261.88205896 718.0667987 244 718 C246.59271768 715.37250113 249.16750731 713.02243457 252.125 710.8125 C257.33588859 706.80020079 262.20159058 702.49498059 267 698 C267.9384375 697.12730469 268.876875 696.25460937 269.84375 695.35546875 C282.8069511 683.02010887 293.01904221 668.41108775 302 653 C302.35400879 652.4004248 302.70801758 651.80084961 303.07275391 651.18310547 C312.46635246 635.10687181 318.9184646 617.13734555 323 599 C323.19609863 598.13616699 323.39219727 597.27233398 323.59423828 596.38232422 C334.32512544 546.7640357 324.37000512 493.86951913 298.00390625 450.734375 C290.45979118 439.13738524 281.91149504 428.42601674 272.36474609 418.43212891 C271.05051533 417.05300947 269.75339339 415.65764787 268.45703125 414.26171875 C236.60408929 380.9631062 187.52655709 359.54446111 141.53125 357.87402344 C137.52005998 357.79285438 133.51189946 357.75339324 129.5 357.75 C128.77823578 357.74932526 128.05647156 357.74865051 127.31283569 357.74795532 C73.32405469 357.82742595 24.19034861 375.19835852 -17 410 C-17.33 409.34 -17.66 408.68 -18 408 C-17.20457221 405.86787475 -16.2958323 403.77786826 -15.34375 401.7109375 C-15.05031708 401.06861176 -14.75688416 400.42628601 -14.45455933 399.76449585 C-13.47736804 397.63105115 -12.48878139 395.50309491 -11.5 393.375 C-10.81273109 391.88080174 -10.12605296 390.38633161 -9.43994141 388.89160156 C-4.50332982 378.15860488 0.51971829 367.46573132 5.55377197 356.77816772 C10.25723145 346.79055373 14.86078841 336.76208894 19.375 326.6875 C19.7971579 325.74686707 19.7971579 325.74686707 20.22784424 324.78723145 C23.34532235 317.98536783 23.34532235 317.98536783 26 311 C25.43539063 310.74347656 24.87078125 310.48695313 24.2890625 310.22265625 C13.07340962 304.23204302 3.06419723 293.69767002 -5 284 C-5.75925781 283.12859375 -6.51851562 282.2571875 -7.30078125 281.359375 C-29.02954128 256.08237266 -42.07064084 226.39049921 -49 194 C-52.03462536 194 -53.9282049 195.53824443 -56.546875 197.04296875 C-57.69019287 197.69773193 -58.83351074 198.35249512 -60.01147461 199.02709961 C-61.25776631 199.74703131 -62.50393849 200.46716996 -63.75 201.1875 C-65.0331654 201.92541874 -66.31645107 202.66312838 -67.59985352 203.40063477 C-76.86531755 208.73315182 -86.08183084 214.14667984 -95.2734375 219.60546875 C-101.8547026 223.51273269 -108.45819256 227.38187831 -115.0625 231.25 C-116.29443579 231.97167593 -117.52636938 232.69335564 -118.75830078 233.41503906 C-120.62555761 234.5088516 -122.49284284 235.60261556 -124.36019897 236.69625854 C-128.72545873 239.25291689 -133.08960088 241.81147441 -137.453125 244.37109375 C-148.62844184 250.92605711 -159.80661175 257.47591804 -171 264 C-192.04047791 276.26460531 -213.04562963 288.58879238 -234 301 C-214.93881775 321.13203519 -184.76454095 330.4919012 -158 334 C-157.30165039 334.0942627 -156.60330078 334.18852539 -155.88378906 334.28564453 C-147.61733945 335.26093903 -139.31203304 335.2436235 -131 335.25 C-130.20620941 335.25067474 -129.41241882 335.25134949 -128.59457397 335.25204468 C-114.2305689 335.23277187 -100.19463236 334.31860876 -86 332 C-84.97970703 331.83371094 -83.95941406 331.66742187 -82.90820312 331.49609375 C-57.22230898 327.14255237 -32.94403123 319.1476339 -9 309 C-7.64536112 313.06391665 -8.81268812 314.3137692 -10.65625 318.1328125 C-11.09626343 319.05651138 -11.09626343 319.05651138 -11.54516602 319.99887085 C-12.18465488 321.33891985 -12.82856779 322.6768644 -13.47631836 324.01293945 C-15.23297928 327.63728327 -16.95743344 331.27697054 -18.6875 334.9140625 C-19.04694702 335.66725769 -19.40639404 336.42045288 -19.7767334 337.19647217 C-23.1347048 344.24490414 -26.37055009 351.34574203 -29.58081055 358.46240234 C-35.54737421 371.68868133 -41.63698405 384.85340283 -47.81445312 397.98242188 C-48.10452744 398.60008926 -48.39460175 399.21775665 -48.69346619 399.85414124 C-49.26860497 401.07265423 -49.84826781 402.28904305 -50.43263245 403.50315857 C-51.95189775 406.67563551 -53.35681057 409.8546684 -54.63842773 413.13110352 C-58.58747411 422.95060779 -58.58747411 422.95060779 -62.25830078 425.67773438 C-64.87677315 426.69669212 -67.28935538 427.24419179 -70.0625 427.6875 C-71.01987061 427.8927832 -71.97724121 428.09806641 -72.96362305 428.30957031 C-75.96711529 428.93651406 -78.97795198 429.47070092 -82 430 C-83.91240118 430.38202889 -85.82388986 430.768658 -87.734375 431.16015625 C-150.77754299 443.71938728 -216.49110896 436.12322979 -271.20751953 400.56542969 C-276.24244292 397.18351485 -281.14047242 393.62809416 -286 390 C-286.6079541 389.55043945 -287.2159082 389.10087891 -287.84228516 388.63769531 C-338.83139419 350.70865859 -373.40372264 292.76991333 -383 230 C-383.11714355 229.25991699 -383.23428711 228.51983398 -383.35498047 227.75732422 C-392.65569115 166.4113291 -375.3609984 101.72353667 -338.9609375 51.921875 C-328.5405089 37.96921264 -316.59450286 23.9233023 -303 13 C-301.90332936 12.09152773 -300.80701038 11.18263088 -299.7109375 10.2734375 C-262.17456882 -20.59531943 -217.21101624 -39.2721547 -169 -45 C-168.2044873 -45.09571289 -167.40897461 -45.19142578 -166.58935547 -45.29003906 C-108.13131352 -51.4785398 -45.88541479 -37.89478112 0 0 Z M92 75 C91.25234375 75.60328125 90.5046875 76.2065625 89.734375 76.828125 C70.25798491 93.03575032 59.10041877 118.24431926 56 143 C55.72413224 147.08854361 55.66505069 151.15300136 55.6875 155.25 C55.69313965 156.34046631 55.6987793 157.43093262 55.70458984 158.55444336 C56.12768006 186.87425919 68.02710055 212.70342645 88.14428711 232.62988281 C104.1733406 247.80715085 126.80947992 258.09426449 149 259 C149.98484375 259.0515625 150.9696875 259.103125 151.984375 259.15625 C180.58783906 259.94712919 206.43676334 249.72309243 227.25 230.1875 C247.22804521 209.16018771 255.96440371 180.02056105 255.24609375 151.44921875 C254.15759332 127.03106729 246.17218473 103.51550129 230 85 C229.47148438 84.32839844 228.94296875 83.65679688 228.3984375 82.96484375 C212.72326737 63.54462065 188.22323765 53.94169538 164.07568359 51.2109375 C137.99100389 48.56013025 111.63937554 57.99678225 92 75 Z M459 88 C440.70607205 110.94916514 433.34554246 140.57870035 436.4296875 169.55078125 C440.05391638 197.33146857 454.268155 221.50323717 476 239 C479.55100008 241.56489502 483.19059943 243.8399209 487 246 C487.92296875 246.52335938 488.8459375 247.04671875 489.796875 247.5859375 C513.46317917 260.1866454 540.30829011 261.91947351 566.01953125 254.96875 C591.95775058 246.92926003 611.48726331 229.80968018 624.1496582 205.87573242 C637.71481115 179.18150875 638.54722308 147.5913623 629.75 119.3125 C625.52929245 107.43152323 619.9151707 96.81957267 612 87 C611.00226563 85.75476563 611.00226563 85.75476563 609.984375 84.484375 C593.62703113 65.21905889 570.46959549 53.98628951 545.5 51.28125 C511.68069683 48.56362742 481.08070969 62.4472483 459 88 Z M-173 59 C-173.68384766 59.16628906 -174.36769531 59.33257813 -175.07226562 59.50390625 C-209.23383293 67.95818963 -237.18763987 89.84442473 -255.56738281 119.578125 C-272.94349051 148.95286739 -276.89583343 180.50961165 -276 214 C-272.20830055 212.58005783 -268.77952319 210.83976835 -265.265625 208.83203125 C-264.14720215 208.19386475 -263.0287793 207.55569824 -261.87646484 206.89819336 C-260.66750024 206.20321092 -259.4586824 205.50797313 -258.25 204.8125 C-257.32178436 204.28053513 -257.32178436 204.28053513 -256.37481689 203.73782349 C-246.60798804 198.13980123 -236.93199843 192.40114416 -227.29785156 186.57739258 C-219.91766432 182.124415 -212.47744737 177.78740439 -205 173.5 C-196.44225908 168.59242885 -187.94517493 163.59884824 -179.5 158.5 C-169.90419086 152.70758767 -160.23238746 147.06210073 -150.51293945 141.47998047 C-142.82131072 137.05987551 -135.1689287 132.57869203 -127.53833008 128.05419922 C-120.49690556 123.88014259 -113.43924913 119.73429606 -106.37548828 115.59820557 C-96.80556197 109.99446682 -87.2389942 104.38511917 -77.6875 98.75 C-76.81738281 98.23759766 -75.94726562 97.72519531 -75.05078125 97.19726562 C-69.98590477 94.20547345 -64.97132775 91.14486211 -60 88 C-73.0850635 70.42862901 -98.81578084 60.51124437 -119.67944336 56.82446289 C-137.1147206 54.28789569 -155.89263377 54.67078895 -173 59 Z M345 238 C344.72961914 238.54712646 344.45923828 239.09425293 344.18066406 239.65795898 C335.65401755 256.77021667 326.18651546 272.07666576 313 286 C311.22118152 288.026775 309.46026317 290.06772394 307.703125 292.11328125 C305.55250703 294.4957319 303.28264126 296.74453304 301 299 C301.56807373 299.3717334 302.13614746 299.7434668 302.72143555 300.12646484 C313.78570034 307.38483728 324.73420453 314.63230734 335 323 C335.50917969 323.40766602 336.01835938 323.81533203 336.54296875 324.23535156 C344.97579478 331.01805053 352.70649799 338.50049903 360.375 346.125 C361.3023999 347.04313477 362.2297998 347.96126953 363.18530273 348.90722656 C368.33366216 354.07921294 373.04352718 359.35725214 377.42822266 365.19482422 C377.94690918 365.79053223 378.4655957 366.38624023 379 367 C379.66 367 380.32 367 381 367 C383.59616266 361.39906927 386.19218523 355.79807363 388.78808594 350.19702148 C389.66858262 348.29726467 390.54911555 346.39752466 391.4296875 344.49780273 C391.85507813 343.5800708 392.28046875 342.66233887 392.71875 341.71679688 C393.14033386 340.80735321 393.56191772 339.89790955 393.99627686 338.96090698 C394.83375655 337.1534719 395.67071584 335.34579559 396.50714111 333.53787231 C398.31382664 329.63311644 400.12364873 325.73016394 401.95605469 321.83740234 C402.77831543 320.08290771 402.77831543 320.08290771 403.6171875 318.29296875 C404.08495605 317.30192139 404.55272461 316.31087402 405.03466797 315.28979492 C406.12948994 313.1070062 406.12948994 313.1070062 406 311 C404.07213344 309.43787018 402.12415057 307.96622337 400.125 306.5 C386.32034376 295.99364229 373.85807781 283.28706929 364 269 C363.62617187 268.45988281 363.25234375 267.91976563 362.8671875 267.36328125 C356.45182843 258.00209403 351.16750538 248.09068426 346 238 C345.67 238 345.34 238 345 238 Z " fill="#0A1C2D" transform="translate(760,485)"/>
<path d="M0 0 C40.59 0 81.18 0 123 0 C123.01981934 14.075354 123.03963867 28.15070801 123.06005859 42.65258789 C123.12498282 87.78262079 123.19952003 132.91263441 123.28005161 178.04264182 C123.2925758 185.06268881 123.30500444 192.08273596 123.31738281 199.1027832 C123.31861614 199.80130574 123.31984946 200.49982827 123.32112016 201.21951816 C123.36094167 223.79867919 123.39447212 246.37784415 123.42468691 268.95701991 C123.45669519 292.85061783 123.49598486 316.74419409 123.54279006 340.63776773 C123.57055302 354.9283259 123.59263836 369.21886898 123.60726251 383.50944673 C123.61787402 393.33340141 123.63576838 403.15732672 123.65916704 412.98125917 C123.6724216 418.63357648 123.68267959 424.28585298 123.68421364 429.93818665 C123.69500508 459.56211721 123.75935346 489.19766705 128.1875 518.5625 C128.29259888 519.27438477 128.39769775 519.98626953 128.50598145 520.71972656 C133.25781551 552.67673088 141.64116269 583.96417389 156 613 C156.39832031 613.80904785 156.79664063 614.6180957 157.20703125 615.45166016 C167.65350614 636.45653645 180.82763257 655.0381531 197 672 C197.72703125 672.77988281 198.4540625 673.55976562 199.203125 674.36328125 C207.99433373 683.52893035 218.15940411 691.22074392 229.0859375 697.66015625 C229.71757812 698.10230469 230.34921875 698.54445313 231 699 C231 699.66 231 700.32 231 701 C210.99814604 701.28085821 190.9966945 701.49219137 170.99327469 701.62174606 C161.70431688 701.6835118 152.4165872 701.76765 143.12841797 701.90527344 C135.02865997 702.02523045 126.92979164 702.10237947 118.82916999 702.12906194 C114.54303514 702.1446505 110.25944434 702.18102895 105.97412872 702.26876068 C101.93165413 702.35084236 97.89274474 702.37522149 93.84951591 702.35729218 C92.37403081 702.36056658 90.89841405 702.38408203 89.42365456 702.4304657 C82.00682272 702.65209577 76.39312305 702.05440642 70.83350635 696.82313657 C68.41317708 694.3126056 66.19885364 691.70918621 64 689 C62.97712324 687.79794481 62.97712324 687.79794481 61.93358231 686.57160568 C60.34059497 684.67741311 58.84826334 682.73838693 57.375 680.75 C56.83633301 680.03166992 56.29766602 679.31333984 55.74267578 678.57324219 C12.49229707 620.0949392 -0.23423458 543.7202845 -0.12025452 472.47999573 C-0.12069133 470.43352318 -0.12156827 468.38705069 -0.12284368 466.3405785 C-0.12506697 460.75348563 -0.12109719 455.16641214 -0.11606562 449.57932174 C-0.11173004 443.54067417 -0.11320975 437.5020276 -0.1139679 431.46337891 C-0.11449116 421.01307002 -0.11140008 410.56276629 -0.10573006 400.11245918 C-0.09980216 389.15867648 -0.09596192 378.20489628 -0.09487724 367.25111198 C-0.0948085 366.56867412 -0.09473976 365.88623625 -0.09466894 365.18311845 C-0.09433058 361.71701069 -0.09402921 358.25090292 -0.09374207 354.78479516 C-0.09164465 330.2685564 -0.08491566 305.75232091 -0.07543945 281.23608398 C-0.06624718 257.42683937 -0.05916741 233.61759565 -0.05493164 209.80834961 C-0.05480011 209.07375294 -0.05466859 208.33915627 -0.05453308 207.58229909 C-0.0532145 200.20481723 -0.05193869 192.82733536 -0.05069422 185.44985349 C-0.04815837 170.42261855 -0.04533712 155.39538366 -0.04234314 140.3681488 C-0.04220585 139.67730211 -0.04206856 138.98645542 -0.04192711 138.27467399 C-0.03273477 92.18311432 -0.01624764 46.09155784 0 0 Z " fill="#0A1C2D" transform="translate(220,211)"/>
<path d="M0 0 C38.94 0 77.88 0 118 0 C117.14890763 5.10655424 115.92918183 8.76996924 113.7109375 13.30078125 C113.37612366 14.00089325 113.04130981 14.70100525 112.6963501 15.42233276 C111.97369019 16.93203306 111.24774791 18.44016569 110.51885986 19.9468689 C108.5535043 24.01144568 106.61406214 28.08837788 104.671875 32.1640625 C104.27517609 32.99505966 103.87847717 33.82605682 103.46975708 34.68223572 C99.75721343 42.47378074 96.17417796 50.32050526 92.625 58.1875 C87.04710055 70.5318961 81.39134229 82.83828532 75.6875 95.125 C75.28743744 95.98690948 74.88737488 96.84881897 74.47518921 97.73684692 C72.8535837 101.23041007 71.23193964 104.72395531 69.61006165 108.21739197 C65.37253129 117.34710591 61.15351277 126.4853339 56.9375 135.625 C56.56829437 136.42528625 56.19908875 137.22557251 55.81869507 138.05010986 C53.95690291 142.08572809 52.09532335 146.12144433 50.23388672 150.15722656 C46.86522821 157.46050032 43.49442321 164.76278335 40.12380981 172.06515503 C39.00487757 174.48943226 37.88608398 176.91377343 36.76733398 179.33813477 C33.31977241 186.80889528 29.87141698 194.27928577 26.41992188 201.74822998 C24.83411667 205.18003171 23.24884872 208.61208151 21.66357422 212.04412842 C20.51718927 214.52529655 19.36993746 217.0060626 18.22265625 219.48681641 C15.02281266 226.41081658 11.83511777 233.33874537 8.71875 240.30078125 C8.24888672 241.3487085 7.77902344 242.39663574 7.29492188 243.47631836 C6.4621896 245.34038892 5.6349074 247.20690889 4.81445312 249.07641602 C2.21905068 254.89047466 2.21905068 254.89047466 0 256 C0 171.52 0 87.04 0 0 Z " fill="#0A1C2D" transform="translate(382,211)"/>
</svg>
