<?xml version="1.0" encoding="UTF-8"?>
<svg version="1.1" xmlns="http://www.w3.org/2000/svg" width="1700" height="1172">
<path d="M0 0 C2.28453591 -0.00323157 4.56907164 -0.00659688 6.85360718 -0.01008606 C11.62197343 -0.01602584 16.39032172 -0.01793172 21.15869141 -0.01733398 C25.94583977 -0.01725339 30.73289109 -0.02409751 35.52001953 -0.0378418 C66.33057924 -0.12483547 97.01294099 0.35882617 127.7734375 2.16796875 C128.46355423 2.20797375 129.15367096 2.24797874 129.86470032 2.28919601 C138.27764908 2.778222 146.68266836 3.3476024 155.0859375 3.98046875 C156.22378693 4.06511383 157.36163635 4.14975891 158.53396606 4.23696899 C220.02931385 8.8454615 281.34564236 16.78709491 341.7734375 29.16796875 C342.80111237 29.37715942 342.80111237 29.37715942 343.84954834 29.59057617 C352.19684172 31.29286084 360.492279 33.17017954 368.7734375 35.16796875 C369.49065979 35.33985718 370.20788208 35.51174561 370.94683838 35.68884277 C431.14684316 50.11973691 489.72806677 69.45142863 544.21484375 99.25 C547.23433748 100.89887312 550.30207233 102.41863593 553.39892578 103.91601562 C569.5087021 111.72927744 585.07415084 120.95224829 599.7734375 131.16796875 C601.25274682 132.16448374 602.73333335 133.15910405 604.21484375 134.15234375 C613.5147948 140.4104028 622.55448791 146.85780789 631.25048828 153.93310547 C632.67409493 155.08741814 634.11195069 156.22409519 635.55078125 157.359375 C650.69175919 169.43213715 665.38178884 183.2631544 677.7734375 198.16796875 C678.21204102 198.68214355 678.65064453 199.19631836 679.10253906 199.72607422 C693.40003361 216.50947892 705.08546529 234.92370914 715.7734375 254.16796875 C716.16337891 254.85745605 716.55332031 255.54694336 716.95507812 256.25732422 C748.54909436 312.24654976 763.07615922 379.17827411 770.79296875 442.45703125 C770.87809723 443.14454971 770.96322571 443.83206818 771.05093384 444.54042053 C772.42509973 456.10487735 772.94929743 467.62441333 773.01171875 479.265625 C773.01658358 479.9648237 773.0214484 480.66402241 773.02646065 481.38440895 C773.06276059 486.66642315 773.079149 491.94833996 773.0859375 497.23046875 C773.08708809 498.00568123 773.08823868 498.78089371 773.08942413 499.57959747 C773.11359031 522.99783297 772.74170975 546.02567235 768.7734375 569.16796875 C768.54611719 570.5312322 768.31890601 571.89451385 768.09179688 573.2578125 C761.55764389 611.92363231 749.87327514 649.49621777 731.73095703 684.32226562 C730.80228174 686.11236894 729.89491611 687.91347734 728.98828125 689.71484375 C720.37552146 706.61356055 709.95227086 722.63252214 697.7734375 737.16796875 C696.87216579 738.2615292 695.97112619 739.35528098 695.0703125 740.44921875 C683.93896464 753.86575748 672.13969271 766.94199302 658.7734375 778.16796875 C658.24282715 778.61769043 657.7122168 779.06741211 657.16552734 779.53076172 C633.93438814 799.14294784 608.0214295 814.35790138 581.10791016 828.30371094 C573.29316025 832.35768385 565.52665921 836.49794408 557.7734375 840.66796875 C548.2035787 845.81446821 538.59624192 850.88183466 528.94897461 855.88183594 C521.84686016 859.57576077 514.83556881 863.41836903 507.83789062 867.30566406 C502.24597815 870.39758359 496.58714812 873.29959421 490.84985352 876.11035156 C485.39973217 878.80234194 480.08555063 881.71433734 474.7734375 884.66796875 C468.99656016 887.87806951 463.20972395 891.01270824 457.2734375 893.91796875 C450.03039318 897.46910221 442.93568643 901.27703271 435.8359375 905.10546875 C400.48164629 924.11948065 365.07204868 942.74470464 326.7734375 955.16796875 C325.08444336 955.71855957 325.08444336 955.71855957 323.36132812 956.28027344 C299.65935676 963.90312015 275.5287461 968.60416865 250.7734375 971.16796875 C249.39164307 971.31153809 249.39164307 971.31153809 247.98193359 971.45800781 C205.18173202 975.32311745 162.59385144 970.21566798 120.37963867 963.57684326 C117.82852006 963.17661039 115.27667282 962.78136512 112.72460938 962.38720703 C34.60472313 950.27114184 -42.34652416 931.0483493 -119.03419876 912.08504105 C-163.15245073 901.17659473 -207.24926368 890.282678 -251.87646484 881.62573242 C-254.10749567 881.19116118 -256.33714508 880.75018937 -258.56640625 880.30664062 C-299.4154425 872.20211523 -340.37558389 867.92430385 -381.97819519 866.88876343 C-440.15733992 865.43755321 -498.00613437 855.02176456 -550.67285156 829.40820312 C-552.95003056 828.30226916 -555.23725803 827.22280096 -557.53125 826.15234375 C-580.74228482 815.15371642 -601.91835637 799.99523219 -621.2265625 783.16796875 C-622.0628418 782.49894531 -622.0628418 782.49894531 -622.91601562 781.81640625 C-624.3859471 780.64046107 -625.81040819 779.40815123 -627.2265625 778.16796875 C-627.2265625 777.50796875 -627.2265625 776.84796875 -627.2265625 776.16796875 C-627.80019531 775.91917969 -628.37382813 775.67039062 -628.96484375 775.4140625 C-636.30175751 771.3717905 -641.80062408 763.44706677 -646.9375 757.00390625 C-648.40473809 755.18613347 -649.90755002 753.39618289 -651.453125 751.64453125 C-665.97867637 735.07860142 -677.23942914 715.71908358 -687.2265625 696.16796875 C-687.83056885 695.00467041 -687.83056885 695.00467041 -688.44677734 693.81787109 C-712.72954172 646.70585231 -722.86951698 591.70491158 -726.2265625 539.16796875 C-726.30797485 537.93322815 -726.38938721 536.69848755 -726.4732666 535.42633057 C-727.21102341 523.66511104 -727.4059844 511.9383474 -727.4296875 500.15625 C-727.43251488 499.18542166 -727.43534225 498.21459332 -727.43825531 497.21434593 C-727.45311866 492.0692456 -727.46242717 486.92417234 -727.46679688 481.77905273 C-727.47116426 477.60318177 -727.48500731 473.42751942 -727.5078125 469.25170898 C-727.81808756 411.25697536 -721.74054132 354.20677205 -699.2265625 300.16796875 C-698.96584961 299.52311523 -698.70513672 298.87826172 -698.43652344 298.21386719 C-685.43938245 266.0870168 -665.27829361 235.68453496 -641.37768555 210.609375 C-638.46065037 207.64142318 -638.46065037 207.64142318 -636.2265625 204.16796875 C-635.5665625 204.16796875 -634.9065625 204.16796875 -634.2265625 204.16796875 C-633.96101563 203.57266357 -633.69546875 202.9773584 -633.421875 202.36401367 C-632.19160092 200.10373685 -630.98874362 198.76180606 -629.1015625 197.03125 C-628.48273193 196.45866455 -627.86390137 195.8860791 -627.22631836 195.29614258 C-626.56639893 194.69697021 -625.90647949 194.09779785 -625.2265625 193.48046875 C-624.5466626 192.85615967 -623.8667627 192.23185059 -623.16625977 191.58862305 C-621.80612278 190.34160254 -620.44361785 189.09715925 -619.07861328 187.85546875 C-617.54530366 186.45839043 -616.02311131 185.04912174 -614.50390625 183.63671875 C-608.27146164 177.89329734 -601.67028261 172.68447753 -594.96289062 167.51464844 C-593.35768529 166.26966635 -591.76794413 165.0048141 -590.1796875 163.73828125 C-564.58771595 143.5166457 -535.75870092 126.48907358 -506.44677734 112.25146484 C-504.06071281 111.08703177 -501.68506525 109.9026282 -499.30859375 108.71875 C-482.96152471 100.65675103 -466.17798652 93.72960514 -449.25787354 86.97851562 C-447.35906791 86.22084191 -445.46147004 85.46014338 -443.56396484 84.69921875 C-379.42666923 59.14231703 -311.39476041 41.88413247 -243.7532959 28.66290283 C-241.25035141 28.1726285 -238.74862277 27.67652245 -236.24707031 27.17919922 C-177.30267108 15.50295221 -117.63399615 6.59951976 -57.72265625 1.96484375 C-56.88838104 1.89842682 -56.05410583 1.83200989 -55.19454956 1.76358032 C-36.80887996 0.38537506 -18.43065162 0.00629561 0 0 Z M-64.04530334 82.54444885 C-66.9259042 86.50354012 -67.85483742 91.72241914 -69.2265625 96.35546875 C-69.41709198 96.9945517 -69.60762146 97.63363464 -69.80392456 98.29208374 C-100.93117088 203.44184957 -112.68274447 316.23370214 -135.9140625 549.73046875 C-135.98988052 550.74041838 -135.98988052 550.74041838 -136.06723022 551.77077103 C-137.42897726 570.01571399 -138.46836531 588.26712472 -139.31640625 606.54296875 C-139.36064665 607.48928602 -139.40488705 608.43560329 -139.45046806 609.41059685 C-139.88774609 618.78025518 -140.3126347 628.15007596 -140.68680286 637.52248573 C-140.82687628 640.97735667 -140.97770392 644.43170754 -141.13060188 647.8860321 C-141.19926079 649.50178237 -141.26270114 651.11776363 -141.3206768 652.7339325 C-141.40037081 654.94975897 -141.49725935 657.16420295 -141.59814453 659.37915039 C-141.64746124 660.62410782 -141.69677795 661.86906525 -141.74758911 663.15174866 C-142.2265625 666.16796875 -142.2265625 666.16796875 -143.54708862 668.0688324 C-146.40120391 669.93671609 -148.93524927 669.52060945 -152.2265625 669.16796875 C-154.57915428 667.50860643 -155.15361027 666.52425036 -155.73486328 663.68554688 C-155.79657715 662.70005859 -155.85829102 661.71457031 -155.921875 660.69921875 C-156.03511108 659.02956055 -156.03511108 659.02956055 -156.15063477 657.32617188 C-156.21694092 656.11896484 -156.28324707 654.91175781 -156.3515625 653.66796875 C-156.43011475 652.40404297 -156.50866699 651.14011719 -156.58959961 649.83789062 C-159.27578245 604.95823223 -159.43449477 559.92475707 -159.4140625 514.98046875 C-159.41394291 513.8061731 -159.41382332 512.63187744 -159.4137001 511.42199707 C-159.40796368 466.6456378 -158.8117565 421.91660276 -157.2265625 377.16796875 C-157.199963 376.41545837 -157.17336349 375.662948 -157.14595795 374.88763428 C-156.3553801 352.63893069 -155.38356296 330.40061081 -154.2265625 308.16796875 C-154.1737701 307.15313416 -154.1737701 307.15313416 -154.11991119 306.11779785 C-152.37799956 272.77373324 -150.05410314 239.49433771 -147.1640625 206.23046875 C-147.10164242 205.50930878 -147.03922234 204.7881488 -146.97491074 204.0451355 C-145.60615226 188.25059959 -144.16541181 172.47332729 -142.14378357 156.74610901 C-140.81629715 146.96561717 -140.81629715 146.96561717 -141.2265625 137.16796875 C-142.85679269 135.08988377 -143.80382024 134.30667874 -146.31811523 133.48168945 C-150.47655257 133.03313813 -154.58315242 133.07967547 -158.76171875 133.1484375 C-160.13522743 133.16962395 -160.13522743 133.16962395 -161.53648376 133.1912384 C-163.46717037 133.22426876 -165.39780281 133.26061009 -167.32836914 133.30004883 C-170.28209439 133.35533832 -173.23536229 133.38384409 -176.18945312 133.41210938 C-178.06774041 133.4475582 -179.94599821 133.48461313 -181.82421875 133.5234375 C-182.70658707 133.52780319 -183.58895538 133.53216888 -184.49806213 133.53666687 C-189.4514704 133.66299658 -189.4514704 133.66299658 -193.74609375 135.9621582 C-195.21024372 138.14365474 -195.8777276 139.53927559 -196.31640625 142.10546875 C-196.45812256 142.89743652 -196.59983887 143.6894043 -196.74584961 144.50537109 C-196.88385986 145.38402832 -197.02187012 146.26268555 -197.1640625 147.16796875 C-197.32463135 148.12525879 -197.4852002 149.08254883 -197.65063477 150.06884766 C-198.20082974 153.43176071 -198.71681615 156.79869207 -199.2265625 160.16796875 C-199.41863281 161.41674805 -199.61070312 162.66552734 -199.80859375 163.95214844 C-212.11818903 244.62670722 -216.13351426 326.68944117 -218.73272705 408.18321228 C-218.88426714 412.84530538 -219.05253973 417.5066685 -219.2265625 422.16796875 C-219.25397522 422.96585815 -219.28138794 423.76374756 -219.30963135 424.58581543 C-219.38756365 426.71581303 -219.48471054 428.84385261 -219.58984375 430.97265625 C-219.64052002 432.11460449 -219.69119629 433.25655273 -219.7434082 434.43310547 C-220.2265625 437.16796875 -220.2265625 437.16796875 -221.54760742 439.03173828 C-224.38904524 440.95467729 -226.91999107 440.52224426 -230.2265625 440.16796875 C-233.06361322 438.38660447 -233.28250229 436.93509562 -234.07470703 433.63720703 C-234.30919794 432.13143324 -234.52784658 430.62314439 -234.734375 429.11328125 C-234.85660431 428.27862335 -234.97883362 427.44396545 -235.10476685 426.58401489 C-236.7342723 415.1063957 -237.92426495 403.57397929 -239.1015625 392.04296875 C-239.22906891 390.8033136 -239.35657532 389.56365845 -239.48794556 388.28643799 C-246.2694619 321.9688266 -250.60591799 255.29738506 -251.72924805 188.6418457 C-251.78956738 185.07561872 -251.8544547 181.50949523 -251.91992188 177.94335938 C-251.96095366 175.61067737 -252.00196958 173.27799508 -252.04296875 170.9453125 C-252.06428864 169.82885345 -252.08560852 168.71239441 -252.10757446 167.56210327 C-252.19284496 162.66295442 -252.24268174 157.77797313 -252.11279297 152.87939453 C-252.09562729 152.09399796 -252.07846161 151.30860138 -252.06077576 150.49940491 C-252.00850718 148.4750668 -251.93112209 146.45141819 -251.85131836 144.42797852 C-252.31471989 140.40208348 -253.18132518 138.82990473 -256.2265625 136.16796875 C-259.25740139 135.46465505 -259.25740139 135.46465505 -262.65234375 135.64453125 C-263.91771973 135.65508545 -265.1830957 135.66563965 -266.48681641 135.67651367 C-267.83760272 135.71400018 -269.18835207 135.75284085 -270.5390625 135.79296875 C-271.90801357 135.81830462 -273.27699308 135.84214831 -274.64599609 135.86450195 C-278.50716428 135.93561688 -282.36644263 136.05348932 -286.2265625 136.16796875 C-287.95179416 136.19224246 -289.67705259 136.21478156 -291.40234375 136.234375 C-297.95196965 136.04809872 -297.95196965 136.04809872 -303.25805664 139.19750977 C-305.63921694 142.79066087 -306.50031354 146.24474355 -307.33984375 150.40234375 C-307.60256325 151.62219971 -307.60256325 151.62219971 -307.87059021 152.86669922 C-308.44234174 155.54743716 -308.99180913 158.23213017 -309.5390625 160.91796875 C-309.93310971 162.80895231 -310.32731797 164.69990232 -310.72167969 166.59082031 C-317.3227504 198.5567704 -322.45912447 230.74847414 -326.2265625 263.16796875 C-326.32990906 264.05494446 -326.43325562 264.94192017 -326.53973389 265.85577393 C-339.07522641 374.18266259 -341.36404504 484.76345941 -332.99681091 596.1308136 C-332.7220146 599.80872538 -332.46866504 603.48777623 -332.2265625 607.16796875 C-332.15211914 608.25368164 -332.07767578 609.33939453 -332.00097656 610.45800781 C-331.96456055 611.35487305 -331.92814453 612.25173828 -331.890625 613.17578125 C-331.83962646 614.25690186 -331.83962646 614.25690186 -331.78759766 615.35986328 C-332.2265625 617.16796875 -332.2265625 617.16796875 -334.02099609 618.92529297 C-337.34279751 620.79688575 -339.63037677 620.1003132 -343.2265625 619.16796875 C-345.73305526 615.40822961 -346.28621872 611.7126702 -347.109375 607.3515625 C-347.28452637 606.44957626 -347.45967773 605.54759003 -347.64013672 604.61827087 C-348.21937167 601.61560508 -348.78654208 598.6108401 -349.3515625 595.60546875 C-349.54909119 594.56312073 -349.74661987 593.52077271 -349.95013428 592.44683838 C-366.55085549 504.63683938 -376.51114404 415.60313987 -380.13800049 326.31652832 C-380.22201738 324.2782357 -380.31177248 322.24018197 -380.40185547 320.20214844 C-381.23933954 300.90273816 -381.33343926 281.60820004 -381.3515625 262.29296875 C-381.35291199 261.03459198 -381.35426147 259.77621521 -381.35565186 258.47970581 C-381.3597872 246.25651169 -381.33072306 234.04345819 -380.859375 221.828125 C-380.82824615 220.99549133 -380.79711731 220.16285767 -380.76504517 219.30499268 C-380.62025312 215.56870672 -380.44906113 211.83672475 -380.23095703 208.10400391 C-380.14370361 206.20787354 -380.14370361 206.20787354 -380.0546875 204.2734375 C-379.9918457 203.20246826 -379.92900391 202.13149902 -379.86425781 201.02807617 C-380.32789418 197.36803574 -381.68984791 195.78465136 -384.2265625 193.16796875 C-387.37533191 191.59358404 -390.66793862 192.26737417 -394.1015625 192.48046875 C-394.91786133 192.52824463 -395.73416016 192.57602051 -396.57519531 192.62524414 C-399.45948851 192.79869365 -402.34295936 192.98341095 -405.2265625 193.16796875 C-406.39026367 193.23918945 -407.55396484 193.31041016 -408.75292969 193.38378906 C-412.49481222 193.61489087 -416.23569822 193.85846735 -419.9765625 194.10546875 C-421.17780762 194.17999268 -422.37905273 194.2545166 -423.61669922 194.33129883 C-432.16973105 194.7051447 -432.16973105 194.7051447 -440.2265625 197.16796875 C-442.76333244 202.2358062 -444.29130704 207.47923738 -445.7578125 212.9375 C-445.98997971 213.78947968 -446.22214691 214.64145935 -446.46134949 215.51925659 C-447.22467772 218.33751687 -447.97724018 221.1584535 -448.7265625 223.98046875 C-448.98845367 224.96447662 -449.25034485 225.9484845 -449.52017212 226.96231079 C-458.27174891 259.99371485 -465.35205666 293.35693092 -471.4140625 326.98046875 C-471.61091644 328.07048187 -471.80777039 329.160495 -472.0105896 330.28353882 C-472.56183632 333.35457029 -473.10526754 336.42684384 -473.64453125 339.5 C-473.80642944 340.40904083 -473.96832764 341.31808167 -474.13513184 342.25466919 C-474.82749257 346.26773844 -475.43993348 350.07704123 -475.2265625 354.16796875 C-478.43442832 352.56403584 -479.00344371 349.16593014 -480.2890625 345.98046875 C-489.83604985 323.42129122 -505.33885782 306.46170543 -528.1796875 296.734375 C-551.73674624 287.32654865 -577.00970858 287.71470413 -601.97119141 288.76171875 C-605.77851184 288.92013021 -609.58615233 289.05335953 -613.39453125 289.18359375 C-615.84901329 289.27589366 -618.30344328 289.36959079 -620.7578125 289.46484375 C-621.87973999 289.50454285 -623.00166748 289.54424194 -624.15759277 289.58514404 C-633.37350443 289.86061722 -633.37350443 289.86061722 -642.2265625 292.16796875 C-644.61403869 295.74918303 -644.89979664 298.83951768 -645.375 303.00390625 C-645.47239471 303.80999329 -645.56978943 304.61608032 -645.6701355 305.44659424 C-645.99116268 308.14426794 -646.29755486 310.84332675 -646.6015625 313.54296875 C-646.70883667 314.47647156 -646.81611084 315.40997437 -646.92663574 316.37176514 C-648.80467006 332.81688897 -650.23131191 349.28888884 -651.4765625 365.79296875 C-651.55928406 366.8779364 -651.64200562 367.96290405 -651.72723389 369.08074951 C-653.7518359 395.92338179 -654.43544518 422.69610165 -654.4140625 449.60546875 C-654.41379562 450.36122444 -654.41352875 451.11698013 -654.41325378 451.89563751 C-654.40214541 477.03230916 -654.04375642 502.08760559 -652.2265625 527.16796875 C-652.16104187 528.08076599 -652.09552124 528.99356323 -652.02801514 529.934021 C-649.3827061 566.42780802 -645.39378917 602.67306084 -639.5390625 638.79296875 C-639.38867523 639.72314819 -639.23828796 640.65332764 -639.08334351 641.61169434 C-638.65404132 644.24868106 -638.21749435 646.88433559 -637.77734375 649.51953125 C-637.65042145 650.29368378 -637.52349915 651.0678363 -637.39273071 651.865448 C-636.28867275 660.2054917 -636.28867275 660.2054917 -632.2265625 667.16796875 C-625.26621543 668.47310116 -618.16445899 668.68652471 -611.10595703 669.09790039 C-608.89185766 669.22809922 -606.67839414 669.36667813 -604.46484375 669.50585938 C-600.80451485 669.7293011 -597.14391496 669.91506331 -593.48010254 670.07110596 C-591.93970416 670.13731614 -590.39957411 670.21000274 -588.85974121 670.28826904 C-586.53157536 670.39918801 -584.20484512 670.47382885 -581.875 670.5390625 C-581.16590485 670.57741714 -580.45680969 670.61577179 -579.72622681 670.6552887 C-576.26184824 670.71375511 -574.47818205 670.35597729 -571.68188477 668.26660156 C-569.52406803 663.67223653 -570.41793922 660.10749786 -571.29296875 655.21875 C-571.60761905 653.22748449 -571.92156528 651.23610763 -572.23486328 649.24462891 C-572.40221985 648.23112366 -572.56957642 647.21761841 -572.74200439 646.17340088 C-573.48044902 641.59325834 -574.08664485 636.9978106 -574.69140625 632.3984375 C-574.93456681 630.583973 -575.17781333 628.76952001 -575.42114258 626.95507812 C-577.9881778 607.64474138 -580.23995432 588.3375457 -582.02124023 568.93823242 C-582.09662018 568.12005539 -582.17200012 567.30187836 -582.24966431 566.45890808 C-582.38784677 564.94759253 -582.52368925 563.43606017 -582.65658569 561.92427063 C-583.01413775 557.96756821 -583.52019425 554.0775817 -584.2265625 550.16796875 C-583.20820312 550.1421875 -582.18984375 550.11640625 -581.140625 550.08984375 C-551.11360131 549.01706563 -522.83753048 538.43298728 -501.65234375 516.7421875 C-500.35012898 515.30439969 -499.15613715 513.77046899 -497.9765625 512.23046875 C-497.3990625 511.54984375 -496.8215625 510.86921875 -496.2265625 510.16796875 C-495.2365625 510.16796875 -494.2465625 510.16796875 -493.2265625 510.16796875 C-493.33265335 512.12160088 -493.33265335 512.12160088 -493.44088745 514.11470032 C-494.12118085 526.65147405 -494.79732866 539.18846608 -495.46984673 551.72565937 C-495.81535797 558.16446244 -496.16211957 564.60319204 -496.51220703 571.04174805 C-497.9611697 597.70795114 -499.34798777 624.37332564 -500.3984375 651.05859375 C-500.43939419 652.08591928 -500.48035088 653.11324482 -500.52254868 654.17170143 C-504.44333639 684.95521646 -504.44333639 684.95521646 -499.60595703 713.52075195 C-496.56241097 715.62775024 -494.37472965 715.8824895 -490.6953125 716.21484375 C-489.40882813 716.33730469 -488.12234375 716.45976563 -486.796875 716.5859375 C-486.12688477 716.64056152 -485.45689453 716.69518555 -484.76660156 716.75146484 C-482.75951824 716.91527897 -480.75467743 717.10585957 -478.75 717.296875 C-472.67960439 717.84598633 -466.59984409 718.28513032 -460.5078125 718.49609375 C-459.1165918 718.54878418 -459.1165918 718.54878418 -457.69726562 718.60253906 C-454.19857881 717.98715739 -453.30966867 717.06832589 -451.2265625 714.16796875 C-450.64467025 710.79093157 -450.74257919 707.44932376 -450.80419922 704.03100586 C-450.80814194 702.4865403 -450.80814194 702.4865403 -450.81216431 700.91087341 C-450.82515344 697.50531348 -450.86601719 694.10065002 -450.90625 690.6953125 C-450.91878901 688.33168003 -450.9292698 685.96803581 -450.93777466 683.60438538 C-450.96439658 677.37959577 -451.01327219 671.15519765 -451.06848145 664.93060303 C-451.1546826 654.96323618 -451.2140847 644.99576231 -451.2605629 635.02813911 C-451.281056 631.54082469 -451.31515077 628.05382604 -451.35055542 624.56663513 C-451.3642079 622.43627201 -451.37742545 620.30590605 -451.39013672 618.17553711 C-451.40361145 617.20142883 -451.41708618 616.22732056 -451.43096924 615.22369385 C-451.43400055 614.33345016 -451.43703186 613.44320648 -451.44015503 612.52598572 C-451.44719389 611.75226592 -451.45423275 610.97854612 -451.46148491 610.18138027 C-451.2265625 608.16796875 -451.2265625 608.16796875 -449.2265625 605.16796875 C-440.18854945 602.15529773 -428.49512167 604.33380962 -419.01464844 604.85766602 C-417.4752513 604.94028624 -415.93550835 605.01667431 -414.39550781 605.0871582 C-412.14035561 605.19050747 -409.8868225 605.31191143 -407.6328125 605.4375 C-406.9473938 605.4657637 -406.2619751 605.4940274 -405.55578613 605.52314758 C-401.47198543 605.77654243 -399.21288717 606.37325787 -396.2265625 609.16796875 C-395.39183044 611.25444031 -395.39183044 611.25444031 -394.91577148 613.69799805 C-394.72854019 614.62216019 -394.5413089 615.54632233 -394.34840393 616.49848938 C-394.06959633 618.01130745 -394.06959633 618.01130745 -393.78515625 619.5546875 C-393.57741074 620.61531906 -393.36966522 621.67595062 -393.15562439 622.76872253 C-390.40686936 637.02191695 -388.0529189 651.35019097 -385.67700195 665.66918945 C-383.4228348 679.21305943 -381.02367156 692.70023545 -378.09765625 706.1171875 C-377.85628433 707.24195999 -377.61491241 708.36673248 -377.3662262 709.52558899 C-375.71755878 717.99051366 -375.71755878 717.99051366 -371.2265625 725.16796875 C-368.72962672 725.45941462 -366.2511301 725.69224305 -363.74609375 725.88671875 C-362.98165451 725.94952026 -362.21721527 726.01232178 -361.42961121 726.07702637 C-358.96641879 726.27825516 -356.50276578 726.473105 -354.0390625 726.66796875 C-352.42770176 726.79907897 -350.81637317 726.93058494 -349.20507812 727.0625 C-347.61458851 727.19147013 -346.02409375 727.3203768 -344.43359375 727.44921875 C-343.65106232 727.51343018 -342.86853088 727.5776416 -342.06228638 727.64379883 C-338.39849614 727.93887304 -334.73952349 728.20435427 -331.06787109 728.37890625 C-329.82473145 728.44335938 -328.5815918 728.5078125 -327.30078125 728.57421875 C-326.21756592 728.61869141 -325.13435059 728.66316406 -324.01831055 728.70898438 C-320.70852645 729.25313777 -319.43812067 729.62664124 -317.2265625 732.16796875 C-316.22785445 735.00478477 -315.7350582 737.89287954 -315.2265625 740.8515625 C-315.06414062 741.70347672 -314.90171875 742.55539093 -314.734375 743.43312073 C-314.21609415 746.15457796 -313.71896578 748.87921837 -313.2265625 751.60546875 C-312.57768099 755.19110938 -311.90825289 758.77203282 -311.2265625 762.3515625 C-311.08476563 763.17458359 -310.94296875 763.99760468 -310.796875 764.8455658 C-310.15476551 768.21367036 -309.49589915 770.73435074 -307.67553711 773.66503906 C-303.9330634 775.96178596 -300.36304365 775.89951589 -296.04296875 776.03125 C-295.15044907 776.07235397 -294.25792938 776.11345795 -293.33836365 776.1558075 C-291.45340507 776.23913566 -289.56802568 776.31337368 -287.68237305 776.37915039 C-284.80206299 776.4800135 -281.92392651 776.60759197 -279.04492188 776.74023438 C-277.21100322 776.81797241 -275.37701956 776.89419475 -273.54296875 776.96875 C-272.68449844 777.00511063 -271.82602814 777.04147125 -270.94154358 777.07893372 C-263.82753794 777.49672389 -263.82753794 777.49672389 -257.4050293 774.89648438 C-255.80382174 772.54791393 -256.02480453 771.31658043 -256.37109375 768.51171875 C-256.55019287 767.03251953 -256.55019287 767.03251953 -256.73291016 765.5234375 C-257.48152027 760.43496206 -258.29139799 755.35917098 -259.14282227 750.28710938 C-271.1882004 678.47704582 -276.19088401 605.25446904 -279.9765625 532.60546875 C-280.0416803 531.38082916 -280.1067981 530.15618958 -280.17388916 528.8944397 C-280.80886963 516.81562531 -281.34805907 504.73644657 -281.4921875 492.640625 C-281.51263123 491.72180038 -281.53307495 490.80297577 -281.55413818 489.85630798 C-281.55721985 489.01564285 -281.56030151 488.17497772 -281.56347656 487.30883789 C-281.57510834 486.21183311 -281.57510834 486.21183311 -281.5869751 485.09266663 C-281.12075639 482.60293633 -280.18898538 481.71869099 -278.2265625 480.16796875 C-275.37988443 479.59299615 -273.17817853 479.88686246 -270.2265625 480.16796875 C-268.17085783 483.25152576 -267.79574961 484.74746434 -267.25610352 488.32714844 C-267.00859596 489.92568665 -267.00859596 489.92568665 -266.75608826 491.55651855 C-266.58263382 492.72251587 -266.40917938 493.88851318 -266.23046875 495.08984375 C-265.83921172 497.62019568 -265.4474233 500.15046549 -265.05517578 502.68066406 C-264.84737684 504.03533869 -264.63971728 505.39003471 -264.43218994 506.74475098 C-251.60083292 590.2615847 -232.48001847 673.05590823 -203.7265625 752.60546875 C-203.36099243 753.62220673 -203.36099243 753.62220673 -202.98803711 754.65948486 C-198.75755175 767.86761768 -198.75755175 767.86761768 -191.2265625 779.16796875 C-189.23017095 779.50856502 -189.23017095 779.50856502 -186.91625977 779.51513672 C-185.57961021 779.55560623 -185.57961021 779.55560623 -184.21595764 779.59689331 C-182.76907814 779.62820847 -182.76907814 779.62820847 -181.29296875 779.66015625 C-179.26235218 779.72602191 -177.23175365 779.79244539 -175.20117188 779.859375 C-171.9906026 779.95431714 -168.78010942 780.04318733 -165.5690918 780.12158203 C-162.47627608 780.20087891 -159.3849619 780.30398327 -156.29296875 780.41015625 C-155.33040665 780.42698456 -154.36784454 780.44381287 -153.37611389 780.46115112 C-152.48186203 780.49443512 -151.58761017 780.52771912 -150.66625977 780.56201172 C-149.87953384 780.58262665 -149.09280792 780.60324158 -148.28224182 780.6244812 C-146.2265625 781.16796875 -146.2265625 781.16796875 -144.47886658 782.97885132 C-142.61851705 786.23087585 -142.69445861 789.49753679 -142.6015625 793.15234375 C-142.56853027 793.92676819 -142.53549805 794.70119263 -142.50146484 795.49908447 C-142.39648655 797.97173367 -142.30942947 800.44448599 -142.2265625 802.91796875 C-142.11688751 806.16358327 -141.98927395 809.40781171 -141.8515625 812.65234375 C-141.83270996 813.3859613 -141.81385742 814.11957886 -141.79443359 814.87542725 C-141.55564722 820.48004361 -140.69605876 826.43237766 -136.81103516 830.73602295 C-132.78736063 834.2136495 -129.6361805 835.28755826 -124.43554688 835.32910156 C-123.4644397 835.33870911 -122.49333252 835.34831665 -121.49279785 835.35821533 C-120.44587769 835.36246521 -119.39895752 835.36671509 -118.3203125 835.37109375 C-117.24406616 835.37679382 -116.16781982 835.3824939 -115.05895996 835.3883667 C-112.78264347 835.39781456 -110.50631331 835.40434983 -108.22998047 835.40820312 C-104.74031948 835.4179304 -101.25124203 835.44896508 -97.76171875 835.48046875 C-95.55208684 835.48699664 -93.34245071 835.49224795 -91.1328125 835.49609375 C-90.08589233 835.50844055 -89.03897217 835.52078735 -87.96032715 835.5335083 C-86.98921997 835.5305072 -86.01811279 835.5275061 -85.01757812 835.52441406 C-83.73542419 835.52988251 -83.73542419 835.52988251 -82.42736816 835.53546143 C-79.74032305 835.08677601 -78.86058176 834.30891322 -77.2265625 832.16796875 C-75.6023803 823.09257262 -77.05673644 812.56784108 -77.46533203 803.38378906 C-78.47111387 780.52950898 -78.37959961 757.669909 -78.35693359 734.79785156 C-78.35119023 728.9272133 -78.35455959 723.05662033 -78.36050606 717.18598366 C-78.36413758 712.60287134 -78.36296202 708.0197696 -78.36037827 703.43665695 C-78.35971859 701.27200693 -78.3605032 699.1073559 -78.36285782 696.94270706 C-78.36846859 690.35008171 -78.33968957 683.75970556 -78.2265625 677.16796875 C-78.21335716 676.38439751 -78.20015182 675.60082626 -78.18654633 674.79351044 C-78.13878459 672.68778903 -78.06114784 670.58608997 -77.96826172 668.48193359 C-77.92305389 667.34347992 -77.87784607 666.20502625 -77.83126831 665.03207397 C-77.07711659 661.46013892 -76.22499013 660.24027671 -73.2265625 658.16796875 C-70.19091797 657.66676331 -70.19091797 657.66676331 -66.59375 657.66625977 C-65.93634827 657.66085678 -65.27894653 657.6554538 -64.60162354 657.64988708 C-62.43447466 657.63740751 -60.26865644 657.65388345 -58.1015625 657.671875 C-56.59228445 657.67171999 -55.08300599 657.6702307 -53.57373047 657.66746521 C-50.4129066 657.66608158 -47.2525367 657.67863259 -44.09179688 657.70141602 C-40.04301063 657.72980106 -35.99497853 657.72706311 -31.94613647 657.7143259 C-28.8302569 657.70736629 -25.71455122 657.71516113 -22.59869385 657.72758293 C-21.10598416 657.73209472 -19.61325579 657.7324366 -18.12054443 657.72851753 C-16.03309964 657.7256024 -13.946689 657.74212453 -11.859375 657.76391602 C-10.67230957 657.769319 -9.48524414 657.77472198 -8.26220703 657.7802887 C-4.94385477 658.20407316 -3.55060153 658.79447515 -1.2265625 661.16796875 C-0.44677734 664.27539062 -0.44677734 664.27539062 -0.0625 668.13671875 C0.01102692 668.84509888 0.08455383 669.553479 0.16030884 670.2833252 C0.38870566 672.5767125 0.58552214 674.87093007 0.7734375 677.16796875 C0.83478882 677.89371094 0.89614014 678.61945312 0.95935059 679.3671875 C1.43343964 685.1294398 1.79773855 690.89707995 2.1484375 696.66796875 C2.2383194 698.10701569 2.2383194 698.10701569 2.33001709 699.57513428 C3.99420337 726.42189267 5.11195588 753.30056526 6.28836823 780.17215919 C6.41382028 783.03718659 6.53989821 785.90218591 6.66607666 788.7671814 C6.82203566 792.30844588 6.97534323 795.8498102 7.12689209 799.39126587 C7.32571841 803.98437867 7.54173919 808.57640024 7.7734375 813.16796875 C7.82420567 814.2021204 7.82420567 814.2021204 7.87599945 815.257164 C7.97472227 817.18484771 8.0883086 819.11175307 8.20263672 821.03857422 C8.26442108 822.10913055 8.32620544 823.17968689 8.38986206 824.28268433 C8.78892525 827.28446879 9.33034698 829.50370399 10.7734375 832.16796875 C13.82983373 834.39464321 16.61322263 834.42298521 20.32055664 834.43920898 C21.43173355 834.4493956 22.54291046 834.45958221 23.6877594 834.47007751 C24.88263474 834.47221756 26.07751007 834.4743576 27.30859375 834.4765625 C29.83398679 834.50171193 32.35937736 834.5271101 34.88476562 834.55273438 C38.870185 834.58154464 42.85558672 834.60577969 46.84106445 834.62426758 C50.68462805 834.64584332 54.52769904 834.68526649 58.37109375 834.7265625 C59.56799332 834.72667831 60.76489288 834.72679413 61.99806213 834.72691345 C63.66009926 834.74692162 63.66009926 834.74692162 65.35571289 834.76733398 C66.33182022 834.77240463 67.30792755 834.77747528 68.31361389 834.78269958 C71.1746211 835.23080402 72.07551454 835.86147078 73.7734375 838.16796875 C74.83431962 844.4077808 73.60107868 851.01329835 72.7734375 857.23046875 C72.17064633 861.78649838 71.57495504 866.3217237 71.3984375 870.91796875 C71.37007812 871.6553125 71.34171875 872.39265625 71.3125 873.15234375 C71.98823402 876.10724844 73.47054336 877.25035943 75.7734375 879.16796875 C78.19414282 879.76083293 78.19414282 879.76083293 80.84570312 879.66967773 C81.85354858 879.67905869 82.86139404 879.68843964 83.89978027 879.69810486 C84.98214966 879.68687088 86.06451904 879.6756369 87.1796875 879.6640625 C88.85496521 879.66624535 88.85496521 879.66624535 90.56408691 879.66847229 C92.92442433 879.66681295 95.28477253 879.65524796 97.64501953 879.63452148 C101.25990716 879.60557709 104.8733277 879.61391075 108.48828125 879.62695312 C110.78125714 879.62071546 113.07422838 879.61232431 115.3671875 879.6015625 C116.44955688 879.60449814 117.53192627 879.60743378 118.64709473 879.61045837 C119.65494019 879.5977742 120.66278564 879.58509003 121.70117188 879.57202148 C122.58623413 879.5666185 123.47129639 879.56121552 124.38317871 879.5556488 C127.33633463 879.07667153 128.58449083 878.19044355 130.7734375 876.16796875 C131.50804306 874.05446029 131.50804306 874.05446029 131.6240387 871.63648987 C131.71128519 870.70786951 131.79853168 869.77924915 131.88842201 868.82248878 C131.96463972 867.80671446 132.04085743 866.79094013 132.11938477 865.74438477 C132.21398169 864.6758898 132.30857861 863.60739483 132.4060421 862.50652122 C132.71492397 858.95877873 132.99651276 855.40943989 133.27734375 851.859375 C133.48784177 849.36037585 133.69957605 846.86148056 133.91249084 844.36268616 C134.56298517 836.6334152 135.1733 828.90129354 135.7734375 821.16796875 C135.90976719 819.42112919 135.90976719 819.42112919 136.04885101 817.63899994 C137.26761229 801.97706252 138.38789773 786.30886117 139.46723557 770.6367569 C139.71606177 767.03121711 139.96715353 763.42584095 140.21878052 759.82049561 C143.34033119 715.04067827 146.08904579 670.24119812 148.64453125 625.42578125 C148.69582687 624.52725119 148.7471225 623.62872112 148.79997253 622.70296288 C148.94626027 620.1329182 149.09123079 617.56280165 149.23608398 614.99267578 C149.28247702 614.18468064 149.32887005 613.3766855 149.37666893 612.54420567 C149.61932665 608.24453357 149.82778239 603.94581877 149.99514771 599.64251709 C150.05183797 598.27955159 150.05183797 598.27955159 150.1096735 596.88905144 C150.18053609 595.15529015 150.24429534 593.42121817 150.29962063 591.68689156 C150.4780572 587.43812873 150.83757321 584.04753075 152.7734375 580.16796875 C158.59648471 579.60767555 164.42453017 579.092563 170.2734375 578.91796875 C171.046875 578.8921875 171.8203125 578.86640625 172.6171875 578.83984375 C175.60449624 579.29443421 176.63600392 579.98590138 178.7734375 582.16796875 C179.63415953 585.15558475 180.23662925 587.9093762 180.73046875 590.9609375 C180.89206985 591.88150436 181.05367096 592.80207123 181.22016907 593.75053406 C181.760875 596.88630024 182.27057208 600.02591925 182.7734375 603.16796875 C182.95372498 604.28383362 183.13401245 605.39969849 183.31976318 606.54937744 C184.64517402 614.81483277 185.90515771 623.08971607 187.14456177 631.36840439 C187.46691356 633.52036376 187.7904557 635.67214147 188.11425781 637.82388306 C198.55733736 707.26334614 208.32719967 776.88056913 215.58721924 846.73400879 C215.74946144 848.29368387 215.9134034 849.85318335 216.07928467 851.41247559 C216.49591972 855.35233105 216.87195265 859.29139348 217.19921875 863.23974609 C217.27454834 864.06802414 217.34987793 864.89630219 217.42749023 865.74967957 C217.57081283 867.32596087 217.7000922 868.90360643 217.81274414 870.4823761 C218.1680788 874.59893507 218.1680788 874.59893507 220.48657227 877.86495972 C223.24066647 879.43418626 224.96218855 879.55383276 228.12109375 879.57202148 C229.18900146 879.58470566 230.25690918 879.59738983 231.35717773 879.61045837 C233.07916382 879.60605492 233.07916382 879.60605492 234.8359375 879.6015625 C236.01937744 879.60680435 237.20281738 879.6120462 238.42211914 879.6174469 C240.92365738 879.62386898 243.42522582 879.62252775 245.92675781 879.61401367 C249.75900879 879.6055008 253.5897712 879.6342701 257.421875 879.66601562 C259.85156205 879.66762759 262.28125175 879.66705019 264.7109375 879.6640625 C265.85892822 879.67529648 267.00691895 879.68653046 268.18969727 879.69810486 C269.79155884 879.68403343 269.79155884 879.68403343 271.42578125 879.66967773 C272.83331665 879.66942848 272.83331665 879.66942848 274.26928711 879.66917419 C277.55686084 879.01116665 278.74463845 877.79370598 280.7734375 875.16796875 C281.20117867 872.20208696 281.33896432 869.69715206 281.2734375 866.73046875 C281.25966064 865.40692383 281.25966064 865.40692383 281.24560547 864.05664062 C280.74605644 844.08791252 278.00543261 823.86443426 274.7734375 804.16796875 C275.4334375 804.49796875 276.0934375 804.82796875 276.7734375 805.16796875 C279.86354014 805.20972689 282.92743653 805.18700348 286.015625 805.1171875 C286.98219025 805.09904495 287.94875549 805.0809024 288.9446106 805.06221008 C292.17936952 804.99922099 295.41387392 804.92776134 298.6484375 804.85546875 C299.76057617 804.83218506 300.87271484 804.80890137 302.01855469 804.78491211 C321.27445241 804.38112409 340.52418576 803.80748925 359.7734375 803.16796875 C361.03718201 803.12626556 362.30092651 803.08456238 363.60296631 803.04159546 C370.62378909 802.80773572 377.64366845 802.55700429 384.66308594 802.28417969 C387.62929444 802.17335431 390.59564242 802.07974309 393.5625 801.98828125 C395.27867823 801.92403676 396.9948268 801.85899244 398.7109375 801.79296875 C399.46802002 801.77427734 400.22510254 801.75558594 401.00512695 801.73632812 C405.3780854 801.54591326 408.42529264 801.07192158 411.7734375 798.16796875 C413.30255853 795.21127212 413.30255853 795.21127212 414.28515625 791.6640625 C414.48807785 791.0094957 414.69099945 790.35492889 414.90007019 789.68052673 C417.4450048 781.28410239 419.51225735 772.75254773 421.5859375 764.23046875 C421.996185 762.56431519 422.40698947 760.89829867 422.81835938 759.23242188 C423.80978493 755.21248132 424.79375442 751.19078638 425.7734375 747.16796875 C426.56516357 747.12309326 427.35688965 747.07821777 428.17260742 747.03198242 C431.76968516 746.82029657 435.36515645 746.58810461 438.9609375 746.35546875 C440.20681641 746.28521484 441.45269531 746.21496094 442.73632812 746.14257812 C443.93837891 746.06201172 445.14042969 745.98144531 446.37890625 745.8984375 C447.48387451 745.83035889 448.58884277 745.76228027 449.72729492 745.69213867 C453.10512215 745.11089358 455.05917848 744.24676658 457.7734375 742.16796875 C459.49900912 739.28943313 460.16737097 736.69762295 460.65551758 733.39501953 C460.79957535 732.44081619 460.94363312 731.48661285 461.09205627 730.50349426 C461.31525795 728.94908882 461.31525795 728.94908882 461.54296875 727.36328125 C461.78484169 725.72905464 461.78484169 725.72905464 462.03160095 724.06181335 C462.55875233 720.47344723 463.07362028 716.88348128 463.5859375 713.29296875 C463.76362671 712.05759369 463.94131592 710.82221863 464.12438965 709.54940796 C472.64459483 650.11546601 477.73103832 590.10293699 479.43237305 530.078125 C479.93595954 513.25911275 479.93595954 513.25911275 482.06469727 510.4855957 C487.0013571 506.67888715 494.44060022 507.94450938 500.3359375 507.91796875 C501.48513672 507.89734375 502.63433594 507.87671875 503.81835938 507.85546875 C504.91857422 507.8503125 506.01878906 507.84515625 507.15234375 507.83984375 C508.66163452 507.8258252 508.66163452 507.8258252 510.20141602 507.81152344 C512.7734375 508.16796875 512.7734375 508.16796875 514.56225586 509.56347656 C517.18355627 513.0359995 516.86269108 516.07481781 516.7578125 520.25 C516.74254013 520.98973557 516.72726776 521.72947113 516.71153259 522.49162292 C516.65630284 524.98814542 516.59098437 527.48425023 516.5234375 529.98046875 C516.50076813 530.8530835 516.47809875 531.72569824 516.45474243 532.62475586 C515.11915624 582.49411956 511.42862095 632.30325276 505.7109375 681.85546875 C505.58705658 682.92926788 505.46317566 684.00306702 505.33554077 685.10940552 C503.97463273 696.81813513 502.53273235 708.50409749 500.69065857 720.14836121 C499.89176727 725.41597019 499.11706213 730.84703224 499.7734375 736.16796875 C501.53390952 738.97078798 501.53390952 738.97078798 504.7734375 740.16796875 C507.98284488 740.52842381 511.06233945 740.31780194 514.2734375 740.04296875 C515.60169556 739.94991455 515.60169556 739.94991455 516.95678711 739.85498047 C528.75965317 739.69138333 528.75965317 739.69138333 539.34806824 735.98294067 C541.27482793 733.52953099 541.51810082 731.50752549 542.01293945 728.43310547 C542.2073613 727.25354279 542.40178314 726.0739801 542.60209656 724.8586731 C542.89767204 722.93509476 542.89767204 722.93509476 543.19921875 720.97265625 C543.41415607 719.62458425 543.62960414 718.27659359 543.84553528 716.92868042 C546.19270103 702.09262661 548.08525196 687.19452564 549.9609375 672.29296875 C550.4738408 668.22527813 550.98858263 664.15784466 551.5103302 660.09127808 C551.82991355 657.59651836 552.14520638 655.10120371 552.45536804 652.60525513 C553.98402267 640.66481096 553.98402267 640.66481096 555.7734375 635.16796875 C559.54272284 632.65511186 562.6452701 632.81025706 567.01953125 632.7109375 C568.67776596 632.64994113 570.33596849 632.58806496 571.99414062 632.52539062 C574.60544285 632.43666779 577.21637685 632.35533227 579.82836914 632.28979492 C582.35166559 632.22242131 584.87241334 632.12505485 587.39453125 632.0234375 C588.56344154 632.00593697 588.56344154 632.00593697 589.75596619 631.98808289 C593.28672492 631.82763698 595.36991552 631.50005463 598.12890625 629.22949219 C600.36727499 625.06245775 601.40776249 620.91979883 602.46484375 616.328125 C602.69622543 615.36958115 602.92760712 614.41103729 603.16600037 613.42344666 C603.90167048 610.36192132 604.6188429 607.29639188 605.3359375 604.23046875 C605.82109569 602.20349566 606.30741279 600.17679958 606.79492188 598.15039062 C607.26890342 596.16812985 607.7422202 594.18571 608.21484375 592.203125 C608.44450836 591.24008453 608.67417297 590.27704407 608.91079712 589.28482056 C609.8951873 585.10573942 610.84406456 580.93648513 611.60498047 576.71044922 C611.83459473 575.4576416 612.06420898 574.20483398 612.30078125 572.9140625 C612.55782837 571.32936157 612.55782837 571.32936157 612.82006836 569.71264648 C613.7734375 567.16796875 613.7734375 567.16796875 615.90625 565.3293457 C619.48176655 563.88105447 622.26469636 563.81188312 626.12109375 563.83984375 C626.81480576 563.84171692 627.50851776 563.84359009 628.22325134 563.84552002 C629.68314454 563.85221522 631.14302056 563.86607923 632.6027832 563.88671875 C634.83236453 563.91791875 637.06123738 563.92769941 639.29101562 563.93359375 C651.09133545 564.00965895 651.09133545 564.00965895 654.7734375 565.16796875 C655.92314365 571.49696089 655.85152658 577.66792581 655.765625 584.0859375 C655.74812033 586.41470927 655.73121095 588.74348558 655.71484375 591.07226562 C655.68380024 594.72628366 655.64812721 598.38007436 655.60205078 602.03393555 C655.55980791 605.57213224 655.53630798 609.11005811 655.515625 612.6484375 C655.49700409 613.7432695 655.47838318 614.8381015 655.459198 615.96611023 C655.45574371 616.98429337 655.45228943 618.0024765 655.44873047 619.05151367 C655.43905243 619.94529221 655.42937439 620.83907074 655.41940308 621.75993347 C655.84846303 624.67826976 656.77007533 626.0330005 658.7734375 628.16796875 C664.43378945 630.05618088 670.81568006 629.1314656 676.69335938 628.92602539 C678.76675461 628.85569544 680.84016863 628.80136855 682.9140625 628.74804688 C684.88632813 628.68327148 684.88632813 628.68327148 686.8984375 628.6171875 C688.69667969 628.56050903 688.69667969 628.56050903 690.53125 628.50268555 C693.68660064 628.17693361 695.96134283 627.61425325 698.7734375 626.16796875 C699.1034375 625.50796875 699.4334375 624.84796875 699.7734375 624.16796875 C699.1134375 624.16796875 698.4534375 624.16796875 697.7734375 624.16796875 C697.84852539 623.27400391 697.92361328 622.38003906 698.00097656 621.45898438 C698.88741972 609.50552372 698.79935558 597.6453866 698.5234375 585.66796875 C698.48893494 584.09994507 698.48893494 584.09994507 698.45373535 582.50024414 C696.51958002 498.14549598 680.82703719 415.0588088 655.9609375 334.54296875 C655.69430298 333.67745392 655.42766846 332.81193909 655.1529541 331.92019653 C653.6556558 327.08132286 652.11151471 322.26120224 650.51556396 317.45397949 C649.76381142 315.13831703 649.06608092 312.81035136 648.36962891 310.47753906 C646.38880304 303.26019148 646.38880304 303.26019148 641.76000977 297.7578125 C639.32724043 297.15237095 637.2762988 297.08871984 634.7734375 297.16796875 C633.09853642 297.03516594 631.42405386 296.89699326 629.75 296.75390625 C627.96656297 296.67370709 626.18264228 296.60373758 624.3984375 296.54296875 C622.97954224 296.48931152 622.97954224 296.48931152 621.53198242 296.43457031 C618.61270798 296.3322849 615.69341121 296.24759099 612.7734375 296.16796875 C611.37810791 296.12494629 611.37810791 296.12494629 609.95458984 296.08105469 C607.33165004 296.00698418 604.7096059 295.95724981 602.0859375 295.91796875 C601.29074707 295.89653809 600.49555664 295.87510742 599.67626953 295.85302734 C595.64023573 295.75078646 595.64023573 295.75078646 592.06399536 297.36517334 C590.32139363 299.79943413 590.41771954 301.36022116 590.44873047 304.34082031 C590.45212936 305.40290207 590.45552826 306.46498383 590.45903015 307.55924988 C590.4870446 309.29142509 590.4870446 309.29142509 590.515625 311.05859375 C590.52274002 312.25772903 590.52985504 313.45686432 590.53718567 314.69233704 C590.55779197 317.93071109 590.59087957 321.1686928 590.62795639 324.40690994 C590.66215211 327.76461878 590.67681194 331.1223792 590.69067383 334.48022461 C590.69341214 335.14286159 590.69615046 335.80549856 590.69897175 336.48821545 C590.70697812 338.47912235 590.71481758 340.47002993 590.72265625 342.4609375 C590.72906631 343.76542343 590.73547638 345.06990936 590.74208069 346.41392517 C591.02946503 410.28439409 582.76656316 473.53907827 570.7734375 536.16796875 C563.32974264 537.51027438 563.32974264 537.51027438 561.03201294 536.09643555 C559.17563186 533.25197414 559.42139385 531.00324886 559.44873047 527.625 C559.44986753 526.96118285 559.45100458 526.2973657 559.45217609 525.61343288 C559.45931739 523.40212898 559.48761372 521.19159885 559.515625 518.98046875 C559.52425097 517.42131772 559.53140983 515.86215797 559.53718567 514.30299377 C559.55182772 510.9854273 559.57508576 507.66807936 559.60507202 504.35061646 C559.65118125 499.146453 559.67408093 493.94236974 559.69067383 488.73803711 C559.69341214 487.87934619 559.69615046 487.02065527 559.69897175 486.13594341 C559.70432257 484.41028125 559.70954705 482.6846187 559.71464348 480.95895576 C559.72264774 478.38554991 559.73222442 475.81215364 559.74208069 473.23875427 C560.04638926 388.91115976 552.87798264 304.73102509 542.54019165 221.09924316 C542.23953644 218.66273415 541.94226479 216.22580502 541.64852905 213.78845215 C541.24008427 210.41851276 540.81592289 207.05094398 540.38671875 203.68359375 C540.26813507 202.68743042 540.14955139 201.69126709 540.02737427 200.66491699 C539.39977409 195.88923185 538.87499537 192.04504029 535.7734375 188.16796875 C533.52636454 187.04443227 531.90189763 186.88004441 529.40625 186.6328125 C528.52573975 186.54531738 527.64522949 186.45782227 526.73803711 186.36767578 C512.01242879 183.71671504 512.01242879 183.71671504 498.62817383 186.83300781 C496.21534142 189.87056594 496.4191913 191.16821938 496.8203125 194.98828125 C496.94857422 196.23899414 497.07683594 197.48970703 497.20898438 198.77832031 C497.39191631 200.24219811 497.58043636 201.70538444 497.7734375 203.16796875 C497.88018799 203.97762085 497.98693848 204.78727295 498.09692383 205.62145996 C498.87129193 211.36878224 499.70918313 217.10621006 500.55477905 222.84341431 C508.02743009 273.85957327 512.43767679 325.24281625 515.0234375 376.73046875 C515.06463715 377.54636475 515.10583679 378.36226074 515.14828491 379.20288086 C516.40628351 404.61386729 516.40628351 404.61386729 514.7734375 410.16796875 C509.11818878 411.92198483 503.11415732 411.11895285 497.2734375 410.91796875 C496.03722656 410.89089844 494.80101562 410.86382812 493.52734375 410.8359375 C492.34011719 410.79597656 491.15289063 410.75601562 489.9296875 410.71484375 C488.84494141 410.68229492 487.76019531 410.64974609 486.64257812 410.61621094 C483.3762613 410.10591842 481.97488528 409.63905423 479.7734375 407.16796875 C479.18334961 404.32861328 479.18334961 404.32861328 479.05078125 400.80078125 C479.02034225 400.1516124 478.98990326 399.50244354 478.95854187 398.83360291 C478.89377549 397.40985829 478.83769737 395.98569881 478.78912354 394.56130981 C478.68117736 391.4295647 478.52857766 388.30038802 478.37969971 385.17036438 C478.29999952 383.48254909 478.22254139 381.79462666 478.14715576 380.10661316 C477.69960464 370.13929128 477.06383649 360.1853236 476.3984375 350.23046875 C476.33531372 349.28581757 476.27218994 348.34116638 476.20715332 347.3678894 C473.13247814 301.77130576 468.29685949 256.41636943 461.16687012 211.26815796 C460.82381295 209.09262867 460.48528189 206.9163804 460.15148926 204.7394104 C459.68512687 201.71920191 459.19758852 198.7032189 458.703125 195.6875 C458.56782379 194.79397827 458.43252258 193.90045654 458.29312134 192.9798584 C457.45716286 188.06330019 456.56276626 184.70069176 452.7734375 181.16796875 C449.98922447 180.45537859 447.7195211 180.06392475 444.8984375 179.85546875 C444.15408447 179.78408691 443.40973145 179.71270508 442.64282227 179.63916016 C435.68775277 179.02806693 428.75146359 178.96891254 421.7734375 179.16796875 C421.51949219 177.91242188 421.26554687 176.656875 421.00390625 175.36328125 C418.86325809 164.75252868 418.86325809 164.75252868 416.3359375 154.23046875 C416.05943359 153.16505859 416.05943359 153.16505859 415.77734375 152.078125 C414.21717188 149.10954895 412.6427475 147.96151061 409.7734375 146.16796875 C406.30239193 145.48949406 402.84738165 145.42874755 399.31787109 145.34667969 C397.73858574 145.2872821 397.73858574 145.2872821 396.12739563 145.22668457 C392.64258693 145.10027588 389.15756785 145.00111356 385.671875 144.90234375 C383.23583703 144.81995162 380.79985259 144.73596292 378.36392212 144.65045166 C371.93715653 144.42956381 365.50986659 144.23215637 359.08221436 144.0390625 C353.88530659 143.8790857 348.68901971 143.70271786 343.4926815 143.52532578 C337.24009241 143.31215778 330.98727659 143.10611911 324.734375 142.90234375 C323.56348705 142.86411247 322.39259911 142.8258812 321.18622971 142.78649139 C314.69441182 142.57802439 308.2026203 142.38885691 301.70922089 142.23686218 C299.77049658 142.19136653 297.83185339 142.14225311 295.89331818 142.08930969 C293.25000872 142.02121461 290.60724818 141.97423893 287.96337891 141.93457031 C286.81611863 141.90100245 286.81611863 141.90100245 285.64568138 141.86675644 C281.1626484 141.82994736 278.33615059 142.39258808 274.7734375 145.16796875 C272.8436626 148.84385504 274.32330919 152.86937869 275.1796875 156.7265625 C275.51170221 158.30167558 275.84330637 159.87687524 276.17456055 161.45214844 C276.35352875 162.28887085 276.53249695 163.12559326 276.71688843 163.9876709 C289.91656393 226.07398797 295.85463488 289.43786379 299.4609375 352.73046875 C299.55220917 354.3208345 299.55220917 354.3208345 299.64532471 355.94332886 C300.06481741 363.3496767 300.43310978 370.75758677 300.7734375 378.16796875 C300.8228952 379.19811096 300.87235291 380.22825317 300.92330933 381.28961182 C302.09105553 406.44969811 301.96082084 431.6368309 301.95874023 456.81787109 C301.95865954 461.84883259 301.96552543 466.87970193 301.97924805 471.91064453 C302.06986954 505.71298172 301.52471562 539.40826728 299.7734375 573.16796875 C299.7334325 573.93989311 299.69342751 574.71181747 299.65221024 575.50713348 C299.17578637 584.58772921 298.60261536 593.66008402 297.9609375 602.73046875 C297.87695709 603.94016327 297.79297668 605.14985779 297.70645142 606.39620972 C293.78854816 662.4627875 287.25367491 718.3221762 275.90429688 773.40087891 C275.76433289 774.08475174 275.6243689 774.76862457 275.48016357 775.47322083 C275.09566585 777.34530675 274.70573872 779.21627524 274.31542969 781.0871582 C273.65792791 784.3031986 273.65792791 784.3031986 273.7734375 788.16796875 C273.1134375 788.16796875 272.4534375 788.16796875 271.7734375 788.16796875 C271.73179474 787.42925034 271.69015198 786.69053192 271.64724731 785.9294281 C271.02794037 776.50177371 269.65486112 767.26619954 268.140625 757.953125 C267.86876865 756.25625909 267.59738991 754.55931661 267.32644653 752.86230469 C266.74443837 749.22330922 266.15916476 745.58485999 265.57128906 741.94680786 C264.63321341 736.14110943 263.70282707 730.33419393 262.7734375 724.52709961 C261.45707204 716.30665001 260.13753427 708.08671597 258.81542969 699.8671875 C255.9440424 682.01491216 253.08123632 664.16126624 250.22607994 646.3063879 C249.43221709 641.3429599 248.63711942 636.379737 247.83880615 631.41702271 C244.71280179 611.98394303 241.62780131 592.54551811 238.74029541 573.07534599 C238.4739375 571.28114029 238.2060317 569.48716359 237.9364624 567.69343758 C237.5656492 565.22011693 237.20169881 562.74588533 236.83984375 560.27124023 C236.73085251 559.55059072 236.62186127 558.82994122 236.50956726 558.08745384 C235.41735541 550.4959785 235.2199639 545.31299469 238.95703125 538.51171875 C239.63997301 537.24125417 240.32283098 535.97074455 241.00561523 534.70019531 C241.36581757 534.04281372 241.7260199 533.38543213 242.09713745 532.70812988 C249.45257549 519.23508432 255.69951279 505.67214496 260.7734375 491.16796875 C261.33901367 489.575896 261.33901367 489.575896 261.91601562 487.95166016 C294.07122941 396.8761226 294.25272209 292.11331902 264.7734375 200.16796875 C264.49387207 199.28818359 264.21430664 198.40839844 263.92626953 197.50195312 C255.98468153 172.81951618 244.58297259 149.25093174 226.7734375 130.16796875 C226.29793457 129.65008789 225.82243164 129.13220703 225.33251953 128.59863281 C201.3978544 102.73671933 168.12204332 92.38277741 133.556427 91.04330444 C126.42816712 90.86714478 119.301304 90.83950412 112.17114258 90.85229492 C108.42175418 90.85550227 104.67312225 90.831735 100.92382812 90.80664062 C98.52343848 90.8043715 96.12304674 90.80366233 93.72265625 90.8046875 C92.61017014 90.79547775 91.49768402 90.78626801 90.35148621 90.77677917 C84.78727764 90.81012491 80.51585918 90.88652294 75.7734375 94.16796875 C74.50564878 96.70354619 74.6471461 98.45778411 74.64749146 101.29667664 C74.64647871 102.37770314 74.64546597 103.45872965 74.64442253 104.57251453 C74.64977579 105.76118972 74.65512905 106.9498649 74.66064453 108.17456055 C74.66385775 109.42298831 74.66707096 110.67141607 74.67038155 111.95767498 C74.73918328 126.55345708 75.11990408 141.14132895 75.51545501 155.73116207 C75.62354779 159.75223794 75.72707902 163.77343145 75.83100891 167.7946167 C76.0085213 174.64658374 76.18807161 181.49849435 76.36898804 188.35037231 C76.84259942 206.30488739 77.2989024 224.25984893 77.75390625 242.21484375 C77.78779949 243.55066494 77.78779949 243.55066494 77.82237744 244.91347241 C78.59883716 275.52466973 79.31570516 306.13626863 79.90354156 336.7517662 C79.958705 339.61460756 80.01493903 342.47742588 80.07147217 345.34024048 C80.31490253 357.74289603 80.5268845 370.1459034 80.71774292 382.54947662 C80.75689313 385.09307682 80.79636246 387.63667051 80.83621216 390.1802597 C81.6084361 439.59909869 81.93663228 489.00773205 81.90200669 538.43240017 C81.89821344 544.47544689 81.89962231 550.51847729 81.90380859 556.56152344 C81.92687125 590.80713221 81.89929318 625.04927102 81.3595252 659.29136658 C81.32863666 661.26035326 81.29895364 663.22935873 81.26929092 665.19836426 C80.7091251 701.23228115 80.7091251 701.23228115 77.7734375 704.16796875 C75.6796875 704.46875 75.6796875 704.46875 73.2734375 704.48046875 C72.479375 704.49722656 71.6853125 704.51398437 70.8671875 704.53125 C69.83078125 704.35142578 69.83078125 704.35142578 68.7734375 704.16796875 C66.34084588 700.51908132 66.24928451 697.49366527 65.94921875 693.25 C65.88272125 692.41051315 65.81622375 691.57102631 65.74771118 690.70610046 C65.59970885 688.82227284 65.45585091 686.93811656 65.31539917 685.05371094 C65.07679517 681.85802309 64.82676189 678.66338458 64.57446289 675.46875 C64.02015266 668.42118397 63.4786843 661.37265272 62.93864441 654.32398224 C56.00032868 563.77630245 47.92406522 473.33652668 7.7734375 107.66796875 C7.63136871 106.55802551 7.48929993 105.44808228 7.34292603 104.30450439 C6.95259025 101.2683165 6.55244121 98.23361406 6.1484375 95.19921875 C6.0374321 94.3276413 5.9264267 93.45606384 5.8120575 92.55807495 C5.70392227 91.76482819 5.59578705 90.97158142 5.484375 90.15429688 C5.39462402 89.47500122 5.30487305 88.79570557 5.21240234 88.0958252 C4.7052299 85.86841294 3.94197946 84.12895957 2.7734375 82.16796875 C0.04472797 80.80361399 -2.13462087 81.02569889 -5.18920898 81.00683594 C-6.44068222 80.99722839 -7.69215546 80.98762085 -8.98155212 80.97772217 C-10.35358499 80.97287492 -11.72561996 80.96859591 -13.09765625 80.96484375 C-14.50008649 80.95909269 -15.90251671 80.95333495 -17.3049469 80.9475708 C-20.24635179 80.93706203 -23.18772936 80.93121836 -26.12915039 80.92773438 C-29.90000899 80.9222455 -33.67050724 80.89820903 -37.44125271 80.86976242 C-40.33829305 80.8511495 -43.23524629 80.84593121 -46.13234138 80.8443985 C-47.52263423 80.84136908 -48.91292545 80.83333077 -50.30315971 80.82021332 C-52.2468745 80.80318064 -54.19073763 80.80687385 -56.13452148 80.81152344 C-57.24101547 80.80787781 -58.34750946 80.80423218 -59.48753357 80.80047607 C-62.23606833 80.94055987 -62.23606833 80.94055987 -64.04530334 82.54444885 Z " fill="#0092CB" transform="translate(827.2265625,99.83203125)"/>
<path d="M0 0 C1.75779058 0.09675316 3.51560306 0.19310941 5.2734375 0.2890625 C9.51589024 0.52148649 13.75801416 0.75921095 18 1 C19.46556372 6.53128338 20.54845828 11.97561893 21.33203125 17.640625 C21.5071801 18.87422005 21.5071801 18.87422005 21.68586731 20.13273621 C22.06730247 22.83770612 22.44089175 25.54366333 22.8125 28.25 C22.9428363 29.19449005 23.07317261 30.1389801 23.2074585 31.11209106 C30.20630152 82.01146163 34.80070533 133.10862662 36.89285278 184.45022583 C36.96720888 186.2196721 37.04603535 187.98893396 37.12838745 189.75802612 C38.23852302 213.68516946 38.20092227 237.61474014 38.1875 261.5625 C38.18709969 263.16156126 38.18709969 263.16156126 38.18669128 264.79292679 C38.17649666 297.2387104 37.99014992 329.60496243 36 362 C35.93447937 363.09380981 35.86895874 364.18761963 35.80145264 365.3145752 C32.38349562 422.24445209 26.88865003 478.80920045 17 535 C0.91136928 536.13570359 -15.18031923 537.19650965 -31.3125 537.375 C-32.43696533 537.40078125 -33.56143066 537.4265625 -34.7199707 537.453125 C-35.75726318 537.45570313 -36.79455566 537.45828125 -37.86328125 537.4609375 C-38.76344971 537.46915527 -39.66361816 537.47737305 -40.59106445 537.48583984 C-43.80737722 536.83716624 -45.00161513 535.55307835 -47 533 C-47.8705958 525.98548525 -46.0807763 519.00521689 -44.83615112 512.10662842 C-35.9958655 462.61916563 -30.82594721 412.36179567 -28.16796875 362.1796875 C-28.10398895 360.99132797 -28.04000916 359.80296844 -27.97409058 358.57859802 C-27.67360315 352.92737069 -27.39707118 347.27669072 -27.16308594 341.62231445 C-27.06612227 339.61668144 -26.96881173 337.61106515 -26.87109375 335.60546875 C-26.84202438 334.70001312 -26.81295502 333.7945575 -26.78300476 332.86166382 C-26.5718492 328.83620014 -26.28767957 326.48431834 -24.19555664 322.9621582 C-20.08715276 319.2904978 -16.12146463 319.87069743 -10.75 319.82421875 C-9.32290174 319.8010313 -7.89581833 319.77691441 -6.46875 319.75195312 C-4.23036568 319.71679397 -1.99253368 319.68745536 0.24609375 319.67407227 C2.41473046 319.65858881 4.58178282 319.61840045 6.75 319.57421875 C8.04421875 319.55963623 9.3384375 319.54505371 10.671875 319.5300293 C14.00416779 319.23129965 14.00416779 319.23129965 16.41503906 317.42456055 C18.52714153 314.19361638 18.60265696 311.37495283 18.609375 307.6328125 C18.62600189 306.89733688 18.64262878 306.16186127 18.65975952 305.40409851 C18.70923491 302.97763896 18.7301448 300.55186862 18.75 298.125 C18.77717408 296.43707152 18.80567597 294.74916393 18.83544922 293.0612793 C18.92139414 287.70766625 18.96290573 282.35413893 19 277 C19.01520011 275.17887287 19.03049935 273.35774656 19.04589844 271.53662109 C19.08715966 266.29526635 19.11104737 261.05399385 19.125 255.8125 C19.12786011 254.98341125 19.13072021 254.15432251 19.13366699 253.30010986 C19.13938858 250.95653505 19.13758507 248.61310559 19.1328125 246.26953125 C19.13575821 245.22680305 19.13575821 245.22680305 19.13876343 244.16300964 C19.12422755 241.15746814 18.9591135 238.8773405 18 236 C13.90094645 233.68894946 9.79959398 233.72008201 5.21484375 233.7265625 C3.69986226 233.70628461 2.18488834 233.68543405 0.66992188 233.6640625 C-1.70229538 233.64142543 -4.07421269 233.62497121 -6.4465332 233.61914062 C-8.74744854 233.60961992 -11.04703821 233.57586786 -13.34765625 233.5390625 C-14.05503433 233.54410797 -14.76241241 233.54915344 -15.4912262 233.55435181 C-18.87315953 233.48682543 -20.69548551 233.23271739 -23.41577148 231.15380859 C-25.84531704 227.85076484 -26.13887771 225.1073566 -26.24951172 221.12524414 C-26.27993057 220.12455902 -26.31034943 219.1238739 -26.34169006 218.09286499 C-26.37072922 217.00132111 -26.39976837 215.90977722 -26.4296875 214.78515625 C-26.50131583 212.42601342 -26.57335503 210.06688304 -26.64575195 207.70776367 C-26.70117661 205.83923233 -26.70117661 205.83923233 -26.75772095 203.93295288 C-27.55664518 177.56678992 -28.80641904 151.28711216 -31 125 C-31.12408234 123.50907837 -31.12408234 123.50907837 -31.25067139 121.98803711 C-34.32792868 85.33775139 -38.03230943 48.50535247 -44.67895508 12.3046875 C-45.02826032 9.79712746 -45.20303467 7.52711699 -45 5 C-35.89118256 -6.1329991 -13.09872875 -0.74521214 0 0 Z " fill="#0091CA" transform="translate(1227,305)"/>
<path d="M0 0 C2.68963104 0.56623811 5.15187146 1.16846985 7.75 2 C8.78435181 2.32895264 8.78435181 2.32895264 9.83959961 2.66455078 C26.64698159 8.38695765 38.31382869 21.60739935 46.140625 37.10546875 C62.39106339 71.08330936 64.73278997 109.85370963 66.625 146.875 C66.69036957 148.13934875 66.75573914 149.40369751 66.8230896 150.70635986 C69.33262088 199.76670599 70.45338886 251.92872859 48 297 C47.49597656 298.05703125 46.99195313 299.1140625 46.47265625 300.203125 C42.97707847 307.13618232 38.38562755 312.4533404 33 318 C32.26523437 318.81984375 31.53046875 319.6396875 30.7734375 320.484375 C25.71328163 325.95578029 21.12090549 328.84059184 14 331 C13.01 331.33 12.02 331.66 11 332 C8.625 332.23828125 8.625 332.23828125 6 332.3125 C5.13375 332.34988281 4.2675 332.38726563 3.375 332.42578125 C1 332 1 332 -0.62364578 330.24901009 C-2.15126547 327.75282702 -2.38024513 326.48314673 -2.39666748 323.59005737 C-2.40929878 322.70864956 -2.42193008 321.82724174 -2.43494415 320.9191246 C-2.43417625 319.95565235 -2.43340836 318.9921801 -2.43261719 317.99951172 C-2.45019703 316.46067511 -2.45019703 316.46067511 -2.46813202 314.89075089 C-2.49297081 312.64055509 -2.51147945 310.3902829 -2.52454376 308.13998795 C-2.56348365 301.8881529 -2.65647 295.63705244 -2.74414062 289.38574219 C-2.75290427 288.72429302 -2.76166791 288.06284384 -2.77069712 287.38135076 C-2.98165273 271.52091618 -3.4774073 255.67253788 -4.015625 239.8203125 C-4.06419897 238.37956233 -4.11275552 236.93881156 -4.16129494 235.49806023 C-4.46268227 226.57690049 -4.77359159 217.65608905 -5.08795547 208.73537827 C-5.22481597 204.84869916 -5.35998571 200.96196331 -5.49460095 197.07520586 C-7.09091717 150.98497264 -8.9529544 104.91669918 -11.3135004 58.85831165 C-11.47231417 55.75772366 -11.62959218 52.65706084 -11.78660583 49.55638123 C-11.9735104 45.86549143 -12.16690386 42.17504058 -12.3653717 38.48475647 C-12.57710414 34.46271687 -12.75823086 30.4406066 -12.90839005 26.41579819 C-12.9719358 24.7400664 -13.04244725 23.06458991 -13.11846542 21.38937759 C-13.2294331 18.7854719 -13.30415455 16.18279099 -13.36987305 13.57739258 C-13.4083199 12.78902102 -13.44676676 12.00064947 -13.48637867 11.18838787 C-13.54817424 7.14051166 -13.19228668 5.25331738 -10.71614075 1.99125671 C-7.11782633 -0.64673904 -4.24903458 -0.60416581 0 0 Z " fill="#0091CB" transform="translate(979,260)"/>
<path d="M0 0 C3.11605764 0.57233712 4.93152847 1.24604136 7.04541016 3.6550293 C8.39097605 6.17853057 8.69137359 8.43691902 9.0859375 11.26953125 C9.24900391 12.43460205 9.41207031 13.59967285 9.58007812 14.80004883 C10.42397647 21.38168717 11.21029583 27.96714571 11.9375 34.5625 C12.02176239 35.31951202 12.10602478 36.07652405 12.19284058 36.85647583 C13.90542133 52.31239244 15.28599238 67.79412837 16.62573242 83.28613281 C17.66738019 95.30583831 18.83467187 107.30143911 20.12475586 119.29711914 C20.9312019 126.92072235 21.51580596 134.52124068 21.8515625 142.1796875 C22.01535702 145.55959725 22.01535702 145.55959725 22.54663086 148.8699646 C23.02115975 152.26659095 23.31921528 155.60401891 23.52734375 159.02587891 C23.60412354 160.26471832 23.68090332 161.50355774 23.76000977 162.77993774 C23.84003468 164.11631098 23.92003068 165.45268594 24 166.7890625 C24.08558104 168.18282738 24.17144228 169.57657509 24.25756836 170.9703064 C24.48317561 174.63118234 24.70558339 178.29224511 24.92712402 181.95336914 C25.28077847 187.78978372 25.63912288 193.62591142 25.99783325 199.46201706 C26.1212864 201.47840732 26.24316278 203.49489392 26.36499023 205.51138306 C26.72881171 211.4712503 27.11886227 217.42606196 27.58764648 223.37866211 C28.01099479 228.75904079 28.34012374 234.13670395 28.59765625 239.52734375 C28.66212196 240.84829796 28.66212196 240.84829796 28.72789001 242.19593811 C28.81704183 244.03674724 28.9052182 245.87760387 28.99243164 247.71850586 C29.1245984 250.49157383 29.26235227 253.26432824 29.40039062 256.03710938 C29.61477125 260.42111723 29.80368617 264.80550013 29.97003174 269.19158936 C30.02945261 270.71515625 30.09452876 272.23851886 30.16668701 273.76153564 C30.25548484 275.69565443 30.31432829 277.63108245 30.37109375 279.56640625 C30.42801392 281.1433728 30.42801392 281.1433728 30.48608398 282.75219727 C29.94117054 286.36747029 28.61148993 287.99054879 26.0625 290.5625 C23.11758934 291.54413689 21.18970352 291.69452954 18.11962891 291.70776367 C16.61258896 291.71733345 16.61258896 291.71733345 15.07510376 291.72709656 C13.44851334 291.72876579 13.44851334 291.72876579 11.7890625 291.73046875 C10.11521988 291.73546135 10.11521988 291.73546135 8.40756226 291.74055481 C6.04547539 291.74562048 3.68338136 291.74796325 1.32128906 291.74780273 C-2.2911358 291.74998708 -5.90325428 291.76814098 -9.515625 291.78710938 C-11.80989479 291.79004379 -14.10416603 291.79202826 -16.3984375 291.79296875 C-17.47878265 291.80015427 -18.55912781 291.80733978 -19.67221069 291.81474304 C-20.68320831 291.81166641 -21.69420593 291.80858978 -22.73583984 291.80541992 C-24.06462662 291.80755745 -24.06462662 291.80755745 -25.42025757 291.80973816 C-29.21862324 291.43667082 -31.87756032 290.51436175 -34.73414612 287.9490509 C-36.483271 284.48009997 -36.29678444 281.16829957 -36.19116211 277.37768555 C-36.1793563 276.5803258 -36.16755049 275.78296606 -36.15538692 274.9614439 C-35.99865327 266.7967736 -35.48147445 258.66141071 -34.87890625 250.51953125 C-34.76871767 248.97022369 -34.65902305 247.42088092 -34.54978943 245.87150574 C-34.32247761 242.66559024 -34.09107051 239.46000921 -33.85620117 236.25463867 C-33.55643125 232.16236865 -33.26456393 228.06958293 -32.97538853 223.97655201 C-32.75017087 220.79443589 -32.52221022 217.61252132 -32.29328728 214.43066978 C-32.18473216 212.92093322 -32.07669611 211.41115923 -31.96920967 209.90134621 C-31.81871296 207.79707175 -31.66485605 205.69306965 -31.51000977 203.58911133 C-31.42340591 202.39763992 -31.33680206 201.20616852 -31.24757385 199.97859192 C-30.930276 196.48291299 -30.45342689 193.0338236 -29.9375 189.5625 C-29.8203672 188.15539694 -29.72262219 186.74634661 -29.65625 185.3359375 C-29.61886719 184.6140625 -29.58148437 183.8921875 -29.54296875 183.1484375 C-29.47228441 181.66668436 -29.4019758 180.18491325 -29.33203125 178.703125 C-29.18281287 175.8319576 -29.0331003 173.0316866 -28.45825195 170.21044922 C-27.86962298 167.21735504 -27.58562934 164.27374426 -27.32421875 161.234375 C-27.21271484 159.97657227 -27.10121094 158.71876953 -26.98632812 157.42285156 C-26.92775635 156.75451294 -26.86918457 156.08617432 -26.80883789 155.39758301 C-25.60881513 141.78696627 -24.11371345 128.23164361 -22.42089844 114.67431641 C-21.30121923 105.68850099 -20.30065623 96.6955805 -19.375 87.6875 C-18.51491268 79.41066773 -17.51438574 71.20145401 -16.13037109 62.99609375 C-15.11000881 56.8870184 -14.29433951 50.76125505 -13.50561523 44.61816406 C-12.16485087 34.19503208 -10.78666383 23.78434094 -8.9375 13.4375 C-8.79578369 12.58559082 -8.65406738 11.73368164 -8.50805664 10.85595703 C-7.45470298 5.26769942 -6.16219309 1.17999442 0 0 Z " fill="#0092CB" transform="translate(787.9375,377.4375)"/>
<path d="M0 0 C10.53261403 5.59784208 10.53261403 5.59784208 12 10 C12.99 10.33 13.98 10.66 15 11 C31.88115058 31.96142868 33.09578308 62.87148894 30.50390625 88.5625 C28.12883348 108.39766379 22.1377951 128.77279879 6.39453125 142.2265625 C-3.37318408 149.58334668 -15.49836993 156.86588366 -28.21484375 155.70703125 C-32.05383347 154.73247706 -33.58872456 153.10021128 -36 150 C-36.95902877 145.77850613 -37.13077452 141.71013019 -37.14526367 137.3918457 C-37.15155289 136.08810501 -37.1578421 134.78436432 -37.1643219 133.44111633 C-37.16583121 132.01933825 -37.16703807 130.59755983 -37.16796875 129.17578125 C-37.17195821 127.68666023 -37.17614847 126.19753973 -37.18052673 124.7084198 C-37.19191271 119.90976881 -37.19018793 115.11116024 -37.1875 110.3125 C-37.18755599 108.66764323 -37.18761704 107.02278646 -37.18768311 105.37792969 C-37.18005381 79.87306484 -36.72689971 54.45398715 -35 29 C-34.91459961 27.69224609 -34.82919922 26.38449219 -34.74121094 25.03710938 C-34.51088085 21.60654596 -34.26366279 18.17814896 -34 14.75 C-33.9292627 13.82638672 -33.85852539 12.90277344 -33.78564453 11.95117188 C-32.68292805 -0.54789021 -32.68292805 -0.54789021 -28.75 -3.94140625 C-19.96194027 -7.32430992 -8.32191269 -3.44177871 0 0 Z " fill="#0092CB" transform="translate(274,444)"/>
<path d="M0 0 C3.70708798 3.63125641 4.50835108 6.18562748 4.59008789 11.30419922 C4.62027512 12.56987228 4.65046234 13.83554535 4.68156433 15.13957214 C4.69545238 16.52794203 4.70914367 17.9163139 4.72265625 19.3046875 C4.75150324 20.76117269 4.78229364 22.21762051 4.81489563 23.67402649 C4.88155346 26.78400552 4.93723544 29.8939055 4.98431396 33.00424194 C5.09809453 40.39599219 5.27722798 47.78629096 5.45281219 55.17678642 C5.49218884 56.84204075 5.53092751 58.50731029 5.56903839 60.17259407 C5.92068127 75.52563938 6.51684713 90.85336864 7.375 106.1875 C7.43612976 107.28770477 7.49725952 108.38790955 7.5602417 109.52145386 C8.57446173 127.413399 10.00983922 145.26283336 11.72998047 163.1003418 C11.81446945 163.98316833 11.89895844 164.86599487 11.98600769 165.77557373 C12.14241277 167.39618845 12.30232468 169.01647097 12.4667511 170.6362915 C13.76651407 184.00353171 13.76651407 184.00353171 11.125 187.4375 C6.12364673 191.11496564 0.76891313 190.26183575 -5.25 190.3125 C-6.38308594 190.34150391 -7.51617187 190.37050781 -8.68359375 190.40039062 C-15.05794162 190.4489642 -19.22525934 190.43721589 -24 186 C-25.61931322 182.76137355 -25.15680659 179.22413736 -25.140625 175.66796875 C-25.13806702 174.81881393 -25.13550903 173.96965912 -25.13287354 173.09477234 C-25.05506099 163.47494899 -24.41915711 153.90599422 -23.75 144.3125 C-23.46885529 140.16683362 -23.19148878 136.02091666 -22.9140625 131.875 C-22.84013275 130.77960403 -22.766203 129.68420807 -22.69003296 128.55561829 C-22.14902207 120.46582271 -21.66410275 112.37367898 -21.20196915 104.2790184 C-19.75354161 78.95070318 -18.28012161 53.65036682 -15.375 28.4375 C-15.27076721 27.52416901 -15.16653442 26.61083801 -15.05914307 25.66983032 C-14.76512449 23.13148548 -14.46019377 20.59481584 -14.1484375 18.05859375 C-14.06209045 17.33564117 -13.97574341 16.6126886 -13.88677979 15.86782837 C-12.44136072 4.65489564 -12.44136072 4.65489564 -9.3125 1.0625 C-5.95919432 -0.47820801 -3.64180231 -0.52025747 0 0 Z " fill="#0092CB" transform="translate(404,448)"/>
<path d="M0 0 C3.0625 0.3125 3.0625 0.3125 4.68041992 1.53637695 C6.38179096 3.72282357 6.74101119 5.32021559 7.23828125 8.04296875 C7.51599365 9.55129272 7.51599365 9.55129272 7.79931641 11.09008789 C7.98929199 12.21535889 8.17926758 13.34062988 8.375 14.5 C8.68703369 16.30488892 8.68703369 16.30488892 9.00537109 18.14624023 C13.50953133 44.89534695 16.5990169 71.98114089 18.9375 99 C18.99907288 99.69908478 19.06064575 100.39816956 19.12408447 101.11843872 C19.50473233 105.51359055 19.81034375 109.90821112 20.0625 114.3125 C20.14274414 115.53146973 20.22298828 116.75043945 20.30566406 118.00634766 C20.35174805 119.16569824 20.39783203 120.32504883 20.4453125 121.51953125 C20.49316895 122.54151611 20.54102539 123.56350098 20.59033203 124.61645508 C20.0625 127.3125 20.0625 127.3125 17.94311523 129.64135742 C14.54800175 131.61097788 12.4961794 131.82803373 8.58984375 131.84375 C6.74616211 131.85148437 6.74616211 131.85148437 4.86523438 131.859375 C3.58970703 131.84390625 2.31417969 131.8284375 1 131.8125 C-0.9190918 131.83570313 -0.9190918 131.83570313 -2.87695312 131.859375 C-4.10478516 131.85421875 -5.33261719 131.8490625 -6.59765625 131.84375 C-7.71793213 131.83923828 -8.83820801 131.83472656 -9.99243164 131.83007812 C-13.61364822 131.193671 -14.83249828 130.30339544 -16.9375 127.3125 C-17.21044922 125.06152344 -17.21044922 125.06152344 -16.8671875 122.421875 C-16.73924805 121.35646484 -16.61130859 120.29105469 -16.47949219 119.19335938 C-16.30063477 117.91267578 -16.12177734 116.63199219 -15.9375 115.3125 C-15.73183958 113.72220603 -15.52785212 112.13169515 -15.32519531 110.54101562 C-14.72510624 105.88442343 -14.09871791 101.23165678 -13.46887207 96.57901001 C-10.38010247 73.65099623 -7.63691461 50.75642485 -6.38671875 27.64453125 C-6.34255829 26.83274918 -6.29839783 26.0209671 -6.25289917 25.18458557 C-6.04070233 21.22434518 -5.84349574 17.26416882 -5.67089844 13.30200195 C-5.60224839 11.88102045 -5.53356526 10.46004055 -5.46484375 9.0390625 C-5.41062256 7.78689941 -5.35640137 6.53473633 -5.30053711 5.24462891 C-4.8030746 1.22679117 -4.0317421 0.42890873 0 0 Z " fill="#0092CB" transform="translate(1460.9375,480.6875)"/>
</svg>
