<?xml version="1.0" encoding="UTF-8"?>
<svg version="1.1" xmlns="http://www.w3.org/2000/svg" width="3491" height="2210">
<path d="M0 0 C1.14122281 -0.00205263 2.28244562 -0.00410527 3.45825094 -0.0062201 C7.28040195 -0.01187225 11.10251673 -0.01043505 14.92467117 -0.00901413 C17.69361439 -0.01105015 20.46255528 -0.01457363 23.23149705 -0.01801753 C30.04224202 -0.0255778 36.85297915 -0.02778959 43.66372788 -0.02834659 C51.82449015 -0.02926219 59.98524522 -0.0359356 68.14600438 -0.04269341 C87.86902215 -0.05873629 107.59203914 -0.06465494 127.31506226 -0.06944216 C136.65074881 -0.07178002 145.98643474 -0.0753829 155.32212081 -0.07913754 C187.29702695 -0.0919721 219.27193276 -0.10269091 251.24684143 -0.10614014 C253.25322203 -0.10636177 255.25960264 -0.10658355 257.26598324 -0.10680549 C259.27713363 -0.10702613 261.28828403 -0.10724661 263.29943442 -0.10746694 C267.33395751 -0.10790948 271.3684806 -0.1083566 275.40300369 -0.10880661 C276.90348905 -0.1089707 276.90348905 -0.1089707 278.43428724 -0.1091381 C310.85540966 -0.11276713 343.2765097 -0.12868188 375.69762355 -0.15199697 C409.99777086 -0.17661811 444.29790539 -0.19031405 478.5980618 -0.19150805 C482.36673435 -0.1916795 486.13540689 -0.19189493 489.90407944 -0.19214249 C490.8319914 -0.19219826 491.75990336 -0.19225402 492.71593387 -0.19231148 C507.61999411 -0.19345999 522.5240313 -0.20446504 537.42808377 -0.21902954 C552.42234908 -0.23342829 567.41658499 -0.23661252 582.41085532 -0.22858956 C591.30678711 -0.22414907 600.20262368 -0.22793028 609.09854287 -0.24382807 C615.05604523 -0.25363602 621.01348148 -0.25234486 626.97098335 -0.24239184 C630.3555108 -0.23704125 633.73970993 -0.23785136 637.12424478 -0.24890056 C673.0213717 -0.35860067 705.54291374 6.07841422 737.32048416 23.13142776 C739.05685135 24.03634964 739.05685135 24.03634964 740.82829666 24.95955276 C755.95824519 33.16212167 768.98851638 44.22470025 781.32048416 56.13142776 C782.29501541 57.02861526 782.29501541 57.02861526 783.28923416 57.94392776 C814.50512368 87.39288014 834.90119917 135.0805557 836.41371575 177.76233449 C836.45059799 180.73793249 836.45692781 183.7120712 836.45191193 186.68789577 C836.45499088 188.39799922 836.45499088 188.39799922 836.45813203 190.14265022 C836.46379119 193.9668978 836.4623461 197.79110924 836.46092606 201.61536026 C836.46296135 204.38344042 836.46648499 207.15151825 836.46992946 209.91959697 C836.47749427 216.73208883 836.47970175 223.54457285 836.48025851 230.35706848 C836.48117367 238.51911593 836.4878458 246.68115618 836.49460534 254.84320052 C836.51065325 274.5706829 836.51656755 294.2981645 836.52135408 314.02565223 C836.52369156 323.36309614 836.52729442 332.70053943 836.53104946 342.03798285 C836.54388482 374.01720573 836.55460329 405.99642826 836.55805206 437.97565365 C836.55827369 439.98257478 836.55849548 441.98949591 836.55871741 443.99641703 C836.55893805 446.00812107 836.55915854 448.0198251 836.55937886 450.03152913 C836.55982141 454.0671887 836.56026853 458.10284827 836.56071854 462.13850784 C836.56082793 463.1391143 836.56093732 464.13972076 836.56105002 465.17064862 C836.56467878 497.59845409 836.58059207 530.02623717 836.6039089 562.45403407 C836.62853011 596.7588023 836.642226 631.06355775 836.64341998 665.36833507 C836.64359143 669.13758489 836.64380685 672.9068347 836.64405441 676.67608452 C836.64411018 677.60414298 836.64416595 678.53220145 836.64422341 679.48838289 C836.64537196 694.39528759 836.65637736 709.30216924 836.67094147 724.20906617 C836.68534038 739.20681415 836.68852436 754.20453273 836.68050149 769.20228573 C836.67606097 778.10043417 836.67984229 786.99848742 836.69574 795.89662327 C836.70554794 801.85563864 836.70425679 807.81458791 836.69430377 813.77360279 C836.68895315 817.15901201 836.68976336 820.54409298 836.70081249 823.9295096 C836.76055227 843.48338184 835.86379248 862.80114896 830.63298416 881.75642776 C830.250616 883.17133499 830.250616 883.17133499 829.86052322 884.6148262 C816.66602234 931.67048346 784.67053951 973.82412824 742.06657791 998.07674026 C727.33760821 1006.23754273 712.37226746 1012.96146883 696.07048416 1017.31892776 C695.19126297 1017.55692093 694.31204178 1017.79491409 693.40617752 1018.04011917 C674.67463436 1022.82742321 656.56977949 1023.56426643 637.31683731 1023.51237869 C634.50569728 1023.51417852 631.69457119 1023.52048626 628.88343757 1023.52656043 C622.79962942 1023.53732995 616.71590132 1023.53710751 610.63208961 1023.52941895 C601.58482207 1023.51801662 592.53762138 1023.52390105 583.49035421 1023.53304387 C567.32659528 1023.54880162 551.16287202 1023.54748764 534.99910973 1023.53880713 C520.85294945 1023.53124784 506.70680222 1023.52929623 492.56064034 1023.53287506 C491.62074673 1023.53310422 490.68085312 1023.53333337 489.71247788 1023.53356947 C485.89672655 1023.53450355 482.08097522 1023.53545876 478.2652239 1023.53644876 C442.5003332 1023.54561731 406.73546516 1023.53731894 370.97057797 1023.52115807 C339.2270938 1023.50692337 307.48364575 1023.50819515 275.7401619 1023.52254105 C240.04042235 1023.53862114 204.34070282 1023.5449658 168.64096016 1023.53570426 C164.83202136 1023.53474217 161.02308256 1023.53380364 157.21414375 1023.53287506 C156.27635024 1023.53263783 155.33855673 1023.5324006 154.37234524 1023.53215618 C140.23914758 1023.52875033 126.10596443 1023.53272233 111.97276878 1023.54031372 C95.8945415 1023.54890701 79.81635533 1023.54671404 63.73813314 1023.53047149 C54.75064696 1023.52169051 45.76324993 1023.52104708 36.77576615 1023.53241001 C30.76009944 1023.53917389 24.74450369 1023.5348847 18.72884744 1023.52189571 C15.30962605 1023.51481133 11.89072402 1023.51389033 8.47148675 1023.52311365 C-10.3197014 1023.56989149 -28.51939717 1022.64683179 -46.67951584 1017.44392776 C-47.58339035 1017.18974075 -48.48726486 1016.93555374 -49.41852951 1016.67366409 C-98.00463358 1002.53990931 -139.59253652 969.33408985 -164.07795334 925.04939651 C-171.80897837 910.6405336 -177.59105912 895.95781495 -181.67951584 880.13142776 C-181.87915939 879.38135452 -182.07880295 878.63128128 -182.28449631 877.85847855 C-184.82943781 868.08031933 -186.0722709 858.34920598 -186.77454948 848.27753448 C-186.85998054 847.05499885 -186.9454116 845.83246322 -187.03343148 844.57288106 C-187.89201499 831.31030241 -187.94742706 818.07880674 -187.90897751 804.79372025 C-187.90746208 802.05604032 -187.90898418 799.31836376 -187.91033375 796.58068395 C-187.91164568 790.68515371 -187.90559584 784.78966898 -187.89438438 778.89414978 C-187.87772024 770.12678925 -187.87280493 761.35944779 -187.86992987 752.59207329 C-187.8640412 736.0177081 -187.84438031 719.44337708 -187.82007961 702.86902997 C-187.8013504 690.06765595 -187.78594972 677.26628195 -187.77284241 664.46490097 C-187.76901966 660.76767451 -187.76518228 657.07044807 -187.76134121 653.37322164 C-187.7603871 652.45387235 -187.75943298 651.53452307 -187.75844996 650.58731472 C-187.73153013 624.76919977 -187.70018219 598.95109328 -187.65987587 573.13299561 C-187.65836185 572.1617958 -187.65684783 571.190596 -187.65528794 570.1899659 C-187.64760672 565.26850449 -187.63989195 560.34704313 -187.63216887 555.42558178 C-187.63063604 554.44830998 -187.62910321 553.47103817 -187.62752393 552.46415206 C-187.62442392 550.4878799 -187.62132124 548.51160773 -187.61821588 546.53533557 C-187.56999169 515.77049522 -187.53801501 485.00567418 -187.51838303 454.24080276 C-187.49627079 419.61070676 -187.46071159 384.98065971 -187.40624344 350.35059857 C-187.40047827 346.65462962 -187.39476383 342.95866059 -187.38908386 339.2626915 C-187.3876774 338.35276604 -187.38627094 337.44284059 -187.38482186 336.50534163 C-187.36256315 321.90580035 -187.35295307 307.30627746 -187.34780904 292.70672131 C-187.34227846 278.02600438 -187.32176968 263.34536526 -187.28637795 248.66468951 C-187.26580682 239.96015281 -187.25602483 231.25576722 -187.2622705 222.55120756 C-187.26534218 216.7193332 -187.25370239 210.88760147 -187.23067188 205.05577226 C-187.21799461 201.74491238 -187.21338379 198.43462174 -187.22236095 195.12371239 C-187.34862927 143.10721903 -170.11230658 95.74622186 -133.67951584 58.13142776 C-133.17307541 57.59920609 -132.66663498 57.06698441 -132.14484787 56.5186348 C-98.15897088 20.85909196 -49.28231437 -0.08327587 0 0 Z " fill="#AB1E40" transform="translate(463.67951583862305,588.8685722351074)"/>
<path d="M0 0 C61.89265781 55.9657562 96.48086169 133.93505488 101.9387207 216.75415039 C104.72687247 272.93752943 94.42030132 329.29653024 68.14941406 379.33691406 C67.08576057 381.367297 66.04120357 383.40677441 64.99804688 385.44775391 C59.85880872 395.41538919 54.17905483 404.98308777 48.20922852 414.47436523 C47.84821045 415.08046631 47.48719238 415.68656738 47.11523438 416.31103516 C46.71747803 416.96547607 46.31972168 417.61991699 45.90991211 418.29418945 C44.99043302 420.24927317 44.99043302 420.24927317 45.15161133 422.24194336 C46.59011335 425.33069548 49.00358609 427.22692118 51.53320312 429.41650391 C57.19426876 434.47845061 62.62533574 439.72564093 67.97851562 445.11181641 C68.74718964 445.88387421 69.51586365 446.65593201 70.30783081 447.4513855 C72.68320677 449.84005217 75.05590001 452.2313521 77.42773438 454.62353516 C80.58750695 457.81011522 83.75073896 460.99320462 86.91601562 464.17431641 C87.62139969 464.88799881 88.32678375 465.60168121 89.05354309 466.33699036 C93.01671761 470.3194683 97.08572857 474.10407087 101.34092712 477.77272034 C105.13104645 481.05873336 108.67223316 484.60066043 112.24023438 488.12353516 C113.01238281 488.86667969 113.78453125 489.60982422 114.58007812 490.37548828 C124.9225399 500.60342535 131.90986991 513.27767273 132.30273438 527.99853516 C132.07181084 543.44731939 126.35971372 557.59556012 115.92773438 568.99853516 C105.56463849 578.81620494 89.97763937 583.71627036 75.88867188 583.52587891 C55.68830998 581.96106214 42.41381675 568.96063821 28.99023438 555.24853516 C26.92863906 553.14999944 24.86371643 551.05481791 22.79492188 548.96337891 C22.30042038 548.46337875 21.80591888 547.9633786 21.2964325 547.44822693 C17.94136693 544.07979891 14.47366269 540.9049047 10.85839844 537.82055664 C8.13310756 535.46054635 5.58889139 532.93361013 3.05273438 530.37353516 C2.53308105 529.85194824 2.01342773 529.33036133 1.47802734 528.79296875 C-1.20089794 526.08389614 -3.79196322 523.34116964 -6.25976562 520.43603516 C-9.66048344 516.46433263 -13.28395599 512.72646348 -16.94726562 508.99853516 C-17.53749512 508.38703613 -18.12772461 507.77553711 -18.73583984 507.14550781 C-23.24760007 502.59843049 -26.86085932 499.38494572 -33.56054688 499.22119141 C-39.37510697 500.24745231 -44.13898153 503.67571493 -49.07226562 506.74853516 C-59.28619601 512.91928726 -69.65684097 518.25596222 -80.5090332 523.19799805 C-83.03029562 524.37921635 -85.50427807 525.63581481 -87.98242188 526.90478516 C-92.21695895 529.03727105 -96.45480001 530.74849646 -100.94726562 532.24853516 C-102.44491689 532.75820187 -103.94230626 533.26863869 -105.43945312 533.77978516 C-106.18678711 534.03373047 -106.93412109 534.28767578 -107.70410156 534.54931641 C-109.72204229 535.25419494 -111.71369022 536.00356934 -113.70507812 536.77978516 C-142.34109988 547.78630933 -175.16586914 553.37008341 -205.79882812 553.51416016 C-206.80342072 553.52121979 -207.80801331 553.52827942 -208.8430481 553.53555298 C-250.3640786 553.76117808 -250.3640786 553.76117808 -268.88476562 550.31103516 C-270.02671387 550.10704102 -271.16866211 549.90304687 -272.34521484 549.69287109 C-288.60378262 546.73833173 -304.31677702 542.84848344 -319.88476562 537.31103516 C-320.73377441 537.01503418 -321.5827832 536.7190332 -322.45751953 536.4140625 C-364.46976715 521.64955323 -404.90641131 497.6226166 -436.32226562 465.86206055 C-438.05832709 464.13874829 -439.87273504 462.55428703 -441.75976562 460.99853516 C-445.72180172 457.5785117 -449.16327464 453.81745505 -452.61523438 449.88916016 C-454.05398694 448.25477686 -455.51283323 446.63769096 -456.99804688 445.04541016 C-478.97817024 421.41778212 -496.866783 392.75982287 -509.88476562 363.31103516 C-510.32046875 362.38677734 -510.75617188 361.46251953 -511.20507812 360.51025391 C-518.06303297 345.95327428 -522.76970906 330.8335821 -526.88476562 315.31103516 C-527.1105127 314.46412109 -527.33625977 313.61720703 -527.56884766 312.74462891 C-531.40999875 298.11490259 -533.95665717 283.30896449 -535.88476562 268.31103516 C-535.99079102 267.49352783 -536.09681641 266.67602051 -536.20605469 265.83374023 C-539.00938546 240.31991347 -538.30927635 212.56612648 -533.88476562 187.31103516 C-533.68608887 186.16747559 -533.48741211 185.02391602 -533.28271484 183.84570312 C-522.87938108 125.87536613 -497.29857419 70.25511923 -457.15039062 26.78759766 C-455.26356898 24.72510641 -453.43035745 22.63315358 -451.60351562 20.51806641 C-447.93219214 16.31301765 -444.08361932 12.31758022 -440.13476562 8.37353516 C-439.43448242 7.67405762 -438.73419922 6.97458008 -438.01269531 6.25390625 C-433.36976854 1.66531386 -428.63906653 -2.59842304 -423.50195312 -6.63037109 C-420.68518669 -8.84594708 -417.9798144 -11.16841488 -415.25976562 -13.50146484 C-368.8660953 -52.09337546 -309.7280819 -76.1666956 -249.88476562 -82.68896484 C-249.05259521 -82.78322754 -248.2204248 -82.87749023 -247.36303711 -82.97460938 C-156.63921661 -91.94826516 -67.44446283 -60.43792666 0 0 Z " fill="#FEFEFE" transform="translate(1016.884765625,869.68896484375)"/>
<path d="M0 0 C0.95669586 -0.00067474 1.91339172 -0.00134949 2.89907837 -0.00204468 C18.27003344 0.01514142 33.25785023 0.62132269 48.4375 3.25 C49.92805908 3.50740967 49.92805908 3.50740967 51.44873047 3.77001953 C100.57425569 12.57813726 146.56328649 32.91780181 185.4375 64.25 C186.01161621 64.71229004 186.58573242 65.17458008 187.17724609 65.65087891 C200.10010003 76.14471138 212.73828287 87.47757817 223.4375 100.25 C223.91219727 100.81235352 224.38689453 101.37470703 224.87597656 101.95410156 C242.02122348 122.34275549 256.03102945 144.17451064 267.4375 168.25 C267.99695312 169.40371094 268.55640625 170.55742188 269.1328125 171.74609375 C282.92088397 201.53474117 290.23568025 233.70241793 293.4375 266.25 C293.56898438 267.51714844 293.70046875 268.78429688 293.8359375 270.08984375 C299.19959171 333.36646707 283.86072361 396.96608072 250.19140625 450.75 C247.04496827 455.79162072 244.23786779 461.01040475 241.4375 466.25 C244.42080019 469.25831496 247.40759741 472.26310394 250.39746094 475.26489258 C251.41076152 476.28317292 252.42315712 477.30235474 253.43457031 478.32250977 C254.90182999 479.80211766 256.37248765 481.27827957 257.84375 482.75390625 C258.72353516 483.63892822 259.60332031 484.5239502 260.50976562 485.43579102 C262.70362446 487.59111541 264.98617926 489.61462433 267.31396484 491.62426758 C271.39498214 495.16463343 275.21360183 498.91439384 279.0078125 502.7578125 C279.69253632 503.44632294 280.37726013 504.13483337 281.08273315 504.84420776 C283.24513239 507.01869554 285.40422755 509.19641667 287.5625 511.375 C290.41632428 514.25554906 293.27353448 517.13267795 296.1328125 520.0078125 C296.77670929 520.66000763 297.42060608 521.31220276 298.08401489 521.98416138 C300.88831456 524.80353817 303.69732348 527.52875217 306.77050781 530.05517578 C314.21423789 536.18105764 319.37080488 545.87302915 321.4375 555.25 C322.90768823 571.79519412 320.12137188 586.09081885 309.765625 599.3984375 C302.64322058 607.34265781 290.8358927 613.43834081 280.18920898 614.46728516 C264.08298965 615.2558036 251.26094313 612.68882098 238.74857712 601.77713776 C234.17071802 597.52668804 229.81026097 593.05700077 225.43359375 588.6015625 C224.02016768 587.17811621 222.60576746 585.75563662 221.19044495 584.33407593 C217.4950824 580.61792786 213.81149115 576.89033944 210.13079834 573.15966797 C204.21207664 567.16519867 198.27412179 561.18976036 192.33857918 555.21195602 C190.26920124 553.12486776 188.20408575 551.03363836 186.13975525 548.94155884 C184.88154688 547.67014021 183.62329434 546.39876529 182.36499023 545.12744141 C181.5040274 544.25165939 181.5040274 544.25165939 180.62567139 543.35818481 C176.43873555 539.09372545 176.43873555 539.09372545 170.71875 537.97265625 C166.3630802 538.03642169 163.65903771 539.37057179 159.9375 541.6875 C158.71272196 542.4278819 157.48744195 543.1674339 156.26171875 543.90625 C155.63313965 544.29296875 155.00456055 544.6796875 154.35693359 545.078125 C123.61733016 563.84562646 89.93055255 576.38691497 54.5625 583.0625 C53.53084717 583.2574707 52.49919434 583.45244141 51.4362793 583.65332031 C34.77975543 586.61320405 18.28726047 587.60121912 1.38745117 587.56567383 C-1.72968822 587.56252055 -4.84586786 587.58606226 -7.96289062 587.61132812 C-26.73916014 587.67103288 -45.3594209 585.89317084 -63.6875 581.6875 C-64.78457275 581.43846924 -65.88164551 581.18943848 -67.01196289 580.93286133 C-87.89581017 575.97465644 -108.3459391 568.81741154 -127.5625 559.25 C-128.34592773 558.86376465 -129.12935547 558.4775293 -129.93652344 558.07958984 C-148.82596857 548.68868336 -166.0760137 537.37894825 -182.5625 524.25 C-183.54476562 523.48171875 -184.52703125 522.7134375 -185.5390625 521.921875 C-193.62278469 515.48351219 -201.09648987 508.38433198 -208.5625 501.25 C-209.86960937 500.00669922 -209.86960937 500.00669922 -211.203125 498.73828125 C-215.92483469 494.14039262 -220.14043776 489.26436991 -224.25390625 484.1171875 C-226.59195822 481.21341399 -229.01048706 478.39209802 -231.4375 475.5625 C-245.5435557 458.60475711 -257.2688646 439.15922013 -266.63574219 419.21875 C-267.25300354 417.90747614 -267.87866499 416.60012336 -268.51269531 415.296875 C-279.84824647 391.95965113 -287.16721098 366.75924811 -291.5625 341.25 C-291.73894043 340.24243652 -291.91538086 339.23487305 -292.09716797 338.19677734 C-296.9662331 308.88104823 -296.7710656 276.4712834 -291.5625 247.25 C-291.31306641 245.79883789 -291.31306641 245.79883789 -291.05859375 244.31835938 C-283.95577964 204.04277269 -268.1138727 164.75013319 -244.5625 131.25 C-244.02512207 130.48494141 -243.48774414 129.71988281 -242.93408203 128.93164062 C-231.77906502 113.18413016 -219.52264994 99.05330932 -205.9375 85.375 C-205.45612579 84.88817749 -204.97475159 84.40135498 -204.47879028 83.89978027 C-197.85654064 77.22177234 -190.95210216 71.07229019 -183.5625 65.25 C-182.95519043 64.76305664 -182.34788086 64.27611328 -181.72216797 63.77441406 C-163.53701477 49.23774671 -143.57550878 37.22081922 -122.5625 27.25 C-121.89766602 26.92821777 -121.23283203 26.60643555 -120.54785156 26.27490234 C-82.94209854 8.1740959 -41.53502235 0.02632159 0 0 Z M-131.5625 148.25 C-132.40554687 148.97058594 -133.24859375 149.69117188 -134.1171875 150.43359375 C-139.0693743 154.71048235 -143.36226083 159.24365432 -147.5625 164.25 C-148.39652344 165.19617187 -149.23054688 166.14234375 -150.08984375 167.1171875 C-174.49682752 194.95504622 -190.24774401 229.88457993 -196.5625 266.25 C-196.78808594 267.47847656 -197.01367188 268.70695312 -197.24609375 269.97265625 C-202.78545831 305.69200703 -196.75182074 343.03488702 -180.5625 375.25 C-180.19866211 375.98186523 -179.83482422 376.71373047 -179.45996094 377.46777344 C-169.57179777 397.20114511 -156.76284806 414.32366516 -141.5625 430.25 C-140.80195313 431.05179688 -140.04140625 431.85359375 -139.2578125 432.6796875 C-107.69280781 465.14334001 -59.18145612 489.61327414 -13.52636719 490.46530151 C-12.46530762 490.47667648 -12.46530762 490.47667648 -11.3828125 490.48828125 C-10.24030029 490.50304001 -10.24030029 490.50304001 -9.07470703 490.51809692 C41.80607901 491.03885578 92.17117015 477.83159848 130.21875 442.31640625 C132.20055793 440.47067316 134.23353216 438.73389326 136.3125 437 C150.67830554 424.39740198 161.92819355 408.71972664 171.4375 392.25 C172.09363281 391.1259375 172.74976562 390.001875 173.42578125 388.84375 C198.04811582 345.44389718 204.37996597 290.21900966 191.75 242.1875 C182.91260857 210.53321521 167.08536087 182.06280379 144.4375 158.25 C143.91591309 157.69586426 143.39432617 157.14172852 142.85693359 156.57080078 C129.97666382 142.9666328 115.80001811 131.45850234 99.4375 122.25 C98.74462891 121.8571582 98.05175781 121.46431641 97.33789062 121.05957031 C75.26654682 108.65040078 51.5041086 100.80676931 26.4375 97.25 C25.78434814 97.15428711 25.13119629 97.05857422 24.45825195 96.95996094 C-32.75540901 89.53289968 -88.94517028 110.68404315 -131.5625 148.25 Z " fill="#000000" transform="translate(2894.5625,1013.75)"/>
<path d="M0 0 C1.92588971 1.78221657 3.83898564 3.57672174 5.75 5.375 C6.40871094 5.99117187 7.06742188 6.60734375 7.74609375 7.2421875 C12.89579166 12.21348941 17.34420352 17.74458916 21.75 23.375 C22.17829102 23.9215625 22.60658203 24.468125 23.04785156 25.03125 C33.20834989 38.11279869 41.72720859 52.37176381 48.75 67.375 C49.1315625 68.12265625 49.513125 68.8703125 49.90625 69.640625 C62.47831682 95.26829968 67.20859328 125.11024647 67.0625 153.4375 C67.06034485 154.19746277 67.0581897 154.95742554 67.05596924 155.74041748 C66.78507203 215.65254429 42.87159683 270.78092369 0.50927734 312.91796875 C-41.17409235 353.47589798 -98.22928201 371.37403003 -155.42710876 370.70344543 C-166.21506101 370.51804939 -176.66773062 369.52262539 -187.25 367.375 C-188.3949292 367.1581958 -188.3949292 367.1581958 -189.56298828 366.93701172 C-206.64977269 363.68393006 -222.74506872 358.23565693 -238.25 350.375 C-239.00990234 349.9929541 -239.76980469 349.6109082 -240.55273438 349.21728516 C-250.54344036 344.16776569 -260.15689589 338.93290012 -269.25 332.375 C-270.20777344 331.69050781 -271.16554688 331.00601562 -272.15234375 330.30078125 C-290.77923872 316.66716693 -307.53714249 300.97289849 -321.25 282.375 C-321.67619629 281.80958496 -322.10239258 281.24416992 -322.54150391 280.66162109 C-328.85357164 272.28613054 -334.26961454 263.60416674 -339.19287109 254.34570312 C-340.18235029 252.50111281 -341.20616745 250.68032963 -342.23828125 248.859375 C-352.9523059 229.38030371 -359.49245709 206.33962688 -362.25 184.375 C-362.39816162 183.20445068 -362.39816162 183.20445068 -362.54931641 182.01025391 C-364.80396811 162.12686902 -363.40474934 142.06339915 -360.25 122.375 C-360.05664062 121.07304688 -359.86328125 119.77109375 -359.6640625 118.4296875 C-356.62551471 100.79032563 -350.48891727 83.2366762 -342.25 67.375 C-341.57725196 66.02517435 -340.90541527 64.6748942 -340.234375 63.32421875 C-332.84588427 48.69068674 -323.89586349 34.85703077 -313.25 22.375 C-312.27977503 21.22019731 -311.30973755 20.0652371 -310.33984375 18.91015625 C-292.71399812 -1.97168178 -272.0336028 -18.20938111 -248.25 -31.625 C-247.56276855 -32.01945313 -246.87553711 -32.41390625 -246.16748047 -32.8203125 C-237.52285079 -37.76627717 -228.77690961 -41.6103233 -219.36279297 -44.87353516 C-217.83256208 -45.417798 -216.31171847 -45.98869384 -214.79736328 -46.57568359 C-207.53075912 -49.35708919 -200.236484 -51.1703268 -192.625 -52.75 C-191.38081299 -53.00861816 -190.13662598 -53.26723633 -188.85473633 -53.53369141 C-120.121063 -67.52480053 -51.53061242 -47.10752145 0 0 Z " fill="#AB1E40" transform="translate(947.25,947.625)"/>
<path d="M0 0 C2.06000104 1.91868171 4.09495603 3.86219893 6.125 5.8125 C6.69541016 6.35567871 7.26582031 6.89885742 7.85351562 7.45849609 C23.3312037 22.2637928 39.8066039 39.69748783 40.625 62.3125 C40.16440879 74.64445814 35.62997391 86.41522433 26.765625 95.1328125 C17.21857419 103.16775278 6.17352207 107.41840947 -6.39453125 107.0625 C-21.28442051 105.56178675 -30.2127575 99.81378782 -40.875 89.8125 C-42.16180053 88.70266614 -43.45319271 87.5981246 -44.75 86.5 C-47.64161164 83.99586432 -50.33109631 81.34906666 -52.99633789 78.60571289 C-77.21674958 53.74823241 -107.97167685 39.71514603 -141.875 33.8125 C-143.15761719 33.585625 -144.44023438 33.35875 -145.76171875 33.125 C-187.60047309 27.03320968 -234.40804739 33.86954885 -269.4375 58.625 C-274.88973045 62.70252278 -279.92483499 67.14425394 -284.875 71.8125 C-285.55175781 72.42480469 -286.22851562 73.03710938 -286.92578125 73.66796875 C-323.431843 107.97927729 -329.10497223 163.88930846 -333.6875 210.75 C-333.79877228 211.87247131 -333.91004456 212.99494263 -334.02468872 214.15142822 C-335.8600908 232.87667317 -336.20680867 250.93812028 -334.625 269.6875 C-334.5251329 270.89172104 -334.5251329 270.89172104 -334.42324829 272.12026978 C-331.32668697 309.01947651 -325.42575213 348.18719487 -306.875 380.8125 C-306.22660156 381.95976563 -305.57820313 383.10703125 -304.91015625 384.2890625 C-288.46959359 412.09151895 -262.3648835 430.98352041 -231.26220703 439.20410156 C-230.47442871 439.40487305 -229.68665039 439.60564453 -228.875 439.8125 C-227.71460205 440.10979004 -227.71460205 440.10979004 -226.53076172 440.41308594 C-202.30764671 446.38949834 -176.95282566 446.58021391 -152.1875 445 C-151.48978485 444.9558194 -150.7920697 444.91163879 -150.07321167 444.86611938 C-106.22798493 442.02905689 -72.68707398 426.01374058 -40.5625 396 C-26.74335376 383.16926773 -11.11056761 373.19292005 8.22802734 373.3972168 C19.53425916 373.83248395 26.53157897 378.68307278 34.125 386.8125 C43.55960064 398.15927592 47.24875472 410.15411124 46.125 424.8125 C41.15219897 451.12130545 11.88600918 473.47319018 -8.875 487.8125 C-50.41808414 515.43778223 -99.46285795 529.47104534 -148.875 533.8125 C-150.11378906 533.92464844 -151.35257813 534.03679688 -152.62890625 534.15234375 C-219.29139138 539.22675607 -297.24458493 525.65937339 -349.875 481.8125 C-352.52915929 479.49795497 -355.14610203 477.15351555 -357.734375 474.765625 C-359.46841258 473.18347392 -361.22199382 471.70303119 -363.0625 470.25 C-366.74230485 467.06083579 -369.7682479 463.55446163 -372.875 459.8125 C-373.30586914 459.30460937 -373.73673828 458.79671875 -374.18066406 458.2734375 C-420.91642894 403.02566047 -436.56071943 320.45130373 -437.875 249.8125 C-437.89546387 249.06419922 -437.91592773 248.31589844 -437.93701172 247.54492188 C-439.76858676 176.88548131 -425.29206277 92.78353002 -382.875 34.8125 C-382.43091797 34.2045459 -381.98683594 33.5965918 -381.52929688 32.97021484 C-345.18631368 -16.11895849 -290.22990684 -42.65410581 -230.67602539 -51.85595703 C-152.46471083 -63.28787554 -61.21836967 -55.30707207 0 0 Z " fill="#000000" transform="translate(1883.875,1071.1875)"/>
<path d="M0 0 C0.61101563 0.46921875 1.22203125 0.9384375 1.8515625 1.421875 C2.7178125 1.999375 3.5840625 2.576875 4.4765625 3.171875 C15.57293862 13.68423132 19.53102535 27.56718521 20.03180718 42.4697901 C20.12700744 47.1463208 20.10902634 51.82225313 20.09207153 56.49946594 C20.09294511 58.30497443 20.0946989 60.11048268 20.09724987 61.91598958 C20.10169742 66.84633557 20.09375558 71.77659379 20.08369374 76.70692861 C20.07502397 82.03531146 20.07798189 87.36368971 20.07949829 92.69207764 C20.08054492 101.91359433 20.07429159 111.13508263 20.06302261 120.35659218 C20.04674039 133.68919991 20.04155682 147.02179396 20.03904663 160.35441055 C20.0346738 181.9878277 20.02137587 203.62122973 20.00244141 225.25463867 C19.98407195 246.26440353 19.96992066 267.27416428 19.96142578 288.28393555 C19.96090033 289.57986322 19.96037489 290.87579089 19.95983352 292.2109891 C19.95722337 298.71254182 19.95469597 305.21409457 19.95220971 311.71564734 C19.93149004 365.61773367 19.89627573 419.5198036 19.8515625 473.421875 C20.81141398 473.42095321 21.77126547 473.42003141 22.76020336 473.41908169 C46.20089266 473.39680403 69.64158057 473.38041236 93.08227825 473.37006283 C104.4183814 473.36492384 115.75447753 473.35792722 127.09057617 473.34643555 C136.98019838 473.33641505 146.86981549 473.33000417 156.75944263 473.32778651 C161.98763683 473.32649182 167.21581647 473.3234857 172.44400597 473.31614494 C177.38268495 473.30926802 182.32134362 473.30728131 187.26002693 473.30876732 C189.05565883 473.30849616 190.85129154 473.30656121 192.64691925 473.30266953 C202.09106318 473.28323584 211.5272587 473.39685443 220.96565247 473.74147034 C221.80702088 473.76350806 222.6483893 473.78554579 223.51525372 473.80825132 C235.88847883 474.34023835 247.6150046 479.03840093 256.1875 488.1796875 C264.44227465 499.30231813 267.97902672 511.66328814 266.8515625 525.421875 C264.68868664 537.94289854 258.80635276 547.75087937 248.4296875 555.1484375 C237.22584525 562.21172935 226.99657291 562.93460352 214.14160156 563.09667969 C212.33120558 563.12923542 210.52082286 563.16253503 208.71045303 563.19651413 C186.10357847 563.58971875 163.49038977 563.60482387 140.88075924 563.62206364 C137.15987701 563.62504086 133.43899754 563.6291521 129.71811676 563.63356781 C118.01702354 563.64712272 106.31593696 563.65685835 94.61483645 563.6607697 C81.87703284 563.66505561 69.13932846 563.68004824 56.40155455 563.7074689 C45.27296118 563.73122739 34.14439567 563.74338807 23.01577592 563.74481082 C16.80472527 563.74585394 10.59377055 563.75166171 4.38274384 563.76963043 C-1.43226699 563.78614238 -7.24710973 563.78825151 -13.0621357 563.77949142 C-15.18529017 563.77872391 -17.30845389 563.78302579 -19.43158531 563.79294968 C-36.45418411 563.86782973 -52.2568902 563.29489499 -65.5234375 551.1953125 C-77.29721624 538.34604436 -77.73700287 522.49000105 -77.65637207 506.1159668 C-77.6609867 504.0681066 -77.66734337 502.02024972 -77.67528105 499.97239971 C-77.69192018 494.37159761 -77.68375257 488.77106948 -77.67133617 483.17026663 C-77.66226584 477.11972833 -77.67626526 471.06923631 -77.68725586 465.01870728 C-77.70399861 453.85991265 -77.70257042 442.70120533 -77.69160999 431.54241255 C-77.6815334 421.23239781 -77.67892764 410.9224149 -77.68370056 400.61239624 C-77.6840061 399.92754847 -77.68431164 399.24270071 -77.68462644 398.53709998 C-77.68587187 395.75682732 -77.68714548 392.97655467 -77.6884655 390.19628204 C-77.70069158 364.13440415 -77.68962341 338.07258155 -77.66807791 312.01071219 C-77.64909658 288.87462487 -77.65079514 265.73862562 -77.66992188 242.60253906 C-77.69135718 216.58723125 -77.69982438 190.57197226 -77.68747282 164.55665684 C-77.68619002 161.78155582 -77.68493865 159.00645479 -77.68370056 156.23135376 C-77.68338425 155.54809213 -77.68306794 154.86483049 -77.68274205 154.16086396 C-77.67819908 143.85929424 -77.68350033 133.55775989 -77.69361877 123.25619507 C-77.70507095 111.53860152 -77.70178044 99.82109201 -77.6804958 88.1035049 C-77.66999714 82.1272077 -77.66584358 76.15108905 -77.67909241 70.17479324 C-77.69104633 64.69972231 -77.68440402 59.22499477 -77.6631822 53.74995482 C-77.65872889 51.77368178 -77.66095367 49.79737949 -77.67068535 47.82112539 C-77.73855152 32.88914842 -76.56795686 20.68795241 -67.1484375 8.421875 C-66.2821875 7.1225 -66.2821875 7.1225 -65.3984375 5.796875 C-48.80354468 -11.71995631 -19.3852518 -14.23934859 0 0 Z " fill="#000000" transform="translate(2087.1484375,1029.578125)"/>
<path d="M0 0 C39.6 0 79.2 0 120 0 C123.12054908 6.86520798 126.10646054 13.6016096 128.7578125 20.6328125 C129.09827103 21.52639465 129.43872955 22.41997681 129.789505 23.34063721 C130.52177964 25.26337515 131.25253936 27.18669062 131.98190308 29.11053467 C133.97369376 34.3630936 135.97787352 39.61092809 137.98046875 44.859375 C138.39508865 45.94685028 138.80970856 47.03432556 139.2368927 48.15475464 C143.59513809 59.57780027 148.01140018 70.97810821 152.4375 82.375 C153.23193684 84.42138546 154.02637042 86.46777218 154.82080078 88.51416016 C156.4164497 92.62384549 158.01256201 96.73335056 159.60888672 100.84277344 C163.18092419 110.03936229 166.7465626 119.23843245 170.31268311 128.43731689 C172.29551522 133.55203096 174.2785836 138.66665342 176.26171875 143.78125 C176.65421814 144.79353668 177.04671753 145.80582336 177.45111084 146.8487854 C179.79496813 152.89341608 182.13974656 158.93768848 184.48530579 164.98165894 C186.42802233 169.98764907 188.37032493 174.99379976 190.3125 180 C190.69522064 180.98643494 191.07794128 181.97286987 191.47225952 182.98919678 C196.28554599 195.39688631 201.08660879 207.80924663 205.875 220.2265625 C206.37525751 221.52366202 206.87551691 222.82076082 207.3757782 224.11785889 C209.79080889 230.38009009 212.20453457 236.64282002 214.61645508 242.90625 C215.50065573 245.20058176 216.38500949 247.49485452 217.26953125 249.7890625 C217.68685013 250.87213684 218.10416901 251.95521118 218.53413391 253.07110596 C221.29805544 260.22833157 224.12845802 267.35458216 227.0456543 274.45068359 C228 277 228 277 228 279 C192.36 279 156.72 279 120 279 C107.60058727 244.62694445 107.60058727 244.62694445 104.0234375 234.70703125 C103.64781237 233.66537276 103.64781237 233.66537276 103.26459885 232.60267067 C98.78386985 220.17664472 94.30667433 207.74934936 89.83294678 195.32080078 C88.75102232 192.31533989 87.6687526 189.31000351 86.58642578 186.3046875 C83.12922031 176.7035056 79.67629382 167.10081892 76.23272705 157.49473572 C74.55994382 152.82915458 72.8853415 148.16422733 71.21057129 143.49935913 C70.41009392 141.26810011 69.61051806 139.03651743 68.81188965 136.80459595 C67.71015188 133.725698 66.60540241 130.64789628 65.5 127.5703125 C65.17380676 126.65619095 64.84761353 125.7420694 64.51153564 124.80024719 C64.05723175 123.53811653 64.05723175 123.53811653 63.59375 122.25048828 C63.33271484 121.52193634 63.07167969 120.7933844 62.80273438 120.04275513 C61.98330042 117.9575038 61.03186678 115.98759562 60 114 C59.80415817 114.5588237 59.60831635 115.1176474 59.40653992 115.69340515 C49.06348675 145.20077854 38.64171602 174.67721434 28.06700134 204.10244751 C27.67750809 205.18625702 27.28801483 206.27006653 26.88671875 207.38671875 C26.49621841 208.47318695 26.10571808 209.55965515 25.7033844 210.67904663 C22.58828877 219.35072558 19.48899315 228.02797483 16.39453125 236.70703125 C15.92658749 238.01916778 15.45863608 239.33130159 14.99067688 240.64343262 C13.17122478 245.74548941 11.35204064 250.84763983 9.53518677 255.95062256 C8.2927553 259.44011975 7.0488479 262.9290877 5.8046875 266.41796875 C5.43273758 267.464189 5.06078766 268.51040924 4.67756653 269.58833313 C4.16790596 271.01643562 4.16790596 271.01643562 3.64794922 272.47338867 C3.35217987 273.30392258 3.05641052 274.13445648 2.75167847 274.99015808 C2 277 2 277 1 279 C-34.64 279 -70.28 279 -107 279 C-106.32493076 275.6246538 -105.73577516 273.01321879 -104.53564453 269.89550781 C-104.08600845 268.71881027 -104.08600845 268.71881027 -103.62728882 267.51834106 C-103.29911163 266.67181976 -102.97093445 265.82529846 -102.6328125 264.953125 C-102.28683014 264.05141571 -101.94084778 263.14970642 -101.5843811 262.22067261 C-100.4351949 259.22891607 -99.2801646 256.23945276 -98.125 253.25 C-97.30863961 251.1288511 -96.49256397 249.00759259 -95.67675781 246.88623047 C-89.27868202 230.26234182 -82.83914972 213.65436988 -76.39111328 197.04980469 C-70.23953161 181.20802798 -64.11525421 165.35583221 -58 149.5 C-50.80422168 130.84394259 -43.5921249 112.19435417 -36.35635376 93.55377197 C-31.60355888 81.30904712 -26.8624029 69.05989881 -22.13671875 56.8046875 C-21.6357125 55.50559457 -21.13470542 54.20650196 -20.63369751 52.90740967 C-18.21528843 46.63609529 -15.79821905 40.36426848 -13.3828125 34.09179688 C-12.49872375 31.79816712 -11.61461035 29.50454688 -10.73046875 27.2109375 C-10.34058273 26.19724091 -9.95069672 25.18354431 -9.54899597 24.13912964 C-6.43436733 16.06312552 -3.21550934 8.03877336 0 0 Z " fill="#000000" transform="translate(1796,582)"/>
<path d="M0 0 C39.6 0 79.2 0 120 0 C122.75263837 5.50527674 125.19297914 10.79925958 127.328125 16.52734375 C127.63358246 17.33547516 127.93903992 18.14360657 128.25375366 18.97622681 C128.91157554 20.71730848 129.56759965 22.45907028 130.22198486 24.20144653 C132.00536804 28.94790555 133.80392756 33.68861161 135.6015625 38.4296875 C135.97054657 39.4035994 136.33953064 40.37751129 136.71969604 41.38093567 C140.29286717 50.79918634 143.94941136 60.18384443 147.625 69.5625 C154.07100454 86.02242397 160.45334278 102.50633497 166.8125 119 C173.75559342 137.00593402 180.70757174 155.00830929 187.6875 173 C188.26343903 174.48460724 188.26343903 174.48460724 188.85101318 175.99920654 C190.7812474 180.97451749 192.7118242 185.9496954 194.64257812 190.92480469 C197.09072817 197.23338102 199.5376952 203.54241583 201.984375 209.8515625 C202.39695557 210.91541672 202.80953613 211.97927094 203.23461914 213.07536316 C205.26579448 218.31308962 207.29646832 223.55100965 209.32617188 228.78930664 C214.12468542 241.17248733 214.12468542 241.17248733 218.94346619 253.54779053 C220.09726451 256.50405154 221.24884204 259.4611749 222.400177 262.418396 C222.91902671 263.74899542 223.43907878 265.07912672 223.9604187 266.40875244 C224.65754368 268.18671563 225.35039873 269.96635133 226.04296875 271.74609375 C226.42477295 272.72247803 226.80657715 273.6988623 227.19995117 274.70483398 C228 277 228 277 228 279 C192.36 279 156.72 279 120 279 C115.66875 266.8415625 115.66875 266.8415625 111.25 254.4375 C103.80892075 233.57843307 96.29460674 212.74782796 88.70825195 191.94110107 C79.37153381 166.33000313 70.17276083 140.67022833 61 115 C58.77009599 117.22990401 58.26078428 118.66427868 57.23852539 121.6184082 C56.89883224 122.59047211 56.5591391 123.56253601 56.20915222 124.5640564 C55.84235855 125.6321756 55.47556488 126.7002948 55.09765625 127.80078125 C54.70842484 128.91852936 54.31919342 130.03627747 53.91816711 131.18789673 C52.85144183 134.25290087 51.78957635 137.31954204 50.72924042 140.38676071 C48.92052152 145.61086436 47.09593569 150.82946938 45.27413177 156.04902077 C44.56940526 158.06848102 43.86529677 160.08815612 43.16119385 162.10783386 C38.63716034 175.07665048 34.02099481 188.01189371 29.375 200.9375 C28.99080902 202.00679749 28.60661804 203.07609497 28.21078491 204.17779541 C26.27243263 209.57161725 24.33223382 214.96477149 22.390625 220.35742188 C20.30341131 226.15509382 18.22031173 231.95423603 16.13827515 237.75376892 C14.45515238 242.4417255 12.77085341 247.12925885 11.08624268 251.81668091 C10.2837904 254.0498597 9.48166221 256.28315497 8.67987061 258.51657104 C7.57686405 261.58831098 6.47225568 264.65946999 5.3671875 267.73046875 C4.87490662 269.10286713 4.87490662 269.10286713 4.37268066 270.50299072 C4.07293335 271.33497986 3.77318604 272.16696899 3.46435547 273.02416992 C3.20411591 273.74811447 2.94387634 274.47205902 2.67575073 275.21794128 C2 277 2 277 1 279 C-34.64 279 -70.28 279 -107 279 C-103.62512803 267.75042677 -103.62512803 267.75042677 -101.98901367 263.53686523 C-101.61892181 262.57816025 -101.24882996 261.61945526 -100.86752319 260.63169861 C-100.47167023 259.61757401 -100.07581726 258.6034494 -99.66796875 257.55859375 C-99.24391754 256.46305679 -98.81986633 255.36751984 -98.38296509 254.23878479 C-96.98794791 250.63700006 -95.58770389 247.03727118 -94.1875 243.4375 C-93.19992564 240.89160105 -92.21356375 238.34523307 -91.22729492 235.79882812 C-89.69437483 231.8418079 -88.1610541 227.88494491 -86.62586975 223.92880249 C-81.79458788 211.47864596 -76.98835887 199.01889152 -72.18447876 186.55813599 C-64.59265558 166.86924572 -56.97718163 147.18961598 -49.34243774 127.51733398 C-42.04552099 108.7143834 -34.77929965 89.89966028 -27.52539062 71.08007812 C-18.38360898 47.37366369 -9.18577063 23.689619 0 0 Z " fill="#000000" transform="translate(2351,582)"/>
<path d="M0 0 C85.8 0 171.6 0 260 0 C260 26.73 260 53.46 260 81 C234.59 81 209.18 81 183 81 C183 146.34 183 211.68 183 279 C148.02 279 113.04 279 77 279 C77 213.66 77 148.32 77 81 C51.59 81 26.18 81 0 81 C0 54.27 0 27.54 0 0 Z " fill="#000000" transform="translate(2004,582)"/>
<path d="M0 0 C85.47 0 170.94 0 259 0 C259 26.73 259 53.46 259 81 C233.92 81 208.84 81 183 81 C183 146.34 183 211.68 183 279 C148.02 279 113.04 279 77 279 C77 213.66 77 148.32 77 81 C51.59 81 26.18 81 0 81 C0 54.27 0 27.54 0 0 Z " fill="#000000" transform="translate(1450,582)"/>
<path d="M0 0 C11.39925168 10.77491104 15.91057488 24.86221854 16.40543401 40.26823294 C16.44398391 43.64955128 16.45058018 47.02954937 16.44621277 50.41108704 C16.44847833 51.70479617 16.45074388 52.9985053 16.45307809 54.33141774 C16.45916525 57.90222159 16.45906616 61.47300192 16.45788372 65.04380977 C16.45767893 68.90281651 16.46320586 72.76181584 16.46794128 76.62081909 C16.47623124 84.1735266 16.47899537 91.7262263 16.47955366 99.27893797 C16.48002957 105.4204028 16.48208803 111.56186507 16.48525429 117.70332909 C16.494056 135.1313656 16.49867437 152.55939597 16.49792381 169.98743472 C16.49788386 170.92607101 16.4978439 171.8647073 16.49780273 172.83178711 C16.49776185 173.77157475 16.49772097 174.7113624 16.49767885 175.67962845 C16.49727242 190.90932972 16.50684252 206.13900625 16.5209411 221.36870036 C16.53531701 237.02197677 16.54221063 252.67524112 16.54134732 268.32852429 C16.5410158 277.1104332 16.54374356 285.89231618 16.55452538 294.67421913 C16.56364632 302.15096628 16.56579251 309.62767575 16.55901595 317.10442606 C16.55575892 320.9155281 16.55566445 324.72655788 16.5643692 328.53765297 C16.57372793 332.67781022 16.56743698 336.81780137 16.55973816 340.95796204 C16.56488172 342.15029947 16.57002529 343.34263691 16.57532471 344.57110578 C16.50355876 362.08937298 12.89192576 377.48700766 0.4375 390.3046875 C-10.27534422 400.36957743 -22.39286086 402.99425926 -36.68359375 402.62109375 C-49.45168692 402.011066 -60.85843777 396.64135068 -69.6875 387.375 C-80.47846436 374.82364527 -81.83915777 360.24334733 -81.82794189 344.37182617 C-81.83091302 343.05744127 -81.83388414 341.74305637 -81.8369453 340.38884163 C-81.844985 336.750904 -81.84680317 333.11298613 -81.84754276 329.47504067 C-81.84939865 325.54709107 -81.85694873 321.6191516 -81.86367798 317.69120789 C-81.87724097 309.1061797 -81.88328304 300.5211562 -81.88768864 291.93611908 C-81.89045489 286.57079469 -81.89469297 281.2054721 -81.89919281 275.84014893 C-81.91138355 260.97188429 -81.92168277 246.10362109 -81.9250679 231.23535156 C-81.92528747 230.28433241 -81.92550703 229.33331325 -81.92573325 228.35347533 C-81.92595153 227.40023572 -81.92616981 226.44699611 -81.9263947 225.46487045 C-81.92683816 223.53338369 -81.92728472 221.60189692 -81.92773438 219.67041016 C-81.9279558 218.71233475 -81.92817723 217.75425935 -81.92840537 216.76715136 C-81.9323505 201.25481136 -81.9497967 185.74251842 -81.9730939 170.2301966 C-81.99684464 154.28655573 -82.00927147 138.34293843 -82.01043582 122.39927959 C-82.01135057 113.45458601 -82.01705212 104.50995373 -82.03525543 95.5652771 C-82.05070684 87.94619079 -82.05574734 80.32718473 -82.04751733 72.70808572 C-82.0436284 68.82570745 -82.04445366 64.94349052 -82.05857468 61.06113243 C-82.07142017 57.49661871 -82.07002422 53.9323858 -82.05798396 50.36787188 C-82.05513719 48.48940352 -82.06688159 46.6109298 -82.07940602 44.73250103 C-81.99095802 29.28815291 -79.21222742 14.14580481 -68.375 2.4375 C-49.02020065 -15.01638156 -20.34063852 -16.80164229 0 0 Z " fill="#000000" transform="translate(2504.6875,1190.625)"/>
<path d="M0 0 C8.47798455 6.88323178 16.10935796 14.89657756 23.85546875 22.58203125 C24.49951471 23.22075354 25.14356068 23.85947582 25.80712318 24.51755333 C29.20946122 27.89337688 32.60825863 31.27272393 36.00463867 34.65454102 C38.79167669 37.42821624 41.58581551 40.19442583 44.38647461 42.9543457 C47.80039239 46.31864821 51.20159019 49.69533926 54.59432411 53.08099937 C55.87650881 54.35652999 57.1628967 55.6278517 58.45378685 56.8945713 C71.25929384 69.47366065 80.12453092 81.76981207 80.4375 100.375 C80.33997681 112.63583188 76.88042642 122.5434883 69 132 C68.42636719 132.70898438 67.85273438 133.41796875 67.26171875 134.1484375 C59.32957778 143.01477066 47.1766075 148.43824834 35.41796875 149.24609375 C20.9405523 149.84997774 8.41356338 146.13395767 -2.70077324 136.53041649 C-7.29905692 132.29953798 -11.68432773 127.85121829 -16.08203125 123.4140625 C-17.50859479 121.98765427 -18.93582793 120.56191544 -20.36369324 119.1368103 C-23.3392706 116.16261 -26.30781919 113.18162403 -29.27124023 110.1953125 C-33.05293103 106.38520096 -36.85002803 102.59089766 -40.65230274 98.8013401 C-43.59632997 95.86429585 -46.53289777 92.91988368 -49.46722984 89.97315598 C-50.86409824 88.57180128 -52.26301977 87.1724898 -53.66410255 85.77534866 C-66.80074773 72.65838527 -76.64771186 60.77369705 -77.25 41.375 C-77.0941009 27.37872495 -72.1023314 15.44801955 -62.5234375 5.328125 C-45.08861133 -10.75725642 -20.03137729 -12.42658113 0 0 Z " fill="#AB1E40" transform="translate(2469,978)"/>
</svg>
