<?xml version="1.0" encoding="UTF-8"?>
<svg version="1.1" xmlns="http://www.w3.org/2000/svg" width="1208" height="816">
<path d="M0 0 C7.63322221 6.00506233 14.90869484 13.12717124 18.65625 22.2578125 C20.86190636 24.89812651 21.44763985 24.87960463 24.75 25.1953125 C26.40147069 25.25950264 28.05435792 25.28866894 29.70703125 25.30078125 C34.06921875 25.39359375 34.06921875 25.39359375 38.51953125 25.48828125 C38.51953125 32.08828125 38.51953125 38.68828125 38.51953125 45.48828125 C39.50953125 45.48828125 40.49953125 45.48828125 41.51953125 45.48828125 C41.88304687 44.41320312 41.88304687 44.41320312 42.25390625 43.31640625 C47.38715004 31.84582444 59.99963585 23.50197417 71.31640625 18.85546875 C89.63455504 12.09243913 107.5002153 13.67816504 125.515625 21.0390625 C130.27542887 23.33540481 134.3787103 26.2269267 138.51953125 29.48828125 C139.15503906 29.94847656 139.79054688 30.40867187 140.4453125 30.8828125 C149.43587802 37.80016557 154.50314241 48.52342122 156.51953125 59.48828125 C158.07163091 73.69491773 155.53556854 86.09464666 146.51953125 97.48828125 C137.09318119 108.15494053 125.07978277 113.55132275 110.97119141 114.69482422 C108.40029269 114.79059404 105.84212663 114.81687949 103.26953125 114.80078125 C102.35856689 114.79731689 101.44760254 114.79385254 100.5090332 114.7902832 C89.9715259 114.62198806 80.25898577 112.57885215 70.51953125 108.48828125 C70.18953125 109.47828125 69.85953125 110.46828125 69.51953125 111.48828125 C65.22953125 111.48828125 60.93953125 111.48828125 56.51953125 111.48828125 C56.51953125 130.95828125 56.51953125 150.42828125 56.51953125 170.48828125 C51.09618787 171.84411709 46.81380953 171.21896256 41.51953125 169.48828125 C36.56935175 166.38744417 33.22003852 163.13485489 31.51953125 157.48828125 C31.2464573 153.9698331 31.28708124 150.46463911 31.32421875 146.9375 C31.32704865 145.92355667 31.32987854 144.90961334 31.33279419 143.86494446 C31.343965 140.63510198 31.36906414 137.40553954 31.39453125 134.17578125 C31.40456505 131.98242589 31.4136902 129.78906617 31.421875 127.59570312 C31.44389424 122.22645505 31.478403 116.85741559 31.51953125 111.48828125 C27.88953125 111.48828125 24.25953125 111.48828125 20.51953125 111.48828125 C20.51953125 103.89828125 20.51953125 96.30828125 20.51953125 88.48828125 C14.57759177 90.46892774 13.42308295 91.23398419 9.51953125 95.61328125 C-0.93255881 106.69209591 -16.22731082 114.03276626 -31.52734375 114.7265625 C-52.1230507 115.21735569 -69.04269959 110.62981988 -85.03515625 96.9453125 C-93.53969806 88.4000141 -98.44556804 77.52902548 -98.48046875 65.48828125 C-97.7899877 54.41056346 -93.84726707 43.56405611 -85.4453125 36.0078125 C-69.05118102 23.32924959 -50.47551511 22.22051284 -30.48046875 23.48828125 C-24.61851401 24.33095075 -18.79578429 25.83062348 -13.48046875 28.48828125 C-13.48046875 27.49828125 -13.48046875 26.50828125 -13.48046875 25.48828125 C-9.19046875 25.48828125 -4.90046875 25.48828125 -0.48046875 25.48828125 C-1.9131474 20.47823144 -1.9131474 20.47823144 -5.140625 18.828125 C-24.26119712 10.94720033 -45.68026837 6.09837425 -65.82421875 13.3203125 C-67.77816998 14.17947635 -69.70056605 15.11130966 -71.6015625 16.08203125 C-75.31817379 17.89747232 -77.40395279 18.30358444 -81.48046875 17.48828125 C-86.29640818 12.58362715 -88.41751923 5.4998823 -88.5234375 -1.25 C-88.50216797 -2.36955078 -88.50216797 -2.36955078 -88.48046875 -3.51171875 C-60.80871107 -17.29112462 -25.75456101 -19.16601693 0 0 Z M75.640625 44.49609375 C69.85834786 49.92696179 68.74528042 53.83012598 68.19995117 61.63256836 C67.47445531 72.77184999 67.47445531 72.77184999 71.19238281 82.92089844 C76.2197267 87.51673057 82.27596592 89.96899146 88.51953125 92.48828125 C89.84272369 93.13340748 91.15886599 93.79335647 92.46484375 94.47265625 C97.39032646 96.96396769 101.95179231 99.10507655 107.51953125 99.48828125 C115.05842491 96.05143267 121.29772087 88.10593644 124.703125 80.7109375 C127.97955985 71.79088281 128.70947 62.34526508 125.35546875 53.375 C120.86060842 43.72427046 115.63678773 38.14849746 106.14453125 33.43359375 C93.97095302 29.04965635 84.85154093 37.00931217 75.640625 44.49609375 Z M-60.48046875 44.48828125 C-66.56404701 54.34153269 -69.48049189 64.94272783 -66.79296875 76.42578125 C-63.54730053 86.1627859 -58.2268391 93.34404087 -49.16796875 98.30078125 C-43.6885014 100.06535548 -40.02155909 99.59476203 -34.87890625 97.35546875 C-28.10852957 93.86538725 -22.20332055 89.49577658 -16.48046875 84.48828125 C-15.96210449 84.07465332 -15.44374023 83.66102539 -14.90966797 83.23486328 C-10.62217876 77.99524972 -11.9245217 67.57318873 -12.16796875 61.16796875 C-12.75655387 56.27974232 -13.54774325 53.57391973 -17.23046875 50.24609375 C-21.97835655 46.92509382 -27.14175945 44.67983028 -32.48046875 42.48828125 C-33.87490587 41.82311692 -35.26475629 41.14819638 -36.6484375 40.4609375 C-47.36898053 35.3175797 -52.90173608 34.81563069 -60.48046875 44.48828125 Z " fill="#F26F29" transform="translate(196.48046875,330.51171875)"/>
<path d="M0 0 C13.36256997 10.50582342 22.59118262 24.87509739 26.51953125 41.48828125 C26.51953125 43.79828125 26.51953125 46.10828125 26.51953125 48.48828125 C18.26953125 48.48828125 10.01953125 48.48828125 1.51953125 48.48828125 C1.18953125 51.12828125 0.85953125 53.76828125 0.51953125 56.48828125 C-0.09285774 58.50556263 -0.74023554 60.51432602 -1.48046875 62.48828125 C-8.16793571 58.79935494 -14.74537967 55.06663021 -21.01953125 50.70214844 C-26.80797442 46.67794885 -32.59017058 43.2266264 -39.04296875 40.36328125 C-39.69765137 40.06800537 -40.35233398 39.77272949 -41.02685547 39.46850586 C-44.97389549 37.80110774 -48.20756842 36.93147271 -52.48046875 37.48828125 C-59.66501631 41.85394194 -62.88490283 50.38539746 -65.79296875 57.86328125 C-67.79127194 68.39978898 -66.53465046 77.45943367 -61.16015625 86.77734375 C-56.51027657 93.56159443 -50.37126427 97.31831248 -42.48046875 99.48828125 C-47.03387801 104.04169051 -55.18388916 102.733984 -61.24121094 102.74145508 C-67.45485441 102.66702949 -72.70945742 101.87589574 -78.48046875 99.48828125 C-79.67671875 99.15828125 -80.87296875 98.82828125 -82.10546875 98.48828125 C-90.10454816 93.74808605 -95.03474955 84.27889484 -97.48046875 75.48828125 C-100.12706446 63.31394098 -97.01826623 51.89138162 -90.48046875 41.48828125 C-82.42717383 30.91463976 -69.23296499 25.71145985 -56.48046875 23.48828125 C-42.17431078 22.55605363 -26.64166195 21.90768465 -13.48046875 28.48828125 C-13.48046875 27.49828125 -13.48046875 26.50828125 -13.48046875 25.48828125 C-9.19046875 25.48828125 -4.90046875 25.48828125 -0.48046875 25.48828125 C-1.9131474 20.47823144 -1.9131474 20.47823144 -5.140625 18.828125 C-24.26119712 10.94720033 -45.68026837 6.09837425 -65.82421875 13.3203125 C-67.77816998 14.17947635 -69.70056605 15.11130966 -71.6015625 16.08203125 C-75.31817379 17.89747232 -77.40395279 18.30358444 -81.48046875 17.48828125 C-86.29640818 12.58362715 -88.41751923 5.4998823 -88.5234375 -1.25 C-88.50216797 -2.36955078 -88.50216797 -2.36955078 -88.48046875 -3.51171875 C-60.80871107 -17.29112462 -25.75456101 -19.16601693 0 0 Z " fill="#F48129" transform="translate(196.48046875,330.51171875)"/>
<path d="M0 0 C2.69082872 0.17635452 5.32851446 0.61835921 8 1 C8 1.66 8 2.32 8 3 C8.99 2.01 9.98 1.02 11 0 C13.97 0.99 16.94 1.98 20 3 C20.33 5.31 20.66 7.62 21 10 C21.556875 9.52949219 22.11375 9.05898438 22.6875 8.57421875 C32.86027313 0.2744731 41.08872229 -0.93463231 54 0 C61.08398744 1.13077734 66.34038395 5.74459335 71 11 C76.6402122 19.63828616 78.37968317 28.60339445 78.3125 38.75 C78.30512817 40.06834839 78.30512817 40.06834839 78.29760742 41.41333008 C78.07670109 53.72404359 75.18407698 64.5151251 66.8125 73.8125 C59.81274505 80.24389878 52.11827987 81.58520702 42.83886719 81.47509766 C35.63478976 81.16448831 30.18684606 79.33862688 25 74.3125 C24.01 73.1678125 24.01 73.1678125 23 72 C22.505 71.505 22.505 71.505 22 71 C21.97494385 71.73001221 21.9498877 72.46002441 21.92407227 73.2121582 C21.80670585 76.57905724 21.68462825 79.94577046 21.5625 83.3125 C21.52318359 84.46041016 21.48386719 85.60832031 21.44335938 86.79101562 C20.68761489 107.31238511 20.68761489 107.31238511 19 109 C18.79582303 110.79194877 18.65241124 112.59089727 18.53515625 114.390625 C18.45716797 115.49277344 18.37917969 116.59492188 18.29882812 117.73046875 C18.14233793 120.06100867 17.988653 122.39173879 17.83789062 124.72265625 C17.75861328 125.82996094 17.67933594 126.93726563 17.59765625 128.078125 C17.53070557 129.09293945 17.46375488 130.10775391 17.39477539 131.15332031 C16.99334742 134.04797095 16.19948446 136.34610642 15 139 C14.34 139 13.68 139 13 139 C13 139.99 13 140.98 13 142 C12.34 142 11.68 142 11 142 C9.515 133.585 9.515 133.585 8 125 C7.34 125 6.68 125 6 125 C6 118.4 6 111.8 6 105 C5.67 105 5.34 105 5 105 C4.67 108.3 4.34 111.6 4 115 C3.34 115 2.68 115 2 115 C1.42855073 105.7037449 0.91506072 96.44144159 1 87.125 C1.29864026 74.89359749 1.29864026 74.89359749 -1 63 C-1.05909758 61.54129912 -1.05936379 60.07977366 -1.02172852 58.62036133 C-1.00163223 57.73967484 -0.98153595 56.85898834 -0.96083069 55.95161438 C-0.93379562 55.00465195 -0.90676056 54.05768951 -0.87890625 53.08203125 C-0.85529526 52.10965012 -0.83168427 51.13726898 -0.80735779 50.13542175 C-0.73074376 47.02763183 -0.64670945 43.9200925 -0.5625 40.8125 C-0.50927707 38.7063925 -0.45653668 36.60027274 -0.40429688 34.49414062 C-0.27513159 29.32926819 -0.1393108 24.16460834 0 19 C-0.66 19 -1.32 19 -2 19 C-2.09585232 12.96130397 -2.07822521 6.96351721 -1 1 C-0.67 0.67 -0.34 0.34 0 0 Z M26.1875 22.75 C20.41625965 31.32441423 19.51472052 40.28892403 21.46875 50.43359375 C23.27677834 55.95453743 26.91920855 61.08646494 31.88671875 64.171875 C35.83683244 65.71979386 39.83779047 65.53344774 44 65 C50.16768244 61.91615878 54.19228525 57.18090794 56.4609375 50.63671875 C58.5630374 40.35470836 57.8238781 30.14551837 52.25 21.1875 C48.68004167 17.71670718 44.95108399 16.29058698 40.0625 15.5625 C34.34132903 16.37981014 30.29742199 18.73140961 26.1875 22.75 Z M9 107 C9 108.65 9 110.3 9 112 C9.33 112 9.66 112 10 112 C10 110.35 10 108.7 10 107 C9.67 107 9.34 107 9 107 Z M8 115 C9 117 9 117 9 117 Z " fill="#ED1D24" transform="translate(729,351)"/>
<path d="M0 0 C0.79051758 0.00829834 1.58103516 0.01659668 2.39550781 0.02514648 C9.3289558 0.22616783 14.63126202 1.28285419 19.85546875 6.0859375 C28.57621021 15.57310992 27.21577996 28.20633527 27.16015625 40.32421875 C27.1587413 41.50724075 27.15732635 42.69026276 27.15586853 43.90913391 C27.15031912 47.64778284 27.13777629 51.3863695 27.125 55.125 C27.11997845 57.67643142 27.1154167 60.22786379 27.11132812 62.77929688 C27.10036631 68.99871878 27.0836794 75.21810494 27.0625 81.4375 C25.4779864 81.46808396 23.8933 81.48978985 22.30859375 81.5078125 C21.4261499 81.52086426 20.54370605 81.53391602 19.63452148 81.54736328 C15.66903022 81.37797827 13.46530822 80.52085197 10.0625 78.4375 C6.58078358 73.22461949 6.63617855 68.51499969 6.65625 62.47265625 C6.64541382 61.52112167 6.63457764 60.5695871 6.62341309 59.58921814 C6.58925847 56.55940917 6.57358205 53.52997585 6.5625 50.5 C6.54788611 46.51136006 6.51412467 42.52355193 6.46875 38.53515625 C6.47177124 37.62766129 6.47479248 36.72016632 6.47790527 35.78517151 C6.40446445 29.53125402 5.58807547 24.59446933 1.5625 19.5625 C-2.37144504 16.61204122 -7.27067008 17.01324273 -11.9375 17.4375 C-17.46847564 19.24570358 -20.33503323 22.39581502 -22.9375 27.4375 C-24.91368567 34.20029846 -25.26276453 41.03718424 -25.3515625 48.0390625 C-25.37092865 49.001539 -25.3902948 49.9640155 -25.4102478 50.95565796 C-25.46941573 53.99118545 -25.51617481 57.02675218 -25.5625 60.0625 C-25.60073772 62.13673412 -25.63979269 64.21095334 -25.6796875 66.28515625 C-25.77658339 71.33585432 -25.85664865 76.38641846 -25.9375 81.4375 C-32.5375 81.4375 -39.1375 81.4375 -45.9375 81.4375 C-45.9375 55.0375 -45.9375 28.6375 -45.9375 1.4375 C-39.6675 1.4375 -33.3975 1.4375 -26.9375 1.4375 C-26.6075 4.7375 -26.2775 8.0375 -25.9375 11.4375 C-25.380625 10.89480469 -24.82375 10.35210937 -24.25 9.79296875 C-23.486875 9.07753906 -22.72375 8.36210937 -21.9375 7.625 C-21.195 6.91730469 -20.4525 6.20960938 -19.6875 5.48046875 C-13.59387011 0.95352495 -7.46519697 -0.10107463 0 0 Z " fill="#ED1D24" transform="translate(690.9375,350.5625)"/>
<path d="M0 0 C4.85918664 3.99045189 8.49684305 8.75564759 9.30125427 15.10198975 C9.92203637 22.54981837 10.12107855 29.92686685 10.0859375 37.3984375 C10.08452255 38.55784851 10.0831076 39.71725952 10.08164978 40.9118042 C10.07610901 44.56883464 10.063568 48.22580096 10.05078125 51.8828125 C10.04575858 54.38150952 10.04119703 56.88020752 10.03710938 59.37890625 C10.02615907 65.46356308 10.00948121 71.5481832 9.98828125 77.6328125 C8.40376765 77.66339646 6.81908125 77.68510235 5.234375 77.703125 C4.35193115 77.71617676 3.4694873 77.72922852 2.56030273 77.74267578 C-1.40518853 77.57329077 -3.60891053 76.71616447 -7.01171875 74.6328125 C-10.49343517 69.41993199 -10.4380402 64.71031219 -10.41796875 58.66796875 C-10.42880493 57.71643417 -10.43964111 56.7648996 -10.45080566 55.78453064 C-10.48496028 52.75472167 -10.5006367 49.72528835 -10.51171875 46.6953125 C-10.52633264 42.70667256 -10.56009408 38.71886443 -10.60546875 34.73046875 C-10.60244751 33.82297379 -10.59942627 32.91547882 -10.59631348 31.98048401 C-10.6697543 25.72656652 -11.48614328 20.78978183 -15.51171875 15.7578125 C-19.43699568 12.8138548 -24.35273818 13.19403865 -29.01171875 13.6328125 C-34.63247563 15.64780082 -37.60325679 18.74175899 -40.19921875 24.0703125 C-42.17988854 30.31704031 -42.21434299 36.57188597 -42.328125 43.0625 C-42.3489061 44.05283234 -42.36968719 45.04316467 -42.39109802 46.06350708 C-42.45622195 49.21154168 -42.51530504 52.35965617 -42.57421875 55.5078125 C-42.61743934 57.6484456 -42.66105474 59.78907076 -42.70507812 61.9296875 C-42.81260433 67.16398198 -42.91195389 72.39834136 -43.01171875 77.6328125 C-49.61171875 77.6328125 -56.21171875 77.6328125 -63.01171875 77.6328125 C-63.01171875 51.2328125 -63.01171875 24.8328125 -63.01171875 -2.3671875 C-56.74171875 -2.3671875 -50.47171875 -2.3671875 -44.01171875 -2.3671875 C-43.68171875 0.9328125 -43.35171875 4.2328125 -43.01171875 7.6328125 C-42.35171875 6.9109375 -41.69171875 6.1890625 -41.01171875 5.4453125 C-30.79345172 -4.77295453 -12.62640723 -7.63254323 0 0 Z " fill="#ED1D24" transform="translate(991.01171875,354.3671875)"/>
<path d="M0 0 C0.99644531 -0.01804687 1.99289062 -0.03609375 3.01953125 -0.0546875 C12.27550117 0.01857875 21.51785934 2.16866004 28.37890625 8.75 C36.14013502 18.22419752 34.96647073 31.17808826 34.91015625 42.73046875 C34.9087413 43.84690262 34.90732635 44.96333649 34.90586853 46.11360168 C34.90032367 49.63826309 34.8877818 53.16285818 34.875 56.6875 C34.86997786 59.09440012 34.86541621 61.50130124 34.86132812 63.90820312 C34.85037238 69.77215759 34.83369022 75.63607406 34.8125 81.5 C32.88062035 81.56255503 30.94815942 81.60734504 29.015625 81.64453125 C27.93958008 81.67135986 26.86353516 81.69818848 25.75488281 81.72583008 C22.8125 81.5 22.8125 81.5 19.5625 79.1875 C17.8125 76.5 17.8125 76.5 17.8125 73.5 C17.17183594 73.90992188 16.53117188 74.31984375 15.87109375 74.7421875 C15.00613281 75.28101563 14.14117188 75.81984375 13.25 76.375 C12.40308594 76.90867187 11.55617188 77.44234375 10.68359375 77.9921875 C1.99547622 82.55492677 -8.70889963 82.97698661 -18.203125 80.8125 C-24.84798351 78.36653981 -30.00967524 74.62154882 -34.0625 68.8125 C-36.79478723 60.76743205 -36.83401754 53.83035091 -33.54296875 45.9453125 C-29.82228301 39.23306675 -23.29327616 35.83123256 -16.1875 33.5 C-5.75995698 30.6765422 5.11027965 31.3096443 15.8125 31.5 C15.52392774 30.05977751 15.22666858 28.62129386 14.92578125 27.18359375 C14.6788855 25.98174438 14.6788855 25.98174438 14.42700195 24.75561523 C13.56214632 21.58104185 12.19270046 19.744189 9.8125 17.5 C3.32379023 14.24992315 -4.99191855 14.41070496 -11.92578125 16.2109375 C-13.40696711 16.75362408 -14.88299584 17.31075673 -16.3515625 17.88671875 C-18.95094996 18.75502477 -20.68273587 18.56262721 -23.1875 17.5 C-25.29577055 14.33759418 -25.52567465 12.99342531 -25.8125 9.3125 C-25.92464844 7.96091797 -25.92464844 7.96091797 -26.0390625 6.58203125 C-26.11253906 5.55142578 -26.11253906 5.55142578 -26.1875 4.5 C-17.4340273 1.04792626 -9.33611803 0.06932761 0 0 Z M-14.1875 52.5 C-15.59750664 55.32001327 -15.43298451 57.37007255 -15.1875 60.5 C-13.73489221 64.17424323 -12.47264359 65.32891384 -9.0625 67.375 C-4.68074684 68.99615603 -0.65404824 68.69814342 3.8125 67.5 C10.81563005 63.80023318 13.87865871 59.08735027 16.296875 51.78125 C16.86000278 49.28983618 16.90215117 47.04609312 16.8125 44.5 C13.97857074 44.41825204 11.14705181 44.35915015 8.3125 44.3125 C7.12527344 44.27479492 7.12527344 44.27479492 5.9140625 44.23632812 C-2.36784145 44.13450144 -8.63514575 45.9381268 -14.1875 52.5 Z " fill="#ED1D24" transform="translate(595.1875,350.5)"/>
<path d="M0 0 C6.46913534 5.13827565 8.54834246 10.29496792 9.68359375 18.421875 C9.76568884 20.39171965 9.80150036 22.36389948 9.79711914 24.33544922 C9.79700584 26.04654373 9.79700584 26.04654373 9.79689026 27.79220581 C9.79172897 29.00804352 9.78656769 30.22388123 9.78125 31.4765625 C9.77983505 32.73324738 9.7784201 33.98993225 9.77696228 35.28469849 C9.77232449 38.6087944 9.76335555 41.93282042 9.7522583 45.25689697 C9.74198776 48.65563354 9.73745262 52.05437735 9.73242188 55.453125 C9.72141074 62.10939417 9.70468597 68.76563055 9.68359375 75.421875 C7.75063545 75.4996215 5.81678096 75.55532074 3.8828125 75.6015625 C2.26765747 75.65159424 2.26765747 75.65159424 0.61987305 75.70263672 C-2.31640625 75.421875 -2.31640625 75.421875 -4.18432617 74.16845703 C-5.88285567 72.08119839 -7.11572322 69.82324106 -8.31640625 67.421875 C-9.10015625 68.185 -9.88390625 68.948125 -10.69140625 69.734375 C-18.75486313 76.31984327 -29.36980804 76.37767272 -39.31640625 75.421875 C-47.39827933 73.51623383 -53.49682554 70.51589918 -58.12890625 63.484375 C-61.58555151 56.81250098 -61.55071623 49.72128968 -59.5 42.578125 C-56.30813539 35.19346262 -51.25874086 31.55320436 -44.015625 28.4296875 C-35.76726653 25.4380549 -27.49133805 25.27741707 -18.81640625 25.359375 C-17.4396875 25.36614258 -17.4396875 25.36614258 -16.03515625 25.37304688 C-13.79550234 25.38471174 -11.5559908 25.40107886 -9.31640625 25.421875 C-10.17328087 18.76048841 -10.17328087 18.76048841 -13.19140625 12.921875 C-19.74687838 8.29448291 -26.57084556 8.86118291 -34.31640625 9.421875 C-36.82362032 10.05652446 -39.11535209 10.85542703 -41.515625 11.8046875 C-44.1284341 12.70018389 -45.81601312 12.55841733 -48.31640625 11.421875 C-50.98784997 8.08257035 -50.90535652 3.53237232 -51.31640625 -0.578125 C-49.75619758 -1.22947425 -48.19312046 -1.87395464 -46.62890625 -2.515625 C-45.75878906 -2.87527344 -44.88867188 -3.23492187 -43.9921875 -3.60546875 C-30.91759625 -8.35813039 -11.55376384 -7.87136694 0 0 Z M-37.25390625 43.671875 C-39.83290672 47.11054229 -40.39174218 49.12772707 -40.31640625 53.421875 C-38.55829233 57.07875196 -36.91243538 58.99217958 -33.62890625 61.359375 C-29.21496592 62.77516718 -25.77811712 62.59347534 -21.31640625 61.421875 C-15.64444947 58.47682052 -11.6213666 54.34250054 -9.00390625 48.484375 C-8.23332202 45.05177254 -8.27084705 41.92993321 -8.31640625 38.421875 C-11.15033551 38.34012704 -13.98185444 38.28102515 -16.81640625 38.234375 C-18.00363281 38.19666992 -18.00363281 38.19666992 -19.21484375 38.15820312 C-26.19050233 38.07243683 -31.58910136 39.33287551 -37.25390625 43.671875 Z " fill="#ED1D24" transform="translate(874.31640625,356.578125)"/>
<path d="M0 0 C1.00482422 -0.01804687 2.00964844 -0.03609375 3.04492188 -0.0546875 C12.28149494 0.01818487 20.49444029 2.62645166 27.75 8.5 C34.4060757 16.82009462 34.02788241 25.09952955 33.9453125 35.30859375 C33.94157667 36.64380175 33.93873239 37.97901251 33.93673706 39.31422424 C33.92914541 42.80768566 33.90953606 46.30097755 33.8873291 49.79437256 C33.86677371 53.36744901 33.85771473 56.94055318 33.84765625 60.51367188 C33.82628534 67.50918368 33.79220419 74.50458367 33.75 81.5 C31.80509276 81.56243051 29.85961505 81.60728823 27.9140625 81.64453125 C26.8307666 81.67135986 25.7474707 81.69818848 24.63134766 81.72583008 C21.75 81.5 21.75 81.5 19.125 79.1875 C18.444375 77.8571875 18.444375 77.8571875 17.75 76.5 C17.09 75.51 16.43 74.52 15.75 73.5 C14.96625 74.263125 14.1825 75.02625 13.375 75.8125 C5.29753314 82.40941029 -5.28917099 82.42756926 -15.25 81.5 C-22.83607736 79.92464648 -28.68472206 76.86017354 -33.25 70.5 C-36.87600314 64.2487186 -37.21565642 57.32828211 -35.81640625 50.33203125 C-33.84291341 43.99479028 -29.76776299 39.45363654 -23.9921875 36.24609375 C-11.56305861 30.8308302 1.47923183 31.25013198 14.75 31.5 C14.64391566 30.06023011 14.52244533 28.62158861 14.39453125 27.18359375 C14.32854736 26.38236084 14.26256348 25.58112793 14.19458008 24.75561523 C13.49317175 21.19695981 11.55233346 19.650628 8.75 17.5 C3.40432426 14.1187708 -3.17879831 15.04154896 -9.25 15.5 C-11.95877108 16.14953404 -14.47374297 16.93040237 -17.06640625 17.94140625 C-19.75243 18.6285286 -21.59809994 18.20375555 -24.25 17.5 C-26.01722161 12.97149462 -26.34200044 9.33577293 -26.25 4.5 C-17.47482325 1.03936692 -9.3593735 0.06920054 0 0 Z M-13.8125 50.75 C-15.74538978 54.44770219 -16.06927788 57.41188612 -15.25 61.5 C-13.49023741 64.49811404 -11.98792211 66.03616324 -9.0625 67.875 C-3.02529358 69.21660143 2.94575138 68.18576889 8.1796875 64.875 C11.9338311 61.58778968 14.19237181 57.17288457 15.75 52.5 C15.81665376 51.10560336 15.83538199 49.70830125 15.8125 48.3125 C15.791875 47.054375 15.77125 45.79625 15.75 44.5 C-0.1644861 43.55529874 -0.1644861 43.55529874 -13.8125 50.75 Z " fill="#ED1D24" transform="translate(423.25,350.5)"/>
<path d="M0 0 C5.94 0 11.88 0 18 0 C18 6.6 18 13.2 18 20 C18.66 20 19.32 20 20 20 C18.7874262 23.72433382 17.49140021 27.37802806 16 31 C12.40056264 29.66306612 9.26874082 28.00519395 6 26 C6.04640625 26.79921875 6.0928125 27.5984375 6.140625 28.421875 C6.43510954 37.38261875 5.02815919 44.94368161 1 53 C1.721875 53.2475 2.44375 53.495 3.1875 53.75 C6.38410244 55.17071219 8.49975447 56.54149003 11 59 C11.56762695 61.93261719 11.56762695 61.93261719 11.48828125 65.296875 C11.47216797 66.50214844 11.45605469 67.70742188 11.43945312 68.94921875 C11.39755859 70.20347656 11.35566406 71.45773437 11.3125 72.75 C11.28994141 74.01972656 11.26738281 75.28945313 11.24414062 76.59765625 C11.18520639 79.73295773 11.10297079 82.86588595 11 86 C7.37 86 3.74 86 0 86 C0 78.41 0 70.82 0 63 C-5.94193948 64.98064649 -7.0964483 65.74570294 -11 70.125 C-21.45209006 81.20381466 -36.74684207 88.54448501 -52.046875 89.23828125 C-70.88575017 89.68720935 -88.78499645 86.40271763 -103 73 C-102.01 72.505 -102.01 72.505 -101 72 C-99.30259375 72.70458373 -97.60548537 73.41444074 -95.94921875 74.2109375 C-90.70903141 76.33221574 -85.31713926 76.21515093 -79.75 76.25 C-78.94175781 76.270625 -78.13351563 76.29125 -77.30078125 76.3125 C-62.26742644 76.40871347 -47.88815813 67.7858446 -37 58 C-34.32151454 55.32151454 -34.69495994 53.86029139 -34.5859375 50.1171875 C-34.54726562 48.95058594 -34.50859375 47.78398437 -34.46875 46.58203125 C-34.4378125 45.35871094 -34.406875 44.13539063 -34.375 42.875 C-34.33632812 41.64394531 -34.29765625 40.41289062 -34.2578125 39.14453125 C-34.1633001 36.09650624 -34.07774506 33.04849138 -34 30 C-29.91894938 31.54342971 -26.58427218 33.49934499 -23 36 C-21.68 31.71 -20.36 27.42 -19 23 C-10.75 23 -2.5 23 6 23 C4.3944104 15.12496532 2.73575485 7.55589435 0 0 Z " fill="#F4842A" transform="translate(217,356)"/>
<path d="M0 0 C0.98484375 0.00128906 1.9696875 0.00257813 2.984375 0.00390625 C8.76892138 0.07332081 13.82891784 0.72830102 19.375 2.375 C19.66880531 11.18915929 19.66880531 11.18915929 17.375 14.375 C13.5724399 16.27628005 8.50787855 15.31824565 4.29101562 15.16015625 C-1.15672069 15.06118829 -4.79382861 15.80747118 -9.625 18.375 C-12.03621859 20.33133975 -12.03621859 20.33133975 -11.75 24 C-11.70875 25.11375 -11.6675 26.2275 -11.625 27.375 C-10.47 27.74625 -9.315 28.1175 -8.125 28.5 C-3.52085132 30.04693531 1.05924541 31.65611095 5.625 33.3125 C6.65270508 33.67335693 6.65270508 33.67335693 7.70117188 34.04150391 C15.07904452 36.75332197 18.88928394 40.40356789 22.375 47.375 C24.29855119 53.70247103 24.07701527 60.30655538 21.4765625 66.39453125 C16.78814455 74.8237082 10.5533692 78.61962061 1.6875 81.625 C-9.53831247 84.04454405 -20.62261106 81.74778734 -31.625 79.375 C-31.82977996 73.62750903 -31.30033786 70.91512323 -27.625 66.375 C-23.94795316 64.53647658 -19.25409516 65.38550725 -15.18554688 65.50195312 C-10.32244412 65.57440952 -6.24686335 65.10383302 -1.625 63.375 C0.80677033 60.90156069 0.80677033 60.90156069 2.375 58.375 C1.07398524 54.36353784 -0.06473486 52.61172501 -3.625 50.375 C-6.20161176 49.35439404 -8.75971631 48.40598742 -11.375 47.5 C-19.95436642 44.3865514 -27.05039646 41.79227051 -31.625 33.375 C-33.6559276 27.28221719 -33.73855753 19.91248609 -31.0625 14 C-24.28755086 2.62186242 -12.46947433 -0.31255938 0 0 Z " fill="#ED1D24" transform="translate(1089.625,350.625)"/>
<path d="M0 0 C0.98484375 0.00128906 1.9696875 0.00257813 2.984375 0.00390625 C8.76892138 0.07332081 13.82891784 0.72830102 19.375 2.375 C19.72859388 9.32901307 19.72859388 9.32901307 18.44140625 13.13671875 C16.375 15.375 16.375 15.375 14.4597168 15.72241211 C11.99815097 15.76050058 9.58163195 15.66029617 7.125 15.5 C0.63822345 15.1290406 -3.83301619 15.23892586 -9.625 18.375 C-12.03621859 20.33133975 -12.03621859 20.33133975 -11.75 24 C-11.70875 25.11375 -11.6675 26.2275 -11.625 27.375 C-10.47 27.74625 -9.315 28.1175 -8.125 28.5 C-6.28951038 29.11863879 -4.45657992 29.74488008 -2.625 30.375 C-1.99803223 30.58962891 -1.37106445 30.80425781 -0.72509766 31.02539062 C1.37619766 31.7523577 3.469577 32.49929853 5.5625 33.25 C6.23925781 33.48219238 6.91601562 33.71438477 7.61328125 33.95361328 C13.17628654 35.98111055 17.59389074 38.54141709 20.8359375 43.69921875 C23.79342584 51.34571637 24.85600491 58.1590398 21.9375 66 C18.0754931 73.57650659 12.08248602 78.13269829 4.125 80.875 C-8.13437448 84.0712448 -19.51188132 81.98732855 -31.625 79.375 C-31.82977996 73.62750903 -31.30033786 70.91512323 -27.625 66.375 C-23.94795316 64.53647658 -19.25409516 65.38550725 -15.18554688 65.50195312 C-10.30042498 65.57473759 -6.30863148 64.95565272 -1.625 63.375 C-0.14 62.88 -0.14 62.88 1.375 62.375 C2.34474201 58.90009112 2.79377053 57.12569377 1 53.91015625 C-3.24223639 49.81311545 -8.51228613 48.48963254 -14.0078125 46.58984375 C-21.52680333 43.82384863 -27.36601023 40.04585837 -31.625 33.125 C-33.34189075 26.6866597 -33.82385019 20.27553793 -31.0625 14.0625 C-24.34700528 2.62042015 -12.47928067 -0.31280519 0 0 Z " fill="#ED1D24" transform="translate(499.625,350.625)"/>
<path d="M0 0 C0 6.93 0 13.86 0 21 C5.94 21 11.88 21 18 21 C18 30 18 30 15 36 C10.05 36 5.1 36 0 36 C0.09367004 42.03257915 0.19979496 48.06476339 0.31738281 54.09692383 C0.35562625 56.14829534 0.39048719 58.19973284 0.421875 60.2512207 C0.46762602 63.20287638 0.52560422 66.15407953 0.5859375 69.10546875 C0.59748871 70.02023483 0.60903992 70.93500092 0.62094116 71.87748718 C0.68467068 78.21014426 0.68467068 78.21014426 3 84 C5.72951421 84.85017656 8.21795512 85.47569154 11 86 C14.24682475 86.9379716 15.61426465 87.54775856 17.8125 90.125 C19.40268838 93.97492977 19.2108574 96.85313784 19 101 C11.21525954 104.64454142 1.98014079 103.99404178 -6.0625 101.375 C-12.20016333 98.79736166 -14.57492141 95.80225539 -17.59790039 89.85791016 C-20.09524809 82.95431634 -19.45110097 75.26971631 -19.43359375 68.0234375 C-19.43816059 66.36772448 -19.44346765 64.71201334 -19.44947815 63.05630493 C-19.45838126 59.59833029 -19.45601642 56.14058699 -19.44604492 52.68261719 C-19.43453079 48.25966083 -19.45481782 43.83749998 -19.48396206 39.41464806 C-19.50233344 36.00018278 -19.50203025 32.5859081 -19.49632454 29.17140579 C-19.49617159 27.54077662 -19.50219426 25.91013432 -19.51461601 24.27955246 C-19.52955109 21.99885158 -19.51883421 19.71962076 -19.50170898 17.43896484 C-19.50154282 16.14405121 -19.50137665 14.84913757 -19.50120544 13.51498413 C-18.82571091 8.77770003 -16.91197045 5.47438546 -13.10546875 2.5390625 C-12.15607422 2.08660156 -12.15607422 2.08660156 -11.1875 1.625 C-10.56230469 1.30789063 -9.93710937 0.99078125 -9.29296875 0.6640625 C-7 0 -7 0 0 0 Z " fill="#ED1D24" transform="translate(1031,329)"/>
<path d="M0 0 C1.093125 0.37125 2.18625 0.7425 3.3125 1.125 C11.39605879 6.76469218 15.2806034 17.65014513 17 27 C18.11841307 37.23702818 17.31036764 46.53717303 13 56 C12.50886719 57.17369141 12.50886719 57.17369141 12.0078125 58.37109375 C9.71733061 62.92697926 7.32573966 64.62385455 2.5625 66.4375 C-4.51421619 68.68231893 -11.1979739 69.15917414 -18.5625 69.125 C-19.39974609 69.12886719 -20.23699219 69.13273437 -21.09960938 69.13671875 C-25.19589002 69.13023216 -29.00501048 69.0293838 -33 68 C-31.140128 66.06263333 -29.28041909 64.21956218 -27.1640625 62.5625 C-19.11620443 56.1488813 -14.56875593 47.96747819 -13.19140625 37.74609375 C-12.44186726 26.99250369 -14.95051946 18.02744318 -21.9765625 9.640625 C-27.51703722 4.28147491 -33.79353408 1.53628581 -41 -1 C-31.65899808 -10.34100192 -9.99905195 -5.50795235 0 0 Z " fill="#9F8BBE" transform="translate(336,363)"/>
<path d="M0 0 C-1.051875 1.0209375 -1.051875 1.0209375 -2.125 2.0625 C-3.08696923 3.03809486 -4.04500509 4.01757704 -5 5 C-5.50402344 5.50789063 -6.00804687 6.01578125 -6.52734375 6.5390625 C-13.88169022 14.43609611 -16.39319411 24.20140389 -16.27734375 34.76953125 C-15.5542304 43.19227411 -11.95516279 50.99020269 -6 57 C-1.70322999 60.36866769 2.72011336 62.54803117 8 64 C3.44659074 68.55340926 -4.70342041 67.24570275 -10.76074219 67.25317383 C-16.97438566 67.17874824 -22.22898867 66.38761449 -28 64 C-29.19625 63.67 -30.3925 63.34 -31.625 63 C-39.62407941 58.2598048 -44.5542808 48.79061359 -47 40 C-49.45411453 28.71107316 -46.76461766 18.65886622 -41.73046875 8.49609375 C-37.41922673 2.27739477 -28.62686291 -0.19883443 -21.45703125 -1.65234375 C-13.98516832 -2.70957078 -7.19706238 -2.17269808 0 0 Z " fill="#9C88BC" transform="translate(146,366)"/>
<path d="M0 0 C0.33 0 0.66 0 1 0 C1 9.57 1 19.14 1 29 C3.475 29.99 3.475 29.99 6 31 C8.1958511 32.38626963 10.35008732 33.79685174 12.5 35.25 C19.04785228 39.55688537 25.7279126 43.03800096 33 46 C33.78117187 46.3403125 34.56234375 46.680625 35.3671875 47.03125 C47.34443123 51.50717499 62.12377557 49.81382914 74 46 C75.33078741 45.65664338 76.66327243 45.31944998 78 45 C73.76377648 52.94121643 65.96498292 56.9584621 57.8125 60.17578125 C50.14023462 62.42418124 42.73328229 63.3624561 34.75 63.3125 C33.83903564 63.30903564 32.92807129 63.30557129 31.98950195 63.30200195 C21.45199465 63.13370681 11.73945452 61.0905709 2 57 C1.67 57.99 1.34 58.98 1 60 C-3.62 60 -8.24 60 -13 60 C-13 56.37 -13 52.74 -13 49 C-11.02 49.66 -9.04 50.32 -7 51 C-7.00523682 50.21761963 -7.01047363 49.43523926 -7.01586914 48.62915039 C-7.03657106 45.10694167 -7.04963838 41.5847457 -7.0625 38.0625 C-7.07506836 36.21495117 -7.07506836 36.21495117 -7.08789062 34.33007812 C-7.09111328 33.16025391 -7.09433594 31.99042969 -7.09765625 30.78515625 C-7.10289307 29.70113525 -7.10812988 28.61711426 -7.11352539 27.50024414 C-7 25 -7 25 -6 24 C-7.32 23.01 -8.64 22.02 -10 21 C-9.48080319 15.718795 -7.67578487 12.13622624 -5 7.6875 C-4.63132812 7.05521484 -4.26265625 6.42292969 -3.8828125 5.77148438 C-1.1945211 1.1945211 -1.1945211 1.1945211 0 0 Z " fill="#F37B28" transform="translate(265,382)"/>
<path d="M0 0 C0.91265625 0.31839844 1.8253125 0.63679688 2.765625 0.96484375 C16.81672506 6.31507031 26.96736709 15.05396472 34.25 28.1171875 C34.62125 29.04917969 34.62125 29.04917969 35 30 C34.505 30.99 34.505 30.99 34 32 C32.77990234 31.41992188 32.77990234 31.41992188 31.53515625 30.828125 C12.62241545 22.23335865 -9.17222363 17.60020655 -29.34375 24.83203125 C-31.29770123 25.6911951 -33.2200973 26.62302841 -35.12109375 27.59375 C-38.83770504 29.40919107 -40.92348404 29.81530319 -45 29 C-49.81593943 24.0953459 -51.93705048 17.01160105 -52.04296875 10.26171875 C-52.02878906 9.51535156 -52.01460938 8.76898438 -52 8 C-36.54951513 0.30628917 -17.0588992 -6.1245296 0 0 Z " fill="#9882B6" transform="translate(160,319)"/>
<path d="M0 0 C6.6 0 13.2 0 20 0 C20 26.4 20 52.8 20 80 C9.55555556 80 9.55555556 80 4 76 C0.10696368 71.71766004 -0.12380402 67.96840549 -0.11352539 62.32543945 C-0.11367142 61.652005 -0.11381744 60.97857056 -0.1139679 60.284729 C-0.11327175 58.06088021 -0.10549332 55.83711539 -0.09765625 53.61328125 C-0.09579101 52.07057236 -0.09436761 50.52786289 -0.09336853 48.9851532 C-0.08955169 44.92616132 -0.07972851 40.86720527 -0.06866455 36.80822754 C-0.05843252 32.66577641 -0.05386707 28.5233195 -0.04882812 24.38085938 C-0.0381055 16.25388799 -0.02051543 8.12695258 0 0 Z " fill="#ED1D24" transform="translate(895,352)"/>
<path d="M0 0 C6.6 0 13.2 0 20 0 C20 26.4 20 52.8 20 80 C9.55555556 80 9.55555556 80 4 76 C0.10696368 71.71766004 -0.12380402 67.96840549 -0.11352539 62.32543945 C-0.11367142 61.652005 -0.11381744 60.97857056 -0.1139679 60.284729 C-0.11327175 58.06088021 -0.10549332 55.83711539 -0.09765625 53.61328125 C-0.09579101 52.07057236 -0.09436761 50.52786289 -0.09336853 48.9851532 C-0.08955169 44.92616132 -0.07972851 40.86720527 -0.06866455 36.80822754 C-0.05843252 32.66577641 -0.05386707 28.5233195 -0.04882812 24.38085938 C-0.0381055 16.25388799 -0.02051543 8.12695258 0 0 Z " fill="#ED1D24" transform="translate(533,352)"/>
<path d="M0 0 C17.46200281 -1.33184767 34.5101649 5.18998246 47.875 16.25 C59.49116501 26.32115784 67.46089025 40.03292692 71 55 C71 57.31 71 59.62 71 62 C62.75 62 54.5 62 46 62 C46.33 58.04 46.66 54.08 47 50 C45.35 49.34 43.7 48.68 42 48 C40.05795974 47.13512377 38.12046548 46.25997215 36.1875 45.375 C35.21167969 44.92898438 34.23585937 44.48296875 33.23046875 44.0234375 C32.49441406 43.68570313 31.75835937 43.34796875 31 43 C31 41.68 31 40.36 31 39 C35.29 39 39.58 39 44 39 C39.17203341 23.51027387 30.43893647 13.60616147 16.1953125 6.0625 C10.90610535 3.50259903 5.86187879 1.73273485 0 1 C0 0.67 0 0.34 0 0 Z " fill="#F58A2B" transform="translate(152,317)"/>
<path d="M0 0 C5.94 0 11.88 0 18 0 C18 6.6 18 13.2 18 20 C18.66 20 19.32 20 20 20 C18.7874262 23.72433382 17.49140021 27.37802806 16 31 C12.40056264 29.66306612 9.26874082 28.00519395 6 26 C6.02320313 26.91523438 6.04640625 27.83046875 6.0703125 28.7734375 C6.08835938 29.96195312 6.10640625 31.15046875 6.125 32.375 C6.14820313 33.55835938 6.17140625 34.74171875 6.1953125 35.9609375 C6 39 6 39 4 41 C1.43383789 41.21118164 1.43383789 41.21118164 -1.77734375 41.16015625 C-3.50694336 41.1437207 -3.50694336 41.1437207 -5.27148438 41.12695312 C-6.48126953 41.10568359 -7.69105469 41.08441406 -8.9375 41.0625 C-11.32155445 41.02809622 -13.70567524 40.99794894 -16.08984375 40.97265625 C-17.15066162 40.95468994 -18.21147949 40.93672363 -19.30444336 40.91821289 C-22.10040278 40.87385031 -22.10040278 40.87385031 -25 42 C-25.268125 42.680625 -25.53625 43.36125 -25.8125 44.0625 C-27.48947108 48.21079688 -30.10712937 51.60108786 -33 55 C-33.33 55 -33.66 55 -34 55 C-34 46.75 -34 38.5 -34 30 C-29.7870524 31.68517904 -26.67684111 33.43476202 -23 36 C-21.68 31.71 -20.36 27.42 -19 23 C-10.75 23 -2.5 23 6 23 C4.3944104 15.12496532 2.73575485 7.55589435 0 0 Z " fill="#FBB32F" transform="translate(217,356)"/>
<path d="M0 0 C0.90013321 0.02644089 1.80026642 0.05288177 2.72767639 0.0801239 C5.5808855 0.16735398 8.43274469 0.2766865 11.28515625 0.38671875 C13.22846844 0.45003306 15.17182845 0.51189718 17.11523438 0.57226562 C21.8600929 0.72280871 26.60386785 0.89316781 31.34765625 1.07421875 C23.44666661 11.41177302 8.99714633 17.10286965 -3.65234375 19.07421875 C-22.76474243 20.4922275 -41.24432141 17.59630913 -56.46484375 5.13671875 C-57.18671875 4.45609375 -57.90859375 3.77546875 -58.65234375 3.07421875 C-57.99234375 2.74421875 -57.33234375 2.41421875 -56.65234375 2.07421875 C-54.9549375 2.77880248 -53.25782912 3.48865949 -51.6015625 4.28515625 C-46.36137516 6.40643449 -40.96948301 6.28936968 -35.40234375 6.32421875 C-34.59410156 6.34484375 -33.78585938 6.36546875 -32.953125 6.38671875 C-25.73789373 6.43289623 -19.90781945 4.71864427 -13.48510742 1.47436523 C-9.00992339 -0.44472256 -4.79235171 -0.20800717 0 0 Z " fill="#EB3E26" transform="translate(172.65234375,425.92578125)"/>
<path d="M0 0 C1.12489586 2.24979172 2.22977627 4.51077203 3.26171875 6.8046875 C8.013999 17.03836498 12.49824789 21.46433529 23.05859375 25.3359375 C23.69925781 25.55507813 24.33992188 25.77421875 25 26 C20.44659074 30.55340926 12.29657959 29.24570275 6.23925781 29.25317383 C0.02561434 29.17874824 -5.22898867 28.38761449 -11 26 C-12.19625 25.67 -13.3925 25.34 -14.625 25 C-23.63086834 19.66318913 -26.55790288 10.46576707 -30 1 C-15.15 0.505 -15.15 0.505 0 0 Z " fill="#4B266F" transform="translate(129,404)"/>
<path d="M0 0 C0 0.99 0 1.98 0 3 C0.66 3 1.32 3 2 3 C2 5.31 2 7.62 2 10 C2.99 10 3.98 10 5 10 C5 14.29 5 18.58 5 23 C3.40671875 23.36351562 3.40671875 23.36351562 1.78125 23.734375 C-7.17380305 25.69046077 -7.17380305 25.69046077 -15.5625 29.25 C-19.53932438 31.27456514 -21.62157964 31.99134046 -26 31 C-30.80573286 26.06713135 -32.93672255 19.0324995 -33.04296875 12.26171875 C-33.02878906 11.51535156 -33.01460938 10.76898438 -33 10 C-23.05410919 5.04735233 -11.31322606 0 0 0 Z " fill="#60398F" transform="translate(141,317)"/>
<path d="M0 0 C1.093125 0.37125 2.18625 0.7425 3.3125 1.125 C10.00869136 5.79676141 12.83835895 13.43425633 15 21 C5.1 21 -4.8 21 -15 21 C-16.65 18.03 -18.3 15.06 -20 12 C-25.66555266 5.17088854 -32.76604159 1.89790753 -41 -1 C-31.65899808 -10.34100192 -9.99905195 -5.50795235 0 0 Z " fill="#613C90" transform="translate(336,363)"/>
<path d="M0 0 C-1.051875 1.0209375 -1.051875 1.0209375 -2.125 2.0625 C-4.1862746 4.13548639 -6.18271043 6.25242423 -8.125 8.4375 C-8.60195312 8.97246094 -9.07890625 9.50742187 -9.5703125 10.05859375 C-11.48326196 12.54084677 -11.48326196 12.54084677 -14 18 C-24.23 18 -34.46 18 -45 18 C-43.83186149 12.15930745 -42.04226961 8.36957889 -38 4 C-34.80666852 2.06235141 -31.58945417 0.98737265 -28 0 C-27.25492188 -0.22300781 -26.50984375 -0.44601562 -25.7421875 -0.67578125 C-17.0404126 -2.96818431 -8.5639284 -2.58533688 0 0 Z " fill="#542A84" transform="translate(146,366)"/>
<path d="M0 0 C10.23 0.33 20.46 0.66 31 1 C29.92859456 6.35702722 28.79275603 10.03295977 25 14 C16.60009577 18.47483482 7.76461442 19.16828127 -1.5625 19.125 C-2.39974609 19.12886719 -3.23699219 19.13273437 -4.09960938 19.13671875 C-8.19589002 19.13023216 -12.00501048 19.0293838 -16 18 C-14.11142376 16.03273309 -12.19510152 14.16151847 -10.09375 12.421875 C-9.4028125 11.84953125 -8.711875 11.2771875 -8 10.6875 C-7.34 10.15511719 -6.68 9.62273437 -6 9.07421875 C-3.30557834 6.44966301 -3.30557834 6.44966301 0 0 Z " fill="#6A4C8C" transform="translate(319,413)"/>
<path d="M0 0 C3.36290616 3.73907016 6.19756282 7.96365088 7 13 C5.87976082 17.48095672 3.77678761 19.45286417 0 22 C-2.8125 23.25 -2.8125 23.25 -5 24 C-5 24.66 -5 25.32 -5 26 C-7.8125 26.3125 -7.8125 26.3125 -11 26 C-12.6875 23.6875 -12.6875 23.6875 -14 21 C-14.53625 20.484375 -15.0725 19.96875 -15.625 19.4375 C-18.2137385 16.73109157 -17.99896401 14.03004369 -18.125 10.375 C-18 7 -18 7 -17 5 C-15.36209288 3.95355934 -13.68991979 2.9601817 -12 2 C-11.21625 1.4225 -10.4325 0.845 -9.625 0.25 C-5.80198879 -1.57048153 -3.99788343 -1.40276611 0 0 Z " fill="#ED1D24" transform="translate(911,318)"/>
<path d="M0 0 C3.75246638 4.09665234 6.35428657 8.42841551 7 14 C5.09493776 18.7626556 1.36352636 21.52908748 -3 24 C-3.66 24 -4.32 24 -5 24 C-5 24.66 -5 25.32 -5 26 C-7.8125 26.3125 -7.8125 26.3125 -11 26 C-12.6875 23.6875 -12.6875 23.6875 -14 21 C-14.53625 20.484375 -15.0725 19.96875 -15.625 19.4375 C-18.2137385 16.73109157 -17.99896401 14.03004369 -18.125 10.375 C-18 7 -18 7 -17 5 C-15.36209288 3.95355934 -13.68991979 2.9601817 -12 2 C-11.21625 1.4225 -10.4325 0.845 -9.625 0.25 C-5.80198879 -1.57048153 -3.99788343 -1.40276611 0 0 Z " fill="#ED1D24" transform="translate(549,318)"/>
<path d="M0 0 C18.69660069 -1.42601192 35.75384413 6.0540335 49.73901367 18.00415039 C52.84703223 20.76144896 55.58580923 23.61551246 58 27 C58 27.66 58 28.32 58 29 C49.585 29.495 49.585 29.495 41 30 C40.030625 28.35 39.06125 26.7 38.0625 25 C30.47935005 13.16177592 19.23437597 6.26191769 6 2 C4.01043215 1.60919203 2.01193023 1.25149128 0 1 C0 0.67 0 0.34 0 0 Z " fill="#E93927" transform="translate(152,317)"/>
<path d="M0 0 C13.79105812 4.59701937 23.38611156 13.49745906 30.3203125 26.1875 C30.54460937 26.785625 30.76890625 27.38375 31 28 C30.67 28.66 30.34 29.32 30 30 C29.15179688 29.61328125 28.30359375 29.2265625 27.4296875 28.828125 C19.07410918 25.11861551 10.87062361 22.29180245 2 20 C2 18.35 2 16.7 2 15 C1.34 15 0.68 15 0 15 C0 10.05 0 5.1 0 0 Z " fill="#3E1F55" transform="translate(164,321)"/>
<path d="M0 0 C5.94 0 11.88 0 18 0 C18 6.6 18 13.2 18 20 C18.66 20 19.32 20 20 20 C18.7874262 23.72433382 17.49140021 27.37802806 16 31 C14.31727014 30.37498605 12.65369357 29.69822617 11 29 C10.0925 28.67 9.185 28.34 8.25 28 C5.56875509 25.61667119 5.70237991 25.12233683 5.5 21.6875 C5.46003906 20.81480469 5.42007813 19.94210937 5.37890625 19.04296875 C4.75856942 14.06108843 2.84605336 9.56478496 1.05859375 4.90625 C0 2 0 2 0 0 Z " fill="#FCFCFA" transform="translate(217,356)"/>
<path d="M0 0 C1.19625 0.515625 2.3925 1.03125 3.625 1.5625 C6.28291659 3.17123899 6.76927343 4.23933352 8 7 C3.57205268 7.26811705 -0.85597523 7.50080525 -5.28735352 7.7019043 C-6.79207919 7.77504956 -8.29638082 7.85758182 -9.80004883 7.94995117 C-23.92066329 8.80645513 -23.92066329 8.80645513 -28.1875 5.65625 C-29.5796875 4.34140625 -29.5796875 4.34140625 -31 3 C-33.78623765 1.62486065 -33.78623765 1.62486065 -36.4375 0.6875 C-37.30246094 0.36136719 -38.16742188 0.03523438 -39.05859375 -0.30078125 C-39.69925781 -0.53152344 -40.33992188 -0.76226562 -41 -1 C-31.69124153 -10.30875847 -9.95956303 -5.55726878 0 0 Z " fill="#432057" transform="translate(336,363)"/>
<path d="M0 0 C4.62125888 1.15531472 8.07850485 2.08005656 11 6 C11.88410621 10.62485099 11.65814522 15.12560758 11.4375 19.8125 C11.40591797 21.07771484 11.37433594 22.34292969 11.34179688 23.64648438 C11.25937665 26.76667857 11.14435922 29.88215803 11 33 C7.37 33 3.74 33 0 33 C0 25.41 0 17.82 0 10 C-1.65 10 -3.3 10 -5 10 C-3.35 6.7 -1.7 3.4 0 0 Z " fill="#FDFDFD" transform="translate(217,409)"/>
<path d="M0 0 C9.57 0 19.14 0 29 0 C31 6 31 6 31 12 C21.43 12 11.86 12 2 12 C0 3 0 3 0 0 Z " fill="#8167A8" transform="translate(322,384)"/>
<path d="M0 0 C0.90013321 0.02644089 1.80026642 0.05288177 2.72767639 0.0801239 C5.5808855 0.16735398 8.43274469 0.2766865 11.28515625 0.38671875 C13.22846844 0.45003306 15.17182845 0.51189718 17.11523438 0.57226562 C21.8600929 0.72280871 26.60386785 0.89316781 31.34765625 1.07421875 C28.46061031 5.1827072 26.12085302 7.41484812 21.34765625 9.07421875 C17.7114984 9.39952632 14.12518085 9.28499134 10.48046875 9.1484375 C9.44574432 9.12199661 8.4110199 9.09555573 7.34494019 9.0683136 C4.05357315 8.98083494 0.76334453 8.87158466 -2.52734375 8.76171875 C-4.76428266 8.69843054 -7.00126232 8.63656549 -9.23828125 8.57617188 C-14.71021494 8.42533998 -20.18137724 8.25664813 -25.65234375 8.07421875 C-25.65234375 7.41421875 -25.65234375 6.75421875 -25.65234375 6.07421875 C-25.08386719 5.89246094 -24.51539063 5.71070313 -23.9296875 5.5234375 C-23.15753906 5.27207031 -22.38539063 5.02070313 -21.58984375 4.76171875 C-20.83574219 4.51808594 -20.08164063 4.27445312 -19.3046875 4.0234375 C-16.53205311 3.09387296 -16.53205311 3.09387296 -13.58984375 1.51953125 C-9.06098238 -0.42284126 -4.85161316 -0.21057935 0 0 Z " fill="#EE5526" transform="translate(172.65234375,425.92578125)"/>
<path d="M0 0 C4.26829471 -0.12456859 8.53559796 -0.2147864 12.80517578 -0.2746582 C14.25425674 -0.29964236 15.70321375 -0.33364269 17.15185547 -0.37719727 C31.72916407 -0.80416874 31.72916407 -0.80416874 37.47070312 3.7890625 C39.73410648 5.58128483 42.24929355 6.24355573 45 7 C40.44659074 11.55340926 32.29657959 10.24570275 26.23925781 10.25317383 C20.04327628 10.17895979 14.74418962 9.42680879 9 7 C7.97132812 6.64035156 7.97132812 6.64035156 6.921875 6.2734375 C2.32419234 4.57266871 2.32419234 4.57266871 0.8125 1.90234375 C0.4103125 0.96068359 0.4103125 0.96068359 0 0 Z " fill="#41205D" transform="translate(109,423)"/>
<path d="M0 0 C1.12138618 0.00848969 1.12138618 0.00848969 2.26542664 0.01715088 C4.63985786 0.03944032 7.01274813 0.08961844 9.38671875 0.140625 C11.00193124 0.16069981 12.61716752 0.17894887 14.23242188 0.1953125 C18.18027608 0.23928014 22.12698667 0.30825239 26.07421875 0.390625 C24.37304688 4.23681641 24.37304688 4.23681641 21.68359375 5.62109375 C20.74 5.93691406 19.79640625 6.25273437 18.82421875 6.578125 C17.42429687 7.06345703 17.42429687 7.06345703 15.99609375 7.55859375 C9.78817981 9.32635534 3.91719015 9.54534877 -2.48828125 9.515625 C-3.32552734 9.51949219 -4.16277344 9.52335937 -5.02539062 9.52734375 C-9.12167127 9.52085716 -12.93079173 9.4200088 -16.92578125 8.390625 C-15.61690667 7.03327358 -14.27725263 5.70557012 -12.92578125 4.390625 C-11.86194214 3.34310059 -11.86194214 3.34310059 -10.77661133 2.27441406 C-7.14599757 -0.12464527 -4.19964733 -0.12077178 0 0 Z " fill="#42235C" transform="translate(319.92578125,422.609375)"/>
<path d="M0 0 C10.56 0 21.12 0 32 0 C31.01 2.97 30.02 5.94 29 9 C19.1 9 9.2 9 -1 9 C-0.67 6.03 -0.34 3.06 0 0 Z " fill="#8971AD" transform="translate(100,384)"/>
<path d="M0 0 C2 4 2 4 4 10 C-6.23 10 -16.46 10 -27 10 C-27.99 7.03 -28.98 4.06 -30 1 C-15.15 0.505 -15.15 0.505 0 0 Z " fill="#674593" transform="translate(129,404)"/>
<path d="M0 0 C3.45925163 1.2491742 6.14693203 2.67527795 9 5 C8.79503906 6.09957031 8.59007812 7.19914062 8.37890625 8.33203125 C6.87218082 16.55247949 5.5879167 24.65158281 5 33 C1.7 31.02 -1.6 29.04 -5 27 C-4.25130208 24.52604167 -3.50260417 22.05208333 -2.75390625 19.578125 C-2.38072266 18.30195313 -2.38072266 18.30195313 -2 17 C-1.814375 16.3709375 -1.62875 15.741875 -1.4375 15.09375 C-0.82419415 12.15864345 -0.64676686 9.2395265 -0.4375 6.25 C-0.35371094 5.07953125 -0.26992187 3.9090625 -0.18359375 2.703125 C-0.12300781 1.81109375 -0.06242188 0.9190625 0 0 Z " fill="#B93326" transform="translate(223,382)"/>
<path d="M0 0 C10.56 0 21.12 0 32 0 C31.01 2.31 30.02 4.62 29 7 C18.77 7 8.54 7 -2 7 C-1 2 -1 2 0 0 Z " fill="#613C91" transform="translate(103,377)"/>
<path d="M0 0 C1.20446777 0.01047363 2.40893555 0.02094727 3.64990234 0.03173828 C5.60283203 0.04140625 5.60283203 0.04140625 7.59521484 0.05126953 C8.9754258 0.06798149 10.35563413 0.08491139 11.73583984 0.10205078 C13.12385436 0.11208072 14.51187574 0.12120655 15.89990234 0.12939453 C19.3037201 0.15303215 22.70719491 0.18598211 26.11083984 0.22705078 C25.78083984 2.53705078 25.45083984 4.84705078 25.11083984 7.22705078 C14.88083984 7.22705078 4.65083984 7.22705078 -5.88916016 7.22705078 C-4.51470961 0.35479803 -4.51470961 0.35479803 0 0 Z " fill="#8269A8" transform="translate(325.88916015625,406.77294921875)"/>
<path d="M0 0 C1.41805831 0.28482368 2.83440379 0.57818144 4.25 0.875 C5.03890625 1.03742188 5.8278125 1.19984375 6.640625 1.3671875 C9 2 9 2 13 4 C13 8.95 13 13.9 13 19 C13.66 19 14.32 19 15 19 C15 20.65 15 22.3 15 24 C12.03 23.67 9.06 23.34 6 23 C6 21.02 6 19.04 6 17 C5.34 17 4.68 17 4 17 C4 14.69 4 12.38 4 10 C3.34 10 2.68 10 2 10 C2 8.35 2 6.7 2 5 C1.34 5 0.68 5 0 5 C0 3.35 0 1.7 0 0 Z " fill="#765E8B" transform="translate(151,317)"/>
<path d="M0 0 C0.33 0 0.66 0 1 0 C1 9.57 1 19.14 1 29 C-8 23 -8 23 -10 21 C-9.75509592 15.77282853 -7.62511443 12.05198221 -5 7.6875 C-4.44699219 6.73907227 -4.44699219 6.73907227 -3.8828125 5.77148438 C-1.1945211 1.1945211 -1.1945211 1.1945211 0 0 Z " fill="#FCF9F7" transform="translate(265,382)"/>
<path d="M0 0 C4.2129476 1.68517904 7.32315889 3.43476202 11 6 C10.48317213 10.72129239 9.21935276 13.78731772 6.625 17.75 C6.01914063 18.69359375 5.41328125 19.6371875 4.7890625 20.609375 C3 23 3 23 0 25 C0 16.75 0 8.5 0 0 Z " fill="#FDFBFA" transform="translate(183,386)"/>
<path d="M0 0 C9.9 0 19.8 0 30 0 C30 1.65 30 3.3 30 5 C14.655 5.495 14.655 5.495 -1 6 C-0.67 4.02 -0.34 2.04 0 0 Z " fill="#9783B9" transform="translate(323,402)"/>
<path d="M0 0 C9.9 0 19.8 0 30 0 C30 1.65 30 3.3 30 5 C20.1 5 10.2 5 0 5 C0 3.35 0 1.7 0 0 Z " fill="#886FAD" transform="translate(99,400)"/>
<path d="M0 0 C1.52441406 2.05175781 1.52441406 2.05175781 1.52441406 3.05175781 C-2.94018015 3.31909193 -7.40487321 3.55199643 -11.87280273 3.75366211 C-13.39118734 3.82698353 -14.90915504 3.90956435 -16.42651367 4.00170898 C-18.61299496 4.13285486 -20.79883305 4.23019351 -22.98730469 4.32128906 C-24.95896606 4.42340698 -24.95896606 4.42340698 -26.97045898 4.52758789 C-31.34672378 3.93349859 -32.73039895 2.40647329 -35.47558594 -0.94824219 C-30.84999165 -1.19041192 -26.22422676 -1.40531212 -21.59619141 -1.59521484 C-20.02260739 -1.66360336 -18.44932643 -1.73938668 -16.87646484 -1.82275391 C-14.61302455 -1.94143081 -12.34982012 -2.0333138 -10.08496094 -2.12011719 C-9.38377136 -2.16263611 -8.68258179 -2.20515503 -7.96014404 -2.2489624 C-4.4475818 -2.35705937 -2.80437714 -2.20699503 0 0 Z " fill="#4F2779" transform="translate(342.4755859375,366.9482421875)"/>
<path d="M0 0 C1.65 0.99 3.3 1.98 5 3 C4.01 3.495 4.01 3.495 3 4 C3 12.58 3 21.16 3 30 C0.525 29.01 0.525 29.01 -2 28 C-2.05880804 24.83341337 -2.09386406 21.66697007 -2.125 18.5 C-2.14175781 17.613125 -2.15851563 16.72625 -2.17578125 15.8125 C-2.2172205 10.17676212 -1.60441286 5.40699768 0 0 Z " fill="#D44F28" transform="translate(255,403)"/>
<path d="M0 0 C1.9166748 0.10211792 1.9166748 0.10211792 3.87207031 0.20629883 C4.55448792 0.23556961 5.23690552 0.26484039 5.94000244 0.29499817 C8.112033 0.39369714 10.28017131 0.52797405 12.45019531 0.66333008 C13.92534048 0.73665033 15.40060343 0.80764057 16.87597656 0.8762207 C20.48580645 1.04910994 24.09300799 1.25394184 27.70019531 1.47583008 C27.37019531 2.79583008 27.04019531 4.11583008 26.70019531 5.47583008 C15.48019531 5.47583008 4.26019531 5.47583008 -7.29980469 5.47583008 C-3.29980469 0.47583008 -3.29980469 0.47583008 0 0 Z " fill="#543673" transform="translate(320.2998046875,417.524169921875)"/>
<path d="M0 0 C10.56 0 21.12 0 32 0 C31.67 1.32 31.34 2.64 31 4 C20.77 4 10.54 4 0 4 C0 2.68 0 1.36 0 0 Z " fill="#795CA1" transform="translate(100,384)"/>
<path d="M0 0 C9.9 0 19.8 0 30 0 C30.66 1.32 31.32 2.64 32 4 C22.1 4.33 12.2 4.66 2 5 C1.34 3.35 0.68 1.7 0 0 Z " fill="#573280" transform="translate(103,414)"/>
<path d="M0 0 C2 4 2 4 2 5 C-8.23 5 -18.46 5 -29 5 C-29.33 3.68 -29.66 2.36 -30 1 C-15.15 0.505 -15.15 0.505 0 0 Z " fill="#76589F" transform="translate(129,404)"/>
<path d="M0 0 C6 2 6 2 7 3 C7.08631874 4.34267413 7.10706473 5.68974322 7.09765625 7.03515625 C7.09282227 8.24848633 7.09282227 8.24848633 7.08789062 9.48632812 C7.07951172 10.33646484 7.07113281 11.18660156 7.0625 12.0625 C7.05798828 12.91650391 7.05347656 13.77050781 7.04882812 14.65039062 C7.03700373 16.76695663 7.01906769 18.88348685 7 21 C5.35 20.67 3.7 20.34 2 20 C2 18.35 2 16.7 2 15 C1.34 15 0.68 15 0 15 C0 10.05 0 5.1 0 0 Z " fill="#553B6F" transform="translate(164,321)"/>
<path d="M0 0 C2.5850867 -0.13526616 5.16308752 -0.23417653 7.75 -0.3125 C8.47960937 -0.35439453 9.20921875 -0.39628906 9.9609375 -0.43945312 C13.9281637 -0.52961736 15.59174911 -0.38859907 18.515625 2.39453125 C20 5 20 5 20 7 C11.585 7.495 11.585 7.495 3 8 C0 3 0 3 0 0 Z " fill="#EE5826" transform="translate(190,339)"/>
<path d="M0 0 C9.57 0 19.14 0 29 0 C29.33 1.32 29.66 2.64 30 4 C20.43 4 10.86 4 1 4 C0.67 2.68 0.34 1.36 0 0 Z " fill="#74569E" transform="translate(322,384)"/>
<path d="M0 0 C0.99 0.33 1.98 0.66 3 1 C3.78982493 10.1268659 1.4179505 18.29969595 -1 27 C-2.65 26.01 -4.3 25.02 -6 24 C-5.69201674 22.51988629 -5.378482 21.04092675 -5.0625 19.5625 C-4.80146484 18.32693359 -4.80146484 18.32693359 -4.53515625 17.06640625 C-4 15 -4 15 -3 14 C-2.76807135 12.48530552 -2.58784762 10.96245438 -2.4375 9.4375 C-2.35371094 8.61121094 -2.26992187 7.78492188 -2.18359375 6.93359375 C-2.12300781 6.29550781 -2.06242188 5.65742188 -2 5 C-1.34 5 -0.68 5 0 5 C0 3.35 0 1.7 0 0 Z " fill="#D44E25" transform="translate(196,366)"/>
<path d="M0 0 C3.31082088 1.32432835 6.56255723 2.66980174 9.8125 4.125 C10.60269531 4.47820312 11.39289063 4.83140625 12.20703125 5.1953125 C12.79871094 5.46085937 13.39039063 5.72640625 14 6 C14 7.65 14 9.3 14 11 C9.38 11 4.76 11 0 11 C0 7.37 0 3.74 0 0 Z " fill="#FCF5EE" transform="translate(252,431)"/>
<path d="M0 0 C4.92957259 -0.07414321 9.85882081 -0.12859817 14.78881836 -0.16479492 C16.4659592 -0.17988384 18.14306057 -0.20035748 19.82006836 -0.22631836 C22.23040504 -0.26269811 24.64022019 -0.27972486 27.05078125 -0.29296875 C27.80087967 -0.30845261 28.55097809 -0.32393646 29.32380676 -0.33988953 C34.55076615 -0.34158031 34.55076615 -0.34158031 36.99682617 1.51831055 C37.32787354 2.00726807 37.6589209 2.49622559 38 3 C33.23113513 3.04950115 28.46242041 3.08576738 23.69335938 3.10986328 C22.07158808 3.11991023 20.44983484 3.13355015 18.828125 3.15087891 C16.49474626 3.17518493 14.1616074 3.18649613 11.828125 3.1953125 C10.74352997 3.21079636 10.74352997 3.21079636 9.63702393 3.22659302 C5.92201961 3.22741782 3.15418955 3.06235471 0 1 C0 0.67 0 0.34 0 0 Z " fill="#452267" transform="translate(301,363)"/>
<path d="M0 0 C4.62 0 9.24 0 14 0 C15.60725635 3.21451269 15.05748185 6.43612536 15 10 C9.80355921 8.40109514 4.93387858 6.25861997 0 4 C0 2.68 0 1.36 0 0 Z " fill="#FDF9F7" transform="translate(183,356)"/>
<path d="M0 0 C10.23 0 20.46 0 31 0 C31 0.99 31 1.98 31 3 C20.77 3 10.54 3 0 3 C0 2.01 0 1.02 0 0 Z " fill="#6D4C99" transform="translate(101,381)"/>
<path d="M0 0 C-2 2 -2 2 -4.88916016 2.22705078 C-6.09362793 2.21657715 -7.2980957 2.20610352 -8.5390625 2.1953125 C-10.49199219 2.18564453 -10.49199219 2.18564453 -12.484375 2.17578125 C-13.86458595 2.15906929 -15.24479429 2.14213939 -16.625 2.125 C-18.01301452 2.11497006 -19.40103589 2.10584423 -20.7890625 2.09765625 C-24.19288026 2.07401863 -27.59635506 2.04106867 -31 2 C-22.06101104 -3.95932597 -9.86199766 -2.97720684 0 0 Z " fill="#562D6D" transform="translate(146,366)"/>
<path d="M0 0 C1.32 0.33 2.64 0.66 4 1 C4 5.95 4 10.9 4 16 C4.66 16 5.32 16 6 16 C6 17.65 6 19.3 6 21 C4.02 20.67 2.04 20.34 0 20 C0 13.4 0 6.8 0 0 Z " fill="#685282" transform="translate(160,320)"/>
<path d="M0 0 C9.9 0 19.8 0 30 0 C30 0.99 30 1.98 30 3 C20.43 3 10.86 3 1 3 C0.67 2.01 0.34 1.02 0 0 Z " fill="#9079B3" transform="translate(323,393)"/>
<path d="M0 0 C11.22 0 22.44 0 34 0 C33.34 1.32 32.68 2.64 32 4 C31.34 4 30.68 4 30 4 C30 3.34 30 2.68 30 2 C19.77 2 9.54 2 -1 2 C-0.67 1.34 -0.34 0.68 0 0 Z " fill="#4A2D69" transform="translate(312,423)"/>
<path d="M0 0 C3.07275391 -0.2487793 3.07275391 -0.2487793 6.9765625 -0.07421875 C7.66181 -0.04777786 8.3470575 -0.02133698 9.05307007 0.00590515 C11.2445899 0.09377262 13.43447099 0.2028776 15.625 0.3125 C17.10931603 0.37574843 18.59369164 0.43761485 20.078125 0.49804688 C23.71957803 0.64932624 27.35985716 0.8196667 31 1 C31 1.66 31 2.32 31 3 C20.11 3 9.22 3 -2 3 C-1.34 2.01 -0.68 1.02 0 0 Z " fill="#5C3E7C" transform="translate(317,418)"/>
<path d="M0 0 C9.9 0.33 19.8 0.66 30 1 C30 1.66 30 2.32 30 3 C14.655 3.495 14.655 3.495 -1 4 C-0.67 2.68 -0.34 1.36 0 0 Z " fill="#907AB3" transform="translate(323,404)"/>
<path d="M0 0 C4.39527596 0.90433775 7.8755217 2.74641102 11 6 C11.4375 9.3125 11.4375 9.3125 11 12 C9.68 12 8.36 12 7 12 C7 10.02 7 8.04 7 6 C6.01 6 5.02 6 4 6 C4 5.34 4 4.68 4 4 C2.02 4.66 0.04 5.32 -2 6 C-1.34 4.02 -0.68 2.04 0 0 Z " fill="#E4DDDA" transform="translate(217,409)"/>
<path d="M0 0 C0.33 0 0.66 0 1 0 C1.41640288 7.2484945 0.44166784 13.16914355 -2 20 C-2.99 19.34 -3.98 18.68 -5 18 C-5.82652555 13.31635523 -3.75524975 9.24684818 -2 5 C-1.4121875 3.515 -1.4121875 3.515 -0.8125 2 C-0.544375 1.34 -0.27625 0.68 0 0 Z " fill="#C24022" transform="translate(197,373)"/>
<path d="M0 0 C0.66 0.33 1.32 0.66 2 1 C1.91911825 4.10523354 1.8062811 7.20850333 1.6875 10.3125 C1.66494141 11.19357422 1.64238281 12.07464844 1.61914062 12.98242188 C1.5659668 14.25375977 1.5659668 14.25375977 1.51171875 15.55078125 C1.48553467 16.33106689 1.45935059 17.11135254 1.43237305 17.9152832 C0.9068329 20.44921166 -0.0408526 21.36927777 -2 23 C-2.3690205 7.25512528 -2.3690205 7.25512528 0 0 Z " fill="#B93E22" transform="translate(255,403)"/>
<path d="M0 0 C0.66 0.33 1.32 0.66 2 1 C2.59355614 3.64860427 2.74209269 6.29197322 3 9 C1.35 9 -0.3 9 -2 9 C-2 6.36 -2 3.72 -2 1 C-1.34 0.67 -0.68 0.34 0 0 Z " fill="#886EAC" transform="translate(148,331)"/>
<path d="M0 0 C0.66 0 1.32 0 2 0 C2.33 2.31 2.66 4.62 3 7 C3.66 7 4.32 7 5 7 C5 8.98 5 10.96 5 13 C4.01 13 3.02 13 2 13 C2 11.02 2 9.04 2 7 C1.34 7 0.68 7 0 7 C0 4.69 0 2.38 0 0 Z " fill="#86729F" transform="translate(155,327)"/>
<path d="M0 0 C0.33 0.66 0.66 1.32 1 2 C1.66 2 2.32 2 3 2 C3 2.66 3 3.32 3 4 C3.66 4 4.32 4 5 4 C5 4.66 5 5.32 5 6 C6.98 6 8.96 6 11 6 C10.67 7.32 10.34 8.64 10 10 C6.41005174 8.66659064 3.04479945 7.34884529 0 5 C-0.3125 2.3125 -0.3125 2.3125 0 0 Z " fill="#DFD4C8" transform="translate(223,377)"/>
<path d="M0 0 C4 1.33333333 8 2.66666667 12 4 C12 4.66 12 5.32 12 6 C9.9375 6.875 9.9375 6.875 7 7 C4.38270898 5.29119016 2.13674187 3.27837029 0 1 C0 0.67 0 0.34 0 0 Z " fill="#E95028" transform="translate(114,428)"/>
<path d="M0 0 C1.98 0.99 1.98 0.99 4 2 C3.67 3.98 3.34 5.96 3 8 C2.67 7.34 2.34 6.68 2 6 C1.34 6 0.68 6 0 6 C0 4.02 0 2.04 0 0 Z " fill="#E2D8D2" transform="translate(190,390)"/>
<path d="M0 0 C0.33 0 0.66 0 1 0 C1 3.63 1 7.26 1 11 C0.01 11 -0.98 11 -2 11 C-1.34 7.37 -0.68 3.74 0 0 Z " fill="#A62C21" transform="translate(223,391)"/>
<path d="M0 0 C0.33 0 0.66 0 1 0 C1 3.3 1 6.6 1 10 C0.01 9.34 -0.98 8.68 -2 8 C-1.125 2.25 -1.125 2.25 0 0 Z " fill="#E3D2C1" transform="translate(257,395)"/>
</svg>
