<?xml version="1.0" encoding="UTF-8"?>
<svg version="1.1" xmlns="http://www.w3.org/2000/svg" width="640" height="144">
<path d="M0 0 C12.7771875 -0.12375 12.7771875 -0.12375 25.8125 -0.25 C29.81274292 -0.30462402 29.81274292 -0.30462402 33.89379883 -0.36035156 C36.03986815 -0.37204892 38.18594644 -0.38223825 40.33203125 -0.390625 C41.42012085 -0.41108887 42.50821045 -0.43155273 43.62927246 -0.45263672 C52.68396314 -0.45670945 61.07410152 1.04827326 68 7.25 C73.74774568 13.78340876 74.57570828 20.30817584 74.34765625 28.875 C73.66685134 34.99459467 71.40464218 39.02921521 66.75 43 C65.8425 43.66 64.935 44.32 64 45 C64.53109375 45.37511719 65.0621875 45.75023437 65.609375 46.13671875 C71.3844708 50.32050166 75.66879723 54.07553753 78 61 C78.87696 68.87224556 78.68137148 76.37848794 74 83 C67.65917188 89.96511815 61.39169806 93.83364721 52 95 C48.0125644 95.133706 44.02834112 95.1163445 40.0390625 95.09765625 C39.02287842 95.09664917 38.00669434 95.09564209 36.9597168 95.09460449 C33.18146631 95.08939175 29.40323196 95.07543053 25.625 95.0625 C17.16875 95.041875 8.7125 95.02125 0 95 C0 63.65 0 32.3 0 0 Z M24 20 C24 25.61 24 31.22 24 37 C26.89640118 37.08120751 29.79050912 37.14059421 32.6875 37.1875 C33.50412109 37.21263672 34.32074219 37.23777344 35.16210938 37.26367188 C39.9425753 37.32173421 43.14632382 37.16104605 47 34 C49.32877362 31.12405164 49.32877362 31.12405164 48.9375 27.5625 C47.77865712 23.15889707 46.89879863 22.28842528 43 20 C39.71165451 19.52531408 36.50096561 19.62151364 33.1875 19.75 C31.86202148 19.77707031 31.86202148 19.77707031 30.50976562 19.8046875 C28.33937457 19.85161487 26.16954481 19.92335269 24 20 Z M24 57 C24 62.61 24 68.22 24 74 C27.39631472 74.08107913 30.79068616 74.14053944 34.1875 74.1875 C35.62706055 74.22520508 35.62706055 74.22520508 37.09570312 74.26367188 C44.04470058 74.36331618 44.04470058 74.36331618 50 71 C52.34813734 69.06832602 52.34813734 69.06832602 52.375 65.625 C52.32447199 61.97508603 52.32447199 61.97508603 50.125 59.625 C46.84776336 57.11887787 45.06638674 56.87892881 40.9921875 56.90234375 C40.00605469 56.90556641 39.01992187 56.90878906 38.00390625 56.91210938 C36.45509766 56.92467773 36.45509766 56.92467773 34.875 56.9375 C33.83472656 56.94201172 32.79445313 56.94652344 31.72265625 56.95117188 C29.14841313 56.96298033 26.57419947 56.98091615 24 57 Z " fill="#ED0006" transform="translate(213,24)"/>
<path d="M0 0 C8.25 0 16.5 0 25 0 C25 11.22 25 22.44 25 34 C34.24 34 43.48 34 53 34 C53 22.78 53 11.56 53 0 C61.25 0 69.5 0 78 0 C78 31.35 78 62.7 78 95 C69.75 95 61.5 95 53 95 C53 82.79 53 70.58 53 58 C43.76 58 34.52 58 25 58 C25 70.21 25 82.42 25 95 C16.75 95 8.5 95 0 95 C0 63.65 0 32.3 0 0 Z " fill="#EC0007" transform="translate(562,24)"/>
<path d="M0 0 C9.53879242 9.06907915 14.81744209 21.19860356 15.265625 34.40234375 C15.53369397 51.89000239 13.08815703 66.5352838 0.65234375 79.6953125 C-8.26647396 87.49759647 -19.41552956 90.49522337 -31.05078125 90.203125 C-42.72675356 89.2235441 -52.56673265 84.8242828 -60.75 76.3359375 C-71.41531063 63.10685027 -73.07525511 47.27251577 -71.9375 30.9609375 C-70.26152646 18.6798541 -64.68980594 6.15690929 -54.875 -1.6875 C-38.56432207 -13.29753117 -15.46462415 -13.08969973 0 0 Z M-42.6875 20.5234375 C-48.06102422 27.58173004 -48.81635634 37.41993924 -47.9375 45.9609375 C-46.69820484 53.48602701 -43.69323183 58.91074699 -37.9375 63.9609375 C-33.26003929 66.90243341 -28.27704637 66.6487184 -22.9375 65.9609375 C-17.39214458 64.12182131 -14.65126886 61.01213841 -12 55.8984375 C-7.86313644 46.79733767 -7.42638747 36.60063241 -10.4375 27.0234375 C-12.65776656 21.63590896 -16.08790785 18.12761163 -20.9375 14.9609375 C-29.81399198 12.00210684 -36.10167066 14.38664197 -42.6875 20.5234375 Z " fill="#ED0006" transform="translate(369.9375,31.0390625)"/>
<path d="M0 0 C2.73758355 2.02011277 4.95439611 3.90260937 7.1015625 6.55078125 C7.1015625 10.64680471 5.43813897 11.65937878 2.67578125 14.484375 C1.77279297 15.38349609 1.77279297 15.38349609 0.8515625 16.30078125 C0.26503906 16.91566406 -0.32148438 17.53054687 -0.92578125 18.1640625 C-1.49941406 18.74027344 -2.07304687 19.31648438 -2.6640625 19.91015625 C-3.18774414 20.44092773 -3.71142578 20.97169922 -4.25097656 21.51855469 C-5.8984375 22.55078125 -5.8984375 22.55078125 -7.95214844 22.33691406 C-9.8984375 21.55078125 -9.8984375 21.55078125 -12.2734375 19.61328125 C-17.81839654 15.25652772 -24.05378206 14.7827341 -30.8984375 15.55078125 C-34.08213585 16.78633712 -34.08213585 16.78633712 -35.8984375 19.55078125 C-36.3151927 22.50866694 -36.3151927 22.50866694 -35.8984375 25.55078125 C-32.94781231 28.37882596 -30.02113917 29.25253607 -26.1015625 30.19921875 C-24.41546875 30.62460938 -24.41546875 30.62460938 -22.6953125 31.05859375 C-20.34727218 31.63267409 -17.99832069 32.20304155 -15.6484375 32.76953125 C-6.16494824 35.17288127 1.52738743 38.10988758 7.1015625 46.55078125 C11.11936964 56.0444707 11.26219321 64.36670137 7.41015625 73.91015625 C3.01319635 82.78282757 -3.81158333 87.05142453 -12.8984375 90.55078125 C-25.24550628 94.49094879 -40.2545224 93.01593721 -51.8984375 87.55078125 C-57.66622493 84.11591989 -62.30732241 79.40014657 -66.8984375 74.55078125 C-62.20076775 68.88948694 -57.15120378 63.69849221 -51.8984375 58.55078125 C-51.40214844 58.9375 -50.90585937 59.32421875 -50.39453125 59.72265625 C-43.35547087 65.11882398 -37.17633469 69.66383017 -28.0234375 69.80078125 C-26.99476563 69.8265625 -25.96609375 69.85234375 -24.90625 69.87890625 C-21.4675333 69.50377352 -19.63788928 68.63472136 -16.8984375 66.55078125 C-15.56292903 63.70450534 -15.56292903 63.70450534 -15.8984375 60.55078125 C-20.05483087 54.7785114 -25.3899221 54.05333051 -32.0859375 52.61328125 C-42.93885353 50.276056 -52.07214294 46.98282017 -58.7421875 37.67578125 C-62.82930622 30.16431982 -63.37744626 21.07507882 -61.17578125 12.8515625 C-57.63761316 4.41439245 -52.2567914 -0.88332495 -43.8984375 -4.44921875 C-29.02513064 -9.52197007 -13.35719877 -8.76702134 0 0 Z " fill="#ED0006" transform="translate(454.8984375,28.44921875)"/>
<path d="M0 0 C5.57914307 3.86736053 11.6290083 9.12921239 13.8125 15.6796875 C10.88255382 17.69093307 7.94237701 19.68668156 5 21.6796875 C4.16662109 22.25203125 3.33324219 22.824375 2.47460938 23.4140625 C1.67216797 23.95546875 0.86972656 24.496875 0.04296875 25.0546875 C-1.06461792 25.80878906 -1.06461792 25.80878906 -2.19458008 26.578125 C-4.1875 27.6796875 -4.1875 27.6796875 -7.1875 27.6796875 C-8.6171875 26.21875 -8.6171875 26.21875 -10.0625 24.3046875 C-13.17434088 20.53852311 -15.31414899 19.02188242 -20.25390625 18.43359375 C-25.90580614 18.11800543 -29.75801532 19.13609975 -34.1875 22.6796875 C-40.00248181 28.23035195 -42.23322798 35.1287619 -42.5625 43.1171875 C-42.18077803 51.75937284 -40.07444863 58.90935407 -33.93359375 65.15234375 C-29.5986043 68.94424727 -25.27482162 69.12081075 -19.6875 68.99609375 C-14.46674841 68.33534238 -11.23217465 65.8582948 -7.75 61.9296875 C-7.234375 61.1871875 -6.71875 60.4446875 -6.1875 59.6796875 C-1.38928341 61.30083252 2.4797859 63.97245509 6.625 66.8046875 C7.66430664 67.50658203 7.66430664 67.50658203 8.72460938 68.22265625 C10.42341105 69.37081187 12.11834864 70.52468117 13.8125 71.6796875 C12.32505755 78.76350362 5.82473585 84.60350397 0 88.6171875 C-11.11607835 94.80009499 -24.77424093 95.40560076 -36.875 92.1796875 C-47.67389334 88.41783184 -55.76932846 81.75410021 -61.1875 71.6796875 C-68.21320436 55.98162932 -70.10379654 38.30249622 -64.51171875 21.76171875 C-59.83344165 10.87333932 -53.06940686 2.69260088 -42.33984375 -2.49609375 C-28.9191611 -7.63541143 -12.43847324 -7.50750706 0 0 Z " fill="#ED0006" transform="translate(539.1875,27.3203125)"/>
<path d="M0 0 C0 7.92 0 15.84 0 24 C15.84 24 31.68 24 48 24 C48 16.08 48 8.16 48 0 C55.41600755 0 56.49789525 0.25302675 61.66015625 4.62109375 C73.10926742 16.261342 78.29900141 30.01595783 78.31469727 46.20361328 C78.01241861 63.05609542 70.06349206 75.69799499 58.625 87.4375 C56 89 56 89 48 89 C48 81.08 48 73.16 48 65 C32.16 65 16.32 65 0 65 C0 72.92 0 80.84 0 89 C-8.18252518 89 -9.13059104 87.92474198 -14.57421875 82.61328125 C-25.57534392 70.76182756 -30.31539032 57.17251449 -30 41 C-28.70293338 24.59014206 -21.19975912 12.52113384 -9.37109375 1.36328125 C-7 0 -7 0 0 0 Z M-9.453125 12.3984375 C-19.19754071 23.11729478 -22.47726655 33.99470758 -22.25 48.3125 C-21.47877546 59.68806201 -16.09993831 70.02822527 -8 78 C-7.67 78 -7.34 78 -7 78 C-7 55.89 -7 33.78 -7 11 C-8.21603245 10.88443028 -8.21603245 10.88443028 -9.453125 12.3984375 Z M56 12 C56 33.45 56 54.9 56 77 C61.86307443 72.16747069 61.86307443 72.16747069 65.25 66.125 C65.72953125 65.13757813 66.2090625 64.15015625 66.703125 63.1328125 C71.50338209 51.53701074 71.82968384 38.40622395 67.2734375 26.66015625 C64.35942586 20.57291107 61.42447133 16.0683535 56 12 Z M0 32 C0 40.25 0 48.5 0 57 C15.84 57 31.68 57 48 57 C48 48.75 48 40.5 48 32 C32.16 32 16.32 32 0 32 Z " fill="#000000" transform="translate(47,27)"/>
<path d="M0 0 C14.64011411 12.50409746 24.73215788 28.80305902 26.6875 48.1875 C27.78096724 67.73562489 24.07493589 85.56528834 11.6875 101.1875 C11.03007813 102.02152344 10.37265625 102.85554688 9.6953125 103.71484375 C1.05963355 113.97959767 -9.64393049 120.88018637 -22.3125 125.1875 C-23.19679688 125.50589844 -24.08109375 125.82429687 -24.9921875 126.15234375 C-42.72015213 131.60130738 -62.89520624 128.92945542 -79.1875 120.5 C-85.71200953 116.90579059 -91.11071421 112.53253635 -96.3125 107.1875 C-97.09238281 106.42824219 -97.87226562 105.66898437 -98.67578125 104.88671875 C-104.93211654 98.46214587 -108.87539884 91.38845898 -112.3125 83.1875 C-112.74820313 82.15496094 -113.18390625 81.12242188 -113.6328125 80.05859375 C-119.96508985 62.01381738 -117.76045149 40.91539673 -109.73828125 23.8359375 C-105.88872003 16.74700192 -100.98889292 10.88320038 -95.3125 5.1875 C-94.63703125 4.48882813 -93.9615625 3.79015625 -93.265625 3.0703125 C-68.07588375 -21.26714427 -27.10529378 -20.70543275 0 0 Z M-93.40234375 13.8671875 C-104.94877232 27.89291055 -110.88844926 45.05410916 -109.3125 63.1875 C-106.21768756 81.66371559 -98.0403994 96.76907465 -83.375 108.5625 C-68.5570463 118.8141047 -51.26369258 123.26135808 -33.375 120.25 C-16.08316379 116.83808213 -1.36332735 106.49357786 8.75 92.2265625 C18.14509461 77.48990201 21.23703432 60.19279105 17.99609375 43.01953125 C13.62623668 25.08300495 3.25609486 11.07201629 -12.3125 1.1875 C-39.35004829 -14.41371158 -72.09367198 -8.44784865 -93.40234375 13.8671875 Z " fill="#000000" transform="translate(116.3125,14.8125)"/>
</svg>
