<?xml version="1.0" encoding="UTF-8"?>
<svg version="1.1" xmlns="http://www.w3.org/2000/svg" width="3000" height="2250">
<path d="M0 0 C195.91793478 0 195.91793478 0 240.90234375 42.05859375 C243.09761416 44.14680866 243.09761416 44.14680866 246.0625 46.375 C250.61925291 50.44699196 254.24916306 55.19123469 258 60 C258.66128906 60.82242187 259.32257813 61.64484375 260.00390625 62.4921875 C270.38052105 75.95034245 277.69983398 91.60561706 282 108 C282.20882813 108.78552246 282.41765625 109.57104492 282.6328125 110.38037109 C288.29415194 132.79730457 288.60242215 159.54494768 283 182 C282.83902832 182.6815918 282.67805664 183.36318359 282.51220703 184.06542969 C278.52335854 200.65689364 271.17000003 216.30330641 261 230 C260.4225 230.79921875 259.845 231.5984375 259.25 232.421875 C233.06909596 266.95358464 195.08557218 284.71189782 153 290.75 C101.78609208 296.08478208 52.03431901 294 0 294 C0 196.98 0 99.96 0 0 Z M87 78 C87 123.54 87 169.08 87 216 C138.87495694 218.77548542 138.87495694 218.77548542 184 197 C197.91719436 182.40689469 203.57183403 164.50676055 203.41748047 144.60644531 C202.85105991 125.81838241 196.32861204 109.00894655 182.91796875 95.66015625 C156.95855462 71.99434498 119.46648397 78 87 78 Z " fill="#0075AF" transform="translate(915,1077)"/>
<path d="M0 0 C7.30861009 6.31649107 12.96249653 13.76711959 18.15234375 21.86328125 C18.70921875 21.22261719 19.26609375 20.58195312 19.83984375 19.921875 C36.14050299 1.44595887 57.00035948 -10.72933545 81.98828125 -12.31689453 C103.04004913 -13.24155499 123.10650416 -11.02248288 139.65234375 3.30078125 C151.6127949 14.92845389 157.13397321 28.59149253 157.39285278 45.25393677 C157.40595055 48.15660265 157.3937694 51.05878523 157.37939453 53.96142578 C157.37882946 55.56879164 157.37914885 57.176158 157.38027954 58.78352356 C157.3808503 63.11961591 157.36914107 67.45559624 157.35513163 71.79166269 C157.34257787 76.33334177 157.34145012 80.87502378 157.33908081 85.41671753 C157.33287964 94.00478117 157.31648737 102.59279353 157.29638183 111.18083465 C157.2697866 122.79452864 157.25903917 134.40823679 157.2473774 146.02195358 C157.22860572 164.30243451 157.18875098 182.58280724 157.15234375 200.86328125 C130.42234375 200.86328125 103.69234375 200.86328125 76.15234375 200.86328125 C76.11496094 191.73929688 76.07757812 182.6153125 76.0390625 173.21484375 C76.00877878 167.42706827 75.97774915 161.63931263 75.94335938 155.8515625 C75.88893919 146.66945212 75.83752339 137.4873968 75.8059082 128.30517578 C75.78286559 121.61682508 75.7493982 114.92861973 75.70364219 108.24038446 C75.67979394 104.70212136 75.66101041 101.16400146 75.65472984 97.62565994 C75.64750626 93.66645877 75.61699858 89.70761497 75.5847168 85.74853516 C75.58686943 84.0071225 75.58686943 84.0071225 75.58906555 82.23052979 C75.49629321 74.1597833 74.83277953 66.53930747 69.96484375 59.86328125 C62.38204104 54.47106599 52.49419359 55.17479296 43.59765625 56.140625 C38.1371932 57.13257763 33.24192519 59.03264711 29.15234375 62.86328125 C22.87417172 72.12119483 21.85619214 81.91238524 21.74169922 92.78710938 C21.72190002 93.95870605 21.70210083 95.13030273 21.68170166 96.33740234 C21.61879172 100.1896979 21.56908448 104.04204269 21.51953125 107.89453125 C21.47836443 110.5735435 21.43646273 113.25253419 21.39358521 115.93151855 C21.29407307 122.2493649 21.20407007 128.56730894 21.11754048 134.88534498 C21.00877358 142.78957934 20.88721172 150.69361048 20.765625 158.59765625 C20.5489617 172.68604125 20.35155173 186.77461462 20.15234375 200.86328125 C-4.92765625 200.86328125 -30.00765625 200.86328125 -55.84765625 200.86328125 C-55.90824219 194.97742187 -55.96882813 189.0915625 -56.03125 183.02734375 C-56.0719161 179.21744347 -56.11277452 175.40754706 -56.15429688 171.59765625 C-56.21966714 165.59799911 -56.2844623 159.59834121 -56.3449707 153.59863281 C-56.47028642 141.23580339 -56.61679829 128.87350616 -56.80696869 116.51148987 C-56.83369097 114.77223183 -56.85977812 113.03296389 -56.88516998 111.29368591 C-56.95511564 106.55996138 -57.0397228 101.82697193 -57.14857674 97.09397507 C-57.17894567 95.70031095 -57.20501957 94.30654426 -57.22607231 92.91270828 C-57.50772617 74.38716109 -57.50772617 74.38716109 -64.84765625 57.86328125 C-72.37262336 52.07484501 -82.02514558 53.53832814 -90.91015625 54.61328125 C-97.96532025 55.70922906 -103.24266465 57.04707411 -108.16015625 62.36328125 C-116.00168241 78.62718736 -114.03917275 98.61884012 -114.1640625 116.1953125 C-114.18466665 118.64296288 -114.20566395 121.09060998 -114.22703552 123.53825378 C-114.28189909 129.94138918 -114.33146401 136.34455476 -114.37988281 142.7477417 C-114.43925522 150.45143135 -114.50528424 158.15506654 -114.5701828 165.85871124 C-114.66774208 177.52686763 -114.75690557 189.19506098 -114.84765625 200.86328125 C-140.58765625 200.86328125 -166.32765625 200.86328125 -192.84765625 200.86328125 C-192.84765625 132.22328125 -192.84765625 63.58328125 -192.84765625 -7.13671875 C-167.76765625 -7.13671875 -142.68765625 -7.13671875 -116.84765625 -7.13671875 C-116.51765625 1.44328125 -116.18765625 10.02328125 -115.84765625 18.86328125 C-114.61015625 17.39890625 -113.37265625 15.93453125 -112.09765625 14.42578125 C-99.83672269 0.90437788 -84.34940967 -6.7168597 -66.84765625 -11.13671875 C-65.50960938 -11.47509766 -65.50960938 -11.47509766 -64.14453125 -11.8203125 C-42.33500068 -16.33800097 -18.12168292 -13.59747676 0 0 Z " fill="#0075AF" transform="translate(1658.84765625,1170.13671875)"/>
<path d="M0 0 C5.05836105 2.45442893 8.76741379 5.36026799 12.69324332 9.35459316 C13.30232778 9.95814321 13.91141223 10.56169327 14.53895378 11.18353271 C16.56197752 13.19302581 18.57049596 15.21639713 20.57927543 17.24012172 C22.0328629 18.68992335 23.48730765 20.13886588 24.94254142 21.58701503 C28.88118718 25.5117257 32.80718768 29.44886236 36.73060471 33.38878953 C40.84152983 37.51358584 44.9626258 41.62819883 49.08225089 45.74430263 C55.99648861 52.65584033 62.90260421 59.57541321 69.8038848 66.49988735 C77.78120993 74.50383654 85.77091106 82.49526457 93.76742518 90.48003936 C101.46416928 98.16600355 109.15240224 105.86042641 116.83668166 113.55885112 C120.10543089 116.83335666 123.37707725 120.10492662 126.65107757 123.37418163 C130.50507982 127.22341067 134.35155608 131.08000675 138.19235259 134.9424113 C139.60270246 136.35832386 141.01560369 137.77170035 142.43123084 139.18233669 C144.36356968 141.10871616 146.28642376 143.04409549 148.20715934 144.98203456 C148.76882421 145.53768938 149.33048907 146.0933442 149.90917408 146.66583705 C154.53441573 151.36664609 157.56036167 155.92509758 157.57024223 162.7327975 C157.59924613 164.06117641 157.59924613 164.06117641 157.62883598 165.41639125 C156.27234353 173.28831984 150.35274009 178.49626241 144.91106254 183.8734225 C144.08452171 184.70200771 143.25798087 185.53059291 142.40639335 186.38428676 C139.68174666 189.11193274 136.94652858 191.82870229 134.21086723 194.5452975 C132.30623982 196.44529646 130.40372475 198.34740558 128.50108939 200.24939907 C124.51482162 204.2319819 120.5229777 208.20890206 116.52727348 212.18201625 C111.41823225 217.26222946 106.31844285 222.35162478 101.22156745 227.44404018 C96.81733439 231.84427329 92.40885849 236.24024878 87.99970752 240.63555324 C86.59379187 242.03739582 85.18847968 243.43984353 83.783171 244.84229457 C81.14869118 247.46985797 78.51087075 250.0940198 75.87200004 252.7171725 C75.10288291 253.48517177 74.33376579 254.25317104 73.54134208 255.04444301 C69.4849901 259.06901498 65.33527926 262.91135696 61.00915748 266.64347446 C58.09549291 269.2083962 55.35975265 271.93660835 52.62492973 274.68958461 C52.02879371 275.2855746 51.43265769 275.88156459 50.81845695 276.49561489 C48.87916766 278.43559216 46.94342908 280.37907009 45.00774223 282.32264125 C43.65176064 283.68049099 42.29555583 285.03811783 40.93913871 286.39553249 C37.39258163 289.9458835 33.84903962 293.49922868 30.30614311 297.05323207 C26.68116863 300.68848829 23.05331473 304.3208685 19.42571098 307.95350063 C12.32525321 315.06464052 5.22798126 322.1789508 -1.86725777 329.2952975 C-6.51503597 325.40868864 -10.93017577 321.37692614 -15.20466012 317.0848788 C-15.80190078 316.48919814 -16.39914143 315.89351747 -17.01448029 315.27978587 C-18.99642385 313.30180107 -20.97480933 311.32029717 -22.95319527 309.33875453 C-24.38106878 307.91223735 -25.80915466 306.48593272 -27.237436 305.05982387 C-31.10334358 301.19846345 -34.96609522 297.33396049 -38.82814187 293.46873891 C-42.87792929 289.41641336 -46.93016329 285.36653552 -50.98200387 281.31626308 C-57.78604993 274.51403467 -64.58798871 267.70970442 -71.38874215 260.90418422 C-79.23997772 253.047509 -87.09480621 245.19443967 -94.9515149 237.34323788 C-101.70769596 230.59160205 -108.46191719 223.83801029 -115.2145192 217.0827949 C-119.24281331 213.0529455 -123.27177112 209.02376588 -127.30249947 204.99635112 C-131.09358363 201.20816608 -134.88219315 197.41752305 -138.66894692 193.62500942 C-140.055168 192.23747157 -141.44223056 190.85077379 -142.83021706 189.46500194 C-155.54597143 176.76765972 -155.54597143 176.76765972 -160.55083627 170.82859027 C-163.44217756 167.46092067 -166.73130221 164.47238736 -169.92585152 161.39686 C-171.86725777 159.2952975 -171.86725777 159.2952975 -171.86725777 157.2952975 C-170.62291211 156.07262981 -170.62291211 156.07262981 -168.76619881 154.56611049 C-161.95628481 148.76620162 -155.78124073 142.3058982 -149.48420113 135.96228969 C-148.03651785 134.50776768 -146.58857903 133.05349997 -145.14040536 131.5994662 C-142.03443879 128.4802207 -138.92990396 125.35955966 -135.82637757 122.23788631 C-130.91735252 117.30092561 -126.00282827 112.36946423 -121.08712167 107.43915737 C-119.40141067 105.74830336 -117.71570649 104.05744256 -116.03000897 102.36657512 C-115.18622634 101.52020693 -114.3424437 100.67383873 -113.4730919 99.80182302 C-102.03822707 88.33095092 -90.60815627 76.85533356 -79.1883027 65.36951625 C-71.47209982 57.6088315 -63.7488091 49.85527682 -56.01739192 42.10974801 C-51.9300958 38.01438024 -47.84659975 33.91537441 -43.77184266 29.80752742 C-39.94312264 25.94776548 -36.1052213 22.09737965 -32.26007813 18.25398052 C-30.85171833 16.84292463 -29.4467901 15.42843402 -28.04559106 14.01026714 C-26.13082491 12.07332566 -24.20405933 10.14915303 -22.27385873 8.22760952 C-21.72384523 7.66526253 -21.17383173 7.10291554 -20.60715115 6.52352774 C-15.05894709 1.05303923 -7.96506053 -3.00601134 0 0 Z M-37.10944527 137.006235 C-43.36697089 145.15492392 -45.93872664 155.08285987 -44.86725777 165.2952975 C-42.6466767 177.26561735 -37.44465412 186.65345282 -27.86725777 194.2952975 C-17.07097609 200.76492861 -7.31585557 202.59202644 5.13274223 201.2952975 C16.37779325 198.4713714 25.35173617 191.67966032 31.62492973 182.02186 C37.05671829 172.19961023 38.73068057 162.22506656 36.50774223 151.193735 C33.38988278 140.42041709 26.91358854 130.98396984 17.13274223 125.2952975 C-2.93382447 115.01325507 -22.71209452 120.12463549 -37.10944527 137.006235 Z " fill="#FF1825" transform="translate(672.8672577738762,871.7047024965286)"/>
<path d="M0 0 C3.21213203 1.2690019 5.352371 3.74726351 7.73466665 6.16588795 C8.30484271 6.73279518 8.87501878 7.29970241 9.46247292 7.88378865 C11.37565324 9.78967288 13.27790093 11.70610872 15.18039113 13.6226598 C16.54827949 14.98975746 17.9168208 16.35620206 19.28596669 17.7220403 C23.00781006 21.43874068 26.7202302 25.16472639 30.43093878 28.89253938 C34.31701697 32.79364489 38.21119059 36.6866531 42.1043871 40.58065236 C48.64712215 47.1270831 55.18419028 53.67912842 61.71750051 60.23496449 C70.09019254 68.6364663 78.47206433 77.02874604 86.85694009 85.41808617 C94.07451364 92.63965006 101.28782525 99.86546678 108.50046498 107.09195793 C110.81340915 109.40899029 113.12693162 111.72544404 115.44053251 114.04182065 C119.08648445 117.6926914 122.72975995 121.34621344 126.37102872 125.00175488 C127.70405346 126.33927658 129.03789912 127.67598073 130.37264806 129.01178181 C142.58108551 141.23199636 142.58108551 141.23199636 147.67518407 147.24972641 C149.68090392 149.59850765 151.85427853 151.76496331 154.0444048 153.94077504 C154.92418996 154.81733754 155.80397512 155.69390004 156.71042043 156.59702504 C158.05330129 157.92733754 158.05330129 157.92733754 159.42331105 159.28452504 C160.34563527 160.20233754 161.26795949 161.12015004 162.21823293 162.06577504 C164.47181004 164.30767558 166.72770181 166.54719103 168.98581105 168.78452504 C167.54566898 172.07740155 165.76587765 174.2537249 163.23053151 176.78704274 C162.44841298 177.57335576 161.66629445 178.35966877 160.86047536 179.16980946 C160.00126485 180.02340046 159.14205434 180.87699147 158.25680715 181.75644886 C157.3525298 182.66262455 156.44825246 183.56880024 155.51657277 184.5024358 C153.03732665 186.98652679 150.55187793 189.46432518 148.06514102 191.94091451 C145.45773793 194.53951837 142.8556241 197.14340883 140.25280935 199.74660695 C135.87635939 204.12212028 131.49605545 208.49374496 127.11325246 212.86289418 C122.06132338 217.89914198 117.01459482 222.94055224 111.97086829 227.9850139 C106.5870261 233.36953459 101.19937036 238.75022724 95.81061012 244.12982547 C94.26619825 245.67211613 92.72248887 247.21510689 91.17893773 248.75825894 C88.2860087 251.64998582 85.38882455 254.53741376 82.49118215 257.42441761 C81.64411702 258.27193593 80.7970519 259.11945424 79.92431813 259.99265492 C75.66808307 264.22617169 71.33469676 268.29042746 66.78560048 272.20695031 C64.16735037 274.50193279 61.73898776 276.93508039 59.29171926 279.41269886 C58.78164327 279.92744771 58.27156728 280.44219655 57.74603444 280.97254384 C56.65539181 282.07356816 55.56587285 283.17570657 54.477413 284.27888882 C52.752141 286.02645273 51.02270179 287.76979286 49.29200917 289.51198781 C44.37755879 294.45979758 39.46753365 299.41193719 34.56759816 304.37412465 C31.55629173 307.4230931 28.53770366 310.46468761 25.51433545 313.50169384 C24.36851488 314.6555518 23.22547421 315.81217739 22.08532315 316.97163785 C20.49430298 318.58916437 18.89418644 320.19714838 17.29171926 321.80332386 C16.38541265 322.71930851 15.47910604 323.63529316 14.54533559 324.57903492 C10.81627779 327.79228801 7.4409325 329.07086129 2.54831105 329.09702504 C1.82772512 329.11378285 1.10713918 329.13054066 0.3647173 329.14780629 C-5.9764781 328.1794464 -10.0612589 324.16990141 -14.37214488 319.80752003 C-14.98360403 319.20074085 -15.59506318 318.59396167 -16.2250514 317.96879524 C-18.26570579 315.94007695 -20.29550416 313.90084025 -22.32546824 311.86142933 C-23.78882644 310.40213743 -25.25282183 308.94348424 -26.7174055 307.48542225 C-30.68904611 303.52745399 -34.65114338 299.56005951 -38.61119264 295.59049785 C-42.75729558 291.43679799 -46.910715 287.29042461 -51.06297129 283.1428777 C-58.03462193 276.1766845 -64.99992437 269.2041908 -71.96169871 262.22812855 C-80.00974734 254.16375351 -88.0685465 246.11024287 -96.13301551 238.06229097 C-103.05755392 231.1513677 -109.97622723 224.23461361 -116.89003515 217.31295532 C-121.01899247 213.17932168 -125.14994817 209.04773994 -129.28619784 204.9214021 C-133.17454367 201.04172395 -137.05547392 197.15477701 -140.93081111 193.26210606 C-142.35405379 191.83489753 -143.77985392 190.41023409 -145.20838565 188.98831952 C-147.1583424 187.04656402 -149.09881789 185.09579726 -151.03718394 183.14248097 C-151.60410399 182.58225308 -152.17102405 182.02202519 -152.7551235 181.4448207 C-157.42167796 176.70823428 -160.44182801 172.14773285 -160.45168895 165.28452504 C-160.47102488 164.38733754 -160.49036082 163.49015004 -160.5102827 162.56577504 C-159.37187639 156.18352866 -154.14016512 151.61806693 -149.71365184 147.20983326 C-149.08418934 146.57513409 -148.45472684 145.94043491 -147.80618972 145.28650242 C-145.70447274 143.16983296 -143.59571623 141.06032484 -141.4868452 138.9507848 C-139.97513043 137.43144586 -138.46381851 135.911706 -136.95287913 134.39159596 C-132.85465681 130.2714591 -128.74990794 126.15788599 -124.64325923 122.04614961 C-122.07929418 119.47854023 -119.51663194 116.90963779 -116.95440501 114.340294 C-108.02041002 105.38182413 -99.08072668 96.42907157 -90.13625926 87.48105824 C-81.78895538 79.13011106 -73.45490002 70.76609824 -65.12670439 62.39609879 C-57.97961475 55.21438969 -50.82300728 48.04225934 -43.65893668 40.87748963 C-39.37832414 36.59608204 -35.10183012 32.31074268 -30.83502024 28.01557553 C-26.82734564 23.9818605 -22.80803456 19.96012554 -18.77926844 15.94747937 C-17.29945658 14.46949264 -15.82394583 12.98718564 -14.35299128 11.5003835 C-12.35152271 9.4786647 -10.33543289 7.47279371 -8.31472605 5.47033131 C-7.72989986 4.87230515 -7.14507367 4.27427899 -6.54252547 3.65813082 C-2.53082691 -0.27074413 -2.53082691 -0.27074413 0 0 Z M-92.2602827 142.36655629 C-99.20335173 151.93840425 -101.92387433 161.95455478 -100.6118452 173.70249379 C-98.38633969 185.17912021 -92.49423764 194.71213229 -83.13918895 201.65952504 C-78.63209051 204.62309661 -74.23108669 206.47768693 -69.01418895 207.78452504 C-68.18918895 208.01140004 -67.36418895 208.23827504 -66.51418895 208.47202504 C-55.11841582 209.89649668 -44.34469204 207.26397877 -35.00637645 200.40561879 C-26.33970666 193.35332866 -21.67808525 185.72175569 -19.01418895 174.78452504 C-17.7357991 161.16818668 -20.40948402 151.09176332 -28.75637645 140.29624379 C-36.02032138 132.21541924 -45.52000125 127.56498482 -56.3149702 126.44077504 C-70.74888768 126.03370803 -82.97431698 131.16711885 -92.2602827 142.36655629 Z M29.73581105 141.03452504 C21.60237379 151.02573906 20.10152083 162.36709756 20.98581105 174.78452504 C23.38532083 185.71257811 29.74795169 195.44729046 38.98581105 201.78452504 C50.21170789 207.72041021 61.1502092 209.71760762 73.6459673 206.98374379 C85.84745007 202.75176347 94.13943835 194.17198713 99.97799855 182.86265004 C104.31851702 172.85878843 103.71037438 161.78923007 99.82956105 151.81186879 C94.30700774 139.67759191 86.26988793 132.76215387 73.98581105 127.78452504 C57.65592079 122.16897206 40.94754291 129.13810727 29.73581105 141.03452504 Z " fill="#0075AF" transform="translate(491.0141889452934,1042.2154749631882)"/>
<path d="M0 0 C10.6444947 9.98885553 16.61254349 24.25058844 17.36876297 38.71771622 C17.43284141 42.83744682 17.43534652 46.95278107 17.41455078 51.07275391 C17.41398568 52.65056348 17.41430516 54.22837359 17.41543579 55.80618286 C17.41600644 60.06170016 17.40429903 64.31710326 17.39028788 68.57259417 C17.37773226 73.03019147 17.37660622 77.48779179 17.37423706 81.94540405 C17.36803643 90.37409631 17.3516449 98.80273631 17.33153808 107.23140562 C17.30494065 118.62984697 17.29419498 130.02830276 17.28253365 141.42676735 C17.26376322 159.367884 17.22390811 177.30889039 17.1875 195.25 C-7.8925 195.25 -32.9725 195.25 -58.8125 195.25 C-58.92207031 187.05027344 -59.03164062 178.85054687 -59.14453125 170.40234375 C-59.23015129 164.51968744 -59.31752557 158.63707749 -59.40741634 152.75448704 C-59.5233803 145.15045841 -59.63531981 137.5464436 -59.73168945 129.94213867 C-59.81626112 123.26995192 -59.91554504 116.59812747 -60.02350426 109.92627144 C-60.06218932 107.39047668 -60.09607874 104.85460374 -60.12491798 102.3186779 C-59.39039502 76.93176053 -59.39039502 76.93176053 -69.37890625 54.51171875 C-75.43460346 48.83534933 -81.76250331 47.8780309 -89.8515625 48.06640625 C-99.48876474 48.66396364 -109.49283232 49.99781225 -116.66015625 57.07421875 C-125.26077387 67.83027371 -126.10275493 81.60253484 -126.13134766 94.89355469 C-126.14139328 95.98770691 -126.1514389 97.08185913 -126.16178894 98.20916748 C-126.19236663 101.78006525 -126.20958481 105.35088896 -126.2265625 108.921875 C-126.24529462 111.4157982 -126.26486953 113.9097152 -126.2852478 116.40362549 C-126.33635897 122.93335294 -126.37609672 129.46310089 -126.41339111 135.99291992 C-126.45941743 143.84596166 -126.52214657 151.69889776 -126.58123779 159.55184937 C-126.66919351 171.45119206 -126.73914174 183.35051806 -126.8125 195.25 C-151.5625 195.25 -176.3125 195.25 -201.8125 195.25 C-201.8125 126.61 -201.8125 57.97 -201.8125 -12.75 C-176.7325 -12.75 -151.6525 -12.75 -125.8125 -12.75 C-125.3175 -0.375 -125.3175 -0.375 -124.8125 12.25 C-123.100625 10.435 -121.38875 8.62 -119.625 6.75 C-89.76061819 -23.62376054 -32.93042392 -27.15510505 0 0 Z " fill="#0075AF" transform="translate(2162.8125,1175.75)"/>
<path d="M0 0 C0.98870087 0.00081573 0.98870087 0.00081573 1.99737549 0.00164795 C12.98518911 0.04321429 22.98607267 1.00315509 33.4375 4.375 C34.11377441 4.58398926 34.79004883 4.79297852 35.48681641 5.00830078 C63.02900902 13.7068641 86.1697394 33.82917241 99.65039062 59.22021484 C114.00609467 87.31657158 115.96825939 118.41642415 106.4375 148.375 C101.0392612 163.94991861 92.54912441 177.32316122 81.4375 189.375 C80.86773438 190.02597656 80.29796875 190.67695312 79.7109375 191.34765625 C61.11955102 211.51216005 32.42341438 222.40123856 5.48046875 223.66015625 C-22.30952424 224.41517255 -50.67550864 216.34009805 -71.5625 197.375 C-72.449375 196.62863281 -73.33625 195.88226562 -74.25 195.11328125 C-90.79277114 180.84514114 -101.44730385 162.18195491 -107.5625 141.375 C-107.9028125 140.25738281 -108.243125 139.13976563 -108.59375 137.98828125 C-115.87895176 108.94865757 -109.75885754 77.57062955 -94.671875 52.15234375 C-79.17090877 27.31804926 -54.16832398 9.01072599 -25.5625 2.375 C-17.02483588 0.42817781 -8.74265982 -0.01222128 0 0 Z M-30.8046875 87.87109375 C-36.89742818 96.54986436 -39.55045822 105.85109723 -38.5625 116.375 C-36.41655086 127.40545194 -31.54259743 137.15113983 -22.25 143.8125 C-11.75177388 149.98266697 -0.80287095 152.61891 11.30078125 149.6796875 C13.81828302 148.74785947 16.0888018 147.67264565 18.4375 146.375 C19.60732422 145.73884766 19.60732422 145.73884766 20.80078125 145.08984375 C30.15884174 139.44355179 35.83095171 130.82441491 39.01953125 120.48828125 C41.03588471 110.29344739 39.30461265 100.05663842 34.1171875 91.09375 C27.34652752 81.47423309 18.23836445 74.88676784 6.6484375 72.69140625 C-7.96595432 70.59994735 -21.44455204 76.67303696 -30.8046875 87.87109375 Z " fill="#0075AF" transform="translate(2310.5625,1147.625)"/>
<path d="M0 0 C0.98870087 0.00081573 0.98870087 0.00081573 1.99737549 0.00164795 C12.98518911 0.04321429 22.98607267 1.00315509 33.4375 4.375 C34.11377441 4.58398926 34.79004883 4.79297852 35.48681641 5.00830078 C59.17709259 12.49032555 81.42333574 29.08483808 94.4375 50.375 C95.41976563 51.92574219 95.41976563 51.92574219 96.421875 53.5078125 C111.91909228 78.69808682 115.413039 108.57193809 109.65625 137.26953125 C105.50791773 154.34564037 97.67924559 169.88953153 86.4375 183.375 C85.76976562 184.17808594 85.10203125 184.98117187 84.4140625 185.80859375 C65.41332053 207.79320675 39.29031663 220.69109383 10.4375 223.375 C-17.85765765 224.98395254 -47.51915275 218.37433592 -69.3828125 199.34765625 C-70.10210938 198.69667969 -70.82140625 198.04570313 -71.5625 197.375 C-72.76519531 196.38306641 -72.76519531 196.38306641 -73.9921875 195.37109375 C-94.34869886 178.15367059 -107.19506739 152.64646943 -110.5625 126.375 C-112.41485377 92.2278163 -105.25314799 61.80744338 -82.171875 35.80859375 C-60.87170947 12.46033538 -31.52613345 -0.04407008 0 0 Z M-28.9296875 85.1171875 C-36.04501548 94.956086 -39.64207415 105.24934833 -38.5625 117.375 C-36.40911887 127.8950212 -31.08840134 137.49256786 -22.25 143.8125 C-12.35562572 149.62776257 -3.06169665 151.7534526 8.4375 150.375 C19.42329176 147.44372617 28.27471783 141.26617983 34.22265625 131.578125 C39.34619361 122.28656529 41.01515338 112.68629654 38.75390625 102.20703125 C35.40514148 91.24364782 28.83868745 82.4493379 18.69140625 76.86328125 C2.38762244 69.1427649 -16.2593893 71.46754258 -28.9296875 85.1171875 Z " fill="#0075AF" transform="translate(1330.5625,1147.625)"/>
<path d="M0 0 C1.99634877 1.00726937 3.99514875 2.00976192 6 3 C4.69966801 6.35130955 3.27253705 9.57730248 1.66162109 12.7902832 C1.20129486 13.71086014 0.74096863 14.63143707 0.26669312 15.57991028 C-0.22608124 16.5602977 -0.71885559 17.54068512 -1.2265625 18.55078125 C-1.73424164 19.56472458 -2.24192078 20.57866791 -2.76498413 21.62333679 C-4.38311077 24.85400325 -6.00401718 28.08326584 -7.625 31.3125 C-8.72414202 33.50576733 -9.82310248 35.69912566 -10.921875 37.89257812 C-13.61247944 43.26277544 -16.30536606 48.63182355 -19 54 C-20.76624102 53.04128053 -22.53192137 52.0815281 -24.29736328 51.12133789 C-25.28068634 50.58698624 -26.2640094 50.05263458 -27.27713013 49.50209045 C-30.19480388 47.89253506 -33.03778746 46.18444837 -35.875 44.4375 C-42.01761568 40.84704206 -48.24725174 38.22108467 -55 36 C-55.94617187 35.67902344 -56.89234375 35.35804687 -57.8671875 35.02734375 C-65.31720807 32.90300101 -72.60050051 32.69312412 -80.3125 32.625 C-81.33899658 32.61106201 -82.36549316 32.59712402 -83.4230957 32.58276367 C-90.6071361 32.62774059 -96.75125103 33.25105856 -102.4375 38.0625 C-104.38662774 40.4794184 -104.96072845 41.70546335 -105.375 44.8125 C-105.25969493 48.1363985 -105.25969493 48.1363985 -102.9375 50.6875 C-97.11929095 55.26779223 -91.00582139 57.05670537 -83.73828125 57.24609375 C-82.71041504 57.27735352 -81.68254883 57.30861328 -80.62353516 57.34082031 C-78.98457275 57.38867676 -78.98457275 57.38867676 -77.3125 57.4375 C-49.70391172 58.44087408 -23.440791 61.87640836 -2.375 81.4375 C-1.199375 82.7059375 -1.199375 82.7059375 0 84 C0.81404297 84.80630859 0.81404297 84.80630859 1.64453125 85.62890625 C11.84590813 96.27478757 15.94953575 110.95398769 16.375 125.4375 C15.80643601 143.50034048 9.83189567 159.55730271 -3.09765625 172.32421875 C-27.89049742 195.18168336 -60.1587697 201.43985035 -93.02880859 200.16845703 C-126.28233911 198.28308842 -161.66745617 187.33121367 -189 168 C-187.65707637 164.32497483 -186.01299288 161.29280411 -183.8125 158.0625 C-183.10738281 157.02222656 -182.40226562 155.98195313 -181.67578125 154.91015625 C-180.78407264 153.60662136 -179.89211799 152.30325476 -179 151 C-177.80570629 149.2488911 -176.6117195 147.49757284 -175.41796875 145.74609375 C-173.45441104 142.86579694 -171.49034176 139.98585757 -169.52441406 137.10717773 C-164.96954063 130.43524236 -160.4516118 123.74141852 -156 117 C-151.88864702 117.60774887 -148.81270985 118.97594755 -145.16796875 120.94921875 C-144.04737061 121.54758545 -142.92677246 122.14595215 -141.7722168 122.76245117 C-141.1866098 123.07749603 -140.60100281 123.39254089 -139.99765015 123.71713257 C-117.78584273 135.62421915 -93.21876773 146.42427235 -67.66796875 139.05859375 C-63.03449369 137.22012854 -57.31447301 134.62894602 -55 130 C-54.41557037 127.12762267 -54.41557037 127.12762267 -55 124 C-62.73891866 114.97126157 -76.55069465 114.22993876 -87.66439819 112.84793091 C-118.12144316 109.02347308 -151.72304776 103.36396945 -172.3125 78.1875 C-181.29861043 65.35747264 -183.47317931 49.81221958 -181.5703125 34.5546875 C-178.72958326 18.87807057 -171.14705193 5.82269258 -158.3125 -3.6875 C-112.42433555 -33.80604757 -46.07507692 -25.03597553 0 0 Z " fill="#0075AF" transform="translate(2651,1171)"/>
<path d="M0 0 C26.07 0 52.14 0 79 0 C79 69.96 79 139.92 79 212 C52.93 212 26.86 212 0 212 C0 142.04 0 72.08 0 0 Z " fill="#0075AF" transform="translate(1847,1159)"/>
<path d="M0 0 C8.60498275 6.85637663 13.59942595 16.32835717 16 27 C17.69655593 46.23078266 15.22831539 62.62050813 3 78 C-5.27834957 87.86489159 -15.15933143 95.17623563 -26 102 C-26.60392578 102.38510742 -27.20785156 102.77021484 -27.83007812 103.16699219 C-34.7952132 107.57565031 -34.7952132 107.57565031 -38 109 C-41.88681835 107.70439388 -42.85421182 105.90843632 -45.25 102.625 C-45.97703125 101.64789062 -46.7040625 100.67078125 -47.453125 99.6640625 C-47.96359375 98.78492188 -48.4740625 97.90578125 -49 97 C-47.7172573 93.15177189 -45.95131593 92.19806512 -42.75 89.75 C-38.23282766 86.16093329 -35.01891471 82.89272384 -32 78 C-34.56219203 75.43780797 -36.63262884 75.17373622 -40.125 74.25 C-46.18692815 72.44076814 -50.36251882 70.2484651 -55 66 C-55.61488281 65.47535156 -56.22976562 64.95070313 -56.86328125 64.41015625 C-64.2591404 57.67944931 -68.77197506 47.99440905 -69.3359375 37.984375 C-69.62618163 24.35884844 -66.74100223 13.27486445 -57.1875 3.0625 C-40.94315207 -12.13382548 -17.81529509 -13.01316896 0 0 Z " fill="#0075AF" transform="translate(2472,1063)"/>
<path d="M0 0 C9.46829724 6.75823005 16.06831167 15.98451268 18.625 27.375 C20.50100326 38.97375094 18.99649175 51.36423321 12.3125 61.3125 C6.94757304 68.34846978 1.27992007 73.44370468 -6.6875 77.3125 C-7.3475 77.65152344 -8.0075 77.99054688 -8.6875 78.33984375 C-17.7360595 82.17487776 -30.55641206 81.78660792 -39.75 78.6875 C-52.90369703 72.9466062 -61.24858672 64.57093717 -66.6875 51.3125 C-70.55967623 39.99240585 -69.44335883 27.39754191 -64.43359375 16.61328125 C-57.99454668 5.1563392 -48.43543463 -2.55251769 -35.7355957 -6.25683594 C-23.14259058 -8.90483463 -10.85455351 -6.60471984 0 0 Z " fill="#0075AF" transform="translate(1911.6875,1060.6875)"/>
<path d="M0 0 C2.64 0 5.28 0 8 0 C9.65 4.95 11.3 9.9 13 15 C13.61875 13.453125 14.2375 11.90625 14.875 10.3125 C16.25 6.875 17.625 3.4375 19 0 C21.31 0 23.62 0 26 0 C26 8.25 26 16.5 26 25 C24.35 25 22.7 25 21 25 C20.67 21.37 20.34 17.74 20 14 C18.68 17.63 17.36 21.26 16 25 C14.35 25 12.7 25 11 25 C9.35 20.38 7.7 15.76 6 11 C5.67 15.62 5.34 20.24 5 25 C3.35 25 1.7 25 0 25 C0 16.75 0 8.5 0 0 Z " fill="#0075AF" transform="translate(573,1346)"/>
<path d="M0 0 C6.93 0 13.86 0 21 0 C21 1.32 21 2.64 21 4 C18.36 4 15.72 4 13 4 C13 10.93 13 17.86 13 25 C11.35 25 9.7 25 8 25 C8 18.07 8 11.14 8 4 C5.36 4 2.72 4 0 4 C0 2.68 0 1.36 0 0 Z " fill="#0075AF" transform="translate(550,1346)"/>
</svg>
